/* XPM */
static char *a[] = {
/* columns rows colors chars-per-pixel */
"100 100 84 1 ",
"  c #2E0000",
". c #310D0D",
"X c #341616",
"o c #371C1C",
"O c #3A2222",
"+ c #3D2626",
"@ c #3F2A2A",
"# c #422E2E",
"$ c #443232",
"% c #463535",
"& c #483838",
"* c #4C3D3D",
"= c #4E4040",
"- c #524545",
"; c #544747",
": c #564949",
"> c #5B4F4F",
", c #5E5353",
"< c #5F5555",
"1 c #615656",
"2 c #625858",
"3 c #685F5F",
"4 c #6A6262",
"5 c #6C6363",
"6 c #6E6666",
"7 c #686868",
"8 c #716969",
"9 c #766E6E",
"0 c #777070",
"q c #787171",
"w c #7E7777",
"e c #7C7C7C",
"r c #837D7D",
"t c #857F7F",
"y c #888282",
"u c #8B8585",
"i c #8E8989",
"p c #908B8B",
"a c #938E8E",
"s c #949090",
"d c #9A9595",
"f c #9F9B9B",
"g c #A29F9F",
"h c #A7A3A3",
"j c #A8A4A4",
"k c #ACA9A9",
"l c #AFAFAF",
"z c #B0ADAD",
"x c gray70",
"c c #B4B1B1",
"v c #B7B4B4",
"b c #B8B5B5",
"n c #BBB9B9",
"m c #BDBBBB",
"M c #BEBCBC",
"N c #C0BEBE",
"B c #C3C1C1",
"V c #C4C2C2",
"C c #C7C5C5",
"Z c #C8C6C6",
"A c #CAC8C8",
"S c #CCCACA",
"D c #CECDCD",
"F c #D0CECE",
"G c #D2D0D0",
"H c #D4D2D2",
"J c #D6D5D5",
"K c #D8D6D6",
"L c #DBDADA",
"P c #DEDDDD",
"I c #E0DFDF",
"U c gray89",
"Y c #E4E3E3",
"T c #E4E4E4",
"R c #EAE9E9",
"E c #EFEEEE",
"W c #F0EFEF",
"Q c #F3F3F3",
"! c #F4F3F3",
"~ c #F7F6F6",
"^ c #F8F7F7",
"/ c #F9F9F9",
"( c #FCFBFB",
") c white",
/* pixels */
"))))))))))))))))))))))))))))))))))))))))))))))))))))))))))))))))))))))))))))))))))))))))))))))))))))",
")lxxxxxxxxxxxxxxxxxxxxxxxxxxxxxxxxxxxxxxxxxxxxxxxxxxxxxxxxxxxxxxxxxxxxxxxxxxxxxxxxxxxxxxxxxxxxxxxxl)",
")x777777777777777777777777777777777777777777777777777777777777777777777777777777777777777777777777x)",
")x7))))))))))))))))))))))))))))))))))))))))))))))))))))))))))))))))))))))))))))))))))))))))))))))7x)",
")x7))))))))))))))))))))))))))))))))))))))))))))))))))))))))))))))))))))))))))))))))))))))))))))))7x)",
")x7))))))))))))))))))))))))))))))))))))))))))))))))))))))))))))))))))))))))))))))))))))))))))))))7x)",
")x7))))))))))))))))))))))))))))))))))))))))))))))))))))))))))))))))))))))))))))))))))))))))))))))7x)",
")x7))))))))))))))))))))))))))))))))))))))))))))))))))))))))))))))))))))))))))))))))))))))))))))))7x)",
")x7))))))))))))))))))))))))))))))))))))))))))))))))))))))))))))))))))))))))))))))))))))))))))))))7x)",
")x7))))))))))))))))))))))))))))))))))))))))))))))))))))))))))))))))))))))))))))))))))))))))))))))7x)",
")x7))))))))))))))))))))))))))))))))))))))))))))))))))))))))))))))))))))))))))))))))))))))))))))))7x)",
")x7))))))))))))))))))))))))))))))))))))))))))))))))))))))))))))))))))))))))))))))))))))))))))))))7x)",
")x7))))))))))))))))))))))))))))))))))))))))))))))))))))))))))))))))))))))))))))))))))))))))))))))7x)",
")x7))))))))))))))))))))))))))))))))))))))))))))))))))))))))))))))))))))))))))))))))))))))))))))))7x)",
")x7))))))))))))))))))))))))))))))))))))))))))))))))))))))))))))))))))))))))))))))))))))))))))))))7x)",
")x7))))))))))))))))))))))))))))))))))))))))))))))))))))))))))))))))))))))))))))))))))))))))))))))7x)",
")x7))))))))))))))))))))))))))))))))))))))))))))))))))))))))))))))))))))))))))))))))))))))))))))))7x)",
")x7))))))))))))))))))))))))))))))))))))))))))))))))))))))))))))))))))))))))))))))))))))))))))))))7x)",
")x7))))))))))))))))))))))))))))))))))))))))))))))))))))))))))))))))))))))))))))))))))))))))))))))7x)",
")x7))))))))))))))))))))))))))))))))))))))))))))))))))))))))))))))))))))))))))))))))))))))))))))))7x)",
")x7)))))))))))))))))))))))))))))))))))))))))))8        @/))))))))))))))))))))))))))))))))))))))))7x)",
")x7))))))))))))))))))))))))))))))))))))))))))E          K))))))))))))))))))))))))))))))))))))))))7x)",
")x7))))))))))))))))))))))))))))))))))))))))))V          h))))))))))))))))))))))))))))))))))))))))7x)",
")x7))))))))))))))))))))))))))))))))))))))))))u          >))))))))))))))))))))))))))))))))))))))))7x)",
")x7)))))))))))))))))))))))))))))))))))))))))~o           U)))))))))))))))))))))))))))))))))))))))7x)",
")x7)))))))))))))))))))))))))))))))))))))))))G            b)))))))))))))))))))))))))))))))))))))))7x)",
")x7)))))))))))))))))))))))))))))))))))))))))f            0)))))))))))))))))))))))))))))))))))))))7x)",
")x7)))))))))))))))))))))))))))))))))))))))))=     o:      E))))))))))))))))))))))))))))))))))))))7x)",
")x7))))))))))))))))))))))))))))))))))))))))P      yg      C))))))))))))))))))))))))))))))))))))))7x)",
")x7))))))))))))))))))))))))))))))))))))))))z      mF      i))))))))))))))))))))))))))))))))))))))7x)",
")x7))))))))))))))))))))))))))))))))))))))))4      TQ      O/)))))))))))))))))))))))))))))))))))))7x)",
")x7)))))))))))))))))))))))))))))))))))))))R      -))q      H)))))))))))))))))))))))))))))))))))))7x)",
")x7)))))))))))))))))))))))))))))))))))))))N      f))c      g)))))))))))))))))))))))))))))))))))))7x)",
")x7)))))))))))))))))))))))))))))))))))))))t      A))P      ;)))))))))))))))))))))))))))))))))))))7x)",
")x7))))))))))))))))))))))))))))))))))))))~.      E))/#      I))))))))))))))))))))))))))))))))))))7x)",
")x7))))))))))))))))))))))))))))))))))))))D      6))))p      c))))))))))))))))))))))))))))))))))))7x)",
")x7))))))))))))))))))))))))))))))))))))))d      k))))B      8))))))))))))))))))))))))))))))))))))7x)",
")x7)))))))))))))))))))))))))))))))))))))/&      K))))R       E)))))))))))))))))))))))))))))))))))7x)",
")x7)))))))))))))))))))))))))))))))))))))L      o/))))),      B)))))))))))))))))))))))))))))))))))7x)",
")x7)))))))))))))))))))))))))))))))))))))k      y))))))h      y)))))))))))))))))))))))))))))))))))7x)",
")x7)))))))))))))))))))))))))))))))))))))2      M))))))G      X~))))))))))))))))))))))))))))))))))7x)",
")x7))))))))))))))))))))))))))))))))))))T       T))))))~       F))))))))))))))))))))))))))))))))))7x)",
")x7))))))))))))))))))))))))))))))))))))m      -))))))))q      f))))))))))))))))))))))))))))))))))7x)",
")x7))))))))))))))))))))))))))))))))))))w      f))))))))c      *))))))))))))))))))))))))))))))))))7x)",
")x7)))))))))))))))))))))))))))))))))))Q       S))))))))P       P)))))))))))))))))))))))))))))))))7x)",
")x7)))))))))))))))))))))))))))))))))))A       W))))))))($      l)))))))))))))))))))))))))))))))))7x)",
")x7)))))))))))))))))))))))))))))))))))s      8))))))))))a      3)))))))))))))))))))))))))))))))))7x)",
")x7))))))))))))))))))))))))))))))))))/#      l))))))))))V       R))))))))))))))))))))))))))))))))7x)",
")x7))))))))))))))))))))))))))))))))))K       L))))))))))R       M))))))))))))))))))))))))))))))))7x)",
")x7))))))))))))))))))))))))))))))))))j      O/)))))))))))1      r))))))))))))))))))))))))))))))))7x)",
")x7)))))))))))))))))))))))))))))))))),      u))))))))))))h      .!)))))))))))))))))))))))))))))))7x)",
")x7)))))))))))))))))))))))))))))))))Y       M))))))))))))G       S)))))))))))))))))))))))))))))))7x)",
")x7)))))))))))))))))))))))))))))))))b       T))))))))))))~.      d)))))))))))))))))))))))))))))))7x)",
")x7)))))))))))))))))))))))))))))))))0      ;))))))))))))))w      %/))))))))))))))))))))))))))))))7x)",
")x7))))))))))))))))))))))))))))))))E       f))))))))))))))v       L))))))))))))))))))))))))))))))7x)",
")x7))))))))))))))))))))))))))))))))C       S))))))))))))))P       j))))))))))))))))))))))))))))))7x)",
")x7))))))))))))))))))))))))))))))))i       Q)))))))))))))))%      <))))))))))))))))))))))))))))))7x)",
")x7)))))))))))))))))))))))))))))))/O      3QQQQQQQQQQQQQQQQu       T)))))))))))))))))))))))))))))7x)",
")x7)))))))))))))))))))))))))))))))H                                n)))))))))))))))))))))))))))))7x)",
")x7)))))))))))))))))))))))))))))))g                                w)))))))))))))))))))))))))))))7x)",
")x7)))))))))))))))))))))))))))))));                                 Q))))))))))))))))))))))))))))7x)",
")x7))))))))))))))))))))))))))))))U                                  A))))))))))))))))))))))))))))7x)",
")x7))))))))))))))))))))))))))))))c                                  a))))))))))))))))))))))))))))7x)",
")x7))))))))))))))))))))))))))))))8                                  @/)))))))))))))))))))))))))))7x)",
")x7)))))))))))))))))))))))))))))E       f))))))))))))))))))))k       J)))))))))))))))))))))))))))7x)",
")x7)))))))))))))))))))))))))))))B       S))))))))))))))))))))L       h)))))))))))))))))))))))))))7x)",
")x7)))))))))))))))))))))))))))))u       Q))))))))))))))))))))/@      >)))))))))))))))))))))))))))7x)",
")x7))))))))))))))))))))))))))))~X      9))))))))))))))))))))))a       U))))))))))))))))))))))))))7x)",
")x7))))))))))))))))))))))))))))G       c))))))))))))))))))))))C       v))))))))))))))))))))))))))7x)",
")x7))))))))))))))))))))))))))))f       P))))))))))))))))))))))E       9))))))))))))))))))))))))))7x)",
")x7))))))))))))))))))))))))))))*      %()))))))))))))))))))))))5       E)))))))))))))))))))))))))7x)",
")x7)))))))))))))))))))))))))))P       s))))))))))))))))))))))))l       C)))))))))))))))))))))))))7x)",
")x7)))))))))))))))))))))))))))z       Z))))))))))))))))))))))))L       i)))))))))))))))))))))))))7x)",
")x7)))))))))))))))))))))))))))4       E))))))))))))))))))))))))/#      O^))))))))))))))))))))))))7x)",
")x7))))))))))))))))))))))))))R       5))))))))))))))))))))))))))a       G))))))))))))))))))))))))7x)",
")x7))))))))))))))))))))))))))M       k))))))))))))))))))))))))))C       g))))))))))))))))))))))))7x)",
")x7))))))))))))))))))))))))))r       L))))))))))))))))))))))))))E       -))))))))))))))))))))))))7x)",
")x7)))))))))))))))))))))))))~.      +/)))))))))))))))))))))))))))6       I)))))))))))))))))))))))7x)",
")x7)))))))))))))))))))))))))D       i))))))))))))))))))))))))))))z       z)))))))))))))))))))))))7x)",
")x7))))))))))))))))))))))))))))))))))))))))))))))))))))))))))))))))))))))))))))))))))))))))))))))7x)",
")x7))))))))))))))))))))))))))))))))))))))))))))))))))))))))))))))))))))))))))))))))))))))))))))))7x)",
")x7))))))))))))))))))))))))))))))))))))))))))))))))))))))))))))))))))))))))))))))))))))))))))))))7x)",
")x7))))))))))))))))))))))))))))))))))))))))))))))))))))))))))))))))))))))))))))))))))))))))))))))7x)",
")x7))))))))))))))))))))))))))))))))))))))))))))))))))))))))))))))))))))))))))))))))))))))))))))))7x)",
")x7))))))))))))))))))))))))))))))))))))))))))))))))))))))))))))))))))))))))))))))))))))))))))))))7x)",
")x7))))))))))))))))))))))))))))))))))))))))))))))))))))))))))))))))))))))))))))))))))))))))))))))7x)",
")x7))))))))))))))))))))))))))))))))))))))))))))))))))))))))))))))))))))))))))))))))))))))))))))))7x)",
")x7))))))))))))))))))))))))))))))))))))))))))))))))))))))))))))))))))))))))))))))))))))))))))))))7x)",
")x7))))))))))))))))))))))))))))))))))))))))))))))))))))))))))))))))))))))))))))))))))))))))))))))7x)",
")x7))))))))))))))))))))))))))))))))))))))))))))))))))))))))))))))))))))))))))))))))))))))))))))))7x)",
")x7))))))))))))))))))))))))))))))))))))))))))))))))))))))))))))))))))))))))))))))))))))))))))))))7x)",
")x7))))))))))))))))))))))))))))))))))))))))))))))))))))))))))))))))))))))))))))))))))))))))))))))7x)",
")x7))))))))))))))))))))))))))))))))))))))))))))))))))))))))))))))))))))))))))))))))))))))))))))))7x)",
")x7))))))))))))))))))))))))))))))))))))))))))))))))))))))))))))))))))))))))))))))))))))))))))))))7x)",
")x7))))))))))))))))))))))))))))))))))))))))))))))))))))))))))))))))))))))))))))))))))))))))))))))7x)",
")x7))))))))))))))))))))))))))))))))))))))))))))))))))))))))))))))))))))))))))))))))))))))))))))))7x)",
")xe))))))))))))))))))))))))))))))))))))))))))))))))))))))))))))))))))))))))))))))))))))))))))))))7x)",
")x777777777777777777777777777777777777777777777777777777777777777777777777777777777777777777777777x)",
")lxxxxxxxxxxxxxxxxxxxxxxxxxxxxxxxxxxxxxxxxxxxxxxxxxxxxxxxxxxxxxxxxxxxxxxxxxxxxxxxxxxxxxxxxxxxxxxxxl)",
"))))))))))))))))))))))))))))))))))))))))))))))))))))))))))))))))))))))))))))))))))))))))))))))))))))"
};
