/* XPM */
static char *a1[] = {
/* columns rows colors chars-per-pixel */
"100 100 85 1 ",
"  c #686868",
". c #7C7C7C",
"X c #348032",
"o c #378135",
"O c #3A8238",
"+ c #3C823B",
"@ c #3F833D",
"# c #418440",
"$ c #448542",
"% c #468644",
"& c #488747",
"* c #4A8749",
"= c #4C884B",
"- c #4E894D",
"; c #508A4F",
": c #528A51",
"> c #578D56",
", c #588D57",
"< c #5C8F5B",
"1 c #5F905E",
"2 c #639362",
"3 c #659364",
"4 c #679567",
"5 c #6A9669",
"6 c #6D976C",
"7 c #6F996E",
"8 c #739B72",
"9 c #749B73",
"0 c #779D77",
"q c #7A9F79",
"w c #7FA27E",
"e c #81A381",
"r c #85A685",
"t c #88A788",
"y c #8AA989",
"u c #8CAA8B",
"i c #8DAA8C",
"p c #91AD91",
"a c #95AF94",
"s c #97B197",
"d c #9BB39A",
"f c #9BB49B",
"g c #9FB79F",
"h c #AFAFAF",
"j c #A1B8A1",
"k c #A5BAA4",
"l c #A8BCA7",
"z c #AABEAA",
"x c #ACBFAC",
"c c gray70",
"v c #AFC1AF",
"b c #B0C2AF",
"n c #B1C3B1",
"m c #B4C5B3",
"M c #B5C6B5",
"N c #B8C8B8",
"B c #BCCBBC",
"V c #BFCDBE",
"C c #C0CEC0",
"Z c #C4D0C3",
"A c #C4D1C4",
"S c #CBD6CA",
"D c #CCD7CC",
"F c #CED8CE",
"G c #D2DBD2",
"H c #D2DCD2",
"J c #D5DED5",
"K c #D7E0D7",
"L c #D9E1D9",
"P c #DCE3DB",
"I c #DEE5DE",
"U c #E1E7E1",
"Y c #E2E8E2",
"T c #E5EAE5",
"R c #E8ECE7",
"E c #EAEEEA",
"W c #EDF0ED",
"Q c #F0F3EF",
"! c #F0F3F0",
"~ c #F1F4F1",
"^ c #F4F6F4",
"/ c #F6F8F6",
"( c #F8F9F8",
") c #FBFCFB",
"_ c white",
/* pixels */
"____________________________________________________________________________________________________",
"_hcccccccccccccccccccccccccccccccccccccccccccccccccccccccccccccccccccccccccccccccccccccccccccccccch_",
"_c                                                                                                c_",
"_c XXXXXXXXXXXXXXXXXXXXXXXXXXXXXXXXXXXXXXXXXXXXXXXXXXXXXXXXXXXXXXXXXXXXXXXXXXXXXXXXXXXXXXXXXXXXXX c_",
"_c XXXXXXXXXXXXXXXXXXXXXXXXXXXXXXXXXXXXXXXXXXXXXXXXXXXXXXXXXXXXXXXXXXXXXXXXXXXXXXXXXXXXXXXXXXXXXX c_",
"_c XXXXXXXXXXXXXXXXXXXXXXXXXXXXXXXXXXXXXXXXXXXXXXXXXXXXXXXXXXXXXXXXXXXXXXXXXXXXXXXXXXXXXXXXXXXXXX c_",
"_c XXXXXXXXXXXXXXXXXXXXXXXXXXXXXXXXXXXXXXXXXXXXXXXXXXXXXXXXXXXXXXXXXXXXXXXXXXXXXXXXXXXXXXXXXXXXXX c_",
"_c XXXXXXXXXXXXXXXXXXXXXXXXXXXXXXXXXXXXXXXXXXXXXXXXXXXXXXXXXXXXXXXXXXXXXXXXXXXXXXXXXXXXXXXXXXXXXX c_",
"_c XXXXXXXXXXXXXXXXXXXXXXXXXXXXXXXXXXXXXXXXXXXXXXXXXXXXXXXXXXXXXXXXXXXXXXXXXXXXXXXXXXXXXXXXXXXXXX c_",
"_c XXXXXXXXXXXXXXXXXXXXXXXXXXXXXXXXXXXXXXXXXXXXXXXXXXXXXXXXXXXXXXXXXXXXXXXXXXXXXXXXXXXXXXXXXXXXXX c_",
"_c XXXXXXXXXXXXXXXXXXXXXXXXXXXXXXXXXXXXXXXXXXXXXXXXXXXXXXXXXXXXXXXXXXXXXXXXXXXXXXXXXXXXXXXXXXXXXX c_",
"_c XXXXXXXXXXXXXXXXXXXXXXXXXXXXXXXXXXXXXXXXXXXXXXXXXXXXXXXXXXXXXXXXXXXXXXXXXXXXXXXXXXXXXXXXXXXXXX c_",
"_c XXXXXXXXXXXXXXXXXXXXXXXXXXXXXXXXXXXXXXXXXXXXXXXXXXXXXXXXXXXXXXXXXXXXXXXXXXXXXXXXXXXXXXXXXXXXXX c_",
"_c XXXXXXXXXXXXXXXXXXXXXXXXXXXXXXXXXXXXXXXXXXXXXXXXXXXXXXXXXXXXXXXXXXXXXXXXXXXXXXXXXXXXXXXXXXXXXX c_",
"_c XXXXXXXXXXXXXXXXXXXXXXXXXXXXXXXXXXXXXXXXXXXXXXXXXXXXXXXXXXXXXXXXXXXXXXXXXXXXXXXXXXXXXXXXXXXXXX c_",
"_c XXXXXXXXXXXXXXXXXXXXXXXXXXXXXXXXXXXXXXXXXXXXXXXXXXXXXXXXXXXXXXXXXXXXXXXXXXXXXXXXXXXXXXXXXXXXXX c_",
"_c XXXXXXXXXXXXXXXXXXXXXXXXXXXXXXXXXXXXXXXXXXXXXXXXXXXXXXXXXXXXXXXXXXXXXXXXXXXXXXXXXXXXXXXXXXXXXX c_",
"_c XXXXXXXXXXXXXXXXXXXXXXXXXXXXXXXXXXXXXXXXXXXXXXXXXXXXXXXXXXXXXXXXXXXXXXXXXXXXXXXXXXXXXXXXXXXXXX c_",
"_c XXXXXXXXXXXXXXXXXXXXXXXXXXXXXXXXXXXXXXXXXXXXXXXXXXXXXXXXXXXXXXXXXXXXXXXXXXXXXXXXXXXXXXXXXXXXXX c_",
"_c XXXXXXXXXXXXXXXXXXXXXXXXXXXXXXXXXXXXXXXXXXXXXXXXXXXXXXXXXXXXXXXXXXXXXXXXXXXXXXXXXXXXXXXXXXXXXX c_",
"_c XXXXXXXXXXXXXXXXXXXXXXXXXXXXXXXXXXXXXXXXXXXW_________:XXXXXXXXXXXXXXXXXXXXXXXXXXXXXXXXXXXXXXXX c_",
"_c XXXXXXXXXXXXXXXXXXXXXXXXXXXXXXXXXXXXXXXXXX0__________gXXXXXXXXXXXXXXXXXXXXXXXXXXXXXXXXXXXXXXXX c_",
"_c XXXXXXXXXXXXXXXXXXXXXXXXXXXXXXXXXXXXXXXXXXN__________GXXXXXXXXXXXXXXXXXXXXXXXXXXXXXXXXXXXXXXXX c_",
"_c XXXXXXXXXXXXXXXXXXXXXXXXXXXXXXXXXXXXXXXXXXT__________/OXXXXXXXXXXXXXXXXXXXXXXXXXXXXXXXXXXXXXXX c_",
"_c XXXXXXXXXXXXXXXXXXXXXXXXXXXXXXXXXXXXXXXXX<____________uXXXXXXXXXXXXXXXXXXXXXXXXXXXXXXXXXXXXXXX c_",
"_c XXXXXXXXXXXXXXXXXXXXXXXXXXXXXXXXXXXXXXXXXl____________AXXXXXXXXXXXXXXXXXXXXXXXXXXXXXXXXXXXXXXX c_",
"_c XXXXXXXXXXXXXXXXXXXXXXXXXXXXXXXXXXXXXXXXXK____________WXXXXXXXXXXXXXXXXXXXXXXXXXXXXXXXXXXXXXXX c_",
"_c XXXXXXXXXXXXXXXXXXXXXXXXXXXXXXXXXXXXXXXX$(______(______8XXXXXXXXXXXXXXXXXXXXXXXXXXXXXXXXXXXXXX c_",
"_c XXXXXXXXXXXXXXXXXXXXXXXXXXXXXXXXXXXXXXXXa______TJ______MXXXXXXXXXXXXXXXXXXXXXXXXXXXXXXXXXXXXXX c_",
"_c XXXXXXXXXXXXXXXXXXXXXXXXXXXXXXXXXXXXXXXXS______Vz______YXXXXXXXXXXXXXXXXXXXXXXXXXXXXXXXXXXXXXX c_",
"_c XXXXXXXXXXXXXXXXXXXXXXXXXXXXXXXXXXXXXXXX~______y4_______>XXXXXXXXXXXXXXXXXXXXXXXXXXXXXXXXXXXXX c_",
"_c XXXXXXXXXXXXXXXXXXXXXXXXXXXXXXXXXXXXXXXw______(@XW______kXXXXXXXXXXXXXXXXXXXXXXXXXXXXXXXXXXXXX c_",
"_c XXXXXXXXXXXXXXXXXXXXXXXXXXXXXXXXXXXXXXXB______LXXS______JXXXXXXXXXXXXXXXXXXXXXXXXXXXXXXXXXXXXX c_",
"_c XXXXXXXXXXXXXXXXXXXXXXXXXXXXXXXXXXXXXXXT______bXXs______(@XXXXXXXXXXXXXXXXXXXXXXXXXXXXXXXXXXXX c_",
"_c XXXXXXXXXXXXXXXXXXXXXXXXXXXXXXXXXXXXXX2_______8XX=_______pXXXXXXXXXXXXXXXXXXXXXXXXXXXXXXXXXXXX c_",
"_c XXXXXXXXXXXXXXXXXXXXXXXXXXXXXXXXXXXXXXx______!XXXXU______SXXXXXXXXXXXXXXXXXXXXXXXXXXXXXXXXXXXX c_",
"_c XXXXXXXXXXXXXXXXXXXXXXXXXXXXXXXXXXXXXXL______DXXXXN______QXXXXXXXXXXXXXXXXXXXXXXXXXXXXXXXXXXXX c_",
"_c XXXXXXXXXXXXXXXXXXXXXXXXXXXXXXXXXXXXX*)______gXXXXe_______qXXXXXXXXXXXXXXXXXXXXXXXXXXXXXXXXXXX c_",
"_c XXXXXXXXXXXXXXXXXXXXXXXXXXXXXXXXXXXXXd_______>XXXXo^______NXXXXXXXXXXXXXXXXXXXXXXXXXXXXXXXXXXX c_",
"_c XXXXXXXXXXXXXXXXXXXXXXXXXXXXXXXXXXXXXF______TXXXXXXJ______TXXXXXXXXXXXXXXXXXXXXXXXXXXXXXXXXXXX c_",
"_c XXXXXXXXXXXXXXXXXXXXXXXXXXXXXXXXXXXXo^______VXXXXXXz_______1XXXXXXXXXXXXXXXXXXXXXXXXXXXXXXXXXX c_",
"_c XXXXXXXXXXXXXXXXXXXXXXXXXXXXXXXXXXXXr_______yXXXXXX3_______zXXXXXXXXXXXXXXXXXXXXXXXXXXXXXXXXXX c_",
"_c XXXXXXXXXXXXXXXXXXXXXXXXXXXXXXXXXXXXC______(+XXXXXXXE______LXXXXXXXXXXXXXXXXXXXXXXXXXXXXXXXXXX c_",
"_c XXXXXXXXXXXXXXXXXXXXXXXXXXXXXXXXXXXXE______LXXXXXXXXA______(%XXXXXXXXXXXXXXXXXXXXXXXXXXXXXXXXX c_",
"_c XXXXXXXXXXXXXXXXXXXXXXXXXXXXXXXXXXX5_______vXXXXXXXXa_______sXXXXXXXXXXXXXXXXXXXXXXXXXXXXXXXXX c_",
"_c XXXXXXXXXXXXXXXXXXXXXXXXXXXXXXXXXXXn_______8XXXXXXXX&_______DXXXXXXXXXXXXXXXXXXXXXXXXXXXXXXXXX c_",
"_c XXXXXXXXXXXXXXXXXXXXXXXXXXXXXXXXXXXI______QXXXXXXXXXXI______~XXXXXXXXXXXXXXXXXXXXXXXXXXXXXXXXX c_",
"_c XXXXXXXXXXXXXXXXXXXXXXXXXXXXXXXXXX;_______DXXXXXXXXXXM_______eXXXXXXXXXXXXXXXXXXXXXXXXXXXXXXXX c_",
"_c XXXXXXXXXXXXXXXXXXXXXXXXXXXXXXXXXXg_______gXXXXXXXXXXw_______VXXXXXXXXXXXXXXXXXXXXXXXXXXXXXXXX c_",
"_c XXXXXXXXXXXXXXXXXXXXXXXXXXXXXXXXXXG_______:XXXXXXXXXXX^______RXXXXXXXXXXXXXXXXXXXXXXXXXXXXXXXX c_",
"_c XXXXXXXXXXXXXXXXXXXXXXXXXXXXXXXXXO/______TXXXXXXXXXXXXH_______4XXXXXXXXXXXXXXXXXXXXXXXXXXXXXXX c_",
"_c XXXXXXXXXXXXXXXXXXXXXXXXXXXXXXXXXy_______VXXXXXXXXXXXXk_______vXXXXXXXXXXXXXXXXXXXXXXXXXXXXXXX c_",
"_c XXXXXXXXXXXXXXXXXXXXXXXXXXXXXXXXXZ_______tXXXXXXXXXXXX2_______PXXXXXXXXXXXXXXXXXXXXXXXXXXXXXXX c_",
"_c XXXXXXXXXXXXXXXXXXXXXXXXXXXXXXXXXW______(+XXXXXXXXXXXXXE______)=XXXXXXXXXXXXXXXXXXXXXXXXXXXXXX c_",
"_c XXXXXXXXXXXXXXXXXXXXXXXXXXXXXXXX8_______LXXXXXXXXXXXXXXA_______fXXXXXXXXXXXXXXXXXXXXXXXXXXXXXX c_",
"_c XXXXXXXXXXXXXXXXXXXXXXXXXXXXXXXXM_______vXXXXXXXXXXXXXXp_______FXXXXXXXXXXXXXXXXXXXXXXXXXXXXXX c_",
"_c XXXXXXXXXXXXXXXXXXXXXXXXXXXXXXXXU_______7XXXXXXXXXXXXXX%)______^oXXXXXXXXXXXXXXXXXXXXXXXXXXXXX c_",
"_c XXXXXXXXXXXXXXXXXXXXXXXXXXXXXXX>_______~5555555555555555Y_______rXXXXXXXXXXXXXXXXXXXXXXXXXXXXX c_",
"_c XXXXXXXXXXXXXXXXXXXXXXXXXXXXXXXk________________________________CXXXXXXXXXXXXXXXXXXXXXXXXXXXXX c_",
"_c XXXXXXXXXXXXXXXXXXXXXXXXXXXXXXXJ________________________________EXXXXXXXXXXXXXXXXXXXXXXXXXXXXX c_",
"_c XXXXXXXXXXXXXXXXXXXXXXXXXXXXXX@(_________________________________6XXXXXXXXXXXXXXXXXXXXXXXXXXXX c_",
"_c XXXXXXXXXXXXXXXXXXXXXXXXXXXXXXp__________________________________nXXXXXXXXXXXXXXXXXXXXXXXXXXXX c_",
"_c XXXXXXXXXXXXXXXXXXXXXXXXXXXXXXS__________________________________IXXXXXXXXXXXXXXXXXXXXXXXXXXXX c_",
"_c XXXXXXXXXXXXXXXXXXXXXXXXXXXXXXQ___________________________________:XXXXXXXXXXXXXXXXXXXXXXXXXXX c_",
"_c XXXXXXXXXXXXXXXXXXXXXXXXXXXXXq_______LXXXXXXXXXXXXXXXXXXXXF_______jXXXXXXXXXXXXXXXXXXXXXXXXXXX c_",
"_c XXXXXXXXXXXXXXXXXXXXXXXXXXXXXN_______vXXXXXXXXXXXXXXXXXXXXf_______HXXXXXXXXXXXXXXXXXXXXXXXXXXX c_",
"_c XXXXXXXXXXXXXXXXXXXXXXXXXXXXXT_______6XXXXXXXXXXXXXXXXXXXX-_______/+XXXXXXXXXXXXXXXXXXXXXXXXXX c_",
"_c XXXXXXXXXXXXXXXXXXXXXXXXXXXX1_______WXXXXXXXXXXXXXXXXXXXXXXU_______iXXXXXXXXXXXXXXXXXXXXXXXXXX c_",
"_c XXXXXXXXXXXXXXXXXXXXXXXXXXXXz_______SXXXXXXXXXXXXXXXXXXXXXXM_______AXXXXXXXXXXXXXXXXXXXXXXXXXX c_",
"_c XXXXXXXXXXXXXXXXXXXXXXXXXXXXL_______sXXXXXXXXXXXXXXXXXXXXXXq_______WXXXXXXXXXXXXXXXXXXXXXXXXXX c_",
"_c XXXXXXXXXXXXXXXXXXXXXXXXXXX$(______)&XXXXXXXXXXXXXXXXXXXXXXX~_______9XXXXXXXXXXXXXXXXXXXXXXXXX c_",
"_c XXXXXXXXXXXXXXXXXXXXXXXXXXXs_______IXXXXXXXXXXXXXXXXXXXXXXXXD_______MXXXXXXXXXXXXXXXXXXXXXXXXX c_",
"_c XXXXXXXXXXXXXXXXXXXXXXXXXXXS_______mXXXXXXXXXXXXXXXXXXXXXXXXd_______YXXXXXXXXXXXXXXXXXXXXXXXXX c_",
"_c XXXXXXXXXXXXXXXXXXXXXXXXXXX~_______0XXXXXXXXXXXXXXXXXXXXXXXX-________,XXXXXXXXXXXXXXXXXXXXXXXX c_",
"_c XXXXXXXXXXXXXXXXXXXXXXXXXXe_______~XXXXXXXXXXXXXXXXXXXXXXXXXXI_______kXXXXXXXXXXXXXXXXXXXXXXXX c_",
"_c XXXXXXXXXXXXXXXXXXXXXXXXXXB_______DXXXXXXXXXXXXXXXXXXXXXXXXXXM_______JXXXXXXXXXXXXXXXXXXXXXXXX c_",
"_c XXXXXXXXXXXXXXXXXXXXXXXXXXR_______gXXXXXXXXXXXXXXXXXXXXXXXXXX0_______(#XXXXXXXXXXXXXXXXXXXXXXX c_",
"_c XXXXXXXXXXXXXXXXXXXXXXXXX3________:XXXXXXXXXXXXXXXXXXXXXXXXXXX!_______pXXXXXXXXXXXXXXXXXXXXXXX c_",
"_c XXXXXXXXXXXXXXXXXXXXXXXXXv_______YXXXXXXXXXXXXXXXXXXXXXXXXXXXXS_______SXXXXXXXXXXXXXXXXXXXXXXX c_",
"_c XXXXXXXXXXXXXXXXXXXXXXXXXXXXXXXXXXXXXXXXXXXXXXXXXXXXXXXXXXXXXXXXXXXXXXXXXXXXXXXXXXXXXXXXXXXXXX c_",
"_c XXXXXXXXXXXXXXXXXXXXXXXXXXXXXXXXXXXXXXXXXXXXXXXXXXXXXXXXXXXXXXXXXXXXXXXXXXXXXXXXXXXXXXXXXXXXXX c_",
"_c XXXXXXXXXXXXXXXXXXXXXXXXXXXXXXXXXXXXXXXXXXXXXXXXXXXXXXXXXXXXXXXXXXXXXXXXXXXXXXXXXXXXXXXXXXXXXX c_",
"_c XXXXXXXXXXXXXXXXXXXXXXXXXXXXXXXXXXXXXXXXXXXXXXXXXXXXXXXXXXXXXXXXXXXXXXXXXXXXXXXXXXXXXXXXXXXXXX c_",
"_c XXXXXXXXXXXXXXXXXXXXXXXXXXXXXXXXXXXXXXXXXXXXXXXXXXXXXXXXXXXXXXXXXXXXXXXXXXXXXXXXXXXXXXXXXXXXXX c_",
"_c XXXXXXXXXXXXXXXXXXXXXXXXXXXXXXXXXXXXXXXXXXXXXXXXXXXXXXXXXXXXXXXXXXXXXXXXXXXXXXXXXXXXXXXXXXXXXX c_",
"_c XXXXXXXXXXXXXXXXXXXXXXXXXXXXXXXXXXXXXXXXXXXXXXXXXXXXXXXXXXXXXXXXXXXXXXXXXXXXXXXXXXXXXXXXXXXXXX c_",
"_c XXXXXXXXXXXXXXXXXXXXXXXXXXXXXXXXXXXXXXXXXXXXXXXXXXXXXXXXXXXXXXXXXXXXXXXXXXXXXXXXXXXXXXXXXXXXXX c_",
"_c XXXXXXXXXXXXXXXXXXXXXXXXXXXXXXXXXXXXXXXXXXXXXXXXXXXXXXXXXXXXXXXXXXXXXXXXXXXXXXXXXXXXXXXXXXXXXX c_",
"_c XXXXXXXXXXXXXXXXXXXXXXXXXXXXXXXXXXXXXXXXXXXXXXXXXXXXXXXXXXXXXXXXXXXXXXXXXXXXXXXXXXXXXXXXXXXXXX c_",
"_c XXXXXXXXXXXXXXXXXXXXXXXXXXXXXXXXXXXXXXXXXXXXXXXXXXXXXXXXXXXXXXXXXXXXXXXXXXXXXXXXXXXXXXXXXXXXXX c_",
"_c XXXXXXXXXXXXXXXXXXXXXXXXXXXXXXXXXXXXXXXXXXXXXXXXXXXXXXXXXXXXXXXXXXXXXXXXXXXXXXXXXXXXXXXXXXXXXX c_",
"_c XXXXXXXXXXXXXXXXXXXXXXXXXXXXXXXXXXXXXXXXXXXXXXXXXXXXXXXXXXXXXXXXXXXXXXXXXXXXXXXXXXXXXXXXXXXXXX c_",
"_c XXXXXXXXXXXXXXXXXXXXXXXXXXXXXXXXXXXXXXXXXXXXXXXXXXXXXXXXXXXXXXXXXXXXXXXXXXXXXXXXXXXXXXXXXXXXXX c_",
"_c XXXXXXXXXXXXXXXXXXXXXXXXXXXXXXXXXXXXXXXXXXXXXXXXXXXXXXXXXXXXXXXXXXXXXXXXXXXXXXXXXXXXXXXXXXXXXX c_",
"_c XXXXXXXXXXXXXXXXXXXXXXXXXXXXXXXXXXXXXXXXXXXXXXXXXXXXXXXXXXXXXXXXXXXXXXXXXXXXXXXXXXXXXXXXXXXXXX c_",
"_c XXXXXXXXXXXXXXXXXXXXXXXXXXXXXXXXXXXXXXXXXXXXXXXXXXXXXXXXXXXXXXXXXXXXXXXXXXXXXXXXXXXXXXXXXXXXXX c_",
"_c.XXXXXXXXXXXXXXXXXXXXXXXXXXXXXXXXXXXXXXXXXXXXXXXXXXXXXXXXXXXXXXXXXXXXXXXXXXXXXXXXXXXXXXXXXXXXXX c_",
"_c                                                                                                c_",
"_hcccccccccccccccccccccccccccccccccccccccccccccccccccccccccccccccccccccccccccccccccccccccccccccccch_",
"____________________________________________________________________________________________________"
};
