/* XPM */
static char *a2[] = {
/* columns rows colors chars-per-pixel */
"100 100 74 1 ",
"  c #686868",
". c #7C7C7C",
"X c #C3AF2A",
"o c #C3AF2E",
"O c #C4B031",
"+ c #C4B137",
"@ c #C4B13A",
"# c #C5B13D",
"$ c #C5B242",
"% c #C6B344",
"& c #C6B348",
"* c #C6B44A",
"= c #C7B44C",
"- c #C7B552",
"; c #C8B757",
": c #C9B75B",
"> c #CAB95F",
", c #CAB961",
"< c #CABA64",
"1 c #CCBB69",
"2 c #CCBC6D",
"3 c #CDBD70",
"4 c #CEBF75",
"5 c #D0C17B",
"6 c #D0C17C",
"7 c #AFAFAF",
"8 c gray70",
"9 c #D1C383",
"0 c #D2C587",
"q c #D3C68A",
"w c #D4C78E",
"e c #D5C88F",
"r c #D6C993",
"t c #D6CA96",
"y c #D7CC99",
"u c #D8CD9B",
"i c #D9CE9E",
"p c #DBD0A3",
"a c #DBD1A5",
"s c #DCD1A6",
"d c #DCD2A9",
"f c #DED4AE",
"g c #DFD5B0",
"h c #E0D7B3",
"j c #E0D7B4",
"k c #E1D9B7",
"l c #E3DBBB",
"z c #E3DBBC",
"x c #E3DCBD",
"c c #E4DCBE",
"v c #E6DFC3",
"b c #E6DFC4",
"n c #E7E0C7",
"m c #E8E2CA",
"M c #E9E3CC",
"N c #EAE4CD",
"B c #EBE6D1",
"V c #EDE7D5",
"C c #EDE9D7",
"Z c #EEE9D8",
"A c #F0ECDE",
"S c #F2EEE1",
"D c #F3F0E5",
"F c #F4F1E6",
"G c #F5F3EA",
"H c #F6F4EB",
"J c #F7F4ED",
"K c #F8F6EF",
"L c #F9F7F1",
"P c #F9F8F2",
"I c #FBFAF6",
"U c #FCFBF8",
"Y c #FCFCF9",
"T c white",
/* pixels */
"TTTTTTTTTTTTTTTTTTTTTTTTTTTTTTTTTTTTTTTTTTTTTTTTTTTTTTTTTTTTTTTTTTTTTTTTTTTTTTTTTTTTTTTTTTTTTTTTTTTT",
"T78888888888888888888888888888888888888888888888888888888888888888888888888888888888888888888888887T",
"T8                                                                                                8T",
"T8 XXXXXXXXXXXXXXXXXXXXXXXXXXXXXXXXXXXXXXXXXXXXXXXXXXXXXXXXXXXXXXXXXXXXXXXXXXXXXXXXXXXXXXXXXXXXXX 8T",
"T8 XXXXXXXXXXXXXXXXXXXXXXXXXXXXXXXXXXXXXXXXXXXXXXXXXXXXXXXXXXXXXXXXXXXXXXXXXXXXXXXXXXXXXXXXXXXXXX 8T",
"T8 XXXXXXXXXXXXXXXXXXXXXXXXXXXXXXXXXXXXXXXXXXXXXXXXXXXXXXXXXXXXXXXXXXXXXXXXXXXXXXXXXXXXXXXXXXXXXX 8T",
"T8 XXXXXXXXXXXXXXXXXXXXXXXXXXXXXXXXXXXXXXXXXXXXXXXXXXXXXXXXXXXXXXXXXXXXXXXXXXXXXXXXXXXXXXXXXXXXXX 8T",
"T8 XXXXXXXXXXXXXXXXXXXXXXXXXXXXXXXXXXXXXXXXXXXXXXXXXXXXXXXXXXXXXXXXXXXXXXXXXXXXXXXXXXXXXXXXXXXXXX 8T",
"T8 XXXXXXXXXXXXXXXXXXXXXXXXXXXXXXXXXXXXXXXXXXXXXXXXXXXXXXXXXXXXXXXXXXXXXXXXXXXXXXXXXXXXXXXXXXXXXX 8T",
"T8 XXXXXXXXXXXXXXXXXXXXXXXXXXXXXXXXXXXXXXXXXXXXXXXXXXXXXXXXXXXXXXXXXXXXXXXXXXXXXXXXXXXXXXXXXXXXXX 8T",
"T8 XXXXXXXXXXXXXXXXXXXXXXXXXXXXXXXXXXXXXXXXXXXXXXXXXXXXXXXXXXXXXXXXXXXXXXXXXXXXXXXXXXXXXXXXXXXXXX 8T",
"T8 XXXXXXXXXXXXXXXXXXXXXXXXXXXXXXXXXXXXXXXXXXXXXXXXXXXXXXXXXXXXXXXXXXXXXXXXXXXXXXXXXXXXXXXXXXXXXX 8T",
"T8 XXXXXXXXXXXXXXXXXXXXXXXXXXXXXXXXXXXXXXXXXXXXXXXXXXXXXXXXXXXXXXXXXXXXXXXXXXXXXXXXXXXXXXXXXXXXXX 8T",
"T8 XXXXXXXXXXXXXXXXXXXXXXXXXXXXXXXXXXXXXXXXXXXXXXXXXXXXXXXXXXXXXXXXXXXXXXXXXXXXXXXXXXXXXXXXXXXXXX 8T",
"T8 XXXXXXXXXXXXXXXXXXXXXXXXXXXXXXXXXXXXXXXXXXXXXXXXXXXXXXXXXXXXXXXXXXXXXXXXXXXXXXXXXXXXXXXXXXXXXX 8T",
"T8 XXXXXXXXXXXXXXXXXXXXXXXXXXXXXXXXXXXXXXXXXXXXXXXXXXXXXXXXXXXXXXXXXXXXXXXXXXXXXXXXXXXXXXXXXXXXXX 8T",
"T8 XXXXXXXXXXXXXXXXXXXXXXXXXXXXXXXXXXXXXXXXXXXXXXXXXXXXXXXXXXXXXXXXXXXXXXXXXXXXXXXXXXXXXXXXXXXXXX 8T",
"T8 XXXXXXXXXXXXXXXXXXXXXXXXXXXXXXXXXXXXXXXXXXXXXXXXXXXXXXXXXXXXXXXXXXXXXXXXXXXXXXXXXXXXXXXXXXXXXX 8T",
"T8 XXXXXXXXXXXXXXXXXXXXXXXXXXXXXXXXXXXXXXXXXXXXXXXXXXXXXXXXXXXXXXXXXXXXXXXXXXXXXXXXXXXXXXXXXXXXXX 8T",
"T8 XXXXXXXXXXXXXXXXXXXXXXXXXXXXXXXXXXXXXXXXXXXXXXXXXXXXXXXXXXXXXXXXXXXXXXXXXXXXXXXXXXXXXXXXXXXXXX 8T",
"T8 XXXXXXXXXXXXXXXXXXXXXXXXXXXXXXXXXXXXXXXXXXXKTTTTTTTTT=XXXXXXXXXXXXXXXXXXXXXXXXXXXXXXXXXXXXXXXX 8T",
"T8 XXXXXXXXXXXXXXXXXXXXXXXXXXXXXXXXXXXXXXXXXX4TTTTTTTTTTiXXXXXXXXXXXXXXXXXXXXXXXXXXXXXXXXXXXXXXXX 8T",
"T8 XXXXXXXXXXXXXXXXXXXXXXXXXXXXXXXXXXXXXXXXXXkTTTTTTTTTTBXXXXXXXXXXXXXXXXXXXXXXXXXXXXXXXXXXXXXXXX 8T",
"T8 XXXXXXXXXXXXXXXXXXXXXXXXXXXXXXXXXXXXXXXXXXSTTTTTTTTTTIOXXXXXXXXXXXXXXXXXXXXXXXXXXXXXXXXXXXXXXX 8T",
"T8 XXXXXXXXXXXXXXXXXXXXXXXXXXXXXXXXXXXXXXXXX;TTTTTTTTTTTTqXXXXXXXXXXXXXXXXXXXXXXXXXXXXXXXXXXXXXXX 8T",
"T8 XXXXXXXXXXXXXXXXXXXXXXXXXXXXXXXXXXXXXXXXXsTTTTTTTTTTTTvXXXXXXXXXXXXXXXXXXXXXXXXXXXXXXXXXXXXXXX 8T",
"T8 XXXXXXXXXXXXXXXXXXXXXXXXXXXXXXXXXXXXXXXXXCTTTTTTTTTTTTJXXXXXXXXXXXXXXXXXXXXXXXXXXXXXXXXXXXXXXX 8T",
"T8 XXXXXXXXXXXXXXXXXXXXXXXXXXXXXXXXXXXXXXXX#YTTTTTTUTTTTTT3XXXXXXXXXXXXXXXXXXXXXXXXXXXXXXXXXXXXXX 8T",
"T8 XXXXXXXXXXXXXXXXXXXXXXXXXXXXXXXXXXXXXXXXrTTTTTTDVTTTTTTjXXXXXXXXXXXXXXXXXXXXXXXXXXXXXXXXXXXXXX 8T",
"T8 XXXXXXXXXXXXXXXXXXXXXXXXXXXXXXXXXXXXXXXXmTTTTTTcdTTTTTTSXXXXXXXXXXXXXXXXXXXXXXXXXXXXXXXXXXXXXX 8T",
"T8 XXXXXXXXXXXXXXXXXXXXXXXXXXXXXXXXXXXXXXXXLTTTTTTq<TTTTTTT-XXXXXXXXXXXXXXXXXXXXXXXXXXXXXXXXXXXXX 8T",
"T8 XXXXXXXXXXXXXXXXXXXXXXXXXXXXXXXXXXXXXXX6TTTTTTU+XJTTTTTTpXXXXXXXXXXXXXXXXXXXXXXXXXXXXXXXXXXXXX 8T",
"T8 XXXXXXXXXXXXXXXXXXXXXXXXXXXXXXXXXXXXXXXlTTTTTTZXXnTTTTTTVXXXXXXXXXXXXXXXXXXXXXXXXXXXXXXXXXXXXX 8T",
"T8 XXXXXXXXXXXXXXXXXXXXXXXXXXXXXXXXXXXXXXXFTTTTTTfXXtTTTTTTU+XXXXXXXXXXXXXXXXXXXXXXXXXXXXXXXXXXXX 8T",
"T8 XXXXXXXXXXXXXXXXXXXXXXXXXXXXXXXXXXXXXX>TTTTTTT2XX%TTTTTTTeXXXXXXXXXXXXXXXXXXXXXXXXXXXXXXXXXXXX 8T",
"T8 XXXXXXXXXXXXXXXXXXXXXXXXXXXXXXXXXXXXXXdTTTTTTLXXXXSTTTTTTnXXXXXXXXXXXXXXXXXXXXXXXXXXXXXXXXXXXX 8T",
"T8 XXXXXXXXXXXXXXXXXXXXXXXXXXXXXXXXXXXXXXZTTTTTTMXXXXlTTTTTTKXXXXXXXXXXXXXXXXXXXXXXXXXXXXXXXXXXXX 8T",
"T8 XXXXXXXXXXXXXXXXXXXXXXXXXXXXXXXXXXXXX%YTTTTTTiXXXX6TTTTTTT4XXXXXXXXXXXXXXXXXXXXXXXXXXXXXXXXXXX 8T",
"T8 XXXXXXXXXXXXXXXXXXXXXXXXXXXXXXXXXXXXXyTTTTTTT-XXXXoITTTTTTlXXXXXXXXXXXXXXXXXXXXXXXXXXXXXXXXXXX 8T",
"T8 XXXXXXXXXXXXXXXXXXXXXXXXXXXXXXXXXXXXXNTTTTTTDXXXXXXVTTTTTTDXXXXXXXXXXXXXXXXXXXXXXXXXXXXXXXXXXX 8T",
"T8 XXXXXXXXXXXXXXXXXXXXXXXXXXXXXXXXXXXXoITTTTTTxXXXXXXsTTTTTTT:XXXXXXXXXXXXXXXXXXXXXXXXXXXXXXXXXX 8T",
"T8 XXXXXXXXXXXXXXXXXXXXXXXXXXXXXXXXXXXX9TTTTTTT0XXXXXX,TTTTTTTdXXXXXXXXXXXXXXXXXXXXXXXXXXXXXXXXXX 8T",
"T8 XXXXXXXXXXXXXXXXXXXXXXXXXXXXXXXXXXXXcTTTTTTU+XXXXXXXHTTTTTTZXXXXXXXXXXXXXXXXXXXXXXXXXXXXXXXXXX 8T",
"T8 XXXXXXXXXXXXXXXXXXXXXXXXXXXXXXXXXXXXGTTTTTTZXXXXXXXXnTTTTTTY#XXXXXXXXXXXXXXXXXXXXXXXXXXXXXXXXX 8T",
"T8 XXXXXXXXXXXXXXXXXXXXXXXXXXXXXXXXXXX<TTTTTTTfXXXXXXXXrTTTTTTTtXXXXXXXXXXXXXXXXXXXXXXXXXXXXXXXXX 8T",
"T8 XXXXXXXXXXXXXXXXXXXXXXXXXXXXXXXXXXXgTTTTTTT2XXXXXXXX$TTTTTTTmXXXXXXXXXXXXXXXXXXXXXXXXXXXXXXXXX 8T",
"T8 XXXXXXXXXXXXXXXXXXXXXXXXXXXXXXXXXXXATTTTTTKXXXXXXXXXXATTTTTTPXXXXXXXXXXXXXXXXXXXXXXXXXXXXXXXXX 8T",
"T8 XXXXXXXXXXXXXXXXXXXXXXXXXXXXXXXXXX*TTTTTTTmXXXXXXXXXXkTTTTTTT6XXXXXXXXXXXXXXXXXXXXXXXXXXXXXXXX 8T",
"T8 XXXXXXXXXXXXXXXXXXXXXXXXXXXXXXXXXXiTTTTTTTuXXXXXXXXXX5TTTTTTTzXXXXXXXXXXXXXXXXXXXXXXXXXXXXXXXX 8T",
"T8 XXXXXXXXXXXXXXXXXXXXXXXXXXXXXXXXXXBTTTTTTT=XXXXXXXXXXXITTTTTTFXXXXXXXXXXXXXXXXXXXXXXXXXXXXXXXX 8T",
"T8 XXXXXXXXXXXXXXXXXXXXXXXXXXXXXXXXXOITTTTTTDXXXXXXXXXXXXBTTTTTTT,XXXXXXXXXXXXXXXXXXXXXXXXXXXXXXX 8T",
"T8 XXXXXXXXXXXXXXXXXXXXXXXXXXXXXXXXXqTTTTTTTzXXXXXXXXXXXXaTTTTTTTfXXXXXXXXXXXXXXXXXXXXXXXXXXXXXXX 8T",
"T8 XXXXXXXXXXXXXXXXXXXXXXXXXXXXXXXXXvTTTTTTT0XXXXXXXXXXXX>TTTTTTTZXXXXXXXXXXXXXXXXXXXXXXXXXXXXXXX 8T",
"T8 XXXXXXXXXXXXXXXXXXXXXXXXXXXXXXXXXJTTTTTTU+XXXXXXXXXXXXXGTTTTTTY%XXXXXXXXXXXXXXXXXXXXXXXXXXXXXX 8T",
"T8 XXXXXXXXXXXXXXXXXXXXXXXXXXXXXXXX2TTTTTTTZXXXXXXXXXXXXXXbTTTTTTTuXXXXXXXXXXXXXXXXXXXXXXXXXXXXXX 8T",
"T8 XXXXXXXXXXXXXXXXXXXXXXXXXXXXXXXXjTTTTTTTfXXXXXXXXXXXXXXrTTTTTTTNXXXXXXXXXXXXXXXXXXXXXXXXXXXXXX 8T",
"T8 XXXXXXXXXXXXXXXXXXXXXXXXXXXXXXXXSTTTTTTT2XXXXXXXXXXXXXX#YTTTTTTIoXXXXXXXXXXXXXXXXXXXXXXXXXXXXX 8T",
"T8 XXXXXXXXXXXXXXXXXXXXXXXXXXXXXXX-TTTTTTTP<<<<<<<<<<<<<<<<STTTTTTT0XXXXXXXXXXXXXXXXXXXXXXXXXXXXX 8T",
"T8 XXXXXXXXXXXXXXXXXXXXXXXXXXXXXXXpTTTTTTTTTTTTTTTTTTTTTTTTTTTTTTTTvXXXXXXXXXXXXXXXXXXXXXXXXXXXXX 8T",
"T8 XXXXXXXXXXXXXXXXXXXXXXXXXXXXXXXVTTTTTTTTTTTTTTTTTTTTTTTTTTTTTTTTGXXXXXXXXXXXXXXXXXXXXXXXXXXXXX 8T",
"T8 XXXXXXXXXXXXXXXXXXXXXXXXXXXXXX+UTTTTTTTTTTTTTTTTTTTTTTTTTTTTTTTTT1XXXXXXXXXXXXXXXXXXXXXXXXXXXX 8T",
"T8 XXXXXXXXXXXXXXXXXXXXXXXXXXXXXXwTTTTTTTTTTTTTTTTTTTTTTTTTTTTTTTTTTgXXXXXXXXXXXXXXXXXXXXXXXXXXXX 8T",
"T8 XXXXXXXXXXXXXXXXXXXXXXXXXXXXXXnTTTTTTTTTTTTTTTTTTTTTTTTTTTTTTTTTTAXXXXXXXXXXXXXXXXXXXXXXXXXXXX 8T",
"T8 XXXXXXXXXXXXXXXXXXXXXXXXXXXXXXKTTTTTTTTTTTTTTTTTTTTTTTTTTTTTTTTTTT=XXXXXXXXXXXXXXXXXXXXXXXXXXX 8T",
"T8 XXXXXXXXXXXXXXXXXXXXXXXXXXXXX4TTTTTTTZXXXXXXXXXXXXXXXXXXXXMTTTTTTTiXXXXXXXXXXXXXXXXXXXXXXXXXXX 8T",
"T8 XXXXXXXXXXXXXXXXXXXXXXXXXXXXXlTTTTTTTfXXXXXXXXXXXXXXXXXXXXuTTTTTTTBXXXXXXXXXXXXXXXXXXXXXXXXXXX 8T",
"T8 XXXXXXXXXXXXXXXXXXXXXXXXXXXXXDTTTTTTT1XXXXXXXXXXXXXXXXXXXX&TTTTTTTI+XXXXXXXXXXXXXXXXXXXXXXXXXX 8T",
"T8 XXXXXXXXXXXXXXXXXXXXXXXXXXXX:TTTTTTTJXXXXXXXXXXXXXXXXXXXXXXSTTTTTTTqXXXXXXXXXXXXXXXXXXXXXXXXXX 8T",
"T8 XXXXXXXXXXXXXXXXXXXXXXXXXXXXsTTTTTTTnXXXXXXXXXXXXXXXXXXXXXXkTTTTTTTbXXXXXXXXXXXXXXXXXXXXXXXXXX 8T",
"T8 XXXXXXXXXXXXXXXXXXXXXXXXXXXXZTTTTTTTtXXXXXXXXXXXXXXXXXXXXXX4TTTTTTTJXXXXXXXXXXXXXXXXXXXXXXXXXX 8T",
"T8 XXXXXXXXXXXXXXXXXXXXXXXXXXX#YTTTTTTY$XXXXXXXXXXXXXXXXXXXXXXXLTTTTTTT3XXXXXXXXXXXXXXXXXXXXXXXXX 8T",
"T8 XXXXXXXXXXXXXXXXXXXXXXXXXXXtTTTTTTTAXXXXXXXXXXXXXXXXXXXXXXXXmTTTTTTTkXXXXXXXXXXXXXXXXXXXXXXXXX 8T",
"T8 XXXXXXXXXXXXXXXXXXXXXXXXXXXmTTTTTTThXXXXXXXXXXXXXXXXXXXXXXXXyTTTTTTTSXXXXXXXXXXXXXXXXXXXXXXXXX 8T",
"T8 XXXXXXXXXXXXXXXXXXXXXXXXXXXLTTTTTTT3XXXXXXXXXXXXXXXXXXXXXXXX&TTTTTTTT;XXXXXXXXXXXXXXXXXXXXXXXX 8T",
"T8 XXXXXXXXXXXXXXXXXXXXXXXXXX6TTTTTTTLXXXXXXXXXXXXXXXXXXXXXXXXXXATTTTTTTaXXXXXXXXXXXXXXXXXXXXXXXX 8T",
"T8 XXXXXXXXXXXXXXXXXXXXXXXXXXzTTTTTTTMXXXXXXXXXXXXXXXXXXXXXXXXXXjTTTTTTTCXXXXXXXXXXXXXXXXXXXXXXXX 8T",
"T8 XXXXXXXXXXXXXXXXXXXXXXXXXXFTTTTTTTuXXXXXXXXXXXXXXXXXXXXXXXXXX4TTTTTTTU@XXXXXXXXXXXXXXXXXXXXXXX 8T",
"T8 XXXXXXXXXXXXXXXXXXXXXXXXX,TTTTTTTT=XXXXXXXXXXXXXXXXXXXXXXXXXXXLTTTTTTTrXXXXXXXXXXXXXXXXXXXXXXX 8T",
"T8 XXXXXXXXXXXXXXXXXXXXXXXXXfTTTTTTTSXXXXXXXXXXXXXXXXXXXXXXXXXXXXmTTTTTTTmXXXXXXXXXXXXXXXXXXXXXXX 8T",
"T8 XXXXXXXXXXXXXXXXXXXXXXXXXXXXXXXXXXXXXXXXXXXXXXXXXXXXXXXXXXXXXXXXXXXXXXXXXXXXXXXXXXXXXXXXXXXXXX 8T",
"T8 XXXXXXXXXXXXXXXXXXXXXXXXXXXXXXXXXXXXXXXXXXXXXXXXXXXXXXXXXXXXXXXXXXXXXXXXXXXXXXXXXXXXXXXXXXXXXX 8T",
"T8 XXXXXXXXXXXXXXXXXXXXXXXXXXXXXXXXXXXXXXXXXXXXXXXXXXXXXXXXXXXXXXXXXXXXXXXXXXXXXXXXXXXXXXXXXXXXXX 8T",
"T8 XXXXXXXXXXXXXXXXXXXXXXXXXXXXXXXXXXXXXXXXXXXXXXXXXXXXXXXXXXXXXXXXXXXXXXXXXXXXXXXXXXXXXXXXXXXXXX 8T",
"T8 XXXXXXXXXXXXXXXXXXXXXXXXXXXXXXXXXXXXXXXXXXXXXXXXXXXXXXXXXXXXXXXXXXXXXXXXXXXXXXXXXXXXXXXXXXXXXX 8T",
"T8 XXXXXXXXXXXXXXXXXXXXXXXXXXXXXXXXXXXXXXXXXXXXXXXXXXXXXXXXXXXXXXXXXXXXXXXXXXXXXXXXXXXXXXXXXXXXXX 8T",
"T8 XXXXXXXXXXXXXXXXXXXXXXXXXXXXXXXXXXXXXXXXXXXXXXXXXXXXXXXXXXXXXXXXXXXXXXXXXXXXXXXXXXXXXXXXXXXXXX 8T",
"T8 XXXXXXXXXXXXXXXXXXXXXXXXXXXXXXXXXXXXXXXXXXXXXXXXXXXXXXXXXXXXXXXXXXXXXXXXXXXXXXXXXXXXXXXXXXXXXX 8T",
"T8 XXXXXXXXXXXXXXXXXXXXXXXXXXXXXXXXXXXXXXXXXXXXXXXXXXXXXXXXXXXXXXXXXXXXXXXXXXXXXXXXXXXXXXXXXXXXXX 8T",
"T8 XXXXXXXXXXXXXXXXXXXXXXXXXXXXXXXXXXXXXXXXXXXXXXXXXXXXXXXXXXXXXXXXXXXXXXXXXXXXXXXXXXXXXXXXXXXXXX 8T",
"T8 XXXXXXXXXXXXXXXXXXXXXXXXXXXXXXXXXXXXXXXXXXXXXXXXXXXXXXXXXXXXXXXXXXXXXXXXXXXXXXXXXXXXXXXXXXXXXX 8T",
"T8 XXXXXXXXXXXXXXXXXXXXXXXXXXXXXXXXXXXXXXXXXXXXXXXXXXXXXXXXXXXXXXXXXXXXXXXXXXXXXXXXXXXXXXXXXXXXXX 8T",
"T8 XXXXXXXXXXXXXXXXXXXXXXXXXXXXXXXXXXXXXXXXXXXXXXXXXXXXXXXXXXXXXXXXXXXXXXXXXXXXXXXXXXXXXXXXXXXXXX 8T",
"T8 XXXXXXXXXXXXXXXXXXXXXXXXXXXXXXXXXXXXXXXXXXXXXXXXXXXXXXXXXXXXXXXXXXXXXXXXXXXXXXXXXXXXXXXXXXXXXX 8T",
"T8 XXXXXXXXXXXXXXXXXXXXXXXXXXXXXXXXXXXXXXXXXXXXXXXXXXXXXXXXXXXXXXXXXXXXXXXXXXXXXXXXXXXXXXXXXXXXXX 8T",
"T8 XXXXXXXXXXXXXXXXXXXXXXXXXXXXXXXXXXXXXXXXXXXXXXXXXXXXXXXXXXXXXXXXXXXXXXXXXXXXXXXXXXXXXXXXXXXXXX 8T",
"T8 XXXXXXXXXXXXXXXXXXXXXXXXXXXXXXXXXXXXXXXXXXXXXXXXXXXXXXXXXXXXXXXXXXXXXXXXXXXXXXXXXXXXXXXXXXXXXX 8T",
"T8.XXXXXXXXXXXXXXXXXXXXXXXXXXXXXXXXXXXXXXXXXXXXXXXXXXXXXXXXXXXXXXXXXXXXXXXXXXXXXXXXXXXXXXXXXXXXXX 8T",
"T8                                                                                                8T",
"T78888888888888888888888888888888888888888888888888888888888888888888888888888888888888888888888887T",
"TTTTTTTTTTTTTTTTTTTTTTTTTTTTTTTTTTTTTTTTTTTTTTTTTTTTTTTTTTTTTTTTTTTTTTTTTTTTTTTTTTTTTTTTTTTTTTTTTTTT"
};
