/* XPM */
static char *a3[] = {
/* columns rows colors chars-per-pixel */
"100 100 37 1 ",
"  c #686868",
". c #727272",
"X c #747474",
"o c gray47",
"O c gray50",
"+ c #818181",
"@ c #848484",
"# c #8B8B8B",
"$ c gray55",
"% c #929292",
"& c #959595",
"* c #9A9A9A",
"= c gray62",
"- c gray64",
"; c gray65",
": c #A9A9A9",
"> c #AFAFAF",
", c gray70",
"< c gray71",
"1 c #B9B9B9",
"2 c gray",
"3 c gray76",
"4 c gray77",
"5 c gray79",
"6 c #CECECE",
"7 c LightGray",
"8 c gray83",
"9 c gray85",
"0 c gainsboro",
"q c gray89",
"w c #E6E6E6",
"e c #E9E9E9",
"r c #EFEFEF",
"t c #F3F3F3",
"y c #F6F6F6",
"u c #F8F8F8",
"i c white",
/* pixels */
"iiiiiiiiiiiiiiiiiiiiiiiiiiiiiiiiiiiiiiiiiiiiiiiiiiiiiiiiiiiiiiiiiiiiiiiiiiiiiiiiiiiiiiiiiiiiiiiiiiii",
"i>,,,,,,,,,,,,,,,,,,,,,,,,,,,,,,,,,,,,,,,,,,,,,,,,,,,,,,,,,,,,,,,,,,,,,,,,,,,,,,,,,,,,,,,,,,,,,,,,>i",
"i,                                                                                                ,i",
"i, .............................................................................................. ,i",
"i, .............................................................................................. ,i",
"i, .............................................................................................. ,i",
"i, .............................................................................................. ,i",
"i, .............................................................................................. ,i",
"i, .............................................................................................. ,i",
"i, .............................................................................................. ,i",
"i, .............................................................................................. ,i",
"i, .............................................................................................. ,i",
"i, .............................................................................................. ,i",
"i, .............................................................................................. ,i",
"i, .............................................................................................. ,i",
"i, .............................................................................................. ,i",
"i, .............................................................................................. ,i",
"i, .............................................................................................. ,i",
"i, .............................................................................................. ,i",
"i, .............................................................................................. ,i",
"i, ...........................................tiiiiiiiiiO........................................ ,i",
"i, ..........................................&iiiiiiiiii,........................................ ,i",
"i, ..........................................4iiiiiiiiii9........................................ ,i",
"i, ..........................................eiiiiiiiiiiuX....................................... ,i",
"i, .........................................@iiiiiiiiiiii-....................................... ,i",
"i, .........................................<iiiiiiiiiiii6....................................... ,i",
"i, .........................................0iiiiiiiiiiiir....................................... ,i",
"i, ........................................ouiiiiiiuiiiiii%...................................... ,i",
"i, ........................................:iiiiiie0iiiiii3...................................... ,i",
"i, ........................................7iiiiii51iiiiiiw...................................... ,i",
"i, ........................................tiiiiii-#iiiiiii+..................................... ,i",
"i, .......................................*iiiiiiuX.riiiiii<..................................... ,i",
"i, .......................................4iiiiii0..7iiiiii0..................................... ,i",
"i, .......................................eiiiiii2..:iiiiiiuX.................................... ,i",
"i, ......................................#iiiiiii%..Oiiiiiii;.................................... ,i",
"i, ......................................1iiiiiit....wiiiiii7.................................... ,i",
"i, ......................................qiiiiii8....4iiiiiit.................................... ,i",
"i, .....................................ouiiiiii,....*iiiiiii&................................... ,i",
"i, .....................................>iiiiiii+.....yiiiiii4................................... ,i",
"i, .....................................8iiiiiie......9iiiiiie................................... ,i",
"i, .....................................yiiiiii5......1iiiiiii@.................................. ,i",
"i, ....................................=iiiiiii-......#iiiiiii1.................................. ,i",
"i, ....................................5iiiiiiuX.......riiiiii0.................................. ,i",
"i, ....................................riiiiii0........6iiiiiiuo................................. ,i",
"i, ...................................$iiiiiii2........:iiiiiii:................................. ,i",
"i, ...................................2iiiiiii%........oiiiiiii8................................. ,i",
"i, ...................................qiiiiiit..........wiiiiiiy................................. ,i",
"i, ..................................Oiiiiiii8..........3iiiiiii*................................ ,i",
"i, ..................................,iiiiiii>..........*iiiiiii5................................ ,i",
"i, ..................................9iiiiiiiO...........yiiiiiie................................ ,i",
"i, .................................Xyiiiiiie............9iiiiiii#............................... ,i",
"i, .................................-iiiiiii5............<iiiiiii2............................... ,i",
"i, .................................6iiiiiii-............@iiiiiiiq............................... ,i",
"i, .................................riiiiiiuX.............riiiiiiiO.............................. ,i",
"i, ................................%iiiiiii0..............6iiiiiii>.............................. ,i",
"i, ................................3iiiiiii2..............:iiiiiii8.............................. ,i",
"i, ................................wiiiiiii$..............oiiiiiiiy.............................. ,i",
"i, ...............................+iiiiiiiy################wiiiiiii=............................. ,i",
"i, ...............................<iiiiiiiiiiiiiiiiiiiiiiiiiiiiiiii5............................. ,i",
"i, ...............................9iiiiiiiiiiiiiiiiiiiiiiiiiiiiiiiir............................. ,i",
"i, ..............................Xuiiiiiiiiiiiiiiiiiiiiiiiiiiiiiiiii$............................ ,i",
"i, ..............................;iiiiiiiiiiiiiiiiiiiiiiiiiiiiiiiiii2............................ ,i",
"i, ..............................7iiiiiiiiiiiiiiiiiiiiiiiiiiiiiiiiiiw............................ ,i",
"i, ..............................tiiiiiiiiiiiiiiiiiiiiiiiiiiiiiiiiiiiO........................... ,i",
"i, .............................&iiiiiii0....................8iiiiiii,........................... ,i",
"i, .............................4iiiiiii2....................>iiiiiii9........................... ,i",
"i, .............................eiiiiiii$....................OiiiiiiiuX.......................... ,i",
"i, ............................@iiiiiiit......................wiiiiiii-.......................... ,i",
"i, ............................1iiiiiii7......................3iiiiiii6.......................... ,i",
"i, ............................0iiiiiii:......................&iiiiiiit.......................... ,i",
"i, ...........................ouiiiiiiio.......................tiiiiiii%......................... ,i",
"i, ...........................:iiiiiiiq........................8iiiiiii3......................... ,i",
"i, ...........................7iiiiiii3........................>iiiiiiiw......................... ,i",
"i, ...........................yiiiiiii&........................Oiiiiiiii+........................ ,i",
"i, ..........................*iiiiiiit..........................wiiiiiii<........................ ,i",
"i, ..........................5iiiiiii8..........................3iiiiiii0........................ ,i",
"i, ..........................eiiiiiii>..........................&iiiiiiiuX....................... ,i",
"i, .........................#iiiiiiiiO...........................tiiiiiii;....................... ,i",
"i, .........................1iiiiiiiw............................7iiiiiii7....................... ,i",
"i, .............................................................................................. ,i",
"i, .............................................................................................. ,i",
"i, .............................................................................................. ,i",
"i, .............................................................................................. ,i",
"i, .............................................................................................. ,i",
"i, .............................................................................................. ,i",
"i, .............................................................................................. ,i",
"i, .............................................................................................. ,i",
"i, .............................................................................................. ,i",
"i, .............................................................................................. ,i",
"i, .............................................................................................. ,i",
"i, .............................................................................................. ,i",
"i, .............................................................................................. ,i",
"i, .............................................................................................. ,i",
"i, .............................................................................................. ,i",
"i, .............................................................................................. ,i",
"i, .............................................................................................. ,i",
"i,O.............................................................................................. ,i",
"i,                                                                                                ,i",
"i>,,,,,,,,,,,,,,,,,,,,,,,,,,,,,,,,,,,,,,,,,,,,,,,,,,,,,,,,,,,,,,,,,,,,,,,,,,,,,,,,,,,,,,,,,,,,,,,,>i",
"iiiiiiiiiiiiiiiiiiiiiiiiiiiiiiiiiiiiiiiiiiiiiiiiiiiiiiiiiiiiiiiiiiiiiiiiiiiiiiiiiiiiiiiiiiiiiiiiiiii"
};
