/* XPM */
static char *b[] = {
/* columns rows colors chars-per-pixel */
"100 100 75 1 ",
"  c #2E0000",
". c #310D0D",
"X c #341616",
"o c #371C1C",
"O c #3A2222",
"+ c #3D2626",
"@ c #3F2A2A",
"# c #443232",
"$ c #463535",
"% c #4A3B3B",
"& c #4C3D3D",
"* c #4E4040",
"= c #504242",
"- c #544747",
"; c #5C5151",
": c #5F5555",
"> c #625858",
", c #655C5C",
"< c #685F5F",
"1 c #696060",
"2 c #6D6565",
"3 c #686868",
"4 c #706868",
"5 c #736C6C",
"6 c #766E6E",
"7 c #777070",
"8 c #787171",
"9 c #7C7C7C",
"0 c #827C7C",
"q c #888282",
"w c #8A8484",
"e c #8D8888",
"r c #938F8F",
"t c #969292",
"y c #999494",
"u c #9E9A9A",
"i c #A19D9D",
"p c #A5A2A2",
"a c #A9A5A5",
"s c #ABA8A8",
"d c #ACA9A9",
"f c #AFAFAF",
"g c #B0ADAD",
"h c gray70",
"j c #B9B6B6",
"k c #BBB9B9",
"l c #BDBBBB",
"z c #BEBCBC",
"x c #C0BEBE",
"c c #C3C1C1",
"v c #C5C3C3",
"b c #C7C5C5",
"n c #C8C7C7",
"m c #CAC8C8",
"M c #CDCBCB",
"N c #CECCCC",
"B c #D0CFCF",
"V c #D2D1D1",
"C c #D4D3D3",
"Z c #D5D4D4",
"A c #DAD9D9",
"S c #DCDBDB",
"D c #DDDCDC",
"F c #E0DFDF",
"G c gray89",
"H c #E7E7E7",
"J c #E8E7E7",
"K c gray92",
"L c gray93",
"P c gray95",
"I c #F4F3F3",
"U c #F7F6F6",
"Y c #F8F7F7",
"T c gray98",
"R c white",
/* pixels */
"RRRRRRRRRRRRRRRRRRRRRRRRRRRRRRRRRRRRRRRRRRRRRRRRRRRRRRRRRRRRRRRRRRRRRRRRRRRRRRRRRRRRRRRRRRRRRRRRRRRR",
"RfhhhhhhhhhhhhhhhhhhhhhhhhhhhhhhhhhhhhhhhhhhhhhhhhhhhhhhhhhhhhhhhhhhhhhhhhhhhhhhhhhhhhhhhhhhhhhhhhfR",
"Rh333333333333333333333333333333333333333333333333333333333333333333333333333333333333333333333333hR",
"Rh3RRRRRRRRRRRRRRRRRRRRRRRRRRRRRRRRRRRRRRRRRRRRRRRRRRRRRRRRRRRRRRRRRRRRRRRRRRRRRRRRRRRRRRRRRRRRRR3hR",
"Rh3RRRRRRRRRRRRRRRRRRRRRRRRRRRRRRRRRRRRRRRRRRRRRRRRRRRRRRRRRRRRRRRRRRRRRRRRRRRRRRRRRRRRRRRRRRRRRR3hR",
"Rh3RRRRRRRRRRRRRRRRRRRRRRRRRRRRRRRRRRRRRRRRRRRRRRRRRRRRRRRRRRRRRRRRRRRRRRRRRRRRRRRRRRRRRRRRRRRRRR3hR",
"Rh3RRRRRRRRRRRRRRRRRRRRRRRRRRRRRRRRRRRRRRRRRRRRRRRRRRRRRRRRRRRRRRRRRRRRRRRRRRRRRRRRRRRRRRRRRRRRRR3hR",
"Rh3RRRRRRRRRRRRRRRRRRRRRRRRRRRRRRRRRRRRRRRRRRRRRRRRRRRRRRRRRRRRRRRRRRRRRRRRRRRRRRRRRRRRRRRRRRRRRR3hR",
"Rh3RRRRRRRRRRRRRRRRRRRRRRRRRRRRRRRRRRRRRRRRRRRRRRRRRRRRRRRRRRRRRRRRRRRRRRRRRRRRRRRRRRRRRRRRRRRRRR3hR",
"Rh3RRRRRRRRRRRRRRRRRRRRRRRRRRRRRRRRRRRRRRRRRRRRRRRRRRRRRRRRRRRRRRRRRRRRRRRRRRRRRRRRRRRRRRRRRRRRRR3hR",
"Rh3RRRRRRRRRRRRRRRRRRRRRRRRRRRRRRRRRRRRRRRRRRRRRRRRRRRRRRRRRRRRRRRRRRRRRRRRRRRRRRRRRRRRRRRRRRRRRR3hR",
"Rh3RRRRRRRRRRRRRRRRRRRRRRRRRRRRRRRRRRRRRRRRRRRRRRRRRRRRRRRRRRRRRRRRRRRRRRRRRRRRRRRRRRRRRRRRRRRRRR3hR",
"Rh3RRRRRRRRRRRRRRRRRRRRRRRRRRRRRRRRRRRRRRRRRRRRRRRRRRRRRRRRRRRRRRRRRRRRRRRRRRRRRRRRRRRRRRRRRRRRRR3hR",
"Rh3RRRRRRRRRRRRRRRRRRRRRRRRRRRRRRRRRRRRRRRRRRRRRRRRRRRRRRRRRRRRRRRRRRRRRRRRRRRRRRRRRRRRRRRRRRRRRR3hR",
"Rh3RRRRRRRRRRRRRRRRRRRRRRRRRRRRRRRRRRRRRRRRRRRRRRRRRRRRRRRRRRRRRRRRRRRRRRRRRRRRRRRRRRRRRRRRRRRRRR3hR",
"Rh3RRRRRRRRRRRRRRRRRRRRRRRRRRRRRRRRRRRRRRRRRRRRRRRRRRRRRRRRRRRRRRRRRRRRRRRRRRRRRRRRRRRRRRRRRRRRRR3hR",
"Rh3RRRRRRRRRRRRRRRRRRRRRRRRRRRRRRRRRRRRRRRRRRRRRRRRRRRRRRRRRRRRRRRRRRRRRRRRRRRRRRRRRRRRRRRRRRRRRR3hR",
"Rh3RRRRRRRRRRRRRRRRRRRRRRRRRRRRRRRRRRRRRRRRRRRRRRRRRRRRRRRRRRRRRRRRRRRRRRRRRRRRRRRRRRRRRRRRRRRRRR3hR",
"Rh3RRRRRRRRRRRRRRRRRRRRRRRRRRRRRRRRRRRRRRRRRRRRRRRRRRRRRRRRRRRRRRRRRRRRRRRRRRRRRRRRRRRRRRRRRRRRRR3hR",
"Rh3RRRRRRRRRRRRRRRRRRRRRRRRRRRRRRRRRRRRRRRRRRRRRRRRRRRRRRRRRRRRRRRRRRRRRRRRRRRRRRRRRRRRRRRRRRRRRR3hR",
"Rh3RRRRRRRRRRRRRRRRRRRRRRRRRRRRRRk                 %,8qpbGTRRRRRRRRRRRRRRRRRRRRRRRRRRRRRRRRRRRRRR3hR",
"Rh3RRRRRRRRRRRRRRRRRRRRRRRRRRRRRRk                        +uDRRRRRRRRRRRRRRRRRRRRRRRRRRRRRRRRRRRR3hR",
"Rh3RRRRRRRRRRRRRRRRRRRRRRRRRRRRRRk                           <ZRRRRRRRRRRRRRRRRRRRRRRRRRRRRRRRRRR3hR",
"Rh3RRRRRRRRRRRRRRRRRRRRRRRRRRRRRRk                             yPRRRRRRRRRRRRRRRRRRRRRRRRRRRRRRRR3hR",
"Rh3RRRRRRRRRRRRRRRRRRRRRRRRRRRRRRk                              ;JRRRRRRRRRRRRRRRRRRRRRRRRRRRRRRR3hR",
"Rh3RRRRRRRRRRRRRRRRRRRRRRRRRRRRRRk                               -LRRRRRRRRRRRRRRRRRRRRRRRRRRRRRR3hR",
"Rh3RRRRRRRRRRRRRRRRRRRRRRRRRRRRRRk       xPPPPPPPPPLHDvp-         5TRRRRRRRRRRRRRRRRRRRRRRRRRRRRR3hR",
"Rh3RRRRRRRRRRRRRRRRRRRRRRRRRRRRRRk       mRRRRRRRRRRRRRRRC,        jRRRRRRRRRRRRRRRRRRRRRRRRRRRRR3hR",
"Rh3RRRRRRRRRRRRRRRRRRRRRRRRRRRRRRk       mRRRRRRRRRRRRRRRRTw       %URRRRRRRRRRRRRRRRRRRRRRRRRRRR3hR",
"Rh3RRRRRRRRRRRRRRRRRRRRRRRRRRRRRRk       mRRRRRRRRRRRRRRRRRY>       bRRRRRRRRRRRRRRRRRRRRRRRRRRRR3hR",
"Rh3RRRRRRRRRRRRRRRRRRRRRRRRRRRRRRk       mRRRRRRRRRRRRRRRRRRn       wRRRRRRRRRRRRRRRRRRRRRRRRRRRR3hR",
"Rh3RRRRRRRRRRRRRRRRRRRRRRRRRRRRRRk       mRRRRRRRRRRRRRRRRRRU.      @TRRRRRRRRRRRRRRRRRRRRRRRRRRR3hR",
"Rh3RRRRRRRRRRRRRRRRRRRRRRRRRRRRRRk       mRRRRRRRRRRRRRRRRRRR8       KRRRRRRRRRRRRRRRRRRRRRRRRRRR3hR",
"Rh3RRRRRRRRRRRRRRRRRRRRRRRRRRRRRRk       mRRRRRRRRRRRRRRRRRRRy       ARRRRRRRRRRRRRRRRRRRRRRRRRRR3hR",
"Rh3RRRRRRRRRRRRRRRRRRRRRRRRRRRRRRk       mRRRRRRRRRRRRRRRRRRRa       VRRRRRRRRRRRRRRRRRRRRRRRRRRR3hR",
"Rh3RRRRRRRRRRRRRRRRRRRRRRRRRRRRRRk       mRRRRRRRRRRRRRRRRRRRs       VRRRRRRRRRRRRRRRRRRRRRRRRRRR3hR",
"Rh3RRRRRRRRRRRRRRRRRRRRRRRRRRRRRRk       mRRRRRRRRRRRRRRRRRRRu       ARRRRRRRRRRRRRRRRRRRRRRRRRRR3hR",
"Rh3RRRRRRRRRRRRRRRRRRRRRRRRRRRRRRk       mRRRRRRRRRRRRRRRRRRRw       GRRRRRRRRRRRRRRRRRRRRRRRRRRR3hR",
"Rh3RRRRRRRRRRRRRRRRRRRRRRRRRRRRRRk       mRRRRRRRRRRRRRRRRRRR%       URRRRRRRRRRRRRRRRRRRRRRRRRRR3hR",
"Rh3RRRRRRRRRRRRRRRRRRRRRRRRRRRRRRk       mRRRRRRRRRRRRRRRRRRG       2RRRRRRRRRRRRRRRRRRRRRRRRRRRR3hR",
"Rh3RRRRRRRRRRRRRRRRRRRRRRRRRRRRRRk       mRRRRRRRRRRRRRRRRRRy       fRRRRRRRRRRRRRRRRRRRRRRRRRRRR3hR",
"Rh3RRRRRRRRRRRRRRRRRRRRRRRRRRRRRRk       mRRRRRRRRRRRRRRRRRS.       KRRRRRRRRRRRRRRRRRRRRRRRRRRRR3hR",
"Rh3RRRRRRRRRRRRRRRRRRRRRRRRRRRRRRk       mRRRRRRRRRRRRRRRRG=       tRRRRRRRRRRRRRRRRRRRRRRRRRRRRR3hR",
"Rh3RRRRRRRRRRRRRRRRRRRRRRRRRRRRRRk       mRRRRRRRRRRRRRRUjo       *PRRRRRRRRRRRRRRRRRRRRRRRRRRRRR3hR",
"Rh3RRRRRRRRRRRRRRRRRRRRRRRRRRRRRRk       xPPPPPPPPPLHAztO        &GRRRRRRRRRRRRRRRRRRRRRRRRRRRRRR3hR",
"Rh3RRRRRRRRRRRRRRRRRRRRRRRRRRRRRRk                              8JRRRRRRRRRRRRRRRRRRRRRRRRRRRRRRR3hR",
"Rh3RRRRRRRRRRRRRRRRRRRRRRRRRRRRRRk                            1cRRRRRRRRRRRRRRRRRRRRRRRRRRRRRRRRR3hR",
"Rh3RRRRRRRRRRRRRRRRRRRRRRRRRRRRRRk                         7kDRRRRRRRRRRRRRRRRRRRRRRRRRRRRRRRRRRR3hR",
"Rh3RRRRRRRRRRRRRRRRRRRRRRRRRRRRRRk                          4pDRRRRRRRRRRRRRRRRRRRRRRRRRRRRRRRRRR3hR",
"Rh3RRRRRRRRRRRRRRRRRRRRRRRRRRRRRRk                             4BRRRRRRRRRRRRRRRRRRRRRRRRRRRRRRRR3hR",
"Rh3RRRRRRRRRRRRRRRRRRRRRRRRRRRRRRk                               tURRRRRRRRRRRRRRRRRRRRRRRRRRRRRR3hR",
"Rh3RRRRRRRRRRRRRRRRRRRRRRRRRRRRRRk       mRRRRRRRRRTILAlro        2PRRRRRRRRRRRRRRRRRRRRRRRRRRRRR3hR",
"Rh3RRRRRRRRRRRRRRRRRRRRRRRRRRRRRRk       mRRRRRRRRRRRRRRRPl$       4URRRRRRRRRRRRRRRRRRRRRRRRRRRR3hR",
"Rh3RRRRRRRRRRRRRRRRRRRRRRRRRRRRRRk       mRRRRRRRRRRRRRRRRRL0       yRRRRRRRRRRRRRRRRRRRRRRRRRRRR3hR",
"Rh3RRRRRRRRRRRRRRRRRRRRRRRRRRRRRRk       mRRRRRRRRRRRRRRRRRRU4       VRRRRRRRRRRRRRRRRRRRRRRRRRRR3hR",
"Rh3RRRRRRRRRRRRRRRRRRRRRRRRRRRRRRk       mRRRRRRRRRRRRRRRRRRRKX      4RRRRRRRRRRRRRRRRRRRRRRRRRRR3hR",
"Rh3RRRRRRRRRRRRRRRRRRRRRRRRRRRRRRk       mRRRRRRRRRRRRRRRRRRRRi       DRRRRRRRRRRRRRRRRRRRRRRRRRR3hR",
"Rh3RRRRRRRRRRRRRRRRRRRRRRRRRRRRRRk       mRRRRRRRRRRRRRRRRRRRRG       pRRRRRRRRRRRRRRRRRRRRRRRRRR3hR",
"Rh3RRRRRRRRRRRRRRRRRRRRRRRRRRRRRRk       mRRRRRRRRRRRRRRRRRRRRR%      1RRRRRRRRRRRRRRRRRRRRRRRRRR3hR",
"Rh3RRRRRRRRRRRRRRRRRRRRRRRRRRRRRRk       mRRRRRRRRRRRRRRRRRRRRRe       URRRRRRRRRRRRRRRRRRRRRRRRR3hR",
"Rh3RRRRRRRRRRRRRRRRRRRRRRRRRRRRRRk       mRRRRRRRRRRRRRRRRRRRRRi       GRRRRRRRRRRRRRRRRRRRRRRRRR3hR",
"Rh3RRRRRRRRRRRRRRRRRRRRRRRRRRRRRRk       mRRRRRRRRRRRRRRRRRRRRRg       ARRRRRRRRRRRRRRRRRRRRRRRRR3hR",
"Rh3RRRRRRRRRRRRRRRRRRRRRRRRRRRRRRk       mRRRRRRRRRRRRRRRRRRRRRj       NRRRRRRRRRRRRRRRRRRRRRRRRR3hR",
"Rh3RRRRRRRRRRRRRRRRRRRRRRRRRRRRRRk       mRRRRRRRRRRRRRRRRRRRRRd       MRRRRRRRRRRRRRRRRRRRRRRRRR3hR",
"Rh3RRRRRRRRRRRRRRRRRRRRRRRRRRRRRRk       mRRRRRRRRRRRRRRRRRRRRRu       VRRRRRRRRRRRRRRRRRRRRRRRRR3hR",
"Rh3RRRRRRRRRRRRRRRRRRRRRRRRRRRRRRk       mRRRRRRRRRRRRRRRRRRRRR6       FRRRRRRRRRRRRRRRRRRRRRRRRR3hR",
"Rh3RRRRRRRRRRRRRRRRRRRRRRRRRRRRRRk       mRRRRRRRRRRRRRRRRRRRRU        PRRRRRRRRRRRRRRRRRRRRRRRRR3hR",
"Rh3RRRRRRRRRRRRRRRRRRRRRRRRRRRRRRk       mRRRRRRRRRRRRRRRRRRRRn       :RRRRRRRRRRRRRRRRRRRRRRRRRR3hR",
"Rh3RRRRRRRRRRRRRRRRRRRRRRRRRRRRRRk       mRRRRRRRRRRRRRRRRRRRR,       pRRRRRRRRRRRRRRRRRRRRRRRRRR3hR",
"Rh3RRRRRRRRRRRRRRRRRRRRRRRRRRRRRRk       mRRRRRRRRRRRRRRRRRRRa        DRRRRRRRRRRRRRRRRRRRRRRRRRR3hR",
"Rh3RRRRRRRRRRRRRRRRRRRRRRRRRRRRRRk       mRRRRRRRRRRRRRRRRRTd        8RRRRRRRRRRRRRRRRRRRRRRRRRRR3hR",
"Rh3RRRRRRRRRRRRRRRRRRRRRRRRRRRRRRk       mRRRRRRRRRRRRRRRYN<         SRRRRRRRRRRRRRRRRRRRRRRRRRRR3hR",
"Rh3RRRRRRRRRRRRRRRRRRRRRRRRRRRRRRk       xPPPPPPPPPLKGVjr@          aRRRRRRRRRRRRRRRRRRRRRRRRRRRR3hR",
"Rh3RRRRRRRRRRRRRRRRRRRRRRRRRRRRRRk                                 eRRRRRRRRRRRRRRRRRRRRRRRRRRRRR3hR",
"Rh3RRRRRRRRRRRRRRRRRRRRRRRRRRRRRRk                                uTRRRRRRRRRRRRRRRRRRRRRRRRRRRRR3hR",
"Rh3RRRRRRRRRRRRRRRRRRRRRRRRRRRRRRk                              %nRRRRRRRRRRRRRRRRRRRRRRRRRRRRRRR3hR",
"Rh3RRRRRRRRRRRRRRRRRRRRRRRRRRRRRRk                            #dIRRRRRRRRRRRRRRRRRRRRRRRRRRRRRRRR3hR",
"Rh3RRRRRRRRRRRRRRRRRRRRRRRRRRRRRRk                         oenURRRRRRRRRRRRRRRRRRRRRRRRRRRRRRRRRR3hR",
"Rh3RRRRRRRRRRRRRRRRRRRRRRRRRRRRRRk                 O%;8eavFTRRRRRRRRRRRRRRRRRRRRRRRRRRRRRRRRRRRRR3hR",
"Rh3RRRRRRRRRRRRRRRRRRRRRRRRRRRRRRRRRRRRRRRRRRRRRRRRRRRRRRRRRRRRRRRRRRRRRRRRRRRRRRRRRRRRRRRRRRRRRR3hR",
"Rh3RRRRRRRRRRRRRRRRRRRRRRRRRRRRRRRRRRRRRRRRRRRRRRRRRRRRRRRRRRRRRRRRRRRRRRRRRRRRRRRRRRRRRRRRRRRRRR3hR",
"Rh3RRRRRRRRRRRRRRRRRRRRRRRRRRRRRRRRRRRRRRRRRRRRRRRRRRRRRRRRRRRRRRRRRRRRRRRRRRRRRRRRRRRRRRRRRRRRRR3hR",
"Rh3RRRRRRRRRRRRRRRRRRRRRRRRRRRRRRRRRRRRRRRRRRRRRRRRRRRRRRRRRRRRRRRRRRRRRRRRRRRRRRRRRRRRRRRRRRRRRR3hR",
"Rh3RRRRRRRRRRRRRRRRRRRRRRRRRRRRRRRRRRRRRRRRRRRRRRRRRRRRRRRRRRRRRRRRRRRRRRRRRRRRRRRRRRRRRRRRRRRRRR3hR",
"Rh3RRRRRRRRRRRRRRRRRRRRRRRRRRRRRRRRRRRRRRRRRRRRRRRRRRRRRRRRRRRRRRRRRRRRRRRRRRRRRRRRRRRRRRRRRRRRRR3hR",
"Rh3RRRRRRRRRRRRRRRRRRRRRRRRRRRRRRRRRRRRRRRRRRRRRRRRRRRRRRRRRRRRRRRRRRRRRRRRRRRRRRRRRRRRRRRRRRRRRR3hR",
"Rh3RRRRRRRRRRRRRRRRRRRRRRRRRRRRRRRRRRRRRRRRRRRRRRRRRRRRRRRRRRRRRRRRRRRRRRRRRRRRRRRRRRRRRRRRRRRRRR3hR",
"Rh3RRRRRRRRRRRRRRRRRRRRRRRRRRRRRRRRRRRRRRRRRRRRRRRRRRRRRRRRRRRRRRRRRRRRRRRRRRRRRRRRRRRRRRRRRRRRRR3hR",
"Rh3RRRRRRRRRRRRRRRRRRRRRRRRRRRRRRRRRRRRRRRRRRRRRRRRRRRRRRRRRRRRRRRRRRRRRRRRRRRRRRRRRRRRRRRRRRRRRR3hR",
"Rh3RRRRRRRRRRRRRRRRRRRRRRRRRRRRRRRRRRRRRRRRRRRRRRRRRRRRRRRRRRRRRRRRRRRRRRRRRRRRRRRRRRRRRRRRRRRRRR3hR",
"Rh3RRRRRRRRRRRRRRRRRRRRRRRRRRRRRRRRRRRRRRRRRRRRRRRRRRRRRRRRRRRRRRRRRRRRRRRRRRRRRRRRRRRRRRRRRRRRRR3hR",
"Rh3RRRRRRRRRRRRRRRRRRRRRRRRRRRRRRRRRRRRRRRRRRRRRRRRRRRRRRRRRRRRRRRRRRRRRRRRRRRRRRRRRRRRRRRRRRRRRR3hR",
"Rh3RRRRRRRRRRRRRRRRRRRRRRRRRRRRRRRRRRRRRRRRRRRRRRRRRRRRRRRRRRRRRRRRRRRRRRRRRRRRRRRRRRRRRRRRRRRRRR3hR",
"Rh3RRRRRRRRRRRRRRRRRRRRRRRRRRRRRRRRRRRRRRRRRRRRRRRRRRRRRRRRRRRRRRRRRRRRRRRRRRRRRRRRRRRRRRRRRRRRRR3hR",
"Rh3RRRRRRRRRRRRRRRRRRRRRRRRRRRRRRRRRRRRRRRRRRRRRRRRRRRRRRRRRRRRRRRRRRRRRRRRRRRRRRRRRRRRRRRRRRRRRR3hR",
"Rh3RRRRRRRRRRRRRRRRRRRRRRRRRRRRRRRRRRRRRRRRRRRRRRRRRRRRRRRRRRRRRRRRRRRRRRRRRRRRRRRRRRRRRRRRRRRRRR3hR",
"Rh9RRRRRRRRRRRRRRRRRRRRRRRRRRRRRRRRRRRRRRRRRRRRRRRRRRRRRRRRRRRRRRRRRRRRRRRRRRRRRRRRRRRRRRRRRRRRRR3hR",
"Rh333333333333333333333333333333333333333333333333333333333333333333333333333333333333333333333333hR",
"RfhhhhhhhhhhhhhhhhhhhhhhhhhhhhhhhhhhhhhhhhhhhhhhhhhhhhhhhhhhhhhhhhhhhhhhhhhhhhhhhhhhhhhhhhhhhhhhhhfR",
"RRRRRRRRRRRRRRRRRRRRRRRRRRRRRRRRRRRRRRRRRRRRRRRRRRRRRRRRRRRRRRRRRRRRRRRRRRRRRRRRRRRRRRRRRRRRRRRRRRRR"
};
