/* XPM */
static char *b1[] = {
/* columns rows colors chars-per-pixel */
"100 100 80 1 ",
"  c #686868",
". c #7C7C7C",
"X c #348032",
"o c #378135",
"O c #3A8238",
"+ c #3C823B",
"@ c #418440",
"# c #448542",
"$ c #468644",
"% c #4A8749",
"& c #4E894D",
"* c #508A4F",
"= c #528A51",
"- c #588D57",
"; c #5A8E59",
": c #5C8F5B",
"> c #5F905E",
", c #60915F",
"< c #639362",
"1 c #659364",
"2 c #669465",
"3 c #6A9669",
"4 c #6D976C",
"5 c #749B73",
"6 c #779D77",
"7 c #7CA07B",
"8 c #7EA17D",
"9 c #81A381",
"0 c #83A483",
"q c #84A584",
"w c #8CAA8B",
"e c #8FAB8E",
"r c #91AD91",
"t c #95AF94",
"y c #97B197",
"u c #99B299",
"i c #9BB49B",
"p c #9CB49C",
"a c #AFAFAF",
"s c #A3B9A3",
"d c #A4BAA4",
"f c #A7BCA7",
"g c #A8BCA7",
"h c #ABBEAA",
"j c gray70",
"k c #ADC0AD",
"l c #B2C3B1",
"z c #B3C4B3",
"x c #B4C5B3",
"c c #B4C5B4",
"v c #B9C9B9",
"b c #BCCBBC",
"n c #BECCBE",
"m c #C1CFC1",
"M c #C3D0C3",
"N c #C4D1C4",
"B c #CBD6CA",
"V c #CCD7CC",
"C c #CFD9CE",
"Z c #D1DBD1",
"A c #D3DCD3",
"S c #D4DDD3",
"D c #D6DFD6",
"F c #D7E0D7",
"G c #D8E0D8",
"H c #DCE3DB",
"J c #DDE4DD",
"K c #E1E7E1",
"L c #E2E8E2",
"P c #E5EAE5",
"I c #EBEFEB",
"U c #ECF0EC",
"Y c #F0F3EF",
"T c #F0F3F0",
"R c #F3F5F3",
"E c #F4F6F4",
"W c #F6F8F6",
"Q c #FAFBFA",
"! c #FBFCFB",
"~ c white",
/* pixels */
"~~~~~~~~~~~~~~~~~~~~~~~~~~~~~~~~~~~~~~~~~~~~~~~~~~~~~~~~~~~~~~~~~~~~~~~~~~~~~~~~~~~~~~~~~~~~~~~~~~~~",
"~ajjjjjjjjjjjjjjjjjjjjjjjjjjjjjjjjjjjjjjjjjjjjjjjjjjjjjjjjjjjjjjjjjjjjjjjjjjjjjjjjjjjjjjjjjjjjjjjja~",
"~j                                                                                                j~",
"~j XXXXXXXXXXXXXXXXXXXXXXXXXXXXXXXXXXXXXXXXXXXXXXXXXXXXXXXXXXXXXXXXXXXXXXXXXXXXXXXXXXXXXXXXXXXXXX j~",
"~j XXXXXXXXXXXXXXXXXXXXXXXXXXXXXXXXXXXXXXXXXXXXXXXXXXXXXXXXXXXXXXXXXXXXXXXXXXXXXXXXXXXXXXXXXXXXXX j~",
"~j XXXXXXXXXXXXXXXXXXXXXXXXXXXXXXXXXXXXXXXXXXXXXXXXXXXXXXXXXXXXXXXXXXXXXXXXXXXXXXXXXXXXXXXXXXXXXX j~",
"~j XXXXXXXXXXXXXXXXXXXXXXXXXXXXXXXXXXXXXXXXXXXXXXXXXXXXXXXXXXXXXXXXXXXXXXXXXXXXXXXXXXXXXXXXXXXXXX j~",
"~j XXXXXXXXXXXXXXXXXXXXXXXXXXXXXXXXXXXXXXXXXXXXXXXXXXXXXXXXXXXXXXXXXXXXXXXXXXXXXXXXXXXXXXXXXXXXXX j~",
"~j XXXXXXXXXXXXXXXXXXXXXXXXXXXXXXXXXXXXXXXXXXXXXXXXXXXXXXXXXXXXXXXXXXXXXXXXXXXXXXXXXXXXXXXXXXXXXX j~",
"~j XXXXXXXXXXXXXXXXXXXXXXXXXXXXXXXXXXXXXXXXXXXXXXXXXXXXXXXXXXXXXXXXXXXXXXXXXXXXXXXXXXXXXXXXXXXXXX j~",
"~j XXXXXXXXXXXXXXXXXXXXXXXXXXXXXXXXXXXXXXXXXXXXXXXXXXXXXXXXXXXXXXXXXXXXXXXXXXXXXXXXXXXXXXXXXXXXXX j~",
"~j XXXXXXXXXXXXXXXXXXXXXXXXXXXXXXXXXXXXXXXXXXXXXXXXXXXXXXXXXXXXXXXXXXXXXXXXXXXXXXXXXXXXXXXXXXXXXX j~",
"~j XXXXXXXXXXXXXXXXXXXXXXXXXXXXXXXXXXXXXXXXXXXXXXXXXXXXXXXXXXXXXXXXXXXXXXXXXXXXXXXXXXXXXXXXXXXXXX j~",
"~j XXXXXXXXXXXXXXXXXXXXXXXXXXXXXXXXXXXXXXXXXXXXXXXXXXXXXXXXXXXXXXXXXXXXXXXXXXXXXXXXXXXXXXXXXXXXXX j~",
"~j XXXXXXXXXXXXXXXXXXXXXXXXXXXXXXXXXXXXXXXXXXXXXXXXXXXXXXXXXXXXXXXXXXXXXXXXXXXXXXXXXXXXXXXXXXXXXX j~",
"~j XXXXXXXXXXXXXXXXXXXXXXXXXXXXXXXXXXXXXXXXXXXXXXXXXXXXXXXXXXXXXXXXXXXXXXXXXXXXXXXXXXXXXXXXXXXXXX j~",
"~j XXXXXXXXXXXXXXXXXXXXXXXXXXXXXXXXXXXXXXXXXXXXXXXXXXXXXXXXXXXXXXXXXXXXXXXXXXXXXXXXXXXXXXXXXXXXXX j~",
"~j XXXXXXXXXXXXXXXXXXXXXXXXXXXXXXXXXXXXXXXXXXXXXXXXXXXXXXXXXXXXXXXXXXXXXXXXXXXXXXXXXXXXXXXXXXXXXX j~",
"~j XXXXXXXXXXXXXXXXXXXXXXXXXXXXXXXXXXXXXXXXXXXXXXXXXXXXXXXXXXXXXXXXXXXXXXXXXXXXXXXXXXXXXXXXXXXXXX j~",
"~j XXXXXXXXXXXXXXXXXXXXXXXXXXXXXXXXXXXXXXXXXXXXXXXXXXXXXXXXXXXXXXXXXXXXXXXXXXXXXXXXXXXXXXXXXXXXXX j~",
"~j XXXXXXXXXXXXXXXXXXXXXXXXXXXXXXm~~~~~~~~~~~~~~~~~QRUPAcw*XXXXXXXXXXXXXXXXXXXXXXXXXXXXXXXXXXXXXX j~",
"~j XXXXXXXXXXXXXXXXXXXXXXXXXXXXXXm~~~~~~~~~~~~~~~~~~~~~~~~~GyOXXXXXXXXXXXXXXXXXXXXXXXXXXXXXXXXXXX j~",
"~j XXXXXXXXXXXXXXXXXXXXXXXXXXXXXXm~~~~~~~~~~~~~~~~~~~~~~~~~~~RsXXXXXXXXXXXXXXXXXXXXXXXXXXXXXXXXXX j~",
"~j XXXXXXXXXXXXXXXXXXXXXXXXXXXXXXm~~~~~~~~~~~~~~~~~~~~~~~~~~~~~H3XXXXXXXXXXXXXXXXXXXXXXXXXXXXXXXX j~",
"~j XXXXXXXXXXXXXXXXXXXXXXXXXXXXXXm~~~~~~~~~~~~~~~~~~~~~~~~~~~~~~W0XXXXXXXXXXXXXXXXXXXXXXXXXXXXXXX j~",
"~j XXXXXXXXXXXXXXXXXXXXXXXXXXXXXXm~~~~~~~~~~~~~~~~~~~~~~~~~~~~~~~Q6XXXXXXXXXXXXXXXXXXXXXXXXXXXXXX j~",
"~j XXXXXXXXXXXXXXXXXXXXXXXXXXXXXXm~~~~~~~b3333333336qycAQ~~~~~~~~~U%XXXXXXXXXXXXXXXXXXXXXXXXXXXXX j~",
"~j XXXXXXXXXXXXXXXXXXXXXXXXXXXXXXm~~~~~~~lXXXXXXXXXXXXXX#dR~~~~~~~~MXXXXXXXXXXXXXXXXXXXXXXXXXXXXX j~",
"~j XXXXXXXXXXXXXXXXXXXXXXXXXXXXXXm~~~~~~~lXXXXXXXXXXXXXXXX=P~~~~~~~Q>XXXXXXXXXXXXXXXXXXXXXXXXXXXX j~",
"~j XXXXXXXXXXXXXXXXXXXXXXXXXXXXXXm~~~~~~~lXXXXXXXXXXXXXXXXX-E~~~~~~~cXXXXXXXXXXXXXXXXXXXXXXXXXXXX j~",
"~j XXXXXXXXXXXXXXXXXXXXXXXXXXXXXXm~~~~~~~lXXXXXXXXXXXXXXXXXXz~~~~~~~PXXXXXXXXXXXXXXXXXXXXXXXXXXXX j~",
"~j XXXXXXXXXXXXXXXXXXXXXXXXXXXXXXm~~~~~~~lXXXXXXXXXXXXXXXXXX:~~~~~~~~%XXXXXXXXXXXXXXXXXXXXXXXXXXX j~",
"~j XXXXXXXXXXXXXXXXXXXXXXXXXXXXXXm~~~~~~~lXXXXXXXXXXXXXXXXXXXI~~~~~~~8XXXXXXXXXXXXXXXXXXXXXXXXXXX j~",
"~j XXXXXXXXXXXXXXXXXXXXXXXXXXXXXXm~~~~~~~lXXXXXXXXXXXXXXXXXXXG~~~~~~~uXXXXXXXXXXXXXXXXXXXXXXXXXXX j~",
"~j XXXXXXXXXXXXXXXXXXXXXXXXXXXXXXm~~~~~~~lXXXXXXXXXXXXXXXXXXXZ~~~~~~~dXXXXXXXXXXXXXXXXXXXXXXXXXXX j~",
"~j XXXXXXXXXXXXXXXXXXXXXXXXXXXXXXm~~~~~~~lXXXXXXXXXXXXXXXXXXXC~~~~~~~gXXXXXXXXXXXXXXXXXXXXXXXXXXX j~",
"~j XXXXXXXXXXXXXXXXXXXXXXXXXXXXXXm~~~~~~~lXXXXXXXXXXXXXXXXXXXG~~~~~~~pXXXXXXXXXXXXXXXXXXXXXXXXXXX j~",
"~j XXXXXXXXXXXXXXXXXXXXXXXXXXXXXXm~~~~~~~lXXXXXXXXXXXXXXXXXXXP~~~~~~~eXXXXXXXXXXXXXXXXXXXXXXXXXXX j~",
"~j XXXXXXXXXXXXXXXXXXXXXXXXXXXXXXm~~~~~~~lXXXXXXXXXXXXXXXXXX@!~~~~~~~,XXXXXXXXXXXXXXXXXXXXXXXXXXX j~",
"~j XXXXXXXXXXXXXXXXXXXXXXXXXXXXXXm~~~~~~~lXXXXXXXXXXXXXXXXXXe~~~~~~~TXXXXXXXXXXXXXXXXXXXXXXXXXXXX j~",
"~j XXXXXXXXXXXXXXXXXXXXXXXXXXXXXXm~~~~~~~lXXXXXXXXXXXXXXXXXXG~~~~~~~VXXXXXXXXXXXXXXXXXXXXXXXXXXXX j~",
"~j XXXXXXXXXXXXXXXXXXXXXXXXXXXXXXm~~~~~~~lXXXXXXXXXXXXXXXXXu~~~~~~~~9XXXXXXXXXXXXXXXXXXXXXXXXXXXX j~",
"~j XXXXXXXXXXXXXXXXXXXXXXXXXXXXXXm~~~~~~~lXXXXXXXXXXXXXXXXwQ~~~~~~~JXXXXXXXXXXXXXXXXXXXXXXXXXXXXX j~",
"~j XXXXXXXXXXXXXXXXXXXXXXXXXXXXXXm~~~~~~~lXXXXXXXXXXXXXX<M~~~~~~~~Q3XXXXXXXXXXXXXXXXXXXXXXXXXXXXX j~",
"~j XXXXXXXXXXXXXXXXXXXXXXXXXXXXXXm~~~~~~~b3333333336qinJ~~~~~~~~~QeXXXXXXXXXXXXXXXXXXXXXXXXXXXXXX j~",
"~j XXXXXXXXXXXXXXXXXXXXXXXXXXXXXXm~~~~~~~~~~~~~~~~~~~~~~~~~~~~~~U0XXXXXXXXXXXXXXXXXXXXXXXXXXXXXXX j~",
"~j XXXXXXXXXXXXXXXXXXXXXXXXXXXXXXm~~~~~~~~~~~~~~~~~~~~~~~~~~~~Rv$XXXXXXXXXXXXXXXXXXXXXXXXXXXXXXXX j~",
"~j XXXXXXXXXXXXXXXXXXXXXXXXXXXXXXm~~~~~~~~~~~~~~~~~~~~~~~~~Umt+XXXXXXXXXXXXXXXXXXXXXXXXXXXXXXXXXX j~",
"~j XXXXXXXXXXXXXXXXXXXXXXXXXXXXXXm~~~~~~~~~~~~~~~~~~~~~~~~~~YZyoXXXXXXXXXXXXXXXXXXXXXXXXXXXXXXXXX j~",
"~j XXXXXXXXXXXXXXXXXXXXXXXXXXXXXXm~~~~~~~~~~~~~~~~~~~~~~~~~~~~~UhXXXXXXXXXXXXXXXXXXXXXXXXXXXXXXXX j~",
"~j XXXXXXXXXXXXXXXXXXXXXXXXXXXXXXm~~~~~~~~~~~~~~~~~~~~~~~~~~~~~~~J1XXXXXXXXXXXXXXXXXXXXXXXXXXXXXX j~",
"~j XXXXXXXXXXXXXXXXXXXXXXXXXXXXXXm~~~~~~~lXXXXXXXXX&26pnJ~~~~~~~~~T3XXXXXXXXXXXXXXXXXXXXXXXXXXXXX j~",
"~j XXXXXXXXXXXXXXXXXXXXXXXXXXXXXXm~~~~~~~lXXXXXXXXXXXXXXX2n!~~~~~~~Y<XXXXXXXXXXXXXXXXXXXXXXXXXXXX j~",
"~j XXXXXXXXXXXXXXXXXXXXXXXXXXXXXXm~~~~~~~lXXXXXXXXXXXXXXXXX6I~~~~~~~GXXXXXXXXXXXXXXXXXXXXXXXXXXXX j~",
"~j XXXXXXXXXXXXXXXXXXXXXXXXXXXXXXm~~~~~~~lXXXXXXXXXXXXXXXXXX:U~~~~~~~dXXXXXXXXXXXXXXXXXXXXXXXXXXX j~",
"~j XXXXXXXXXXXXXXXXXXXXXXXXXXXXXXm~~~~~~~lXXXXXXXXXXXXXXXXXXX7~~~~~~~UoXXXXXXXXXXXXXXXXXXXXXXXXXX j~",
"~j XXXXXXXXXXXXXXXXXXXXXXXXXXXXXXm~~~~~~~lXXXXXXXXXXXXXXXXXXXXD~~~~~~~tXXXXXXXXXXXXXXXXXXXXXXXXXX j~",
"~j XXXXXXXXXXXXXXXXXXXXXXXXXXXXXXm~~~~~~~lXXXXXXXXXXXXXXXXXXXXw~~~~~~~DXXXXXXXXXXXXXXXXXXXXXXXXXX j~",
"~j XXXXXXXXXXXXXXXXXXXXXXXXXXXXXXm~~~~~~~lXXXXXXXXXXXXXXXXXXXX@!~~~~~~RXXXXXXXXXXXXXXXXXXXXXXXXXX j~",
"~j XXXXXXXXXXXXXXXXXXXXXXXXXXXXXXm~~~~~~~lXXXXXXXXXXXXXXXXXXXXXL~~~~~~~1XXXXXXXXXXXXXXXXXXXXXXXXX j~",
"~j XXXXXXXXXXXXXXXXXXXXXXXXXXXXXXm~~~~~~~lXXXXXXXXXXXXXXXXXXXXXD~~~~~~~eXXXXXXXXXXXXXXXXXXXXXXXXX j~",
"~j XXXXXXXXXXXXXXXXXXXXXXXXXXXXXXm~~~~~~~lXXXXXXXXXXXXXXXXXXXXXB~~~~~~~pXXXXXXXXXXXXXXXXXXXXXXXXX j~",
"~j XXXXXXXXXXXXXXXXXXXXXXXXXXXXXXm~~~~~~~lXXXXXXXXXXXXXXXXXXXXXN~~~~~~~hXXXXXXXXXXXXXXXXXXXXXXXXX j~",
"~j XXXXXXXXXXXXXXXXXXXXXXXXXXXXXXm~~~~~~~lXXXXXXXXXXXXXXXXXXXXXC~~~~~~~kXXXXXXXXXXXXXXXXXXXXXXXXX j~",
"~j XXXXXXXXXXXXXXXXXXXXXXXXXXXXXXm~~~~~~~lXXXXXXXXXXXXXXXXXXXXXF~~~~~~~dXXXXXXXXXXXXXXXXXXXXXXXXX j~",
"~j XXXXXXXXXXXXXXXXXXXXXXXXXXXXXXm~~~~~~~lXXXXXXXXXXXXXXXXXXXXXU~~~~~~~rXXXXXXXXXXXXXXXXXXXXXXXXX j~",
"~j XXXXXXXXXXXXXXXXXXXXXXXXXXXXXXm~~~~~~~lXXXXXXXXXXXXXXXXXXXX,~~~~~~~~4XXXXXXXXXXXXXXXXXXXXXXXXX j~",
"~j XXXXXXXXXXXXXXXXXXXXXXXXXXXXXXm~~~~~~~lXXXXXXXXXXXXXXXXXXXXz~~~~~~~EXXXXXXXXXXXXXXXXXXXXXXXXXX j~",
"~j XXXXXXXXXXXXXXXXXXXXXXXXXXXXXXm~~~~~~~lXXXXXXXXXXXXXXXXXXX$R~~~~~~~SXXXXXXXXXXXXXXXXXXXXXXXXXX j~",
"~j XXXXXXXXXXXXXXXXXXXXXXXXXXXXXXm~~~~~~~lXXXXXXXXXXXXXXXXXXXZ~~~~~~~~yXXXXXXXXXXXXXXXXXXXXXXXXXX j~",
"~j XXXXXXXXXXXXXXXXXXXXXXXXXXXXXXm~~~~~~~lXXXXXXXXXXXXXXXXX*C~~~~~~~~UOXXXXXXXXXXXXXXXXXXXXXXXXXX j~",
"~j XXXXXXXXXXXXXXXXXXXXXXXXXXXXXXm~~~~~~~lXXXXXXXXXXXXXXX-kR~~~~~~~~~uXXXXXXXXXXXXXXXXXXXXXXXXXXX j~",
"~j XXXXXXXXXXXXXXXXXXXXXXXXXXXXXXm~~~~~~~b33333333359efNJ~~~~~~~~~~~CXXXXXXXXXXXXXXXXXXXXXXXXXXXX j~",
"~j XXXXXXXXXXXXXXXXXXXXXXXXXXXXXXm~~~~~~~~~~~~~~~~~~~~~~~~~~~~~~~~~K#XXXXXXXXXXXXXXXXXXXXXXXXXXXX j~",
"~j XXXXXXXXXXXXXXXXXXXXXXXXXXXXXXm~~~~~~~~~~~~~~~~~~~~~~~~~~~~~~~~G%XXXXXXXXXXXXXXXXXXXXXXXXXXXXX j~",
"~j XXXXXXXXXXXXXXXXXXXXXXXXXXXXXXm~~~~~~~~~~~~~~~~~~~~~~~~~~~~~~!xoXXXXXXXXXXXXXXXXXXXXXXXXXXXXXX j~",
"~j XXXXXXXXXXXXXXXXXXXXXXXXXXXXXXm~~~~~~~~~~~~~~~~~~~~~~~~~~~~~C2XXXXXXXXXXXXXXXXXXXXXXXXXXXXXXXX j~",
"~j XXXXXXXXXXXXXXXXXXXXXXXXXXXXXXm~~~~~~~~~~~~~~~~~~~~~~~~~~Lx;XXXXXXXXXXXXXXXXXXXXXXXXXXXXXXXXXX j~",
"~j XXXXXXXXXXXXXXXXXXXXXXXXXXXXXXm~~~~~~~~~~~~~~~~~~!WUKCvr*XXXXXXXXXXXXXXXXXXXXXXXXXXXXXXXXXXXXX j~",
"~j XXXXXXXXXXXXXXXXXXXXXXXXXXXXXXXXXXXXXXXXXXXXXXXXXXXXXXXXXXXXXXXXXXXXXXXXXXXXXXXXXXXXXXXXXXXXXX j~",
"~j XXXXXXXXXXXXXXXXXXXXXXXXXXXXXXXXXXXXXXXXXXXXXXXXXXXXXXXXXXXXXXXXXXXXXXXXXXXXXXXXXXXXXXXXXXXXXX j~",
"~j XXXXXXXXXXXXXXXXXXXXXXXXXXXXXXXXXXXXXXXXXXXXXXXXXXXXXXXXXXXXXXXXXXXXXXXXXXXXXXXXXXXXXXXXXXXXXX j~",
"~j XXXXXXXXXXXXXXXXXXXXXXXXXXXXXXXXXXXXXXXXXXXXXXXXXXXXXXXXXXXXXXXXXXXXXXXXXXXXXXXXXXXXXXXXXXXXXX j~",
"~j XXXXXXXXXXXXXXXXXXXXXXXXXXXXXXXXXXXXXXXXXXXXXXXXXXXXXXXXXXXXXXXXXXXXXXXXXXXXXXXXXXXXXXXXXXXXXX j~",
"~j XXXXXXXXXXXXXXXXXXXXXXXXXXXXXXXXXXXXXXXXXXXXXXXXXXXXXXXXXXXXXXXXXXXXXXXXXXXXXXXXXXXXXXXXXXXXXX j~",
"~j XXXXXXXXXXXXXXXXXXXXXXXXXXXXXXXXXXXXXXXXXXXXXXXXXXXXXXXXXXXXXXXXXXXXXXXXXXXXXXXXXXXXXXXXXXXXXX j~",
"~j XXXXXXXXXXXXXXXXXXXXXXXXXXXXXXXXXXXXXXXXXXXXXXXXXXXXXXXXXXXXXXXXXXXXXXXXXXXXXXXXXXXXXXXXXXXXXX j~",
"~j XXXXXXXXXXXXXXXXXXXXXXXXXXXXXXXXXXXXXXXXXXXXXXXXXXXXXXXXXXXXXXXXXXXXXXXXXXXXXXXXXXXXXXXXXXXXXX j~",
"~j XXXXXXXXXXXXXXXXXXXXXXXXXXXXXXXXXXXXXXXXXXXXXXXXXXXXXXXXXXXXXXXXXXXXXXXXXXXXXXXXXXXXXXXXXXXXXX j~",
"~j XXXXXXXXXXXXXXXXXXXXXXXXXXXXXXXXXXXXXXXXXXXXXXXXXXXXXXXXXXXXXXXXXXXXXXXXXXXXXXXXXXXXXXXXXXXXXX j~",
"~j XXXXXXXXXXXXXXXXXXXXXXXXXXXXXXXXXXXXXXXXXXXXXXXXXXXXXXXXXXXXXXXXXXXXXXXXXXXXXXXXXXXXXXXXXXXXXX j~",
"~j XXXXXXXXXXXXXXXXXXXXXXXXXXXXXXXXXXXXXXXXXXXXXXXXXXXXXXXXXXXXXXXXXXXXXXXXXXXXXXXXXXXXXXXXXXXXXX j~",
"~j XXXXXXXXXXXXXXXXXXXXXXXXXXXXXXXXXXXXXXXXXXXXXXXXXXXXXXXXXXXXXXXXXXXXXXXXXXXXXXXXXXXXXXXXXXXXXX j~",
"~j XXXXXXXXXXXXXXXXXXXXXXXXXXXXXXXXXXXXXXXXXXXXXXXXXXXXXXXXXXXXXXXXXXXXXXXXXXXXXXXXXXXXXXXXXXXXXX j~",
"~j XXXXXXXXXXXXXXXXXXXXXXXXXXXXXXXXXXXXXXXXXXXXXXXXXXXXXXXXXXXXXXXXXXXXXXXXXXXXXXXXXXXXXXXXXXXXXX j~",
"~j XXXXXXXXXXXXXXXXXXXXXXXXXXXXXXXXXXXXXXXXXXXXXXXXXXXXXXXXXXXXXXXXXXXXXXXXXXXXXXXXXXXXXXXXXXXXXX j~",
"~j.XXXXXXXXXXXXXXXXXXXXXXXXXXXXXXXXXXXXXXXXXXXXXXXXXXXXXXXXXXXXXXXXXXXXXXXXXXXXXXXXXXXXXXXXXXXXXX j~",
"~j                                                                                                j~",
"~ajjjjjjjjjjjjjjjjjjjjjjjjjjjjjjjjjjjjjjjjjjjjjjjjjjjjjjjjjjjjjjjjjjjjjjjjjjjjjjjjjjjjjjjjjjjjjjjja~",
"~~~~~~~~~~~~~~~~~~~~~~~~~~~~~~~~~~~~~~~~~~~~~~~~~~~~~~~~~~~~~~~~~~~~~~~~~~~~~~~~~~~~~~~~~~~~~~~~~~~~"
};
