/* XPM */
static char *b2[] = {
/* columns rows colors chars-per-pixel */
"100 100 71 1 ",
"  c #686868",
". c #7C7C7C",
"X c #C3AF2A",
"o c #C3AF2E",
"O c #C4B031",
"+ c #C4B034",
"@ c #C4B13A",
"# c #C5B13D",
"$ c #C6B344",
"% c #C6B348",
"& c #C6B44A",
"* c #C7B44C",
"= c #C8B757",
"- c #C9B75B",
"; c #CAB95F",
": c #CAB962",
"> c #CBBA67",
", c #CBBB68",
"< c #CCBB69",
"1 c #CDBE72",
"2 c #CEBF75",
"3 c #CFC079",
"4 c #D0C17B",
"5 c #D0C27F",
"6 c #AFAFAF",
"7 c gray70",
"8 c #D1C382",
"9 c #D2C484",
"0 c #D3C68A",
"q c #D4C78D",
"w c #D5C88F",
"e c #D6C993",
"r c #D6CA96",
"t c #D7CC99",
"y c #D8CC9A",
"u c #DACFA2",
"i c #DAD0A3",
"p c #DBD1A6",
"a c #DCD1A6",
"s c #DDD3A9",
"d c #DDD4AC",
"f c #DFD6B0",
"g c #E0D7B3",
"h c #E0D7B4",
"j c #E1D8B6",
"k c #E3DBBB",
"l c #E3DCBD",
"z c #E4DCBE",
"x c #E5DDC0",
"c c #E8E2CA",
"v c #E9E3CD",
"b c #EAE4CE",
"n c #EBE5D0",
"m c #ECE6D2",
"M c #ECE7D4",
"N c #EEE9D7",
"B c #EFEBDB",
"V c #F0EBDC",
"C c #F0ECDD",
"Z c #F3EFE3",
"A c #F3F0E5",
"S c #F5F2E8",
"D c #F6F4EB",
"F c #F6F4EC",
"G c #F8F6EF",
"H c #F9F7F2",
"J c #FAF8F3",
"K c #FAF9F4",
"L c #FCFBF8",
"P c #FDFCFA",
"I c white",
/* pixels */
"IIIIIIIIIIIIIIIIIIIIIIIIIIIIIIIIIIIIIIIIIIIIIIIIIIIIIIIIIIIIIIIIIIIIIIIIIIIIIIIIIIIIIIIIIIIIIIIIIIII",
"I67777777777777777777777777777777777777777777777777777777777777777777777777777777777777777777777776I",
"I7                                                                                                7I",
"I7 XXXXXXXXXXXXXXXXXXXXXXXXXXXXXXXXXXXXXXXXXXXXXXXXXXXXXXXXXXXXXXXXXXXXXXXXXXXXXXXXXXXXXXXXXXXXXX 7I",
"I7 XXXXXXXXXXXXXXXXXXXXXXXXXXXXXXXXXXXXXXXXXXXXXXXXXXXXXXXXXXXXXXXXXXXXXXXXXXXXXXXXXXXXXXXXXXXXXX 7I",
"I7 XXXXXXXXXXXXXXXXXXXXXXXXXXXXXXXXXXXXXXXXXXXXXXXXXXXXXXXXXXXXXXXXXXXXXXXXXXXXXXXXXXXXXXXXXXXXXX 7I",
"I7 XXXXXXXXXXXXXXXXXXXXXXXXXXXXXXXXXXXXXXXXXXXXXXXXXXXXXXXXXXXXXXXXXXXXXXXXXXXXXXXXXXXXXXXXXXXXXX 7I",
"I7 XXXXXXXXXXXXXXXXXXXXXXXXXXXXXXXXXXXXXXXXXXXXXXXXXXXXXXXXXXXXXXXXXXXXXXXXXXXXXXXXXXXXXXXXXXXXXX 7I",
"I7 XXXXXXXXXXXXXXXXXXXXXXXXXXXXXXXXXXXXXXXXXXXXXXXXXXXXXXXXXXXXXXXXXXXXXXXXXXXXXXXXXXXXXXXXXXXXXX 7I",
"I7 XXXXXXXXXXXXXXXXXXXXXXXXXXXXXXXXXXXXXXXXXXXXXXXXXXXXXXXXXXXXXXXXXXXXXXXXXXXXXXXXXXXXXXXXXXXXXX 7I",
"I7 XXXXXXXXXXXXXXXXXXXXXXXXXXXXXXXXXXXXXXXXXXXXXXXXXXXXXXXXXXXXXXXXXXXXXXXXXXXXXXXXXXXXXXXXXXXXXX 7I",
"I7 XXXXXXXXXXXXXXXXXXXXXXXXXXXXXXXXXXXXXXXXXXXXXXXXXXXXXXXXXXXXXXXXXXXXXXXXXXXXXXXXXXXXXXXXXXXXXX 7I",
"I7 XXXXXXXXXXXXXXXXXXXXXXXXXXXXXXXXXXXXXXXXXXXXXXXXXXXXXXXXXXXXXXXXXXXXXXXXXXXXXXXXXXXXXXXXXXXXXX 7I",
"I7 XXXXXXXXXXXXXXXXXXXXXXXXXXXXXXXXXXXXXXXXXXXXXXXXXXXXXXXXXXXXXXXXXXXXXXXXXXXXXXXXXXXXXXXXXXXXXX 7I",
"I7 XXXXXXXXXXXXXXXXXXXXXXXXXXXXXXXXXXXXXXXXXXXXXXXXXXXXXXXXXXXXXXXXXXXXXXXXXXXXXXXXXXXXXXXXXXXXXX 7I",
"I7 XXXXXXXXXXXXXXXXXXXXXXXXXXXXXXXXXXXXXXXXXXXXXXXXXXXXXXXXXXXXXXXXXXXXXXXXXXXXXXXXXXXXXXXXXXXXXX 7I",
"I7 XXXXXXXXXXXXXXXXXXXXXXXXXXXXXXXXXXXXXXXXXXXXXXXXXXXXXXXXXXXXXXXXXXXXXXXXXXXXXXXXXXXXXXXXXXXXXX 7I",
"I7 XXXXXXXXXXXXXXXXXXXXXXXXXXXXXXXXXXXXXXXXXXXXXXXXXXXXXXXXXXXXXXXXXXXXXXXXXXXXXXXXXXXXXXXXXXXXXX 7I",
"I7 XXXXXXXXXXXXXXXXXXXXXXXXXXXXXXXXXXXXXXXXXXXXXXXXXXXXXXXXXXXXXXXXXXXXXXXXXXXXXXXXXXXXXXXXXXXXXX 7I",
"I7 XXXXXXXXXXXXXXXXXXXXXXXXXXXXXXXXXXXXXXXXXXXXXXXXXXXXXXXXXXXXXXXXXXXXXXXXXXXXXXXXXXXXXXXXXXXXXX 7I",
"I7 XXXXXXXXXXXXXXXXXXXXXXXXXXXXXXxIIIIIIIIIIIIIIIIIPJFAmg0&XXXXXXXXXXXXXXXXXXXXXXXXXXXXXXXXXXXXXX 7I",
"I7 XXXXXXXXXXXXXXXXXXXXXXXXXXXXXXxIIIIIIIIIIIIIIIIIIIIIIIIIBrOXXXXXXXXXXXXXXXXXXXXXXXXXXXXXXXXXXX 7I",
"I7 XXXXXXXXXXXXXXXXXXXXXXXXXXXXXXxIIIIIIIIIIIIIIIIIIIIIIIIIIIJuXXXXXXXXXXXXXXXXXXXXXXXXXXXXXXXXXX 7I",
"I7 XXXXXXXXXXXXXXXXXXXXXXXXXXXXXXxIIIIIIIIIIIIIIIIIIIIIIIIIIIIIB>XXXXXXXXXXXXXXXXXXXXXXXXXXXXXXXX 7I",
"I7 XXXXXXXXXXXXXXXXXXXXXXXXXXXXXXxIIIIIIIIIIIIIIIIIIIIIIIIIIIIIIK8XXXXXXXXXXXXXXXXXXXXXXXXXXXXXXX 7I",
"I7 XXXXXXXXXXXXXXXXXXXXXXXXXXXXXXxIIIIIIIIIIIIIIIIIIIIIIIIIIIIIIIL2XXXXXXXXXXXXXXXXXXXXXXXXXXXXXX 7I",
"I7 XXXXXXXXXXXXXXXXXXXXXXXXXXXXXXxIIIIIIIk>>>>>>>>>28rjmLIIIIIIIIIF$XXXXXXXXXXXXXXXXXXXXXXXXXXXXX 7I",
"I7 XXXXXXXXXXXXXXXXXXXXXXXXXXXXXXxIIIIIIIfXXXXXXXXXXXXXX#iJIIIIIIIIxXXXXXXXXXXXXXXXXXXXXXXXXXXXXX 7I",
"I7 XXXXXXXXXXXXXXXXXXXXXXXXXXXXXXxIIIIIIIfXXXXXXXXXXXXXXXX*AIIIIIIIP-XXXXXXXXXXXXXXXXXXXXXXXXXXXX 7I",
"I7 XXXXXXXXXXXXXXXXXXXXXXXXXXXXXXxIIIIIIIfXXXXXXXXXXXXXXXXX=KIIIIIIIhXXXXXXXXXXXXXXXXXXXXXXXXXXXX 7I",
"I7 XXXXXXXXXXXXXXXXXXXXXXXXXXXXXXxIIIIIIIfXXXXXXXXXXXXXXXXXXgIIIIIIIAXXXXXXXXXXXXXXXXXXXXXXXXXXXX 7I",
"I7 XXXXXXXXXXXXXXXXXXXXXXXXXXXXXXxIIIIIIIfXXXXXXXXXXXXXXXXXX=IIIIIIII$XXXXXXXXXXXXXXXXXXXXXXXXXXX 7I",
"I7 XXXXXXXXXXXXXXXXXXXXXXXXXXXXXXxIIIIIIIfXXXXXXXXXXXXXXXXXXXDIIIIIII4XXXXXXXXXXXXXXXXXXXXXXXXXXX 7I",
"I7 XXXXXXXXXXXXXXXXXXXXXXXXXXXXXXxIIIIIIIfXXXXXXXXXXXXXXXXXXXBIIIIIIItXXXXXXXXXXXXXXXXXXXXXXXXXXX 7I",
"I7 XXXXXXXXXXXXXXXXXXXXXXXXXXXXXXxIIIIIIIfXXXXXXXXXXXXXXXXXXXnIIIIIIIpXXXXXXXXXXXXXXXXXXXXXXXXXXX 7I",
"I7 XXXXXXXXXXXXXXXXXXXXXXXXXXXXXXxIIIIIIIfXXXXXXXXXXXXXXXXXXXbIIIIIIIaXXXXXXXXXXXXXXXXXXXXXXXXXXX 7I",
"I7 XXXXXXXXXXXXXXXXXXXXXXXXXXXXXXxIIIIIIIfXXXXXXXXXXXXXXXXXXXNIIIIIIIyXXXXXXXXXXXXXXXXXXXXXXXXXXX 7I",
"I7 XXXXXXXXXXXXXXXXXXXXXXXXXXXXXXxIIIIIIIfXXXXXXXXXXXXXXXXXXXZIIIIIIIqXXXXXXXXXXXXXXXXXXXXXXXXXXX 7I",
"I7 XXXXXXXXXXXXXXXXXXXXXXXXXXXXXXxIIIIIIIfXXXXXXXXXXXXXXXXXX@PIIIIIII;XXXXXXXXXXXXXXXXXXXXXXXXXXX 7I",
"I7 XXXXXXXXXXXXXXXXXXXXXXXXXXXXXXxIIIIIIIfXXXXXXXXXXXXXXXXXXqIIIIIIIHXXXXXXXXXXXXXXXXXXXXXXXXXXXX 7I",
"I7 XXXXXXXXXXXXXXXXXXXXXXXXXXXXXXxIIIIIIIfXXXXXXXXXXXXXXXXXXBIIIIIIIcXXXXXXXXXXXXXXXXXXXXXXXXXXXX 7I",
"I7 XXXXXXXXXXXXXXXXXXXXXXXXXXXXXXxIIIIIIIfXXXXXXXXXXXXXXXXXrIIIIIIII5XXXXXXXXXXXXXXXXXXXXXXXXXXXX 7I",
"I7 XXXXXXXXXXXXXXXXXXXXXXXXXXXXXXxIIIIIIIfXXXXXXXXXXXXXXXX0LIIIIIIIVXXXXXXXXXXXXXXXXXXXXXXXXXXXXX 7I",
"I7 XXXXXXXXXXXXXXXXXXXXXXXXXXXXXXxIIIIIIIfXXXXXXXXXXXXXX;xIIIIIIIIP,XXXXXXXXXXXXXXXXXXXXXXXXXXXXX 7I",
"I7 XXXXXXXXXXXXXXXXXXXXXXXXXXXXXXxIIIIIIIk>>>>>>>>>29ylCIIIIIIIIIP0XXXXXXXXXXXXXXXXXXXXXXXXXXXXXX 7I",
"I7 XXXXXXXXXXXXXXXXXXXXXXXXXXXXXXxIIIIIIIIIIIIIIIIIIIIIIIIIIIIIIF8XXXXXXXXXXXXXXXXXXXXXXXXXXXXXXX 7I",
"I7 XXXXXXXXXXXXXXXXXXXXXXXXXXXXXXxIIIIIIIIIIIIIIIIIIIIIIIIIIIIHk#XXXXXXXXXXXXXXXXXXXXXXXXXXXXXXXX 7I",
"I7 XXXXXXXXXXXXXXXXXXXXXXXXXXXXXXxIIIIIIIIIIIIIIIIIIIIIIIIIFxe+XXXXXXXXXXXXXXXXXXXXXXXXXXXXXXXXXX 7I",
"I7 XXXXXXXXXXXXXXXXXXXXXXXXXXXXXXxIIIIIIIIIIIIIIIIIIIIIIIIIIGnroXXXXXXXXXXXXXXXXXXXXXXXXXXXXXXXXX 7I",
"I7 XXXXXXXXXXXXXXXXXXXXXXXXXXXXXXxIIIIIIIIIIIIIIIIIIIIIIIIIIIIIFsXXXXXXXXXXXXXXXXXXXXXXXXXXXXXXXX 7I",
"I7 XXXXXXXXXXXXXXXXXXXXXXXXXXXXXXxIIIIIIIIIIIIIIIIIIIIIIIIIIIIIIIV:XXXXXXXXXXXXXXXXXXXXXXXXXXXXXX 7I",
"I7 XXXXXXXXXXXXXXXXXXXXXXXXXXXXXXxIIIIIIIfXXXXXXXXX%:2yzCIIIIIIIIIH,XXXXXXXXXXXXXXXXXXXXXXXXXXXXX 7I",
"I7 XXXXXXXXXXXXXXXXXXXXXXXXXXXXXXxIIIIIIIfXXXXXXXXXXXXXXX>zPIIIIIIIG;XXXXXXXXXXXXXXXXXXXXXXXXXXXX 7I",
"I7 XXXXXXXXXXXXXXXXXXXXXXXXXXXXXXxIIIIIIIfXXXXXXXXXXXXXXXXX1SIIIIIIIBXXXXXXXXXXXXXXXXXXXXXXXXXXXX 7I",
"I7 XXXXXXXXXXXXXXXXXXXXXXXXXXXXXXxIIIIIIIfXXXXXXXXXXXXXXXXXX=GIIIIIIIpXXXXXXXXXXXXXXXXXXXXXXXXXXX 7I",
"I7 XXXXXXXXXXXXXXXXXXXXXXXXXXXXXXxIIIIIIIfXXXXXXXXXXXXXXXXXXX3IIIIIIIFoXXXXXXXXXXXXXXXXXXXXXXXXXX 7I",
"I7 XXXXXXXXXXXXXXXXXXXXXXXXXXXXXXxIIIIIIIfXXXXXXXXXXXXXXXXXXXXNIIIIIIIeXXXXXXXXXXXXXXXXXXXXXXXXXX 7I",
"I7 XXXXXXXXXXXXXXXXXXXXXXXXXXXXXXxIIIIIIIfXXXXXXXXXXXXXXXXXXXX0IIIIIIIMXXXXXXXXXXXXXXXXXXXXXXXXXX 7I",
"I7 XXXXXXXXXXXXXXXXXXXXXXXXXXXXXXxIIIIIIIfXXXXXXXXXXXXXXXXXXXX@PIIIIIIHXXXXXXXXXXXXXXXXXXXXXXXXXX 7I",
"I7 XXXXXXXXXXXXXXXXXXXXXXXXXXXXXXxIIIIIIIfXXXXXXXXXXXXXXXXXXXXXZIIIIIII:XXXXXXXXXXXXXXXXXXXXXXXXX 7I",
"I7 XXXXXXXXXXXXXXXXXXXXXXXXXXXXXXxIIIIIIIfXXXXXXXXXXXXXXXXXXXXXMIIIIIIIqXXXXXXXXXXXXXXXXXXXXXXXXX 7I",
"I7 XXXXXXXXXXXXXXXXXXXXXXXXXXXXXXxIIIIIIIfXXXXXXXXXXXXXXXXXXXXXcIIIIIIIyXXXXXXXXXXXXXXXXXXXXXXXXX 7I",
"I7 XXXXXXXXXXXXXXXXXXXXXXXXXXXXXXxIIIIIIIfXXXXXXXXXXXXXXXXXXXXXxIIIIIIIsXXXXXXXXXXXXXXXXXXXXXXXXX 7I",
"I7 XXXXXXXXXXXXXXXXXXXXXXXXXXXXXXxIIIIIIIfXXXXXXXXXXXXXXXXXXXXXbIIIIIIIdXXXXXXXXXXXXXXXXXXXXXXXXX 7I",
"I7 XXXXXXXXXXXXXXXXXXXXXXXXXXXXXXxIIIIIIIfXXXXXXXXXXXXXXXXXXXXXNIIIIIIIpXXXXXXXXXXXXXXXXXXXXXXXXX 7I",
"I7 XXXXXXXXXXXXXXXXXXXXXXXXXXXXXXxIIIIIIIfXXXXXXXXXXXXXXXXXXXXXFIIIIIIIeXXXXXXXXXXXXXXXXXXXXXXXXX 7I",
"I7 XXXXXXXXXXXXXXXXXXXXXXXXXXXXXXxIIIIIIIfXXXXXXXXXXXXXXXXXXXX;IIIIIIII<XXXXXXXXXXXXXXXXXXXXXXXXX 7I",
"I7 XXXXXXXXXXXXXXXXXXXXXXXXXXXXXXxIIIIIIIfXXXXXXXXXXXXXXXXXXXXfIIIIIIIKXXXXXXXXXXXXXXXXXXXXXXXXXX 7I",
"I7 XXXXXXXXXXXXXXXXXXXXXXXXXXXXXXxIIIIIIIfXXXXXXXXXXXXXXXXXXX#JIIIIIIImXXXXXXXXXXXXXXXXXXXXXXXXXX 7I",
"I7 XXXXXXXXXXXXXXXXXXXXXXXXXXXXXXxIIIIIIIfXXXXXXXXXXXXXXXXXXXnIIIIIIIIrXXXXXXXXXXXXXXXXXXXXXXXXXX 7I",
"I7 XXXXXXXXXXXXXXXXXXXXXXXXXXXXXXxIIIIIIIfXXXXXXXXXXXXXXXXX&vIIIIIIIIFOXXXXXXXXXXXXXXXXXXXXXXXXXX 7I",
"I7 XXXXXXXXXXXXXXXXXXXXXXXXXXXXXXxIIIIIIIfXXXXXXXXXXXXXXX=dJIIIIIIIIIrXXXXXXXXXXXXXXXXXXXXXXXXXXX 7I",
"I7 XXXXXXXXXXXXXXXXXXXXXXXXXXXXXXxIIIIIIIk>>>>>>>>>150pxCIIIIIIIIIIIbXXXXXXXXXXXXXXXXXXXXXXXXXXXX 7I",
"I7 XXXXXXXXXXXXXXXXXXXXXXXXXXXXXXxIIIIIIIIIIIIIIIIIIIIIIIIIIIIIIIIIZ#XXXXXXXXXXXXXXXXXXXXXXXXXXXX 7I",
"I7 XXXXXXXXXXXXXXXXXXXXXXXXXXXXXXxIIIIIIIIIIIIIIIIIIIIIIIIIIIIIIIIB$XXXXXXXXXXXXXXXXXXXXXXXXXXXXX 7I",
"I7 XXXXXXXXXXXXXXXXXXXXXXXXXXXXXXxIIIIIIIIIIIIIIIIIIIIIIIIIIIIIIPgoXXXXXXXXXXXXXXXXXXXXXXXXXXXXXX 7I",
"I7 XXXXXXXXXXXXXXXXXXXXXXXXXXXXXXxIIIIIIIIIIIIIIIIIIIIIIIIIIIIIv:XXXXXXXXXXXXXXXXXXXXXXXXXXXXXXXX 7I",
"I7 XXXXXXXXXXXXXXXXXXXXXXXXXXXXXXxIIIIIIIIIIIIIIIIIIIIIIIIIIZg=XXXXXXXXXXXXXXXXXXXXXXXXXXXXXXXXXX 7I",
"I7 XXXXXXXXXXXXXXXXXXXXXXXXXXXXXXxIIIIIIIIIIIIIIIIIIPKFZbjw&XXXXXXXXXXXXXXXXXXXXXXXXXXXXXXXXXXXXX 7I",
"I7 XXXXXXXXXXXXXXXXXXXXXXXXXXXXXXXXXXXXXXXXXXXXXXXXXXXXXXXXXXXXXXXXXXXXXXXXXXXXXXXXXXXXXXXXXXXXXX 7I",
"I7 XXXXXXXXXXXXXXXXXXXXXXXXXXXXXXXXXXXXXXXXXXXXXXXXXXXXXXXXXXXXXXXXXXXXXXXXXXXXXXXXXXXXXXXXXXXXXX 7I",
"I7 XXXXXXXXXXXXXXXXXXXXXXXXXXXXXXXXXXXXXXXXXXXXXXXXXXXXXXXXXXXXXXXXXXXXXXXXXXXXXXXXXXXXXXXXXXXXXX 7I",
"I7 XXXXXXXXXXXXXXXXXXXXXXXXXXXXXXXXXXXXXXXXXXXXXXXXXXXXXXXXXXXXXXXXXXXXXXXXXXXXXXXXXXXXXXXXXXXXXX 7I",
"I7 XXXXXXXXXXXXXXXXXXXXXXXXXXXXXXXXXXXXXXXXXXXXXXXXXXXXXXXXXXXXXXXXXXXXXXXXXXXXXXXXXXXXXXXXXXXXXX 7I",
"I7 XXXXXXXXXXXXXXXXXXXXXXXXXXXXXXXXXXXXXXXXXXXXXXXXXXXXXXXXXXXXXXXXXXXXXXXXXXXXXXXXXXXXXXXXXXXXXX 7I",
"I7 XXXXXXXXXXXXXXXXXXXXXXXXXXXXXXXXXXXXXXXXXXXXXXXXXXXXXXXXXXXXXXXXXXXXXXXXXXXXXXXXXXXXXXXXXXXXXX 7I",
"I7 XXXXXXXXXXXXXXXXXXXXXXXXXXXXXXXXXXXXXXXXXXXXXXXXXXXXXXXXXXXXXXXXXXXXXXXXXXXXXXXXXXXXXXXXXXXXXX 7I",
"I7 XXXXXXXXXXXXXXXXXXXXXXXXXXXXXXXXXXXXXXXXXXXXXXXXXXXXXXXXXXXXXXXXXXXXXXXXXXXXXXXXXXXXXXXXXXXXXX 7I",
"I7 XXXXXXXXXXXXXXXXXXXXXXXXXXXXXXXXXXXXXXXXXXXXXXXXXXXXXXXXXXXXXXXXXXXXXXXXXXXXXXXXXXXXXXXXXXXXXX 7I",
"I7 XXXXXXXXXXXXXXXXXXXXXXXXXXXXXXXXXXXXXXXXXXXXXXXXXXXXXXXXXXXXXXXXXXXXXXXXXXXXXXXXXXXXXXXXXXXXXX 7I",
"I7 XXXXXXXXXXXXXXXXXXXXXXXXXXXXXXXXXXXXXXXXXXXXXXXXXXXXXXXXXXXXXXXXXXXXXXXXXXXXXXXXXXXXXXXXXXXXXX 7I",
"I7 XXXXXXXXXXXXXXXXXXXXXXXXXXXXXXXXXXXXXXXXXXXXXXXXXXXXXXXXXXXXXXXXXXXXXXXXXXXXXXXXXXXXXXXXXXXXXX 7I",
"I7 XXXXXXXXXXXXXXXXXXXXXXXXXXXXXXXXXXXXXXXXXXXXXXXXXXXXXXXXXXXXXXXXXXXXXXXXXXXXXXXXXXXXXXXXXXXXXX 7I",
"I7 XXXXXXXXXXXXXXXXXXXXXXXXXXXXXXXXXXXXXXXXXXXXXXXXXXXXXXXXXXXXXXXXXXXXXXXXXXXXXXXXXXXXXXXXXXXXXX 7I",
"I7 XXXXXXXXXXXXXXXXXXXXXXXXXXXXXXXXXXXXXXXXXXXXXXXXXXXXXXXXXXXXXXXXXXXXXXXXXXXXXXXXXXXXXXXXXXXXXX 7I",
"I7 XXXXXXXXXXXXXXXXXXXXXXXXXXXXXXXXXXXXXXXXXXXXXXXXXXXXXXXXXXXXXXXXXXXXXXXXXXXXXXXXXXXXXXXXXXXXXX 7I",
"I7.XXXXXXXXXXXXXXXXXXXXXXXXXXXXXXXXXXXXXXXXXXXXXXXXXXXXXXXXXXXXXXXXXXXXXXXXXXXXXXXXXXXXXXXXXXXXXX 7I",
"I7                                                                                                7I",
"I67777777777777777777777777777777777777777777777777777777777777777777777777777777777777777777777776I",
"IIIIIIIIIIIIIIIIIIIIIIIIIIIIIIIIIIIIIIIIIIIIIIIIIIIIIIIIIIIIIIIIIIIIIIIIIIIIIIIIIIIIIIIIIIIIIIIIIIII"
};
