/* XPM */
static char *b3[] = {
/* columns rows colors chars-per-pixel */
"100 100 37 1 ",
"  c #686868",
". c #727272",
"X c #747474",
"o c gray47",
"O c #7E7E7E",
"+ c gray51",
"@ c #848484",
"# c #8B8B8B",
"$ c gray55",
"% c #939393",
"& c #959595",
"* c #989898",
"= c #9D9D9D",
"- c gray64",
"; c #A5A5A5",
": c gray67",
"> c #AFAFAF",
", c gray70",
"< c #B4B4B4",
"1 c #BBBBBB",
"2 c gray75",
"3 c #C1C1C1",
"4 c gray78",
"5 c #CBCBCB",
"6 c #CDCDCD",
"7 c LightGray",
"8 c gray84",
"9 c #DADADA",
"0 c gray87",
"q c #E1E1E1",
"w c #E6E6E6",
"e c #E9E9E9",
"r c #EFEFEF",
"t c gray95",
"y c gray96",
"u c #FBFBFB",
"i c white",
/* pixels */
"iiiiiiiiiiiiiiiiiiiiiiiiiiiiiiiiiiiiiiiiiiiiiiiiiiiiiiiiiiiiiiiiiiiiiiiiiiiiiiiiiiiiiiiiiiiiiiiiiiii",
"i>,,,,,,,,,,,,,,,,,,,,,,,,,,,,,,,,,,,,,,,,,,,,,,,,,,,,,,,,,,,,,,,,,,,,,,,,,,,,,,,,,,,,,,,,,,,,,,,,>i",
"i,                                                                                                ,i",
"i, .............................................................................................. ,i",
"i, .............................................................................................. ,i",
"i, .............................................................................................. ,i",
"i, .............................................................................................. ,i",
"i, .............................................................................................. ,i",
"i, .............................................................................................. ,i",
"i, .............................................................................................. ,i",
"i, .............................................................................................. ,i",
"i, .............................................................................................. ,i",
"i, .............................................................................................. ,i",
"i, .............................................................................................. ,i",
"i, .............................................................................................. ,i",
"i, .............................................................................................. ,i",
"i, .............................................................................................. ,i",
"i, .............................................................................................. ,i",
"i, .............................................................................................. ,i",
"i, .............................................................................................. ,i",
"i, ..............................5iiiiiiiiiiiiiiiiiuyre93-O...................................... ,i",
"i, ..............................5iiiiiiiiiiiiiiiiiiiiiiiii0:X................................... ,i",
"i, ..............................5iiiiiiiiiiiiiiiiiiiiiiiiiiiy<.................................. ,i",
"i, ..............................5iiiiiiiiiiiiiiiiiiiiiiiiiiiiiq#................................ ,i",
"i, ..............................5iiiiiiiiiiiiiiiiiiiiiiiiiiiiiiy=............................... ,i",
"i, ..............................5iiiiiiiiiiiiiiiiiiiiiiiiiiiiiiiu&.............................. ,i",
"i, ..............................5iiiiiii4########$&=:39uiiiiiiiiito............................. ,i",
"i, ..............................5iiiiiii2..............o<yiiiiiiii6............................. ,i",
"i, ..............................5iiiiiii2................Oeiiiiiiiu@............................ ,i",
"i, ..............................5iiiiiii2.................+yiiiiiii3............................ ,i",
"i, ..............................5iiiiiii2..................3iiiiiiie............................ ,i",
"i, ..............................5iiiiiii2..................@iiiiiiiio........................... ,i",
"i, ..............................5iiiiiii2...................riiiiiii*........................... ,i",
"i, ..............................5iiiiiii2...................qiiiiiii>........................... ,i",
"i, ..............................5iiiiiii2...................9iiiiiii<........................... ,i",
"i, ..............................5iiiiiii2...................8iiiiiii<........................... ,i",
"i, ..............................5iiiiiii2...................0iiiiiii>........................... ,i",
"i, ..............................5iiiiiii2...................eiiiiiii;........................... ,i",
"i, ..............................5iiiiiii2..................Xuiiiiiii@........................... ,i",
"i, ..............................5iiiiiii2..................;iiiiiiit............................ ,i",
"i, ..............................5iiiiiii2..................qiiiiiii8............................ ,i",
"i, ..............................5iiiiiii2.................>iiiiiiii*............................ ,i",
"i, ..............................5iiiiiii2................-uiiiiiiiq............................. ,i",
"i, ..............................5iiiiiii2..............#6iiiiiiiiu$............................. ,i",
"i, ..............................5iiiiiii4########$&=>5qiiiiiiiiiu-.............................. ,i",
"i, ..............................5iiiiiiiiiiiiiiiiiiiiiiiiiiiiiir=............................... ,i",
"i, ..............................5iiiiiiiiiiiiiiiiiiiiiiiiiiiiy4o................................ ,i",
"i, ..............................5iiiiiiiiiiiiiiiiiiiiiiiiir6:X.................................. ,i",
"i, ..............................5iiiiiiiiiiiiiiiiiiiiiiiiiit9:.................................. ,i",
"i, ..............................5iiiiiiiiiiiiiiiiiiiiiiiiiiiiit1................................ ,i",
"i, ..............................5iiiiiiiiiiiiiiiiiiiiiiiiiiiiiiiq#.............................. ,i",
"i, ..............................5iiiiiii2.........O#&>5qiiiiiiiiit$............................. ,i",
"i, ..............................5iiiiiii2...............#5iiiiiiiit#............................ ,i",
"i, ..............................5iiiiiii2.................%eiiiiiiiq............................ ,i",
"i, ..............................5iiiiiii2..................@tiiiiiii<........................... ,i",
"i, ..............................5iiiiiii2...................*iiiiiiit........................... ,i",
"i, ..............................5iiiiiii2....................0iiiiiii:.......................... ,i",
"i, ..............................5iiiiiii2....................-iiiiiii9.......................... ,i",
"i, ..............................5iiiiiii2....................Xuiiiiiit.......................... ,i",
"i, ..............................5iiiiiii2.....................wiiiiiii#......................... ,i",
"i, ..............................5iiiiiii2.....................9iiiiiii;......................... ,i",
"i, ..............................5iiiiiii2.....................7iiiiiii>......................... ,i",
"i, ..............................5iiiiiii2.....................6iiiiiii1......................... ,i",
"i, ..............................5iiiiiii2.....................8iiiiiii2......................... ,i",
"i, ..............................5iiiiiii2.....................0iiiiiii<......................... ,i",
"i, ..............................5iiiiiii2.....................tiiiiiii;......................... ,i",
"i, ..............................5iiiiiii2....................@iiiiiiii$......................... ,i",
"i, ..............................5iiiiiii2....................2iiiiiiiy.......................... ,i",
"i, ..............................5iiiiiii2...................oyiiiiiii9.......................... ,i",
"i, ..............................5iiiiiii2...................9iiiiiiii:.......................... ,i",
"i, ..............................5iiiiiii2.................O8iiiiiiiirX.......................... ,i",
"i, ..............................5iiiiiii2...............+1yiiiiiiiii>........................... ,i",
"i, ..............................5iiiiiii4#########%*-<6qiiiiiiiiiii8............................ ,i",
"i, ..............................5iiiiiiiiiiiiiiiiiiiiiiiiiiiiiiiiiwo............................ ,i",
"i, ..............................5iiiiiiiiiiiiiiiiiiiiiiiiiiiiiiii0o............................. ,i",
"i, ..............................5iiiiiiiiiiiiiiiiiiiiiiiiiiiiiiu3............................... ,i",
"i, ..............................5iiiiiiiiiiiiiiiiiiiiiiiiiiiii8#................................ ,i",
"i, ..............................5iiiiiiiiiiiiiiiiiiiiiiiiiiw3+.................................. ,i",
"i, ..............................5iiiiiiiiiiiiiiiiiiuyrw84;O..................................... ,i",
"i, .............................................................................................. ,i",
"i, .............................................................................................. ,i",
"i, .............................................................................................. ,i",
"i, .............................................................................................. ,i",
"i, .............................................................................................. ,i",
"i, .............................................................................................. ,i",
"i, .............................................................................................. ,i",
"i, .............................................................................................. ,i",
"i, .............................................................................................. ,i",
"i, .............................................................................................. ,i",
"i, .............................................................................................. ,i",
"i, .............................................................................................. ,i",
"i, .............................................................................................. ,i",
"i, .............................................................................................. ,i",
"i, .............................................................................................. ,i",
"i, .............................................................................................. ,i",
"i, .............................................................................................. ,i",
"i,O.............................................................................................. ,i",
"i,                                                                                                ,i",
"i>,,,,,,,,,,,,,,,,,,,,,,,,,,,,,,,,,,,,,,,,,,,,,,,,,,,,,,,,,,,,,,,,,,,,,,,,,,,,,,,,,,,,,,,,,,,,,,,,>i",
"iiiiiiiiiiiiiiiiiiiiiiiiiiiiiiiiiiiiiiiiiiiiiiiiiiiiiiiiiiiiiiiiiiiiiiiiiiiiiiiiiiiiiiiiiiiiiiiiiiii"
};
