/* XPM */
static char *c[] = {
/* columns rows colors chars-per-pixel */
"100 100 84 1 ",
"  c #2E0000",
". c #310D0D",
"X c #341616",
"o c #371C1C",
"O c #3A2222",
"+ c #3D2626",
"@ c #3F2A2A",
"# c #443232",
"$ c #463535",
"% c #4A3B3B",
"& c #4E4040",
"* c #504242",
"= c #524545",
"- c #544747",
"; c #564949",
": c #594D4D",
"> c #5C5151",
", c #5F5555",
"< c #615656",
"1 c #625858",
"2 c #645A5A",
"3 c #6A6262",
"4 c #6C6363",
"5 c #6D6565",
"6 c #686868",
"7 c #706868",
"8 c #736C6C",
"9 c #766E6E",
"0 c #777070",
"q c #797272",
"w c #7B7575",
"e c #7E7777",
"r c #7C7C7C",
"t c #817A7A",
"y c #827C7C",
"u c #857F7F",
"i c #878181",
"p c #898383",
"a c #8B8686",
"s c #8C8787",
"d c #8D8888",
"f c #908B8B",
"g c #938E8E",
"h c #979393",
"j c #989494",
"k c #9D9999",
"l c #A09C9C",
"z c #AAA7A7",
"x c #ABA8A8",
"c c #ADAAAA",
"v c #AFAFAF",
"b c #B2AFAF",
"n c gray70",
"m c #B5B2B2",
"M c #B7B4B4",
"N c #B8B5B5",
"B c #BDBBBB",
"V c #BEBCBC",
"C c #C0BEBE",
"Z c #C3C1C1",
"A c #C5C3C3",
"S c #C6C4C4",
"D c #C8C6C6",
"F c #CBCACA",
"G c #D0CECE",
"H c #D2D1D1",
"J c #D4D3D3",
"K c #D7D6D6",
"L c #D8D6D6",
"P c #DAD8D8",
"I c #DDDCDC",
"U c #E0DFDF",
"Y c #E1E0E0",
"T c #E5E4E4",
"R c #E9E8E8",
"E c gray93",
"W c #F0EFEF",
"Q c #F3F3F3",
"! c #F4F3F3",
"~ c #F7F6F6",
"^ c #F8F7F7",
"/ c #F9F9F9",
"( c #FCFBFB",
") c white",
/* pixels */
"))))))))))))))))))))))))))))))))))))))))))))))))))))))))))))))))))))))))))))))))))))))))))))))))))))",
")vnnnnnnnnnnnnnnnnnnnnnnnnnnnnnnnnnnnnnnnnnnnnnnnnnnnnnnnnnnnnnnnnnnnnnnnnnnnnnnnnnnnnnnnnnnnnnnnnv)",
")n666666666666666666666666666666666666666666666666666666666666666666666666666666666666666666666666n)",
")n6))))))))))))))))))))))))))))))))))))))))))))))))))))))))))))))))))))))))))))))))))))))))))))))6n)",
")n6))))))))))))))))))))))))))))))))))))))))))))))))))))))))))))))))))))))))))))))))))))))))))))))6n)",
")n6))))))))))))))))))))))))))))))))))))))))))))))))))))))))))))))))))))))))))))))))))))))))))))))6n)",
")n6))))))))))))))))))))))))))))))))))))))))))))))))))))))))))))))))))))))))))))))))))))))))))))))6n)",
")n6))))))))))))))))))))))))))))))))))))))))))))))))))))))))))))))))))))))))))))))))))))))))))))))6n)",
")n6))))))))))))))))))))))))))))))))))))))))))))))))))))))))))))))))))))))))))))))))))))))))))))))6n)",
")n6))))))))))))))))))))))))))))))))))))))))))))))))))))))))))))))))))))))))))))))))))))))))))))))6n)",
")n6))))))))))))))))))))))))))))))))))))))))))))))))))))))))))))))))))))))))))))))))))))))))))))))6n)",
")n6))))))))))))))))))))))))))))))))))))))))))))))))))))))))))))))))))))))))))))))))))))))))))))))6n)",
")n6))))))))))))))))))))))))))))))))))))))))))))))))))))))))))))))))))))))))))))))))))))))))))))))6n)",
")n6))))))))))))))))))))))))))))))))))))))))))))))))))))))))))))))))))))))))))))))))))))))))))))))6n)",
")n6))))))))))))))))))))))))))))))))))))))))))))))))))))))))))))))))))))))))))))))))))))))))))))))6n)",
")n6))))))))))))))))))))))))))))))))))))))))))))))))))))))))))))))))))))))))))))))))))))))))))))))6n)",
")n6))))))))))))))))))))))))))))))))))))))))))))))))))))))))))))))))))))))))))))))))))))))))))))))6n)",
")n6))))))))))))))))))))))))))))))))))))))))))))))))))))))))))))))))))))))))))))))))))))))))))))))6n)",
")n6))))))))))))))))))))))))))))))))))))))))))))))))))))))))))))))))))))))))))))))))))))))))))))))6n)",
")n6))))))))))))))))))))))))))))))))))))))))))))))EHba01#@:4elVL~)))))))))))))))))))))))))))))))))6n)",
")n6)))))))))))))))))))))))))))))))))))))))))))!Z9              odD^))))))))))))))))))))))))))))))6n)",
")n6)))))))))))))))))))))))))))))))))))))))))~co                   %nQ))))))))))))))))))))))))))))6n)",
")n6))))))))))))))))))))))))))))))))))))))))D=                       >))))))))))))))))))))))))))))6n)",
")n6))))))))))))))))))))))))))))))))))))))/k                         :))))))))))))))))))))))))))))6n)",
")n6)))))))))))))))))))))))))))))))))))))Qe                          :))))))))))))))))))))))))))))6n)",
")n6))))))))))))))))))))))))))))))))))))^q         OdCPRWERLCg$      :))))))))))))))))))))))))))))6n)",
")n6)))))))))))))))))))))))))))))))))))(a        #NQ))))))))))/Hi    :))))))))))))))))))))))))))))6n)",
")n6)))))))))))))))))))))))))))))))))))c        uE)))))))))))))))Yu  :))))))))))))))))))))))))))))6n)",
")n6))))))))))))))))))))))))))))))))))U        k())))))))))))))))))F%:))))))))))))))))))))))))))))6n)",
")n6)))))))))))))))))))))))))))))))))/4       f)))))))))))))))))))))Ea))))))))))))))))))))))))))))6n)",
")n6)))))))))))))))))))))))))))))))))C       <~))))))))))))))))))))))())))))))))))))))))))))))))))6n)",
")n6))))))))))))))))))))))))))))))))/:       K))))))))))))))))))))))))))))))))))))))))))))))))))))6n)",
")n6))))))))))))))))))))))))))))))))S       p)))))))))))))))))))))))))))))))))))))))))))))))))))))6n)",
")n6))))))))))))))))))))))))))))))))4       P)))))))))))))))))))))))))))))))))))))))))))))))))))))6n)",
")n6)))))))))))))))))))))))))))))))T       5))))))))))))))))))))))))))))))))))))))))))))))))))))))6n)",
")n6)))))))))))))))))))))))))))))))b       N))))))))))))))))))))))))))))))))))))))))))))))))))))))6n)",
")n6)))))))))))))))))))))))))))))))1       T))))))))))))))))))))))))))))))))))))))))))))))))))))))6n)",
")n6))))))))))))))))))))))))))))))E       -)))))))))))))))))))))))))))))))))))))))))))))))))))))))6n)",
")n6))))))))))))))))))))))))))))))G       j)))))))))))))))))))))))))))))))))))))))))))))))))))))))6n)",
")n6))))))))))))))))))))))))))))))c       B)))))))))))))))))))))))))))))))))))))))))))))))))))))))6n)",
")n6))))))))))))))))))))))))))))))w       L)))))))))))))))))))))))))))))))))))))))))))))))))))))))6n)",
")n6))))))))))))))))))))))))))))))$       R)))))))))))))))))))))))))))))))))))))))))))))))))))))))6n)",
")n6)))))))))))))))))))))))))))))~        /)))))))))))))))))))))))))))))))))))))))))))))))))))))))6n)",
")n6)))))))))))))))))))))))))))))T       *))))))))))))))))))))))))))))))))))))))))))))))))))))))))6n)",
")n6)))))))))))))))))))))))))))))K       7))))))))))))))))))))))))))))))))))))))))))))))))))))))))6n)",
")n6)))))))))))))))))))))))))))))F       y))))))))))))))))))))))))))))))))))))))))))))))))))))))))6n)",
")n6)))))))))))))))))))))))))))))S       g))))))))))))))))))))))))))))))))))))))))))))))))))))))))6n)",
")n6)))))))))))))))))))))))))))))C       h))))))))))))))))))))))))))))))))))))))))))))))))))))))))6n)",
")n6)))))))))))))))))))))))))))))N       j))))))))))))))))))))))))))))))))))))))))))))))))))))))))6n)",
")n6)))))))))))))))))))))))))))))m       k))))))))))))))))))))))))))))))))))))))))))))))))))))))))6n)",
")n6)))))))))))))))))))))))))))))M       j))))))))))))))))))))))))))))))))))))))))))))))))))))))))6n)",
")n6)))))))))))))))))))))))))))))B       h))))))))))))))))))))))))))))))))))))))))))))))))))))))))6n)",
")n6)))))))))))))))))))))))))))))C       g))))))))))))))))))))))))))))))))))))))))))))))))))))))))6n)",
")n6)))))))))))))))))))))))))))))D       y))))))))))))))))))))))))))))))))))))))))))))))))))))))))6n)",
")n6)))))))))))))))))))))))))))))K       7))))))))))))))))))))))))))))))))))))))))))))))))))))))))6n)",
")n6)))))))))))))))))))))))))))))Y       *))))))))))))))))))))))))))))))))))))))))))))))))))))))))6n)",
")n6)))))))))))))))))))))))))))))E        /)))))))))))))))))))))))))))))))))))))))))))))))))))))))6n)",
")n6))))))))))))))))))))))))))))))O       R)))))))))))))))))))))))))))))))))))))))))))))))))))))))6n)",
")n6))))))))))))))))))))))))))))))8       K)))))))))))))))))))))))))))))))))))))))))))))))))))))))6n)",
")n6))))))))))))))))))))))))))))))k       B)))))))))))))))))))))))))))))))))))))))))))))))))))))))6n)",
")n6))))))))))))))))))))))))))))))A       h)))))))))))))))))))))))))))))))))))))))))))))))))))))))6n)",
")n6))))))))))))))))))))))))))))))T       =)))))))))))))))))))))))))))))))))))))))))))))))))))))))6n)",
")n6)))))))))))))))))))))))))))))))&       T))))))))))))))))))))))))))))))))))))))))))))))))))))))6n)",
")n6)))))))))))))))))))))))))))))))l       M))))))))))))))))))))))))))))))))))))))))))))))))))))))6n)",
")n6)))))))))))))))))))))))))))))))K       3))))))))))))))))))))))))))))))))))))))))))))))))))))))6n)",
")n6)))))))))))))))))))))))))))))))/;       P)))))))))))))))))))))))))))))))))))))))))))))))))))))6n)",
")n6))))))))))))))))))))))))))))))))m       u)))))))))))))))))))))))))))))))))))))))))))))))))))))6n)",
")n6))))))))))))))))))))))))))))))))QO       J))))))))))))))))))))))))))))))))))))))))))))))))))))6n)",
")n6)))))))))))))))))))))))))))))))))c       >~)))))))))))))))))))))))))))))))))))))))))))))))))))6n)",
")n6)))))))))))))))))))))))))))))))))~%       s)))))))))))))))))))))~l))))))))))))))))))))))))))))6n)",
")n6))))))))))))))))))))))))))))))))))F        j/))))))))))))))))))P2:))))))))))))))))))))))))))))6n)",
")n6)))))))))))))))))))))))))))))))))))g        tE)))))))))))))))Ej  :))))))))))))))))))))))))))))6n)",
")n6)))))))))))))))))))))))))))))))))))~4        @mQ)))))))))))IjX   :))))))))))))))))))))))))))))6n)",
")n6))))))))))))))))))))))))))))))))))))E-         oaVPRWQRPAk-      :))))))))))))))))))))))))))))6n)",
")n6)))))))))))))))))))))))))))))))))))))R<                          :))))))))))))))))))))))))))))6n)",
")n6))))))))))))))))))))))))))))))))))))))Wq                         :))))))))))))))))))))))))))))6n)",
")n6)))))))))))))))))))))))))))))))))))))))(n.                       :))))))))))))))))))))))))))))6n)",
")n6)))))))))))))))))))))))))))))))))))))))))Rj                    $xR))))))))))))))))))))))))))))6n)",
")n6)))))))))))))))))))))))))))))))))))))))))))Rm,              +gF~))))))))))))))))))))))))))))))6n)",
")n6))))))))))))))))))))))))))))))))))))))))))))))RDza3-+@:4tlCP/)))))))))))))))))))))))))))))))))6n)",
")n6))))))))))))))))))))))))))))))))))))))))))))))))))))))))))))))))))))))))))))))))))))))))))))))6n)",
")n6))))))))))))))))))))))))))))))))))))))))))))))))))))))))))))))))))))))))))))))))))))))))))))))6n)",
")n6))))))))))))))))))))))))))))))))))))))))))))))))))))))))))))))))))))))))))))))))))))))))))))))6n)",
")n6))))))))))))))))))))))))))))))))))))))))))))))))))))))))))))))))))))))))))))))))))))))))))))))6n)",
")n6))))))))))))))))))))))))))))))))))))))))))))))))))))))))))))))))))))))))))))))))))))))))))))))6n)",
")n6))))))))))))))))))))))))))))))))))))))))))))))))))))))))))))))))))))))))))))))))))))))))))))))6n)",
")n6))))))))))))))))))))))))))))))))))))))))))))))))))))))))))))))))))))))))))))))))))))))))))))))6n)",
")n6))))))))))))))))))))))))))))))))))))))))))))))))))))))))))))))))))))))))))))))))))))))))))))))6n)",
")n6))))))))))))))))))))))))))))))))))))))))))))))))))))))))))))))))))))))))))))))))))))))))))))))6n)",
")n6))))))))))))))))))))))))))))))))))))))))))))))))))))))))))))))))))))))))))))))))))))))))))))))6n)",
")n6))))))))))))))))))))))))))))))))))))))))))))))))))))))))))))))))))))))))))))))))))))))))))))))6n)",
")n6))))))))))))))))))))))))))))))))))))))))))))))))))))))))))))))))))))))))))))))))))))))))))))))6n)",
")n6))))))))))))))))))))))))))))))))))))))))))))))))))))))))))))))))))))))))))))))))))))))))))))))6n)",
")n6))))))))))))))))))))))))))))))))))))))))))))))))))))))))))))))))))))))))))))))))))))))))))))))6n)",
")n6))))))))))))))))))))))))))))))))))))))))))))))))))))))))))))))))))))))))))))))))))))))))))))))6n)",
")n6))))))))))))))))))))))))))))))))))))))))))))))))))))))))))))))))))))))))))))))))))))))))))))))6n)",
")nr))))))))))))))))))))))))))))))))))))))))))))))))))))))))))))))))))))))))))))))))))))))))))))))6n)",
")n666666666666666666666666666666666666666666666666666666666666666666666666666666666666666666666666n)",
")vnnnnnnnnnnnnnnnnnnnnnnnnnnnnnnnnnnnnnnnnnnnnnnnnnnnnnnnnnnnnnnnnnnnnnnnnnnnnnnnnnnnnnnnnnnnnnnnnv)",
"))))))))))))))))))))))))))))))))))))))))))))))))))))))))))))))))))))))))))))))))))))))))))))))))))))"
};
