/* XPM */
static char *c1[] = {
/* columns rows colors chars-per-pixel */
"100 100 81 1 ",
"  c #686868",
". c #7C7C7C",
"X c #348032",
"o c #378135",
"O c #3A8238",
"+ c #418440",
"@ c #448542",
"# c #468644",
"$ c #488747",
"% c #4A8749",
"& c #4C884B",
"* c #4E894D",
"= c #508A4F",
"- c #528A51",
"; c #558C54",
": c #588D57",
"> c #5A8E59",
", c #5C8F5B",
"< c #5F905E",
"1 c #60915F",
"2 c #629261",
"3 c #679567",
"4 c #6B976B",
"5 c #6F996E",
"6 c #729A71",
"7 c #749B73",
"8 c #779D77",
"9 c #799E78",
"0 c #7CA07B",
"q c #7FA27E",
"w c #81A381",
"e c #86A686",
"r c #89A889",
"t c #8DAA8C",
"y c #92AE92",
"u c #96B196",
"i c #9BB39A",
"p c #9BB49B",
"a c #9FB79F",
"s c #AFAFAF",
"d c #A0B7A0",
"f c #A1B8A1",
"g c #A6BBA5",
"h c #A7BCA7",
"j c #AABEAA",
"k c gray70",
"l c #B0C2AF",
"z c #B2C3B1",
"x c #B3C4B3",
"c c #B4C5B3",
"v c #B6C7B6",
"b c #B9C9B9",
"n c #BCCBBB",
"m c #BCCBBC",
"M c #BECCBE",
"N c #C1CEC0",
"B c #C3D0C3",
"V c #C4D1C4",
"C c #C9D5C9",
"Z c #CDD8CD",
"A c #D0DAD0",
"S c #D7DFD7",
"D c #D7E0D7",
"F c #D9E1D9",
"G c #DCE3DB",
"H c #DCE3DC",
"J c #DFE6DF",
"K c #E1E7E1",
"L c #E3E9E3",
"P c #E6EBE5",
"I c #E8ECE7",
"U c #EAEEEA",
"Y c #EDF1ED",
"T c #F0F3EF",
"R c #F0F3F0",
"E c #F1F4F1",
"W c #F4F6F4",
"Q c #F7F8F7",
"! c #F9FAF9",
"~ c #FBFCFB",
"^ c white",
/* pixels */
"^^^^^^^^^^^^^^^^^^^^^^^^^^^^^^^^^^^^^^^^^^^^^^^^^^^^^^^^^^^^^^^^^^^^^^^^^^^^^^^^^^^^^^^^^^^^^^^^^^^^",
"^skkkkkkkkkkkkkkkkkkkkkkkkkkkkkkkkkkkkkkkkkkkkkkkkkkkkkkkkkkkkkkkkkkkkkkkkkkkkkkkkkkkkkkkkkkkkkkkks^",
"^k                                                                                                k^",
"^k XXXXXXXXXXXXXXXXXXXXXXXXXXXXXXXXXXXXXXXXXXXXXXXXXXXXXXXXXXXXXXXXXXXXXXXXXXXXXXXXXXXXXXXXXXXXXX k^",
"^k XXXXXXXXXXXXXXXXXXXXXXXXXXXXXXXXXXXXXXXXXXXXXXXXXXXXXXXXXXXXXXXXXXXXXXXXXXXXXXXXXXXXXXXXXXXXXX k^",
"^k XXXXXXXXXXXXXXXXXXXXXXXXXXXXXXXXXXXXXXXXXXXXXXXXXXXXXXXXXXXXXXXXXXXXXXXXXXXXXXXXXXXXXXXXXXXXXX k^",
"^k XXXXXXXXXXXXXXXXXXXXXXXXXXXXXXXXXXXXXXXXXXXXXXXXXXXXXXXXXXXXXXXXXXXXXXXXXXXXXXXXXXXXXXXXXXXXXX k^",
"^k XXXXXXXXXXXXXXXXXXXXXXXXXXXXXXXXXXXXXXXXXXXXXXXXXXXXXXXXXXXXXXXXXXXXXXXXXXXXXXXXXXXXXXXXXXXXXX k^",
"^k XXXXXXXXXXXXXXXXXXXXXXXXXXXXXXXXXXXXXXXXXXXXXXXXXXXXXXXXXXXXXXXXXXXXXXXXXXXXXXXXXXXXXXXXXXXXXX k^",
"^k XXXXXXXXXXXXXXXXXXXXXXXXXXXXXXXXXXXXXXXXXXXXXXXXXXXXXXXXXXXXXXXXXXXXXXXXXXXXXXXXXXXXXXXXXXXXXX k^",
"^k XXXXXXXXXXXXXXXXXXXXXXXXXXXXXXXXXXXXXXXXXXXXXXXXXXXXXXXXXXXXXXXXXXXXXXXXXXXXXXXXXXXXXXXXXXXXXX k^",
"^k XXXXXXXXXXXXXXXXXXXXXXXXXXXXXXXXXXXXXXXXXXXXXXXXXXXXXXXXXXXXXXXXXXXXXXXXXXXXXXXXXXXXXXXXXXXXXX k^",
"^k XXXXXXXXXXXXXXXXXXXXXXXXXXXXXXXXXXXXXXXXXXXXXXXXXXXXXXXXXXXXXXXXXXXXXXXXXXXXXXXXXXXXXXXXXXXXXX k^",
"^k XXXXXXXXXXXXXXXXXXXXXXXXXXXXXXXXXXXXXXXXXXXXXXXXXXXXXXXXXXXXXXXXXXXXXXXXXXXXXXXXXXXXXXXXXXXXXX k^",
"^k XXXXXXXXXXXXXXXXXXXXXXXXXXXXXXXXXXXXXXXXXXXXXXXXXXXXXXXXXXXXXXXXXXXXXXXXXXXXXXXXXXXXXXXXXXXXXX k^",
"^k XXXXXXXXXXXXXXXXXXXXXXXXXXXXXXXXXXXXXXXXXXXXXXXXXXXXXXXXXXXXXXXXXXXXXXXXXXXXXXXXXXXXXXXXXXXXXX k^",
"^k XXXXXXXXXXXXXXXXXXXXXXXXXXXXXXXXXXXXXXXXXXXXXXXXXXXXXXXXXXXXXXXXXXXXXXXXXXXXXXXXXXXXXXXXXXXXXX k^",
"^k XXXXXXXXXXXXXXXXXXXXXXXXXXXXXXXXXXXXXXXXXXXXXXXXXXXXXXXXXXXXXXXXXXXXXXXXXXXXXXXXXXXXXXXXXXXXXX k^",
"^k XXXXXXXXXXXXXXXXXXXXXXXXXXXXXXXXXXXXXXXXXXXXXXXXXXXXXXXXXXXXXXXXXXXXXXXXXXXXXXXXXXXXXXXXXXXXXX k^",
"^k XXXXXXXXXXXXXXXXXXXXXXXXXXXXXXXXXXXXXXXXXXXXXX8hCLYW^^QEUSMa,XXXXXXXXXXXXXXXXXXXXXXXXXXXXXXXXX k^",
"^k XXXXXXXXXXXXXXXXXXXXXXXXXXXXXXXXXXXXXXXXXXX3bY^^^^^^^^^^^^^^^Lx:XXXXXXXXXXXXXXXXXXXXXXXXXXXXXX k^",
"^k XXXXXXXXXXXXXXXXXXXXXXXXXXXXXXXXXXXXXXXXX<Z^^^^^^^^^^^^^^^^^^^^!C4XXXXXXXXXXXXXXXXXXXXXXXXXXXX k^",
"^k XXXXXXXXXXXXXXXXXXXXXXXXXXXXXXXXXXXXXXXoc!^^^^^^^^^^^^^^^^^^^^^^^WXXXXXXXXXXXXXXXXXXXXXXXXXXXX k^",
"^k XXXXXXXXXXXXXXXXXXXXXXXXXXXXXXXXXXXXXX*D^^^^^^^^^^^^^^^^^^^^^^^^^QXXXXXXXXXXXXXXXXXXXXXXXXXXXX k^",
"^k XXXXXXXXXXXXXXXXXXXXXXXXXXXXXXXXXXXXX3U^^^^^^^^^^^^^^^^^^^^^^^^^^QXXXXXXXXXXXXXXXXXXXXXXXXXXXX k^",
"^k XXXXXXXXXXXXXXXXXXXXXXXXXXXXXXXXXXXX:Y^^^^^^^^^^Lnaq66wamJ~^^^^^^QXXXXXXXXXXXXXXXXXXXXXXXXXXXX k^",
"^k XXXXXXXXXXXXXXXXXXXXXXXXXXXXXXXXXXX$P^^^^^^^^^V3XXXXXXXXXX-gP^^^^QXXXXXXXXXXXXXXXXXXXXXXXXXXXX k^",
"^k XXXXXXXXXXXXXXXXXXXXXXXXXXXXXXXXXXXZ^^^^^^^^P7XXXXXXXXXXXXXXXtP^^QXXXXXXXXXXXXXXXXXXXXXXXXXXXX k^",
"^k XXXXXXXXXXXXXXXXXXXXXXXXXXXXXXXXXXy^^^^^^^^F$XXXXXXXXXXXXXXXXXol!QXXXXXXXXXXXXXXXXXXXXXXXXXXXX k^",
"^k XXXXXXXXXXXXXXXXXXXXXXXXXXXXXXXXX=E^^^^^^^K@XXXXXXXXXXXXXXXXXXXX8PXXXXXXXXXXXXXXXXXXXXXXXXXXXX k^",
"^k XXXXXXXXXXXXXXXXXXXXXXXXXXXXXXXXXn^^^^^^^W<XXXXXXXXXXXXXXXXXXXXXX$XXXXXXXXXXXXXXXXXXXXXXXXXXXX k^",
"^k XXXXXXXXXXXXXXXXXXXXXXXXXXXXXXXX*Q^^^^^^^dXXXXXXXXXXXXXXXXXXXXXXXXXXXXXXXXXXXXXXXXXXXXXXXXXXXX k^",
"^k XXXXXXXXXXXXXXXXXXXXXXXXXXXXXXXXv^^^^^^^PXXXXXXXXXXXXXXXXXXXXXXXXXXXXXXXXXXXXXXXXXXXXXXXXXXXXX k^",
"^k XXXXXXXXXXXXXXXXXXXXXXXXXXXXXXXXE^^^^^^^iXXXXXXXXXXXXXXXXXXXXXXXXXXXXXXXXXXXXXXXXXXXXXXXXXXXXX k^",
"^k XXXXXXXXXXXXXXXXXXXXXXXXXXXXXXXr^^^^^^^ROXXXXXXXXXXXXXXXXXXXXXXXXXXXXXXXXXXXXXXXXXXXXXXXXXXXXX k^",
"^k XXXXXXXXXXXXXXXXXXXXXXXXXXXXXXXC^^^^^^^BXXXXXXXXXXXXXXXXXXXXXXXXXXXXXXXXXXXXXXXXXXXXXXXXXXXXXX k^",
"^k XXXXXXXXXXXXXXXXXXXXXXXXXXXXXXoW^^^^^^^eXXXXXXXXXXXXXXXXXXXXXXXXXXXXXXXXXXXXXXXXXXXXXXXXXXXXXX k^",
"^k XXXXXXXXXXXXXXXXXXXXXXXXXXXXXX8^^^^^^^!OXXXXXXXXXXXXXXXXXXXXXXXXXXXXXXXXXXXXXXXXXXXXXXXXXXXXXX k^",
"^k XXXXXXXXXXXXXXXXXXXXXXXXXXXXXXj^^^^^^^HXXXXXXXXXXXXXXXXXXXXXXXXXXXXXXXXXXXXXXXXXXXXXXXXXXXXXXX k^",
"^k XXXXXXXXXXXXXXXXXXXXXXXXXXXXXXZ^^^^^^^MXXXXXXXXXXXXXXXXXXXXXXXXXXXXXXXXXXXXXXXXXXXXXXXXXXXXXXX k^",
"^k XXXXXXXXXXXXXXXXXXXXXXXXXXXXXXU^^^^^^^aXXXXXXXXXXXXXXXXXXXXXXXXXXXXXXXXXXXXXXXXXXXXXXXXXXXXXXX k^",
"^k XXXXXXXXXXXXXXXXXXXXXXXXXXXXXX~^^^^^^^0XXXXXXXXXXXXXXXXXXXXXXXXXXXXXXXXXXXXXXXXXXXXXXXXXXXXXXX k^",
"^k XXXXXXXXXXXXXXXXXXXXXXXXXXXXX2^^^^^^^^-XXXXXXXXXXXXXXXXXXXXXXXXXXXXXXXXXXXXXXXXXXXXXXXXXXXXXXX k^",
"^k XXXXXXXXXXXXXXXXXXXXXXXXXXXXXe^^^^^^^!XXXXXXXXXXXXXXXXXXXXXXXXXXXXXXXXXXXXXXXXXXXXXXXXXXXXXXXX k^",
"^k XXXXXXXXXXXXXXXXXXXXXXXXXXXXXf^^^^^^^TXXXXXXXXXXXXXXXXXXXXXXXXXXXXXXXXXXXXXXXXXXXXXXXXXXXXXXXX k^",
"^k XXXXXXXXXXXXXXXXXXXXXXXXXXXXXl^^^^^^^UXXXXXXXXXXXXXXXXXXXXXXXXXXXXXXXXXXXXXXXXXXXXXXXXXXXXXXXX k^",
"^k XXXXXXXXXXXXXXXXXXXXXXXXXXXXXv^^^^^^^KXXXXXXXXXXXXXXXXXXXXXXXXXXXXXXXXXXXXXXXXXXXXXXXXXXXXXXXX k^",
"^k XXXXXXXXXXXXXXXXXXXXXXXXXXXXXm^^^^^^^JXXXXXXXXXXXXXXXXXXXXXXXXXXXXXXXXXXXXXXXXXXXXXXXXXXXXXXXX k^",
"^k XXXXXXXXXXXXXXXXXXXXXXXXXXXXXB^^^^^^^FXXXXXXXXXXXXXXXXXXXXXXXXXXXXXXXXXXXXXXXXXXXXXXXXXXXXXXXX k^",
"^k XXXXXXXXXXXXXXXXXXXXXXXXXXXXXV^^^^^^^FXXXXXXXXXXXXXXXXXXXXXXXXXXXXXXXXXXXXXXXXXXXXXXXXXXXXXXXX k^",
"^k XXXXXXXXXXXXXXXXXXXXXXXXXXXXXV^^^^^^^FXXXXXXXXXXXXXXXXXXXXXXXXXXXXXXXXXXXXXXXXXXXXXXXXXXXXXXXX k^",
"^k XXXXXXXXXXXXXXXXXXXXXXXXXXXXXN^^^^^^^JXXXXXXXXXXXXXXXXXXXXXXXXXXXXXXXXXXXXXXXXXXXXXXXXXXXXXXXX k^",
"^k XXXXXXXXXXXXXXXXXXXXXXXXXXXXXm^^^^^^^KXXXXXXXXXXXXXXXXXXXXXXXXXXXXXXXXXXXXXXXXXXXXXXXXXXXXXXXX k^",
"^k XXXXXXXXXXXXXXXXXXXXXXXXXXXXXx^^^^^^^IXXXXXXXXXXXXXXXXXXXXXXXXXXXXXXXXXXXXXXXXXXXXXXXXXXXXXXXX k^",
"^k XXXXXXXXXXXXXXXXXXXXXXXXXXXXXf^^^^^^^TXXXXXXXXXXXXXXXXXXXXXXXXXXXXXXXXXXXXXXXXXXXXXXXXXXXXXXXX k^",
"^k XXXXXXXXXXXXXXXXXXXXXXXXXXXXXy^^^^^^^!XXXXXXXXXXXXXXXXXXXXXXXXXXXXXXXXXXXXXXXXXXXXXXXXXXXXXXXX k^",
"^k XXXXXXXXXXXXXXXXXXXXXXXXXXXXX8^^^^^^^^;XXXXXXXXXXXXXXXXXXXXXXXXXXXXXXXXXXXXXXXXXXXXXXXXXXXXXXX k^",
"^k XXXXXXXXXXXXXXXXXXXXXXXXXXXXX+^^^^^^^^qXXXXXXXXXXXXXXXXXXXXXXXXXXXXXXXXXXXXXXXXXXXXXXXXXXXXXXX k^",
"^k XXXXXXXXXXXXXXXXXXXXXXXXXXXXXXY^^^^^^^dXXXXXXXXXXXXXXXXXXXXXXXXXXXXXXXXXXXXXXXXXXXXXXXXXXXXXXX k^",
"^k XXXXXXXXXXXXXXXXXXXXXXXXXXXXXXF^^^^^^^MXXXXXXXXXXXXXXXXXXXXXXXXXXXXXXXXXXXXXXXXXXXXXXXXXXXXXXX k^",
"^k XXXXXXXXXXXXXXXXXXXXXXXXXXXXXXv^^^^^^^JXXXXXXXXXXXXXXXXXXXXXXXXXXXXXXXXXXXXXXXXXXXXXXXXXXXXXXX k^",
"^k XXXXXXXXXXXXXXXXXXXXXXXXXXXXXXr^^^^^^^!OXXXXXXXXXXXXXXXXXXXXXXXXXXXXXXXXXXXXXXXXXXXXXXXXXXXXXX k^",
"^k XXXXXXXXXXXXXXXXXXXXXXXXXXXXXX+!^^^^^^^eXXXXXXXXXXXXXXXXXXXXXXXXXXXXXXXXXXXXXXXXXXXXXXXXXXXXXX k^",
"^k XXXXXXXXXXXXXXXXXXXXXXXXXXXXXXXS^^^^^^^VXXXXXXXXXXXXXXXXXXXXXXXXXXXXXXXXXXXXXXXXXXXXXXXXXXXXXX k^",
"^k XXXXXXXXXXXXXXXXXXXXXXXXXXXXXXXf^^^^^^^EOXXXXXXXXXXXXXXXXXXXXXXXXXXXXXXXXXXXXXXXXXXXXXXXXXXXXX k^",
"^k XXXXXXXXXXXXXXXXXXXXXXXXXXXXXXX%!^^^^^^^aXXXXXXXXXXXXXXXXXXXXXXXXXXXXXXXXXXXXXXXXXXXXXXXXXXXXX k^",
"^k XXXXXXXXXXXXXXXXXXXXXXXXXXXXXXXXV^^^^^^^PXXXXXXXXXXXXXXXXXXXXXXXXXXXXXXXXXXXXXXXXXXXXXXXXXXXXX k^",
"^k XXXXXXXXXXXXXXXXXXXXXXXXXXXXXXXX5^^^^^^^^gXXXXXXXXXXXXXXXXXXXXXXXXXXXXXXXXXXXXXXXXXXXXXXXXXXXX k^",
"^k XXXXXXXXXXXXXXXXXXXXXXXXXXXXXXXXXZ^^^^^^^Q2XXXXXXXXXXXXXXXXXXXXXXoXXXXXXXXXXXXXXXXXXXXXXXXXXXX k^",
"^k XXXXXXXXXXXXXXXXXXXXXXXXXXXXXXXXX2!^^^^^^^L#XXXXXXXXXXXXXXXXXXXX<SXXXXXXXXXXXXXXXXXXXXXXXXXXXX k^",
"^k XXXXXXXXXXXXXXXXXXXXXXXXXXXXXXXXXXz^^^^^^^^G&XXXXXXXXXXXXXXXXXXiWQXXXXXXXXXXXXXXXXXXXXXXXXXXXX k^",
"^k XXXXXXXXXXXXXXXXXXXXXXXXXXXXXXXXXXoJ^^^^^^^^U8XXXXXXXXXXXXXXX8F^^QXXXXXXXXXXXXXXXXXXXXXXXXXXXX k^",
"^k XXXXXXXXXXXXXXXXXXXXXXXXXXXXXXXXXXX1E^^^^^^^^^V4XXXXXXXXXX+uF^^^^QXXXXXXXXXXXXXXXXXXXXXXXXXXXX k^",
"^k XXXXXXXXXXXXXXXXXXXXXXXXXXXXXXXXXXXX9!^^^^^^^^^^Lmaw65qivF!^^^^^^QXXXXXXXXXXXXXXXXXXXXXXXXXXXX k^",
"^k XXXXXXXXXXXXXXXXXXXXXXXXXXXXXXXXXXXXXwW^^^^^^^^^^^^^^^^^^^^^^^^^^QXXXXXXXXXXXXXXXXXXXXXXXXXXXX k^",
"^k XXXXXXXXXXXXXXXXXXXXXXXXXXXXXXXXXXXXXX6U^^^^^^^^^^^^^^^^^^^^^^^^^QXXXXXXXXXXXXXXXXXXXXXXXXXXXX k^",
"^k XXXXXXXXXXXXXXXXXXXXXXXXXXXXXXXXXXXXXXX$C^^^^^^^^^^^^^^^^^^^^^^^^QXXXXXXXXXXXXXXXXXXXXXXXXXXXX k^",
"^k XXXXXXXXXXXXXXXXXXXXXXXXXXXXXXXXXXXXXXXXXqH^^^^^^^^^^^^^^^^^^^^~ZqXXXXXXXXXXXXXXXXXXXXXXXXXXXX k^",
"^k XXXXXXXXXXXXXXXXXXXXXXXXXXXXXXXXXXXXXXXXXXX0CW^^^^^^^^^^^^^^^Jz>XXXXXXXXXXXXXXXXXXXXXXXXXXXXXX k^",
"^k XXXXXXXXXXXXXXXXXXXXXXXXXXXXXXXXXXXXXXXXXXXXXoqxAPE!^^QEUSbp-XXXXXXXXXXXXXXXXXXXXXXXXXXXXXXXXX k^",
"^k XXXXXXXXXXXXXXXXXXXXXXXXXXXXXXXXXXXXXXXXXXXXXXXXXXXXXXXXXXXXXXXXXXXXXXXXXXXXXXXXXXXXXXXXXXXXXX k^",
"^k XXXXXXXXXXXXXXXXXXXXXXXXXXXXXXXXXXXXXXXXXXXXXXXXXXXXXXXXXXXXXXXXXXXXXXXXXXXXXXXXXXXXXXXXXXXXXX k^",
"^k XXXXXXXXXXXXXXXXXXXXXXXXXXXXXXXXXXXXXXXXXXXXXXXXXXXXXXXXXXXXXXXXXXXXXXXXXXXXXXXXXXXXXXXXXXXXXX k^",
"^k XXXXXXXXXXXXXXXXXXXXXXXXXXXXXXXXXXXXXXXXXXXXXXXXXXXXXXXXXXXXXXXXXXXXXXXXXXXXXXXXXXXXXXXXXXXXXX k^",
"^k XXXXXXXXXXXXXXXXXXXXXXXXXXXXXXXXXXXXXXXXXXXXXXXXXXXXXXXXXXXXXXXXXXXXXXXXXXXXXXXXXXXXXXXXXXXXXX k^",
"^k XXXXXXXXXXXXXXXXXXXXXXXXXXXXXXXXXXXXXXXXXXXXXXXXXXXXXXXXXXXXXXXXXXXXXXXXXXXXXXXXXXXXXXXXXXXXXX k^",
"^k XXXXXXXXXXXXXXXXXXXXXXXXXXXXXXXXXXXXXXXXXXXXXXXXXXXXXXXXXXXXXXXXXXXXXXXXXXXXXXXXXXXXXXXXXXXXXX k^",
"^k XXXXXXXXXXXXXXXXXXXXXXXXXXXXXXXXXXXXXXXXXXXXXXXXXXXXXXXXXXXXXXXXXXXXXXXXXXXXXXXXXXXXXXXXXXXXXX k^",
"^k XXXXXXXXXXXXXXXXXXXXXXXXXXXXXXXXXXXXXXXXXXXXXXXXXXXXXXXXXXXXXXXXXXXXXXXXXXXXXXXXXXXXXXXXXXXXXX k^",
"^k XXXXXXXXXXXXXXXXXXXXXXXXXXXXXXXXXXXXXXXXXXXXXXXXXXXXXXXXXXXXXXXXXXXXXXXXXXXXXXXXXXXXXXXXXXXXXX k^",
"^k XXXXXXXXXXXXXXXXXXXXXXXXXXXXXXXXXXXXXXXXXXXXXXXXXXXXXXXXXXXXXXXXXXXXXXXXXXXXXXXXXXXXXXXXXXXXXX k^",
"^k XXXXXXXXXXXXXXXXXXXXXXXXXXXXXXXXXXXXXXXXXXXXXXXXXXXXXXXXXXXXXXXXXXXXXXXXXXXXXXXXXXXXXXXXXXXXXX k^",
"^k XXXXXXXXXXXXXXXXXXXXXXXXXXXXXXXXXXXXXXXXXXXXXXXXXXXXXXXXXXXXXXXXXXXXXXXXXXXXXXXXXXXXXXXXXXXXXX k^",
"^k XXXXXXXXXXXXXXXXXXXXXXXXXXXXXXXXXXXXXXXXXXXXXXXXXXXXXXXXXXXXXXXXXXXXXXXXXXXXXXXXXXXXXXXXXXXXXX k^",
"^k XXXXXXXXXXXXXXXXXXXXXXXXXXXXXXXXXXXXXXXXXXXXXXXXXXXXXXXXXXXXXXXXXXXXXXXXXXXXXXXXXXXXXXXXXXXXXX k^",
"^k XXXXXXXXXXXXXXXXXXXXXXXXXXXXXXXXXXXXXXXXXXXXXXXXXXXXXXXXXXXXXXXXXXXXXXXXXXXXXXXXXXXXXXXXXXXXXX k^",
"^k.XXXXXXXXXXXXXXXXXXXXXXXXXXXXXXXXXXXXXXXXXXXXXXXXXXXXXXXXXXXXXXXXXXXXXXXXXXXXXXXXXXXXXXXXXXXXXX k^",
"^k                                                                                                k^",
"^skkkkkkkkkkkkkkkkkkkkkkkkkkkkkkkkkkkkkkkkkkkkkkkkkkkkkkkkkkkkkkkkkkkkkkkkkkkkkkkkkkkkkkkkkkkkkkkks^",
"^^^^^^^^^^^^^^^^^^^^^^^^^^^^^^^^^^^^^^^^^^^^^^^^^^^^^^^^^^^^^^^^^^^^^^^^^^^^^^^^^^^^^^^^^^^^^^^^^^^^"
};
