/* XPM */
static char *c2[] = {
/* columns rows colors chars-per-pixel */
"100 100 75 1 ",
"  c #686868",
". c #7C7C7C",
"X c #C3AF2A",
"o c #C3AF2E",
"O c #C4B031",
"+ c #C4B13A",
"@ c #C5B13D",
"# c #C5B242",
"$ c #C6B344",
"% c #C6B348",
"& c #C6B44A",
"* c #C7B44C",
"= c #C7B550",
"- c #C8B757",
"; c #C9B75B",
": c #C9B85E",
"> c #CAB962",
", c #CABA64",
"< c #CBBB68",
"1 c #CDBD6E",
"2 c #CDBD71",
"3 c #CEBF75",
"4 c #CFC079",
"5 c #D0C17B",
"6 c #D0C27F",
"7 c #AFAFAF",
"8 c gray70",
"9 c #D1C382",
"0 c #D2C587",
"q c #D3C68B",
"w c #D4C78E",
"e c #D5C890",
"r c #D6CA95",
"t c #D7CB98",
"y c #D7CC99",
"u c #D8CC9B",
"i c #D9CE9E",
"p c #DACFA2",
"a c #DAD0A3",
"s c #DBD1A6",
"d c #DCD2A9",
"f c #DED5AE",
"g c #DFD6B0",
"h c #E0D7B3",
"j c #E1D8B5",
"k c #E3DBBB",
"l c #E3DBBC",
"z c #E3DCBD",
"x c #E4DCBE",
"c c #E6DFC3",
"v c #E6DFC4",
"b c #E7E0C6",
"n c #E7E1C8",
"m c #E8E1C9",
"M c #E9E3CC",
"N c #EAE4CD",
"B c #ECE7D4",
"V c #EDE8D6",
"C c #EEE9D8",
"Z c #EFEBDC",
"A c #F0EBDC",
"S c #F1EDDF",
"D c #F2EFE3",
"F c #F3F0E5",
"G c #F4F1E6",
"H c #F5F3EA",
"J c #F6F4EB",
"K c #F7F5ED",
"L c #F8F6EF",
"P c #F9F7F1",
"I c #FAF8F3",
"U c #FAF9F4",
"Y c #FCFBF8",
"T c #FDFDFB",
"R c white",
/* pixels */
"RRRRRRRRRRRRRRRRRRRRRRRRRRRRRRRRRRRRRRRRRRRRRRRRRRRRRRRRRRRRRRRRRRRRRRRRRRRRRRRRRRRRRRRRRRRRRRRRRRRR",
"R78888888888888888888888888888888888888888888888888888888888888888888888888888888888888888888888887R",
"R8                                                                                                8R",
"R8 XXXXXXXXXXXXXXXXXXXXXXXXXXXXXXXXXXXXXXXXXXXXXXXXXXXXXXXXXXXXXXXXXXXXXXXXXXXXXXXXXXXXXXXXXXXXXX 8R",
"R8 XXXXXXXXXXXXXXXXXXXXXXXXXXXXXXXXXXXXXXXXXXXXXXXXXXXXXXXXXXXXXXXXXXXXXXXXXXXXXXXXXXXXXXXXXXXXXX 8R",
"R8 XXXXXXXXXXXXXXXXXXXXXXXXXXXXXXXXXXXXXXXXXXXXXXXXXXXXXXXXXXXXXXXXXXXXXXXXXXXXXXXXXXXXXXXXXXXXXX 8R",
"R8 XXXXXXXXXXXXXXXXXXXXXXXXXXXXXXXXXXXXXXXXXXXXXXXXXXXXXXXXXXXXXXXXXXXXXXXXXXXXXXXXXXXXXXXXXXXXXX 8R",
"R8 XXXXXXXXXXXXXXXXXXXXXXXXXXXXXXXXXXXXXXXXXXXXXXXXXXXXXXXXXXXXXXXXXXXXXXXXXXXXXXXXXXXXXXXXXXXXXX 8R",
"R8 XXXXXXXXXXXXXXXXXXXXXXXXXXXXXXXXXXXXXXXXXXXXXXXXXXXXXXXXXXXXXXXXXXXXXXXXXXXXXXXXXXXXXXXXXXXXXX 8R",
"R8 XXXXXXXXXXXXXXXXXXXXXXXXXXXXXXXXXXXXXXXXXXXXXXXXXXXXXXXXXXXXXXXXXXXXXXXXXXXXXXXXXXXXXXXXXXXXXX 8R",
"R8 XXXXXXXXXXXXXXXXXXXXXXXXXXXXXXXXXXXXXXXXXXXXXXXXXXXXXXXXXXXXXXXXXXXXXXXXXXXXXXXXXXXXXXXXXXXXXX 8R",
"R8 XXXXXXXXXXXXXXXXXXXXXXXXXXXXXXXXXXXXXXXXXXXXXXXXXXXXXXXXXXXXXXXXXXXXXXXXXXXXXXXXXXXXXXXXXXXXXX 8R",
"R8 XXXXXXXXXXXXXXXXXXXXXXXXXXXXXXXXXXXXXXXXXXXXXXXXXXXXXXXXXXXXXXXXXXXXXXXXXXXXXXXXXXXXXXXXXXXXXX 8R",
"R8 XXXXXXXXXXXXXXXXXXXXXXXXXXXXXXXXXXXXXXXXXXXXXXXXXXXXXXXXXXXXXXXXXXXXXXXXXXXXXXXXXXXXXXXXXXXXXX 8R",
"R8 XXXXXXXXXXXXXXXXXXXXXXXXXXXXXXXXXXXXXXXXXXXXXXXXXXXXXXXXXXXXXXXXXXXXXXXXXXXXXXXXXXXXXXXXXXXXXX 8R",
"R8 XXXXXXXXXXXXXXXXXXXXXXXXXXXXXXXXXXXXXXXXXXXXXXXXXXXXXXXXXXXXXXXXXXXXXXXXXXXXXXXXXXXXXXXXXXXXXX 8R",
"R8 XXXXXXXXXXXXXXXXXXXXXXXXXXXXXXXXXXXXXXXXXXXXXXXXXXXXXXXXXXXXXXXXXXXXXXXXXXXXXXXXXXXXXXXXXXXXXX 8R",
"R8 XXXXXXXXXXXXXXXXXXXXXXXXXXXXXXXXXXXXXXXXXXXXXXXXXXXXXXXXXXXXXXXXXXXXXXXXXXXXXXXXXXXXXXXXXXXXXX 8R",
"R8 XXXXXXXXXXXXXXXXXXXXXXXXXXXXXXXXXXXXXXXXXXXXXXXXXXXXXXXXXXXXXXXXXXXXXXXXXXXXXXXXXXXXXXXXXXXXXX 8R",
"R8 XXXXXXXXXXXXXXXXXXXXXXXXXXXXXXXXXXXXXXXXXXXXXX3smDKURRUPHVzi-XXXXXXXXXXXXXXXXXXXXXXXXXXXXXXXXX 8R",
"R8 XXXXXXXXXXXXXXXXXXXXXXXXXXXXXXXXXXXXXXXXXXX>kKRRRRRRRRRRRRRRRDh-XXXXXXXXXXXXXXXXXXXXXXXXXXXXXX 8R",
"R8 XXXXXXXXXXXXXXXXXXXXXXXXXXXXXXXXXXXXXXXXX;MRRRRRRRRRRRRRRRRRRRRTn<XXXXXXXXXXXXXXXXXXXXXXXXXXXX 8R",
"R8 XXXXXXXXXXXXXXXXXXXXXXXXXXXXXXXXXXXXXXXohYRRRRRRRRRRRRRRRRRRRRRRRUXXXXXXXXXXXXXXXXXXXXXXXXXXXX 8R",
"R8 XXXXXXXXXXXXXXXXXXXXXXXXXXXXXXXXXXXXXX%VRRRRRRRRRRRRRRRRRRRRRRRRRUXXXXXXXXXXXXXXXXXXXXXXXXXXXX 8R",
"R8 XXXXXXXXXXXXXXXXXXXXXXXXXXXXXXXXXXXXX,HRRRRRRRRRRRRRRRRRRRRRRRRRRUXXXXXXXXXXXXXXXXXXXXXXXXXXXX 8R",
"R8 XXXXXXXXXXXXXXXXXXXXXXXXXXXXXXXXXXXX-KRRRRRRRRRRDku6116ikSTRRRRRRUXXXXXXXXXXXXXXXXXXXXXXXXXXXX 8R",
"R8 XXXXXXXXXXXXXXXXXXXXXXXXXXXXXXXXXXX#DRRRRRRRRRc,XXXXXXXXXX*sFRRRRUXXXXXXXXXXXXXXXXXXXXXXXXXXXX 8R",
"R8 XXXXXXXXXXXXXXXXXXXXXXXXXXXXXXXXXXXMRRRRRRRRG2XXXXXXXXXXXXXXXqGRRUXXXXXXXXXXXXXXXXXXXXXXXXXXXX 8R",
"R8 XXXXXXXXXXXXXXXXXXXXXXXXXXXXXXXXXXeRRRRRRRRC#XXXXXXXXXXXXXXXXXofTUXXXXXXXXXXXXXXXXXXXXXXXXXXXX 8R",
"R8 XXXXXXXXXXXXXXXXXXXXXXXXXXXXXXXXX&PRRRRRRRD@XXXXXXXXXXXXXXXXXXXX2DXXXXXXXXXXXXXXXXXXXXXXXXXXXX 8R",
"R8 XXXXXXXXXXXXXXXXXXXXXXXXXXXXXXXXXkRRRRRRRU;XXXXXXXXXXXXXXXXXXXXXX#XXXXXXXXXXXXXXXXXXXXXXXXXXXX 8R",
"R8 XXXXXXXXXXXXXXXXXXXXXXXXXXXXXXXX%URRRRRRRiXXXXXXXXXXXXXXXXXXXXXXXXXXXXXXXXXXXXXXXXXXXXXXXXXXXX 8R",
"R8 XXXXXXXXXXXXXXXXXXXXXXXXXXXXXXXXjRRRRRRRFXXXXXXXXXXXXXXXXXXXXXXXXXXXXXXXXXXXXXXXXXXXXXXXXXXXXX 8R",
"R8 XXXXXXXXXXXXXXXXXXXXXXXXXXXXXXXXPRRRRRRRyXXXXXXXXXXXXXXXXXXXXXXXXXXXXXXXXXXXXXXXXXXXXXXXXXXXXX 8R",
"R8 XXXXXXXXXXXXXXXXXXXXXXXXXXXXXXX0RRRRRRRPOXXXXXXXXXXXXXXXXXXXXXXXXXXXXXXXXXXXXXXXXXXXXXXXXXXXXX 8R",
"R8 XXXXXXXXXXXXXXXXXXXXXXXXXXXXXXXmRRRRRRRcXXXXXXXXXXXXXXXXXXXXXXXXXXXXXXXXXXXXXXXXXXXXXXXXXXXXXX 8R",
"R8 XXXXXXXXXXXXXXXXXXXXXXXXXXXXXXoURRRRRRR9XXXXXXXXXXXXXXXXXXXXXXXXXXXXXXXXXXXXXXXXXXXXXXXXXXXXXX 8R",
"R8 XXXXXXXXXXXXXXXXXXXXXXXXXXXXXX3RRRRRRRYOXXXXXXXXXXXXXXXXXXXXXXXXXXXXXXXXXXXXXXXXXXXXXXXXXXXXXX 8R",
"R8 XXXXXXXXXXXXXXXXXXXXXXXXXXXXXXdRRRRRRRZXXXXXXXXXXXXXXXXXXXXXXXXXXXXXXXXXXXXXXXXXXXXXXXXXXXXXXX 8R",
"R8 XXXXXXXXXXXXXXXXXXXXXXXXXXXXXXNRRRRRRRxXXXXXXXXXXXXXXXXXXXXXXXXXXXXXXXXXXXXXXXXXXXXXXXXXXXXXXX 8R",
"R8 XXXXXXXXXXXXXXXXXXXXXXXXXXXXXXHRRRRRRRiXXXXXXXXXXXXXXXXXXXXXXXXXXXXXXXXXXXXXXXXXXXXXXXXXXXXXXX 8R",
"R8 XXXXXXXXXXXXXXXXXXXXXXXXXXXXXXTRRRRRRR4XXXXXXXXXXXXXXXXXXXXXXXXXXXXXXXXXXXXXXXXXXXXXXXXXXXXXXX 8R",
"R8 XXXXXXXXXXXXXXXXXXXXXXXXXXXXX:RRRRRRRR*XXXXXXXXXXXXXXXXXXXXXXXXXXXXXXXXXXXXXXXXXXXXXXXXXXXXXXX 8R",
"R8 XXXXXXXXXXXXXXXXXXXXXXXXXXXXX0RRRRRRRYXXXXXXXXXXXXXXXXXXXXXXXXXXXXXXXXXXXXXXXXXXXXXXXXXXXXXXXX 8R",
"R8 XXXXXXXXXXXXXXXXXXXXXXXXXXXXXiRRRRRRRLXXXXXXXXXXXXXXXXXXXXXXXXXXXXXXXXXXXXXXXXXXXXXXXXXXXXXXXX 8R",
"R8 XXXXXXXXXXXXXXXXXXXXXXXXXXXXXfRRRRRRRHXXXXXXXXXXXXXXXXXXXXXXXXXXXXXXXXXXXXXXXXXXXXXXXXXXXXXXXX 8R",
"R8 XXXXXXXXXXXXXXXXXXXXXXXXXXXXXjRRRRRRRDXXXXXXXXXXXXXXXXXXXXXXXXXXXXXXXXXXXXXXXXXXXXXXXXXXXXXXXX 8R",
"R8 XXXXXXXXXXXXXXXXXXXXXXXXXXXXXkRRRRRRRAXXXXXXXXXXXXXXXXXXXXXXXXXXXXXXXXXXXXXXXXXXXXXXXXXXXXXXXX 8R",
"R8 XXXXXXXXXXXXXXXXXXXXXXXXXXXXXcRRRRRRRCXXXXXXXXXXXXXXXXXXXXXXXXXXXXXXXXXXXXXXXXXXXXXXXXXXXXXXXX 8R",
"R8 XXXXXXXXXXXXXXXXXXXXXXXXXXXXXbRRRRRRRCXXXXXXXXXXXXXXXXXXXXXXXXXXXXXXXXXXXXXXXXXXXXXXXXXXXXXXXX 8R",
"R8 XXXXXXXXXXXXXXXXXXXXXXXXXXXXXvRRRRRRRCXXXXXXXXXXXXXXXXXXXXXXXXXXXXXXXXXXXXXXXXXXXXXXXXXXXXXXXX 8R",
"R8 XXXXXXXXXXXXXXXXXXXXXXXXXXXXXcRRRRRRRAXXXXXXXXXXXXXXXXXXXXXXXXXXXXXXXXXXXXXXXXXXXXXXXXXXXXXXXX 8R",
"R8 XXXXXXXXXXXXXXXXXXXXXXXXXXXXXkRRRRRRRDXXXXXXXXXXXXXXXXXXXXXXXXXXXXXXXXXXXXXXXXXXXXXXXXXXXXXXXX 8R",
"R8 XXXXXXXXXXXXXXXXXXXXXXXXXXXXXhRRRRRRRGXXXXXXXXXXXXXXXXXXXXXXXXXXXXXXXXXXXXXXXXXXXXXXXXXXXXXXXX 8R",
"R8 XXXXXXXXXXXXXXXXXXXXXXXXXXXXXpRRRRRRRLXXXXXXXXXXXXXXXXXXXXXXXXXXXXXXXXXXXXXXXXXXXXXXXXXXXXXXXX 8R",
"R8 XXXXXXXXXXXXXXXXXXXXXXXXXXXXXwRRRRRRRYXXXXXXXXXXXXXXXXXXXXXXXXXXXXXXXXXXXXXXXXXXXXXXXXXXXXXXXX 8R",
"R8 XXXXXXXXXXXXXXXXXXXXXXXXXXXXX2RRRRRRRR=XXXXXXXXXXXXXXXXXXXXXXXXXXXXXXXXXXXXXXXXXXXXXXXXXXXXXXX 8R",
"R8 XXXXXXXXXXXXXXXXXXXXXXXXXXXXX+RRRRRRRR4XXXXXXXXXXXXXXXXXXXXXXXXXXXXXXXXXXXXXXXXXXXXXXXXXXXXXXX 8R",
"R8 XXXXXXXXXXXXXXXXXXXXXXXXXXXXXXKRRRRRRRiXXXXXXXXXXXXXXXXXXXXXXXXXXXXXXXXXXXXXXXXXXXXXXXXXXXXXXX 8R",
"R8 XXXXXXXXXXXXXXXXXXXXXXXXXXXXXXCRRRRRRRxXXXXXXXXXXXXXXXXXXXXXXXXXXXXXXXXXXXXXXXXXXXXXXXXXXXXXXX 8R",
"R8 XXXXXXXXXXXXXXXXXXXXXXXXXXXXXXjRRRRRRRAXXXXXXXXXXXXXXXXXXXXXXXXXXXXXXXXXXXXXXXXXXXXXXXXXXXXXXX 8R",
"R8 XXXXXXXXXXXXXXXXXXXXXXXXXXXXXX0RRRRRRRYOXXXXXXXXXXXXXXXXXXXXXXXXXXXXXXXXXXXXXXXXXXXXXXXXXXXXXX 8R",
"R8 XXXXXXXXXXXXXXXXXXXXXXXXXXXXXX+TRRRRRRR0XXXXXXXXXXXXXXXXXXXXXXXXXXXXXXXXXXXXXXXXXXXXXXXXXXXXXX 8R",
"R8 XXXXXXXXXXXXXXXXXXXXXXXXXXXXXXXVRRRRRRRvXXXXXXXXXXXXXXXXXXXXXXXXXXXXXXXXXXXXXXXXXXXXXXXXXXXXXX 8R",
"R8 XXXXXXXXXXXXXXXXXXXXXXXXXXXXXXXpRRRRRRRPOXXXXXXXXXXXXXXXXXXXXXXXXXXXXXXXXXXXXXXXXXXXXXXXXXXXXX 8R",
"R8 XXXXXXXXXXXXXXXXXXXXXXXXXXXXXXX$YRRRRRRRuXXXXXXXXXXXXXXXXXXXXXXXXXXXXXXXXXXXXXXXXXXXXXXXXXXXXX 8R",
"R8 XXXXXXXXXXXXXXXXXXXXXXXXXXXXXXXXbRRRRRRRGXXXXXXXXXXXXXXXXXXXXXXXXXXXXXXXXXXXXXXXXXXXXXXXXXXXXX 8R",
"R8 XXXXXXXXXXXXXXXXXXXXXXXXXXXXXXXX1RRRRRRRRaXXXXXXXXXXXXXXXXXXXXXXXXXXXXXXXXXXXXXXXXXXXXXXXXXXXX 8R",
"R8 XXXXXXXXXXXXXXXXXXXXXXXXXXXXXXXXXMRRRRRRRU:XXXXXXXXXXXXXXXXXXXXXXoXXXXXXXXXXXXXXXXXXXXXXXXXXXX 8R",
"R8 XXXXXXXXXXXXXXXXXXXXXXXXXXXXXXXXX:TRRRRRRRD@XXXXXXXXXXXXXXXXXXXX;VXXXXXXXXXXXXXXXXXXXXXXXXXXXX 8R",
"R8 XXXXXXXXXXXXXXXXXXXXXXXXXXXXXXXXXXgRRRRRRRRC$XXXXXXXXXXXXXXXXXXyIUXXXXXXXXXXXXXXXXXXXXXXXXXXXX 8R",
"R8 XXXXXXXXXXXXXXXXXXXXXXXXXXXXXXXXXXoSRRRRRRRRH3XXXXXXXXXXXXXXX3CRRUXXXXXXXXXXXXXXXXXXXXXXXXXXXX 8R",
"R8 XXXXXXXXXXXXXXXXXXXXXXXXXXXXXXXXXXX:PRRRRRRRRRb<XXXXXXXXXX+rCRRRRUXXXXXXXXXXXXXXXXXXXXXXXXXXXX 8R",
"R8 XXXXXXXXXXXXXXXXXXXXXXXXXXXXXXXXXXXX3YRRRRRRRRRRDlu6115tjCYRRRRRRUXXXXXXXXXXXXXXXXXXXXXXXXXXXX 8R",
"R8 XXXXXXXXXXXXXXXXXXXXXXXXXXXXXXXXXXXXX6URRRRRRRRRRRRRRRRRRRRRRRRRRUXXXXXXXXXXXXXXXXXXXXXXXXXXXX 8R",
"R8 XXXXXXXXXXXXXXXXXXXXXXXXXXXXXXXXXXXXXX1JRRRRRRRRRRRRRRRRRRRRRRRRRUXXXXXXXXXXXXXXXXXXXXXXXXXXXX 8R",
"R8 XXXXXXXXXXXXXXXXXXXXXXXXXXXXXXXXXXXXXXX#nRRRRRRRRRRRRRRRRRRRRRRRRUXXXXXXXXXXXXXXXXXXXXXXXXXXXX 8R",
"R8 XXXXXXXXXXXXXXXXXXXXXXXXXXXXXXXXXXXXXXXXX6ZRRRRRRRRRRRRRRRRRRRRTN5XXXXXXXXXXXXXXXXXXXXXXXXXXXX 8R",
"R8 XXXXXXXXXXXXXXXXXXXXXXXXXXXXXXXXXXXXXXXXXXX4bURRRRRRRRRRRRRRRSf-XXXXXXXXXXXXXXXXXXXXXXXXXXXXXX 8R",
"R8 XXXXXXXXXXXXXXXXXXXXXXXXXXXXXXXXXXXXXXXXXXXXXo5hNDPYRRUPHBku*XXXXXXXXXXXXXXXXXXXXXXXXXXXXXXXXX 8R",
"R8 XXXXXXXXXXXXXXXXXXXXXXXXXXXXXXXXXXXXXXXXXXXXXXXXXXXXXXXXXXXXXXXXXXXXXXXXXXXXXXXXXXXXXXXXXXXXXX 8R",
"R8 XXXXXXXXXXXXXXXXXXXXXXXXXXXXXXXXXXXXXXXXXXXXXXXXXXXXXXXXXXXXXXXXXXXXXXXXXXXXXXXXXXXXXXXXXXXXXX 8R",
"R8 XXXXXXXXXXXXXXXXXXXXXXXXXXXXXXXXXXXXXXXXXXXXXXXXXXXXXXXXXXXXXXXXXXXXXXXXXXXXXXXXXXXXXXXXXXXXXX 8R",
"R8 XXXXXXXXXXXXXXXXXXXXXXXXXXXXXXXXXXXXXXXXXXXXXXXXXXXXXXXXXXXXXXXXXXXXXXXXXXXXXXXXXXXXXXXXXXXXXX 8R",
"R8 XXXXXXXXXXXXXXXXXXXXXXXXXXXXXXXXXXXXXXXXXXXXXXXXXXXXXXXXXXXXXXXXXXXXXXXXXXXXXXXXXXXXXXXXXXXXXX 8R",
"R8 XXXXXXXXXXXXXXXXXXXXXXXXXXXXXXXXXXXXXXXXXXXXXXXXXXXXXXXXXXXXXXXXXXXXXXXXXXXXXXXXXXXXXXXXXXXXXX 8R",
"R8 XXXXXXXXXXXXXXXXXXXXXXXXXXXXXXXXXXXXXXXXXXXXXXXXXXXXXXXXXXXXXXXXXXXXXXXXXXXXXXXXXXXXXXXXXXXXXX 8R",
"R8 XXXXXXXXXXXXXXXXXXXXXXXXXXXXXXXXXXXXXXXXXXXXXXXXXXXXXXXXXXXXXXXXXXXXXXXXXXXXXXXXXXXXXXXXXXXXXX 8R",
"R8 XXXXXXXXXXXXXXXXXXXXXXXXXXXXXXXXXXXXXXXXXXXXXXXXXXXXXXXXXXXXXXXXXXXXXXXXXXXXXXXXXXXXXXXXXXXXXX 8R",
"R8 XXXXXXXXXXXXXXXXXXXXXXXXXXXXXXXXXXXXXXXXXXXXXXXXXXXXXXXXXXXXXXXXXXXXXXXXXXXXXXXXXXXXXXXXXXXXXX 8R",
"R8 XXXXXXXXXXXXXXXXXXXXXXXXXXXXXXXXXXXXXXXXXXXXXXXXXXXXXXXXXXXXXXXXXXXXXXXXXXXXXXXXXXXXXXXXXXXXXX 8R",
"R8 XXXXXXXXXXXXXXXXXXXXXXXXXXXXXXXXXXXXXXXXXXXXXXXXXXXXXXXXXXXXXXXXXXXXXXXXXXXXXXXXXXXXXXXXXXXXXX 8R",
"R8 XXXXXXXXXXXXXXXXXXXXXXXXXXXXXXXXXXXXXXXXXXXXXXXXXXXXXXXXXXXXXXXXXXXXXXXXXXXXXXXXXXXXXXXXXXXXXX 8R",
"R8 XXXXXXXXXXXXXXXXXXXXXXXXXXXXXXXXXXXXXXXXXXXXXXXXXXXXXXXXXXXXXXXXXXXXXXXXXXXXXXXXXXXXXXXXXXXXXX 8R",
"R8 XXXXXXXXXXXXXXXXXXXXXXXXXXXXXXXXXXXXXXXXXXXXXXXXXXXXXXXXXXXXXXXXXXXXXXXXXXXXXXXXXXXXXXXXXXXXXX 8R",
"R8 XXXXXXXXXXXXXXXXXXXXXXXXXXXXXXXXXXXXXXXXXXXXXXXXXXXXXXXXXXXXXXXXXXXXXXXXXXXXXXXXXXXXXXXXXXXXXX 8R",
"R8.XXXXXXXXXXXXXXXXXXXXXXXXXXXXXXXXXXXXXXXXXXXXXXXXXXXXXXXXXXXXXXXXXXXXXXXXXXXXXXXXXXXXXXXXXXXXXX 8R",
"R8                                                                                                8R",
"R78888888888888888888888888888888888888888888888888888888888888888888888888888888888888888888888887R",
"RRRRRRRRRRRRRRRRRRRRRRRRRRRRRRRRRRRRRRRRRRRRRRRRRRRRRRRRRRRRRRRRRRRRRRRRRRRRRRRRRRRRRRRRRRRRRRRRRRRR"
};
