/* XPM */
static char *c3[] = {
/* columns rows colors chars-per-pixel */
"100 100 37 1 ",
"  c #686868",
". c #727272",
"X c #747474",
"o c gray48",
"O c gray50",
"+ c gray51",
"@ c #848484",
"# c #8B8B8B",
"$ c gray56",
"% c gray57",
"& c #959595",
"* c #9B9B9B",
"= c #9F9F9F",
"- c gray63",
"; c #A7A7A7",
": c #AAAAAA",
"> c #AFAFAF",
", c gray70",
"< c #B7B7B7",
"1 c #B9B9B9",
"2 c gray74",
"3 c #C1C1C1",
"4 c gray78",
"5 c gray79",
"6 c #CECECE",
"7 c #D2D2D2",
"8 c #D5D5D5",
"9 c gray86",
"0 c #DDDDDD",
"q c #E2E2E2",
"w c #E7E7E7",
"e c #E9E9E9",
"r c #EFEFEF",
"t c gray94",
"y c #F6F6F6",
"u c #F8F8F8",
"i c white",
/* pixels */
"iiiiiiiiiiiiiiiiiiiiiiiiiiiiiiiiiiiiiiiiiiiiiiiiiiiiiiiiiiiiiiiiiiiiiiiiiiiiiiiiiiiiiiiiiiiiiiiiiiii",
"i>,,,,,,,,,,,,,,,,,,,,,,,,,,,,,,,,,,,,,,,,,,,,,,,,,,,,,,,,,,,,,,,,,,,,,,,,,,,,,,,,,,,,,,,,,,,,,,,,>i",
"i,                                                                                                ,i",
"i, .............................................................................................. ,i",
"i, .............................................................................................. ,i",
"i, .............................................................................................. ,i",
"i, .............................................................................................. ,i",
"i, .............................................................................................. ,i",
"i, .............................................................................................. ,i",
"i, .............................................................................................. ,i",
"i, .............................................................................................. ,i",
"i, .............................................................................................. ,i",
"i, .............................................................................................. ,i",
"i, .............................................................................................. ,i",
"i, .............................................................................................. ,i",
"i, .............................................................................................. ,i",
"i, .............................................................................................. ,i",
"i, .............................................................................................. ,i",
"i, .............................................................................................. ,i",
"i, ..............................................&<7wryiiutr05,@................................. ,i",
"i, ...........................................#4tiiiiiiiiiiiiiiiw3+.............................. ,i",
"i, .........................................@8iiiiiiiiiiiiiiiiiiiiu7$............................ ,i",
"i, ........................................3uiiiiiiiiiiiiiiiiiiiiiiiy............................ ,i",
"i, ......................................O0iiiiiiiiiiiiiiiiiiiiiiiiiu............................ ,i",
"i, .....................................#riiiiiiiiiiiiiiiiiiiiiiiiiiu............................ ,i",
"i, ....................................+riiiiiiiiiiw4>*%%*,4wiiiiiiiu............................ ,i",
"i, ...................................oeiiiiiiiii6#..........O<eiiiiu............................ ,i",
"i, ...................................8iiiiiiiie%...............-eiiu............................ ,i",
"i, ..................................;iiiiiiii0o..................2uu............................ ,i",
"i, .................................Otiiiiiiiwo....................%e............................ ,i",
"i, .................................4iiiiiiiy@......................o............................ ,i",
"i, ................................Ouiiiiiii,.................................................... ,i",
"i, ................................3iiiiiiie..................................................... ,i",
"i, ................................tiiiiiii>..................................................... ,i",
"i, ...............................-iiiiiiitX..................................................... ,i",
"i, ...............................7iiiiiii6...................................................... ,i",
"i, ...............................yiiiiiii=...................................................... ,i",
"i, ..............................&iiiiiiiuX...................................................... ,i",
"i, ..............................1iiiiiiiq....................................................... ,i",
"i, ..............................8iiiiiii5....................................................... ,i",
"i, ..............................riiiiiii,....................................................... ,i",
"i, ..............................iiiiiiii*....................................................... ,i",
"i, .............................@iiiiiiiiO....................................................... ,i",
"i, .............................=iiiiiiiu........................................................ ,i",
"i, .............................,iiiiiiit........................................................ ,i",
"i, .............................2iiiiiiie........................................................ ,i",
"i, .............................3iiiiiiiw........................................................ ,i",
"i, .............................4iiiiiiiq........................................................ ,i",
"i, .............................6iiiiiiiq........................................................ ,i",
"i, .............................7iiiiiii0........................................................ ,i",
"i, .............................6iiiiiiiq........................................................ ,i",
"i, .............................5iiiiiiiq........................................................ ,i",
"i, .............................4iiiiiiiw........................................................ ,i",
"i, .............................3iiiiiiie........................................................ ,i",
"i, .............................<iiiiiiit........................................................ ,i",
"i, .............................;iiiiiiiu........................................................ ,i",
"i, .............................&iiiiiiii+....................................................... ,i",
"i, .............................Xiiiiiiii*....................................................... ,i",
"i, ..............................tiiiiiii,....................................................... ,i",
"i, ..............................0iiiiiii5....................................................... ,i",
"i, ..............................3iiiiiiiq....................................................... ,i",
"i, ..............................-iiiiiiiuX...................................................... ,i",
"i, ..............................Xuiiiiiii=...................................................... ,i",
"i, ...............................0iiiiiii6...................................................... ,i",
"i, ...............................,iiiiiiitX..................................................... ,i",
"i, ...............................ouiiiiiii>..................................................... ,i",
"i, ................................7iiiiiiie..................................................... ,i",
"i, ................................$iiiiiiii<.................................................... ,i",
"i, .................................8iiiiiiiy#................................................... ,i",
"i, .................................#uiiiiiiiwo....................@0............................ ,i",
"i, ..................................2iiiiiiiiqO..................>yu............................ ,i",
"i, ...................................wiiiiiiiir&...............&qiiu............................ ,i",
"i, ...................................@tiiiiiiiii7$..........X:qiiiiu............................ ,i",
"i, ....................................&uiiiiiiiiiiw5>*%$*>30uiiiiiiu............................ ,i",
"i, .....................................*yiiiiiiiiiiiiiiiiiiiiiiiiiiu............................ ,i",
"i, ......................................%riiiiiiiiiiiiiiiiiiiiiiiiiu............................ ,i",
"i, .......................................o7iiiiiiiiiiiiiiiiiiiiiiiiu............................ ,i",
"i, .........................................*qiiiiiiiiiiiiiiiiiiiii8*............................ ,i",
"i, ...........................................*7yiiiiiiiiiiiiiiiw2+.............................. ,i",
"i, ..............................................*38eyuiiutr94>O................................. ,i",
"i, .............................................................................................. ,i",
"i, .............................................................................................. ,i",
"i, .............................................................................................. ,i",
"i, .............................................................................................. ,i",
"i, .............................................................................................. ,i",
"i, .............................................................................................. ,i",
"i, .............................................................................................. ,i",
"i, .............................................................................................. ,i",
"i, .............................................................................................. ,i",
"i, .............................................................................................. ,i",
"i, .............................................................................................. ,i",
"i, .............................................................................................. ,i",
"i, .............................................................................................. ,i",
"i, .............................................................................................. ,i",
"i, .............................................................................................. ,i",
"i, .............................................................................................. ,i",
"i,O.............................................................................................. ,i",
"i,                                                                                                ,i",
"i>,,,,,,,,,,,,,,,,,,,,,,,,,,,,,,,,,,,,,,,,,,,,,,,,,,,,,,,,,,,,,,,,,,,,,,,,,,,,,,,,,,,,,,,,,,,,,,,,>i",
"iiiiiiiiiiiiiiiiiiiiiiiiiiiiiiiiiiiiiiiiiiiiiiiiiiiiiiiiiiiiiiiiiiiiiiiiiiiiiiiiiiiiiiiiiiiiiiiiiiii"
};
