/* XPM */
static char *d[] = {
/* columns rows colors chars-per-pixel */
"100 100 74 1 ",
"  c #2E0000",
". c #310D0D",
"X c #341616",
"o c #371C1C",
"O c #3A2222",
"+ c #3F2A2A",
"@ c #483838",
"# c #4C3D3D",
"$ c #4E4040",
"% c #504242",
"& c #594D4D",
"* c #5E5353",
"= c #615656",
"- c #625858",
"; c #655C5C",
": c #685F5F",
"> c #6A6262",
", c #6C6363",
"< c #6D6565",
"1 c #686868",
"2 c #777070",
"3 c #797272",
"4 c #7C7C7C",
"5 c #807979",
"6 c #837D7D",
"7 c #868080",
"8 c #898383",
"9 c #8B8585",
"0 c #8D8888",
"q c #918C8C",
"w c #979393",
"e c #9A9696",
"r c #9E9B9B",
"t c #A39F9F",
"y c #A5A1A1",
"u c #A8A4A4",
"i c #AEABAB",
"p c #AFAFAF",
"a c #B0ADAD",
"s c gray70",
"d c #B4B1B1",
"f c #B9B6B6",
"g c #BAB8B8",
"h c #BDBBBB",
"j c #BEBCBC",
"k c #C3C0C0",
"l c #C4C2C2",
"z c #C6C4C4",
"x c #CAC8C8",
"c c #CCCACA",
"v c #CECDCD",
"b c #D0CFCF",
"n c #D3D1D1",
"m c #D4D3D3",
"M c #D7D6D6",
"N c #D8D7D7",
"B c #DAD9D9",
"V c #DCDBDB",
"C c #DDDCDC",
"Z c #E0DFDF",
"A c #E3E2E2",
"S c #E4E3E3",
"D c #E6E5E5",
"F c #E8E7E7",
"G c #E9E8E8",
"H c #ECEBEB",
"J c #EDECEC",
"K c #F1F0F0",
"L c #F4F3F3",
"P c #F4F4F4",
"I c #F8F7F7",
"U c #F9F9F9",
"Y c #FCFBFB",
"T c white",
/* pixels */
"TTTTTTTTTTTTTTTTTTTTTTTTTTTTTTTTTTTTTTTTTTTTTTTTTTTTTTTTTTTTTTTTTTTTTTTTTTTTTTTTTTTTTTTTTTTTTTTTTTTT",
"TpsssssssssssssssssssssssssssssssssssssssssssssssssssssssssssssssssssssssssssssssssssssssssssssssspT",
"Ts111111111111111111111111111111111111111111111111111111111111111111111111111111111111111111111111sT",
"Ts1TTTTTTTTTTTTTTTTTTTTTTTTTTTTTTTTTTTTTTTTTTTTTTTTTTTTTTTTTTTTTTTTTTTTTTTTTTTTTTTTTTTTTTTTTTTTTT1sT",
"Ts1TTTTTTTTTTTTTTTTTTTTTTTTTTTTTTTTTTTTTTTTTTTTTTTTTTTTTTTTTTTTTTTTTTTTTTTTTTTTTTTTTTTTTTTTTTTTTT1sT",
"Ts1TTTTTTTTTTTTTTTTTTTTTTTTTTTTTTTTTTTTTTTTTTTTTTTTTTTTTTTTTTTTTTTTTTTTTTTTTTTTTTTTTTTTTTTTTTTTTT1sT",
"Ts1TTTTTTTTTTTTTTTTTTTTTTTTTTTTTTTTTTTTTTTTTTTTTTTTTTTTTTTTTTTTTTTTTTTTTTTTTTTTTTTTTTTTTTTTTTTTTT1sT",
"Ts1TTTTTTTTTTTTTTTTTTTTTTTTTTTTTTTTTTTTTTTTTTTTTTTTTTTTTTTTTTTTTTTTTTTTTTTTTTTTTTTTTTTTTTTTTTTTTT1sT",
"Ts1TTTTTTTTTTTTTTTTTTTTTTTTTTTTTTTTTTTTTTTTTTTTTTTTTTTTTTTTTTTTTTTTTTTTTTTTTTTTTTTTTTTTTTTTTTTTTT1sT",
"Ts1TTTTTTTTTTTTTTTTTTTTTTTTTTTTTTTTTTTTTTTTTTTTTTTTTTTTTTTTTTTTTTTTTTTTTTTTTTTTTTTTTTTTTTTTTTTTTT1sT",
"Ts1TTTTTTTTTTTTTTTTTTTTTTTTTTTTTTTTTTTTTTTTTTTTTTTTTTTTTTTTTTTTTTTTTTTTTTTTTTTTTTTTTTTTTTTTTTTTTT1sT",
"Ts1TTTTTTTTTTTTTTTTTTTTTTTTTTTTTTTTTTTTTTTTTTTTTTTTTTTTTTTTTTTTTTTTTTTTTTTTTTTTTTTTTTTTTTTTTTTTTT1sT",
"Ts1TTTTTTTTTTTTTTTTTTTTTTTTTTTTTTTTTTTTTTTTTTTTTTTTTTTTTTTTTTTTTTTTTTTTTTTTTTTTTTTTTTTTTTTTTTTTTT1sT",
"Ts1TTTTTTTTTTTTTTTTTTTTTTTTTTTTTTTTTTTTTTTTTTTTTTTTTTTTTTTTTTTTTTTTTTTTTTTTTTTTTTTTTTTTTTTTTTTTTT1sT",
"Ts1TTTTTTTTTTTTTTTTTTTTTTTTTTTTTTTTTTTTTTTTTTTTTTTTTTTTTTTTTTTTTTTTTTTTTTTTTTTTTTTTTTTTTTTTTTTTTT1sT",
"Ts1TTTTTTTTTTTTTTTTTTTTTTTTTTTTTTTTTTTTTTTTTTTTTTTTTTTTTTTTTTTTTTTTTTTTTTTTTTTTTTTTTTTTTTTTTTTTTT1sT",
"Ts1TTTTTTTTTTTTTTTTTTTTTTTTTTTTTTTTTTTTTTTTTTTTTTTTTTTTTTTTTTTTTTTTTTTTTTTTTTTTTTTTTTTTTTTTTTTTTT1sT",
"Ts1TTTTTTTTTTTTTTTTTTTTTTTTTTTTTTTTTTTTTTTTTTTTTTTTTTTTTTTTTTTTTTTTTTTTTTTTTTTTTTTTTTTTTTTTTTTTTT1sT",
"Ts1TTTTTTTTTTTTTTTTTTTTTTTTTTTTTTTTTTTTTTTTTTTTTTTTTTTTTTTTTTTTTTTTTTTTTTTTTTTTTTTTTTTTTTTTTTTTTT1sT",
"Ts1TTTTTTTTTTTTTTTTTTTTTTTTTTTTTTTTTTTTTTTTTTTTTTTTTTTTTTTTTTTTTTTTTTTTTTTTTTTTTTTTTTTTTTTTTTTTTT1sT",
"Ts1TTTTTTTTTTTTTTTTTTTTTTTTTTTTTy           o#*<9tgMKTTTTTTTTTTTTTTTTTTTTTTTTTTTTTTTTTTTTTTTTTTTT1sT",
"Ts1TTTTTTTTTTTTTTTTTTTTTTTTTTTTTy                    ;iCTTTTTTTTTTTTTTTTTTTTTTTTTTTTTTTTTTTTTTTTT1sT",
"Ts1TTTTTTTTTTTTTTTTTTTTTTTTTTTTTy                       >lUTTTTTTTTTTTTTTTTTTTTTTTTTTTTTTTTTTTTTT1sT",
"Ts1TTTTTTTTTTTTTTTTTTTTTTTTTTTTTy                         *vTTTTTTTTTTTTTTTTTTTTTTTTTTTTTTTTTTTTT1sT",
"Ts1TTTTTTTTTTTTTTTTTTTTTTTTTTTTTy                           0PTTTTTTTTTTTTTTTTTTTTTTTTTTTTTTTTTTT1sT",
"Ts1TTTTTTTTTTTTTTTTTTTTTTTTTTTTTy                            =DTTTTTTTTTTTTTTTTTTTTTTTTTTTTTTTTTT1sT",
"Ts1TTTTTTTTTTTTTTTTTTTTTTTTTTTTTy       nKKKKJDBxi6X          %DTTTTTTTTTTTTTTTTTTTTTTTTTTTTTTTTT1sT",
"Ts1TTTTTTTTTTTTTTTTTTTTTTTTTTTTTy       CTTTTTTTTTTPb7         %JTTTTTTTTTTTTTTTTTTTTTTTTTTTTTTTT1sT",
"Ts1TTTTTTTTTTTTTTTTTTTTTTTTTTTTTy       CTTTTTTTTTTTTTZ3        3UTTTTTTTTTTTTTTTTTTTTTTTTTTTTTTT1sT",
"Ts1TTTTTTTTTTTTTTTTTTTTTTTTTTTTTy       CTTTTTTTTTTTTTTYu        aTTTTTTTTTTTTTTTTTTTTTTTTTTTTTTT1sT",
"Ts1TTTTTTTTTTTTTTTTTTTTTTTTTTTTTy       CTTTTTTTTTTTTTTTTi       oGTTTTTTTTTTTTTTTTTTTTTTTTTTTTTT1sT",
"Ts1TTTTTTTTTTTTTTTTTTTTTTTTTTTTTy       CTTTTTTTTTTTTTTTTT8       qTTTTTTTTTTTTTTTTTTTTTTTTTTTTTT1sT",
"Ts1TTTTTTTTTTTTTTTTTTTTTTTTTTTTTy       CTTTTTTTTTTTTTTTTTJO       GTTTTTTTTTTTTTTTTTTTTTTTTTTTTT1sT",
"Ts1TTTTTTTTTTTTTTTTTTTTTTTTTTTTTy       CTTTTTTTTTTTTTTTTTTy       uTTTTTTTTTTTTTTTTTTTTTTTTTTTTT1sT",
"Ts1TTTTTTTTTTTTTTTTTTTTTTTTTTTTTy       CTTTTTTTTTTTTTTTTTTG       @UTTTTTTTTTTTTTTTTTTTTTTTTTTTT1sT",
"Ts1TTTTTTTTTTTTTTTTTTTTTTTTTTTTTy       CTTTTTTTTTTTTTTTTTTT2       NTTTTTTTTTTTTTTTTTTTTTTTTTTTT1sT",
"Ts1TTTTTTTTTTTTTTTTTTTTTTTTTTTTTy       CTTTTTTTTTTTTTTTTTTTf       yTTTTTTTTTTTTTTTTTTTTTTTTTTTT1sT",
"Ts1TTTTTTTTTTTTTTTTTTTTTTTTTTTTTy       CTTTTTTTTTTTTTTTTTTTC       :TTTTTTTTTTTTTTTTTTTTTTTTTTTT1sT",
"Ts1TTTTTTTTTTTTTTTTTTTTTTTTTTTTTy       CTTTTTTTTTTTTTTTTTTTU.       KTTTTTTTTTTTTTTTTTTTTTTTTTTT1sT",
"Ts1TTTTTTTTTTTTTTTTTTTTTTTTTTTTTy       CTTTTTTTTTTTTTTTTTTTT<       MTTTTTTTTTTTTTTTTTTTTTTTTTTT1sT",
"Ts1TTTTTTTTTTTTTTTTTTTTTTTTTTTTTy       CTTTTTTTTTTTTTTTTTTTTe       jTTTTTTTTTTTTTTTTTTTTTTTTTTT1sT",
"Ts1TTTTTTTTTTTTTTTTTTTTTTTTTTTTTy       CTTTTTTTTTTTTTTTTTTTTs       tTTTTTTTTTTTTTTTTTTTTTTTTTTT1sT",
"Ts1TTTTTTTTTTTTTTTTTTTTTTTTTTTTTy       CTTTTTTTTTTTTTTTTTTTTz       6TTTTTTTTTTTTTTTTTTTTTTTTTTT1sT",
"Ts1TTTTTTTTTTTTTTTTTTTTTTTTTTTTTy       CTTTTTTTTTTTTTTTTTTTTm       ;TTTTTTTTTTTTTTTTTTTTTTTTTTT1sT",
"Ts1TTTTTTTTTTTTTTTTTTTTTTTTTTTTTy       CTTTTTTTTTTTTTTTTTTTTC       +TTTTTTTTTTTTTTTTTTTTTTTTTTT1sT",
"Ts1TTTTTTTTTTTTTTTTTTTTTTTTTTTTTy       CTTTTTTTTTTTTTTTTTTTTD        ITTTTTTTTTTTTTTTTTTTTTTTTTT1sT",
"Ts1TTTTTTTTTTTTTTTTTTTTTTTTTTTTTy       CTTTTTTTTTTTTTTTTTTTTH        KTTTTTTTTTTTTTTTTTTTTTTTTTT1sT",
"Ts1TTTTTTTTTTTTTTTTTTTTTTTTTTTTTy       CTTTTTTTTTTTTTTTTTTTTJ        JTTTTTTTTTTTTTTTTTTTTTTTTTT1sT",
"Ts1TTTTTTTTTTTTTTTTTTTTTTTTTTTTTy       CTTTTTTTTTTTTTTTTTTTTK        GTTTTTTTTTTTTTTTTTTTTTTTTTT1sT",
"Ts1TTTTTTTTTTTTTTTTTTTTTTTTTTTTTy       CTTTTTTTTTTTTTTTTTTTTK        GTTTTTTTTTTTTTTTTTTTTTTTTTT1sT",
"Ts1TTTTTTTTTTTTTTTTTTTTTTTTTTTTTy       CTTTTTTTTTTTTTTTTTTTTK        GTTTTTTTTTTTTTTTTTTTTTTTTTT1sT",
"Ts1TTTTTTTTTTTTTTTTTTTTTTTTTTTTTy       CTTTTTTTTTTTTTTTTTTTTJ        JTTTTTTTTTTTTTTTTTTTTTTTTTT1sT",
"Ts1TTTTTTTTTTTTTTTTTTTTTTTTTTTTTy       CTTTTTTTTTTTTTTTTTTTTH        KTTTTTTTTTTTTTTTTTTTTTTTTTT1sT",
"Ts1TTTTTTTTTTTTTTTTTTTTTTTTTTTTTy       CTTTTTTTTTTTTTTTTTTTTD        PTTTTTTTTTTTTTTTTTTTTTTTTTT1sT",
"Ts1TTTTTTTTTTTTTTTTTTTTTTTTTTTTTy       CTTTTTTTTTTTTTTTTTTTTV       OTTTTTTTTTTTTTTTTTTTTTTTTTTT1sT",
"Ts1TTTTTTTTTTTTTTTTTTTTTTTTTTTTTy       CTTTTTTTTTTTTTTTTTTTTn       -TTTTTTTTTTTTTTTTTTTTTTTTTTT1sT",
"Ts1TTTTTTTTTTTTTTTTTTTTTTTTTTTTTy       CTTTTTTTTTTTTTTTTTTTTl       5TTTTTTTTTTTTTTTTTTTTTTTTTTT1sT",
"Ts1TTTTTTTTTTTTTTTTTTTTTTTTTTTTTy       CTTTTTTTTTTTTTTTTTTTTa       tTTTTTTTTTTTTTTTTTTTTTTTTTTT1sT",
"Ts1TTTTTTTTTTTTTTTTTTTTTTTTTTTTTy       CTTTTTTTTTTTTTTTTTTTTw       hTTTTTTTTTTTTTTTTTTTTTTTTTTT1sT",
"Ts1TTTTTTTTTTTTTTTTTTTTTTTTTTTTTy       CTTTTTTTTTTTTTTTTTTTT:       MTTTTTTTTTTTTTTTTTTTTTTTTTTT1sT",
"Ts1TTTTTTTTTTTTTTTTTTTTTTTTTTTTTy       CTTTTTTTTTTTTTTTTTTTU        KTTTTTTTTTTTTTTTTTTTTTTTTTTT1sT",
"Ts1TTTTTTTTTTTTTTTTTTTTTTTTTTTTTy       CTTTTTTTTTTTTTTTTTTTB       ;TTTTTTTTTTTTTTTTTTTTTTTTTTTT1sT",
"Ts1TTTTTTTTTTTTTTTTTTTTTTTTTTTTTy       CTTTTTTTTTTTTTTTTTTTd       tTTTTTTTTTTTTTTTTTTTTTTTTTTTT1sT",
"Ts1TTTTTTTTTTTTTTTTTTTTTTTTTTTTTy       CTTTTTTTTTTTTTTTTTTT,       MTTTTTTTTTTTTTTTTTTTTTTTTTTTT1sT",
"Ts1TTTTTTTTTTTTTTTTTTTTTTTTTTTTTy       CTTTTTTTTTTTTTTTTTTA       @UTTTTTTTTTTTTTTTTTTTTTTTTTTTT1sT",
"Ts1TTTTTTTTTTTTTTTTTTTTTTTTTTTTTy       CTTTTTTTTTTTTTTTTTTe       yTTTTTTTTTTTTTTTTTTTTTTTTTTTTT1sT",
"Ts1TTTTTTTTTTTTTTTTTTTTTTTTTTTTTy       CTTTTTTTTTTTTTTTTTD.       GTTTTTTTTTTTTTTTTTTTTTTTTTTTTT1sT",
"Ts1TTTTTTTTTTTTTTTTTTTTTTTTTTTTTy       CTTTTTTTTTTTTTTTTT3       qTTTTTTTTTTTTTTTTTTTTTTTTTTTTTT1sT",
"Ts1TTTTTTTTTTTTTTTTTTTTTTTTTTTTTy       CTTTTTTTTTTTTTTTTr       XGTTTTTTTTTTTTTTTTTTTTTTTTTTTTTT1sT",
"Ts1TTTTTTTTTTTTTTTTTTTTTTTTTTTTTy       CTTTTTTTTTTTTTTUe        aTTTTTTTTTTTTTTTTTTTTTTTTTTTTTTT1sT",
"Ts1TTTTTTTTTTTTTTTTTTTTTTTTTTTTTy       CTTTTTTTTTTTTTB<        2UTTTTTTTTTTTTTTTTTTTTTTTTTTTTTTT1sT",
"Ts1TTTTTTTTTTTTTTTTTTTTTTTTTTTTTy       CTTTTTTTTTTPv5         $JTTTTTTTTTTTTTTTTTTTTTTTTTTTTTTTT1sT",
"Ts1TTTTTTTTTTTTTTTTTTTTTTTTTTTTTy       nKKKKJFBxi6X          #STTTTTTTTTTTTTTTTTTTTTTTTTTTTTTTTT1sT",
"Ts1TTTTTTTTTTTTTTTTTTTTTTTTTTTTTy                            *DTTTTTTTTTTTTTTTTTTTTTTTTTTTTTTTTTT1sT",
"Ts1TTTTTTTTTTTTTTTTTTTTTTTTTTTTTy                           9LTTTTTTTTTTTTTTTTTTTTTTTTTTTTTTTTTTT1sT",
"Ts1TTTTTTTTTTTTTTTTTTTTTTTTTTTTTy                         &cTTTTTTTTTTTTTTTTTTTTTTTTTTTTTTTTTTTTT1sT",
"Ts1TTTTTTTTTTTTTTTTTTTTTTTTTTTTTy                       :kUTTTTTTTTTTTTTTTTTTTTTTTTTTTTTTTTTTTTTT1sT",
"Ts1TTTTTTTTTTTTTTTTTTTTTTTTTTTTTy                    -iVTTTTTTTTTTTTTTTTTTTTTTTTTTTTTTTTTTTTTTTTT1sT",
"Ts1TTTTTTTTTTTTTTTTTTTTTTTTTTTTTy           X@&>8tfMJTTTTTTTTTTTTTTTTTTTTTTTTTTTTTTTTTTTTTTTTTTTT1sT",
"Ts1TTTTTTTTTTTTTTTTTTTTTTTTTTTTTTTTTTTTTTTTTTTTTTTTTTTTTTTTTTTTTTTTTTTTTTTTTTTTTTTTTTTTTTTTTTTTTT1sT",
"Ts1TTTTTTTTTTTTTTTTTTTTTTTTTTTTTTTTTTTTTTTTTTTTTTTTTTTTTTTTTTTTTTTTTTTTTTTTTTTTTTTTTTTTTTTTTTTTTT1sT",
"Ts1TTTTTTTTTTTTTTTTTTTTTTTTTTTTTTTTTTTTTTTTTTTTTTTTTTTTTTTTTTTTTTTTTTTTTTTTTTTTTTTTTTTTTTTTTTTTTT1sT",
"Ts1TTTTTTTTTTTTTTTTTTTTTTTTTTTTTTTTTTTTTTTTTTTTTTTTTTTTTTTTTTTTTTTTTTTTTTTTTTTTTTTTTTTTTTTTTTTTTT1sT",
"Ts1TTTTTTTTTTTTTTTTTTTTTTTTTTTTTTTTTTTTTTTTTTTTTTTTTTTTTTTTTTTTTTTTTTTTTTTTTTTTTTTTTTTTTTTTTTTTTT1sT",
"Ts1TTTTTTTTTTTTTTTTTTTTTTTTTTTTTTTTTTTTTTTTTTTTTTTTTTTTTTTTTTTTTTTTTTTTTTTTTTTTTTTTTTTTTTTTTTTTTT1sT",
"Ts1TTTTTTTTTTTTTTTTTTTTTTTTTTTTTTTTTTTTTTTTTTTTTTTTTTTTTTTTTTTTTTTTTTTTTTTTTTTTTTTTTTTTTTTTTTTTTT1sT",
"Ts1TTTTTTTTTTTTTTTTTTTTTTTTTTTTTTTTTTTTTTTTTTTTTTTTTTTTTTTTTTTTTTTTTTTTTTTTTTTTTTTTTTTTTTTTTTTTTT1sT",
"Ts1TTTTTTTTTTTTTTTTTTTTTTTTTTTTTTTTTTTTTTTTTTTTTTTTTTTTTTTTTTTTTTTTTTTTTTTTTTTTTTTTTTTTTTTTTTTTTT1sT",
"Ts1TTTTTTTTTTTTTTTTTTTTTTTTTTTTTTTTTTTTTTTTTTTTTTTTTTTTTTTTTTTTTTTTTTTTTTTTTTTTTTTTTTTTTTTTTTTTTT1sT",
"Ts1TTTTTTTTTTTTTTTTTTTTTTTTTTTTTTTTTTTTTTTTTTTTTTTTTTTTTTTTTTTTTTTTTTTTTTTTTTTTTTTTTTTTTTTTTTTTTT1sT",
"Ts1TTTTTTTTTTTTTTTTTTTTTTTTTTTTTTTTTTTTTTTTTTTTTTTTTTTTTTTTTTTTTTTTTTTTTTTTTTTTTTTTTTTTTTTTTTTTTT1sT",
"Ts1TTTTTTTTTTTTTTTTTTTTTTTTTTTTTTTTTTTTTTTTTTTTTTTTTTTTTTTTTTTTTTTTTTTTTTTTTTTTTTTTTTTTTTTTTTTTTT1sT",
"Ts1TTTTTTTTTTTTTTTTTTTTTTTTTTTTTTTTTTTTTTTTTTTTTTTTTTTTTTTTTTTTTTTTTTTTTTTTTTTTTTTTTTTTTTTTTTTTTT1sT",
"Ts1TTTTTTTTTTTTTTTTTTTTTTTTTTTTTTTTTTTTTTTTTTTTTTTTTTTTTTTTTTTTTTTTTTTTTTTTTTTTTTTTTTTTTTTTTTTTTT1sT",
"Ts1TTTTTTTTTTTTTTTTTTTTTTTTTTTTTTTTTTTTTTTTTTTTTTTTTTTTTTTTTTTTTTTTTTTTTTTTTTTTTTTTTTTTTTTTTTTTTT1sT",
"Ts1TTTTTTTTTTTTTTTTTTTTTTTTTTTTTTTTTTTTTTTTTTTTTTTTTTTTTTTTTTTTTTTTTTTTTTTTTTTTTTTTTTTTTTTTTTTTTT1sT",
"Ts4TTTTTTTTTTTTTTTTTTTTTTTTTTTTTTTTTTTTTTTTTTTTTTTTTTTTTTTTTTTTTTTTTTTTTTTTTTTTTTTTTTTTTTTTTTTTTT1sT",
"Ts111111111111111111111111111111111111111111111111111111111111111111111111111111111111111111111111sT",
"TpsssssssssssssssssssssssssssssssssssssssssssssssssssssssssssssssssssssssssssssssssssssssssssssssspT",
"TTTTTTTTTTTTTTTTTTTTTTTTTTTTTTTTTTTTTTTTTTTTTTTTTTTTTTTTTTTTTTTTTTTTTTTTTTTTTTTTTTTTTTTTTTTTTTTTTTTT"
};
