/* XPM */
static char *d1[] = {
/* columns rows colors chars-per-pixel */
"100 100 78 1 ",
"  c #686868",
". c #7C7C7C",
"X c #348032",
"o c #378135",
"O c #3A8238",
"+ c #3C823B",
"@ c #468644",
"# c #488747",
"$ c #4A8749",
"% c #4C884B",
"& c #4E894D",
"* c #508A4F",
"= c #538B52",
"- c #578D56",
"; c #588D57",
": c #5A8E59",
"> c #5D905C",
", c #639362",
"< c #669465",
"1 c #699568",
"2 c #6D976C",
"3 c #6E986D",
"4 c #729A71",
"5 c #749B73",
"6 c #769D76",
"7 c #799E78",
"8 c #7CA07B",
"9 c #7EA17D",
"0 c #81A381",
"q c #83A483",
"w c #87A787",
"e c #88A788",
"r c #89A889",
"t c #8DAA8C",
"y c #92AE92",
"u c #95AF94",
"i c #96B196",
"p c #98B298",
"a c #9BB49B",
"s c #9FB69E",
"d c #AFAFAF",
"f c #A0B7A0",
"g c #A2B8A1",
"h c #A6BBA6",
"j c #A9BDA9",
"k c #ACBFAC",
"l c gray70",
"z c #AFC1AF",
"x c #B1C3B1",
"c c #B6C7B6",
"v c #B8C8B7",
"b c #B8C8B8",
"n c #BFCDBF",
"m c #C2CFC2",
"M c #C3D0C3",
"N c #C8D4C8",
"B c #CCD7CC",
"V c #CDD8CD",
"C c #D1DBD1",
"Z c #D2DCD2",
"A c #D4DDD3",
"S c #D5DDD5",
"D c #DAE2DA",
"F c #DDE4DC",
"G c #E0E6E0",
"H c #E2E8E2",
"J c #E4E9E4",
"K c #E7ECE7",
"L c #E8ECE7",
"P c #E9EDE9",
"I c #ECF0EC",
"U c #F0F3F0",
"Y c #F3F5F3",
"T c #F5F7F5",
"R c #F6F8F6",
"E c #F9FAF9",
"W c #FBFCFB",
"Q c white",
/* pixels */
"QQQQQQQQQQQQQQQQQQQQQQQQQQQQQQQQQQQQQQQQQQQQQQQQQQQQQQQQQQQQQQQQQQQQQQQQQQQQQQQQQQQQQQQQQQQQQQQQQQQQ",
"QdlllllllllllllllllllllllllllllllllllllllllllllllllllllllllllllllllllllllllllllllllllllllllllllllldQ",
"Ql                                                                                                lQ",
"Ql XXXXXXXXXXXXXXXXXXXXXXXXXXXXXXXXXXXXXXXXXXXXXXXXXXXXXXXXXXXXXXXXXXXXXXXXXXXXXXXXXXXXXXXXXXXXXX lQ",
"Ql XXXXXXXXXXXXXXXXXXXXXXXXXXXXXXXXXXXXXXXXXXXXXXXXXXXXXXXXXXXXXXXXXXXXXXXXXXXXXXXXXXXXXXXXXXXXXX lQ",
"Ql XXXXXXXXXXXXXXXXXXXXXXXXXXXXXXXXXXXXXXXXXXXXXXXXXXXXXXXXXXXXXXXXXXXXXXXXXXXXXXXXXXXXXXXXXXXXXX lQ",
"Ql XXXXXXXXXXXXXXXXXXXXXXXXXXXXXXXXXXXXXXXXXXXXXXXXXXXXXXXXXXXXXXXXXXXXXXXXXXXXXXXXXXXXXXXXXXXXXX lQ",
"Ql XXXXXXXXXXXXXXXXXXXXXXXXXXXXXXXXXXXXXXXXXXXXXXXXXXXXXXXXXXXXXXXXXXXXXXXXXXXXXXXXXXXXXXXXXXXXXX lQ",
"Ql XXXXXXXXXXXXXXXXXXXXXXXXXXXXXXXXXXXXXXXXXXXXXXXXXXXXXXXXXXXXXXXXXXXXXXXXXXXXXXXXXXXXXXXXXXXXXX lQ",
"Ql XXXXXXXXXXXXXXXXXXXXXXXXXXXXXXXXXXXXXXXXXXXXXXXXXXXXXXXXXXXXXXXXXXXXXXXXXXXXXXXXXXXXXXXXXXXXXX lQ",
"Ql XXXXXXXXXXXXXXXXXXXXXXXXXXXXXXXXXXXXXXXXXXXXXXXXXXXXXXXXXXXXXXXXXXXXXXXXXXXXXXXXXXXXXXXXXXXXXX lQ",
"Ql XXXXXXXXXXXXXXXXXXXXXXXXXXXXXXXXXXXXXXXXXXXXXXXXXXXXXXXXXXXXXXXXXXXXXXXXXXXXXXXXXXXXXXXXXXXXXX lQ",
"Ql XXXXXXXXXXXXXXXXXXXXXXXXXXXXXXXXXXXXXXXXXXXXXXXXXXXXXXXXXXXXXXXXXXXXXXXXXXXXXXXXXXXXXXXXXXXXXX lQ",
"Ql XXXXXXXXXXXXXXXXXXXXXXXXXXXXXXXXXXXXXXXXXXXXXXXXXXXXXXXXXXXXXXXXXXXXXXXXXXXXXXXXXXXXXXXXXXXXXX lQ",
"Ql XXXXXXXXXXXXXXXXXXXXXXXXXXXXXXXXXXXXXXXXXXXXXXXXXXXXXXXXXXXXXXXXXXXXXXXXXXXXXXXXXXXXXXXXXXXXXX lQ",
"Ql XXXXXXXXXXXXXXXXXXXXXXXXXXXXXXXXXXXXXXXXXXXXXXXXXXXXXXXXXXXXXXXXXXXXXXXXXXXXXXXXXXXXXXXXXXXXXX lQ",
"Ql XXXXXXXXXXXXXXXXXXXXXXXXXXXXXXXXXXXXXXXXXXXXXXXXXXXXXXXXXXXXXXXXXXXXXXXXXXXXXXXXXXXXXXXXXXXXXX lQ",
"Ql XXXXXXXXXXXXXXXXXXXXXXXXXXXXXXXXXXXXXXXXXXXXXXXXXXXXXXXXXXXXXXXXXXXXXXXXXXXXXXXXXXXXXXXXXXXXXX lQ",
"Ql XXXXXXXXXXXXXXXXXXXXXXXXXXXXXXXXXXXXXXXXXXXXXXXXXXXXXXXXXXXXXXXXXXXXXXXXXXXXXXXXXXXXXXXXXXXXXX lQ",
"Ql XXXXXXXXXXXXXXXXXXXXXXXXXXXXXXXXXXXXXXXXXXXXXXXXXXXXXXXXXXXXXXXXXXXXXXXXXXXXXXXXXXXXXXXXXXXXXX lQ",
"Ql XXXXXXXXXXXXXXXXXXXXXXXXXXXXXAQQQQQQQQQQQQERUJSmf3XXXXXXXXXXXXXXXXXXXXXXXXXXXXXXXXXXXXXXXXXXXX lQ",
"Ql XXXXXXXXXXXXXXXXXXXXXXXXXXXXXAQQQQQQQQQQQQQQQQQQQQYBi+XXXXXXXXXXXXXXXXXXXXXXXXXXXXXXXXXXXXXXXX lQ",
"Ql XXXXXXXXXXXXXXXXXXXXXXXXXXXXXAQQQQQQQQQQQQQQQQQQQQQQQYv=XXXXXXXXXXXXXXXXXXXXXXXXXXXXXXXXXXXXXX lQ",
"Ql XXXXXXXXXXXXXXXXXXXXXXXXXXXXXAQQQQQQQQQQQQQQQQQQQQQQQQQTkOXXXXXXXXXXXXXXXXXXXXXXXXXXXXXXXXXXXX lQ",
"Ql XXXXXXXXXXXXXXXXXXXXXXXXXXXXXAQQQQQQQQQQQQQQQQQQQQQQQQQQQH,XXXXXXXXXXXXXXXXXXXXXXXXXXXXXXXXXXX lQ",
"Ql XXXXXXXXXXXXXXXXXXXXXXXXXXXXXAQQQQQQQQQQQQQQQQQQQQQQQQQQQQTwXXXXXXXXXXXXXXXXXXXXXXXXXXXXXXXXXX lQ",
"Ql XXXXXXXXXXXXXXXXXXXXXXXXXXXXXAQQQQQQQh11137waxVLQQQQQQQQQQQEeXXXXXXXXXXXXXXXXXXXXXXXXXXXXXXXXX lQ",
"Ql XXXXXXXXXXXXXXXXXXXXXXXXXXXXXAQQQQQQQiXXXXXXXXXX>jJQQQQQQQQQE6XXXXXXXXXXXXXXXXXXXXXXXXXXXXXXXX lQ",
"Ql XXXXXXXXXXXXXXXXXXXXXXXXXXXXXAQQQQQQQiXXXXXXXXXXXXXyIQQQQQQQQI&XXXXXXXXXXXXXXXXXXXXXXXXXXXXXXX lQ",
"Ql XXXXXXXXXXXXXXXXXXXXXXXXXXXXXAQQQQQQQiXXXXXXXXXXXXXX#CQQQQQQQQNXXXXXXXXXXXXXXXXXXXXXXXXXXXXXXX lQ",
"Ql XXXXXXXXXXXXXXXXXXXXXXXXXXXXXAQQQQQQQiXXXXXXXXXXXXXXXXVQQQQQQQQ9XXXXXXXXXXXXXXXXXXXXXXXXXXXXXX lQ",
"Ql XXXXXXXXXXXXXXXXXXXXXXXXXXXXXAQQQQQQQiXXXXXXXXXXXXXXXXOJQQQQQQQFXXXXXXXXXXXXXXXXXXXXXXXXXXXXXX lQ",
"Ql XXXXXXXXXXXXXXXXXXXXXXXXXXXXXAQQQQQQQiXXXXXXXXXXXXXXXXX6QQQQQQQQ9XXXXXXXXXXXXXXXXXXXXXXXXXXXXX lQ",
"Ql XXXXXXXXXXXXXXXXXXXXXXXXXXXXXAQQQQQQQiXXXXXXXXXXXXXXXXXXZQQQQQQQCXXXXXXXXXXXXXXXXXXXXXXXXXXXXX lQ",
"Ql XXXXXXXXXXXXXXXXXXXXXXXXXXXXXAQQQQQQQiXXXXXXXXXXXXXXXXXX0QQQQQQQE$XXXXXXXXXXXXXXXXXXXXXXXXXXXX lQ",
"Ql XXXXXXXXXXXXXXXXXXXXXXXXXXXXXAQQQQQQQiXXXXXXXXXXXXXXXXXXXIQQQQQQQsXXXXXXXXXXXXXXXXXXXXXXXXXXXX lQ",
"Ql XXXXXXXXXXXXXXXXXXXXXXXXXXXXXAQQQQQQQiXXXXXXXXXXXXXXXXXXXMQQQQQQQZXXXXXXXXXXXXXXXXXXXXXXXXXXXX lQ",
"Ql XXXXXXXXXXXXXXXXXXXXXXXXXXXXXAQQQQQQQiXXXXXXXXXXXXXXXXXXXuQQQQQQQYXXXXXXXXXXXXXXXXXXXXXXXXXXXX lQ",
"Ql XXXXXXXXXXXXXXXXXXXXXXXXXXXXXAQQQQQQQiXXXXXXXXXXXXXXXXXXX*QQQQQQQQ1XXXXXXXXXXXXXXXXXXXXXXXXXXX lQ",
"Ql XXXXXXXXXXXXXXXXXXXXXXXXXXXXXAQQQQQQQiXXXXXXXXXXXXXXXXXXXXUQQQQQQQgXXXXXXXXXXXXXXXXXXXXXXXXXXX lQ",
"Ql XXXXXXXXXXXXXXXXXXXXXXXXXXXXXAQQQQQQQiXXXXXXXXXXXXXXXXXXXXDQQQQQQQnXXXXXXXXXXXXXXXXXXXXXXXXXXX lQ",
"Ql XXXXXXXXXXXXXXXXXXXXXXXXXXXXXAQQQQQQQiXXXXXXXXXXXXXXXXXXXXNQQQQQQQSXXXXXXXXXXXXXXXXXXXXXXXXXXX lQ",
"Ql XXXXXXXXXXXXXXXXXXXXXXXXXXXXXAQQQQQQQiXXXXXXXXXXXXXXXXXXXXcQQQQQQQPXXXXXXXXXXXXXXXXXXXXXXXXXXX lQ",
"Ql XXXXXXXXXXXXXXXXXXXXXXXXXXXXXAQQQQQQQiXXXXXXXXXXXXXXXXXXXXhQQQQQQQYXXXXXXXXXXXXXXXXXXXXXXXXXXX lQ",
"Ql XXXXXXXXXXXXXXXXXXXXXXXXXXXXXAQQQQQQQiXXXXXXXXXXXXXXXXXXXXiQQQQQQQQXXXXXXXXXXXXXXXXXXXXXXXXXXX lQ",
"Ql XXXXXXXXXXXXXXXXXXXXXXXXXXXXXAQQQQQQQiXXXXXXXXXXXXXXXXXXXXrQQQQQQQQ;XXXXXXXXXXXXXXXXXXXXXXXXXX lQ",
"Ql XXXXXXXXXXXXXXXXXXXXXXXXXXXXXAQQQQQQQiXXXXXXXXXXXXXXXXXXXX7QQQQQQQQ1XXXXXXXXXXXXXXXXXXXXXXXXXX lQ",
"Ql XXXXXXXXXXXXXXXXXXXXXXXXXXXXXAQQQQQQQiXXXXXXXXXXXXXXXXXXXX6QQQQQQQQ4XXXXXXXXXXXXXXXXXXXXXXXXXX lQ",
"Ql XXXXXXXXXXXXXXXXXXXXXXXXXXXXXAQQQQQQQiXXXXXXXXXXXXXXXXXXXX3QQQQQQQQ8XXXXXXXXXXXXXXXXXXXXXXXXXX lQ",
"Ql XXXXXXXXXXXXXXXXXXXXXXXXXXXXXAQQQQQQQiXXXXXXXXXXXXXXXXXXXX1QQQQQQQQqXXXXXXXXXXXXXXXXXXXXXXXXXX lQ",
"Ql XXXXXXXXXXXXXXXXXXXXXXXXXXXXXAQQQQQQQiXXXXXXXXXXXXXXXXXXXX3QQQQQQQQ8XXXXXXXXXXXXXXXXXXXXXXXXXX lQ",
"Ql XXXXXXXXXXXXXXXXXXXXXXXXXXXXXAQQQQQQQiXXXXXXXXXXXXXXXXXXXX6QQQQQQQQ5XXXXXXXXXXXXXXXXXXXXXXXXXX lQ",
"Ql XXXXXXXXXXXXXXXXXXXXXXXXXXXXXAQQQQQQQiXXXXXXXXXXXXXXXXXXXX7QQQQQQQQ1XXXXXXXXXXXXXXXXXXXXXXXXXX lQ",
"Ql XXXXXXXXXXXXXXXXXXXXXXXXXXXXXAQQQQQQQiXXXXXXXXXXXXXXXXXXXXrQQQQQQQQ:XXXXXXXXXXXXXXXXXXXXXXXXXX lQ",
"Ql XXXXXXXXXXXXXXXXXXXXXXXXXXXXXAQQQQQQQiXXXXXXXXXXXXXXXXXXXXpQQQQQQQQoXXXXXXXXXXXXXXXXXXXXXXXXXX lQ",
"Ql XXXXXXXXXXXXXXXXXXXXXXXXXXXXXAQQQQQQQiXXXXXXXXXXXXXXXXXXXXhQQQQQQQTXXXXXXXXXXXXXXXXXXXXXXXXXXX lQ",
"Ql XXXXXXXXXXXXXXXXXXXXXXXXXXXXXAQQQQQQQiXXXXXXXXXXXXXXXXXXXXbQQQQQQQPXXXXXXXXXXXXXXXXXXXXXXXXXXX lQ",
"Ql XXXXXXXXXXXXXXXXXXXXXXXXXXXXXAQQQQQQQiXXXXXXXXXXXXXXXXXXXXNQQQQQQQSXXXXXXXXXXXXXXXXXXXXXXXXXXX lQ",
"Ql XXXXXXXXXXXXXXXXXXXXXXXXXXXXXAQQQQQQQiXXXXXXXXXXXXXXXXXXXXFQQQQQQQnXXXXXXXXXXXXXXXXXXXXXXXXXXX lQ",
"Ql XXXXXXXXXXXXXXXXXXXXXXXXXXXXXAQQQQQQQiXXXXXXXXXXXXXXXXXXXXYQQQQQQQgXXXXXXXXXXXXXXXXXXXXXXXXXXX lQ",
"Ql XXXXXXXXXXXXXXXXXXXXXXXXXXXXXAQQQQQQQiXXXXXXXXXXXXXXXXXXX-QQQQQQQQ3XXXXXXXXXXXXXXXXXXXXXXXXXXX lQ",
"Ql XXXXXXXXXXXXXXXXXXXXXXXXXXXXXAQQQQQQQiXXXXXXXXXXXXXXXXXXXpQQQQQQQYXXXXXXXXXXXXXXXXXXXXXXXXXXXX lQ",
"Ql XXXXXXXXXXXXXXXXXXXXXXXXXXXXXAQQQQQQQiXXXXXXXXXXXXXXXXXXXNQQQQQQQSXXXXXXXXXXXXXXXXXXXXXXXXXXXX lQ",
"Ql XXXXXXXXXXXXXXXXXXXXXXXXXXXXXAQQQQQQQiXXXXXXXXXXXXXXXXXXoYQQQQQQQgXXXXXXXXXXXXXXXXXXXXXXXXXXXX lQ",
"Ql XXXXXXXXXXXXXXXXXXXXXXXXXXXXXAQQQQQQQiXXXXXXXXXXXXXXXXXXtQQQQQQQW%XXXXXXXXXXXXXXXXXXXXXXXXXXXX lQ",
"Ql XXXXXXXXXXXXXXXXXXXXXXXXXXXXXAQQQQQQQiXXXXXXXXXXXXXXXXXXDQQQQQQQZXXXXXXXXXXXXXXXXXXXXXXXXXXXXX lQ",
"Ql XXXXXXXXXXXXXXXXXXXXXXXXXXXXXAQQQQQQQiXXXXXXXXXXXXXXXXXwQQQQQQQQ0XXXXXXXXXXXXXXXXXXXXXXXXXXXXX lQ",
"Ql XXXXXXXXXXXXXXXXXXXXXXXXXXXXXAQQQQQQQiXXXXXXXXXXXXXXXX@PQQQQQQQGXXXXXXXXXXXXXXXXXXXXXXXXXXXXXX lQ",
"Ql XXXXXXXXXXXXXXXXXXXXXXXXXXXXXAQQQQQQQiXXXXXXXXXXXXXXXODQQQQQQQQ0XXXXXXXXXXXXXXXXXXXXXXXXXXXXXX lQ",
"Ql XXXXXXXXXXXXXXXXXXXXXXXXXXXXXAQQQQQQQiXXXXXXXXXXXXXX=DQQQQQQQQNXXXXXXXXXXXXXXXXXXXXXXXXXXXXXXX lQ",
"Ql XXXXXXXXXXXXXXXXXXXXXXXXXXXXXAQQQQQQQiXXXXXXXXXXXXXpUQQQQQQQQI*XXXXXXXXXXXXXXXXXXXXXXXXXXXXXXX lQ",
"Ql XXXXXXXXXXXXXXXXXXXXXXXXXXXXXAQQQQQQQiXXXXXXXXXX>kPQQQQQQQQQE7XXXXXXXXXXXXXXXXXXXXXXXXXXXXXXXX lQ",
"Ql XXXXXXXXXXXXXXXXXXXXXXXXXXXXXAQQQQQQQh11126qpxBKQQQQQQQQQQQErXXXXXXXXXXXXXXXXXXXXXXXXXXXXXXXXX lQ",
"Ql XXXXXXXXXXXXXXXXXXXXXXXXXXXXXAQQQQQQQQQQQQQQQQQQQQQQQQQQQQRrXXXXXXXXXXXXXXXXXXXXXXXXXXXXXXXXXX lQ",
"Ql XXXXXXXXXXXXXXXXXXXXXXXXXXXXXAQQQQQQQQQQQQQQQQQQQQQQQQQQQJ<XXXXXXXXXXXXXXXXXXXXXXXXXXXXXXXXXXX lQ",
"Ql XXXXXXXXXXXXXXXXXXXXXXXXXXXXXAQQQQQQQQQQQQQQQQQQQQQQQQQRzOXXXXXXXXXXXXXXXXXXXXXXXXXXXXXXXXXXXX lQ",
"Ql XXXXXXXXXXXXXXXXXXXXXXXXXXXXXAQQQQQQQQQQQQQQQQQQQQQQQYb-XXXXXXXXXXXXXXXXXXXXXXXXXXXXXXXXXXXXXX lQ",
"Ql XXXXXXXXXXXXXXXXXXXXXXXXXXXXXAQQQQQQQQQQQQQQQQQQQQTVp+XXXXXXXXXXXXXXXXXXXXXXXXXXXXXXXXXXXXXXXX lQ",
"Ql XXXXXXXXXXXXXXXXXXXXXXXXXXXXXAQQQQQQQQQQQQWRYJSMg4XXXXXXXXXXXXXXXXXXXXXXXXXXXXXXXXXXXXXXXXXXXX lQ",
"Ql XXXXXXXXXXXXXXXXXXXXXXXXXXXXXXXXXXXXXXXXXXXXXXXXXXXXXXXXXXXXXXXXXXXXXXXXXXXXXXXXXXXXXXXXXXXXXX lQ",
"Ql XXXXXXXXXXXXXXXXXXXXXXXXXXXXXXXXXXXXXXXXXXXXXXXXXXXXXXXXXXXXXXXXXXXXXXXXXXXXXXXXXXXXXXXXXXXXXX lQ",
"Ql XXXXXXXXXXXXXXXXXXXXXXXXXXXXXXXXXXXXXXXXXXXXXXXXXXXXXXXXXXXXXXXXXXXXXXXXXXXXXXXXXXXXXXXXXXXXXX lQ",
"Ql XXXXXXXXXXXXXXXXXXXXXXXXXXXXXXXXXXXXXXXXXXXXXXXXXXXXXXXXXXXXXXXXXXXXXXXXXXXXXXXXXXXXXXXXXXXXXX lQ",
"Ql XXXXXXXXXXXXXXXXXXXXXXXXXXXXXXXXXXXXXXXXXXXXXXXXXXXXXXXXXXXXXXXXXXXXXXXXXXXXXXXXXXXXXXXXXXXXXX lQ",
"Ql XXXXXXXXXXXXXXXXXXXXXXXXXXXXXXXXXXXXXXXXXXXXXXXXXXXXXXXXXXXXXXXXXXXXXXXXXXXXXXXXXXXXXXXXXXXXXX lQ",
"Ql XXXXXXXXXXXXXXXXXXXXXXXXXXXXXXXXXXXXXXXXXXXXXXXXXXXXXXXXXXXXXXXXXXXXXXXXXXXXXXXXXXXXXXXXXXXXXX lQ",
"Ql XXXXXXXXXXXXXXXXXXXXXXXXXXXXXXXXXXXXXXXXXXXXXXXXXXXXXXXXXXXXXXXXXXXXXXXXXXXXXXXXXXXXXXXXXXXXXX lQ",
"Ql XXXXXXXXXXXXXXXXXXXXXXXXXXXXXXXXXXXXXXXXXXXXXXXXXXXXXXXXXXXXXXXXXXXXXXXXXXXXXXXXXXXXXXXXXXXXXX lQ",
"Ql XXXXXXXXXXXXXXXXXXXXXXXXXXXXXXXXXXXXXXXXXXXXXXXXXXXXXXXXXXXXXXXXXXXXXXXXXXXXXXXXXXXXXXXXXXXXXX lQ",
"Ql XXXXXXXXXXXXXXXXXXXXXXXXXXXXXXXXXXXXXXXXXXXXXXXXXXXXXXXXXXXXXXXXXXXXXXXXXXXXXXXXXXXXXXXXXXXXXX lQ",
"Ql XXXXXXXXXXXXXXXXXXXXXXXXXXXXXXXXXXXXXXXXXXXXXXXXXXXXXXXXXXXXXXXXXXXXXXXXXXXXXXXXXXXXXXXXXXXXXX lQ",
"Ql XXXXXXXXXXXXXXXXXXXXXXXXXXXXXXXXXXXXXXXXXXXXXXXXXXXXXXXXXXXXXXXXXXXXXXXXXXXXXXXXXXXXXXXXXXXXXX lQ",
"Ql XXXXXXXXXXXXXXXXXXXXXXXXXXXXXXXXXXXXXXXXXXXXXXXXXXXXXXXXXXXXXXXXXXXXXXXXXXXXXXXXXXXXXXXXXXXXXX lQ",
"Ql XXXXXXXXXXXXXXXXXXXXXXXXXXXXXXXXXXXXXXXXXXXXXXXXXXXXXXXXXXXXXXXXXXXXXXXXXXXXXXXXXXXXXXXXXXXXXX lQ",
"Ql XXXXXXXXXXXXXXXXXXXXXXXXXXXXXXXXXXXXXXXXXXXXXXXXXXXXXXXXXXXXXXXXXXXXXXXXXXXXXXXXXXXXXXXXXXXXXX lQ",
"Ql XXXXXXXXXXXXXXXXXXXXXXXXXXXXXXXXXXXXXXXXXXXXXXXXXXXXXXXXXXXXXXXXXXXXXXXXXXXXXXXXXXXXXXXXXXXXXX lQ",
"Ql.XXXXXXXXXXXXXXXXXXXXXXXXXXXXXXXXXXXXXXXXXXXXXXXXXXXXXXXXXXXXXXXXXXXXXXXXXXXXXXXXXXXXXXXXXXXXXX lQ",
"Ql                                                                                                lQ",
"QdlllllllllllllllllllllllllllllllllllllllllllllllllllllllllllllllllllllllllllllllllllllllllllllllldQ",
"QQQQQQQQQQQQQQQQQQQQQQQQQQQQQQQQQQQQQQQQQQQQQQQQQQQQQQQQQQQQQQQQQQQQQQQQQQQQQQQQQQQQQQQQQQQQQQQQQQQQ"
};
