/* XPM */
static char *d2[] = {
/* columns rows colors chars-per-pixel */
"100 100 71 1 ",
"  c #686868",
". c #7C7C7C",
"X c #C3AF2A",
"o c #C3AF2E",
"O c #C4B031",
"+ c #C4B034",
"@ c #C5B23F",
"# c #C5B242",
"$ c #C6B346",
"% c #C6B348",
"& c #C6B44A",
"* c #C7B54E",
"= c #C7B552",
"- c #C8B656",
"; c #C9B759",
": c #CAB95F",
"> c #CAB962",
", c #CBBA65",
"< c #CBBB68",
"1 c #CCBB69",
"2 c #CCBC6B",
"3 c #CCBC6C",
"4 c #CEBE73",
"5 c #CEBF76",
"6 c #CFC078",
"7 c #D0C17B",
"8 c #D0C27F",
"9 c #AFAFAF",
"0 c gray70",
"q c #D1C382",
"w c #D2C485",
"e c #D3C588",
"r c #D5C890",
"t c #D6CA95",
"y c #D7CC99",
"u c #D8CC9A",
"i c #D9CE9F",
"p c #DACFA0",
"a c #DAD0A3",
"s c #DBD1A5",
"d c #DDD3AB",
"f c #DFD5AF",
"g c #DFD5B0",
"h c #E1D9B7",
"j c #E2DAB9",
"k c #E3DCBD",
"l c #E4DCBE",
"z c #E5DDC1",
"x c #E7E0C7",
"c c #E7E1C8",
"v c #E8E2CA",
"b c #E9E3CC",
"n c #EBE5D1",
"m c #ECE7D3",
"M c #ECE7D4",
"N c #EDE8D5",
"B c #EFEADA",
"V c #F0EBDC",
"C c #F0EDDE",
"Z c #F3EFE3",
"A c #F3F0E4",
"S c #F4F1E6",
"D c #F5F2E9",
"F c #F6F4EB",
"G c #F6F4EC",
"H c #F9F7F1",
"J c #FAF8F3",
"K c #FBF9F5",
"L c #FCFBF9",
"P c #FDFCFA",
"I c white",
/* pixels */
"IIIIIIIIIIIIIIIIIIIIIIIIIIIIIIIIIIIIIIIIIIIIIIIIIIIIIIIIIIIIIIIIIIIIIIIIIIIIIIIIIIIIIIIIIIIIIIIIIIII",
"I90000000000000000000000000000000000000000000000000000000000000000000000000000000000000000000000009I",
"I0                                                                                                0I",
"I0 XXXXXXXXXXXXXXXXXXXXXXXXXXXXXXXXXXXXXXXXXXXXXXXXXXXXXXXXXXXXXXXXXXXXXXXXXXXXXXXXXXXXXXXXXXXXXX 0I",
"I0 XXXXXXXXXXXXXXXXXXXXXXXXXXXXXXXXXXXXXXXXXXXXXXXXXXXXXXXXXXXXXXXXXXXXXXXXXXXXXXXXXXXXXXXXXXXXXX 0I",
"I0 XXXXXXXXXXXXXXXXXXXXXXXXXXXXXXXXXXXXXXXXXXXXXXXXXXXXXXXXXXXXXXXXXXXXXXXXXXXXXXXXXXXXXXXXXXXXXX 0I",
"I0 XXXXXXXXXXXXXXXXXXXXXXXXXXXXXXXXXXXXXXXXXXXXXXXXXXXXXXXXXXXXXXXXXXXXXXXXXXXXXXXXXXXXXXXXXXXXXX 0I",
"I0 XXXXXXXXXXXXXXXXXXXXXXXXXXXXXXXXXXXXXXXXXXXXXXXXXXXXXXXXXXXXXXXXXXXXXXXXXXXXXXXXXXXXXXXXXXXXXX 0I",
"I0 XXXXXXXXXXXXXXXXXXXXXXXXXXXXXXXXXXXXXXXXXXXXXXXXXXXXXXXXXXXXXXXXXXXXXXXXXXXXXXXXXXXXXXXXXXXXXX 0I",
"I0 XXXXXXXXXXXXXXXXXXXXXXXXXXXXXXXXXXXXXXXXXXXXXXXXXXXXXXXXXXXXXXXXXXXXXXXXXXXXXXXXXXXXXXXXXXXXXX 0I",
"I0 XXXXXXXXXXXXXXXXXXXXXXXXXXXXXXXXXXXXXXXXXXXXXXXXXXXXXXXXXXXXXXXXXXXXXXXXXXXXXXXXXXXXXXXXXXXXXX 0I",
"I0 XXXXXXXXXXXXXXXXXXXXXXXXXXXXXXXXXXXXXXXXXXXXXXXXXXXXXXXXXXXXXXXXXXXXXXXXXXXXXXXXXXXXXXXXXXXXXX 0I",
"I0 XXXXXXXXXXXXXXXXXXXXXXXXXXXXXXXXXXXXXXXXXXXXXXXXXXXXXXXXXXXXXXXXXXXXXXXXXXXXXXXXXXXXXXXXXXXXXX 0I",
"I0 XXXXXXXXXXXXXXXXXXXXXXXXXXXXXXXXXXXXXXXXXXXXXXXXXXXXXXXXXXXXXXXXXXXXXXXXXXXXXXXXXXXXXXXXXXXXXX 0I",
"I0 XXXXXXXXXXXXXXXXXXXXXXXXXXXXXXXXXXXXXXXXXXXXXXXXXXXXXXXXXXXXXXXXXXXXXXXXXXXXXXXXXXXXXXXXXXXXXX 0I",
"I0 XXXXXXXXXXXXXXXXXXXXXXXXXXXXXXXXXXXXXXXXXXXXXXXXXXXXXXXXXXXXXXXXXXXXXXXXXXXXXXXXXXXXXXXXXXXXXX 0I",
"I0 XXXXXXXXXXXXXXXXXXXXXXXXXXXXXXXXXXXXXXXXXXXXXXXXXXXXXXXXXXXXXXXXXXXXXXXXXXXXXXXXXXXXXXXXXXXXXX 0I",
"I0 XXXXXXXXXXXXXXXXXXXXXXXXXXXXXXXXXXXXXXXXXXXXXXXXXXXXXXXXXXXXXXXXXXXXXXXXXXXXXXXXXXXXXXXXXXXXXX 0I",
"I0 XXXXXXXXXXXXXXXXXXXXXXXXXXXXXXXXXXXXXXXXXXXXXXXXXXXXXXXXXXXXXXXXXXXXXXXXXXXXXXXXXXXXXXXXXXXXXX 0I",
"I0 XXXXXXXXXXXXXXXXXXXXXXXXXXXXXXXXXXXXXXXXXXXXXXXXXXXXXXXXXXXXXXXXXXXXXXXXXXXXXXXXXXXXXXXXXXXXXX 0I",
"I0 XXXXXXXXXXXXXXXXXXXXXXXXXXXXXmIIIIIIIIIIIIPKHZMzi2XXXXXXXXXXXXXXXXXXXXXXXXXXXXXXXXXXXXXXXXXXXX 0I",
"I0 XXXXXXXXXXXXXXXXXXXXXXXXXXXXXmIIIIIIIIIIIIIIIIIIIIJbt+XXXXXXXXXXXXXXXXXXXXXXXXXXXXXXXXXXXXXXXX 0I",
"I0 XXXXXXXXXXXXXXXXXXXXXXXXXXXXXmIIIIIIIIIIIIIIIIIIIIIIIHh*XXXXXXXXXXXXXXXXXXXXXXXXXXXXXXXXXXXXXX 0I",
"I0 XXXXXXXXXXXXXXXXXXXXXXXXXXXXXmIIIIIIIIIIIIIIIIIIIIIIIIIKdOXXXXXXXXXXXXXXXXXXXXXXXXXXXXXXXXXXXX 0I",
"I0 XXXXXXXXXXXXXXXXXXXXXXXXXXXXXmIIIIIIIIIIIIIIIIIIIIIIIIIIIZ:XXXXXXXXXXXXXXXXXXXXXXXXXXXXXXXXXXX 0I",
"I0 XXXXXXXXXXXXXXXXXXXXXXXXXXXXXmIIIIIIIIIIIIIIIIIIIIIIIIIIIIKwXXXXXXXXXXXXXXXXXXXXXXXXXXXXXXXXXX 0I",
"I0 XXXXXXXXXXXXXXXXXXXXXXXXXXXXXmIIIIIIIs,,,25qugbSIIIIIIIIIIILwXXXXXXXXXXXXXXXXXXXXXXXXXXXXXXXXX 0I",
"I0 XXXXXXXXXXXXXXXXXXXXXXXXXXXXXmIIIIIIItXXXXXXXXXX;dSIIIIIIIIIL4XXXXXXXXXXXXXXXXXXXXXXXXXXXXXXXX 0I",
"I0 XXXXXXXXXXXXXXXXXXXXXXXXXXXXXmIIIIIIItXXXXXXXXXXXXXrGIIIIIIIIG%XXXXXXXXXXXXXXXXXXXXXXXXXXXXXXX 0I",
"I0 XXXXXXXXXXXXXXXXXXXXXXXXXXXXXmIIIIIIItXXXXXXXXXXXXXX#nIIIIIIIIvXXXXXXXXXXXXXXXXXXXXXXXXXXXXXXX 0I",
"I0 XXXXXXXXXXXXXXXXXXXXXXXXXXXXXmIIIIIIItXXXXXXXXXXXXXXXXbIIIIIIII7XXXXXXXXXXXXXXXXXXXXXXXXXXXXXX 0I",
"I0 XXXXXXXXXXXXXXXXXXXXXXXXXXXXXmIIIIIIItXXXXXXXXXXXXXXXXOAIIIIIIICXXXXXXXXXXXXXXXXXXXXXXXXXXXXXX 0I",
"I0 XXXXXXXXXXXXXXXXXXXXXXXXXXXXXmIIIIIIItXXXXXXXXXXXXXXXXX4IIIIIIII7XXXXXXXXXXXXXXXXXXXXXXXXXXXXX 0I",
"I0 XXXXXXXXXXXXXXXXXXXXXXXXXXXXXmIIIIIIItXXXXXXXXXXXXXXXXXXnIIIIIIInXXXXXXXXXXXXXXXXXXXXXXXXXXXXX 0I",
"I0 XXXXXXXXXXXXXXXXXXXXXXXXXXXXXmIIIIIIItXXXXXXXXXXXXXXXXXX8IIIIIIIP$XXXXXXXXXXXXXXXXXXXXXXXXXXXX 0I",
"I0 XXXXXXXXXXXXXXXXXXXXXXXXXXXXXmIIIIIIItXXXXXXXXXXXXXXXXXXXGIIIIIIIiXXXXXXXXXXXXXXXXXXXXXXXXXXXX 0I",
"I0 XXXXXXXXXXXXXXXXXXXXXXXXXXXXXmIIIIIIItXXXXXXXXXXXXXXXXXXXzIIIIIIImXXXXXXXXXXXXXXXXXXXXXXXXXXXX 0I",
"I0 XXXXXXXXXXXXXXXXXXXXXXXXXXXXXmIIIIIIItXXXXXXXXXXXXXXXXXXXrIIIIIIIJXXXXXXXXXXXXXXXXXXXXXXXXXXXX 0I",
"I0 XXXXXXXXXXXXXXXXXXXXXXXXXXXXXmIIIIIIItXXXXXXXXXXXXXXXXXXX&IIIIIIII<XXXXXXXXXXXXXXXXXXXXXXXXXXX 0I",
"I0 XXXXXXXXXXXXXXXXXXXXXXXXXXXXXmIIIIIIItXXXXXXXXXXXXXXXXXXXXHIIIIIIIpXXXXXXXXXXXXXXXXXXXXXXXXXXX 0I",
"I0 XXXXXXXXXXXXXXXXXXXXXXXXXXXXXmIIIIIIItXXXXXXXXXXXXXXXXXXXXBIIIIIIIkXXXXXXXXXXXXXXXXXXXXXXXXXXX 0I",
"I0 XXXXXXXXXXXXXXXXXXXXXXXXXXXXXmIIIIIIItXXXXXXXXXXXXXXXXXXXXcIIIIIIIMXXXXXXXXXXXXXXXXXXXXXXXXXXX 0I",
"I0 XXXXXXXXXXXXXXXXXXXXXXXXXXXXXmIIIIIIItXXXXXXXXXXXXXXXXXXXXhIIIIIIIDXXXXXXXXXXXXXXXXXXXXXXXXXXX 0I",
"I0 XXXXXXXXXXXXXXXXXXXXXXXXXXXXXmIIIIIIItXXXXXXXXXXXXXXXXXXXXaIIIIIIIJXXXXXXXXXXXXXXXXXXXXXXXXXXX 0I",
"I0 XXXXXXXXXXXXXXXXXXXXXXXXXXXXXmIIIIIIItXXXXXXXXXXXXXXXXXXXXtIIIIIIIIXXXXXXXXXXXXXXXXXXXXXXXXXXX 0I",
"I0 XXXXXXXXXXXXXXXXXXXXXXXXXXXXXmIIIIIIItXXXXXXXXXXXXXXXXXXXXwIIIIIIII-XXXXXXXXXXXXXXXXXXXXXXXXXX 0I",
"I0 XXXXXXXXXXXXXXXXXXXXXXXXXXXXXmIIIIIIItXXXXXXXXXXXXXXXXXXXX6IIIIIIII,XXXXXXXXXXXXXXXXXXXXXXXXXX 0I",
"I0 XXXXXXXXXXXXXXXXXXXXXXXXXXXXXmIIIIIIItXXXXXXXXXXXXXXXXXXXX4IIIIIIII4XXXXXXXXXXXXXXXXXXXXXXXXXX 0I",
"I0 XXXXXXXXXXXXXXXXXXXXXXXXXXXXXmIIIIIIItXXXXXXXXXXXXXXXXXXXX3IIIIIIII6XXXXXXXXXXXXXXXXXXXXXXXXXX 0I",
"I0 XXXXXXXXXXXXXXXXXXXXXXXXXXXXXmIIIIIIItXXXXXXXXXXXXXXXXXXXX,IIIIIIIIqXXXXXXXXXXXXXXXXXXXXXXXXXX 0I",
"I0 XXXXXXXXXXXXXXXXXXXXXXXXXXXXXmIIIIIIItXXXXXXXXXXXXXXXXXXXX3IIIIIIII6XXXXXXXXXXXXXXXXXXXXXXXXXX 0I",
"I0 XXXXXXXXXXXXXXXXXXXXXXXXXXXXXmIIIIIIItXXXXXXXXXXXXXXXXXXXX4IIIIIIII4XXXXXXXXXXXXXXXXXXXXXXXXXX 0I",
"I0 XXXXXXXXXXXXXXXXXXXXXXXXXXXXXmIIIIIIItXXXXXXXXXXXXXXXXXXXX6IIIIIIII<XXXXXXXXXXXXXXXXXXXXXXXXXX 0I",
"I0 XXXXXXXXXXXXXXXXXXXXXXXXXXXXXmIIIIIIItXXXXXXXXXXXXXXXXXXXXeIIIIIIII-XXXXXXXXXXXXXXXXXXXXXXXXXX 0I",
"I0 XXXXXXXXXXXXXXXXXXXXXXXXXXXXXmIIIIIIItXXXXXXXXXXXXXXXXXXXXtIIIIIIIIoXXXXXXXXXXXXXXXXXXXXXXXXXX 0I",
"I0 XXXXXXXXXXXXXXXXXXXXXXXXXXXXXmIIIIIIItXXXXXXXXXXXXXXXXXXXXsIIIIIIIKXXXXXXXXXXXXXXXXXXXXXXXXXXX 0I",
"I0 XXXXXXXXXXXXXXXXXXXXXXXXXXXXXmIIIIIIItXXXXXXXXXXXXXXXXXXXXhIIIIIIIDXXXXXXXXXXXXXXXXXXXXXXXXXXX 0I",
"I0 XXXXXXXXXXXXXXXXXXXXXXXXXXXXXmIIIIIIItXXXXXXXXXXXXXXXXXXXXvIIIIIIINXXXXXXXXXXXXXXXXXXXXXXXXXXX 0I",
"I0 XXXXXXXXXXXXXXXXXXXXXXXXXXXXXmIIIIIIItXXXXXXXXXXXXXXXXXXXXVIIIIIIIlXXXXXXXXXXXXXXXXXXXXXXXXXXX 0I",
"I0 XXXXXXXXXXXXXXXXXXXXXXXXXXXXXmIIIIIIItXXXXXXXXXXXXXXXXXXXXJIIIIIIIpXXXXXXXXXXXXXXXXXXXXXXXXXXX 0I",
"I0 XXXXXXXXXXXXXXXXXXXXXXXXXXXXXmIIIIIIItXXXXXXXXXXXXXXXXXXX=IIIIIIII3XXXXXXXXXXXXXXXXXXXXXXXXXXX 0I",
"I0 XXXXXXXXXXXXXXXXXXXXXXXXXXXXXmIIIIIIItXXXXXXXXXXXXXXXXXXXyIIIIIIIJXXXXXXXXXXXXXXXXXXXXXXXXXXXX 0I",
"I0 XXXXXXXXXXXXXXXXXXXXXXXXXXXXXmIIIIIIItXXXXXXXXXXXXXXXXXXXxIIIIIIIMXXXXXXXXXXXXXXXXXXXXXXXXXXXX 0I",
"I0 XXXXXXXXXXXXXXXXXXXXXXXXXXXXXmIIIIIIItXXXXXXXXXXXXXXXXXXoHIIIIIIIiXXXXXXXXXXXXXXXXXXXXXXXXXXXX 0I",
"I0 XXXXXXXXXXXXXXXXXXXXXXXXXXXXXmIIIIIIItXXXXXXXXXXXXXXXXXXeIIIIIIIP$XXXXXXXXXXXXXXXXXXXXXXXXXXXX 0I",
"I0 XXXXXXXXXXXXXXXXXXXXXXXXXXXXXmIIIIIIItXXXXXXXXXXXXXXXXXXBIIIIIIImXXXXXXXXXXXXXXXXXXXXXXXXXXXXX 0I",
"I0 XXXXXXXXXXXXXXXXXXXXXXXXXXXXXmIIIIIIItXXXXXXXXXXXXXXXXXqIIIIIIII8XXXXXXXXXXXXXXXXXXXXXXXXXXXXX 0I",
"I0 XXXXXXXXXXXXXXXXXXXXXXXXXXXXXmIIIIIIItXXXXXXXXXXXXXXXX@FIIIIIIIZXXXXXXXXXXXXXXXXXXXXXXXXXXXXXX 0I",
"I0 XXXXXXXXXXXXXXXXXXXXXXXXXXXXXmIIIIIIItXXXXXXXXXXXXXXXONIIIIIIII8XXXXXXXXXXXXXXXXXXXXXXXXXXXXXX 0I",
"I0 XXXXXXXXXXXXXXXXXXXXXXXXXXXXXmIIIIIIItXXXXXXXXXXXXXX*BIIIIIIIIvXXXXXXXXXXXXXXXXXXXXXXXXXXXXXXX 0I",
"I0 XXXXXXXXXXXXXXXXXXXXXXXXXXXXXmIIIIIIItXXXXXXXXXXXXXyHIIIIIIIIG&XXXXXXXXXXXXXXXXXXXXXXXXXXXXXXX 0I",
"I0 XXXXXXXXXXXXXXXXXXXXXXXXXXXXXmIIIIIIItXXXXXXXXXX;dDIIIIIIIIIP5XXXXXXXXXXXXXXXXXXXXXXXXXXXXXXXX 0I",
"I0 XXXXXXXXXXXXXXXXXXXXXXXXXXXXXmIIIIIIIs,,,15qyfbSIIIIIIIIIIIPeXXXXXXXXXXXXXXXXXXXXXXXXXXXXXXXXX 0I",
"I0 XXXXXXXXXXXXXXXXXXXXXXXXXXXXXmIIIIIIIIIIIIIIIIIIIIIIIIIIIIKeXXXXXXXXXXXXXXXXXXXXXXXXXXXXXXXXXX 0I",
"I0 XXXXXXXXXXXXXXXXXXXXXXXXXXXXXmIIIIIIIIIIIIIIIIIIIIIIIIIIIZ>XXXXXXXXXXXXXXXXXXXXXXXXXXXXXXXXXXX 0I",
"I0 XXXXXXXXXXXXXXXXXXXXXXXXXXXXXmIIIIIIIIIIIIIIIIIIIIIIIIIKfOXXXXXXXXXXXXXXXXXXXXXXXXXXXXXXXXXXXX 0I",
"I0 XXXXXXXXXXXXXXXXXXXXXXXXXXXXXmIIIIIIIIIIIIIIIIIIIIIIIJj=XXXXXXXXXXXXXXXXXXXXXXXXXXXXXXXXXXXXXX 0I",
"I0 XXXXXXXXXXXXXXXXXXXXXXXXXXXXXmIIIIIIIIIIIIIIIIIIIIKbt+XXXXXXXXXXXXXXXXXXXXXXXXXXXXXXXXXXXXXXXX 0I",
"I0 XXXXXXXXXXXXXXXXXXXXXXXXXXXXXmIIIIIIIIIIIIPKHANzp3XXXXXXXXXXXXXXXXXXXXXXXXXXXXXXXXXXXXXXXXXXXX 0I",
"I0 XXXXXXXXXXXXXXXXXXXXXXXXXXXXXXXXXXXXXXXXXXXXXXXXXXXXXXXXXXXXXXXXXXXXXXXXXXXXXXXXXXXXXXXXXXXXXX 0I",
"I0 XXXXXXXXXXXXXXXXXXXXXXXXXXXXXXXXXXXXXXXXXXXXXXXXXXXXXXXXXXXXXXXXXXXXXXXXXXXXXXXXXXXXXXXXXXXXXX 0I",
"I0 XXXXXXXXXXXXXXXXXXXXXXXXXXXXXXXXXXXXXXXXXXXXXXXXXXXXXXXXXXXXXXXXXXXXXXXXXXXXXXXXXXXXXXXXXXXXXX 0I",
"I0 XXXXXXXXXXXXXXXXXXXXXXXXXXXXXXXXXXXXXXXXXXXXXXXXXXXXXXXXXXXXXXXXXXXXXXXXXXXXXXXXXXXXXXXXXXXXXX 0I",
"I0 XXXXXXXXXXXXXXXXXXXXXXXXXXXXXXXXXXXXXXXXXXXXXXXXXXXXXXXXXXXXXXXXXXXXXXXXXXXXXXXXXXXXXXXXXXXXXX 0I",
"I0 XXXXXXXXXXXXXXXXXXXXXXXXXXXXXXXXXXXXXXXXXXXXXXXXXXXXXXXXXXXXXXXXXXXXXXXXXXXXXXXXXXXXXXXXXXXXXX 0I",
"I0 XXXXXXXXXXXXXXXXXXXXXXXXXXXXXXXXXXXXXXXXXXXXXXXXXXXXXXXXXXXXXXXXXXXXXXXXXXXXXXXXXXXXXXXXXXXXXX 0I",
"I0 XXXXXXXXXXXXXXXXXXXXXXXXXXXXXXXXXXXXXXXXXXXXXXXXXXXXXXXXXXXXXXXXXXXXXXXXXXXXXXXXXXXXXXXXXXXXXX 0I",
"I0 XXXXXXXXXXXXXXXXXXXXXXXXXXXXXXXXXXXXXXXXXXXXXXXXXXXXXXXXXXXXXXXXXXXXXXXXXXXXXXXXXXXXXXXXXXXXXX 0I",
"I0 XXXXXXXXXXXXXXXXXXXXXXXXXXXXXXXXXXXXXXXXXXXXXXXXXXXXXXXXXXXXXXXXXXXXXXXXXXXXXXXXXXXXXXXXXXXXXX 0I",
"I0 XXXXXXXXXXXXXXXXXXXXXXXXXXXXXXXXXXXXXXXXXXXXXXXXXXXXXXXXXXXXXXXXXXXXXXXXXXXXXXXXXXXXXXXXXXXXXX 0I",
"I0 XXXXXXXXXXXXXXXXXXXXXXXXXXXXXXXXXXXXXXXXXXXXXXXXXXXXXXXXXXXXXXXXXXXXXXXXXXXXXXXXXXXXXXXXXXXXXX 0I",
"I0 XXXXXXXXXXXXXXXXXXXXXXXXXXXXXXXXXXXXXXXXXXXXXXXXXXXXXXXXXXXXXXXXXXXXXXXXXXXXXXXXXXXXXXXXXXXXXX 0I",
"I0 XXXXXXXXXXXXXXXXXXXXXXXXXXXXXXXXXXXXXXXXXXXXXXXXXXXXXXXXXXXXXXXXXXXXXXXXXXXXXXXXXXXXXXXXXXXXXX 0I",
"I0 XXXXXXXXXXXXXXXXXXXXXXXXXXXXXXXXXXXXXXXXXXXXXXXXXXXXXXXXXXXXXXXXXXXXXXXXXXXXXXXXXXXXXXXXXXXXXX 0I",
"I0 XXXXXXXXXXXXXXXXXXXXXXXXXXXXXXXXXXXXXXXXXXXXXXXXXXXXXXXXXXXXXXXXXXXXXXXXXXXXXXXXXXXXXXXXXXXXXX 0I",
"I0 XXXXXXXXXXXXXXXXXXXXXXXXXXXXXXXXXXXXXXXXXXXXXXXXXXXXXXXXXXXXXXXXXXXXXXXXXXXXXXXXXXXXXXXXXXXXXX 0I",
"I0.XXXXXXXXXXXXXXXXXXXXXXXXXXXXXXXXXXXXXXXXXXXXXXXXXXXXXXXXXXXXXXXXXXXXXXXXXXXXXXXXXXXXXXXXXXXXXX 0I",
"I0                                                                                                0I",
"I90000000000000000000000000000000000000000000000000000000000000000000000000000000000000000000000009I",
"IIIIIIIIIIIIIIIIIIIIIIIIIIIIIIIIIIIIIIIIIIIIIIIIIIIIIIIIIIIIIIIIIIIIIIIIIIIIIIIIIIIIIIIIIIIIIIIIIIII"
};
