/* XPM */
static char *d3[] = {
/* columns rows colors chars-per-pixel */
"100 100 37 1 ",
"  c #686868",
". c #727272",
"X c #747474",
"o c gray48",
"O c gray50",
"+ c #818181",
"@ c gray52",
"# c #888888",
"$ c gray56",
"% c #939393",
"& c #959595",
"* c #9B9B9B",
"= c #9F9F9F",
"- c #A0A0A0",
"; c #A7A7A7",
": c #AAAAAA",
"> c #AFAFAF",
", c gray70",
"< c #B6B6B6",
"1 c #BBBBBB",
"2 c gray",
"3 c #C3C3C3",
"4 c gray77",
"5 c #CACACA",
"6 c gray80",
"7 c gray82",
"8 c gray83",
"9 c gray86",
"0 c gainsboro",
"q c gray88",
"w c #E6E6E6",
"e c gray91",
"r c #EFEFEF",
"t c #F3F3F3",
"y c gray96",
"u c gray98",
"i c white",
/* pixels */
"iiiiiiiiiiiiiiiiiiiiiiiiiiiiiiiiiiiiiiiiiiiiiiiiiiiiiiiiiiiiiiiiiiiiiiiiiiiiiiiiiiiiiiiiiiiiiiiiiiii",
"i>,,,,,,,,,,,,,,,,,,,,,,,,,,,,,,,,,,,,,,,,,,,,,,,,,,,,,,,,,,,,,,,,,,,,,,,,,,,,,,,,,,,,,,,,,,,,,,,,>i",
"i,                                                                                                ,i",
"i, .............................................................................................. ,i",
"i, .............................................................................................. ,i",
"i, .............................................................................................. ,i",
"i, .............................................................................................. ,i",
"i, .............................................................................................. ,i",
"i, .............................................................................................. ,i",
"i, .............................................................................................. ,i",
"i, .............................................................................................. ,i",
"i, .............................................................................................. ,i",
"i, .............................................................................................. ,i",
"i, .............................................................................................. ,i",
"i, .............................................................................................. ,i",
"i, .............................................................................................. ,i",
"i, .............................................................................................. ,i",
"i, .............................................................................................. ,i",
"i, .............................................................................................. ,i",
"i, .............................................................................................. ,i",
"i, .............................9iiiiiiiiiiiiuyte96,$............................................ ,i",
"i, .............................9iiiiiiiiiiiiiiiiiiiiy8:X........................................ ,i",
"i, .............................9iiiiiiiiiiiiiiiiiiiiiiit4O...................................... ,i",
"i, .............................9iiiiiiiiiiiiiiiiiiiiiiiiiy1X.................................... ,i",
"i, .............................9iiiiiiiiiiiiiiiiiiiiiiiiiiiw#................................... ,i",
"i, .............................9iiiiiiiiiiiiiiiiiiiiiiiiiiiiy=.................................. ,i",
"i, .............................9iiiiiii<###$&=>28eiiiiiiiiiiiu-................................. ,i",
"i, .............................9iiiiiii:..........@1eiiiiiiiiiu&................................ ,i",
"i, .............................9iiiiiii:.............;riiiiiiiirO............................... ,i",
"i, .............................9iiiiiii:..............o9iiiiiiii7............................... ,i",
"i, .............................9iiiiiii:................8iiiiiiii*.............................. ,i",
"i, .............................9iiiiiii:................Xeiiiiiiiq.............................. ,i",
"i, .............................9iiiiiii:.................&iiiiiiii*............................. ,i",
"i, .............................9iiiiiii:..................9iiiiiii9............................. ,i",
"i, .............................9iiiiiii:..................*iiiiiiiuo............................ ,i",
"i, .............................9iiiiiii:...................riiiiiii,............................ ,i",
"i, .............................9iiiiiii:...................6iiiiiii9............................ ,i",
"i, .............................9iiiiiii:...................:iiiiiiiy............................ ,i",
"i, .............................9iiiiiii:...................Oiiiiiiii$........................... ,i",
"i, .............................9iiiiiii:....................tiiiiiii,........................... ,i",
"i, .............................9iiiiiii:....................qiiiiiii5........................... ,i",
"i, .............................9iiiiiii:....................7iiiiiii0........................... ,i",
"i, .............................9iiiiiii:....................3iiiiiiie........................... ,i",
"i, .............................9iiiiiii:....................<iiiiiiiy........................... ,i",
"i, .............................9iiiiiii:....................:iiiiiiii........................... ,i",
"i, .............................9iiiiiii:....................-iiiiiiii+.......................... ,i",
"i, .............................9iiiiiii:....................&iiiiiiii$.......................... ,i",
"i, .............................9iiiiiii:....................%iiiiiiii%.......................... ,i",
"i, .............................9iiiiiii:....................$iiiiiiii*.......................... ,i",
"i, .............................9iiiiiii:....................$iiiiiiii=.......................... ,i",
"i, .............................9iiiiiii:....................$iiiiiiii*.......................... ,i",
"i, .............................9iiiiiii:....................%iiiiiiii%.......................... ,i",
"i, .............................9iiiiiii:....................&iiiiiiii$.......................... ,i",
"i, .............................9iiiiiii:....................-iiiiiiii+.......................... ,i",
"i, .............................9iiiiiii:....................:iiiiiiii........................... ,i",
"i, .............................9iiiiiii:....................<iiiiiiiy........................... ,i",
"i, .............................9iiiiiii:....................4iiiiiiir........................... ,i",
"i, .............................9iiiiiii:....................7iiiiiii0........................... ,i",
"i, .............................9iiiiiii:....................qiiiiiii5........................... ,i",
"i, .............................9iiiiiii:....................yiiiiiii<........................... ,i",
"i, .............................9iiiiiii:...................+iiiiiiii$........................... ,i",
"i, .............................9iiiiiii:...................>iiiiiiiy............................ ,i",
"i, .............................9iiiiiii:...................7iiiiiii9............................ ,i",
"i, .............................9iiiiiii:...................tiiiiiii,............................ ,i",
"i, .............................9iiiiiii:..................-iiiiiiiuO............................ ,i",
"i, .............................9iiiiiii:..................qiiiiiii9............................. ,i",
"i, .............................9iiiiiii:.................=iiiiiiii*............................. ,i",
"i, .............................9iiiiiii:................oriiiiiiiw.............................. ,i",
"i, .............................9iiiiiii:...............X0iiiiiiii*.............................. ,i",
"i, .............................9iiiiiii:..............Oqiiiiiiii7............................... ,i",
"i, .............................9iiiiiii:.............>tiiiiiiiirO............................... ,i",
"i, .............................9iiiiiii:..........@1riiiiiiiiiu&................................ ,i",
"i, .............................9iiiiiii<###$&=>28eiiiiiiiiiiiu-................................. ,i",
"i, .............................9iiiiiiiiiiiiiiiiiiiiiiiiiiiiy-.................................. ,i",
"i, .............................9iiiiiiiiiiiiiiiiiiiiiiiiiiie#................................... ,i",
"i, .............................9iiiiiiiiiiiiiiiiiiiiiiiiiu2X.................................... ,i",
"i, .............................9iiiiiiiiiiiiiiiiiiiiiiiy4+...................................... ,i",
"i, .............................9iiiiiiiiiiiiiiiiiiiiy8:X........................................ ,i",
"i, .............................9iiiiiiiiiiiiuute06,%............................................ ,i",
"i, .............................................................................................. ,i",
"i, .............................................................................................. ,i",
"i, .............................................................................................. ,i",
"i, .............................................................................................. ,i",
"i, .............................................................................................. ,i",
"i, .............................................................................................. ,i",
"i, .............................................................................................. ,i",
"i, .............................................................................................. ,i",
"i, .............................................................................................. ,i",
"i, .............................................................................................. ,i",
"i, .............................................................................................. ,i",
"i, .............................................................................................. ,i",
"i, .............................................................................................. ,i",
"i, .............................................................................................. ,i",
"i, .............................................................................................. ,i",
"i, .............................................................................................. ,i",
"i, .............................................................................................. ,i",
"i,O.............................................................................................. ,i",
"i,                                                                                                ,i",
"i>,,,,,,,,,,,,,,,,,,,,,,,,,,,,,,,,,,,,,,,,,,,,,,,,,,,,,,,,,,,,,,,,,,,,,,,,,,,,,,,,,,,,,,,,,,,,,,,,>i",
"iiiiiiiiiiiiiiiiiiiiiiiiiiiiiiiiiiiiiiiiiiiiiiiiiiiiiiiiiiiiiiiiiiiiiiiiiiiiiiiiiiiiiiiiiiiiiiiiiiii"
};
