/* XPM */
static char *e[] = {
/* columns rows colors chars-per-pixel */
"100 100 13 1 ",
"  c #2E0000",
". c #686868",
"X c #7C7C7C",
"o c #A5A2A2",
"O c #ADAAAA",
"+ c #AFAFAF",
"@ c gray70",
"# c #DBDADA",
"$ c #EFEEEE",
"% c #F3F2F2",
"& c gray98",
"* c #FCFBFB",
"= c white",
/* pixels */
"====================================================================================================",
"=+@@@@@@@@@@@@@@@@@@@@@@@@@@@@@@@@@@@@@@@@@@@@@@@@@@@@@@@@@@@@@@@@@@@@@@@@@@@@@@@@@@@@@@@@@@@@@@@@+=",
"=@................................................................................................@=",
"=@.==============================================================================================.@=",
"=@.==============================================================================================.@=",
"=@.==============================================================================================.@=",
"=@.==============================================================================================.@=",
"=@.==============================================================================================.@=",
"=@.==============================================================================================.@=",
"=@.==============================================================================================.@=",
"=@.==============================================================================================.@=",
"=@.==============================================================================================.@=",
"=@.==============================================================================================.@=",
"=@.==============================================================================================.@=",
"=@.==============================================================================================.@=",
"=@.==============================================================================================.@=",
"=@.==============================================================================================.@=",
"=@.==============================================================================================.@=",
"=@.==============================================================================================.@=",
"=@.==============================================================================================.@=",
"=@.===============================#                                  #===========================.@=",
"=@.===============================#                                  #===========================.@=",
"=@.===============================#                                  #===========================.@=",
"=@.===============================#                                  #===========================.@=",
"=@.===============================#                                  #===========================.@=",
"=@.===============================#                                  #===========================.@=",
"=@.===============================#       o%%%%%%%%%%%%%%%%%%%%%%%%%%*===========================.@=",
"=@.===============================#       O======================================================.@=",
"=@.===============================#       O======================================================.@=",
"=@.===============================#       O======================================================.@=",
"=@.===============================#       O======================================================.@=",
"=@.===============================#       O======================================================.@=",
"=@.===============================#       O======================================================.@=",
"=@.===============================#       O======================================================.@=",
"=@.===============================#       O======================================================.@=",
"=@.===============================#       O======================================================.@=",
"=@.===============================#       O======================================================.@=",
"=@.===============================#       O======================================================.@=",
"=@.===============================#       O======================================================.@=",
"=@.===============================#       O======================================================.@=",
"=@.===============================#       O======================================================.@=",
"=@.===============================#       O======================================================.@=",
"=@.===============================#       O======================================================.@=",
"=@.===============================#       O======================================================.@=",
"=@.===============================#       o%%%%%%%%%%%%%%%%%%%%%%%%%=============================.@=",
"=@.===============================#                                 $============================.@=",
"=@.===============================#                                 $============================.@=",
"=@.===============================#                                 $============================.@=",
"=@.===============================#                                 $============================.@=",
"=@.===============================#                                 $============================.@=",
"=@.===============================#                                 $============================.@=",
"=@.===============================#       O======================================================.@=",
"=@.===============================#       O======================================================.@=",
"=@.===============================#       O======================================================.@=",
"=@.===============================#       O======================================================.@=",
"=@.===============================#       O======================================================.@=",
"=@.===============================#       O======================================================.@=",
"=@.===============================#       O======================================================.@=",
"=@.===============================#       O======================================================.@=",
"=@.===============================#       O======================================================.@=",
"=@.===============================#       O======================================================.@=",
"=@.===============================#       O======================================================.@=",
"=@.===============================#       O======================================================.@=",
"=@.===============================#       O======================================================.@=",
"=@.===============================#       O======================================================.@=",
"=@.===============================#       O======================================================.@=",
"=@.===============================#       O======================================================.@=",
"=@.===============================#       O======================================================.@=",
"=@.===============================#       O======================================================.@=",
"=@.===============================#       O======================================================.@=",
"=@.===============================#       O======================================================.@=",
"=@.===============================#       O======================================================.@=",
"=@.===============================#       o%%%%%%%%%%%%%%%%%%%%%%%%%%%===========================.@=",
"=@.===============================#                                   &==========================.@=",
"=@.===============================#                                   &==========================.@=",
"=@.===============================#                                   &==========================.@=",
"=@.===============================#                                   &==========================.@=",
"=@.===============================#                                   &==========================.@=",
"=@.===============================#                                   &==========================.@=",
"=@.==============================================================================================.@=",
"=@.==============================================================================================.@=",
"=@.==============================================================================================.@=",
"=@.==============================================================================================.@=",
"=@.==============================================================================================.@=",
"=@.==============================================================================================.@=",
"=@.==============================================================================================.@=",
"=@.==============================================================================================.@=",
"=@.==============================================================================================.@=",
"=@.==============================================================================================.@=",
"=@.==============================================================================================.@=",
"=@.==============================================================================================.@=",
"=@.==============================================================================================.@=",
"=@.==============================================================================================.@=",
"=@.==============================================================================================.@=",
"=@.==============================================================================================.@=",
"=@.==============================================================================================.@=",
"=@X==============================================================================================.@=",
"=@................................................................................................@=",
"=+@@@@@@@@@@@@@@@@@@@@@@@@@@@@@@@@@@@@@@@@@@@@@@@@@@@@@@@@@@@@@@@@@@@@@@@@@@@@@@@@@@@@@@@@@@@@@@@@+=",
"===================================================================================================="
};
