/* XPM */
static char *g[] = {
/* columns rows colors chars-per-pixel */
"100 100 81 1 ",
"  c #2E0000",
". c #310D0D",
"X c #341616",
"o c #371C1C",
"O c #3A2222",
"+ c #3D2626",
"@ c #3F2A2A",
"# c #443232",
"$ c #463535",
"% c #4A3B3B",
"& c #4E4040",
"* c #524545",
"= c #564949",
"- c #594D4D",
"; c #5E5353",
": c #5F5555",
"> c #615656",
", c #625858",
"< c #665D5D",
"1 c #685F5F",
"2 c #696060",
"3 c #6C6363",
"4 c #6E6666",
"5 c #686868",
"6 c #726A6A",
"7 c #736C6C",
"8 c #766E6E",
"9 c #7A7373",
"0 c #7C7C7C",
"q c #817A7A",
"w c #837E7E",
"e c #857F7F",
"r c #868080",
"t c #888282",
"y c #8B8585",
"u c #8F8A8A",
"i c #908B8B",
"p c #938F8F",
"a c #949090",
"s c #9B9797",
"d c #9D9999",
"f c #A29E9E",
"g c #A5A1A1",
"h c #A9A5A5",
"j c #ACA9A9",
"k c #AFAFAF",
"l c #B0ADAD",
"z c gray70",
"x c #B6B3B3",
"c c #B9B6B6",
"v c #BAB8B8",
"b c #BCBABA",
"n c #C1BEBE",
"m c #C3C0C0",
"M c #C4C2C2",
"N c #C6C4C4",
"B c #C9C7C7",
"V c #CBCACA",
"C c #CDCBCB",
"Z c #CECCCC",
"A c #D0CECE",
"S c #D3D1D1",
"D c #D4D2D2",
"F c #D5D4D4",
"G c #D8D6D6",
"H c #D9D8D8",
"J c #DCDBDB",
"K c #DFDEDE",
"L c #E0DFDF",
"P c #E2E1E1",
"I c #E5E4E4",
"U c #E8E7E7",
"Y c #E9E9E9",
"T c #ECEBEB",
"R c #EFEFEF",
"E c #F1F1F1",
"W c #F7F6F6",
"Q c #F8F7F7",
"! c #FBFBFB",
"~ c #FCFBFB",
"^ c white",
/* pixels */
"^^^^^^^^^^^^^^^^^^^^^^^^^^^^^^^^^^^^^^^^^^^^^^^^^^^^^^^^^^^^^^^^^^^^^^^^^^^^^^^^^^^^^^^^^^^^^^^^^^^^",
"^kzzzzzzzzzzzzzzzzzzzzzzzzzzzzzzzzzzzzzzzzzzzzzzzzzzzzzzzzzzzzzzzzzzzzzzzzzzzzzzzzzzzzzzzzzzzzzzzzk^",
"^z555555555555555555555555555555555555555555555555555555555555555555555555555555555555555555555555z^",
"^z5^^^^^^^^^^^^^^^^^^^^^^^^^^^^^^^^^^^^^^^^^^^^^^^^^^^^^^^^^^^^^^^^^^^^^^^^^^^^^^^^^^^^^^^^^^^^^^5z^",
"^z5^^^^^^^^^^^^^^^^^^^^^^^^^^^^^^^^^^^^^^^^^^^^^^^^^^^^^^^^^^^^^^^^^^^^^^^^^^^^^^^^^^^^^^^^^^^^^^5z^",
"^z5^^^^^^^^^^^^^^^^^^^^^^^^^^^^^^^^^^^^^^^^^^^^^^^^^^^^^^^^^^^^^^^^^^^^^^^^^^^^^^^^^^^^^^^^^^^^^^5z^",
"^z5^^^^^^^^^^^^^^^^^^^^^^^^^^^^^^^^^^^^^^^^^^^^^^^^^^^^^^^^^^^^^^^^^^^^^^^^^^^^^^^^^^^^^^^^^^^^^^5z^",
"^z5^^^^^^^^^^^^^^^^^^^^^^^^^^^^^^^^^^^^^^^^^^^^^^^^^^^^^^^^^^^^^^^^^^^^^^^^^^^^^^^^^^^^^^^^^^^^^^5z^",
"^z5^^^^^^^^^^^^^^^^^^^^^^^^^^^^^^^^^^^^^^^^^^^^^^^^^^^^^^^^^^^^^^^^^^^^^^^^^^^^^^^^^^^^^^^^^^^^^^5z^",
"^z5^^^^^^^^^^^^^^^^^^^^^^^^^^^^^^^^^^^^^^^^^^^^^^^^^^^^^^^^^^^^^^^^^^^^^^^^^^^^^^^^^^^^^^^^^^^^^^5z^",
"^z5^^^^^^^^^^^^^^^^^^^^^^^^^^^^^^^^^^^^^^^^^^^^^^^^^^^^^^^^^^^^^^^^^^^^^^^^^^^^^^^^^^^^^^^^^^^^^^5z^",
"^z5^^^^^^^^^^^^^^^^^^^^^^^^^^^^^^^^^^^^^^^^^^^^^^^^^^^^^^^^^^^^^^^^^^^^^^^^^^^^^^^^^^^^^^^^^^^^^^5z^",
"^z5^^^^^^^^^^^^^^^^^^^^^^^^^^^^^^^^^^^^^^^^^^^^^^^^^^^^^^^^^^^^^^^^^^^^^^^^^^^^^^^^^^^^^^^^^^^^^^5z^",
"^z5^^^^^^^^^^^^^^^^^^^^^^^^^^^^^^^^^^^^^^^^^^^^^^^^^^^^^^^^^^^^^^^^^^^^^^^^^^^^^^^^^^^^^^^^^^^^^^5z^",
"^z5^^^^^^^^^^^^^^^^^^^^^^^^^^^^^^^^^^^^^^^^^^^^^^^^^^^^^^^^^^^^^^^^^^^^^^^^^^^^^^^^^^^^^^^^^^^^^^5z^",
"^z5^^^^^^^^^^^^^^^^^^^^^^^^^^^^^^^^^^^^^^^^^^^^^^^^^^^^^^^^^^^^^^^^^^^^^^^^^^^^^^^^^^^^^^^^^^^^^^5z^",
"^z5^^^^^^^^^^^^^^^^^^^^^^^^^^^^^^^^^^^^^^^^^^^^^^^^^^^^^^^^^^^^^^^^^^^^^^^^^^^^^^^^^^^^^^^^^^^^^^5z^",
"^z5^^^^^^^^^^^^^^^^^^^^^^^^^^^^^^^^^^^^^^^^^^^^^^^^^^^^^^^^^^^^^^^^^^^^^^^^^^^^^^^^^^^^^^^^^^^^^^5z^",
"^z5^^^^^^^^^^^^^^^^^^^^^^^^^^^^^^^^^^^^^^^^^^^^^^^^^^^^^^^^^^^^^^^^^^^^^^^^^^^^^^^^^^^^^^^^^^^^^^5z^",
"^z5^^^^^^^^^^^^^^^^^^^^^^^^^^^^^^^^^^^^^^^^^^^^!Jcd9:%o=4qsnKQ^^^^^^^^^^^^^^^^^^^^^^^^^^^^^^^^^^^5z^",
"^z5^^^^^^^^^^^^^^^^^^^^^^^^^^^^^^^^^^^^^^^^^^GaO             osH^^^^^^^^^^^^^^^^^^^^^^^^^^^^^^^^^5z^",
"^z5^^^^^^^^^^^^^^^^^^^^^^^^^^^^^^^^^^^^^^^^S2                   :M^^^^^^^^^^^^^^^^^^^^^^^^^^^^^^^5z^",
"^z5^^^^^^^^^^^^^^^^^^^^^^^^^^^^^^^^^^^^^^Rw                       4F^^^^^^^^^^^^^^^^^^^^^^^^^^^^^5z^",
"^z5^^^^^^^^^^^^^^^^^^^^^^^^^^^^^^^^^^^^^D%                          R^^^^^^^^^^^^^^^^^^^^^^^^^^^^5z^",
"^z5^^^^^^^^^^^^^^^^^^^^^^^^^^^^^^^^^^^^N.                           R^^^^^^^^^^^^^^^^^^^^^^^^^^^^5z^",
"^z5^^^^^^^^^^^^^^^^^^^^^^^^^^^^^^^^^^^M          -gVPTERISxq.       R^^^^^^^^^^^^^^^^^^^^^^^^^^^^5z^",
"^z5^^^^^^^^^^^^^^^^^^^^^^^^^^^^^^^^^^F.        7S^^^^^^^^^^^Rc&     R^^^^^^^^^^^^^^^^^^^^^^^^^^^^5z^",
"^z5^^^^^^^^^^^^^^^^^^^^^^^^^^^^^^^^^R%       .c^^^^^^^^^^^^^^^Wl.   R^^^^^^^^^^^^^^^^^^^^^^^^^^^^5z^",
"^z5^^^^^^^^^^^^^^^^^^^^^^^^^^^^^^^^^w       OF^^^^^^^^^^^^^^^^^^I3  R^^^^^^^^^^^^^^^^^^^^^^^^^^^^5z^",
"^z5^^^^^^^^^^^^^^^^^^^^^^^^^^^^^^^^N        S^^^^^^^^^^^^^^^^^^^^Qs R^^^^^^^^^^^^^^^^^^^^^^^^^^^^5z^",
"^z5^^^^^^^^^^^^^^^^^^^^^^^^^^^^^^^Q=       k^^^^^^^^^^^^^^^^^^^^^^^hR^^^^^^^^^^^^^^^^^^^^^^^^^^^^5z^",
"^z5^^^^^^^^^^^^^^^^^^^^^^^^^^^^^^^c       1!^^^^^^^^^^^^^^^^^^^^^^^^^^^^^^^^^^^^^^^^^^^^^^^^^^^^^5z^",
"^z5^^^^^^^^^^^^^^^^^^^^^^^^^^^^^^!=       S^^^^^^^^^^^^^^^^^^^^^^^^^^^^^^^^^^^^^^^^^^^^^^^^^^^^^^5z^",
"^z5^^^^^^^^^^^^^^^^^^^^^^^^^^^^^^Z       3^^^^^^^^^^^^^^^^^^^^^^^^^^^^^^^^^^^^^^^^^^^^^^^^^^^^^^^5z^",
"^z5^^^^^^^^^^^^^^^^^^^^^^^^^^^^^^y       M^^^^^^^^^^^^^^^^^^^^^^^^^^^^^^^^^^^^^^^^^^^^^^^^^^^^^^^5z^",
"^z5^^^^^^^^^^^^^^^^^^^^^^^^^^^^^WX      .E^^^^^^^^^^^^^^^^^^^^^^^^^^^^^^^^^^^^^^^^^^^^^^^^^^^^^^^5z^",
"^z5^^^^^^^^^^^^^^^^^^^^^^^^^^^^^C       r^^^^^^^^^^^^^^^^^^^^^^^^^^^^^^^^^^^^^^^^^^^^^^^^^^^^^^^^5z^",
"^z5^^^^^^^^^^^^^^^^^^^^^^^^^^^^^f       v^^^^^^^^^^^^^^^^^^^^^^^^^^^^^^^^^^^^^^^^^^^^^^^^^^^^^^^^5z^",
"^z5^^^^^^^^^^^^^^^^^^^^^^^^^^^^^<       K^^^^^^^^^^^^^^^^^^^^^^^^^^^^^^^^^^^^^^^^^^^^^^^^^^^^^^^^5z^",
"^z5^^^^^^^^^^^^^^^^^^^^^^^^^^^^E        W^^^^^^^^^^^^^^^^^^^^^^^^^^^^^^^^^^^^^^^^^^^^^^^^^^^^^^^^5z^",
"^z5^^^^^^^^^^^^^^^^^^^^^^^^^^^^K       ,^^^^^^^^^^^^^^^^^^^^^^^^^^^^^^^^^^^^^^^^^^^^^^^^^^^^^^^^^5z^",
"^z5^^^^^^^^^^^^^^^^^^^^^^^^^^^^N       i^^^^^^^^^^^^^^^^^^^^^^^^^^^^^^^^^^^^^^^^^^^^^^^^^^^^^^^^^5z^",
"^z5^^^^^^^^^^^^^^^^^^^^^^^^^^^^j       h^^^^^^^^^^^^^^^^^^^^^^^^^^^^^^^^^^^^^^^^^^^^^^^^^^^^^^^^^5z^",
"^z5^^^^^^^^^^^^^^^^^^^^^^^^^^^^s       b^^^^^^^^^^^^^^^^^^^^^^^^^^^^^^^^^^^^^^^^^^^^^^^^^^^^^^^^^5z^",
"^z5^^^^^^^^^^^^^^^^^^^^^^^^^^^^e       B^^^^^^^^^^^^^^^^^^^^^^^^^^^^^^^^^^^^^^^^^^^^^^^^^^^^^^^^^5z^",
"^z5^^^^^^^^^^^^^^^^^^^^^^^^^^^^3       S^^^^^^^^^^^^^^^^^^^^^^^^^^^^^^^^^^^^^^^^^^^^^^^^^^^^^^^^^5z^",
"^z5^^^^^^^^^^^^^^^^^^^^^^^^^^^^=       H^^^^^^^^^^^^^^^^^^^^^^^^^^^^^^^^^^^^^^^^^^^^^^^^^^^^^^^^^5z^",
"^z5^^^^^^^^^^^^^^^^^^^^^^^^^^^^%       K^^^^^^^^^^^^^^^^^^^^^^^^^^^^^^^^^^^^^^^^^^^^^^^^^^^^^^^^^5z^",
"^z5^^^^^^^^^^^^^^^^^^^^^^^^^^^^o       P^^^^^^^^^^^^^^^^^^^^^^^^^^^^^^^^^^^^^^^^^^^^^^^^^^^^^^^^^5z^",
"^z5^^^^^^^^^^^^^^^^^^^^^^^^^^^^        P^^^^^^^^^^^^^^<               E^^^^^^^^^^^^^^^^^^^^^^^^^^5z^",
"^z5^^^^^^^^^^^^^^^^^^^^^^^^^^^^X       P^^^^^^^^^^^^^^<               E^^^^^^^^^^^^^^^^^^^^^^^^^^5z^",
"^z5^^^^^^^^^^^^^^^^^^^^^^^^^^^^#       K^^^^^^^^^^^^^^<               E^^^^^^^^^^^^^^^^^^^^^^^^^^5z^",
"^z5^^^^^^^^^^^^^^^^^^^^^^^^^^^^*       J^^^^^^^^^^^^^^<               E^^^^^^^^^^^^^^^^^^^^^^^^^^5z^",
"^z5^^^^^^^^^^^^^^^^^^^^^^^^^^^^1       F^^^^^^^^^^^^^^<               E^^^^^^^^^^^^^^^^^^^^^^^^^^5z^",
"^z5^^^^^^^^^^^^^^^^^^^^^^^^^^^^w       C^^^^^^^^^^^^^^<               E^^^^^^^^^^^^^^^^^^^^^^^^^^5z^",
"^z5^^^^^^^^^^^^^^^^^^^^^^^^^^^^a       n^^^^^^^^^^^^^^WEEEEEEEm       E^^^^^^^^^^^^^^^^^^^^^^^^^^5z^",
"^z5^^^^^^^^^^^^^^^^^^^^^^^^^^^^j       l^^^^^^^^^^^^^^^^^^^^^^C       E^^^^^^^^^^^^^^^^^^^^^^^^^^5z^",
"^z5^^^^^^^^^^^^^^^^^^^^^^^^^^^^M       s^^^^^^^^^^^^^^^^^^^^^^C       E^^^^^^^^^^^^^^^^^^^^^^^^^^5z^",
"^z5^^^^^^^^^^^^^^^^^^^^^^^^^^^^H       8^^^^^^^^^^^^^^^^^^^^^^C       E^^^^^^^^^^^^^^^^^^^^^^^^^^5z^",
"^z5^^^^^^^^^^^^^^^^^^^^^^^^^^^^E       o^^^^^^^^^^^^^^^^^^^^^^C       E^^^^^^^^^^^^^^^^^^^^^^^^^^5z^",
"^z5^^^^^^^^^^^^^^^^^^^^^^^^^^^^^>       U^^^^^^^^^^^^^^^^^^^^^C       E^^^^^^^^^^^^^^^^^^^^^^^^^^5z^",
"^z5^^^^^^^^^^^^^^^^^^^^^^^^^^^^^d       N^^^^^^^^^^^^^^^^^^^^^C       E^^^^^^^^^^^^^^^^^^^^^^^^^^5z^",
"^z5^^^^^^^^^^^^^^^^^^^^^^^^^^^^^V       s^^^^^^^^^^^^^^^^^^^^^C       E^^^^^^^^^^^^^^^^^^^^^^^^^^5z^",
"^z5^^^^^^^^^^^^^^^^^^^^^^^^^^^^^E.      $!^^^^^^^^^^^^^^^^^^^^C       E^^^^^^^^^^^^^^^^^^^^^^^^^^5z^",
"^z5^^^^^^^^^^^^^^^^^^^^^^^^^^^^^^w       F^^^^^^^^^^^^^^^^^^^^C       E^^^^^^^^^^^^^^^^^^^^^^^^^^5z^",
"^z5^^^^^^^^^^^^^^^^^^^^^^^^^^^^^^V       y^^^^^^^^^^^^^^^^^^^^C       E^^^^^^^^^^^^^^^^^^^^^^^^^^5z^",
"^z5^^^^^^^^^^^^^^^^^^^^^^^^^^^^^^!&       I^^^^^^^^^^^^^^^^^^^C       E^^^^^^^^^^^^^^^^^^^^^^^^^^5z^",
"^z5^^^^^^^^^^^^^^^^^^^^^^^^^^^^^^^l       y^^^^^^^^^^^^^^^^^^^C       E^^^^^^^^^^^^^^^^^^^^^^^^^^5z^",
"^z5^^^^^^^^^^^^^^^^^^^^^^^^^^^^^^^W%       V^^^^^^^^^^^^^^^^^^C       E^^^^^^^^^^^^^^^^^^^^^^^^^^5z^",
"^z5^^^^^^^^^^^^^^^^^^^^^^^^^^^^^^^^b       %I^^^^^^^^^^^^^^^^^C       E^^^^^^^^^^^^^^^^^^^^^^^^^^5z^",
"^z5^^^^^^^^^^^^^^^^^^^^^^^^^^^^^^^^~8       -Y^^^^^^^^^^^^^^^^C       E^^^^^^^^^^^^^^^^^^^^^^^^^^5z^",
"^z5^^^^^^^^^^^^^^^^^^^^^^^^^^^^^^^^^IO       %S^^^^^^^^^^^^^^!s       E^^^^^^^^^^^^^^^^^^^^^^^^^^5z^",
"^z5^^^^^^^^^^^^^^^^^^^^^^^^^^^^^^^^^^V         uL^^^^^^^^^^^A<        E^^^^^^^^^^^^^^^^^^^^^^^^^^5z^",
"^z5^^^^^^^^^^^^^^^^^^^^^^^^^^^^^^^^^^^z          4lAIREYPCg-          E^^^^^^^^^^^^^^^^^^^^^^^^^^5z^",
"^z5^^^^^^^^^^^^^^^^^^^^^^^^^^^^^^^^^^^^x                             6!^^^^^^^^^^^^^^^^^^^^^^^^^^5z^",
"^z5^^^^^^^^^^^^^^^^^^^^^^^^^^^^^^^^^^^^^N+                          s!^^^^^^^^^^^^^^^^^^^^^^^^^^^5z^",
"^z5^^^^^^^^^^^^^^^^^^^^^^^^^^^^^^^^^^^^^^I6                       -S^^^^^^^^^^^^^^^^^^^^^^^^^^^^^5z^",
"^z5^^^^^^^^^^^^^^^^^^^^^^^^^^^^^^^^^^^^^^^^N-                   =b!^^^^^^^^^^^^^^^^^^^^^^^^^^^^^^5z^",
"^z5^^^^^^^^^^^^^^^^^^^^^^^^^^^^^^^^^^^^^^^^^!At.             @pS!^^^^^^^^^^^^^^^^^^^^^^^^^^^^^^^^5z^",
"^z5^^^^^^^^^^^^^^^^^^^^^^^^^^^^^^^^^^^^^^^^^^^^WFxs7-$X%;qdbJ!^^^^^^^^^^^^^^^^^^^^^^^^^^^^^^^^^^^5z^",
"^z5^^^^^^^^^^^^^^^^^^^^^^^^^^^^^^^^^^^^^^^^^^^^^^^^^^^^^^^^^^^^^^^^^^^^^^^^^^^^^^^^^^^^^^^^^^^^^^5z^",
"^z5^^^^^^^^^^^^^^^^^^^^^^^^^^^^^^^^^^^^^^^^^^^^^^^^^^^^^^^^^^^^^^^^^^^^^^^^^^^^^^^^^^^^^^^^^^^^^^5z^",
"^z5^^^^^^^^^^^^^^^^^^^^^^^^^^^^^^^^^^^^^^^^^^^^^^^^^^^^^^^^^^^^^^^^^^^^^^^^^^^^^^^^^^^^^^^^^^^^^^5z^",
"^z5^^^^^^^^^^^^^^^^^^^^^^^^^^^^^^^^^^^^^^^^^^^^^^^^^^^^^^^^^^^^^^^^^^^^^^^^^^^^^^^^^^^^^^^^^^^^^^5z^",
"^z5^^^^^^^^^^^^^^^^^^^^^^^^^^^^^^^^^^^^^^^^^^^^^^^^^^^^^^^^^^^^^^^^^^^^^^^^^^^^^^^^^^^^^^^^^^^^^^5z^",
"^z5^^^^^^^^^^^^^^^^^^^^^^^^^^^^^^^^^^^^^^^^^^^^^^^^^^^^^^^^^^^^^^^^^^^^^^^^^^^^^^^^^^^^^^^^^^^^^^5z^",
"^z5^^^^^^^^^^^^^^^^^^^^^^^^^^^^^^^^^^^^^^^^^^^^^^^^^^^^^^^^^^^^^^^^^^^^^^^^^^^^^^^^^^^^^^^^^^^^^^5z^",
"^z5^^^^^^^^^^^^^^^^^^^^^^^^^^^^^^^^^^^^^^^^^^^^^^^^^^^^^^^^^^^^^^^^^^^^^^^^^^^^^^^^^^^^^^^^^^^^^^5z^",
"^z5^^^^^^^^^^^^^^^^^^^^^^^^^^^^^^^^^^^^^^^^^^^^^^^^^^^^^^^^^^^^^^^^^^^^^^^^^^^^^^^^^^^^^^^^^^^^^^5z^",
"^z5^^^^^^^^^^^^^^^^^^^^^^^^^^^^^^^^^^^^^^^^^^^^^^^^^^^^^^^^^^^^^^^^^^^^^^^^^^^^^^^^^^^^^^^^^^^^^^5z^",
"^z5^^^^^^^^^^^^^^^^^^^^^^^^^^^^^^^^^^^^^^^^^^^^^^^^^^^^^^^^^^^^^^^^^^^^^^^^^^^^^^^^^^^^^^^^^^^^^^5z^",
"^z5^^^^^^^^^^^^^^^^^^^^^^^^^^^^^^^^^^^^^^^^^^^^^^^^^^^^^^^^^^^^^^^^^^^^^^^^^^^^^^^^^^^^^^^^^^^^^^5z^",
"^z5^^^^^^^^^^^^^^^^^^^^^^^^^^^^^^^^^^^^^^^^^^^^^^^^^^^^^^^^^^^^^^^^^^^^^^^^^^^^^^^^^^^^^^^^^^^^^^5z^",
"^z5^^^^^^^^^^^^^^^^^^^^^^^^^^^^^^^^^^^^^^^^^^^^^^^^^^^^^^^^^^^^^^^^^^^^^^^^^^^^^^^^^^^^^^^^^^^^^^5z^",
"^z5^^^^^^^^^^^^^^^^^^^^^^^^^^^^^^^^^^^^^^^^^^^^^^^^^^^^^^^^^^^^^^^^^^^^^^^^^^^^^^^^^^^^^^^^^^^^^^5z^",
"^z5^^^^^^^^^^^^^^^^^^^^^^^^^^^^^^^^^^^^^^^^^^^^^^^^^^^^^^^^^^^^^^^^^^^^^^^^^^^^^^^^^^^^^^^^^^^^^^5z^",
"^z0^^^^^^^^^^^^^^^^^^^^^^^^^^^^^^^^^^^^^^^^^^^^^^^^^^^^^^^^^^^^^^^^^^^^^^^^^^^^^^^^^^^^^^^^^^^^^^5z^",
"^z555555555555555555555555555555555555555555555555555555555555555555555555555555555555555555555555z^",
"^kzzzzzzzzzzzzzzzzzzzzzzzzzzzzzzzzzzzzzzzzzzzzzzzzzzzzzzzzzzzzzzzzzzzzzzzzzzzzzzzzzzzzzzzzzzzzzzzzk^",
"^^^^^^^^^^^^^^^^^^^^^^^^^^^^^^^^^^^^^^^^^^^^^^^^^^^^^^^^^^^^^^^^^^^^^^^^^^^^^^^^^^^^^^^^^^^^^^^^^^^^"
};
