/* XPM */
static char *g1[] = {
/* columns rows colors chars-per-pixel */
"100 100 84 1 ",
"  c #686868",
". c #7C7C7C",
"X c #348032",
"o c #378135",
"O c #3A8238",
"+ c #3C823B",
"@ c #3F833D",
"# c #418440",
"$ c #448542",
"% c #468644",
"& c #488747",
"* c #4A8749",
"= c #4C884B",
"- c #4E894D",
"; c #528A51",
": c #558C54",
"> c #588D57",
", c #5C8F5B",
"< c #639362",
"1 c #6A9669",
"2 c #6D976C",
"3 c #6F996E",
"4 c #729A71",
"5 c #749B73",
"6 c #779D77",
"7 c #7B9F7A",
"8 c #7CA07B",
"9 c #80A280",
"0 c #83A483",
"q c #85A685",
"w c #88A788",
"e c #89A889",
"r c #8FAB8E",
"t c #8FAC8F",
"y c #93AE93",
"u c #94AF93",
"i c #95AF94",
"p c #96B095",
"a c #99B299",
"s c #9DB59D",
"d c #AFAFAF",
"f c #A3B9A3",
"g c #A6BBA6",
"h c #A7BCA7",
"j c #A8BCA7",
"k c #AABEAA",
"l c gray70",
"z c #ADC0AD",
"x c #B0C2AF",
"c c #B2C3B1",
"v c #B2C4B2",
"b c #B6C7B6",
"n c #B8C8B7",
"m c #BAC9B9",
"M c #BCCBBB",
"N c #BFCDBF",
"B c #C0CEC0",
"V c #C3D0C3",
"C c #C4D0C3",
"Z c #C6D2C6",
"A c #CBD6CB",
"S c #CCD7CC",
"D c #CED8CE",
"F c #D1DBD1",
"G c #D4DDD3",
"H c #D6DED6",
"J c #D9E1D9",
"K c #DCE3DB",
"L c #DCE3DC",
"P c #DEE5DE",
"I c #E1E7E1",
"U c #E3E9E3",
"Y c #E4E9E4",
"T c #E7ECE7",
"R c #E8ECE7",
"E c #EBEFEB",
"W c #EEF1EE",
"Q c #F0F3F0",
"! c #F2F5F2",
"~ c #F5F7F5",
"^ c #F7F8F7",
"/ c #F8F9F8",
"( c #FBFCFB",
") c white",
/* pixels */
"))))))))))))))))))))))))))))))))))))))))))))))))))))))))))))))))))))))))))))))))))))))))))))))))))))",
")dlllllllllllllllllllllllllllllllllllllllllllllllllllllllllllllllllllllllllllllllllllllllllllllllld)",
")l                                                                                                l)",
")l XXXXXXXXXXXXXXXXXXXXXXXXXXXXXXXXXXXXXXXXXXXXXXXXXXXXXXXXXXXXXXXXXXXXXXXXXXXXXXXXXXXXXXXXXXXXXX l)",
")l XXXXXXXXXXXXXXXXXXXXXXXXXXXXXXXXXXXXXXXXXXXXXXXXXXXXXXXXXXXXXXXXXXXXXXXXXXXXXXXXXXXXXXXXXXXXXX l)",
")l XXXXXXXXXXXXXXXXXXXXXXXXXXXXXXXXXXXXXXXXXXXXXXXXXXXXXXXXXXXXXXXXXXXXXXXXXXXXXXXXXXXXXXXXXXXXXX l)",
")l XXXXXXXXXXXXXXXXXXXXXXXXXXXXXXXXXXXXXXXXXXXXXXXXXXXXXXXXXXXXXXXXXXXXXXXXXXXXXXXXXXXXXXXXXXXXXX l)",
")l XXXXXXXXXXXXXXXXXXXXXXXXXXXXXXXXXXXXXXXXXXXXXXXXXXXXXXXXXXXXXXXXXXXXXXXXXXXXXXXXXXXXXXXXXXXXXX l)",
")l XXXXXXXXXXXXXXXXXXXXXXXXXXXXXXXXXXXXXXXXXXXXXXXXXXXXXXXXXXXXXXXXXXXXXXXXXXXXXXXXXXXXXXXXXXXXXX l)",
")l XXXXXXXXXXXXXXXXXXXXXXXXXXXXXXXXXXXXXXXXXXXXXXXXXXXXXXXXXXXXXXXXXXXXXXXXXXXXXXXXXXXXXXXXXXXXXX l)",
")l XXXXXXXXXXXXXXXXXXXXXXXXXXXXXXXXXXXXXXXXXXXXXXXXXXXXXXXXXXXXXXXXXXXXXXXXXXXXXXXXXXXXXXXXXXXXXX l)",
")l XXXXXXXXXXXXXXXXXXXXXXXXXXXXXXXXXXXXXXXXXXXXXXXXXXXXXXXXXXXXXXXXXXXXXXXXXXXXXXXXXXXXXXXXXXXXXX l)",
")l XXXXXXXXXXXXXXXXXXXXXXXXXXXXXXXXXXXXXXXXXXXXXXXXXXXXXXXXXXXXXXXXXXXXXXXXXXXXXXXXXXXXXXXXXXXXXX l)",
")l XXXXXXXXXXXXXXXXXXXXXXXXXXXXXXXXXXXXXXXXXXXXXXXXXXXXXXXXXXXXXXXXXXXXXXXXXXXXXXXXXXXXXXXXXXXXXX l)",
")l XXXXXXXXXXXXXXXXXXXXXXXXXXXXXXXXXXXXXXXXXXXXXXXXXXXXXXXXXXXXXXXXXXXXXXXXXXXXXXXXXXXXXXXXXXXXXX l)",
")l XXXXXXXXXXXXXXXXXXXXXXXXXXXXXXXXXXXXXXXXXXXXXXXXXXXXXXXXXXXXXXXXXXXXXXXXXXXXXXXXXXXXXXXXXXXXXX l)",
")l XXXXXXXXXXXXXXXXXXXXXXXXXXXXXXXXXXXXXXXXXXXXXXXXXXXXXXXXXXXXXXXXXXXXXXXXXXXXXXXXXXXXXXXXXXXXXX l)",
")l XXXXXXXXXXXXXXXXXXXXXXXXXXXXXXXXXXXXXXXXXXXXXXXXXXXXXXXXXXXXXXXXXXXXXXXXXXXXXXXXXXXXXXXXXXXXXX l)",
")l XXXXXXXXXXXXXXXXXXXXXXXXXXXXXXXXXXXXXXXXXXXXXXXXXXXXXXXXXXXXXXXXXXXXXXXXXXXXXXXXXXXXXXXXXXXXXX l)",
")l XXXXXXXXXXXXXXXXXXXXXXXXXXXXXXXXXXXXXXXXXXXX;aVJE~/)/QEJMu>XXXXXXXXXXXXXXXXXXXXXXXXXXXXXXXXXXX l)",
")l XXXXXXXXXXXXXXXXXXXXXXXXXXXXXXXXXXXXXXXXX#sP)))))))))))))))Ks@XXXXXXXXXXXXXXXXXXXXXXXXXXXXXXXX l)",
")l XXXXXXXXXXXXXXXXXXXXXXXXXXXXXXXXXXXXXXXOj!)))))))))))))))))))~b%XXXXXXXXXXXXXXXXXXXXXXXXXXXXXX l)",
")l XXXXXXXXXXXXXXXXXXXXXXXXXXXXXXXXXXXXXX5T)))))))))))))))))))))))QfXXXXXXXXXXXXXXXXXXXXXXXXXXXXX l)",
")l XXXXXXXXXXXXXXXXXXXXXXXXXXXXXXXXXXXXXg/))))))))))))))))))))))))))4XXXXXXXXXXXXXXXXXXXXXXXXXXXX l)",
")l XXXXXXXXXXXXXXXXXXXXXXXXXXXXXXXXXXXXb))))))))))))))))))))))))))))4XXXXXXXXXXXXXXXXXXXXXXXXXXXX l)",
")l XXXXXXXXXXXXXXXXXXXXXXXXXXXXXXXXXXXn))))))))))^Gxr726egZE))))))))4XXXXXXXXXXXXXXXXXXXXXXXXXXXX l)",
")l XXXXXXXXXXXXXXXXXXXXXXXXXXXXXXXXXXf)))))))))Wh#XXXXXXXXXX4V/)))))4XXXXXXXXXXXXXXXXXXXXXXXXXXXX l)",
")l XXXXXXXXXXXXXXXXXXXXXXXXXXXXXXXXX6())))))))V%XXXXXXXXXXXXXX,A))))4XXXXXXXXXXXXXXXXXXXXXXXXXXXX l)",
")l XXXXXXXXXXXXXXXXXXXXXXXXXXXXXXXX@R))))))))fXXXXXXXXXXXXXXXXXXe!))4XXXXXXXXXXXXXXXXXXXXXXXXXXXX l)",
")l XXXXXXXXXXXXXXXXXXXXXXXXXXXXXXXXb))))))))jXXXXXXXXXXXXXXXXXXXX>L)4XXXXXXXXXXXXXXXXXXXXXXXXXXXX l)",
")l XXXXXXXXXXXXXXXXXXXXXXXXXXXXXXX>/)))))))SXXXXXXXXXXXXXXXXXXXXXX+F4XXXXXXXXXXXXXXXXXXXXXXXXXXXX l)",
")l XXXXXXXXXXXXXXXXXXXXXXXXXXXXXXXC)))))))!*XXXXXXXXXXXXXXXXXXXXXXXX#XXXXXXXXXXXXXXXXXXXXXXXXXXXX l)",
")l XXXXXXXXXXXXXXXXXXXXXXXXXXXXXX*/)))))))gXXXXXXXXXXXXXXXXXXXXXXXXXXXXXXXXXXXXXXXXXXXXXXXXXXXXXX l)",
")l XXXXXXXXXXXXXXXXXXXXXXXXXXXXXXz)))))))!+XXXXXXXXXXXXXXXXXXXXXXXXXXXXXXXXXXXXXXXXXXXXXXXXXXXXXX l)",
")l XXXXXXXXXXXXXXXXXXXXXXXXXXXXXXY)))))))nXXXXXXXXXXXXXXXXXXXXXXXXXXXXXXXXXXXXXXXXXXXXXXXXXXXXXXX l)",
")l XXXXXXXXXXXXXXXXXXXXXXXXXXXXX<))))))))1XXXXXXXXXXXXXXXXXXXXXXXXXXXXXXXXXXXXXXXXXXXXXXXXXXXXXXX l)",
")l XXXXXXXXXXXXXXXXXXXXXXXXXXXXXz)))))))YXXXXXXXXXXXXXXXXXXXXXXXXXXXXXXXXXXXXXXXXXXXXXXXXXXXXXXXX l)",
")l XXXXXXXXXXXXXXXXXXXXXXXXXXXXXH)))))))BXXXXXXXXXXXXXXXXXXXXXXXXXXXXXXXXXXXXXXXXXXXXXXXXXXXXXXXX l)",
")l XXXXXXXXXXXXXXXXXXXXXXXXXXXXX!)))))))pXXXXXXXXXXXXXXXXXXXXXXXXXXXXXXXXXXXXXXXXXXXXXXXXXXXXXXXX l)",
")l XXXXXXXXXXXXXXXXXXXXXXXXXXXX1)))))))),XXXXXXXXXXXXXXXXXXXXXXXXXXXXXXXXXXXXXXXXXXXXXXXXXXXXXXXX l)",
")l XXXXXXXXXXXXXXXXXXXXXXXXXXXXp)))))))~XXXXXXXXXXXXXXXXXXXXXXXXXXXXXXXXXXXXXXXXXXXXXXXXXXXXXXXXX l)",
")l XXXXXXXXXXXXXXXXXXXXXXXXXXXXb)))))))IXXXXXXXXXXXXXXXXXXXXXXXXXXXXXXXXXXXXXXXXXXXXXXXXXXXXXXXXX l)",
")l XXXXXXXXXXXXXXXXXXXXXXXXXXXXS)))))))FXXXXXXXXXXXXXXXXXXXXXXXXXXXXXXXXXXXXXXXXXXXXXXXXXXXXXXXXX l)",
")l XXXXXXXXXXXXXXXXXXXXXXXXXXXXK)))))))BXXXXXXXXXXXXXXXXXXXXXXXXXXXXXXXXXXXXXXXXXXXXXXXXXXXXXXXXX l)",
")l XXXXXXXXXXXXXXXXXXXXXXXXXXXXY)))))))vXXXXXXXXXXXXXXXXXXXXXXXXXXXXXXXXXXXXXXXXXXXXXXXXXXXXXXXXX l)",
")l XXXXXXXXXXXXXXXXXXXXXXXXXXXX!)))))))hXXXXXXXXXXXXXXXXXXXXXXXXXXXXXXXXXXXXXXXXXXXXXXXXXXXXXXXXX l)",
")l XXXXXXXXXXXXXXXXXXXXXXXXXXXX/)))))))aXXXXXXXXXXXXXXXXXXXXXXXXXXXXXXXXXXXXXXXXXXXXXXXXXXXXXXXXX l)",
")l XXXXXXXXXXXXXXXXXXXXXXXXXXXX()))))))iXXXXXXXXXXXXXXXXXXXXXXXXXXXXXXXXXXXXXXXXXXXXXXXXXXXXXXXXX l)",
")l XXXXXXXXXXXXXXXXXXXXXXXXXXXX))))))))yXXXXXXXXXXXXXXXXXXXXXXXXXXXXXXXXXXXXXXXXXXXXXXXXXXXXXXXXX l)",
")l XXXXXXXXXXXXXXXXXXXXXXXXXXXO))))))))rXXXXXXXXXXXXXX!)))))))))))))))3XXXXXXXXXXXXXXXXXXXXXXXXXX l)",
")l XXXXXXXXXXXXXXXXXXXXXXXXXXXX))))))))tXXXXXXXXXXXXXX!)))))))))))))))3XXXXXXXXXXXXXXXXXXXXXXXXXX l)",
")l XXXXXXXXXXXXXXXXXXXXXXXXXXXX))))))))yXXXXXXXXXXXXXX!)))))))))))))))3XXXXXXXXXXXXXXXXXXXXXXXXXX l)",
")l XXXXXXXXXXXXXXXXXXXXXXXXXXXX/)))))))aXXXXXXXXXXXXXX!)))))))))))))))3XXXXXXXXXXXXXXXXXXXXXXXXXX l)",
")l XXXXXXXXXXXXXXXXXXXXXXXXXXXX!)))))))fXXXXXXXXXXXXXX!)))))))))))))))3XXXXXXXXXXXXXXXXXXXXXXXXXX l)",
")l XXXXXXXXXXXXXXXXXXXXXXXXXXXXE)))))))zXXXXXXXXXXXXXX!)))))))))))))))3XXXXXXXXXXXXXXXXXXXXXXXXXX l)",
")l XXXXXXXXXXXXXXXXXXXXXXXXXXXXP)))))))mXXXXXXXXXXXXXX<1111111m)))))))3XXXXXXXXXXXXXXXXXXXXXXXXXX l)",
")l XXXXXXXXXXXXXXXXXXXXXXXXXXXXD)))))))AXXXXXXXXXXXXXXXXXXXXXXz)))))))3XXXXXXXXXXXXXXXXXXXXXXXXXX l)",
")l XXXXXXXXXXXXXXXXXXXXXXXXXXXXb)))))))JXXXXXXXXXXXXXXXXXXXXXXz)))))))3XXXXXXXXXXXXXXXXXXXXXXXXXX l)",
")l XXXXXXXXXXXXXXXXXXXXXXXXXXXXa)))))))WXXXXXXXXXXXXXXXXXXXXXXz)))))))3XXXXXXXXXXXXXXXXXXXXXXXXXX l)",
")l XXXXXXXXXXXXXXXXXXXXXXXXXXXX3))))))))%XXXXXXXXXXXXXXXXXXXXXz)))))))3XXXXXXXXXXXXXXXXXXXXXXXXXX l)",
")l XXXXXXXXXXXXXXXXXXXXXXXXXXXXX~)))))))0XXXXXXXXXXXXXXXXXXXXXz)))))))3XXXXXXXXXXXXXXXXXXXXXXXXXX l)",
")l XXXXXXXXXXXXXXXXXXXXXXXXXXXXXJ)))))))bXXXXXXXXXXXXXXXXXXXXXz)))))))3XXXXXXXXXXXXXXXXXXXXXXXXXX l)",
")l XXXXXXXXXXXXXXXXXXXXXXXXXXXXXc)))))))JXXXXXXXXXXXXXXXXXXXXXz)))))))3XXXXXXXXXXXXXXXXXXXXXXXXXX l)",
")l XXXXXXXXXXXXXXXXXXXXXXXXXXXXX1)))))))(-XXXXXXXXXXXXXXXXXXXXz)))))))3XXXXXXXXXXXXXXXXXXXXXXXXXX l)",
")l XXXXXXXXXXXXXXXXXXXXXXXXXXXXXXT)))))))fXXXXXXXXXXXXXXXXXXXXz)))))))3XXXXXXXXXXXXXXXXXXXXXXXXXX l)",
")l XXXXXXXXXXXXXXXXXXXXXXXXXXXXXXc)))))))UXXXXXXXXXXXXXXXXXXXXz)))))))3XXXXXXXXXXXXXXXXXXXXXXXXXX l)",
")l XXXXXXXXXXXXXXXXXXXXXXXXXXXXXX;/)))))))wXXXXXXXXXXXXXXXXXXXz)))))))3XXXXXXXXXXXXXXXXXXXXXXXXXX l)",
")l XXXXXXXXXXXXXXXXXXXXXXXXXXXXXXXA)))))))YXXXXXXXXXXXXXXXXXXXz)))))))3XXXXXXXXXXXXXXXXXXXXXXXXXX l)",
")l XXXXXXXXXXXXXXXXXXXXXXXXXXXXXXX</)))))))xXXXXXXXXXXXXXXXXXXz)))))))3XXXXXXXXXXXXXXXXXXXXXXXXXX l)",
")l XXXXXXXXXXXXXXXXXXXXXXXXXXXXXXXXN)))))))(qXXXXXXXXXXXXXXXXXz)))))))3XXXXXXXXXXXXXXXXXXXXXXXXXX l)",
")l XXXXXXXXXXXXXXXXXXXXXXXXXXXXXXXX&W)))))))^9XXXXXXXXXXXXXXXXz)))))))3XXXXXXXXXXXXXXXXXXXXXXXXXX l)",
")l XXXXXXXXXXXXXXXXXXXXXXXXXXXXXXXXXq))))))))/gXXXXXXXXXXXXXX:J)))))))3XXXXXXXXXXXXXXXXXXXXXXXXXX l)",
")l XXXXXXXXXXXXXXXXXXXXXXXXXXXXXXXXXXc)))))))))IyXXXXXXXXXX%k!))))))))3XXXXXXXXXXXXXXXXXXXXXXXXXX l)",
")l XXXXXXXXXXXXXXXXXXXXXXXXXXXXXXXXXXXA))))))))))QAke628rzF^))))))))))3XXXXXXXXXXXXXXXXXXXXXXXXXX l)",
")l XXXXXXXXXXXXXXXXXXXXXXXXXXXXXXXXXXXoZ)))))))))))))))))))))))))))))W:XXXXXXXXXXXXXXXXXXXXXXXXXX l)",
")l XXXXXXXXXXXXXXXXXXXXXXXXXXXXXXXXXXXXXb)))))))))))))))))))))))))))J:XXXXXXXXXXXXXXXXXXXXXXXXXXX l)",
")l XXXXXXXXXXXXXXXXXXXXXXXXXXXXXXXXXXXXXXqW)))))))))))))))))))))))^jXXXXXXXXXXXXXXXXXXXXXXXXXXXXX l)",
")l XXXXXXXXXXXXXXXXXXXXXXXXXXXXXXXXXXXXXXX$b^)))))))))))))))))))/N;XXXXXXXXXXXXXXXXXXXXXXXXXXXXXX l)",
")l XXXXXXXXXXXXXXXXXXXXXXXXXXXXXXXXXXXXXXXXX=kY)))))))))))))))Pj*XXXXXXXXXXXXXXXXXXXXXXXXXXXXXXXX l)",
")l XXXXXXXXXXXXXXXXXXXXXXXXXXXXXXXXXXXXXXXXXXXX,fZLW^()(~EJNa;XXXXXXXXXXXXXXXXXXXXXXXXXXXXXXXXXXX l)",
")l XXXXXXXXXXXXXXXXXXXXXXXXXXXXXXXXXXXXXXXXXXXXXXXXXXXXXXXXXXXXXXXXXXXXXXXXXXXXXXXXXXXXXXXXXXXXXX l)",
")l XXXXXXXXXXXXXXXXXXXXXXXXXXXXXXXXXXXXXXXXXXXXXXXXXXXXXXXXXXXXXXXXXXXXXXXXXXXXXXXXXXXXXXXXXXXXXX l)",
")l XXXXXXXXXXXXXXXXXXXXXXXXXXXXXXXXXXXXXXXXXXXXXXXXXXXXXXXXXXXXXXXXXXXXXXXXXXXXXXXXXXXXXXXXXXXXXX l)",
")l XXXXXXXXXXXXXXXXXXXXXXXXXXXXXXXXXXXXXXXXXXXXXXXXXXXXXXXXXXXXXXXXXXXXXXXXXXXXXXXXXXXXXXXXXXXXXX l)",
")l XXXXXXXXXXXXXXXXXXXXXXXXXXXXXXXXXXXXXXXXXXXXXXXXXXXXXXXXXXXXXXXXXXXXXXXXXXXXXXXXXXXXXXXXXXXXXX l)",
")l XXXXXXXXXXXXXXXXXXXXXXXXXXXXXXXXXXXXXXXXXXXXXXXXXXXXXXXXXXXXXXXXXXXXXXXXXXXXXXXXXXXXXXXXXXXXXX l)",
")l XXXXXXXXXXXXXXXXXXXXXXXXXXXXXXXXXXXXXXXXXXXXXXXXXXXXXXXXXXXXXXXXXXXXXXXXXXXXXXXXXXXXXXXXXXXXXX l)",
")l XXXXXXXXXXXXXXXXXXXXXXXXXXXXXXXXXXXXXXXXXXXXXXXXXXXXXXXXXXXXXXXXXXXXXXXXXXXXXXXXXXXXXXXXXXXXXX l)",
")l XXXXXXXXXXXXXXXXXXXXXXXXXXXXXXXXXXXXXXXXXXXXXXXXXXXXXXXXXXXXXXXXXXXXXXXXXXXXXXXXXXXXXXXXXXXXXX l)",
")l XXXXXXXXXXXXXXXXXXXXXXXXXXXXXXXXXXXXXXXXXXXXXXXXXXXXXXXXXXXXXXXXXXXXXXXXXXXXXXXXXXXXXXXXXXXXXX l)",
")l XXXXXXXXXXXXXXXXXXXXXXXXXXXXXXXXXXXXXXXXXXXXXXXXXXXXXXXXXXXXXXXXXXXXXXXXXXXXXXXXXXXXXXXXXXXXXX l)",
")l XXXXXXXXXXXXXXXXXXXXXXXXXXXXXXXXXXXXXXXXXXXXXXXXXXXXXXXXXXXXXXXXXXXXXXXXXXXXXXXXXXXXXXXXXXXXXX l)",
")l XXXXXXXXXXXXXXXXXXXXXXXXXXXXXXXXXXXXXXXXXXXXXXXXXXXXXXXXXXXXXXXXXXXXXXXXXXXXXXXXXXXXXXXXXXXXXX l)",
")l XXXXXXXXXXXXXXXXXXXXXXXXXXXXXXXXXXXXXXXXXXXXXXXXXXXXXXXXXXXXXXXXXXXXXXXXXXXXXXXXXXXXXXXXXXXXXX l)",
")l XXXXXXXXXXXXXXXXXXXXXXXXXXXXXXXXXXXXXXXXXXXXXXXXXXXXXXXXXXXXXXXXXXXXXXXXXXXXXXXXXXXXXXXXXXXXXX l)",
")l XXXXXXXXXXXXXXXXXXXXXXXXXXXXXXXXXXXXXXXXXXXXXXXXXXXXXXXXXXXXXXXXXXXXXXXXXXXXXXXXXXXXXXXXXXXXXX l)",
")l.XXXXXXXXXXXXXXXXXXXXXXXXXXXXXXXXXXXXXXXXXXXXXXXXXXXXXXXXXXXXXXXXXXXXXXXXXXXXXXXXXXXXXXXXXXXXXX l)",
")l                                                                                                l)",
")dlllllllllllllllllllllllllllllllllllllllllllllllllllllllllllllllllllllllllllllllllllllllllllllllld)",
"))))))))))))))))))))))))))))))))))))))))))))))))))))))))))))))))))))))))))))))))))))))))))))))))))))"
};
