/* XPM */
static char *g2[] = {
/* columns rows colors chars-per-pixel */
"100 100 74 1 ",
"  c #686868",
". c #7C7C7C",
"X c #C3AF2A",
"o c #C3AF2E",
"O c #C4B031",
"+ c #C4B137",
"@ c #C4B13A",
"# c #C5B23F",
"$ c #C5B242",
"% c #C6B344",
"& c #C6B348",
"* c #C7B44C",
"= c #C7B550",
"- c #C8B654",
"; c #CAB95F",
": c #CBBA67",
"> c #CCBB69",
", c #CCBC6B",
"< c #CDBD6E",
"1 c #CDBD71",
"2 c #CEBF75",
"3 c #CFC078",
"4 c #D0C17E",
"5 c #AFAFAF",
"6 c gray70",
"7 c #D1C381",
"8 c #D2C587",
"9 c #D3C68B",
"0 c #D4C78D",
"q c #D5C88F",
"w c #D5C992",
"e c #D7CB97",
"r c #D7CB98",
"t c #D7CC99",
"y c #D8CD9B",
"u c #D9CE9E",
"i c #DACFA2",
"p c #DBD0A3",
"a c #DBD1A5",
"s c #DCD1A6",
"d c #DCD2A9",
"f c #DED5AE",
"g c #DFD6B1",
"h c #E0D7B3",
"j c #E0D7B4",
"k c #E1D8B5",
"l c #E3DABB",
"z c #E4DDBF",
"x c #E5DEC2",
"c c #E6E0C5",
"v c #E7E1C8",
"b c #E9E2CB",
"n c #E9E3CC",
"m c #EAE4CD",
"M c #EBE5D0",
"N c #ECE7D3",
"B c #EDE8D5",
"V c #EEE9D8",
"C c #EFEBDC",
"Z c #F0EBDC",
"A c #F0ECDE",
"S c #F3EFE3",
"D c #F3F0E5",
"F c #F4F1E7",
"G c #F5F2E8",
"H c #F6F4EB",
"J c #F7F5EE",
"K c #F8F6EF",
"L c #F8F6F0",
"P c #F9F8F2",
"I c #FAF9F5",
"U c #FCFBF8",
"Y c #FDFCFA",
"T c white",
/* pixels */
"TTTTTTTTTTTTTTTTTTTTTTTTTTTTTTTTTTTTTTTTTTTTTTTTTTTTTTTTTTTTTTTTTTTTTTTTTTTTTTTTTTTTTTTTTTTTTTTTTTTT",
"T56666666666666666666666666666666666666666666666666666666666666666666666666666666666666666666666665T",
"T6                                                                                                6T",
"T6 XXXXXXXXXXXXXXXXXXXXXXXXXXXXXXXXXXXXXXXXXXXXXXXXXXXXXXXXXXXXXXXXXXXXXXXXXXXXXXXXXXXXXXXXXXXXXX 6T",
"T6 XXXXXXXXXXXXXXXXXXXXXXXXXXXXXXXXXXXXXXXXXXXXXXXXXXXXXXXXXXXXXXXXXXXXXXXXXXXXXXXXXXXXXXXXXXXXXX 6T",
"T6 XXXXXXXXXXXXXXXXXXXXXXXXXXXXXXXXXXXXXXXXXXXXXXXXXXXXXXXXXXXXXXXXXXXXXXXXXXXXXXXXXXXXXXXXXXXXXX 6T",
"T6 XXXXXXXXXXXXXXXXXXXXXXXXXXXXXXXXXXXXXXXXXXXXXXXXXXXXXXXXXXXXXXXXXXXXXXXXXXXXXXXXXXXXXXXXXXXXXX 6T",
"T6 XXXXXXXXXXXXXXXXXXXXXXXXXXXXXXXXXXXXXXXXXXXXXXXXXXXXXXXXXXXXXXXXXXXXXXXXXXXXXXXXXXXXXXXXXXXXXX 6T",
"T6 XXXXXXXXXXXXXXXXXXXXXXXXXXXXXXXXXXXXXXXXXXXXXXXXXXXXXXXXXXXXXXXXXXXXXXXXXXXXXXXXXXXXXXXXXXXXXX 6T",
"T6 XXXXXXXXXXXXXXXXXXXXXXXXXXXXXXXXXXXXXXXXXXXXXXXXXXXXXXXXXXXXXXXXXXXXXXXXXXXXXXXXXXXXXXXXXXXXXX 6T",
"T6 XXXXXXXXXXXXXXXXXXXXXXXXXXXXXXXXXXXXXXXXXXXXXXXXXXXXXXXXXXXXXXXXXXXXXXXXXXXXXXXXXXXXXXXXXXXXXX 6T",
"T6 XXXXXXXXXXXXXXXXXXXXXXXXXXXXXXXXXXXXXXXXXXXXXXXXXXXXXXXXXXXXXXXXXXXXXXXXXXXXXXXXXXXXXXXXXXXXXX 6T",
"T6 XXXXXXXXXXXXXXXXXXXXXXXXXXXXXXXXXXXXXXXXXXXXXXXXXXXXXXXXXXXXXXXXXXXXXXXXXXXXXXXXXXXXXXXXXXXXXX 6T",
"T6 XXXXXXXXXXXXXXXXXXXXXXXXXXXXXXXXXXXXXXXXXXXXXXXXXXXXXXXXXXXXXXXXXXXXXXXXXXXXXXXXXXXXXXXXXXXXXX 6T",
"T6 XXXXXXXXXXXXXXXXXXXXXXXXXXXXXXXXXXXXXXXXXXXXXXXXXXXXXXXXXXXXXXXXXXXXXXXXXXXXXXXXXXXXXXXXXXXXXX 6T",
"T6 XXXXXXXXXXXXXXXXXXXXXXXXXXXXXXXXXXXXXXXXXXXXXXXXXXXXXXXXXXXXXXXXXXXXXXXXXXXXXXXXXXXXXXXXXXXXXX 6T",
"T6 XXXXXXXXXXXXXXXXXXXXXXXXXXXXXXXXXXXXXXXXXXXXXXXXXXXXXXXXXXXXXXXXXXXXXXXXXXXXXXXXXXXXXXXXXXXXXX 6T",
"T6 XXXXXXXXXXXXXXXXXXXXXXXXXXXXXXXXXXXXXXXXXXXXXXXXXXXXXXXXXXXXXXXXXXXXXXXXXXXXXXXXXXXXXXXXXXXXXX 6T",
"T6 XXXXXXXXXXXXXXXXXXXXXXXXXXXXXXXXXXXXXXXXXXXXXXXXXXXXXXXXXXXXXXXXXXXXXXXXXXXXXXXXXXXXXXXXXXXXXX 6T",
"T6 XXXXXXXXXXXXXXXXXXXXXXXXXXXXXXXXXXXXXXXXXXXX*exVHIYTULGVlw-XXXXXXXXXXXXXXXXXXXXXXXXXXXXXXXXXXX 6T",
"T6 XXXXXXXXXXXXXXXXXXXXXXXXXXXXXXXXXXXXXXXXX@uATTTTTTTTTTTTTTTVy+XXXXXXXXXXXXXXXXXXXXXXXXXXXXXXXX 6T",
"T6 XXXXXXXXXXXXXXXXXXXXXXXXXXXXXXXXXXXXXXXOsLTTTTTTTTTTTTTTTTTTTIk#XXXXXXXXXXXXXXXXXXXXXXXXXXXXXX 6T",
"T6 XXXXXXXXXXXXXXXXXXXXXXXXXXXXXXXXXXXXXX1FTTTTTTTTTTTTTTTTTTTTTTTLiXXXXXXXXXXXXXXXXXXXXXXXXXXXXX 6T",
"T6 XXXXXXXXXXXXXXXXXXXXXXXXXXXXXXXXXXXXXpYTTTTTTTTTTTTTTTTTTTTTTTTTT<XXXXXXXXXXXXXXXXXXXXXXXXXXXX 6T",
"T6 XXXXXXXXXXXXXXXXXXXXXXXXXXXXXXXXXXXXkTTTTTTTTTTTTTTTTTTTTTTTTTTTT1XXXXXXXXXXXXXXXXXXXXXXXXXXXX 6T",
"T6 XXXXXXXXXXXXXXXXXXXXXXXXXXXXXXXXXXXkTTTTTTTTTTINf03>28acGTTTTTTTT1XXXXXXXXXXXXXXXXXXXXXXXXXXXX 6T",
"T6 XXXXXXXXXXXXXXXXXXXXXXXXXXXXXXXXXXiTTTTTTTTTJa@XXXXXXXXXX<xYTTTTT1XXXXXXXXXXXXXXXXXXXXXXXXXXXX 6T",
"T6 XXXXXXXXXXXXXXXXXXXXXXXXXXXXXXXXX1YTTTTTTTTx#XXXXXXXXXXXXXX-bTTTT1XXXXXXXXXXXXXXXXXXXXXXXXXXXX 6T",
"T6 XXXXXXXXXXXXXXXXXXXXXXXXXXXXXXXX+FTTTTTTTTiXXXXXXXXXXXXXXXXXX9LTT1XXXXXXXXXXXXXXXXXXXXXXXXXXXX 6T",
"T6 XXXXXXXXXXXXXXXXXXXXXXXXXXXXXXXXkTTTTTTTTsXXXXXXXXXXXXXXXXXXXX-CT1XXXXXXXXXXXXXXXXXXXXXXXXXXXX 6T",
"T6 XXXXXXXXXXXXXXXXXXXXXXXXXXXXXXX-UTTTTTTTbXXXXXXXXXXXXXXXXXXXXXX+m1XXXXXXXXXXXXXXXXXXXXXXXXXXXX 6T",
"T6 XXXXXXXXXXXXXXXXXXXXXXXXXXXXXXXxTTTTTTTP%XXXXXXXXXXXXXXXXXXXXXXXX@XXXXXXXXXXXXXXXXXXXXXXXXXXXX 6T",
"T6 XXXXXXXXXXXXXXXXXXXXXXXXXXXXXX%UTTTTTTTaXXXXXXXXXXXXXXXXXXXXXXXXXXXXXXXXXXXXXXXXXXXXXXXXXXXXXX 6T",
"T6 XXXXXXXXXXXXXXXXXXXXXXXXXXXXXXfTTTTTTTL+XXXXXXXXXXXXXXXXXXXXXXXXXXXXXXXXXXXXXXXXXXXXXXXXXXXXXX 6T",
"T6 XXXXXXXXXXXXXXXXXXXXXXXXXXXXXXSTTTTTTTkXXXXXXXXXXXXXXXXXXXXXXXXXXXXXXXXXXXXXXXXXXXXXXXXXXXXXXX 6T",
"T6 XXXXXXXXXXXXXXXXXXXXXXXXXXXXX;TTTTTTTT:XXXXXXXXXXXXXXXXXXXXXXXXXXXXXXXXXXXXXXXXXXXXXXXXXXXXXXX 6T",
"T6 XXXXXXXXXXXXXXXXXXXXXXXXXXXXXfTTTTTTTFXXXXXXXXXXXXXXXXXXXXXXXXXXXXXXXXXXXXXXXXXXXXXXXXXXXXXXXX 6T",
"T6 XXXXXXXXXXXXXXXXXXXXXXXXXXXXXBTTTTTTTxXXXXXXXXXXXXXXXXXXXXXXXXXXXXXXXXXXXXXXXXXXXXXXXXXXXXXXXX 6T",
"T6 XXXXXXXXXXXXXXXXXXXXXXXXXXXXXPTTTTTTTeXXXXXXXXXXXXXXXXXXXXXXXXXXXXXXXXXXXXXXXXXXXXXXXXXXXXXXXX 6T",
"T6 XXXXXXXXXXXXXXXXXXXXXXXXXXXX:TTTTTTTT-XXXXXXXXXXXXXXXXXXXXXXXXXXXXXXXXXXXXXXXXXXXXXXXXXXXXXXXX 6T",
"T6 XXXXXXXXXXXXXXXXXXXXXXXXXXXXeTTTTTTTIXXXXXXXXXXXXXXXXXXXXXXXXXXXXXXXXXXXXXXXXXXXXXXXXXXXXXXXXX 6T",
"T6 XXXXXXXXXXXXXXXXXXXXXXXXXXXXjTTTTTTTSXXXXXXXXXXXXXXXXXXXXXXXXXXXXXXXXXXXXXXXXXXXXXXXXXXXXXXXXX 6T",
"T6 XXXXXXXXXXXXXXXXXXXXXXXXXXXXnTTTTTTTMXXXXXXXXXXXXXXXXXXXXXXXXXXXXXXXXXXXXXXXXXXXXXXXXXXXXXXXXX 6T",
"T6 XXXXXXXXXXXXXXXXXXXXXXXXXXXXVTTTTTTTzXXXXXXXXXXXXXXXXXXXXXXXXXXXXXXXXXXXXXXXXXXXXXXXXXXXXXXXXX 6T",
"T6 XXXXXXXXXXXXXXXXXXXXXXXXXXXXFTTTTTTTgXXXXXXXXXXXXXXXXXXXXXXXXXXXXXXXXXXXXXXXXXXXXXXXXXXXXXXXXX 6T",
"T6 XXXXXXXXXXXXXXXXXXXXXXXXXXXXLTTTTTTTaXXXXXXXXXXXXXXXXXXXXXXXXXXXXXXXXXXXXXXXXXXXXXXXXXXXXXXXXX 6T",
"T6 XXXXXXXXXXXXXXXXXXXXXXXXXXXXUTTTTTTTtXXXXXXXXXXXXXXXXXXXXXXXXXXXXXXXXXXXXXXXXXXXXXXXXXXXXXXXXX 6T",
"T6 XXXXXXXXXXXXXXXXXXXXXXXXXXXXYTTTTTTTwXXXXXXXXXXXXXXXXXXXXXXXXXXXXXXXXXXXXXXXXXXXXXXXXXXXXXXXXX 6T",
"T6 XXXXXXXXXXXXXXXXXXXXXXXXXXXXTTTTTTTT0XXXXXXXXXXXXXXXXXXXXXXXXXXXXXXXXXXXXXXXXXXXXXXXXXXXXXXXXX 6T",
"T6 XXXXXXXXXXXXXXXXXXXXXXXXXXXOTTTTTTTT9XXXXXXXXXXXXXXPTTTTTTTTTTTTTTT,XXXXXXXXXXXXXXXXXXXXXXXXXX 6T",
"T6 XXXXXXXXXXXXXXXXXXXXXXXXXXXXTTTTTTTT0XXXXXXXXXXXXXXPTTTTTTTTTTTTTTT,XXXXXXXXXXXXXXXXXXXXXXXXXX 6T",
"T6 XXXXXXXXXXXXXXXXXXXXXXXXXXXXTTTTTTTTwXXXXXXXXXXXXXXPTTTTTTTTTTTTTTT,XXXXXXXXXXXXXXXXXXXXXXXXXX 6T",
"T6 XXXXXXXXXXXXXXXXXXXXXXXXXXXXUTTTTTTTeXXXXXXXXXXXXXXPTTTTTTTTTTTTTTT,XXXXXXXXXXXXXXXXXXXXXXXXXX 6T",
"T6 XXXXXXXXXXXXXXXXXXXXXXXXXXXXPTTTTTTTiXXXXXXXXXXXXXXPTTTTTTTTTTTTTTT,XXXXXXXXXXXXXXXXXXXXXXXXXX 6T",
"T6 XXXXXXXXXXXXXXXXXXXXXXXXXXXXGTTTTTTTfXXXXXXXXXXXXXXPTTTTTTTTTTTTTTT,XXXXXXXXXXXXXXXXXXXXXXXXXX 6T",
"T6 XXXXXXXXXXXXXXXXXXXXXXXXXXXXZTTTTTTTlXXXXXXXXXXXXXX;:::::::lTTTTTTT,XXXXXXXXXXXXXXXXXXXXXXXXXX 6T",
"T6 XXXXXXXXXXXXXXXXXXXXXXXXXXXXmTTTTTTTbXXXXXXXXXXXXXXXXXXXXXXfTTTTTTT,XXXXXXXXXXXXXXXXXXXXXXXXXX 6T",
"T6 XXXXXXXXXXXXXXXXXXXXXXXXXXXXkTTTTTTTVXXXXXXXXXXXXXXXXXXXXXXfTTTTTTT,XXXXXXXXXXXXXXXXXXXXXXXXXX 6T",
"T6 XXXXXXXXXXXXXXXXXXXXXXXXXXXXrTTTTTTTJXXXXXXXXXXXXXXXXXXXXXXfTTTTTTT,XXXXXXXXXXXXXXXXXXXXXXXXXX 6T",
"T6 XXXXXXXXXXXXXXXXXXXXXXXXXXXX<TTTTTTTT#XXXXXXXXXXXXXXXXXXXXXfTTTTTTT,XXXXXXXXXXXXXXXXXXXXXXXXXX 6T",
"T6 XXXXXXXXXXXXXXXXXXXXXXXXXXXXXITTTTTTT7XXXXXXXXXXXXXXXXXXXXXfTTTTTTT,XXXXXXXXXXXXXXXXXXXXXXXXXX 6T",
"T6 XXXXXXXXXXXXXXXXXXXXXXXXXXXXXBTTTTTTThXXXXXXXXXXXXXXXXXXXXXfTTTTTTT,XXXXXXXXXXXXXXXXXXXXXXXXXX 6T",
"T6 XXXXXXXXXXXXXXXXXXXXXXXXXXXXXgTTTTTTTVXXXXXXXXXXXXXXXXXXXXXfTTTTTTT,XXXXXXXXXXXXXXXXXXXXXXXXXX 6T",
"T6 XXXXXXXXXXXXXXXXXXXXXXXXXXXXX:TTTTTTTY&XXXXXXXXXXXXXXXXXXXXfTTTTTTT,XXXXXXXXXXXXXXXXXXXXXXXXXX 6T",
"T6 XXXXXXXXXXXXXXXXXXXXXXXXXXXXXXFTTTTTTTiXXXXXXXXXXXXXXXXXXXXfTTTTTTT,XXXXXXXXXXXXXXXXXXXXXXXXXX 6T",
"T6 XXXXXXXXXXXXXXXXXXXXXXXXXXXXXXgTTTTTTTSXXXXXXXXXXXXXXXXXXXXfTTTTTTT,XXXXXXXXXXXXXXXXXXXXXXXXXX 6T",
"T6 XXXXXXXXXXXXXXXXXXXXXXXXXXXXXX*YTTTTTTT8XXXXXXXXXXXXXXXXXXXfTTTTTTT,XXXXXXXXXXXXXXXXXXXXXXXXXX 6T",
"T6 XXXXXXXXXXXXXXXXXXXXXXXXXXXXXXXbTTTTTTTSXXXXXXXXXXXXXXXXXXXfTTTTTTT,XXXXXXXXXXXXXXXXXXXXXXXXXX 6T",
"T6 XXXXXXXXXXXXXXXXXXXXXXXXXXXXXXX;YTTTTTTTfXXXXXXXXXXXXXXXXXXfTTTTTTT,XXXXXXXXXXXXXXXXXXXXXXXXXX 6T",
"T6 XXXXXXXXXXXXXXXXXXXXXXXXXXXXXXXXzTTTTTTTY7XXXXXXXXXXXXXXXXXfTTTTTTT,XXXXXXXXXXXXXXXXXXXXXXXXXX 6T",
"T6 XXXXXXXXXXXXXXXXXXXXXXXXXXXXXXXX$JTTTTTTTI4XXXXXXXXXXXXXXXXfTTTTTTT,XXXXXXXXXXXXXXXXXXXXXXXXXX 6T",
"T6 XXXXXXXXXXXXXXXXXXXXXXXXXXXXXXXXX7TTTTTTTTYaXXXXXXXXXXXXXX=VTTTTTTT,XXXXXXXXXXXXXXXXXXXXXXXXXX 6T",
"T6 XXXXXXXXXXXXXXXXXXXXXXXXXXXXXXXXXXgTTTTTTTTTSqXXXXXXXXXX#dPTTTTTTTT,XXXXXXXXXXXXXXXXXXXXXXXXXX 6T",
"T6 XXXXXXXXXXXXXXXXXXXXXXXXXXXXXXXXXXXvTTTTTTTTTTLbd81>30fMITTTTTTTTTT,XXXXXXXXXXXXXXXXXXXXXXXXXX 6T",
"T6 XXXXXXXXXXXXXXXXXXXXXXXXXXXXXXXXXXXocTTTTTTTTTTTTTTTTTTTTTTTTTTTTTK=XXXXXXXXXXXXXXXXXXXXXXXXXX 6T",
"T6 XXXXXXXXXXXXXXXXXXXXXXXXXXXXXXXXXXXXXkTTTTTTTTTTTTTTTTTTTTTTTTTTTV=XXXXXXXXXXXXXXXXXXXXXXXXXXX 6T",
"T6 XXXXXXXXXXXXXXXXXXXXXXXXXXXXXXXXXXXXXX7JTTTTTTTTTTTTTTTTTTTTTTTIsXXXXXXXXXXXXXXXXXXXXXXXXXXXXX 6T",
"T6 XXXXXXXXXXXXXXXXXXXXXXXXXXXXXXXXXXXXXXX#hITTTTTTTTTTTTTTTTTTTUz*XXXXXXXXXXXXXXXXXXXXXXXXXXXXXX 6T",
"T6 XXXXXXXXXXXXXXXXXXXXXXXXXXXXXXXXXXXXXXXXX%dDTTTTTTTTTTTTTTTAs%XXXXXXXXXXXXXXXXXXXXXXXXXXXXXXXX 6T",
"T6 XXXXXXXXXXXXXXXXXXXXXXXXXXXXXXXXXXXXXXXXXXXX-icCJIYTYIGVze*XXXXXXXXXXXXXXXXXXXXXXXXXXXXXXXXXXX 6T",
"T6 XXXXXXXXXXXXXXXXXXXXXXXXXXXXXXXXXXXXXXXXXXXXXXXXXXXXXXXXXXXXXXXXXXXXXXXXXXXXXXXXXXXXXXXXXXXXXX 6T",
"T6 XXXXXXXXXXXXXXXXXXXXXXXXXXXXXXXXXXXXXXXXXXXXXXXXXXXXXXXXXXXXXXXXXXXXXXXXXXXXXXXXXXXXXXXXXXXXXX 6T",
"T6 XXXXXXXXXXXXXXXXXXXXXXXXXXXXXXXXXXXXXXXXXXXXXXXXXXXXXXXXXXXXXXXXXXXXXXXXXXXXXXXXXXXXXXXXXXXXXX 6T",
"T6 XXXXXXXXXXXXXXXXXXXXXXXXXXXXXXXXXXXXXXXXXXXXXXXXXXXXXXXXXXXXXXXXXXXXXXXXXXXXXXXXXXXXXXXXXXXXXX 6T",
"T6 XXXXXXXXXXXXXXXXXXXXXXXXXXXXXXXXXXXXXXXXXXXXXXXXXXXXXXXXXXXXXXXXXXXXXXXXXXXXXXXXXXXXXXXXXXXXXX 6T",
"T6 XXXXXXXXXXXXXXXXXXXXXXXXXXXXXXXXXXXXXXXXXXXXXXXXXXXXXXXXXXXXXXXXXXXXXXXXXXXXXXXXXXXXXXXXXXXXXX 6T",
"T6 XXXXXXXXXXXXXXXXXXXXXXXXXXXXXXXXXXXXXXXXXXXXXXXXXXXXXXXXXXXXXXXXXXXXXXXXXXXXXXXXXXXXXXXXXXXXXX 6T",
"T6 XXXXXXXXXXXXXXXXXXXXXXXXXXXXXXXXXXXXXXXXXXXXXXXXXXXXXXXXXXXXXXXXXXXXXXXXXXXXXXXXXXXXXXXXXXXXXX 6T",
"T6 XXXXXXXXXXXXXXXXXXXXXXXXXXXXXXXXXXXXXXXXXXXXXXXXXXXXXXXXXXXXXXXXXXXXXXXXXXXXXXXXXXXXXXXXXXXXXX 6T",
"T6 XXXXXXXXXXXXXXXXXXXXXXXXXXXXXXXXXXXXXXXXXXXXXXXXXXXXXXXXXXXXXXXXXXXXXXXXXXXXXXXXXXXXXXXXXXXXXX 6T",
"T6 XXXXXXXXXXXXXXXXXXXXXXXXXXXXXXXXXXXXXXXXXXXXXXXXXXXXXXXXXXXXXXXXXXXXXXXXXXXXXXXXXXXXXXXXXXXXXX 6T",
"T6 XXXXXXXXXXXXXXXXXXXXXXXXXXXXXXXXXXXXXXXXXXXXXXXXXXXXXXXXXXXXXXXXXXXXXXXXXXXXXXXXXXXXXXXXXXXXXX 6T",
"T6 XXXXXXXXXXXXXXXXXXXXXXXXXXXXXXXXXXXXXXXXXXXXXXXXXXXXXXXXXXXXXXXXXXXXXXXXXXXXXXXXXXXXXXXXXXXXXX 6T",
"T6 XXXXXXXXXXXXXXXXXXXXXXXXXXXXXXXXXXXXXXXXXXXXXXXXXXXXXXXXXXXXXXXXXXXXXXXXXXXXXXXXXXXXXXXXXXXXXX 6T",
"T6 XXXXXXXXXXXXXXXXXXXXXXXXXXXXXXXXXXXXXXXXXXXXXXXXXXXXXXXXXXXXXXXXXXXXXXXXXXXXXXXXXXXXXXXXXXXXXX 6T",
"T6 XXXXXXXXXXXXXXXXXXXXXXXXXXXXXXXXXXXXXXXXXXXXXXXXXXXXXXXXXXXXXXXXXXXXXXXXXXXXXXXXXXXXXXXXXXXXXX 6T",
"T6.XXXXXXXXXXXXXXXXXXXXXXXXXXXXXXXXXXXXXXXXXXXXXXXXXXXXXXXXXXXXXXXXXXXXXXXXXXXXXXXXXXXXXXXXXXXXXX 6T",
"T6                                                                                                6T",
"T56666666666666666666666666666666666666666666666666666666666666666666666666666666666666666666666665T",
"TTTTTTTTTTTTTTTTTTTTTTTTTTTTTTTTTTTTTTTTTTTTTTTTTTTTTTTTTTTTTTTTTTTTTTTTTTTTTTTTTTTTTTTTTTTTTTTTTTTT"
};
