/* XPM */
static char *g3[] = {
/* columns rows colors chars-per-pixel */
"100 100 37 1 ",
"  c #686868",
". c #727272",
"X c #777777",
"o c #7B7B7B",
"O c gray50",
"+ c gray51",
"@ c #848484",
"# c #888888",
"$ c #8E8E8E",
"% c gray57",
"& c #959595",
"* c #9A9A9A",
"= c gray61",
"- c gray63",
"; c #A5A5A5",
": c gray66",
"> c #AFAFAF",
", c gray70",
"< c #B6B6B6",
"1 c #BBBBBB",
"2 c gray74",
"3 c #C3C3C3",
"4 c gray78",
"5 c #CACACA",
"6 c #CDCDCD",
"7 c LightGray",
"8 c gray83",
"9 c #DADADA",
"0 c #DFDFDF",
"q c gray88",
"w c gray90",
"e c gray92",
"r c #EEEEEE",
"t c gray95",
"y c #F6F6F6",
"u c #F9F9F9",
"i c white",
/* pixels */
"iiiiiiiiiiiiiiiiiiiiiiiiiiiiiiiiiiiiiiiiiiiiiiiiiiiiiiiiiiiiiiiiiiiiiiiiiiiiiiiiiiiiiiiiiiiiiiiiiiii",
"i>,,,,,,,,,,,,,,,,,,,,,,,,,,,,,,,,,,,,,,,,,,,,,,,,,,,,,,,,,,,,,,,,,,,,,,,,,,,,,,,,,,,,,,,,,,,,,,,,>i",
"i,                                                                                                ,i",
"i, .............................................................................................. ,i",
"i, .............................................................................................. ,i",
"i, .............................................................................................. ,i",
"i, .............................................................................................. ,i",
"i, .............................................................................................. ,i",
"i, .............................................................................................. ,i",
"i, .............................................................................................. ,i",
"i, .............................................................................................. ,i",
"i, .............................................................................................. ,i",
"i, .............................................................................................. ,i",
"i, .............................................................................................. ,i",
"i, .............................................................................................. ,i",
"i, .............................................................................................. ,i",
"i, .............................................................................................. ,i",
"i, .............................................................................................. ,i",
"i, .............................................................................................. ,i",
"i, ............................................O>60ryuiutrq4:+................................... ,i",
"i, .........................................X,qiiiiiiiiiiiiiiiq>X................................ ,i",
"i, .......................................X<yiiiiiiiiiiiiiiiiiiiy3o.............................. ,i",
"i, ......................................%eiiiiiiiiiiiiiiiiiiiiiiit,............................. ,i",
"i, .....................................<uiiiiiiiiiiiiiiiiiiiiiiiiii%............................ ,i",
"i, ....................................3iiiiiiiiiiiiiiiiiiiiiiiiiiii%............................ ,i",
"i, ...................................4iiiiiiiiiiu92;&$&-<6riiiiiiii%............................ ,i",
"i, ..................................,iiiiiiiiit<X..........%6uiiiii%............................ ,i",
"i, .................................&uiiiiiiii6o..............@7iiii%............................ ,i",
"i, ................................Xeiiiiiiii<..................-tii%............................ ,i",
"i, ................................3iiiiiiii<....................+qi%............................ ,i",
"i, ...............................+uiiiiiii8......................X8%............................ ,i",
"i, ...............................6iiiiiiiyo........................X............................ ,i",
"i, ..............................ouiiiiiii<...................................................... ,i",
"i, ..............................1iiiiiiitX...................................................... ,i",
"i, ..............................eiiiiiii4....................................................... ,i",
"i, .............................#iiiiiiii$....................................................... ,i",
"i, .............................2iiiiiiie........................................................ ,i",
"i, .............................0iiiiiii6........................................................ ,i",
"i, .............................yiiiiiii:........................................................ ,i",
"i, ............................$iiiiiiii@........................................................ ,i",
"i, ............................:iiiiiiiy......................................................... ,i",
"i, ............................3iiiiiiiw......................................................... ,i",
"i, ............................8iiiiiii9......................................................... ,i",
"i, ............................qiiiiiii5......................................................... ,i",
"i, ............................eiiiiiii2......................................................... ,i",
"i, ............................tiiiiiii<......................................................... ,i",
"i, ............................uiiiiiii>......................................................... ,i",
"i, ............................uiiiiiii:......................................................... ,i",
"i, ............................iiiiiiii;......................................................... ,i",
"i, ...........................Xiiiiiiii-..............yiiiiiiiiiiiiiii$.......................... ,i",
"i, ............................iiiiiiii;..............yiiiiiiiiiiiiiii$.......................... ,i",
"i, ............................iiiiiiii:..............yiiiiiiiiiiiiiii$.......................... ,i",
"i, ............................uiiiiiii:..............yiiiiiiiiiiiiiii$.......................... ,i",
"i, ............................yiiiiiii<..............yiiiiiiiiiiiiiii$.......................... ,i",
"i, ............................eiiiiiii2..............yiiiiiiiiiiiiiii$.......................... ,i",
"i, ............................qiiiiiii4..............########4iiiiiii$.......................... ,i",
"i, ............................8iiiiiii7......................2iiiiiii$.......................... ,i",
"i, ............................3iiiiiiiq......................2iiiiiii$.......................... ,i",
"i, ............................>iiiiiiit......................2iiiiiii$.......................... ,i",
"i, ............................$iiiiiiiio.....................2iiiiiii$.......................... ,i",
"i, .............................yiiiiiii=.....................2iiiiiii$.......................... ,i",
"i, .............................0iiiiiii3.....................2iiiiiii$.......................... ,i",
"i, .............................2iiiiiiiq.....................2iiiiiii$.......................... ,i",
"i, .............................#iiiiiiiiO....................2iiiiiii$.......................... ,i",
"i, ..............................eiiiiiii<....................2iiiiiii$.......................... ,i",
"i, ..............................2iiiiiiiw....................2iiiiiii$.......................... ,i",
"i, ..............................Ouiiiiiii-...................2iiiiiii$.......................... ,i",
"i, ...............................7iiiiiiie...................2iiiiiii$.......................... ,i",
"i, ...............................@uiiiiiii2..................2iiiiiii$.......................... ,i",
"i, ................................5iiiiiiiu=.................2iiiiiii$.......................... ,i",
"i, ................................otiiiiiiiu*................2iiiiiii$.......................... ,i",
"i, .................................=iiiiiiiiu<..............+qiiiiiii$.......................... ,i",
"i, ..................................2iiiiiiiiiw;..........o1yiiiiiiii$.......................... ,i",
"i, ...................................7iiiiiiiiiit71-&$*;29uiiiiiiiiii$.......................... ,i",
"i, ....................................7iiiiiiiiiiiiiiiiiiiiiiiiiiiiit+.......................... ,i",
"i, .....................................3iiiiiiiiiiiiiiiiiiiiiiiiiiiq+........................... ,i",
"i, ......................................=tiiiiiiiiiiiiiiiiiiiiiiiu<............................. ,i",
"i, .......................................o3uiiiiiiiiiiiiiiiiiiiu5O.............................. ,i",
"i, .........................................O1eiiiiiiiiiiiiiiiq<o................................ ,i",
"i, ............................................@,7qtuiiuyr05:O................................... ,i",
"i, .............................................................................................. ,i",
"i, .............................................................................................. ,i",
"i, .............................................................................................. ,i",
"i, .............................................................................................. ,i",
"i, .............................................................................................. ,i",
"i, .............................................................................................. ,i",
"i, .............................................................................................. ,i",
"i, .............................................................................................. ,i",
"i, .............................................................................................. ,i",
"i, .............................................................................................. ,i",
"i, .............................................................................................. ,i",
"i, .............................................................................................. ,i",
"i, .............................................................................................. ,i",
"i, .............................................................................................. ,i",
"i, .............................................................................................. ,i",
"i, .............................................................................................. ,i",
"i,O.............................................................................................. ,i",
"i,                                                                                                ,i",
"i>,,,,,,,,,,,,,,,,,,,,,,,,,,,,,,,,,,,,,,,,,,,,,,,,,,,,,,,,,,,,,,,,,,,,,,,,,,,,,,,,,,,,,,,,,,,,,,,,>i",
"iiiiiiiiiiiiiiiiiiiiiiiiiiiiiiiiiiiiiiiiiiiiiiiiiiiiiiiiiiiiiiiiiiiiiiiiiiiiiiiiiiiiiiiiiiiiiiiiiiii"
};
