/* XPM */
static char *i[] = {
/* columns rows colors chars-per-pixel */
"100 100 11 1 ",
"  c #2E0000",
". c #564949",
"X c #594D4D",
"o c #686868",
"O c #7C7C7C",
"+ c #AFAFAF",
"@ c gray70",
"# c gray89",
"$ c #EFEEEE",
"% c #F3F2F2",
"& c white",
/* pixels */
"&&&&&&&&&&&&&&&&&&&&&&&&&&&&&&&&&&&&&&&&&&&&&&&&&&&&&&&&&&&&&&&&&&&&&&&&&&&&&&&&&&&&&&&&&&&&&&&&&&&&",
"&+@@@@@@@@@@@@@@@@@@@@@@@@@@@@@@@@@@@@@@@@@@@@@@@@@@@@@@@@@@@@@@@@@@@@@@@@@@@@@@@@@@@@@@@@@@@@@@@@+&",
"&@oooooooooooooooooooooooooooooooooooooooooooooooooooooooooooooooooooooooooooooooooooooooooooooooo@&",
"&@o&&&&&&&&&&&&&&&&&&&&&&&&&&&&&&&&&&&&&&&&&&&&&&&&&&&&&&&&&&&&&&&&&&&&&&&&&&&&&&&&&&&&&&&&&&&&&&o@&",
"&@o&&&&&&&&&&&&&&&&&&&&&&&&&&&&&&&&&&&&&&&&&&&&&&&&&&&&&&&&&&&&&&&&&&&&&&&&&&&&&&&&&&&&&&&&&&&&&&o@&",
"&@o&&&&&&&&&&&&&&&&&&&&&&&&&&&&&&&&&&&&&&&&&&&&&&&&&&&&&&&&&&&&&&&&&&&&&&&&&&&&&&&&&&&&&&&&&&&&&&o@&",
"&@o&&&&&&&&&&&&&&&&&&&&&&&&&&&&&&&&&&&&&&&&&&&&&&&&&&&&&&&&&&&&&&&&&&&&&&&&&&&&&&&&&&&&&&&&&&&&&&o@&",
"&@o&&&&&&&&&&&&&&&&&&&&&&&&&&&&&&&&&&&&&&&&&&&&&&&&&&&&&&&&&&&&&&&&&&&&&&&&&&&&&&&&&&&&&&&&&&&&&&o@&",
"&@o&&&&&&&&&&&&&&&&&&&&&&&&&&&&&&&&&&&&&&&&&&&&&&&&&&&&&&&&&&&&&&&&&&&&&&&&&&&&&&&&&&&&&&&&&&&&&&o@&",
"&@o&&&&&&&&&&&&&&&&&&&&&&&&&&&&&&&&&&&&&&&&&&&&&&&&&&&&&&&&&&&&&&&&&&&&&&&&&&&&&&&&&&&&&&&&&&&&&&o@&",
"&@o&&&&&&&&&&&&&&&&&&&&&&&&&&&&&&&&&&&&&&&&&&&&&&&&&&&&&&&&&&&&&&&&&&&&&&&&&&&&&&&&&&&&&&&&&&&&&&o@&",
"&@o&&&&&&&&&&&&&&&&&&&&&&&&&&&&&&&&&&&&&&&&&&&&&&&&&&&&&&&&&&&&&&&&&&&&&&&&&&&&&&&&&&&&&&&&&&&&&&o@&",
"&@o&&&&&&&&&&&&&&&&&&&&&&&&&&&&&&&&&&&&&&&&&&&&&&&&&&&&&&&&&&&&&&&&&&&&&&&&&&&&&&&&&&&&&&&&&&&&&&o@&",
"&@o&&&&&&&&&&&&&&&&&&&&&&&&&&&&&&&&&&&&&&&&&&&&&&&&&&&&&&&&&&&&&&&&&&&&&&&&&&&&&&&&&&&&&&&&&&&&&&o@&",
"&@o&&&&&&&&&&&&&&&&&&&&&&&&&&&&&&&&&&&&&&&&&&&&&&&&&&&&&&&&&&&&&&&&&&&&&&&&&&&&&&&&&&&&&&&&&&&&&&o@&",
"&@o&&&&&&&&&&&&&&&&&&&&&&&&&&&&&&&&&&&&&&&&&&&&&&&&&&&&&&&&&&&&&&&&&&&&&&&&&&&&&&&&&&&&&&&&&&&&&&o@&",
"&@o&&&&&&&&&&&&&&&&&&&&&&&&&&&&&&&&&&&&&&&&&&&&&&&&&&&&&&&&&&&&&&&&&&&&&&&&&&&&&&&&&&&&&&&&&&&&&&o@&",
"&@o&&&&&&&&&&&&&&&&&&&&&&&&&&&&&&&&&&&&&&&&&&&&&&&&&&&&&&&&&&&&&&&&&&&&&&&&&&&&&&&&&&&&&&&&&&&&&&o@&",
"&@o&&&&&&&&&&&&&&&&&&&&&&&&&&&&&&&&&&&&&&&&&&&&&&&&&&&&&&&&&&&&&&&&&&&&&&&&&&&&&&&&&&&&&&&&&&&&&&o@&",
"&@o&&&&&&&&&&&&&&&&&&&&&&&&&&&&&&&&&&&&&&&&&&&&&&&&&&&&&&&&&&&&&&&&&&&&&&&&&&&&&&&&&&&&&&&&&&&&&&o@&",
"&@o&&&&&&&&&&&&&&&&&&&&&&&&&&&&&&&$                                #&&&&&&&&&&&&&&&&&&&&&&&&&&&&&o@&",
"&@o&&&&&&&&&&&&&&&&&&&&&&&&&&&&&&&$                                #&&&&&&&&&&&&&&&&&&&&&&&&&&&&&o@&",
"&@o&&&&&&&&&&&&&&&&&&&&&&&&&&&&&&&$                                #&&&&&&&&&&&&&&&&&&&&&&&&&&&&&o@&",
"&@o&&&&&&&&&&&&&&&&&&&&&&&&&&&&&&&$                                #&&&&&&&&&&&&&&&&&&&&&&&&&&&&&o@&",
"&@o&&&&&&&&&&&&&&&&&&&&&&&&&&&&&&&$                                #&&&&&&&&&&&&&&&&&&&&&&&&&&&&&o@&",
"&@o&&&&&&&&&&&&&&&&&&&&&&&&&&&&&&&$                                #&&&&&&&&&&&&&&&&&&&&&&&&&&&&&o@&",
"&@o&&&&&&&&&&&&&&&&&&&&&&&&&&&&&&&&%%%%%%%%%%%%.       %%%%%%%%%%%%&&&&&&&&&&&&&&&&&&&&&&&&&&&&&&o@&",
"&@o&&&&&&&&&&&&&&&&&&&&&&&&&&&&&&&&&&&&&&&&&&&&X       &&&&&&&&&&&&&&&&&&&&&&&&&&&&&&&&&&&&&&&&&&o@&",
"&@o&&&&&&&&&&&&&&&&&&&&&&&&&&&&&&&&&&&&&&&&&&&&X       &&&&&&&&&&&&&&&&&&&&&&&&&&&&&&&&&&&&&&&&&&o@&",
"&@o&&&&&&&&&&&&&&&&&&&&&&&&&&&&&&&&&&&&&&&&&&&&X       &&&&&&&&&&&&&&&&&&&&&&&&&&&&&&&&&&&&&&&&&&o@&",
"&@o&&&&&&&&&&&&&&&&&&&&&&&&&&&&&&&&&&&&&&&&&&&&X       &&&&&&&&&&&&&&&&&&&&&&&&&&&&&&&&&&&&&&&&&&o@&",
"&@o&&&&&&&&&&&&&&&&&&&&&&&&&&&&&&&&&&&&&&&&&&&&X       &&&&&&&&&&&&&&&&&&&&&&&&&&&&&&&&&&&&&&&&&&o@&",
"&@o&&&&&&&&&&&&&&&&&&&&&&&&&&&&&&&&&&&&&&&&&&&&X       &&&&&&&&&&&&&&&&&&&&&&&&&&&&&&&&&&&&&&&&&&o@&",
"&@o&&&&&&&&&&&&&&&&&&&&&&&&&&&&&&&&&&&&&&&&&&&&X       &&&&&&&&&&&&&&&&&&&&&&&&&&&&&&&&&&&&&&&&&&o@&",
"&@o&&&&&&&&&&&&&&&&&&&&&&&&&&&&&&&&&&&&&&&&&&&&X       &&&&&&&&&&&&&&&&&&&&&&&&&&&&&&&&&&&&&&&&&&o@&",
"&@o&&&&&&&&&&&&&&&&&&&&&&&&&&&&&&&&&&&&&&&&&&&&X       &&&&&&&&&&&&&&&&&&&&&&&&&&&&&&&&&&&&&&&&&&o@&",
"&@o&&&&&&&&&&&&&&&&&&&&&&&&&&&&&&&&&&&&&&&&&&&&X       &&&&&&&&&&&&&&&&&&&&&&&&&&&&&&&&&&&&&&&&&&o@&",
"&@o&&&&&&&&&&&&&&&&&&&&&&&&&&&&&&&&&&&&&&&&&&&&X       &&&&&&&&&&&&&&&&&&&&&&&&&&&&&&&&&&&&&&&&&&o@&",
"&@o&&&&&&&&&&&&&&&&&&&&&&&&&&&&&&&&&&&&&&&&&&&&X       &&&&&&&&&&&&&&&&&&&&&&&&&&&&&&&&&&&&&&&&&&o@&",
"&@o&&&&&&&&&&&&&&&&&&&&&&&&&&&&&&&&&&&&&&&&&&&&X       &&&&&&&&&&&&&&&&&&&&&&&&&&&&&&&&&&&&&&&&&&o@&",
"&@o&&&&&&&&&&&&&&&&&&&&&&&&&&&&&&&&&&&&&&&&&&&&X       &&&&&&&&&&&&&&&&&&&&&&&&&&&&&&&&&&&&&&&&&&o@&",
"&@o&&&&&&&&&&&&&&&&&&&&&&&&&&&&&&&&&&&&&&&&&&&&X       &&&&&&&&&&&&&&&&&&&&&&&&&&&&&&&&&&&&&&&&&&o@&",
"&@o&&&&&&&&&&&&&&&&&&&&&&&&&&&&&&&&&&&&&&&&&&&&X       &&&&&&&&&&&&&&&&&&&&&&&&&&&&&&&&&&&&&&&&&&o@&",
"&@o&&&&&&&&&&&&&&&&&&&&&&&&&&&&&&&&&&&&&&&&&&&&X       &&&&&&&&&&&&&&&&&&&&&&&&&&&&&&&&&&&&&&&&&&o@&",
"&@o&&&&&&&&&&&&&&&&&&&&&&&&&&&&&&&&&&&&&&&&&&&&X       &&&&&&&&&&&&&&&&&&&&&&&&&&&&&&&&&&&&&&&&&&o@&",
"&@o&&&&&&&&&&&&&&&&&&&&&&&&&&&&&&&&&&&&&&&&&&&&X       &&&&&&&&&&&&&&&&&&&&&&&&&&&&&&&&&&&&&&&&&&o@&",
"&@o&&&&&&&&&&&&&&&&&&&&&&&&&&&&&&&&&&&&&&&&&&&&X       &&&&&&&&&&&&&&&&&&&&&&&&&&&&&&&&&&&&&&&&&&o@&",
"&@o&&&&&&&&&&&&&&&&&&&&&&&&&&&&&&&&&&&&&&&&&&&&X       &&&&&&&&&&&&&&&&&&&&&&&&&&&&&&&&&&&&&&&&&&o@&",
"&@o&&&&&&&&&&&&&&&&&&&&&&&&&&&&&&&&&&&&&&&&&&&&X       &&&&&&&&&&&&&&&&&&&&&&&&&&&&&&&&&&&&&&&&&&o@&",
"&@o&&&&&&&&&&&&&&&&&&&&&&&&&&&&&&&&&&&&&&&&&&&&X       &&&&&&&&&&&&&&&&&&&&&&&&&&&&&&&&&&&&&&&&&&o@&",
"&@o&&&&&&&&&&&&&&&&&&&&&&&&&&&&&&&&&&&&&&&&&&&&X       &&&&&&&&&&&&&&&&&&&&&&&&&&&&&&&&&&&&&&&&&&o@&",
"&@o&&&&&&&&&&&&&&&&&&&&&&&&&&&&&&&&&&&&&&&&&&&&X       &&&&&&&&&&&&&&&&&&&&&&&&&&&&&&&&&&&&&&&&&&o@&",
"&@o&&&&&&&&&&&&&&&&&&&&&&&&&&&&&&&&&&&&&&&&&&&&X       &&&&&&&&&&&&&&&&&&&&&&&&&&&&&&&&&&&&&&&&&&o@&",
"&@o&&&&&&&&&&&&&&&&&&&&&&&&&&&&&&&&&&&&&&&&&&&&X       &&&&&&&&&&&&&&&&&&&&&&&&&&&&&&&&&&&&&&&&&&o@&",
"&@o&&&&&&&&&&&&&&&&&&&&&&&&&&&&&&&&&&&&&&&&&&&&X       &&&&&&&&&&&&&&&&&&&&&&&&&&&&&&&&&&&&&&&&&&o@&",
"&@o&&&&&&&&&&&&&&&&&&&&&&&&&&&&&&&&&&&&&&&&&&&&X       &&&&&&&&&&&&&&&&&&&&&&&&&&&&&&&&&&&&&&&&&&o@&",
"&@o&&&&&&&&&&&&&&&&&&&&&&&&&&&&&&&&&&&&&&&&&&&&X       &&&&&&&&&&&&&&&&&&&&&&&&&&&&&&&&&&&&&&&&&&o@&",
"&@o&&&&&&&&&&&&&&&&&&&&&&&&&&&&&&&&&&&&&&&&&&&&X       &&&&&&&&&&&&&&&&&&&&&&&&&&&&&&&&&&&&&&&&&&o@&",
"&@o&&&&&&&&&&&&&&&&&&&&&&&&&&&&&&&&&&&&&&&&&&&&X       &&&&&&&&&&&&&&&&&&&&&&&&&&&&&&&&&&&&&&&&&&o@&",
"&@o&&&&&&&&&&&&&&&&&&&&&&&&&&&&&&&&&&&&&&&&&&&&X       &&&&&&&&&&&&&&&&&&&&&&&&&&&&&&&&&&&&&&&&&&o@&",
"&@o&&&&&&&&&&&&&&&&&&&&&&&&&&&&&&&&&&&&&&&&&&&&X       &&&&&&&&&&&&&&&&&&&&&&&&&&&&&&&&&&&&&&&&&&o@&",
"&@o&&&&&&&&&&&&&&&&&&&&&&&&&&&&&&&&&&&&&&&&&&&&X       &&&&&&&&&&&&&&&&&&&&&&&&&&&&&&&&&&&&&&&&&&o@&",
"&@o&&&&&&&&&&&&&&&&&&&&&&&&&&&&&&&&&&&&&&&&&&&&X       &&&&&&&&&&&&&&&&&&&&&&&&&&&&&&&&&&&&&&&&&&o@&",
"&@o&&&&&&&&&&&&&&&&&&&&&&&&&&&&&&&&&&&&&&&&&&&&X       &&&&&&&&&&&&&&&&&&&&&&&&&&&&&&&&&&&&&&&&&&o@&",
"&@o&&&&&&&&&&&&&&&&&&&&&&&&&&&&&&&&&&&&&&&&&&&&X       &&&&&&&&&&&&&&&&&&&&&&&&&&&&&&&&&&&&&&&&&&o@&",
"&@o&&&&&&&&&&&&&&&&&&&&&&&&&&&&&&&&&&&&&&&&&&&&X       &&&&&&&&&&&&&&&&&&&&&&&&&&&&&&&&&&&&&&&&&&o@&",
"&@o&&&&&&&&&&&&&&&&&&&&&&&&&&&&&&&&&&&&&&&&&&&&X       &&&&&&&&&&&&&&&&&&&&&&&&&&&&&&&&&&&&&&&&&&o@&",
"&@o&&&&&&&&&&&&&&&&&&&&&&&&&&&&&&&&&&&&&&&&&&&&X       &&&&&&&&&&&&&&&&&&&&&&&&&&&&&&&&&&&&&&&&&&o@&",
"&@o&&&&&&&&&&&&&&&&&&&&&&&&&&&&&&&&&&&&&&&&&&&&X       &&&&&&&&&&&&&&&&&&&&&&&&&&&&&&&&&&&&&&&&&&o@&",
"&@o&&&&&&&&&&&&&&&&&&&&&&&&&&&&&&&&&&&&&&&&&&&&X       &&&&&&&&&&&&&&&&&&&&&&&&&&&&&&&&&&&&&&&&&&o@&",
"&@o&&&&&&&&&&&&&&&&&&&&&&&&&&&&&&&&&&&&&&&&&&&&X       &&&&&&&&&&&&&&&&&&&&&&&&&&&&&&&&&&&&&&&&&&o@&",
"&@o&&&&&&&&&&&&&&&&&&&&&&&&&&&&&&&&&&&&&&&&&&&&X       &&&&&&&&&&&&&&&&&&&&&&&&&&&&&&&&&&&&&&&&&&o@&",
"&@o&&&&&&&&&&&&&&&&&&&&&&&&&&&&&&&&%%%%%%%%%%%%.       %%%%%%%%%%%%&&&&&&&&&&&&&&&&&&&&&&&&&&&&&&o@&",
"&@o&&&&&&&&&&&&&&&&&&&&&&&&&&&&&&&$                                #&&&&&&&&&&&&&&&&&&&&&&&&&&&&&o@&",
"&@o&&&&&&&&&&&&&&&&&&&&&&&&&&&&&&&$                                #&&&&&&&&&&&&&&&&&&&&&&&&&&&&&o@&",
"&@o&&&&&&&&&&&&&&&&&&&&&&&&&&&&&&&$                                #&&&&&&&&&&&&&&&&&&&&&&&&&&&&&o@&",
"&@o&&&&&&&&&&&&&&&&&&&&&&&&&&&&&&&$                                #&&&&&&&&&&&&&&&&&&&&&&&&&&&&&o@&",
"&@o&&&&&&&&&&&&&&&&&&&&&&&&&&&&&&&$                                #&&&&&&&&&&&&&&&&&&&&&&&&&&&&&o@&",
"&@o&&&&&&&&&&&&&&&&&&&&&&&&&&&&&&&$                                #&&&&&&&&&&&&&&&&&&&&&&&&&&&&&o@&",
"&@o&&&&&&&&&&&&&&&&&&&&&&&&&&&&&&&&&&&&&&&&&&&&&&&&&&&&&&&&&&&&&&&&&&&&&&&&&&&&&&&&&&&&&&&&&&&&&&o@&",
"&@o&&&&&&&&&&&&&&&&&&&&&&&&&&&&&&&&&&&&&&&&&&&&&&&&&&&&&&&&&&&&&&&&&&&&&&&&&&&&&&&&&&&&&&&&&&&&&&o@&",
"&@o&&&&&&&&&&&&&&&&&&&&&&&&&&&&&&&&&&&&&&&&&&&&&&&&&&&&&&&&&&&&&&&&&&&&&&&&&&&&&&&&&&&&&&&&&&&&&&o@&",
"&@o&&&&&&&&&&&&&&&&&&&&&&&&&&&&&&&&&&&&&&&&&&&&&&&&&&&&&&&&&&&&&&&&&&&&&&&&&&&&&&&&&&&&&&&&&&&&&&o@&",
"&@o&&&&&&&&&&&&&&&&&&&&&&&&&&&&&&&&&&&&&&&&&&&&&&&&&&&&&&&&&&&&&&&&&&&&&&&&&&&&&&&&&&&&&&&&&&&&&&o@&",
"&@o&&&&&&&&&&&&&&&&&&&&&&&&&&&&&&&&&&&&&&&&&&&&&&&&&&&&&&&&&&&&&&&&&&&&&&&&&&&&&&&&&&&&&&&&&&&&&&o@&",
"&@o&&&&&&&&&&&&&&&&&&&&&&&&&&&&&&&&&&&&&&&&&&&&&&&&&&&&&&&&&&&&&&&&&&&&&&&&&&&&&&&&&&&&&&&&&&&&&&o@&",
"&@o&&&&&&&&&&&&&&&&&&&&&&&&&&&&&&&&&&&&&&&&&&&&&&&&&&&&&&&&&&&&&&&&&&&&&&&&&&&&&&&&&&&&&&&&&&&&&&o@&",
"&@o&&&&&&&&&&&&&&&&&&&&&&&&&&&&&&&&&&&&&&&&&&&&&&&&&&&&&&&&&&&&&&&&&&&&&&&&&&&&&&&&&&&&&&&&&&&&&&o@&",
"&@o&&&&&&&&&&&&&&&&&&&&&&&&&&&&&&&&&&&&&&&&&&&&&&&&&&&&&&&&&&&&&&&&&&&&&&&&&&&&&&&&&&&&&&&&&&&&&&o@&",
"&@o&&&&&&&&&&&&&&&&&&&&&&&&&&&&&&&&&&&&&&&&&&&&&&&&&&&&&&&&&&&&&&&&&&&&&&&&&&&&&&&&&&&&&&&&&&&&&&o@&",
"&@o&&&&&&&&&&&&&&&&&&&&&&&&&&&&&&&&&&&&&&&&&&&&&&&&&&&&&&&&&&&&&&&&&&&&&&&&&&&&&&&&&&&&&&&&&&&&&&o@&",
"&@o&&&&&&&&&&&&&&&&&&&&&&&&&&&&&&&&&&&&&&&&&&&&&&&&&&&&&&&&&&&&&&&&&&&&&&&&&&&&&&&&&&&&&&&&&&&&&&o@&",
"&@o&&&&&&&&&&&&&&&&&&&&&&&&&&&&&&&&&&&&&&&&&&&&&&&&&&&&&&&&&&&&&&&&&&&&&&&&&&&&&&&&&&&&&&&&&&&&&&o@&",
"&@o&&&&&&&&&&&&&&&&&&&&&&&&&&&&&&&&&&&&&&&&&&&&&&&&&&&&&&&&&&&&&&&&&&&&&&&&&&&&&&&&&&&&&&&&&&&&&&o@&",
"&@o&&&&&&&&&&&&&&&&&&&&&&&&&&&&&&&&&&&&&&&&&&&&&&&&&&&&&&&&&&&&&&&&&&&&&&&&&&&&&&&&&&&&&&&&&&&&&&o@&",
"&@o&&&&&&&&&&&&&&&&&&&&&&&&&&&&&&&&&&&&&&&&&&&&&&&&&&&&&&&&&&&&&&&&&&&&&&&&&&&&&&&&&&&&&&&&&&&&&&o@&",
"&@O&&&&&&&&&&&&&&&&&&&&&&&&&&&&&&&&&&&&&&&&&&&&&&&&&&&&&&&&&&&&&&&&&&&&&&&&&&&&&&&&&&&&&&&&&&&&&&o@&",
"&@oooooooooooooooooooooooooooooooooooooooooooooooooooooooooooooooooooooooooooooooooooooooooooooooo@&",
"&+@@@@@@@@@@@@@@@@@@@@@@@@@@@@@@@@@@@@@@@@@@@@@@@@@@@@@@@@@@@@@@@@@@@@@@@@@@@@@@@@@@@@@@@@@@@@@@@@+&",
"&&&&&&&&&&&&&&&&&&&&&&&&&&&&&&&&&&&&&&&&&&&&&&&&&&&&&&&&&&&&&&&&&&&&&&&&&&&&&&&&&&&&&&&&&&&&&&&&&&&&"
};
