/* XPM */
static char *i1[] = {
/* columns rows colors chars-per-pixel */
"100 100 15 1 ",
"  c #686868",
". c #7C7C7C",
"X c #348032",
"o c #3C823B",
"O c #3F833D",
"+ c #448542",
"@ c #699568",
"# c #6D976C",
"$ c #739B72",
"% c #8CAA8B",
"& c #AFAFAF",
"* c gray70",
"= c #F7F8F7",
"- c #F8F9F8",
"; c white",
/* pixels */
";;;;;;;;;;;;;;;;;;;;;;;;;;;;;;;;;;;;;;;;;;;;;;;;;;;;;;;;;;;;;;;;;;;;;;;;;;;;;;;;;;;;;;;;;;;;;;;;;;;;",
";&************************************************************************************************&;",
";*                                                                                                *;",
";* XXXXXXXXXXXXXXXXXXXXXXXXXXXXXXXXXXXXXXXXXXXXXXXXXXXXXXXXXXXXXXXXXXXXXXXXXXXXXXXXXXXXXXXXXXXXXX *;",
";* XXXXXXXXXXXXXXXXXXXXXXXXXXXXXXXXXXXXXXXXXXXXXXXXXXXXXXXXXXXXXXXXXXXXXXXXXXXXXXXXXXXXXXXXXXXXXX *;",
";* XXXXXXXXXXXXXXXXXXXXXXXXXXXXXXXXXXXXXXXXXXXXXXXXXXXXXXXXXXXXXXXXXXXXXXXXXXXXXXXXXXXXXXXXXXXXXX *;",
";* XXXXXXXXXXXXXXXXXXXXXXXXXXXXXXXXXXXXXXXXXXXXXXXXXXXXXXXXXXXXXXXXXXXXXXXXXXXXXXXXXXXXXXXXXXXXXX *;",
";* XXXXXXXXXXXXXXXXXXXXXXXXXXXXXXXXXXXXXXXXXXXXXXXXXXXXXXXXXXXXXXXXXXXXXXXXXXXXXXXXXXXXXXXXXXXXXX *;",
";* XXXXXXXXXXXXXXXXXXXXXXXXXXXXXXXXXXXXXXXXXXXXXXXXXXXXXXXXXXXXXXXXXXXXXXXXXXXXXXXXXXXXXXXXXXXXXX *;",
";* XXXXXXXXXXXXXXXXXXXXXXXXXXXXXXXXXXXXXXXXXXXXXXXXXXXXXXXXXXXXXXXXXXXXXXXXXXXXXXXXXXXXXXXXXXXXXX *;",
";* XXXXXXXXXXXXXXXXXXXXXXXXXXXXXXXXXXXXXXXXXXXXXXXXXXXXXXXXXXXXXXXXXXXXXXXXXXXXXXXXXXXXXXXXXXXXXX *;",
";* XXXXXXXXXXXXXXXXXXXXXXXXXXXXXXXXXXXXXXXXXXXXXXXXXXXXXXXXXXXXXXXXXXXXXXXXXXXXXXXXXXXXXXXXXXXXXX *;",
";* XXXXXXXXXXXXXXXXXXXXXXXXXXXXXXXXXXXXXXXXXXXXXXXXXXXXXXXXXXXXXXXXXXXXXXXXXXXXXXXXXXXXXXXXXXXXXX *;",
";* XXXXXXXXXXXXXXXXXXXXXXXXXXXXXXXXXXXXXXXXXXXXXXXXXXXXXXXXXXXXXXXXXXXXXXXXXXXXXXXXXXXXXXXXXXXXXX *;",
";* XXXXXXXXXXXXXXXXXXXXXXXXXXXXXXXXXXXXXXXXXXXXXXXXXXXXXXXXXXXXXXXXXXXXXXXXXXXXXXXXXXXXXXXXXXXXXX *;",
";* XXXXXXXXXXXXXXXXXXXXXXXXXXXXXXXXXXXXXXXXXXXXXXXXXXXXXXXXXXXXXXXXXXXXXXXXXXXXXXXXXXXXXXXXXXXXXX *;",
";* XXXXXXXXXXXXXXXXXXXXXXXXXXXXXXXXXXXXXXXXXXXXXXXXXXXXXXXXXXXXXXXXXXXXXXXXXXXXXXXXXXXXXXXXXXXXXX *;",
";* XXXXXXXXXXXXXXXXXXXXXXXXXXXXXXXXXXXXXXXXXXXXXXXXXXXXXXXXXXXXXXXXXXXXXXXXXXXXXXXXXXXXXXXXXXXXXX *;",
";* XXXXXXXXXXXXXXXXXXXXXXXXXXXXXXXXXXXXXXXXXXXXXXXXXXXXXXXXXXXXXXXXXXXXXXXXXXXXXXXXXXXXXXXXXXXXXX *;",
";* XXXXXXXXXXXXXXXXXXXXXXXXXXXXXXXXXXXXXXXXXXXXXXXXXXXXXXXXXXXXXXXXXXXXXXXXXXXXXXXXXXXXXXXXXXXXXX *;",
";* XXXXXXXXXXXXXXXXXXXXXXXXXXXXXXX$;;;;;;;;;;;;;;;;;;;;;;;;;;;;;;;;%XXXXXXXXXXXXXXXXXXXXXXXXXXXXX *;",
";* XXXXXXXXXXXXXXXXXXXXXXXXXXXXXXX$;;;;;;;;;;;;;;;;;;;;;;;;;;;;;;;;%XXXXXXXXXXXXXXXXXXXXXXXXXXXXX *;",
";* XXXXXXXXXXXXXXXXXXXXXXXXXXXXXXX$;;;;;;;;;;;;;;;;;;;;;;;;;;;;;;;;%XXXXXXXXXXXXXXXXXXXXXXXXXXXXX *;",
";* XXXXXXXXXXXXXXXXXXXXXXXXXXXXXXX$;;;;;;;;;;;;;;;;;;;;;;;;;;;;;;;;%XXXXXXXXXXXXXXXXXXXXXXXXXXXXX *;",
";* XXXXXXXXXXXXXXXXXXXXXXXXXXXXXXX$;;;;;;;;;;;;;;;;;;;;;;;;;;;;;;;;%XXXXXXXXXXXXXXXXXXXXXXXXXXXXX *;",
";* XXXXXXXXXXXXXXXXXXXXXXXXXXXXXXX$;;;;;;;;;;;;;;;;;;;;;;;;;;;;;;;;%XXXXXXXXXXXXXXXXXXXXXXXXXXXXX *;",
";* XXXXXXXXXXXXXXXXXXXXXXXXXXXXXXXo@@@@@@@@@@@@-;;;;;;;#@@@@@@@@@@@+XXXXXXXXXXXXXXXXXXXXXXXXXXXXX *;",
";* XXXXXXXXXXXXXXXXXXXXXXXXXXXXXXXXXXXXXXXXXXXX=;;;;;;;OXXXXXXXXXXXXXXXXXXXXXXXXXXXXXXXXXXXXXXXXX *;",
";* XXXXXXXXXXXXXXXXXXXXXXXXXXXXXXXXXXXXXXXXXXXX=;;;;;;;OXXXXXXXXXXXXXXXXXXXXXXXXXXXXXXXXXXXXXXXXX *;",
";* XXXXXXXXXXXXXXXXXXXXXXXXXXXXXXXXXXXXXXXXXXXX=;;;;;;;OXXXXXXXXXXXXXXXXXXXXXXXXXXXXXXXXXXXXXXXXX *;",
";* XXXXXXXXXXXXXXXXXXXXXXXXXXXXXXXXXXXXXXXXXXXX=;;;;;;;OXXXXXXXXXXXXXXXXXXXXXXXXXXXXXXXXXXXXXXXXX *;",
";* XXXXXXXXXXXXXXXXXXXXXXXXXXXXXXXXXXXXXXXXXXXX=;;;;;;;OXXXXXXXXXXXXXXXXXXXXXXXXXXXXXXXXXXXXXXXXX *;",
";* XXXXXXXXXXXXXXXXXXXXXXXXXXXXXXXXXXXXXXXXXXXX=;;;;;;;OXXXXXXXXXXXXXXXXXXXXXXXXXXXXXXXXXXXXXXXXX *;",
";* XXXXXXXXXXXXXXXXXXXXXXXXXXXXXXXXXXXXXXXXXXXX=;;;;;;;OXXXXXXXXXXXXXXXXXXXXXXXXXXXXXXXXXXXXXXXXX *;",
";* XXXXXXXXXXXXXXXXXXXXXXXXXXXXXXXXXXXXXXXXXXXX=;;;;;;;OXXXXXXXXXXXXXXXXXXXXXXXXXXXXXXXXXXXXXXXXX *;",
";* XXXXXXXXXXXXXXXXXXXXXXXXXXXXXXXXXXXXXXXXXXXX=;;;;;;;OXXXXXXXXXXXXXXXXXXXXXXXXXXXXXXXXXXXXXXXXX *;",
";* XXXXXXXXXXXXXXXXXXXXXXXXXXXXXXXXXXXXXXXXXXXX=;;;;;;;OXXXXXXXXXXXXXXXXXXXXXXXXXXXXXXXXXXXXXXXXX *;",
";* XXXXXXXXXXXXXXXXXXXXXXXXXXXXXXXXXXXXXXXXXXXX=;;;;;;;OXXXXXXXXXXXXXXXXXXXXXXXXXXXXXXXXXXXXXXXXX *;",
";* XXXXXXXXXXXXXXXXXXXXXXXXXXXXXXXXXXXXXXXXXXXX=;;;;;;;OXXXXXXXXXXXXXXXXXXXXXXXXXXXXXXXXXXXXXXXXX *;",
";* XXXXXXXXXXXXXXXXXXXXXXXXXXXXXXXXXXXXXXXXXXXX=;;;;;;;OXXXXXXXXXXXXXXXXXXXXXXXXXXXXXXXXXXXXXXXXX *;",
";* XXXXXXXXXXXXXXXXXXXXXXXXXXXXXXXXXXXXXXXXXXXX=;;;;;;;OXXXXXXXXXXXXXXXXXXXXXXXXXXXXXXXXXXXXXXXXX *;",
";* XXXXXXXXXXXXXXXXXXXXXXXXXXXXXXXXXXXXXXXXXXXX=;;;;;;;OXXXXXXXXXXXXXXXXXXXXXXXXXXXXXXXXXXXXXXXXX *;",
";* XXXXXXXXXXXXXXXXXXXXXXXXXXXXXXXXXXXXXXXXXXXX=;;;;;;;OXXXXXXXXXXXXXXXXXXXXXXXXXXXXXXXXXXXXXXXXX *;",
";* XXXXXXXXXXXXXXXXXXXXXXXXXXXXXXXXXXXXXXXXXXXX=;;;;;;;OXXXXXXXXXXXXXXXXXXXXXXXXXXXXXXXXXXXXXXXXX *;",
";* XXXXXXXXXXXXXXXXXXXXXXXXXXXXXXXXXXXXXXXXXXXX=;;;;;;;OXXXXXXXXXXXXXXXXXXXXXXXXXXXXXXXXXXXXXXXXX *;",
";* XXXXXXXXXXXXXXXXXXXXXXXXXXXXXXXXXXXXXXXXXXXX=;;;;;;;OXXXXXXXXXXXXXXXXXXXXXXXXXXXXXXXXXXXXXXXXX *;",
";* XXXXXXXXXXXXXXXXXXXXXXXXXXXXXXXXXXXXXXXXXXXX=;;;;;;;OXXXXXXXXXXXXXXXXXXXXXXXXXXXXXXXXXXXXXXXXX *;",
";* XXXXXXXXXXXXXXXXXXXXXXXXXXXXXXXXXXXXXXXXXXXX=;;;;;;;OXXXXXXXXXXXXXXXXXXXXXXXXXXXXXXXXXXXXXXXXX *;",
";* XXXXXXXXXXXXXXXXXXXXXXXXXXXXXXXXXXXXXXXXXXXX=;;;;;;;OXXXXXXXXXXXXXXXXXXXXXXXXXXXXXXXXXXXXXXXXX *;",
";* XXXXXXXXXXXXXXXXXXXXXXXXXXXXXXXXXXXXXXXXXXXX=;;;;;;;OXXXXXXXXXXXXXXXXXXXXXXXXXXXXXXXXXXXXXXXXX *;",
";* XXXXXXXXXXXXXXXXXXXXXXXXXXXXXXXXXXXXXXXXXXXX=;;;;;;;OXXXXXXXXXXXXXXXXXXXXXXXXXXXXXXXXXXXXXXXXX *;",
";* XXXXXXXXXXXXXXXXXXXXXXXXXXXXXXXXXXXXXXXXXXXX=;;;;;;;OXXXXXXXXXXXXXXXXXXXXXXXXXXXXXXXXXXXXXXXXX *;",
";* XXXXXXXXXXXXXXXXXXXXXXXXXXXXXXXXXXXXXXXXXXXX=;;;;;;;OXXXXXXXXXXXXXXXXXXXXXXXXXXXXXXXXXXXXXXXXX *;",
";* XXXXXXXXXXXXXXXXXXXXXXXXXXXXXXXXXXXXXXXXXXXX=;;;;;;;OXXXXXXXXXXXXXXXXXXXXXXXXXXXXXXXXXXXXXXXXX *;",
";* XXXXXXXXXXXXXXXXXXXXXXXXXXXXXXXXXXXXXXXXXXXX=;;;;;;;OXXXXXXXXXXXXXXXXXXXXXXXXXXXXXXXXXXXXXXXXX *;",
";* XXXXXXXXXXXXXXXXXXXXXXXXXXXXXXXXXXXXXXXXXXXX=;;;;;;;OXXXXXXXXXXXXXXXXXXXXXXXXXXXXXXXXXXXXXXXXX *;",
";* XXXXXXXXXXXXXXXXXXXXXXXXXXXXXXXXXXXXXXXXXXXX=;;;;;;;OXXXXXXXXXXXXXXXXXXXXXXXXXXXXXXXXXXXXXXXXX *;",
";* XXXXXXXXXXXXXXXXXXXXXXXXXXXXXXXXXXXXXXXXXXXX=;;;;;;;OXXXXXXXXXXXXXXXXXXXXXXXXXXXXXXXXXXXXXXXXX *;",
";* XXXXXXXXXXXXXXXXXXXXXXXXXXXXXXXXXXXXXXXXXXXX=;;;;;;;OXXXXXXXXXXXXXXXXXXXXXXXXXXXXXXXXXXXXXXXXX *;",
";* XXXXXXXXXXXXXXXXXXXXXXXXXXXXXXXXXXXXXXXXXXXX=;;;;;;;OXXXXXXXXXXXXXXXXXXXXXXXXXXXXXXXXXXXXXXXXX *;",
";* XXXXXXXXXXXXXXXXXXXXXXXXXXXXXXXXXXXXXXXXXXXX=;;;;;;;OXXXXXXXXXXXXXXXXXXXXXXXXXXXXXXXXXXXXXXXXX *;",
";* XXXXXXXXXXXXXXXXXXXXXXXXXXXXXXXXXXXXXXXXXXXX=;;;;;;;OXXXXXXXXXXXXXXXXXXXXXXXXXXXXXXXXXXXXXXXXX *;",
";* XXXXXXXXXXXXXXXXXXXXXXXXXXXXXXXXXXXXXXXXXXXX=;;;;;;;OXXXXXXXXXXXXXXXXXXXXXXXXXXXXXXXXXXXXXXXXX *;",
";* XXXXXXXXXXXXXXXXXXXXXXXXXXXXXXXXXXXXXXXXXXXX=;;;;;;;OXXXXXXXXXXXXXXXXXXXXXXXXXXXXXXXXXXXXXXXXX *;",
";* XXXXXXXXXXXXXXXXXXXXXXXXXXXXXXXXXXXXXXXXXXXX=;;;;;;;OXXXXXXXXXXXXXXXXXXXXXXXXXXXXXXXXXXXXXXXXX *;",
";* XXXXXXXXXXXXXXXXXXXXXXXXXXXXXXXXXXXXXXXXXXXX=;;;;;;;OXXXXXXXXXXXXXXXXXXXXXXXXXXXXXXXXXXXXXXXXX *;",
";* XXXXXXXXXXXXXXXXXXXXXXXXXXXXXXXXXXXXXXXXXXXX=;;;;;;;OXXXXXXXXXXXXXXXXXXXXXXXXXXXXXXXXXXXXXXXXX *;",
";* XXXXXXXXXXXXXXXXXXXXXXXXXXXXXXXXXXXXXXXXXXXX=;;;;;;;OXXXXXXXXXXXXXXXXXXXXXXXXXXXXXXXXXXXXXXXXX *;",
";* XXXXXXXXXXXXXXXXXXXXXXXXXXXXXXXXXXXXXXXXXXXX=;;;;;;;OXXXXXXXXXXXXXXXXXXXXXXXXXXXXXXXXXXXXXXXXX *;",
";* XXXXXXXXXXXXXXXXXXXXXXXXXXXXXXXXXXXXXXXXXXXX=;;;;;;;OXXXXXXXXXXXXXXXXXXXXXXXXXXXXXXXXXXXXXXXXX *;",
";* XXXXXXXXXXXXXXXXXXXXXXXXXXXXXXXXXXXXXXXXXXXX=;;;;;;;OXXXXXXXXXXXXXXXXXXXXXXXXXXXXXXXXXXXXXXXXX *;",
";* XXXXXXXXXXXXXXXXXXXXXXXXXXXXXXXXXXXXXXXXXXXX=;;;;;;;OXXXXXXXXXXXXXXXXXXXXXXXXXXXXXXXXXXXXXXXXX *;",
";* XXXXXXXXXXXXXXXXXXXXXXXXXXXXXXXo@@@@@@@@@@@@-;;;;;;;#@@@@@@@@@@@+XXXXXXXXXXXXXXXXXXXXXXXXXXXXX *;",
";* XXXXXXXXXXXXXXXXXXXXXXXXXXXXXXX$;;;;;;;;;;;;;;;;;;;;;;;;;;;;;;;;%XXXXXXXXXXXXXXXXXXXXXXXXXXXXX *;",
";* XXXXXXXXXXXXXXXXXXXXXXXXXXXXXXX$;;;;;;;;;;;;;;;;;;;;;;;;;;;;;;;;%XXXXXXXXXXXXXXXXXXXXXXXXXXXXX *;",
";* XXXXXXXXXXXXXXXXXXXXXXXXXXXXXXX$;;;;;;;;;;;;;;;;;;;;;;;;;;;;;;;;%XXXXXXXXXXXXXXXXXXXXXXXXXXXXX *;",
";* XXXXXXXXXXXXXXXXXXXXXXXXXXXXXXX$;;;;;;;;;;;;;;;;;;;;;;;;;;;;;;;;%XXXXXXXXXXXXXXXXXXXXXXXXXXXXX *;",
";* XXXXXXXXXXXXXXXXXXXXXXXXXXXXXXX$;;;;;;;;;;;;;;;;;;;;;;;;;;;;;;;;%XXXXXXXXXXXXXXXXXXXXXXXXXXXXX *;",
";* XXXXXXXXXXXXXXXXXXXXXXXXXXXXXXX$;;;;;;;;;;;;;;;;;;;;;;;;;;;;;;;;%XXXXXXXXXXXXXXXXXXXXXXXXXXXXX *;",
";* XXXXXXXXXXXXXXXXXXXXXXXXXXXXXXXXXXXXXXXXXXXXXXXXXXXXXXXXXXXXXXXXXXXXXXXXXXXXXXXXXXXXXXXXXXXXXX *;",
";* XXXXXXXXXXXXXXXXXXXXXXXXXXXXXXXXXXXXXXXXXXXXXXXXXXXXXXXXXXXXXXXXXXXXXXXXXXXXXXXXXXXXXXXXXXXXXX *;",
";* XXXXXXXXXXXXXXXXXXXXXXXXXXXXXXXXXXXXXXXXXXXXXXXXXXXXXXXXXXXXXXXXXXXXXXXXXXXXXXXXXXXXXXXXXXXXXX *;",
";* XXXXXXXXXXXXXXXXXXXXXXXXXXXXXXXXXXXXXXXXXXXXXXXXXXXXXXXXXXXXXXXXXXXXXXXXXXXXXXXXXXXXXXXXXXXXXX *;",
";* XXXXXXXXXXXXXXXXXXXXXXXXXXXXXXXXXXXXXXXXXXXXXXXXXXXXXXXXXXXXXXXXXXXXXXXXXXXXXXXXXXXXXXXXXXXXXX *;",
";* XXXXXXXXXXXXXXXXXXXXXXXXXXXXXXXXXXXXXXXXXXXXXXXXXXXXXXXXXXXXXXXXXXXXXXXXXXXXXXXXXXXXXXXXXXXXXX *;",
";* XXXXXXXXXXXXXXXXXXXXXXXXXXXXXXXXXXXXXXXXXXXXXXXXXXXXXXXXXXXXXXXXXXXXXXXXXXXXXXXXXXXXXXXXXXXXXX *;",
";* XXXXXXXXXXXXXXXXXXXXXXXXXXXXXXXXXXXXXXXXXXXXXXXXXXXXXXXXXXXXXXXXXXXXXXXXXXXXXXXXXXXXXXXXXXXXXX *;",
";* XXXXXXXXXXXXXXXXXXXXXXXXXXXXXXXXXXXXXXXXXXXXXXXXXXXXXXXXXXXXXXXXXXXXXXXXXXXXXXXXXXXXXXXXXXXXXX *;",
";* XXXXXXXXXXXXXXXXXXXXXXXXXXXXXXXXXXXXXXXXXXXXXXXXXXXXXXXXXXXXXXXXXXXXXXXXXXXXXXXXXXXXXXXXXXXXXX *;",
";* XXXXXXXXXXXXXXXXXXXXXXXXXXXXXXXXXXXXXXXXXXXXXXXXXXXXXXXXXXXXXXXXXXXXXXXXXXXXXXXXXXXXXXXXXXXXXX *;",
";* XXXXXXXXXXXXXXXXXXXXXXXXXXXXXXXXXXXXXXXXXXXXXXXXXXXXXXXXXXXXXXXXXXXXXXXXXXXXXXXXXXXXXXXXXXXXXX *;",
";* XXXXXXXXXXXXXXXXXXXXXXXXXXXXXXXXXXXXXXXXXXXXXXXXXXXXXXXXXXXXXXXXXXXXXXXXXXXXXXXXXXXXXXXXXXXXXX *;",
";* XXXXXXXXXXXXXXXXXXXXXXXXXXXXXXXXXXXXXXXXXXXXXXXXXXXXXXXXXXXXXXXXXXXXXXXXXXXXXXXXXXXXXXXXXXXXXX *;",
";* XXXXXXXXXXXXXXXXXXXXXXXXXXXXXXXXXXXXXXXXXXXXXXXXXXXXXXXXXXXXXXXXXXXXXXXXXXXXXXXXXXXXXXXXXXXXXX *;",
";* XXXXXXXXXXXXXXXXXXXXXXXXXXXXXXXXXXXXXXXXXXXXXXXXXXXXXXXXXXXXXXXXXXXXXXXXXXXXXXXXXXXXXXXXXXXXXX *;",
";* XXXXXXXXXXXXXXXXXXXXXXXXXXXXXXXXXXXXXXXXXXXXXXXXXXXXXXXXXXXXXXXXXXXXXXXXXXXXXXXXXXXXXXXXXXXXXX *;",
";*.XXXXXXXXXXXXXXXXXXXXXXXXXXXXXXXXXXXXXXXXXXXXXXXXXXXXXXXXXXXXXXXXXXXXXXXXXXXXXXXXXXXXXXXXXXXXXX *;",
";*                                                                                                *;",
";&************************************************************************************************&;",
";;;;;;;;;;;;;;;;;;;;;;;;;;;;;;;;;;;;;;;;;;;;;;;;;;;;;;;;;;;;;;;;;;;;;;;;;;;;;;;;;;;;;;;;;;;;;;;;;;;;"
};
