/* XPM */
static char *i3[] = {
/* columns rows colors chars-per-pixel */
"100 100 13 1 ",
"  c #686868",
". c #727272",
"X c #767676",
"o c gray47",
"O c #7C7C7C",
"+ c #8B8B8B",
"@ c #8E8E8E",
"# c #929292",
"$ c gray64",
"% c #AFAFAF",
"& c gray70",
"* c #F8F8F8",
"= c white",
/* pixels */
"====================================================================================================",
"=%&&&&&&&&&&&&&&&&&&&&&&&&&&&&&&&&&&&&&&&&&&&&&&&&&&&&&&&&&&&&&&&&&&&&&&&&&&&&&&&&&&&&&&&&&&&&&&&&%=",
"=&                                                                                                &=",
"=& .............................................................................................. &=",
"=& .............................................................................................. &=",
"=& .............................................................................................. &=",
"=& .............................................................................................. &=",
"=& .............................................................................................. &=",
"=& .............................................................................................. &=",
"=& .............................................................................................. &=",
"=& .............................................................................................. &=",
"=& .............................................................................................. &=",
"=& .............................................................................................. &=",
"=& .............................................................................................. &=",
"=& .............................................................................................. &=",
"=& .............................................................................................. &=",
"=& .............................................................................................. &=",
"=& .............................................................................................. &=",
"=& .............................................................................................. &=",
"=& .............................................................................................. &=",
"=& ...............................#================================$............................. &=",
"=& ...............................#================================$............................. &=",
"=& ...............................#================================$............................. &=",
"=& ...............................#================================$............................. &=",
"=& ...............................#================================$............................. &=",
"=& ...............................#================================$............................. &=",
"=& ...............................X++++++++++++*=======@+++++++++++o............................. &=",
"=& ............................................*=======X......................................... &=",
"=& ............................................*=======X......................................... &=",
"=& ............................................*=======X......................................... &=",
"=& ............................................*=======X......................................... &=",
"=& ............................................*=======X......................................... &=",
"=& ............................................*=======X......................................... &=",
"=& ............................................*=======X......................................... &=",
"=& ............................................*=======X......................................... &=",
"=& ............................................*=======X......................................... &=",
"=& ............................................*=======X......................................... &=",
"=& ............................................*=======X......................................... &=",
"=& ............................................*=======X......................................... &=",
"=& ............................................*=======X......................................... &=",
"=& ............................................*=======X......................................... &=",
"=& ............................................*=======X......................................... &=",
"=& ............................................*=======X......................................... &=",
"=& ............................................*=======X......................................... &=",
"=& ............................................*=======X......................................... &=",
"=& ............................................*=======X......................................... &=",
"=& ............................................*=======X......................................... &=",
"=& ............................................*=======X......................................... &=",
"=& ............................................*=======X......................................... &=",
"=& ............................................*=======X......................................... &=",
"=& ............................................*=======X......................................... &=",
"=& ............................................*=======X......................................... &=",
"=& ............................................*=======X......................................... &=",
"=& ............................................*=======X......................................... &=",
"=& ............................................*=======X......................................... &=",
"=& ............................................*=======X......................................... &=",
"=& ............................................*=======X......................................... &=",
"=& ............................................*=======X......................................... &=",
"=& ............................................*=======X......................................... &=",
"=& ............................................*=======X......................................... &=",
"=& ............................................*=======X......................................... &=",
"=& ............................................*=======X......................................... &=",
"=& ............................................*=======X......................................... &=",
"=& ............................................*=======X......................................... &=",
"=& ............................................*=======X......................................... &=",
"=& ............................................*=======X......................................... &=",
"=& ............................................*=======X......................................... &=",
"=& ............................................*=======X......................................... &=",
"=& ............................................*=======X......................................... &=",
"=& ............................................*=======X......................................... &=",
"=& ............................................*=======X......................................... &=",
"=& ............................................*=======X......................................... &=",
"=& ...............................X++++++++++++*=======@+++++++++++o............................. &=",
"=& ...............................#================================$............................. &=",
"=& ...............................#================================$............................. &=",
"=& ...............................#================================$............................. &=",
"=& ...............................#================================$............................. &=",
"=& ...............................#================================$............................. &=",
"=& ...............................#================================$............................. &=",
"=& .............................................................................................. &=",
"=& .............................................................................................. &=",
"=& .............................................................................................. &=",
"=& .............................................................................................. &=",
"=& .............................................................................................. &=",
"=& .............................................................................................. &=",
"=& .............................................................................................. &=",
"=& .............................................................................................. &=",
"=& .............................................................................................. &=",
"=& .............................................................................................. &=",
"=& .............................................................................................. &=",
"=& .............................................................................................. &=",
"=& .............................................................................................. &=",
"=& .............................................................................................. &=",
"=& .............................................................................................. &=",
"=& .............................................................................................. &=",
"=& .............................................................................................. &=",
"=&O.............................................................................................. &=",
"=&                                                                                                &=",
"=%&&&&&&&&&&&&&&&&&&&&&&&&&&&&&&&&&&&&&&&&&&&&&&&&&&&&&&&&&&&&&&&&&&&&&&&&&&&&&&&&&&&&&&&&&&&&&&&&%=",
"===================================================================================================="
};
