/* XPM */
static char *j[] = {
/* columns rows colors chars-per-pixel */
"100 100 60 1 ",
"  c #2E0000",
". c #310D0D",
"X c #341616",
"o c #371C1C",
"O c #3D2626",
"+ c #422E2E",
"@ c #443232",
"# c #4E4040",
"$ c #564949",
"% c #5B4F4F",
"& c #5C5151",
"* c #645A5A",
"= c #655C5C",
"- c #685F5F",
"; c #6A6262",
": c #686868",
"> c #726A6A",
", c #766E6E",
"< c #777070",
"1 c #7C7C7C",
"2 c #807979",
"3 c #837E7E",
"4 c #857F7F",
"5 c #888282",
"6 c #8A8484",
"7 c #928D8D",
"8 c #949090",
"9 c #9B9797",
"0 c #9E9B9B",
"q c #A29E9E",
"w c #A7A3A3",
"e c #AAA7A7",
"r c #ABA8A8",
"t c #ADAAAA",
"y c #AFAFAF",
"u c #B0ADAD",
"i c gray70",
"p c #B6B3B3",
"a c #B6B4B4",
"s c #B8B5B5",
"d c #BBB9B9",
"f c #BCB9B9",
"g c #C5C3C3",
"h c #C7C5C5",
"j c #CAC8C8",
"k c #D2D0D0",
"l c #D5D4D4",
"z c #DAD9D9",
"x c #DFDEDE",
"c c #E2E2E2",
"v c #E5E4E4",
"b c #EAE9E9",
"n c #ECEBEB",
"m c gray93",
"M c #F3F2F2",
"N c #F4F3F3",
"B c #F6F6F6",
"V c #F8F7F7",
"C c gray98",
"Z c white",
/* pixels */
"ZZZZZZZZZZZZZZZZZZZZZZZZZZZZZZZZZZZZZZZZZZZZZZZZZZZZZZZZZZZZZZZZZZZZZZZZZZZZZZZZZZZZZZZZZZZZZZZZZZZZ",
"ZyiiiiiiiiiiiiiiiiiiiiiiiiiiiiiiiiiiiiiiiiiiiiiiiiiiiiiiiiiiiiiiiiiiiiiiiiiiiiiiiiiiiiiiiiiiiiiiiiyZ",
"Zi::::::::::::::::::::::::::::::::::::::::::::::::::::::::::::::::::::::::::::::::::::::::::::::::iZ",
"Zi:ZZZZZZZZZZZZZZZZZZZZZZZZZZZZZZZZZZZZZZZZZZZZZZZZZZZZZZZZZZZZZZZZZZZZZZZZZZZZZZZZZZZZZZZZZZZZZZ:iZ",
"Zi:ZZZZZZZZZZZZZZZZZZZZZZZZZZZZZZZZZZZZZZZZZZZZZZZZZZZZZZZZZZZZZZZZZZZZZZZZZZZZZZZZZZZZZZZZZZZZZZ:iZ",
"Zi:ZZZZZZZZZZZZZZZZZZZZZZZZZZZZZZZZZZZZZZZZZZZZZZZZZZZZZZZZZZZZZZZZZZZZZZZZZZZZZZZZZZZZZZZZZZZZZZ:iZ",
"Zi:ZZZZZZZZZZZZZZZZZZZZZZZZZZZZZZZZZZZZZZZZZZZZZZZZZZZZZZZZZZZZZZZZZZZZZZZZZZZZZZZZZZZZZZZZZZZZZZ:iZ",
"Zi:ZZZZZZZZZZZZZZZZZZZZZZZZZZZZZZZZZZZZZZZZZZZZZZZZZZZZZZZZZZZZZZZZZZZZZZZZZZZZZZZZZZZZZZZZZZZZZZ:iZ",
"Zi:ZZZZZZZZZZZZZZZZZZZZZZZZZZZZZZZZZZZZZZZZZZZZZZZZZZZZZZZZZZZZZZZZZZZZZZZZZZZZZZZZZZZZZZZZZZZZZZ:iZ",
"Zi:ZZZZZZZZZZZZZZZZZZZZZZZZZZZZZZZZZZZZZZZZZZZZZZZZZZZZZZZZZZZZZZZZZZZZZZZZZZZZZZZZZZZZZZZZZZZZZZ:iZ",
"Zi:ZZZZZZZZZZZZZZZZZZZZZZZZZZZZZZZZZZZZZZZZZZZZZZZZZZZZZZZZZZZZZZZZZZZZZZZZZZZZZZZZZZZZZZZZZZZZZZ:iZ",
"Zi:ZZZZZZZZZZZZZZZZZZZZZZZZZZZZZZZZZZZZZZZZZZZZZZZZZZZZZZZZZZZZZZZZZZZZZZZZZZZZZZZZZZZZZZZZZZZZZZ:iZ",
"Zi:ZZZZZZZZZZZZZZZZZZZZZZZZZZZZZZZZZZZZZZZZZZZZZZZZZZZZZZZZZZZZZZZZZZZZZZZZZZZZZZZZZZZZZZZZZZZZZZ:iZ",
"Zi:ZZZZZZZZZZZZZZZZZZZZZZZZZZZZZZZZZZZZZZZZZZZZZZZZZZZZZZZZZZZZZZZZZZZZZZZZZZZZZZZZZZZZZZZZZZZZZZ:iZ",
"Zi:ZZZZZZZZZZZZZZZZZZZZZZZZZZZZZZZZZZZZZZZZZZZZZZZZZZZZZZZZZZZZZZZZZZZZZZZZZZZZZZZZZZZZZZZZZZZZZZ:iZ",
"Zi:ZZZZZZZZZZZZZZZZZZZZZZZZZZZZZZZZZZZZZZZZZZZZZZZZZZZZZZZZZZZZZZZZZZZZZZZZZZZZZZZZZZZZZZZZZZZZZZ:iZ",
"Zi:ZZZZZZZZZZZZZZZZZZZZZZZZZZZZZZZZZZZZZZZZZZZZZZZZZZZZZZZZZZZZZZZZZZZZZZZZZZZZZZZZZZZZZZZZZZZZZZ:iZ",
"Zi:ZZZZZZZZZZZZZZZZZZZZZZZZZZZZZZZZZZZZZZZZZZZZZZZZZZZZZZZZZZZZZZZZZZZZZZZZZZZZZZZZZZZZZZZZZZZZZZ:iZ",
"Zi:ZZZZZZZZZZZZZZZZZZZZZZZZZZZZZZZZZZZZZZZZZZZZZZZZZZZZZZZZZZZZZZZZZZZZZZZZZZZZZZZZZZZZZZZZZZZZZZ:iZ",
"Zi:ZZZZZZZZZZZZZZZZZZZZZZZZZZZZZZZZZZZZZZZZZZZZZZZZZZZZZZZZZZZZZZZZZZZZZZZZZZZZZZZZZZZZZZZZZZZZZZ:iZ",
"Zi:ZZZZZZZZZZZZZZZZZZZZZZZZZZZZZZZZZZZZZZj                      lZZZZZZZZZZZZZZZZZZZZZZZZZZZZZZZZ:iZ",
"Zi:ZZZZZZZZZZZZZZZZZZZZZZZZZZZZZZZZZZZZZZj                      lZZZZZZZZZZZZZZZZZZZZZZZZZZZZZZZZ:iZ",
"Zi:ZZZZZZZZZZZZZZZZZZZZZZZZZZZZZZZZZZZZZZj                      lZZZZZZZZZZZZZZZZZZZZZZZZZZZZZZZZ:iZ",
"Zi:ZZZZZZZZZZZZZZZZZZZZZZZZZZZZZZZZZZZZZZj                      lZZZZZZZZZZZZZZZZZZZZZZZZZZZZZZZZ:iZ",
"Zi:ZZZZZZZZZZZZZZZZZZZZZZZZZZZZZZZZZZZZZZj                      lZZZZZZZZZZZZZZZZZZZZZZZZZZZZZZZZ:iZ",
"Zi:ZZZZZZZZZZZZZZZZZZZZZZZZZZZZZZZZZZZZZZj                      lZZZZZZZZZZZZZZZZZZZZZZZZZZZZZZZZ:iZ",
"Zi:ZZZZZZZZZZZZZZZZZZZZZZZZZZZZZZZZZZZZZZCMMMMMMMMMMMMMMt       lZZZZZZZZZZZZZZZZZZZZZZZZZZZZZZZZ:iZ",
"Zi:ZZZZZZZZZZZZZZZZZZZZZZZZZZZZZZZZZZZZZZZZZZZZZZZZZZZZZp       lZZZZZZZZZZZZZZZZZZZZZZZZZZZZZZZZ:iZ",
"Zi:ZZZZZZZZZZZZZZZZZZZZZZZZZZZZZZZZZZZZZZZZZZZZZZZZZZZZZp       lZZZZZZZZZZZZZZZZZZZZZZZZZZZZZZZZ:iZ",
"Zi:ZZZZZZZZZZZZZZZZZZZZZZZZZZZZZZZZZZZZZZZZZZZZZZZZZZZZZp       lZZZZZZZZZZZZZZZZZZZZZZZZZZZZZZZZ:iZ",
"Zi:ZZZZZZZZZZZZZZZZZZZZZZZZZZZZZZZZZZZZZZZZZZZZZZZZZZZZZp       lZZZZZZZZZZZZZZZZZZZZZZZZZZZZZZZZ:iZ",
"Zi:ZZZZZZZZZZZZZZZZZZZZZZZZZZZZZZZZZZZZZZZZZZZZZZZZZZZZZp       lZZZZZZZZZZZZZZZZZZZZZZZZZZZZZZZZ:iZ",
"Zi:ZZZZZZZZZZZZZZZZZZZZZZZZZZZZZZZZZZZZZZZZZZZZZZZZZZZZZp       lZZZZZZZZZZZZZZZZZZZZZZZZZZZZZZZZ:iZ",
"Zi:ZZZZZZZZZZZZZZZZZZZZZZZZZZZZZZZZZZZZZZZZZZZZZZZZZZZZZp       lZZZZZZZZZZZZZZZZZZZZZZZZZZZZZZZZ:iZ",
"Zi:ZZZZZZZZZZZZZZZZZZZZZZZZZZZZZZZZZZZZZZZZZZZZZZZZZZZZZp       lZZZZZZZZZZZZZZZZZZZZZZZZZZZZZZZZ:iZ",
"Zi:ZZZZZZZZZZZZZZZZZZZZZZZZZZZZZZZZZZZZZZZZZZZZZZZZZZZZZp       lZZZZZZZZZZZZZZZZZZZZZZZZZZZZZZZZ:iZ",
"Zi:ZZZZZZZZZZZZZZZZZZZZZZZZZZZZZZZZZZZZZZZZZZZZZZZZZZZZZp       lZZZZZZZZZZZZZZZZZZZZZZZZZZZZZZZZ:iZ",
"Zi:ZZZZZZZZZZZZZZZZZZZZZZZZZZZZZZZZZZZZZZZZZZZZZZZZZZZZZp       lZZZZZZZZZZZZZZZZZZZZZZZZZZZZZZZZ:iZ",
"Zi:ZZZZZZZZZZZZZZZZZZZZZZZZZZZZZZZZZZZZZZZZZZZZZZZZZZZZZp       lZZZZZZZZZZZZZZZZZZZZZZZZZZZZZZZZ:iZ",
"Zi:ZZZZZZZZZZZZZZZZZZZZZZZZZZZZZZZZZZZZZZZZZZZZZZZZZZZZZp       lZZZZZZZZZZZZZZZZZZZZZZZZZZZZZZZZ:iZ",
"Zi:ZZZZZZZZZZZZZZZZZZZZZZZZZZZZZZZZZZZZZZZZZZZZZZZZZZZZZp       lZZZZZZZZZZZZZZZZZZZZZZZZZZZZZZZZ:iZ",
"Zi:ZZZZZZZZZZZZZZZZZZZZZZZZZZZZZZZZZZZZZZZZZZZZZZZZZZZZZp       lZZZZZZZZZZZZZZZZZZZZZZZZZZZZZZZZ:iZ",
"Zi:ZZZZZZZZZZZZZZZZZZZZZZZZZZZZZZZZZZZZZZZZZZZZZZZZZZZZZp       lZZZZZZZZZZZZZZZZZZZZZZZZZZZZZZZZ:iZ",
"Zi:ZZZZZZZZZZZZZZZZZZZZZZZZZZZZZZZZZZZZZZZZZZZZZZZZZZZZZp       lZZZZZZZZZZZZZZZZZZZZZZZZZZZZZZZZ:iZ",
"Zi:ZZZZZZZZZZZZZZZZZZZZZZZZZZZZZZZZZZZZZZZZZZZZZZZZZZZZZp       lZZZZZZZZZZZZZZZZZZZZZZZZZZZZZZZZ:iZ",
"Zi:ZZZZZZZZZZZZZZZZZZZZZZZZZZZZZZZZZZZZZZZZZZZZZZZZZZZZZp       lZZZZZZZZZZZZZZZZZZZZZZZZZZZZZZZZ:iZ",
"Zi:ZZZZZZZZZZZZZZZZZZZZZZZZZZZZZZZZZZZZZZZZZZZZZZZZZZZZZp       lZZZZZZZZZZZZZZZZZZZZZZZZZZZZZZZZ:iZ",
"Zi:ZZZZZZZZZZZZZZZZZZZZZZZZZZZZZZZZZZZZZZZZZZZZZZZZZZZZZp       lZZZZZZZZZZZZZZZZZZZZZZZZZZZZZZZZ:iZ",
"Zi:ZZZZZZZZZZZZZZZZZZZZZZZZZZZZZZZZZZZZZZZZZZZZZZZZZZZZZp       lZZZZZZZZZZZZZZZZZZZZZZZZZZZZZZZZ:iZ",
"Zi:ZZZZZZZZZZZZZZZZZZZZZZZZZZZZZZZZZZZZZZZZZZZZZZZZZZZZZp       lZZZZZZZZZZZZZZZZZZZZZZZZZZZZZZZZ:iZ",
"Zi:ZZZZZZZZZZZZZZZZZZZZZZZZZZZZZZZZZZZZZZZZZZZZZZZZZZZZZp       lZZZZZZZZZZZZZZZZZZZZZZZZZZZZZZZZ:iZ",
"Zi:ZZZZZZZZZZZZZZZZZZZZZZZZZZZZZZZZZZZZZZZZZZZZZZZZZZZZZp       lZZZZZZZZZZZZZZZZZZZZZZZZZZZZZZZZ:iZ",
"Zi:ZZZZZZZZZZZZZZZZZZZZZZZZZZZZZZZZZZZZZZZZZZZZZZZZZZZZZp       lZZZZZZZZZZZZZZZZZZZZZZZZZZZZZZZZ:iZ",
"Zi:ZZZZZZZZZZZZZZZZZZZZZZZZZZZZZZZZZZZZZZZZZZZZZZZZZZZZZp       lZZZZZZZZZZZZZZZZZZZZZZZZZZZZZZZZ:iZ",
"Zi:ZZZZZZZZZZZZZZZZZZZZZZZZZZZZZZZZZZZZZZZZZZZZZZZZZZZZZp       lZZZZZZZZZZZZZZZZZZZZZZZZZZZZZZZZ:iZ",
"Zi:ZZZZZZZZZZZZZZZZZZZZZZZZZZZZZZZZZZZZZZZZZZZZZZZZZZZZZp       lZZZZZZZZZZZZZZZZZZZZZZZZZZZZZZZZ:iZ",
"Zi:ZZZZZZZZZZZZZZZZZZZZZZZZZZZZZZZZZZZZZZZZZZZZZZZZZZZZZp       lZZZZZZZZZZZZZZZZZZZZZZZZZZZZZZZZ:iZ",
"Zi:ZZZZZZZZZZZZZZZZZZZZZZZZZZZZZZZZZZZZZZZZZZZZZZZZZZZZZp       lZZZZZZZZZZZZZZZZZZZZZZZZZZZZZZZZ:iZ",
"Zi:ZZZZZZZZZZZZZZZZZZZZZZZZZZZZZZZZZZZZZZZZZZZZZZZZZZZZZp       lZZZZZZZZZZZZZZZZZZZZZZZZZZZZZZZZ:iZ",
"Zi:ZZZZZZZZZZZZZZZZZZZZZZZZZZZZZZZZZZZZZZZZZZZZZZZZZZZZZp       lZZZZZZZZZZZZZZZZZZZZZZZZZZZZZZZZ:iZ",
"Zi:ZZZZZZZZZZZZZZZZZZZZZZZZZZZZZZZZZZZZZZZZZZZZZZZZZZZZZi       zZZZZZZZZZZZZZZZZZZZZZZZZZZZZZZZZ:iZ",
"Zi:ZZZZZZZZZZZZZZZZZZZZZZZZZZZZZZZZZZZZZZZZZZZZZZZZZZZZZu       xZZZZZZZZZZZZZZZZZZZZZZZZZZZZZZZZ:iZ",
"Zi:ZZZZZZZZZZZZZZZZZZZZZZZZZZZZZZZZZZZZZZZZZZZZZZZZZZZZZw       cZZZZZZZZZZZZZZZZZZZZZZZZZZZZZZZZ:iZ",
"Zi:ZZZZZZZZZZZZZZZZZZZZZZZZZZZZZZZZZZZZZZZZZZZZZZZZZZZZZ9       bZZZZZZZZZZZZZZZZZZZZZZZZZZZZZZZZ:iZ",
"Zi:ZZZZZZZZZZZZZZZZZZZZZZZZZZZZZZZZZZZZZZZZZZZZZZZZZZZZZ3       BZZZZZZZZZZZZZZZZZZZZZZZZZZZZZZZZ:iZ",
"Zi:ZZZZZZZZZZZZZZZZZZZZZZZZZZZZZZZZZZZZZZZZZZZZZZZZZZZZZ%      OZZZZZZZZZZZZZZZZZZZZZZZZZZZZZZZZZ:iZ",
"Zi:ZZZZZZZZZZZZZZZZZZZZZZZZZZZZZZZZZZZZZZZZZZZZZZZZZZZZB       >ZZZZZZZZZZZZZZZZZZZZZZZZZZZZZZZZZ:iZ",
"Zi:ZZZZZZZZZZZZZZZZZZZZZZZZZZZZbZZZZZZZZZZZZZZZZZZZZZZZz       qZZZZZZZZZZZZZZZZZZZZZZZZZZZZZZZZZ:iZ",
"Zi:ZZZZZZZZZZZZZZZZZZZZZZZZZZZZ7fZZZZZZZZZZZZZZZZZZZZZZt       gZZZZZZZZZZZZZZZZZZZZZZZZZZZZZZZZZ:iZ",
"Zi:ZZZZZZZZZZZZZZZZZZZZZZZZZZZZ7 8BZZZZZZZZZZZZZZZZZZZC$       vZZZZZZZZZZZZZZZZZZZZZZZZZZZZZZZZZ:iZ",
"Zi:ZZZZZZZZZZZZZZZZZZZZZZZZZZZZ7  &kZZZZZZZZZZZZZZZZZZf       ;ZZZZZZZZZZZZZZZZZZZZZZZZZZZZZZZZZZ:iZ",
"Zi:ZZZZZZZZZZZZZZZZZZZZZZZZZZZZ7    5xZZZZZZZZZZZZZZZkX       aZZZZZZZZZZZZZZZZZZZZZZZZZZZZZZZZZZ:iZ",
"Zi:ZZZZZZZZZZZZZZZZZZZZZZZZZZZZ7      2jBZZZZZZZZZZBpX       +NZZZZZZZZZZZZZZZZZZZZZZZZZZZZZZZZZZ:iZ",
"Zi:ZZZZZZZZZZZZZZZZZZZZZZZZZZZZ7        o4skvmMbcj0#         pZZZZZZZZZZZZZZZZZZZZZZZZZZZZZZZZZZZ:iZ",
"Zi:ZZZZZZZZZZZZZZZZZZZZZZZZZZZZ7                            <CZZZZZZZZZZZZZZZZZZZZZZZZZZZZZZZZZZZ:iZ",
"Zi:ZZZZZZZZZZZZZZZZZZZZZZZZZZZZ7                           %nZZZZZZZZZZZZZZZZZZZZZZZZZZZZZZZZZZZZ:iZ",
"Zi:ZZZZZZZZZZZZZZZZZZZZZZZZZZZZe                          -mZZZZZZZZZZZZZZZZZZZZZZZZZZZZZZZZZZZZZ:iZ",
"Zi:ZZZZZZZZZZZZZZZZZZZZZZZZZZZZZms*                     .tCZZZZZZZZZZZZZZZZZZZZZZZZZZZZZZZZZZZZZZ:iZ",
"Zi:ZZZZZZZZZZZZZZZZZZZZZZZZZZZZZZZZcd4o               $umZZZZZZZZZZZZZZZZZZZZZZZZZZZZZZZZZZZZZZZZ:iZ",
"Zi:ZZZZZZZZZZZZZZZZZZZZZZZZZZZZZZZZZZZVxhr6,=#X@$;6egvZZZZZZZZZZZZZZZZZZZZZZZZZZZZZZZZZZZZZZZZZZZ:iZ",
"Zi:ZZZZZZZZZZZZZZZZZZZZZZZZZZZZZZZZZZZZZZZZZZZZZZZZZZZZZZZZZZZZZZZZZZZZZZZZZZZZZZZZZZZZZZZZZZZZZZ:iZ",
"Zi:ZZZZZZZZZZZZZZZZZZZZZZZZZZZZZZZZZZZZZZZZZZZZZZZZZZZZZZZZZZZZZZZZZZZZZZZZZZZZZZZZZZZZZZZZZZZZZZ:iZ",
"Zi:ZZZZZZZZZZZZZZZZZZZZZZZZZZZZZZZZZZZZZZZZZZZZZZZZZZZZZZZZZZZZZZZZZZZZZZZZZZZZZZZZZZZZZZZZZZZZZZ:iZ",
"Zi:ZZZZZZZZZZZZZZZZZZZZZZZZZZZZZZZZZZZZZZZZZZZZZZZZZZZZZZZZZZZZZZZZZZZZZZZZZZZZZZZZZZZZZZZZZZZZZZ:iZ",
"Zi:ZZZZZZZZZZZZZZZZZZZZZZZZZZZZZZZZZZZZZZZZZZZZZZZZZZZZZZZZZZZZZZZZZZZZZZZZZZZZZZZZZZZZZZZZZZZZZZ:iZ",
"Zi:ZZZZZZZZZZZZZZZZZZZZZZZZZZZZZZZZZZZZZZZZZZZZZZZZZZZZZZZZZZZZZZZZZZZZZZZZZZZZZZZZZZZZZZZZZZZZZZ:iZ",
"Zi:ZZZZZZZZZZZZZZZZZZZZZZZZZZZZZZZZZZZZZZZZZZZZZZZZZZZZZZZZZZZZZZZZZZZZZZZZZZZZZZZZZZZZZZZZZZZZZZ:iZ",
"Zi:ZZZZZZZZZZZZZZZZZZZZZZZZZZZZZZZZZZZZZZZZZZZZZZZZZZZZZZZZZZZZZZZZZZZZZZZZZZZZZZZZZZZZZZZZZZZZZZ:iZ",
"Zi:ZZZZZZZZZZZZZZZZZZZZZZZZZZZZZZZZZZZZZZZZZZZZZZZZZZZZZZZZZZZZZZZZZZZZZZZZZZZZZZZZZZZZZZZZZZZZZZ:iZ",
"Zi:ZZZZZZZZZZZZZZZZZZZZZZZZZZZZZZZZZZZZZZZZZZZZZZZZZZZZZZZZZZZZZZZZZZZZZZZZZZZZZZZZZZZZZZZZZZZZZZ:iZ",
"Zi:ZZZZZZZZZZZZZZZZZZZZZZZZZZZZZZZZZZZZZZZZZZZZZZZZZZZZZZZZZZZZZZZZZZZZZZZZZZZZZZZZZZZZZZZZZZZZZZ:iZ",
"Zi:ZZZZZZZZZZZZZZZZZZZZZZZZZZZZZZZZZZZZZZZZZZZZZZZZZZZZZZZZZZZZZZZZZZZZZZZZZZZZZZZZZZZZZZZZZZZZZZ:iZ",
"Zi:ZZZZZZZZZZZZZZZZZZZZZZZZZZZZZZZZZZZZZZZZZZZZZZZZZZZZZZZZZZZZZZZZZZZZZZZZZZZZZZZZZZZZZZZZZZZZZZ:iZ",
"Zi:ZZZZZZZZZZZZZZZZZZZZZZZZZZZZZZZZZZZZZZZZZZZZZZZZZZZZZZZZZZZZZZZZZZZZZZZZZZZZZZZZZZZZZZZZZZZZZZ:iZ",
"Zi:ZZZZZZZZZZZZZZZZZZZZZZZZZZZZZZZZZZZZZZZZZZZZZZZZZZZZZZZZZZZZZZZZZZZZZZZZZZZZZZZZZZZZZZZZZZZZZZ:iZ",
"Zi:ZZZZZZZZZZZZZZZZZZZZZZZZZZZZZZZZZZZZZZZZZZZZZZZZZZZZZZZZZZZZZZZZZZZZZZZZZZZZZZZZZZZZZZZZZZZZZZ:iZ",
"Zi1ZZZZZZZZZZZZZZZZZZZZZZZZZZZZZZZZZZZZZZZZZZZZZZZZZZZZZZZZZZZZZZZZZZZZZZZZZZZZZZZZZZZZZZZZZZZZZZ:iZ",
"Zi::::::::::::::::::::::::::::::::::::::::::::::::::::::::::::::::::::::::::::::::::::::::::::::::iZ",
"ZyiiiiiiiiiiiiiiiiiiiiiiiiiiiiiiiiiiiiiiiiiiiiiiiiiiiiiiiiiiiiiiiiiiiiiiiiiiiiiiiiiiiiiiiiiiiiiiiiyZ",
"ZZZZZZZZZZZZZZZZZZZZZZZZZZZZZZZZZZZZZZZZZZZZZZZZZZZZZZZZZZZZZZZZZZZZZZZZZZZZZZZZZZZZZZZZZZZZZZZZZZZZ"
};
