/* XPM */
static char *j1[] = {
/* columns rows colors chars-per-pixel */
"100 100 56 1 ",
"  c #686868",
". c #7C7C7C",
"X c #348032",
"o c #378135",
"O c #3A8238",
"+ c #4C884B",
"@ c #4E894D",
"# c #578D56",
"$ c #588D57",
"% c #5D905C",
"& c #60915F",
"* c #639362",
"= c #669465",
"- c #699568",
"; c #6D976C",
": c #779D77",
"> c #7A9F79",
", c #7FA27E",
"< c #81A381",
"1 c #85A685",
"2 c #89A889",
"3 c #8EAB8D",
"4 c #8FAC8F",
"5 c #90AD90",
"6 c #94AF93",
"7 c #96B196",
"8 c #9BB49B",
"9 c #9DB59D",
"0 c #AFAFAF",
"q c #A3B9A2",
"w c #A7BCA7",
"e c #A8BCA7",
"r c gray70",
"t c #B2C3B1",
"y c #B4C5B4",
"u c #B8C8B7",
"i c #BFCDBF",
"p c #C1CFC1",
"a c #C6D2C6",
"s c #C8D4C8",
"d c #CDD8CD",
"f c #D2DBD2",
"g c #D6DED6",
"h c #DAE2DA",
"j c #DEE5DE",
"k c #E0E6E0",
"l c #E3E9E3",
"z c #E7EBE6",
"x c #E7ECE7",
"c c #E9EDE9",
"v c #EDF1ED",
"b c #F3F5F3",
"n c #F4F6F4",
"m c #F6F8F6",
"M c #F9FAF9",
"N c white",
/* pixels */
"NNNNNNNNNNNNNNNNNNNNNNNNNNNNNNNNNNNNNNNNNNNNNNNNNNNNNNNNNNNNNNNNNNNNNNNNNNNNNNNNNNNNNNNNNNNNNNNNNNNN",
"N0rrrrrrrrrrrrrrrrrrrrrrrrrrrrrrrrrrrrrrrrrrrrrrrrrrrrrrrrrrrrrrrrrrrrrrrrrrrrrrrrrrrrrrrrrrrrrrrr0N",
"Nr                                                                                                rN",
"Nr XXXXXXXXXXXXXXXXXXXXXXXXXXXXXXXXXXXXXXXXXXXXXXXXXXXXXXXXXXXXXXXXXXXXXXXXXXXXXXXXXXXXXXXXXXXXXX rN",
"Nr XXXXXXXXXXXXXXXXXXXXXXXXXXXXXXXXXXXXXXXXXXXXXXXXXXXXXXXXXXXXXXXXXXXXXXXXXXXXXXXXXXXXXXXXXXXXXX rN",
"Nr XXXXXXXXXXXXXXXXXXXXXXXXXXXXXXXXXXXXXXXXXXXXXXXXXXXXXXXXXXXXXXXXXXXXXXXXXXXXXXXXXXXXXXXXXXXXXX rN",
"Nr XXXXXXXXXXXXXXXXXXXXXXXXXXXXXXXXXXXXXXXXXXXXXXXXXXXXXXXXXXXXXXXXXXXXXXXXXXXXXXXXXXXXXXXXXXXXXX rN",
"Nr XXXXXXXXXXXXXXXXXXXXXXXXXXXXXXXXXXXXXXXXXXXXXXXXXXXXXXXXXXXXXXXXXXXXXXXXXXXXXXXXXXXXXXXXXXXXXX rN",
"Nr XXXXXXXXXXXXXXXXXXXXXXXXXXXXXXXXXXXXXXXXXXXXXXXXXXXXXXXXXXXXXXXXXXXXXXXXXXXXXXXXXXXXXXXXXXXXXX rN",
"Nr XXXXXXXXXXXXXXXXXXXXXXXXXXXXXXXXXXXXXXXXXXXXXXXXXXXXXXXXXXXXXXXXXXXXXXXXXXXXXXXXXXXXXXXXXXXXXX rN",
"Nr XXXXXXXXXXXXXXXXXXXXXXXXXXXXXXXXXXXXXXXXXXXXXXXXXXXXXXXXXXXXXXXXXXXXXXXXXXXXXXXXXXXXXXXXXXXXXX rN",
"Nr XXXXXXXXXXXXXXXXXXXXXXXXXXXXXXXXXXXXXXXXXXXXXXXXXXXXXXXXXXXXXXXXXXXXXXXXXXXXXXXXXXXXXXXXXXXXXX rN",
"Nr XXXXXXXXXXXXXXXXXXXXXXXXXXXXXXXXXXXXXXXXXXXXXXXXXXXXXXXXXXXXXXXXXXXXXXXXXXXXXXXXXXXXXXXXXXXXXX rN",
"Nr XXXXXXXXXXXXXXXXXXXXXXXXXXXXXXXXXXXXXXXXXXXXXXXXXXXXXXXXXXXXXXXXXXXXXXXXXXXXXXXXXXXXXXXXXXXXXX rN",
"Nr XXXXXXXXXXXXXXXXXXXXXXXXXXXXXXXXXXXXXXXXXXXXXXXXXXXXXXXXXXXXXXXXXXXXXXXXXXXXXXXXXXXXXXXXXXXXXX rN",
"Nr XXXXXXXXXXXXXXXXXXXXXXXXXXXXXXXXXXXXXXXXXXXXXXXXXXXXXXXXXXXXXXXXXXXXXXXXXXXXXXXXXXXXXXXXXXXXXX rN",
"Nr XXXXXXXXXXXXXXXXXXXXXXXXXXXXXXXXXXXXXXXXXXXXXXXXXXXXXXXXXXXXXXXXXXXXXXXXXXXXXXXXXXXXXXXXXXXXXX rN",
"Nr XXXXXXXXXXXXXXXXXXXXXXXXXXXXXXXXXXXXXXXXXXXXXXXXXXXXXXXXXXXXXXXXXXXXXXXXXXXXXXXXXXXXXXXXXXXXXX rN",
"Nr XXXXXXXXXXXXXXXXXXXXXXXXXXXXXXXXXXXXXXXXXXXXXXXXXXXXXXXXXXXXXXXXXXXXXXXXXXXXXXXXXXXXXXXXXXXXXX rN",
"Nr XXXXXXXXXXXXXXXXXXXXXXXXXXXXXXXXXXXXXXXXXXXXXXXXXXXXXXXXXXXXXXXXXXXXXXXXXXXXXXXXXXXXXXXXXXXXXX rN",
"Nr XXXXXXXXXXXXXXXXXXXXXXXXXXXXXXXXXXXXXXtNNNNNNNNNNNNNNNNNNNNNNqXXXXXXXXXXXXXXXXXXXXXXXXXXXXXXXX rN",
"Nr XXXXXXXXXXXXXXXXXXXXXXXXXXXXXXXXXXXXXXtNNNNNNNNNNNNNNNNNNNNNNqXXXXXXXXXXXXXXXXXXXXXXXXXXXXXXXX rN",
"Nr XXXXXXXXXXXXXXXXXXXXXXXXXXXXXXXXXXXXXXtNNNNNNNNNNNNNNNNNNNNNNqXXXXXXXXXXXXXXXXXXXXXXXXXXXXXXXX rN",
"Nr XXXXXXXXXXXXXXXXXXXXXXXXXXXXXXXXXXXXXXtNNNNNNNNNNNNNNNNNNNNNNqXXXXXXXXXXXXXXXXXXXXXXXXXXXXXXXX rN",
"Nr XXXXXXXXXXXXXXXXXXXXXXXXXXXXXXXXXXXXXXtNNNNNNNNNNNNNNNNNNNNNNqXXXXXXXXXXXXXXXXXXXXXXXXXXXXXXXX rN",
"Nr XXXXXXXXXXXXXXXXXXXXXXXXXXXXXXXXXXXXXXtNNNNNNNNNNNNNNNNNNNNNNqXXXXXXXXXXXXXXXXXXXXXXXXXXXXXXXX rN",
"Nr XXXXXXXXXXXXXXXXXXXXXXXXXXXXXXXXXXXXXX@--------------dNNNNNNNqXXXXXXXXXXXXXXXXXXXXXXXXXXXXXXXX rN",
"Nr XXXXXXXXXXXXXXXXXXXXXXXXXXXXXXXXXXXXXXXXXXXXXXXXXXXXXaNNNNNNNqXXXXXXXXXXXXXXXXXXXXXXXXXXXXXXXX rN",
"Nr XXXXXXXXXXXXXXXXXXXXXXXXXXXXXXXXXXXXXXXXXXXXXXXXXXXXXaNNNNNNNqXXXXXXXXXXXXXXXXXXXXXXXXXXXXXXXX rN",
"Nr XXXXXXXXXXXXXXXXXXXXXXXXXXXXXXXXXXXXXXXXXXXXXXXXXXXXXaNNNNNNNqXXXXXXXXXXXXXXXXXXXXXXXXXXXXXXXX rN",
"Nr XXXXXXXXXXXXXXXXXXXXXXXXXXXXXXXXXXXXXXXXXXXXXXXXXXXXXaNNNNNNNqXXXXXXXXXXXXXXXXXXXXXXXXXXXXXXXX rN",
"Nr XXXXXXXXXXXXXXXXXXXXXXXXXXXXXXXXXXXXXXXXXXXXXXXXXXXXXaNNNNNNNqXXXXXXXXXXXXXXXXXXXXXXXXXXXXXXXX rN",
"Nr XXXXXXXXXXXXXXXXXXXXXXXXXXXXXXXXXXXXXXXXXXXXXXXXXXXXXaNNNNNNNqXXXXXXXXXXXXXXXXXXXXXXXXXXXXXXXX rN",
"Nr XXXXXXXXXXXXXXXXXXXXXXXXXXXXXXXXXXXXXXXXXXXXXXXXXXXXXaNNNNNNNqXXXXXXXXXXXXXXXXXXXXXXXXXXXXXXXX rN",
"Nr XXXXXXXXXXXXXXXXXXXXXXXXXXXXXXXXXXXXXXXXXXXXXXXXXXXXXaNNNNNNNqXXXXXXXXXXXXXXXXXXXXXXXXXXXXXXXX rN",
"Nr XXXXXXXXXXXXXXXXXXXXXXXXXXXXXXXXXXXXXXXXXXXXXXXXXXXXXaNNNNNNNqXXXXXXXXXXXXXXXXXXXXXXXXXXXXXXXX rN",
"Nr XXXXXXXXXXXXXXXXXXXXXXXXXXXXXXXXXXXXXXXXXXXXXXXXXXXXXaNNNNNNNqXXXXXXXXXXXXXXXXXXXXXXXXXXXXXXXX rN",
"Nr XXXXXXXXXXXXXXXXXXXXXXXXXXXXXXXXXXXXXXXXXXXXXXXXXXXXXaNNNNNNNqXXXXXXXXXXXXXXXXXXXXXXXXXXXXXXXX rN",
"Nr XXXXXXXXXXXXXXXXXXXXXXXXXXXXXXXXXXXXXXXXXXXXXXXXXXXXXaNNNNNNNqXXXXXXXXXXXXXXXXXXXXXXXXXXXXXXXX rN",
"Nr XXXXXXXXXXXXXXXXXXXXXXXXXXXXXXXXXXXXXXXXXXXXXXXXXXXXXaNNNNNNNqXXXXXXXXXXXXXXXXXXXXXXXXXXXXXXXX rN",
"Nr XXXXXXXXXXXXXXXXXXXXXXXXXXXXXXXXXXXXXXXXXXXXXXXXXXXXXaNNNNNNNqXXXXXXXXXXXXXXXXXXXXXXXXXXXXXXXX rN",
"Nr XXXXXXXXXXXXXXXXXXXXXXXXXXXXXXXXXXXXXXXXXXXXXXXXXXXXXaNNNNNNNqXXXXXXXXXXXXXXXXXXXXXXXXXXXXXXXX rN",
"Nr XXXXXXXXXXXXXXXXXXXXXXXXXXXXXXXXXXXXXXXXXXXXXXXXXXXXXaNNNNNNNqXXXXXXXXXXXXXXXXXXXXXXXXXXXXXXXX rN",
"Nr XXXXXXXXXXXXXXXXXXXXXXXXXXXXXXXXXXXXXXXXXXXXXXXXXXXXXaNNNNNNNqXXXXXXXXXXXXXXXXXXXXXXXXXXXXXXXX rN",
"Nr XXXXXXXXXXXXXXXXXXXXXXXXXXXXXXXXXXXXXXXXXXXXXXXXXXXXXaNNNNNNNqXXXXXXXXXXXXXXXXXXXXXXXXXXXXXXXX rN",
"Nr XXXXXXXXXXXXXXXXXXXXXXXXXXXXXXXXXXXXXXXXXXXXXXXXXXXXXaNNNNNNNqXXXXXXXXXXXXXXXXXXXXXXXXXXXXXXXX rN",
"Nr XXXXXXXXXXXXXXXXXXXXXXXXXXXXXXXXXXXXXXXXXXXXXXXXXXXXXaNNNNNNNqXXXXXXXXXXXXXXXXXXXXXXXXXXXXXXXX rN",
"Nr XXXXXXXXXXXXXXXXXXXXXXXXXXXXXXXXXXXXXXXXXXXXXXXXXXXXXaNNNNNNNqXXXXXXXXXXXXXXXXXXXXXXXXXXXXXXXX rN",
"Nr XXXXXXXXXXXXXXXXXXXXXXXXXXXXXXXXXXXXXXXXXXXXXXXXXXXXXaNNNNNNNqXXXXXXXXXXXXXXXXXXXXXXXXXXXXXXXX rN",
"Nr XXXXXXXXXXXXXXXXXXXXXXXXXXXXXXXXXXXXXXXXXXXXXXXXXXXXXaNNNNNNNqXXXXXXXXXXXXXXXXXXXXXXXXXXXXXXXX rN",
"Nr XXXXXXXXXXXXXXXXXXXXXXXXXXXXXXXXXXXXXXXXXXXXXXXXXXXXXaNNNNNNNqXXXXXXXXXXXXXXXXXXXXXXXXXXXXXXXX rN",
"Nr XXXXXXXXXXXXXXXXXXXXXXXXXXXXXXXXXXXXXXXXXXXXXXXXXXXXXaNNNNNNNqXXXXXXXXXXXXXXXXXXXXXXXXXXXXXXXX rN",
"Nr XXXXXXXXXXXXXXXXXXXXXXXXXXXXXXXXXXXXXXXXXXXXXXXXXXXXXaNNNNNNNqXXXXXXXXXXXXXXXXXXXXXXXXXXXXXXXX rN",
"Nr XXXXXXXXXXXXXXXXXXXXXXXXXXXXXXXXXXXXXXXXXXXXXXXXXXXXXaNNNNNNNqXXXXXXXXXXXXXXXXXXXXXXXXXXXXXXXX rN",
"Nr XXXXXXXXXXXXXXXXXXXXXXXXXXXXXXXXXXXXXXXXXXXXXXXXXXXXXaNNNNNNNqXXXXXXXXXXXXXXXXXXXXXXXXXXXXXXXX rN",
"Nr XXXXXXXXXXXXXXXXXXXXXXXXXXXXXXXXXXXXXXXXXXXXXXXXXXXXXaNNNNNNNqXXXXXXXXXXXXXXXXXXXXXXXXXXXXXXXX rN",
"Nr XXXXXXXXXXXXXXXXXXXXXXXXXXXXXXXXXXXXXXXXXXXXXXXXXXXXXaNNNNNNNqXXXXXXXXXXXXXXXXXXXXXXXXXXXXXXXX rN",
"Nr XXXXXXXXXXXXXXXXXXXXXXXXXXXXXXXXXXXXXXXXXXXXXXXXXXXXXaNNNNNNNqXXXXXXXXXXXXXXXXXXXXXXXXXXXXXXXX rN",
"Nr XXXXXXXXXXXXXXXXXXXXXXXXXXXXXXXXXXXXXXXXXXXXXXXXXXXXXaNNNNNNNqXXXXXXXXXXXXXXXXXXXXXXXXXXXXXXXX rN",
"Nr XXXXXXXXXXXXXXXXXXXXXXXXXXXXXXXXXXXXXXXXXXXXXXXXXXXXXaNNNNNNNqXXXXXXXXXXXXXXXXXXXXXXXXXXXXXXXX rN",
"Nr XXXXXXXXXXXXXXXXXXXXXXXXXXXXXXXXXXXXXXXXXXXXXXXXXXXXXsNNNNNNN9XXXXXXXXXXXXXXXXXXXXXXXXXXXXXXXX rN",
"Nr XXXXXXXXXXXXXXXXXXXXXXXXXXXXXXXXXXXXXXXXXXXXXXXXXXXXXsNNNNNNN7XXXXXXXXXXXXXXXXXXXXXXXXXXXXXXXX rN",
"Nr XXXXXXXXXXXXXXXXXXXXXXXXXXXXXXXXXXXXXXXXXXXXXXXXXXXXXfNNNNNNN4XXXXXXXXXXXXXXXXXXXXXXXXXXXXXXXX rN",
"Nr XXXXXXXXXXXXXXXXXXXXXXXXXXXXXXXXXXXXXXXXXXXXXXXXXXXXXhNNNNNNN<XXXXXXXXXXXXXXXXXXXXXXXXXXXXXXXX rN",
"Nr XXXXXXXXXXXXXXXXXXXXXXXXXXXXXXXXXXXXXXXXXXXXXXXXXXXXXxNNNNNNN&XXXXXXXXXXXXXXXXXXXXXXXXXXXXXXXX rN",
"Nr XXXXXXXXXXXXXXXXXXXXXXXXXXXXXXXXXXXXXXXXXXXXXXXXXXXXXmNNNNNNNoXXXXXXXXXXXXXXXXXXXXXXXXXXXXXXXX rN",
"Nr XXXXXXXXXXXXXXXXXXXXXXXXXXXXXXXXXXXXXXXXXXXXXXXXXXXX%NNNNNNNvXXXXXXXXXXXXXXXXXXXXXXXXXXXXXXXXX rN",
"Nr XXXXXXXXXXXXXXXXXXXXXXXXXXXX,XXXXXXXXXXXXXXXXXXXXXXX8NNNNNNNgXXXXXXXXXXXXXXXXXXXXXXXXXXXXXXXXX rN",
"Nr XXXXXXXXXXXXXXXXXXXXXXXXXXXXkpoXXXXXXXXXXXXXXXXXXXXXdNNNNNNNuXXXXXXXXXXXXXXXXXXXXXXXXXXXXXXXXX rN",
"Nr XXXXXXXXXXXXXXXXXXXXXXXXXXXXkNj*XXXXXXXXXXXXXXXXXXX@MNNNNNNN1XXXXXXXXXXXXXXXXXXXXXXXXXXXXXXXXX rN",
"Nr XXXXXXXXXXXXXXXXXXXXXXXXXXXXkNNmeoXXXXXXXXXXXXXXXXXiNNNNNNNbXXXXXXXXXXXXXXXXXXXXXXXXXXXXXXXXXX rN",
"Nr XXXXXXXXXXXXXXXXXXXXXXXXXXXXkNNNNz6XXXXXXXXXXXXXXXwNNNNNNNNaXXXXXXXXXXXXXXXXXXXXXXXXXXXXXXXXXX rN",
"Nr XXXXXXXXXXXXXXXXXXXXXXXXXXXXkNNNNNNct%XXXXXXXXXX%aNNNNNNNNN=XXXXXXXXXXXXXXXXXXXXXXXXXXXXXXXXXX rN",
"Nr XXXXXXXXXXXXXXXXXXXXXXXXXXXXkNNNNNNNNNzae2:;,5thMNNNNNNNNNsXXXXXXXXXXXXXXXXXXXXXXXXXXXXXXXXXXX rN",
"Nr XXXXXXXXXXXXXXXXXXXXXXXXXXXXkNNNNNNNNNNNNNNNNNNNNNNNNNNNNv+XXXXXXXXXXXXXXXXXXXXXXXXXXXXXXXXXXX rN",
"Nr XXXXXXXXXXXXXXXXXXXXXXXXXXXXkNNNNNNNNNNNNNNNNNNNNNNNNNNNm>XXXXXXXXXXXXXXXXXXXXXXXXXXXXXXXXXXXX rN",
"Nr XXXXXXXXXXXXXXXXXXXXXXXXXXXXfNNNNNNNNNNNNNNNNNNNNNNNNNNb>XXXXXXXXXXXXXXXXXXXXXXXXXXXXXXXXXXXXX rN",
"Nr XXXXXXXXXXXXXXXXXXXXXXXXXXXXX>anNNNNNNNNNNNNNNNNNNNNNNd#XXXXXXXXXXXXXXXXXXXXXXXXXXXXXXXXXXXXXX rN",
"Nr XXXXXXXXXXXXXXXXXXXXXXXXXXXXXXXO3pzNNNNNNNNNNNNNNNNMs>XXXXXXXXXXXXXXXXXXXXXXXXXXXXXXXXXXXXXXXX rN",
"Nr XXXXXXXXXXXXXXXXXXXXXXXXXXXXXXXXXXX$6ydzvbMNNmblfy1OXXXXXXXXXXXXXXXXXXXXXXXXXXXXXXXXXXXXXXXXXX rN",
"Nr XXXXXXXXXXXXXXXXXXXXXXXXXXXXXXXXXXXXXXXXXXXXXXXXXXXXXXXXXXXXXXXXXXXXXXXXXXXXXXXXXXXXXXXXXXXXXX rN",
"Nr XXXXXXXXXXXXXXXXXXXXXXXXXXXXXXXXXXXXXXXXXXXXXXXXXXXXXXXXXXXXXXXXXXXXXXXXXXXXXXXXXXXXXXXXXXXXXX rN",
"Nr XXXXXXXXXXXXXXXXXXXXXXXXXXXXXXXXXXXXXXXXXXXXXXXXXXXXXXXXXXXXXXXXXXXXXXXXXXXXXXXXXXXXXXXXXXXXXX rN",
"Nr XXXXXXXXXXXXXXXXXXXXXXXXXXXXXXXXXXXXXXXXXXXXXXXXXXXXXXXXXXXXXXXXXXXXXXXXXXXXXXXXXXXXXXXXXXXXXX rN",
"Nr XXXXXXXXXXXXXXXXXXXXXXXXXXXXXXXXXXXXXXXXXXXXXXXXXXXXXXXXXXXXXXXXXXXXXXXXXXXXXXXXXXXXXXXXXXXXXX rN",
"Nr XXXXXXXXXXXXXXXXXXXXXXXXXXXXXXXXXXXXXXXXXXXXXXXXXXXXXXXXXXXXXXXXXXXXXXXXXXXXXXXXXXXXXXXXXXXXXX rN",
"Nr XXXXXXXXXXXXXXXXXXXXXXXXXXXXXXXXXXXXXXXXXXXXXXXXXXXXXXXXXXXXXXXXXXXXXXXXXXXXXXXXXXXXXXXXXXXXXX rN",
"Nr XXXXXXXXXXXXXXXXXXXXXXXXXXXXXXXXXXXXXXXXXXXXXXXXXXXXXXXXXXXXXXXXXXXXXXXXXXXXXXXXXXXXXXXXXXXXXX rN",
"Nr XXXXXXXXXXXXXXXXXXXXXXXXXXXXXXXXXXXXXXXXXXXXXXXXXXXXXXXXXXXXXXXXXXXXXXXXXXXXXXXXXXXXXXXXXXXXXX rN",
"Nr XXXXXXXXXXXXXXXXXXXXXXXXXXXXXXXXXXXXXXXXXXXXXXXXXXXXXXXXXXXXXXXXXXXXXXXXXXXXXXXXXXXXXXXXXXXXXX rN",
"Nr XXXXXXXXXXXXXXXXXXXXXXXXXXXXXXXXXXXXXXXXXXXXXXXXXXXXXXXXXXXXXXXXXXXXXXXXXXXXXXXXXXXXXXXXXXXXXX rN",
"Nr XXXXXXXXXXXXXXXXXXXXXXXXXXXXXXXXXXXXXXXXXXXXXXXXXXXXXXXXXXXXXXXXXXXXXXXXXXXXXXXXXXXXXXXXXXXXXX rN",
"Nr XXXXXXXXXXXXXXXXXXXXXXXXXXXXXXXXXXXXXXXXXXXXXXXXXXXXXXXXXXXXXXXXXXXXXXXXXXXXXXXXXXXXXXXXXXXXXX rN",
"Nr XXXXXXXXXXXXXXXXXXXXXXXXXXXXXXXXXXXXXXXXXXXXXXXXXXXXXXXXXXXXXXXXXXXXXXXXXXXXXXXXXXXXXXXXXXXXXX rN",
"Nr XXXXXXXXXXXXXXXXXXXXXXXXXXXXXXXXXXXXXXXXXXXXXXXXXXXXXXXXXXXXXXXXXXXXXXXXXXXXXXXXXXXXXXXXXXXXXX rN",
"Nr XXXXXXXXXXXXXXXXXXXXXXXXXXXXXXXXXXXXXXXXXXXXXXXXXXXXXXXXXXXXXXXXXXXXXXXXXXXXXXXXXXXXXXXXXXXXXX rN",
"Nr.XXXXXXXXXXXXXXXXXXXXXXXXXXXXXXXXXXXXXXXXXXXXXXXXXXXXXXXXXXXXXXXXXXXXXXXXXXXXXXXXXXXXXXXXXXXXXX rN",
"Nr                                                                                                rN",
"N0rrrrrrrrrrrrrrrrrrrrrrrrrrrrrrrrrrrrrrrrrrrrrrrrrrrrrrrrrrrrrrrrrrrrrrrrrrrrrrrrrrrrrrrrrrrrrrrr0N",
"NNNNNNNNNNNNNNNNNNNNNNNNNNNNNNNNNNNNNNNNNNNNNNNNNNNNNNNNNNNNNNNNNNNNNNNNNNNNNNNNNNNNNNNNNNNNNNNNNNNN"
};
