/* XPM */
static char *j2[] = {
/* columns rows colors chars-per-pixel */
"100 100 55 1 ",
"  c #686868",
". c #7C7C7C",
"X c #C3AF2A",
"o c #C3AF2E",
"O c #C4B031",
"+ c #C6B346",
"@ c #C6B348",
"# c #C7B552",
"$ c #C8B654",
"% c #C9B759",
"& c #CAB95F",
"* c #CAB962",
"= c #CBBA65",
"- c #CCBB69",
"; c #CEBF75",
": c #CFC078",
"> c #D0C17B",
", c #D0C17C",
"< c #AFAFAF",
"1 c gray70",
"2 c #D1C383",
"3 c #D2C587",
"4 c #D4C68C",
"5 c #D5C992",
"6 c #D6CA95",
"7 c #D8CC9A",
"8 c #DACFA1",
"9 c #DBD1A6",
"0 c #DCD1A6",
"q c #DFD6B0",
"w c #E0D7B3",
"e c #E1D8B6",
"r c #E4DCBE",
"t c #E6DFC3",
"y c #E6DFC5",
"u c #E6E0C5",
"i c #E7E1C8",
"p c #E8E2CA",
"a c #E9E3CC",
"s c #EAE5CF",
"d c #EBE6D1",
"f c #EEE9D7",
"g c #EFEAD9",
"h c #F1EDDF",
"j c #F1EDE0",
"k c #F3F0E4",
"l c #F4F1E6",
"z c #F5F2E9",
"x c #F7F5ED",
"c c #F9F7F1",
"v c #FAF8F3",
"b c #FBFAF6",
"n c #FCFBF8",
"m c #FCFCF9",
"M c white",
/* pixels */
"MMMMMMMMMMMMMMMMMMMMMMMMMMMMMMMMMMMMMMMMMMMMMMMMMMMMMMMMMMMMMMMMMMMMMMMMMMMMMMMMMMMMMMMMMMMMMMMMMMMM",
"M<111111111111111111111111111111111111111111111111111111111111111111111111111111111111111111111111<M",
"M1                                                                                                1M",
"M1 XXXXXXXXXXXXXXXXXXXXXXXXXXXXXXXXXXXXXXXXXXXXXXXXXXXXXXXXXXXXXXXXXXXXXXXXXXXXXXXXXXXXXXXXXXXXXX 1M",
"M1 XXXXXXXXXXXXXXXXXXXXXXXXXXXXXXXXXXXXXXXXXXXXXXXXXXXXXXXXXXXXXXXXXXXXXXXXXXXXXXXXXXXXXXXXXXXXXX 1M",
"M1 XXXXXXXXXXXXXXXXXXXXXXXXXXXXXXXXXXXXXXXXXXXXXXXXXXXXXXXXXXXXXXXXXXXXXXXXXXXXXXXXXXXXXXXXXXXXXX 1M",
"M1 XXXXXXXXXXXXXXXXXXXXXXXXXXXXXXXXXXXXXXXXXXXXXXXXXXXXXXXXXXXXXXXXXXXXXXXXXXXXXXXXXXXXXXXXXXXXXX 1M",
"M1 XXXXXXXXXXXXXXXXXXXXXXXXXXXXXXXXXXXXXXXXXXXXXXXXXXXXXXXXXXXXXXXXXXXXXXXXXXXXXXXXXXXXXXXXXXXXXX 1M",
"M1 XXXXXXXXXXXXXXXXXXXXXXXXXXXXXXXXXXXXXXXXXXXXXXXXXXXXXXXXXXXXXXXXXXXXXXXXXXXXXXXXXXXXXXXXXXXXXX 1M",
"M1 XXXXXXXXXXXXXXXXXXXXXXXXXXXXXXXXXXXXXXXXXXXXXXXXXXXXXXXXXXXXXXXXXXXXXXXXXXXXXXXXXXXXXXXXXXXXXX 1M",
"M1 XXXXXXXXXXXXXXXXXXXXXXXXXXXXXXXXXXXXXXXXXXXXXXXXXXXXXXXXXXXXXXXXXXXXXXXXXXXXXXXXXXXXXXXXXXXXXX 1M",
"M1 XXXXXXXXXXXXXXXXXXXXXXXXXXXXXXXXXXXXXXXXXXXXXXXXXXXXXXXXXXXXXXXXXXXXXXXXXXXXXXXXXXXXXXXXXXXXXX 1M",
"M1 XXXXXXXXXXXXXXXXXXXXXXXXXXXXXXXXXXXXXXXXXXXXXXXXXXXXXXXXXXXXXXXXXXXXXXXXXXXXXXXXXXXXXXXXXXXXXX 1M",
"M1 XXXXXXXXXXXXXXXXXXXXXXXXXXXXXXXXXXXXXXXXXXXXXXXXXXXXXXXXXXXXXXXXXXXXXXXXXXXXXXXXXXXXXXXXXXXXXX 1M",
"M1 XXXXXXXXXXXXXXXXXXXXXXXXXXXXXXXXXXXXXXXXXXXXXXXXXXXXXXXXXXXXXXXXXXXXXXXXXXXXXXXXXXXXXXXXXXXXXX 1M",
"M1 XXXXXXXXXXXXXXXXXXXXXXXXXXXXXXXXXXXXXXXXXXXXXXXXXXXXXXXXXXXXXXXXXXXXXXXXXXXXXXXXXXXXXXXXXXXXXX 1M",
"M1 XXXXXXXXXXXXXXXXXXXXXXXXXXXXXXXXXXXXXXXXXXXXXXXXXXXXXXXXXXXXXXXXXXXXXXXXXXXXXXXXXXXXXXXXXXXXXX 1M",
"M1 XXXXXXXXXXXXXXXXXXXXXXXXXXXXXXXXXXXXXXXXXXXXXXXXXXXXXXXXXXXXXXXXXXXXXXXXXXXXXXXXXXXXXXXXXXXXXX 1M",
"M1 XXXXXXXXXXXXXXXXXXXXXXXXXXXXXXXXXXXXXXXXXXXXXXXXXXXXXXXXXXXXXXXXXXXXXXXXXXXXXXXXXXXXXXXXXXXXXX 1M",
"M1 XXXXXXXXXXXXXXXXXXXXXXXXXXXXXXXXXXXXXXXXXXXXXXXXXXXXXXXXXXXXXXXXXXXXXXXXXXXXXXXXXXXXXXXXXXXXXX 1M",
"M1 XXXXXXXXXXXXXXXXXXXXXXXXXXXXXXXXXXXXXXqMMMMMMMMMMMMMMMMMMMMMM8XXXXXXXXXXXXXXXXXXXXXXXXXXXXXXXX 1M",
"M1 XXXXXXXXXXXXXXXXXXXXXXXXXXXXXXXXXXXXXXqMMMMMMMMMMMMMMMMMMMMMM8XXXXXXXXXXXXXXXXXXXXXXXXXXXXXXXX 1M",
"M1 XXXXXXXXXXXXXXXXXXXXXXXXXXXXXXXXXXXXXXqMMMMMMMMMMMMMMMMMMMMMM8XXXXXXXXXXXXXXXXXXXXXXXXXXXXXXXX 1M",
"M1 XXXXXXXXXXXXXXXXXXXXXXXXXXXXXXXXXXXXXXqMMMMMMMMMMMMMMMMMMMMMM8XXXXXXXXXXXXXXXXXXXXXXXXXXXXXXXX 1M",
"M1 XXXXXXXXXXXXXXXXXXXXXXXXXXXXXXXXXXXXXXqMMMMMMMMMMMMMMMMMMMMMM8XXXXXXXXXXXXXXXXXXXXXXXXXXXXXXXX 1M",
"M1 XXXXXXXXXXXXXXXXXXXXXXXXXXXXXXXXXXXXXXqMMMMMMMMMMMMMMMMMMMMMM8XXXXXXXXXXXXXXXXXXXXXXXXXXXXXXXX 1M",
"M1 XXXXXXXXXXXXXXXXXXXXXXXXXXXXXXXXXXXXXX@==============aMMMMMMM8XXXXXXXXXXXXXXXXXXXXXXXXXXXXXXXX 1M",
"M1 XXXXXXXXXXXXXXXXXXXXXXXXXXXXXXXXXXXXXXXXXXXXXXXXXXXXXuMMMMMMM8XXXXXXXXXXXXXXXXXXXXXXXXXXXXXXXX 1M",
"M1 XXXXXXXXXXXXXXXXXXXXXXXXXXXXXXXXXXXXXXXXXXXXXXXXXXXXXuMMMMMMM8XXXXXXXXXXXXXXXXXXXXXXXXXXXXXXXX 1M",
"M1 XXXXXXXXXXXXXXXXXXXXXXXXXXXXXXXXXXXXXXXXXXXXXXXXXXXXXuMMMMMMM8XXXXXXXXXXXXXXXXXXXXXXXXXXXXXXXX 1M",
"M1 XXXXXXXXXXXXXXXXXXXXXXXXXXXXXXXXXXXXXXXXXXXXXXXXXXXXXuMMMMMMM8XXXXXXXXXXXXXXXXXXXXXXXXXXXXXXXX 1M",
"M1 XXXXXXXXXXXXXXXXXXXXXXXXXXXXXXXXXXXXXXXXXXXXXXXXXXXXXuMMMMMMM8XXXXXXXXXXXXXXXXXXXXXXXXXXXXXXXX 1M",
"M1 XXXXXXXXXXXXXXXXXXXXXXXXXXXXXXXXXXXXXXXXXXXXXXXXXXXXXuMMMMMMM8XXXXXXXXXXXXXXXXXXXXXXXXXXXXXXXX 1M",
"M1 XXXXXXXXXXXXXXXXXXXXXXXXXXXXXXXXXXXXXXXXXXXXXXXXXXXXXuMMMMMMM8XXXXXXXXXXXXXXXXXXXXXXXXXXXXXXXX 1M",
"M1 XXXXXXXXXXXXXXXXXXXXXXXXXXXXXXXXXXXXXXXXXXXXXXXXXXXXXuMMMMMMM8XXXXXXXXXXXXXXXXXXXXXXXXXXXXXXXX 1M",
"M1 XXXXXXXXXXXXXXXXXXXXXXXXXXXXXXXXXXXXXXXXXXXXXXXXXXXXXuMMMMMMM8XXXXXXXXXXXXXXXXXXXXXXXXXXXXXXXX 1M",
"M1 XXXXXXXXXXXXXXXXXXXXXXXXXXXXXXXXXXXXXXXXXXXXXXXXXXXXXuMMMMMMM8XXXXXXXXXXXXXXXXXXXXXXXXXXXXXXXX 1M",
"M1 XXXXXXXXXXXXXXXXXXXXXXXXXXXXXXXXXXXXXXXXXXXXXXXXXXXXXuMMMMMMM8XXXXXXXXXXXXXXXXXXXXXXXXXXXXXXXX 1M",
"M1 XXXXXXXXXXXXXXXXXXXXXXXXXXXXXXXXXXXXXXXXXXXXXXXXXXXXXuMMMMMMM8XXXXXXXXXXXXXXXXXXXXXXXXXXXXXXXX 1M",
"M1 XXXXXXXXXXXXXXXXXXXXXXXXXXXXXXXXXXXXXXXXXXXXXXXXXXXXXuMMMMMMM8XXXXXXXXXXXXXXXXXXXXXXXXXXXXXXXX 1M",
"M1 XXXXXXXXXXXXXXXXXXXXXXXXXXXXXXXXXXXXXXXXXXXXXXXXXXXXXuMMMMMMM8XXXXXXXXXXXXXXXXXXXXXXXXXXXXXXXX 1M",
"M1 XXXXXXXXXXXXXXXXXXXXXXXXXXXXXXXXXXXXXXXXXXXXXXXXXXXXXuMMMMMMM8XXXXXXXXXXXXXXXXXXXXXXXXXXXXXXXX 1M",
"M1 XXXXXXXXXXXXXXXXXXXXXXXXXXXXXXXXXXXXXXXXXXXXXXXXXXXXXuMMMMMMM8XXXXXXXXXXXXXXXXXXXXXXXXXXXXXXXX 1M",
"M1 XXXXXXXXXXXXXXXXXXXXXXXXXXXXXXXXXXXXXXXXXXXXXXXXXXXXXuMMMMMMM8XXXXXXXXXXXXXXXXXXXXXXXXXXXXXXXX 1M",
"M1 XXXXXXXXXXXXXXXXXXXXXXXXXXXXXXXXXXXXXXXXXXXXXXXXXXXXXuMMMMMMM8XXXXXXXXXXXXXXXXXXXXXXXXXXXXXXXX 1M",
"M1 XXXXXXXXXXXXXXXXXXXXXXXXXXXXXXXXXXXXXXXXXXXXXXXXXXXXXuMMMMMMM8XXXXXXXXXXXXXXXXXXXXXXXXXXXXXXXX 1M",
"M1 XXXXXXXXXXXXXXXXXXXXXXXXXXXXXXXXXXXXXXXXXXXXXXXXXXXXXuMMMMMMM8XXXXXXXXXXXXXXXXXXXXXXXXXXXXXXXX 1M",
"M1 XXXXXXXXXXXXXXXXXXXXXXXXXXXXXXXXXXXXXXXXXXXXXXXXXXXXXuMMMMMMM8XXXXXXXXXXXXXXXXXXXXXXXXXXXXXXXX 1M",
"M1 XXXXXXXXXXXXXXXXXXXXXXXXXXXXXXXXXXXXXXXXXXXXXXXXXXXXXuMMMMMMM8XXXXXXXXXXXXXXXXXXXXXXXXXXXXXXXX 1M",
"M1 XXXXXXXXXXXXXXXXXXXXXXXXXXXXXXXXXXXXXXXXXXXXXXXXXXXXXuMMMMMMM8XXXXXXXXXXXXXXXXXXXXXXXXXXXXXXXX 1M",
"M1 XXXXXXXXXXXXXXXXXXXXXXXXXXXXXXXXXXXXXXXXXXXXXXXXXXXXXuMMMMMMM8XXXXXXXXXXXXXXXXXXXXXXXXXXXXXXXX 1M",
"M1 XXXXXXXXXXXXXXXXXXXXXXXXXXXXXXXXXXXXXXXXXXXXXXXXXXXXXuMMMMMMM8XXXXXXXXXXXXXXXXXXXXXXXXXXXXXXXX 1M",
"M1 XXXXXXXXXXXXXXXXXXXXXXXXXXXXXXXXXXXXXXXXXXXXXXXXXXXXXuMMMMMMM8XXXXXXXXXXXXXXXXXXXXXXXXXXXXXXXX 1M",
"M1 XXXXXXXXXXXXXXXXXXXXXXXXXXXXXXXXXXXXXXXXXXXXXXXXXXXXXuMMMMMMM8XXXXXXXXXXXXXXXXXXXXXXXXXXXXXXXX 1M",
"M1 XXXXXXXXXXXXXXXXXXXXXXXXXXXXXXXXXXXXXXXXXXXXXXXXXXXXXuMMMMMMM8XXXXXXXXXXXXXXXXXXXXXXXXXXXXXXXX 1M",
"M1 XXXXXXXXXXXXXXXXXXXXXXXXXXXXXXXXXXXXXXXXXXXXXXXXXXXXXuMMMMMMM8XXXXXXXXXXXXXXXXXXXXXXXXXXXXXXXX 1M",
"M1 XXXXXXXXXXXXXXXXXXXXXXXXXXXXXXXXXXXXXXXXXXXXXXXXXXXXXuMMMMMMM8XXXXXXXXXXXXXXXXXXXXXXXXXXXXXXXX 1M",
"M1 XXXXXXXXXXXXXXXXXXXXXXXXXXXXXXXXXXXXXXXXXXXXXXXXXXXXXuMMMMMMM8XXXXXXXXXXXXXXXXXXXXXXXXXXXXXXXX 1M",
"M1 XXXXXXXXXXXXXXXXXXXXXXXXXXXXXXXXXXXXXXXXXXXXXXXXXXXXXuMMMMMMM8XXXXXXXXXXXXXXXXXXXXXXXXXXXXXXXX 1M",
"M1 XXXXXXXXXXXXXXXXXXXXXXXXXXXXXXXXXXXXXXXXXXXXXXXXXXXXXuMMMMMMM8XXXXXXXXXXXXXXXXXXXXXXXXXXXXXXXX 1M",
"M1 XXXXXXXXXXXXXXXXXXXXXXXXXXXXXXXXXXXXXXXXXXXXXXXXXXXXXiMMMMMMM7XXXXXXXXXXXXXXXXXXXXXXXXXXXXXXXX 1M",
"M1 XXXXXXXXXXXXXXXXXXXXXXXXXXXXXXXXXXXXXXXXXXXXXXXXXXXXXpMMMMMMM6XXXXXXXXXXXXXXXXXXXXXXXXXXXXXXXX 1M",
"M1 XXXXXXXXXXXXXXXXXXXXXXXXXXXXXXXXXXXXXXXXXXXXXXXXXXXXXdMMMMMMM4XXXXXXXXXXXXXXXXXXXXXXXXXXXXXXXX 1M",
"M1 XXXXXXXXXXXXXXXXXXXXXXXXXXXXXXXXXXXXXXXXXXXXXXXXXXXXXgMMMMMMM,XXXXXXXXXXXXXXXXXXXXXXXXXXXXXXXX 1M",
"M1 XXXXXXXXXXXXXXXXXXXXXXXXXXXXXXXXXXXXXXXXXXXXXXXXXXXXXlMMMMMMM&XXXXXXXXXXXXXXXXXXXXXXXXXXXXXXXX 1M",
"M1 XXXXXXXXXXXXXXXXXXXXXXXXXXXXXXXXXXXXXXXXXXXXXXXXXXXXXbMMMMMMMoXXXXXXXXXXXXXXXXXXXXXXXXXXXXXXXX 1M",
"M1 XXXXXXXXXXXXXXXXXXXXXXXXXXXXXXXXXXXXXXXXXXXXXXXXXXXX%MMMMMMMxXXXXXXXXXXXXXXXXXXXXXXXXXXXXXXXXX 1M",
"M1 XXXXXXXXXXXXXXXXXXXXXXXXXXXX,XXXXXXXXXXXXXXXXXXXXXXX7MMMMMMMfXXXXXXXXXXXXXXXXXXXXXXXXXXXXXXXXX 1M",
"M1 XXXXXXXXXXXXXXXXXXXXXXXXXXXXhtoXXXXXXXXXXXXXXXXXXXXXaMMMMMMMeXXXXXXXXXXXXXXXXXXXXXXXXXXXXXXXXX 1M",
"M1 XXXXXXXXXXXXXXXXXXXXXXXXXXXXjMh&XXXXXXXXXXXXXXXXXXX@nMMMMMMM2XXXXXXXXXXXXXXXXXXXXXXXXXXXXXXXXX 1M",
"M1 XXXXXXXXXXXXXXXXXXXXXXXXXXXXjMMb0oXXXXXXXXXXXXXXXXXrMMMMMMMcXXXXXXXXXXXXXXXXXXXXXXXXXXXXXXXXXX 1M",
"M1 XXXXXXXXXXXXXXXXXXXXXXXXXXXXjMMMMk5XXXXXXXXXXXXXXX9MMMMMMMMyXXXXXXXXXXXXXXXXXXXXXXXXXXXXXXXXXX 1M",
"M1 XXXXXXXXXXXXXXXXXXXXXXXXXXXXjMMMMMMzq%XXXXXXXXXX%uMMMMMMMMM*XXXXXXXXXXXXXXXXXXXXXXXXXXXXXXXXXX 1M",
"M1 XXXXXXXXXXXXXXXXXXXXXXXXXXXXjMMMMMMMMMlt03;->4qfmMMMMMMMMMuXXXXXXXXXXXXXXXXXXXXXXXXXXXXXXXXXXX 1M",
"M1 XXXXXXXXXXXXXXXXXXXXXXXXXXXXjMMMMMMMMMMMMMMMMMMMMMMMMMMMMx+XXXXXXXXXXXXXXXXXXXXXXXXXXXXXXXXXXX 1M",
"M1 XXXXXXXXXXXXXXXXXXXXXXXXXXXXjMMMMMMMMMMMMMMMMMMMMMMMMMMMb:XXXXXXXXXXXXXXXXXXXXXXXXXXXXXXXXXXXX 1M",
"M1 XXXXXXXXXXXXXXXXXXXXXXXXXXXXsMMMMMMMMMMMMMMMMMMMMMMMMMMv;XXXXXXXXXXXXXXXXXXXXXXXXXXXXXXXXXXXXX 1M",
"M1 XXXXXXXXXXXXXXXXXXXXXXXXXXXXX;tvMMMMMMMMMMMMMMMMMMMMMMs#XXXXXXXXXXXXXXXXXXXXXXXXXXXXXXXXXXXXXX 1M",
"M1 XXXXXXXXXXXXXXXXXXXXXXXXXXXXXXXO4tlMMMMMMMMMMMMMMMMnp;XXXXXXXXXXXXXXXXXXXXXXXXXXXXXXXXXXXXXXXX 1M",
"M1 XXXXXXXXXXXXXXXXXXXXXXXXXXXXXXXXXXX$5wskxvmMMbcjde2OXXXXXXXXXXXXXXXXXXXXXXXXXXXXXXXXXXXXXXXXXX 1M",
"M1 XXXXXXXXXXXXXXXXXXXXXXXXXXXXXXXXXXXXXXXXXXXXXXXXXXXXXXXXXXXXXXXXXXXXXXXXXXXXXXXXXXXXXXXXXXXXXX 1M",
"M1 XXXXXXXXXXXXXXXXXXXXXXXXXXXXXXXXXXXXXXXXXXXXXXXXXXXXXXXXXXXXXXXXXXXXXXXXXXXXXXXXXXXXXXXXXXXXXX 1M",
"M1 XXXXXXXXXXXXXXXXXXXXXXXXXXXXXXXXXXXXXXXXXXXXXXXXXXXXXXXXXXXXXXXXXXXXXXXXXXXXXXXXXXXXXXXXXXXXXX 1M",
"M1 XXXXXXXXXXXXXXXXXXXXXXXXXXXXXXXXXXXXXXXXXXXXXXXXXXXXXXXXXXXXXXXXXXXXXXXXXXXXXXXXXXXXXXXXXXXXXX 1M",
"M1 XXXXXXXXXXXXXXXXXXXXXXXXXXXXXXXXXXXXXXXXXXXXXXXXXXXXXXXXXXXXXXXXXXXXXXXXXXXXXXXXXXXXXXXXXXXXXX 1M",
"M1 XXXXXXXXXXXXXXXXXXXXXXXXXXXXXXXXXXXXXXXXXXXXXXXXXXXXXXXXXXXXXXXXXXXXXXXXXXXXXXXXXXXXXXXXXXXXXX 1M",
"M1 XXXXXXXXXXXXXXXXXXXXXXXXXXXXXXXXXXXXXXXXXXXXXXXXXXXXXXXXXXXXXXXXXXXXXXXXXXXXXXXXXXXXXXXXXXXXXX 1M",
"M1 XXXXXXXXXXXXXXXXXXXXXXXXXXXXXXXXXXXXXXXXXXXXXXXXXXXXXXXXXXXXXXXXXXXXXXXXXXXXXXXXXXXXXXXXXXXXXX 1M",
"M1 XXXXXXXXXXXXXXXXXXXXXXXXXXXXXXXXXXXXXXXXXXXXXXXXXXXXXXXXXXXXXXXXXXXXXXXXXXXXXXXXXXXXXXXXXXXXXX 1M",
"M1 XXXXXXXXXXXXXXXXXXXXXXXXXXXXXXXXXXXXXXXXXXXXXXXXXXXXXXXXXXXXXXXXXXXXXXXXXXXXXXXXXXXXXXXXXXXXXX 1M",
"M1 XXXXXXXXXXXXXXXXXXXXXXXXXXXXXXXXXXXXXXXXXXXXXXXXXXXXXXXXXXXXXXXXXXXXXXXXXXXXXXXXXXXXXXXXXXXXXX 1M",
"M1 XXXXXXXXXXXXXXXXXXXXXXXXXXXXXXXXXXXXXXXXXXXXXXXXXXXXXXXXXXXXXXXXXXXXXXXXXXXXXXXXXXXXXXXXXXXXXX 1M",
"M1 XXXXXXXXXXXXXXXXXXXXXXXXXXXXXXXXXXXXXXXXXXXXXXXXXXXXXXXXXXXXXXXXXXXXXXXXXXXXXXXXXXXXXXXXXXXXXX 1M",
"M1 XXXXXXXXXXXXXXXXXXXXXXXXXXXXXXXXXXXXXXXXXXXXXXXXXXXXXXXXXXXXXXXXXXXXXXXXXXXXXXXXXXXXXXXXXXXXXX 1M",
"M1 XXXXXXXXXXXXXXXXXXXXXXXXXXXXXXXXXXXXXXXXXXXXXXXXXXXXXXXXXXXXXXXXXXXXXXXXXXXXXXXXXXXXXXXXXXXXXX 1M",
"M1 XXXXXXXXXXXXXXXXXXXXXXXXXXXXXXXXXXXXXXXXXXXXXXXXXXXXXXXXXXXXXXXXXXXXXXXXXXXXXXXXXXXXXXXXXXXXXX 1M",
"M1.XXXXXXXXXXXXXXXXXXXXXXXXXXXXXXXXXXXXXXXXXXXXXXXXXXXXXXXXXXXXXXXXXXXXXXXXXXXXXXXXXXXXXXXXXXXXXX 1M",
"M1                                                                                                1M",
"M<111111111111111111111111111111111111111111111111111111111111111111111111111111111111111111111111<M",
"MMMMMMMMMMMMMMMMMMMMMMMMMMMMMMMMMMMMMMMMMMMMMMMMMMMMMMMMMMMMMMMMMMMMMMMMMMMMMMMMMMMMMMMMMMMMMMMMMMMM"
};
