/* XPM */
static char *j3[] = {
/* columns rows colors chars-per-pixel */
"100 100 34 1 ",
"  c #686868",
". c #727272",
"X c #747474",
"o c gray49",
"O c gray51",
"+ c gray52",
"@ c #8B8B8B",
"# c #8E8E8E",
"$ c #959595",
"% c #9A9A9A",
"& c gray62",
"* c gray63",
"= c #A4A4A4",
"- c gray66",
"; c #AFAFAF",
": c gray70",
"> c #B7B7B7",
", c gray75",
"< c #C1C1C1",
"1 c gray77",
"2 c #CBCBCB",
"3 c gray81",
"4 c gray82",
"5 c #D5D5D5",
"6 c gray85",
"7 c gray87",
"8 c gray88",
"9 c #E4E4E4",
"0 c #EAEAEA",
"q c #ECECEC",
"w c gray94",
"e c gray96",
"r c gray98",
"t c white",
/* pixels */
"tttttttttttttttttttttttttttttttttttttttttttttttttttttttttttttttttttttttttttttttttttttttttttttttttttt",
"t;::::::::::::::::::::::::::::::::::::::::::::::::::::::::::::::::::::::::::::::::::::::::::::::::;t",
"t:                                                                                                :t",
"t: .............................................................................................. :t",
"t: .............................................................................................. :t",
"t: .............................................................................................. :t",
"t: .............................................................................................. :t",
"t: .............................................................................................. :t",
"t: .............................................................................................. :t",
"t: .............................................................................................. :t",
"t: .............................................................................................. :t",
"t: .............................................................................................. :t",
"t: .............................................................................................. :t",
"t: .............................................................................................. :t",
"t: .............................................................................................. :t",
"t: .............................................................................................. :t",
"t: .............................................................................................. :t",
"t: .............................................................................................. :t",
"t: .............................................................................................. :t",
"t: .............................................................................................. :t",
"t: ......................................,tttttttttttttttttttttt>................................ :t",
"t: ......................................,tttttttttttttttttttttt>................................ :t",
"t: ......................................,tttttttttttttttttttttt>................................ :t",
"t: ......................................,tttttttttttttttttttttt>................................ :t",
"t: ......................................,tttttttttttttttttttttt>................................ :t",
"t: ......................................,tttttttttttttttttttttt>................................ :t",
"t: ......................................o@@@@@@@@@@@@@@5ttttttt>................................ :t",
"t: .....................................................3ttttttt:................................ :t",
"t: .....................................................3ttttttt>................................ :t",
"t: .....................................................3ttttttt>................................ :t",
"t: .....................................................3ttttttt>................................ :t",
"t: .....................................................3ttttttt>................................ :t",
"t: .....................................................3ttttttt>................................ :t",
"t: .....................................................3ttttttt>................................ :t",
"t: .....................................................3ttttttt>................................ :t",
"t: .....................................................3ttttttt:................................ :t",
"t: .....................................................3ttttttt>................................ :t",
"t: .....................................................3ttttttt>................................ :t",
"t: .....................................................3ttttttt>................................ :t",
"t: .....................................................3ttttttt>................................ :t",
"t: .....................................................3ttttttt>................................ :t",
"t: .....................................................3ttttttt>................................ :t",
"t: .....................................................3ttttttt>................................ :t",
"t: .....................................................3ttttttt:................................ :t",
"t: .....................................................3ttttttt>................................ :t",
"t: .....................................................3ttttttt>................................ :t",
"t: .....................................................3ttttttt>................................ :t",
"t: .....................................................3ttttttt>................................ :t",
"t: .....................................................3ttttttt>................................ :t",
"t: .....................................................3ttttttt>................................ :t",
"t: .....................................................3ttttttt>................................ :t",
"t: .....................................................3ttttttt:................................ :t",
"t: .....................................................3ttttttt>................................ :t",
"t: .....................................................3ttttttt>................................ :t",
"t: .....................................................3ttttttt>................................ :t",
"t: .....................................................3ttttttt>................................ :t",
"t: .....................................................3ttttttt>................................ :t",
"t: .....................................................3ttttttt>................................ :t",
"t: .....................................................3ttttttt>................................ :t",
"t: .....................................................3ttttttt:................................ :t",
"t: .....................................................4ttttttt;................................ :t",
"t: .....................................................4ttttttt-................................ :t",
"t: .....................................................6ttttttt=................................ :t",
"t: .....................................................8ttttttt%................................ :t",
"t: .....................................................0ttttttt+................................ :t",
"t: .....................................................rttttttt................................. :t",
"t: ....................................................+tttttttw................................. :t",
"t: ............................%.......................;ttttttt7................................. :t",
"t: ............................92......................5ttttttt1................................. :t",
"t: ............................9t8@...................orttttttt&................................. :t",
"t: ............................9tte>..................2ttttttte.................................. :t",
"t: ............................9tttt0-...............>tttttttt3.................................. :t",
"t: ............................9ttttttq,+..........+3ttttttttt@.................................. :t",
"t: ............................9ttttttttt03>*$#%=,7rttttttttt4................................... :t",
"t: ............................9ttttttttttttttttttttttttttttqo................................... :t",
"t: ............................9tttttttttttttttttttttttttttr$.................................... :t",
"t: ............................5tttttttttttttttttttttttttte$..................................... :t",
"t: .............................$3etttttttttttttttttttttt5O...................................... :t",
"t: ...............................X=20ttttttttttttttttr4$........................................ :t",
"t: ...................................O-<50werttrw96<&X.......................................... :t",
"t: .............................................................................................. :t",
"t: .............................................................................................. :t",
"t: .............................................................................................. :t",
"t: .............................................................................................. :t",
"t: .............................................................................................. :t",
"t: .............................................................................................. :t",
"t: .............................................................................................. :t",
"t: .............................................................................................. :t",
"t: .............................................................................................. :t",
"t: .............................................................................................. :t",
"t: .............................................................................................. :t",
"t: .............................................................................................. :t",
"t: .............................................................................................. :t",
"t: .............................................................................................. :t",
"t: .............................................................................................. :t",
"t: .............................................................................................. :t",
"t:o.............................................................................................. :t",
"t:                                                                                                :t",
"t;::::::::::::::::::::::::::::::::::::::::::::::::::::::::::::::::::::::::::::::::::::::::::::::::;t",
"tttttttttttttttttttttttttttttttttttttttttttttttttttttttttttttttttttttttttttttttttttttttttttttttttttt"
};
