/* XPM */
static char *k[] = {
/* columns rows colors chars-per-pixel */
"100 100 85 1 ",
"  c #2E0000",
". c #310D0D",
"X c #341616",
"o c #371C1C",
"O c #3A2222",
"+ c #3D2626",
"@ c #3F2A2A",
"# c #422E2E",
"$ c #443232",
"% c #463535",
"& c #483838",
"* c #4C3D3D",
"= c #4E4040",
"- c #504242",
"; c #524545",
": c #564949",
"> c #5B4F4F",
", c #5C5151",
"< c #5F5555",
"1 c #615656",
"2 c #645A5A",
"3 c #655C5C",
"4 c #685F5F",
"5 c #6A6262",
"6 c #6C6363",
"7 c #686868",
"8 c #726A6A",
"9 c #766E6E",
"0 c #797272",
"q c #7B7575",
"w c #7C7676",
"e c #7E7878",
"r c #7C7C7C",
"t c #817A7A",
"y c #857F7F",
"u c #888282",
"i c #8B8585",
"p c #8C8787",
"a c #8F8A8A",
"s c #908B8B",
"d c #938F8F",
"f c #9A9595",
"g c #9C9898",
"h c #A19D9D",
"j c #A5A1A1",
"k c #A8A4A4",
"l c #ABA8A8",
"z c #ADAAAA",
"x c #AFAFAF",
"c c #B2AFAF",
"v c gray70",
"b c #B4B1B1",
"n c #B6B4B4",
"m c #B8B6B6",
"M c #BAB8B8",
"N c #BFBDBD",
"B c #C2C0C0",
"V c #C4C2C2",
"C c #C6C4C4",
"Z c #C8C6C6",
"A c #CAC8C8",
"S c #CDCBCB",
"D c #CECDCD",
"F c #D0CECE",
"G c #D3D1D1",
"H c #D4D3D3",
"J c #D6D5D5",
"K c #D9D7D7",
"L c #DBDADA",
"P c #DCDBDB",
"I c #DEDDDD",
"U c #E0DFDF",
"Y c #E2E1E1",
"T c #E5E4E4",
"R c #E8E7E7",
"E c #EAEAEA",
"W c #ECEBEB",
"Q c #EFEFEF",
"! c #F2F1F1",
"~ c #F4F3F3",
"^ c #F7F6F6",
"/ c #F8F7F7",
"( c gray98",
") c #FCFBFB",
"_ c white",
/* pixels */
"____________________________________________________________________________________________________",
"_xvvvvvvvvvvvvvvvvvvvvvvvvvvvvvvvvvvvvvvvvvvvvvvvvvvvvvvvvvvvvvvvvvvvvvvvvvvvvvvvvvvvvvvvvvvvvvvvvx_",
"_v777777777777777777777777777777777777777777777777777777777777777777777777777777777777777777777777v_",
"_v7______________________________________________________________________________________________7v_",
"_v7______________________________________________________________________________________________7v_",
"_v7______________________________________________________________________________________________7v_",
"_v7______________________________________________________________________________________________7v_",
"_v7______________________________________________________________________________________________7v_",
"_v7______________________________________________________________________________________________7v_",
"_v7______________________________________________________________________________________________7v_",
"_v7______________________________________________________________________________________________7v_",
"_v7______________________________________________________________________________________________7v_",
"_v7______________________________________________________________________________________________7v_",
"_v7______________________________________________________________________________________________7v_",
"_v7______________________________________________________________________________________________7v_",
"_v7______________________________________________________________________________________________7v_",
"_v7______________________________________________________________________________________________7v_",
"_v7______________________________________________________________________________________________7v_",
"_v7______________________________________________________________________________________________7v_",
"_v7______________________________________________________________________________________________7v_",
"_v7_____________________________j       I_______________________m        f_______________________7v_",
"_v7_____________________________j       I______________________V        p(_______________________7v_",
"_v7_____________________________j       I_____________________D        t(________________________7v_",
"_v7_____________________________j       I____________________JX       9^_________________________7v_",
"_v7_____________________________j       I___________________I@       5!__________________________7v_",
"_v7_____________________________j       I__________________T&       ,Q___________________________7v_",
"_v7_____________________________j       I_________________E:       ;E____________________________7v_",
"_v7_____________________________j       I________________Q1       %Y_____________________________7v_",
"_v7_____________________________j       I_______________~6       +P______________________________7v_",
"_v7_____________________________j       I______________^0       XH_______________________________7v_",
"_v7_____________________________j       I_____________(y        S________________________________7v_",
"_v7_____________________________j       I_____________s        B_________________________________7v_",
"_v7_____________________________j       I____________g        n__________________________________7v_",
"_v7_____________________________j       I___________k        l___________________________________7v_",
"_v7_____________________________j       I__________b        g____________________________________7v_",
"_v7_____________________________j       I_________N        d_____________________________________7v_",
"_v7_____________________________j       I________A        u(_____________________________________7v_",
"_v7_____________________________j       I_______G.       q/______________________________________7v_",
"_v7_____________________________j       I______LO       8^_______________________________________7v_",
"_v7_____________________________j       I_____Y$       2!________________________________________7v_",
"_v7_____________________________j       I____R=       >W_________________________________________7v_",
"_v7_____________________________j       I___Q>       *T__________________________________________7v_",
"_v7_____________________________j       I__!3       #U___________________________________________7v_",
"_v7_____________________________j       I_^8       oL____________________________________________7v_",
"_v7_____________________________j       I(e        f_____________________________________________7v_",
"_v7_____________________________j       Ki          I____________________________________________7v_",
"_v7_____________________________j       3           4(___________________________________________7v_",
"_v7_____________________________j                    k___________________________________________7v_",
"_v7_____________________________j                     P__________________________________________7v_",
"_v7_____________________________j             ,       2/_________________________________________7v_",
"_v7_____________________________j            MEO       j_________________________________________7v_",
"_v7_____________________________j           c__M        L________________________________________7v_",
"_v7_____________________________j          j____9       <^_______________________________________7v_",
"_v7_____________________________j         f_____TX       h_______________________________________7v_",
"_v7_____________________________j        a)______c        J______________________________________7v_",
"_v7_____________________________j       y(_______(5       >^_____________________________________7v_",
"_v7_____________________________j       I_________I        g_____________________________________7v_",
"_v7_____________________________j       I__________k        G____________________________________7v_",
"_v7_____________________________j       I__________/<       :~___________________________________7v_",
"_v7_____________________________j       I___________J        f___________________________________7v_",
"_v7_____________________________j       I____________g        D__________________________________7v_",
"_v7_____________________________j       I____________^:       -!_________________________________7v_",
"_v7_____________________________j       I_____________F        d_________________________________7v_",
"_v7_____________________________j       I______________d        S________________________________7v_",
"_v7_____________________________j       I______________!&       *!_______________________________7v_",
"_v7_____________________________j       I_______________Z        a_______________________________7v_",
"_v7_____________________________j       I________________u        Z______________________________7v_",
"_v7_____________________________j       I________________Q#       &Q_____________________________7v_",
"_v7_____________________________j       I_________________N        i_____________________________7v_",
"_v7_____________________________j       I__________________w        C____________________________7v_",
"_v7_____________________________j       I__________________To       $Q___________________________7v_",
"_v7_____________________________j       I___________________n        y___________________________7v_",
"_v7_____________________________j       I___________________(8        B__________________________7v_",
"_v7_____________________________j       I____________________Y.       @E_________________________7v_",
"_v7_____________________________j       I_____________________z        t_________________________7v_",
"_v7_____________________________j       I_____________________(3        N________________________7v_",
"_v7_____________________________j       I______________________L        +E_______________________7v_",
"_v7_____________________________j       I_______________________h        q_______________________7v_",
"_v7_____________________________j       I_______________________^,        M______________________7v_",
"_v7______________________________________________________________________________________________7v_",
"_v7______________________________________________________________________________________________7v_",
"_v7______________________________________________________________________________________________7v_",
"_v7______________________________________________________________________________________________7v_",
"_v7______________________________________________________________________________________________7v_",
"_v7______________________________________________________________________________________________7v_",
"_v7______________________________________________________________________________________________7v_",
"_v7______________________________________________________________________________________________7v_",
"_v7______________________________________________________________________________________________7v_",
"_v7______________________________________________________________________________________________7v_",
"_v7______________________________________________________________________________________________7v_",
"_v7______________________________________________________________________________________________7v_",
"_v7______________________________________________________________________________________________7v_",
"_v7______________________________________________________________________________________________7v_",
"_v7______________________________________________________________________________________________7v_",
"_v7______________________________________________________________________________________________7v_",
"_v7______________________________________________________________________________________________7v_",
"_vr______________________________________________________________________________________________7v_",
"_v777777777777777777777777777777777777777777777777777777777777777777777777777777777777777777777777v_",
"_xvvvvvvvvvvvvvvvvvvvvvvvvvvvvvvvvvvvvvvvvvvvvvvvvvvvvvvvvvvvvvvvvvvvvvvvvvvvvvvvvvvvvvvvvvvvvvvvvx_",
"____________________________________________________________________________________________________"
};
