/* XPM */
static char *k1[] = {
/* columns rows colors chars-per-pixel */
"100 100 82 1 ",
"  c #686868",
". c #7C7C7C",
"X c #348032",
"o c #378135",
"O c #3A8238",
"+ c #3C823B",
"@ c #3F833D",
"# c #418440",
"$ c #448542",
"% c #468644",
"& c #488747",
"* c #4A8749",
"= c #4E894D",
"- c #508A4F",
"; c #538B52",
": c #558C54",
"> c #588D57",
", c #5C8F5B",
"< c #5D905C",
"1 c #60915F",
"2 c #639362",
"3 c #669465",
"4 c #6B976B",
"5 c #6F996E",
"6 c #729A71",
"7 c #779D77",
"8 c #7B9F7A",
"9 c #7CA07B",
"0 c #7EA17D",
"q c #81A381",
"w c #83A483",
"e c #86A686",
"r c #89A889",
"t c #8FAB8E",
"y c #91AD91",
"u c #94AF93",
"i c #95AF94",
"p c #96B196",
"a c #9BB39A",
"s c #9EB69D",
"d c #AFAFAF",
"f c #A0B7A0",
"g c #A1B8A1",
"h c #A6BBA6",
"j c #ABBEAA",
"k c #ACBFAC",
"l c gray70",
"z c #AEC1AE",
"x c #B2C3B1",
"c c #B2C4B2",
"v c #B4C5B3",
"b c #B6C7B6",
"n c #B8C8B7",
"m c #BACABA",
"M c #BDCBBD",
"N c #BDCCBD",
"B c #C2CFC2",
"V c #C4D0C3",
"C c #C5D2C5",
"Z c #C8D4C8",
"A c #CFD9CE",
"S c #D1DBD1",
"D c #D3DCD3",
"F c #D4DDD3",
"G c #D6DFD6",
"H c #D7E0D7",
"J c #D9E1D9",
"K c #DCE3DB",
"L c #DCE3DC",
"P c #DFE5DF",
"I c #E1E7E1",
"U c #E2E8E2",
"Y c #E7EBE6",
"T c #E9EEE9",
"R c #ECF0EC",
"E c #F0F3EF",
"W c #F1F4F1",
"Q c #F5F7F5",
"! c #F6F8F6",
"~ c #F8F9F8",
"^ c #FBFCFB",
"/ c white",
/* pixels */
"////////////////////////////////////////////////////////////////////////////////////////////////////",
"/dlllllllllllllllllllllllllllllllllllllllllllllllllllllllllllllllllllllllllllllllllllllllllllllllld/",
"/l                                                                                                l/",
"/l XXXXXXXXXXXXXXXXXXXXXXXXXXXXXXXXXXXXXXXXXXXXXXXXXXXXXXXXXXXXXXXXXXXXXXXXXXXXXXXXXXXXXXXXXXXXXX l/",
"/l XXXXXXXXXXXXXXXXXXXXXXXXXXXXXXXXXXXXXXXXXXXXXXXXXXXXXXXXXXXXXXXXXXXXXXXXXXXXXXXXXXXXXXXXXXXXXX l/",
"/l XXXXXXXXXXXXXXXXXXXXXXXXXXXXXXXXXXXXXXXXXXXXXXXXXXXXXXXXXXXXXXXXXXXXXXXXXXXXXXXXXXXXXXXXXXXXXX l/",
"/l XXXXXXXXXXXXXXXXXXXXXXXXXXXXXXXXXXXXXXXXXXXXXXXXXXXXXXXXXXXXXXXXXXXXXXXXXXXXXXXXXXXXXXXXXXXXXX l/",
"/l XXXXXXXXXXXXXXXXXXXXXXXXXXXXXXXXXXXXXXXXXXXXXXXXXXXXXXXXXXXXXXXXXXXXXXXXXXXXXXXXXXXXXXXXXXXXXX l/",
"/l XXXXXXXXXXXXXXXXXXXXXXXXXXXXXXXXXXXXXXXXXXXXXXXXXXXXXXXXXXXXXXXXXXXXXXXXXXXXXXXXXXXXXXXXXXXXXX l/",
"/l XXXXXXXXXXXXXXXXXXXXXXXXXXXXXXXXXXXXXXXXXXXXXXXXXXXXXXXXXXXXXXXXXXXXXXXXXXXXXXXXXXXXXXXXXXXXXX l/",
"/l XXXXXXXXXXXXXXXXXXXXXXXXXXXXXXXXXXXXXXXXXXXXXXXXXXXXXXXXXXXXXXXXXXXXXXXXXXXXXXXXXXXXXXXXXXXXXX l/",
"/l XXXXXXXXXXXXXXXXXXXXXXXXXXXXXXXXXXXXXXXXXXXXXXXXXXXXXXXXXXXXXXXXXXXXXXXXXXXXXXXXXXXXXXXXXXXXXX l/",
"/l XXXXXXXXXXXXXXXXXXXXXXXXXXXXXXXXXXXXXXXXXXXXXXXXXXXXXXXXXXXXXXXXXXXXXXXXXXXXXXXXXXXXXXXXXXXXXX l/",
"/l XXXXXXXXXXXXXXXXXXXXXXXXXXXXXXXXXXXXXXXXXXXXXXXXXXXXXXXXXXXXXXXXXXXXXXXXXXXXXXXXXXXXXXXXXXXXXX l/",
"/l XXXXXXXXXXXXXXXXXXXXXXXXXXXXXXXXXXXXXXXXXXXXXXXXXXXXXXXXXXXXXXXXXXXXXXXXXXXXXXXXXXXXXXXXXXXXXX l/",
"/l XXXXXXXXXXXXXXXXXXXXXXXXXXXXXXXXXXXXXXXXXXXXXXXXXXXXXXXXXXXXXXXXXXXXXXXXXXXXXXXXXXXXXXXXXXXXXX l/",
"/l XXXXXXXXXXXXXXXXXXXXXXXXXXXXXXXXXXXXXXXXXXXXXXXXXXXXXXXXXXXXXXXXXXXXXXXXXXXXXXXXXXXXXXXXXXXXXX l/",
"/l XXXXXXXXXXXXXXXXXXXXXXXXXXXXXXXXXXXXXXXXXXXXXXXXXXXXXXXXXXXXXXXXXXXXXXXXXXXXXXXXXXXXXXXXXXXXXX l/",
"/l XXXXXXXXXXXXXXXXXXXXXXXXXXXXXXXXXXXXXXXXXXXXXXXXXXXXXXXXXXXXXXXXXXXXXXXXXXXXXXXXXXXXXXXXXXXXXX l/",
"/l XXXXXXXXXXXXXXXXXXXXXXXXXXXXXXXXXXXXXXXXXXXXXXXXXXXXXXXXXXXXXXXXXXXXXXXXXXXXXXXXXXXXXXXXXXXXXX l/",
"/l XXXXXXXXXXXXXXXXXXXXXXXXXXXXXF///////pXXXXXXXXXXXXXXXXXXXXXXXV////////K@XXXXXXXXXXXXXXXXXXXXXX l/",
"/l XXXXXXXXXXXXXXXXXXXXXXXXXXXXXF///////pXXXXXXXXXXXXXXXXXXXXXXn////////U*XXXXXXXXXXXXXXXXXXXXXXX l/",
"/l XXXXXXXXXXXXXXXXXXXXXXXXXXXXXF///////pXXXXXXXXXXXXXXXXXXXXXk////////T;XXXXXXXXXXXXXXXXXXXXXXXX l/",
"/l XXXXXXXXXXXXXXXXXXXXXXXXXXXXXF///////pXXXXXXXXXXXXXXXXXXXXg////////R<XXXXXXXXXXXXXXXXXXXXXXXXX l/",
"/l XXXXXXXXXXXXXXXXXXXXXXXXXXXXXF///////pXXXXXXXXXXXXXXXXXXXi////////W4XXXXXXXXXXXXXXXXXXXXXXXXXX l/",
"/l XXXXXXXXXXXXXXXXXXXXXXXXXXXXXF///////pXXXXXXXXXXXXXXXXXXr^///////Q7XXXXXXXXXXXXXXXXXXXXXXXXXXX l/",
"/l XXXXXXXXXXXXXXXXXXXXXXXXXXXXXF///////pXXXXXXXXXXXXXXXXX0~///////~qXXXXXXXXXXXXXXXXXXXXXXXXXXXX l/",
"/l XXXXXXXXXXXXXXXXXXXXXXXXXXXXXF///////pXXXXXXXXXXXXXXXX6Q///////^tXXXXXXXXXXXXXXXXXXXXXXXXXXXXX l/",
"/l XXXXXXXXXXXXXXXXXXXXXXXXXXXXXF///////pXXXXXXXXXXXXXXX3W////////aXXXXXXXXXXXXXXXXXXXXXXXXXXXXXX l/",
"/l XXXXXXXXXXXXXXXXXXXXXXXXXXXXXF///////pXXXXXXXXXXXXXX,R////////hXXXXXXXXXXXXXXXXXXXXXXXXXXXXXXX l/",
"/l XXXXXXXXXXXXXXXXXXXXXXXXXXXXXF///////pXXXXXXXXXXXXX-Y////////zXXXXXXXXXXXXXXXXXXXXXXXXXXXXXXXX l/",
"/l XXXXXXXXXXXXXXXXXXXXXXXXXXXXXF///////pXXXXXXXXXXXX%I////////mXXXXXXXXXXXXXXXXXXXXXXXXXXXXXXXXX l/",
"/l XXXXXXXXXXXXXXXXXXXXXXXXXXXXXF///////pXXXXXXXXXXX+J////////CXXXXXXXXXXXXXXXXXXXXXXXXXXXXXXXXXX l/",
"/l XXXXXXXXXXXXXXXXXXXXXXXXXXXXXF///////pXXXXXXXXXXoS////////AXXXXXXXXXXXXXXXXXXXXXXXXXXXXXXXXXXX l/",
"/l XXXXXXXXXXXXXXXXXXXXXXXXXXXXXF///////pXXXXXXXXXXZ////////HOXXXXXXXXXXXXXXXXXXXXXXXXXXXXXXXXXXX l/",
"/l XXXXXXXXXXXXXXXXXXXXXXXXXXXXXF///////pXXXXXXXXXN////////P$XXXXXXXXXXXXXXXXXXXXXXXXXXXXXXXXXXXX l/",
"/l XXXXXXXXXXXXXXXXXXXXXXXXXXXXXF///////pXXXXXXXXx////////Y=XXXXXXXXXXXXXXXXXXXXXXXXXXXXXXXXXXXXX l/",
"/l XXXXXXXXXXXXXXXXXXXXXXXXXXXXXF///////pXXXXXXXh////////T>XXXXXXXXXXXXXXXXXXXXXXXXXXXXXXXXXXXXXX l/",
"/l XXXXXXXXXXXXXXXXXXXXXXXXXXXXXF///////pXXXXXXa////////E2XXXXXXXXXXXXXXXXXXXXXXXXXXXXXXXXXXXXXXX l/",
"/l XXXXXXXXXXXXXXXXXXXXXXXXXXXXXF///////pXXXXXt////////Q5XXXXXXXXXXXXXXXXXXXXXXXXXXXXXXXXXXXXXXXX l/",
"/l XXXXXXXXXXXXXXXXXXXXXXXXXXXXXF///////pXXXXw~///////!8XXXXXXXXXXXXXXXXXXXXXXXXXXXXXXXXXXXXXXXXX l/",
"/l XXXXXXXXXXXXXXXXXXXXXXXXXXXXXF///////pXXX7!///////~eXXXXXXXXXXXXXXXXXXXXXXXXXXXXXXXXXXXXXXXXXX l/",
"/l XXXXXXXXXXXXXXXXXXXXXXXXXXXXXF///////pXX4W////////yXXXXXXXXXXXXXXXXXXXXXXXXXXXXXXXXXXXXXXXXXXX l/",
"/l XXXXXXXXXXXXXXXXXXXXXXXXXXXXXF///////pX1R////////sXXXXXXXXXXXXXXXXXXXXXXXXXXXXXXXXXXXXXXXXXXXX l/",
"/l XXXXXXXXXXXXXXXXXXXXXXXXXXXXXF///////p:T////////JXXXXXXXXXXXXXXXXXXXXXXXXXXXXXXXXXXXXXXXXXXXXX l/",
"/l XXXXXXXXXXXXXXXXXXXXXXXXXXXXXF///////sY//////////uXXXXXXXXXXXXXXXXXXXXXXXXXXXXXXXXXXXXXXXXXXXX l/",
"/l XXXXXXXXXXXXXXXXXXXXXXXXXXXXXF///////W///////////W;XXXXXXXXXXXXXXXXXXXXXXXXXXXXXXXXXXXXXXXXXXX l/",
"/l XXXXXXXXXXXXXXXXXXXXXXXXXXXXXF////////////////////SXXXXXXXXXXXXXXXXXXXXXXXXXXXXXXXXXXXXXXXXXXX l/",
"/l XXXXXXXXXXXXXXXXXXXXXXXXXXXXXF/////////////////////aXXXXXXXXXXXXXXXXXXXXXXXXXXXXXXXXXXXXXXXXXX l/",
"/l XXXXXXXXXXXXXXXXXXXXXXXXXXXXXF/////////////!///////Q>XXXXXXXXXXXXXXXXXXXXXXXXXXXXXXXXXXXXXXXXX l/",
"/l XXXXXXXXXXXXXXXXXXXXXXXXXXXXXF////////////B0////////DXXXXXXXXXXXXXXXXXXXXXXXXXXXXXXXXXXXXXXXXX l/",
"/l XXXXXXXXXXXXXXXXXXXXXXXXXXXXXF///////////ZXXB////////sXXXXXXXXXXXXXXXXXXXXXXXXXXXXXXXXXXXXXXXX l/",
"/l XXXXXXXXXXXXXXXXXXXXXXXXXXXXXF//////////DoXX%R///////Q<XXXXXXXXXXXXXXXXXXXXXXXXXXXXXXXXXXXXXXX l/",
"/l XXXXXXXXXXXXXXXXXXXXXXXXXXXXXF/////////J@XXXXr////////GXXXXXXXXXXXXXXXXXXXXXXXXXXXXXXXXXXXXXXX l/",
"/l XXXXXXXXXXXXXXXXXXXXXXXXXXXXXF////////I&XXXXXXZ////////gXXXXXXXXXXXXXXXXXXXXXXXXXXXXXXXXXXXXXX l/",
"/l XXXXXXXXXXXXXXXXXXXXXXXXXXXXXF///////Y-XXXXXXX=W///////!1XXXXXXXXXXXXXXXXXXXXXXXXXXXXXXXXXXXXX l/",
"/l XXXXXXXXXXXXXXXXXXXXXXXXXXXXXF///////pXXXXXXXXXi////////JXXXXXXXXXXXXXXXXXXXXXXXXXXXXXXXXXXXXX l/",
"/l XXXXXXXXXXXXXXXXXXXXXXXXXXXXXF///////pXXXXXXXXXXS////////hXXXXXXXXXXXXXXXXXXXXXXXXXXXXXXXXXXXX l/",
"/l XXXXXXXXXXXXXXXXXXXXXXXXXXXXXF///////pXXXXXXXXXX>Q///////~3XXXXXXXXXXXXXXXXXXXXXXXXXXXXXXXXXXX l/",
"/l XXXXXXXXXXXXXXXXXXXXXXXXXXXXXF///////pXXXXXXXXXXXf////////LXXXXXXXXXXXXXXXXXXXXXXXXXXXXXXXXXXX l/",
"/l XXXXXXXXXXXXXXXXXXXXXXXXXXXXXF///////pXXXXXXXXXXXXJ////////jXXXXXXXXXXXXXXXXXXXXXXXXXXXXXXXXXX l/",
"/l XXXXXXXXXXXXXXXXXXXXXXXXXXXXXF///////pXXXXXXXXXXXX2~///////~4XXXXXXXXXXXXXXXXXXXXXXXXXXXXXXXXX l/",
"/l XXXXXXXXXXXXXXXXXXXXXXXXXXXXXF///////pXXXXXXXXXXXXXj////////PXXXXXXXXXXXXXXXXXXXXXXXXXXXXXXXXX l/",
"/l XXXXXXXXXXXXXXXXXXXXXXXXXXXXXF///////pXXXXXXXXXXXXXXP////////zXXXXXXXXXXXXXXXXXXXXXXXXXXXXXXXX l/",
"/l XXXXXXXXXXXXXXXXXXXXXXXXXXXXXF///////pXXXXXXXXXXXXXX5~///////~5XXXXXXXXXXXXXXXXXXXXXXXXXXXXXXX l/",
"/l XXXXXXXXXXXXXXXXXXXXXXXXXXXXXF///////pXXXXXXXXXXXXXXXv////////UoXXXXXXXXXXXXXXXXXXXXXXXXXXXXXX l/",
"/l XXXXXXXXXXXXXXXXXXXXXXXXXXXXXF///////pXXXXXXXXXXXXXXXOY////////cXXXXXXXXXXXXXXXXXXXXXXXXXXXXXX l/",
"/l XXXXXXXXXXXXXXXXXXXXXXXXXXXXXF///////pXXXXXXXXXXXXXXXX8////////^6XXXXXXXXXXXXXXXXXXXXXXXXXXXXX l/",
"/l XXXXXXXXXXXXXXXXXXXXXXXXXXXXXF///////pXXXXXXXXXXXXXXXXXM////////YOXXXXXXXXXXXXXXXXXXXXXXXXXXXX l/",
"/l XXXXXXXXXXXXXXXXXXXXXXXXXXXXXF///////pXXXXXXXXXXXXXXXXX#T////////bXXXXXXXXXXXXXXXXXXXXXXXXXXXX l/",
"/l XXXXXXXXXXXXXXXXXXXXXXXXXXXXXF///////pXXXXXXXXXXXXXXXXXXe/////////7XXXXXXXXXXXXXXXXXXXXXXXXXXX l/",
"/l XXXXXXXXXXXXXXXXXXXXXXXXXXXXXF///////pXXXXXXXXXXXXXXXXXXXC////////Y+XXXXXXXXXXXXXXXXXXXXXXXXXX l/",
"/l XXXXXXXXXXXXXXXXXXXXXXXXXXXXXF///////pXXXXXXXXXXXXXXXXXXX*R////////mXXXXXXXXXXXXXXXXXXXXXXXXXX l/",
"/l XXXXXXXXXXXXXXXXXXXXXXXXXXXXXF///////pXXXXXXXXXXXXXXXXXXXXt/////////9XXXXXXXXXXXXXXXXXXXXXXXXX l/",
"/l XXXXXXXXXXXXXXXXXXXXXXXXXXXXXF///////pXXXXXXXXXXXXXXXXXXXXXA////////T@XXXXXXXXXXXXXXXXXXXXXXXX l/",
"/l XXXXXXXXXXXXXXXXXXXXXXXXXXXXXF///////pXXXXXXXXXXXXXXXXXXXXX;W////////NXXXXXXXXXXXXXXXXXXXXXXXX l/",
"/l XXXXXXXXXXXXXXXXXXXXXXXXXXXXXF///////pXXXXXXXXXXXXXXXXXXXXXXa/////////qXXXXXXXXXXXXXXXXXXXXXXX l/",
"/l XXXXXXXXXXXXXXXXXXXXXXXXXXXXXF///////pXXXXXXXXXXXXXXXXXXXXXXXG////////T$XXXXXXXXXXXXXXXXXXXXXX l/",
"/l XXXXXXXXXXXXXXXXXXXXXXXXXXXXXF///////pXXXXXXXXXXXXXXXXXXXXXXX<!////////BXXXXXXXXXXXXXXXXXXXXXX l/",
"/l XXXXXXXXXXXXXXXXXXXXXXXXXXXXXXXXXXXXXXXXXXXXXXXXXXXXXXXXXXXXXXXXXXXXXXXXXXXXXXXXXXXXXXXXXXXXXX l/",
"/l XXXXXXXXXXXXXXXXXXXXXXXXXXXXXXXXXXXXXXXXXXXXXXXXXXXXXXXXXXXXXXXXXXXXXXXXXXXXXXXXXXXXXXXXXXXXXX l/",
"/l XXXXXXXXXXXXXXXXXXXXXXXXXXXXXXXXXXXXXXXXXXXXXXXXXXXXXXXXXXXXXXXXXXXXXXXXXXXXXXXXXXXXXXXXXXXXXX l/",
"/l XXXXXXXXXXXXXXXXXXXXXXXXXXXXXXXXXXXXXXXXXXXXXXXXXXXXXXXXXXXXXXXXXXXXXXXXXXXXXXXXXXXXXXXXXXXXXX l/",
"/l XXXXXXXXXXXXXXXXXXXXXXXXXXXXXXXXXXXXXXXXXXXXXXXXXXXXXXXXXXXXXXXXXXXXXXXXXXXXXXXXXXXXXXXXXXXXXX l/",
"/l XXXXXXXXXXXXXXXXXXXXXXXXXXXXXXXXXXXXXXXXXXXXXXXXXXXXXXXXXXXXXXXXXXXXXXXXXXXXXXXXXXXXXXXXXXXXXX l/",
"/l XXXXXXXXXXXXXXXXXXXXXXXXXXXXXXXXXXXXXXXXXXXXXXXXXXXXXXXXXXXXXXXXXXXXXXXXXXXXXXXXXXXXXXXXXXXXXX l/",
"/l XXXXXXXXXXXXXXXXXXXXXXXXXXXXXXXXXXXXXXXXXXXXXXXXXXXXXXXXXXXXXXXXXXXXXXXXXXXXXXXXXXXXXXXXXXXXXX l/",
"/l XXXXXXXXXXXXXXXXXXXXXXXXXXXXXXXXXXXXXXXXXXXXXXXXXXXXXXXXXXXXXXXXXXXXXXXXXXXXXXXXXXXXXXXXXXXXXX l/",
"/l XXXXXXXXXXXXXXXXXXXXXXXXXXXXXXXXXXXXXXXXXXXXXXXXXXXXXXXXXXXXXXXXXXXXXXXXXXXXXXXXXXXXXXXXXXXXXX l/",
"/l XXXXXXXXXXXXXXXXXXXXXXXXXXXXXXXXXXXXXXXXXXXXXXXXXXXXXXXXXXXXXXXXXXXXXXXXXXXXXXXXXXXXXXXXXXXXXX l/",
"/l XXXXXXXXXXXXXXXXXXXXXXXXXXXXXXXXXXXXXXXXXXXXXXXXXXXXXXXXXXXXXXXXXXXXXXXXXXXXXXXXXXXXXXXXXXXXXX l/",
"/l XXXXXXXXXXXXXXXXXXXXXXXXXXXXXXXXXXXXXXXXXXXXXXXXXXXXXXXXXXXXXXXXXXXXXXXXXXXXXXXXXXXXXXXXXXXXXX l/",
"/l XXXXXXXXXXXXXXXXXXXXXXXXXXXXXXXXXXXXXXXXXXXXXXXXXXXXXXXXXXXXXXXXXXXXXXXXXXXXXXXXXXXXXXXXXXXXXX l/",
"/l XXXXXXXXXXXXXXXXXXXXXXXXXXXXXXXXXXXXXXXXXXXXXXXXXXXXXXXXXXXXXXXXXXXXXXXXXXXXXXXXXXXXXXXXXXXXXX l/",
"/l XXXXXXXXXXXXXXXXXXXXXXXXXXXXXXXXXXXXXXXXXXXXXXXXXXXXXXXXXXXXXXXXXXXXXXXXXXXXXXXXXXXXXXXXXXXXXX l/",
"/l XXXXXXXXXXXXXXXXXXXXXXXXXXXXXXXXXXXXXXXXXXXXXXXXXXXXXXXXXXXXXXXXXXXXXXXXXXXXXXXXXXXXXXXXXXXXXX l/",
"/l.XXXXXXXXXXXXXXXXXXXXXXXXXXXXXXXXXXXXXXXXXXXXXXXXXXXXXXXXXXXXXXXXXXXXXXXXXXXXXXXXXXXXXXXXXXXXXX l/",
"/l                                                                                                l/",
"/dlllllllllllllllllllllllllllllllllllllllllllllllllllllllllllllllllllllllllllllllllllllllllllllllld/",
"////////////////////////////////////////////////////////////////////////////////////////////////////"
};
