/* XPM */
static char *k2[] = {
/* columns rows colors chars-per-pixel */
"100 100 76 1 ",
"  c #686868",
". c #7C7C7C",
"X c #C3AF2A",
"o c #C3AF2E",
"O c #C4B031",
"+ c #C4B034",
"@ c #C4B13A",
"# c #C5B23F",
"$ c #C5B242",
"% c #C6B344",
"& c #C6B348",
"* c #C6B44A",
"= c #C7B54E",
"- c #C7B550",
"; c #C8B757",
": c #C9B759",
"> c #C9B85C",
", c #CAB962",
"< c #CBBA67",
"1 c #CBBB68",
"2 c #CCBC6B",
"3 c #CDBD6E",
"4 c #CDBD70",
"5 c #CEBF75",
"6 c #CFC078",
"7 c #D0C17B",
"8 c #D0C17C",
"9 c #AFAFAF",
"0 c gray70",
"q c #D1C381",
"w c #D2C587",
"e c #D3C588",
"r c #D4C78D",
"t c #D5C88F",
"y c #D6C993",
"u c #D6CA95",
"i c #D7CB98",
"p c #D7CC99",
"a c #D8CD9B",
"s c #D9CE9F",
"d c #DACFA0",
"f c #DAD0A3",
"g c #DBD1A5",
"h c #DDD3AB",
"j c #DED4AD",
"k c #DFD6B0",
"l c #E0D7B3",
"z c #E1D9B7",
"x c #E2DAB9",
"c c #E3DBBC",
"v c #E3DCBD",
"b c #E5DDC1",
"n c #E6DFC5",
"m c #E7E0C7",
"M c #E8E1C9",
"N c #E9E3CC",
"B c #EAE4CE",
"V c #EBE5D1",
"C c #ECE7D3",
"Z c #ECE7D4",
"A c #EDE9D7",
"S c #EEEAD9",
"D c #EFEBDC",
"F c #F0EDDE",
"G c #F1EEE0",
"H c #F3F0E5",
"J c #F4F1E6",
"K c #F5F3E9",
"L c #F6F4EC",
"P c #F8F6EF",
"I c #F9F7F1",
"U c #FAF8F3",
"Y c #FAF9F4",
"T c #FCFBF8",
"R c #FDFCFB",
"E c white",
/* pixels */
"EEEEEEEEEEEEEEEEEEEEEEEEEEEEEEEEEEEEEEEEEEEEEEEEEEEEEEEEEEEEEEEEEEEEEEEEEEEEEEEEEEEEEEEEEEEEEEEEEEEE",
"E90000000000000000000000000000000000000000000000000000000000000000000000000000000000000000000000009E",
"E0                                                                                                0E",
"E0 XXXXXXXXXXXXXXXXXXXXXXXXXXXXXXXXXXXXXXXXXXXXXXXXXXXXXXXXXXXXXXXXXXXXXXXXXXXXXXXXXXXXXXXXXXXXXX 0E",
"E0 XXXXXXXXXXXXXXXXXXXXXXXXXXXXXXXXXXXXXXXXXXXXXXXXXXXXXXXXXXXXXXXXXXXXXXXXXXXXXXXXXXXXXXXXXXXXXX 0E",
"E0 XXXXXXXXXXXXXXXXXXXXXXXXXXXXXXXXXXXXXXXXXXXXXXXXXXXXXXXXXXXXXXXXXXXXXXXXXXXXXXXXXXXXXXXXXXXXXX 0E",
"E0 XXXXXXXXXXXXXXXXXXXXXXXXXXXXXXXXXXXXXXXXXXXXXXXXXXXXXXXXXXXXXXXXXXXXXXXXXXXXXXXXXXXXXXXXXXXXXX 0E",
"E0 XXXXXXXXXXXXXXXXXXXXXXXXXXXXXXXXXXXXXXXXXXXXXXXXXXXXXXXXXXXXXXXXXXXXXXXXXXXXXXXXXXXXXXXXXXXXXX 0E",
"E0 XXXXXXXXXXXXXXXXXXXXXXXXXXXXXXXXXXXXXXXXXXXXXXXXXXXXXXXXXXXXXXXXXXXXXXXXXXXXXXXXXXXXXXXXXXXXXX 0E",
"E0 XXXXXXXXXXXXXXXXXXXXXXXXXXXXXXXXXXXXXXXXXXXXXXXXXXXXXXXXXXXXXXXXXXXXXXXXXXXXXXXXXXXXXXXXXXXXXX 0E",
"E0 XXXXXXXXXXXXXXXXXXXXXXXXXXXXXXXXXXXXXXXXXXXXXXXXXXXXXXXXXXXXXXXXXXXXXXXXXXXXXXXXXXXXXXXXXXXXXX 0E",
"E0 XXXXXXXXXXXXXXXXXXXXXXXXXXXXXXXXXXXXXXXXXXXXXXXXXXXXXXXXXXXXXXXXXXXXXXXXXXXXXXXXXXXXXXXXXXXXXX 0E",
"E0 XXXXXXXXXXXXXXXXXXXXXXXXXXXXXXXXXXXXXXXXXXXXXXXXXXXXXXXXXXXXXXXXXXXXXXXXXXXXXXXXXXXXXXXXXXXXXX 0E",
"E0 XXXXXXXXXXXXXXXXXXXXXXXXXXXXXXXXXXXXXXXXXXXXXXXXXXXXXXXXXXXXXXXXXXXXXXXXXXXXXXXXXXXXXXXXXXXXXX 0E",
"E0 XXXXXXXXXXXXXXXXXXXXXXXXXXXXXXXXXXXXXXXXXXXXXXXXXXXXXXXXXXXXXXXXXXXXXXXXXXXXXXXXXXXXXXXXXXXXXX 0E",
"E0 XXXXXXXXXXXXXXXXXXXXXXXXXXXXXXXXXXXXXXXXXXXXXXXXXXXXXXXXXXXXXXXXXXXXXXXXXXXXXXXXXXXXXXXXXXXXXX 0E",
"E0 XXXXXXXXXXXXXXXXXXXXXXXXXXXXXXXXXXXXXXXXXXXXXXXXXXXXXXXXXXXXXXXXXXXXXXXXXXXXXXXXXXXXXXXXXXXXXX 0E",
"E0 XXXXXXXXXXXXXXXXXXXXXXXXXXXXXXXXXXXXXXXXXXXXXXXXXXXXXXXXXXXXXXXXXXXXXXXXXXXXXXXXXXXXXXXXXXXXXX 0E",
"E0 XXXXXXXXXXXXXXXXXXXXXXXXXXXXXXXXXXXXXXXXXXXXXXXXXXXXXXXXXXXXXXXXXXXXXXXXXXXXXXXXXXXXXXXXXXXXXX 0E",
"E0 XXXXXXXXXXXXXXXXXXXXXXXXXXXXXXXXXXXXXXXXXXXXXXXXXXXXXXXXXXXXXXXXXXXXXXXXXXXXXXXXXXXXXXXXXXXXXX 0E",
"E0 XXXXXXXXXXXXXXXXXXXXXXXXXXXXXCEEEEEEEuXXXXXXXXXXXXXXXXXXXXXXXbEEEEEEEES+XXXXXXXXXXXXXXXXXXXXXX 0E",
"E0 XXXXXXXXXXXXXXXXXXXXXXXXXXXXXCEEEEEEEuXXXXXXXXXXXXXXXXXXXXXXzEEEEEEEEG%XXXXXXXXXXXXXXXXXXXXXXX 0E",
"E0 XXXXXXXXXXXXXXXXXXXXXXXXXXXXXCEEEEEEEuXXXXXXXXXXXXXXXXXXXXXhEEEEEEEEK=XXXXXXXXXXXXXXXXXXXXXXXX 0E",
"E0 XXXXXXXXXXXXXXXXXXXXXXXXXXXXXCEEEEEEEuXXXXXXXXXXXXXXXXXXXXsEEEEEEEEL:XXXXXXXXXXXXXXXXXXXXXXXXX 0E",
"E0 XXXXXXXXXXXXXXXXXXXXXXXXXXXXXCEEEEEEEuXXXXXXXXXXXXXXXXXXXyEEEEEEEEI<XXXXXXXXXXXXXXXXXXXXXXXXXX 0E",
"E0 XXXXXXXXXXXXXXXXXXXXXXXXXXXXXCEEEEEEEuXXXXXXXXXXXXXXXXXXwREEEEEEEY4XXXXXXXXXXXXXXXXXXXXXXXXXXX 0E",
"E0 XXXXXXXXXXXXXXXXXXXXXXXXXXXXXCEEEEEEEuXXXXXXXXXXXXXXXXX7TEEEEEEET8XXXXXXXXXXXXXXXXXXXXXXXXXXXX 0E",
"E0 XXXXXXXXXXXXXXXXXXXXXXXXXXXXXCEEEEEEEuXXXXXXXXXXXXXXXX3YEEEEEEEReXXXXXXXXXXXXXXXXXXXXXXXXXXXXX 0E",
"E0 XXXXXXXXXXXXXXXXXXXXXXXXXXXXXCEEEEEEEuXXXXXXXXXXXXXXX,IEEEEEEEEuXXXXXXXXXXXXXXXXXXXXXXXXXXXXXX 0E",
"E0 XXXXXXXXXXXXXXXXXXXXXXXXXXXXXCEEEEEEEuXXXXXXXXXXXXXX;LEEEEEEEEfXXXXXXXXXXXXXXXXXXXXXXXXXXXXXXX 0E",
"E0 XXXXXXXXXXXXXXXXXXXXXXXXXXXXXCEEEEEEEuXXXXXXXXXXXXX*JEEEEEEEEjXXXXXXXXXXXXXXXXXXXXXXXXXXXXXXXX 0E",
"E0 XXXXXXXXXXXXXXXXXXXXXXXXXXXXXCEEEEEEEuXXXXXXXXXXXX#GEEEEEEEExXXXXXXXXXXXXXXXXXXXXXXXXXXXXXXXXX 0E",
"E0 XXXXXXXXXXXXXXXXXXXXXXXXXXXXXCEEEEEEEuXXXXXXXXXXX+SEEEEEEEEnXXXXXXXXXXXXXXXXXXXXXXXXXXXXXXXXXX 0E",
"E0 XXXXXXXXXXXXXXXXXXXXXXXXXXXXXCEEEEEEEuXXXXXXXXXXoVEEEEEEEEBXXXXXXXXXXXXXXXXXXXXXXXXXXXXXXXXXXX 0E",
"E0 XXXXXXXXXXXXXXXXXXXXXXXXXXXXXCEEEEEEEuXXXXXXXXXXmEEEEEEEEAOXXXXXXXXXXXXXXXXXXXXXXXXXXXXXXXXXXX 0E",
"E0 XXXXXXXXXXXXXXXXXXXXXXXXXXXXXCEEEEEEEuXXXXXXXXXcEEEEEEEEF#XXXXXXXXXXXXXXXXXXXXXXXXXXXXXXXXXXXX 0E",
"E0 XXXXXXXXXXXXXXXXXXXXXXXXXXXXXCEEEEEEEuXXXXXXXXkEEEEEEEEH&XXXXXXXXXXXXXXXXXXXXXXXXXXXXXXXXXXXXX 0E",
"E0 XXXXXXXXXXXXXXXXXXXXXXXXXXXXXCEEEEEEEuXXXXXXXgEEEEEEEEK;XXXXXXXXXXXXXXXXXXXXXXXXXXXXXXXXXXXXXX 0E",
"E0 XXXXXXXXXXXXXXXXXXXXXXXXXXXXXCEEEEEEEuXXXXXXpEEEEEEEEP>XXXXXXXXXXXXXXXXXXXXXXXXXXXXXXXXXXXXXXX 0E",
"E0 XXXXXXXXXXXXXXXXXXXXXXXXXXXXXCEEEEEEEuXXXXXrEEEEEEEEU3XXXXXXXXXXXXXXXXXXXXXXXXXXXXXXXXXXXXXXXX 0E",
"E0 XXXXXXXXXXXXXXXXXXXXXXXXXXXXXCEEEEEEEuXXXXqREEEEEEEY6XXXXXXXXXXXXXXXXXXXXXXXXXXXXXXXXXXXXXXXXX 0E",
"E0 XXXXXXXXXXXXXXXXXXXXXXXXXXXXXCEEEEEEEuXXX5YEEEEEEERwXXXXXXXXXXXXXXXXXXXXXXXXXXXXXXXXXXXXXXXXXX 0E",
"E0 XXXXXXXXXXXXXXXXXXXXXXXXXXXXXCEEEEEEEuXX1UEEEEEEEEtXXXXXXXXXXXXXXXXXXXXXXXXXXXXXXXXXXXXXXXXXXX 0E",
"E0 XXXXXXXXXXXXXXXXXXXXXXXXXXXXXCEEEEEEEuX>LEEEEEEEEaXXXXXXXXXXXXXXXXXXXXXXXXXXXXXXXXXXXXXXXXXXXX 0E",
"E0 XXXXXXXXXXXXXXXXXXXXXXXXXXXXXCEEEEEEEu-KEEEEEEEESXXXXXXXXXXXXXXXXXXXXXXXXXXXXXXXXXXXXXXXXXXXXX 0E",
"E0 XXXXXXXXXXXXXXXXXXXXXXXXXXXXXCEEEEEEEsGEEEEEEEEEEyXXXXXXXXXXXXXXXXXXXXXXXXXXXXXXXXXXXXXXXXXXXX 0E",
"E0 XXXXXXXXXXXXXXXXXXXXXXXXXXXXXCEEEEEEEUEEEEEEEEEEEU=XXXXXXXXXXXXXXXXXXXXXXXXXXXXXXXXXXXXXXXXXXX 0E",
"E0 XXXXXXXXXXXXXXXXXXXXXXXXXXXXXCEEEEEEEEEEEEEEEEEEEEBXXXXXXXXXXXXXXXXXXXXXXXXXXXXXXXXXXXXXXXXXXX 0E",
"E0 XXXXXXXXXXXXXXXXXXXXXXXXXXXXXCEEEEEEEEEEEEEEEEEEEEEuXXXXXXXXXXXXXXXXXXXXXXXXXXXXXXXXXXXXXXXXXX 0E",
"E0 XXXXXXXXXXXXXXXXXXXXXXXXXXXXXCEEEEEEEEEEEEEYEEEEEEEU;XXXXXXXXXXXXXXXXXXXXXXXXXXXXXXXXXXXXXXXXX 0E",
"E0 XXXXXXXXXXXXXXXXXXXXXXXXXXXXXCEEEEEEEEEEEEb8EEEEEEEECXXXXXXXXXXXXXXXXXXXXXXXXXXXXXXXXXXXXXXXXX 0E",
"E0 XXXXXXXXXXXXXXXXXXXXXXXXXXXXXCEEEEEEEEEEEMXXbEEEEEEEEaXXXXXXXXXXXXXXXXXXXXXXXXXXXXXXXXXXXXXXXX 0E",
"E0 XXXXXXXXXXXXXXXXXXXXXXXXXXXXXCEEEEEEEEEECoXX#LEEEEEEEY:XXXXXXXXXXXXXXXXXXXXXXXXXXXXXXXXXXXXXXX 0E",
"E0 XXXXXXXXXXXXXXXXXXXXXXXXXXXXXCEEEEEEEEES+XXXXeEEEEEEEEAXXXXXXXXXXXXXXXXXXXXXXXXXXXXXXXXXXXXXXX 0E",
"E0 XXXXXXXXXXXXXXXXXXXXXXXXXXXXXCEEEEEEEEG$XXXXXXMEEEEEEEEdXXXXXXXXXXXXXXXXXXXXXXXXXXXXXXXXXXXXXX 0E",
"E0 XXXXXXXXXXXXXXXXXXXXXXXXXXXXXCEEEEEEEJ*XXXXXXX&IEEEEEEEY>XXXXXXXXXXXXXXXXXXXXXXXXXXXXXXXXXXXXX 0E",
"E0 XXXXXXXXXXXXXXXXXXXXXXXXXXXXXCEEEEEEEuXXXXXXXXXyEEEEEEEESXXXXXXXXXXXXXXXXXXXXXXXXXXXXXXXXXXXXX 0E",
"E0 XXXXXXXXXXXXXXXXXXXXXXXXXXXXXCEEEEEEEuXXXXXXXXXXVEEEEEEEEgXXXXXXXXXXXXXXXXXXXXXXXXXXXXXXXXXXXX 0E",
"E0 XXXXXXXXXXXXXXXXXXXXXXXXXXXXXCEEEEEEEuXXXXXXXXXX;YEEEEEEET,XXXXXXXXXXXXXXXXXXXXXXXXXXXXXXXXXXX 0E",
"E0 XXXXXXXXXXXXXXXXXXXXXXXXXXXXXCEEEEEEEuXXXXXXXXXXXsEEEEEEEEDXXXXXXXXXXXXXXXXXXXXXXXXXXXXXXXXXXX 0E",
"E0 XXXXXXXXXXXXXXXXXXXXXXXXXXXXXCEEEEEEEuXXXXXXXXXXXXSEEEEEEEEhXXXXXXXXXXXXXXXXXXXXXXXXXXXXXXXXXX 0E",
"E0 XXXXXXXXXXXXXXXXXXXXXXXXXXXXXCEEEEEEEuXXXXXXXXXXXX>TEEEEEEET<XXXXXXXXXXXXXXXXXXXXXXXXXXXXXXXXX 0E",
"E0 XXXXXXXXXXXXXXXXXXXXXXXXXXXXXCEEEEEEEuXXXXXXXXXXXXXhEEEEEEEEFXXXXXXXXXXXXXXXXXXXXXXXXXXXXXXXXX 0E",
"E0 XXXXXXXXXXXXXXXXXXXXXXXXXXXXXCEEEEEEEuXXXXXXXXXXXXXXFEEEEEEEEjXXXXXXXXXXXXXXXXXXXXXXXXXXXXXXXX 0E",
"E0 XXXXXXXXXXXXXXXXXXXXXXXXXXXXXCEEEEEEEuXXXXXXXXXXXXXX2REEEEEEER3XXXXXXXXXXXXXXXXXXXXXXXXXXXXXXX 0E",
"E0 XXXXXXXXXXXXXXXXXXXXXXXXXXXXXCEEEEEEEuXXXXXXXXXXXXXXXlEEEEEEEEGoXXXXXXXXXXXXXXXXXXXXXXXXXXXXXX 0E",
"E0 XXXXXXXXXXXXXXXXXXXXXXXXXXXXXCEEEEEEEuXXXXXXXXXXXXXXXOHEEEEEEEEkXXXXXXXXXXXXXXXXXXXXXXXXXXXXXX 0E",
"E0 XXXXXXXXXXXXXXXXXXXXXXXXXXXXXCEEEEEEEuXXXXXXXXXXXXXXXX5EEEEEEEER4XXXXXXXXXXXXXXXXXXXXXXXXXXXXX 0E",
"E0 XXXXXXXXXXXXXXXXXXXXXXXXXXXXXCEEEEEEEuXXXXXXXXXXXXXXXXXcEEEEEEEEHOXXXXXXXXXXXXXXXXXXXXXXXXXXXX 0E",
"E0 XXXXXXXXXXXXXXXXXXXXXXXXXXXXXCEEEEEEEuXXXXXXXXXXXXXXXXX@KEEEEEEEEzXXXXXXXXXXXXXXXXXXXXXXXXXXXX 0E",
"E0 XXXXXXXXXXXXXXXXXXXXXXXXXXXXXCEEEEEEEuXXXXXXXXXXXXXXXXXXqEEEEEEEEE5XXXXXXXXXXXXXXXXXXXXXXXXXXX 0E",
"E0 XXXXXXXXXXXXXXXXXXXXXXXXXXXXXCEEEEEEEuXXXXXXXXXXXXXXXXXXXnEEEEEEEEJ+XXXXXXXXXXXXXXXXXXXXXXXXXX 0E",
"E0 XXXXXXXXXXXXXXXXXXXXXXXXXXXXXCEEEEEEEuXXXXXXXXXXXXXXXXXXX%LEEEEEEEExXXXXXXXXXXXXXXXXXXXXXXXXXX 0E",
"E0 XXXXXXXXXXXXXXXXXXXXXXXXXXXXXCEEEEEEEuXXXXXXXXXXXXXXXXXXXXrEEEEEEEEE6XXXXXXXXXXXXXXXXXXXXXXXXX 0E",
"E0 XXXXXXXXXXXXXXXXXXXXXXXXXXXXXCEEEEEEEuXXXXXXXXXXXXXXXXXXXXXNEEEEEEEEK+XXXXXXXXXXXXXXXXXXXXXXXX 0E",
"E0 XXXXXXXXXXXXXXXXXXXXXXXXXXXXXCEEEEEEEuXXXXXXXXXXXXXXXXXXXXX=UEEEEEEEEvXXXXXXXXXXXXXXXXXXXXXXXX 0E",
"E0 XXXXXXXXXXXXXXXXXXXXXXXXXXXXXCEEEEEEEuXXXXXXXXXXXXXXXXXXXXXXiEEEEEEEEE8XXXXXXXXXXXXXXXXXXXXXXX 0E",
"E0 XXXXXXXXXXXXXXXXXXXXXXXXXXXXXCEEEEEEEuXXXXXXXXXXXXXXXXXXXXXXXZEEEEEEEEK#XXXXXXXXXXXXXXXXXXXXXX 0E",
"E0 XXXXXXXXXXXXXXXXXXXXXXXXXXXXXCEEEEEEEuXXXXXXXXXXXXXXXXXXXXXXX:YEEEEEEEEbXXXXXXXXXXXXXXXXXXXXXX 0E",
"E0 XXXXXXXXXXXXXXXXXXXXXXXXXXXXXXXXXXXXXXXXXXXXXXXXXXXXXXXXXXXXXXXXXXXXXXXXXXXXXXXXXXXXXXXXXXXXXX 0E",
"E0 XXXXXXXXXXXXXXXXXXXXXXXXXXXXXXXXXXXXXXXXXXXXXXXXXXXXXXXXXXXXXXXXXXXXXXXXXXXXXXXXXXXXXXXXXXXXXX 0E",
"E0 XXXXXXXXXXXXXXXXXXXXXXXXXXXXXXXXXXXXXXXXXXXXXXXXXXXXXXXXXXXXXXXXXXXXXXXXXXXXXXXXXXXXXXXXXXXXXX 0E",
"E0 XXXXXXXXXXXXXXXXXXXXXXXXXXXXXXXXXXXXXXXXXXXXXXXXXXXXXXXXXXXXXXXXXXXXXXXXXXXXXXXXXXXXXXXXXXXXXX 0E",
"E0 XXXXXXXXXXXXXXXXXXXXXXXXXXXXXXXXXXXXXXXXXXXXXXXXXXXXXXXXXXXXXXXXXXXXXXXXXXXXXXXXXXXXXXXXXXXXXX 0E",
"E0 XXXXXXXXXXXXXXXXXXXXXXXXXXXXXXXXXXXXXXXXXXXXXXXXXXXXXXXXXXXXXXXXXXXXXXXXXXXXXXXXXXXXXXXXXXXXXX 0E",
"E0 XXXXXXXXXXXXXXXXXXXXXXXXXXXXXXXXXXXXXXXXXXXXXXXXXXXXXXXXXXXXXXXXXXXXXXXXXXXXXXXXXXXXXXXXXXXXXX 0E",
"E0 XXXXXXXXXXXXXXXXXXXXXXXXXXXXXXXXXXXXXXXXXXXXXXXXXXXXXXXXXXXXXXXXXXXXXXXXXXXXXXXXXXXXXXXXXXXXXX 0E",
"E0 XXXXXXXXXXXXXXXXXXXXXXXXXXXXXXXXXXXXXXXXXXXXXXXXXXXXXXXXXXXXXXXXXXXXXXXXXXXXXXXXXXXXXXXXXXXXXX 0E",
"E0 XXXXXXXXXXXXXXXXXXXXXXXXXXXXXXXXXXXXXXXXXXXXXXXXXXXXXXXXXXXXXXXXXXXXXXXXXXXXXXXXXXXXXXXXXXXXXX 0E",
"E0 XXXXXXXXXXXXXXXXXXXXXXXXXXXXXXXXXXXXXXXXXXXXXXXXXXXXXXXXXXXXXXXXXXXXXXXXXXXXXXXXXXXXXXXXXXXXXX 0E",
"E0 XXXXXXXXXXXXXXXXXXXXXXXXXXXXXXXXXXXXXXXXXXXXXXXXXXXXXXXXXXXXXXXXXXXXXXXXXXXXXXXXXXXXXXXXXXXXXX 0E",
"E0 XXXXXXXXXXXXXXXXXXXXXXXXXXXXXXXXXXXXXXXXXXXXXXXXXXXXXXXXXXXXXXXXXXXXXXXXXXXXXXXXXXXXXXXXXXXXXX 0E",
"E0 XXXXXXXXXXXXXXXXXXXXXXXXXXXXXXXXXXXXXXXXXXXXXXXXXXXXXXXXXXXXXXXXXXXXXXXXXXXXXXXXXXXXXXXXXXXXXX 0E",
"E0 XXXXXXXXXXXXXXXXXXXXXXXXXXXXXXXXXXXXXXXXXXXXXXXXXXXXXXXXXXXXXXXXXXXXXXXXXXXXXXXXXXXXXXXXXXXXXX 0E",
"E0 XXXXXXXXXXXXXXXXXXXXXXXXXXXXXXXXXXXXXXXXXXXXXXXXXXXXXXXXXXXXXXXXXXXXXXXXXXXXXXXXXXXXXXXXXXXXXX 0E",
"E0 XXXXXXXXXXXXXXXXXXXXXXXXXXXXXXXXXXXXXXXXXXXXXXXXXXXXXXXXXXXXXXXXXXXXXXXXXXXXXXXXXXXXXXXXXXXXXX 0E",
"E0.XXXXXXXXXXXXXXXXXXXXXXXXXXXXXXXXXXXXXXXXXXXXXXXXXXXXXXXXXXXXXXXXXXXXXXXXXXXXXXXXXXXXXXXXXXXXXX 0E",
"E0                                                                                                0E",
"E90000000000000000000000000000000000000000000000000000000000000000000000000000000000000000000000009E",
"EEEEEEEEEEEEEEEEEEEEEEEEEEEEEEEEEEEEEEEEEEEEEEEEEEEEEEEEEEEEEEEEEEEEEEEEEEEEEEEEEEEEEEEEEEEEEEEEEEEE"
};
