/* XPM */
static char *k3[] = {
/* columns rows colors chars-per-pixel */
"100 100 37 1 ",
"  c #686868",
". c #727272",
"X c gray46",
"o c #797979",
"O c #7E7E7E",
"+ c #808080",
"@ c #848484",
"# c gray54",
"$ c #8D8D8D",
"% c gray57",
"& c #959595",
"* c gray60",
"= c gray61",
"- c gray63",
"; c #A5A5A5",
": c #A9A9A9",
"> c #AFAFAF",
", c gray70",
"< c #B6B6B6",
"1 c #BBBBBB",
"2 c gray75",
"3 c #C1C1C1",
"4 c gray77",
"5 c #C8C8C8",
"6 c gray81",
"7 c gray82",
"8 c gray84",
"9 c #DADADA",
"0 c #DFDFDF",
"q c gray89",
"w c gray90",
"e c #EAEAEA",
"r c #EFEFEF",
"t c #F3F3F3",
"y c #F6F6F6",
"u c #F9F9F9",
"i c white",
/* pixels */
"iiiiiiiiiiiiiiiiiiiiiiiiiiiiiiiiiiiiiiiiiiiiiiiiiiiiiiiiiiiiiiiiiiiiiiiiiiiiiiiiiiiiiiiiiiiiiiiiiiii",
"i>,,,,,,,,,,,,,,,,,,,,,,,,,,,,,,,,,,,,,,,,,,,,,,,,,,,,,,,,,,,,,,,,,,,,,,,,,,,,,,,,,,,,,,,,,,,,,,,,>i",
"i,                                                                                                ,i",
"i, .............................................................................................. ,i",
"i, .............................................................................................. ,i",
"i, .............................................................................................. ,i",
"i, .............................................................................................. ,i",
"i, .............................................................................................. ,i",
"i, .............................................................................................. ,i",
"i, .............................................................................................. ,i",
"i, .............................................................................................. ,i",
"i, .............................................................................................. ,i",
"i, .............................................................................................. ,i",
"i, .............................................................................................. ,i",
"i, .............................................................................................. ,i",
"i, .............................................................................................. ,i",
"i, .............................................................................................. ,i",
"i, .............................................................................................. ,i",
"i, .............................................................................................. ,i",
"i, .............................................................................................. ,i",
"i, .............................9iiiiiii:.......................6iiiiiiiiqX...................... ,i",
"i, .............................9iiiiiii:......................4iiiiiiiiwo....................... ,i",
"i, .............................9iiiiiii:.....................1iiiiiiiirO........................ ,i",
"i, .............................9iiiiiii:....................,iiiiiiiit@......................... ,i",
"i, .............................9iiiiiii:...................:iiiiiiiiy$.......................... ,i",
"i, .............................9iiiiiii:..................-uiiiiiiiy%........................... ,i",
"i, .............................9iiiiiii:.................*uiiiiiiiu*............................ ,i",
"i, .............................9iiiiiii:................%yiiiiiiii-............................. ,i",
"i, .............................9iiiiiii:...............#tiiiiiiii:.............................. ,i",
"i, .............................9iiiiiii:..............@riiiiiiii<............................... ,i",
"i, .............................9iiiiiii:.............Oeiiiiiiii2................................ ,i",
"i, .............................9iiiiiii:............owiiiiiiii4................................. ,i",
"i, .............................9iiiiiii:...........X0iiiiiiii6.................................. ,i",
"i, .............................9iiiiiii:...........9iiiiiiii8................................... ,i",
"i, .............................9iiiiiii:..........7iiiiiiii0X................................... ,i",
"i, .............................9iiiiiii:.........5iiiiiiiiqo.................................... ,i",
"i, .............................9iiiiiii:........2iiiiiiiieO..................................... ,i",
"i, .............................9iiiiiii:.......<iiiiiiiir+...................................... ,i",
"i, .............................9iiiiiii:......>iiiiiiiit#....................................... ,i",
"i, .............................9iiiiiii:.....;iiiiiiiiy$........................................ ,i",
"i, .............................9iiiiiii:....=uiiiiiiiu&......................................... ,i",
"i, .............................9iiiiiii:...&uiiiiiiiu=.......................................... ,i",
"i, .............................9iiiiiii:..$yiiiiiiii;........................................... ,i",
"i, .............................9iiiiiii:.@tiiiiiiii>............................................ ,i",
"i, .............................9iiiiiii:+riiiiiiiiq............................................. ,i",
"i, .............................9iiiiiii,eiiiiiiiiii:............................................ ,i",
"i, .............................9iiiiiiiyiiiiiiiiiiiyO........................................... ,i",
"i, .............................9iiiiiiiiiiiiiiiiiiii8........................................... ,i",
"i, .............................9iiiiiiiiiiiiiiiiiiiii:.......................................... ,i",
"i, .............................9iiiiiiiiiiiiiyiiiiiiiy+......................................... ,i",
"i, .............................9iiiiiiiiiiii6*iiiiiiii9......................................... ,i",
"i, .............................9iiiiiiiiiii7..6iiiiiiii>........................................ ,i",
"i, .............................9iiiiiiiiii9...otiiiiiiiy@....................................... ,i",
"i, .............................9iiiiiiiiiqX....-iiiiiiii0....................................... ,i",
"i, .............................9iiiiiiiiwo......7iiiiiiii,...................................... ,i",
"i, .............................9iiiiiiieO.......Otiiiiiiiu@..................................... ,i",
"i, .............................9iiiiiii:.........:iiiiiiii0..................................... ,i",
"i, .............................9iiiiiii:..........9iiiiiiii<.................................... ,i",
"i, .............................9iiiiiii:..........+yiiiiiiiu#................................... ,i",
"i, .............................9iiiiiii:...........,iiiiiiiiq................................... ,i",
"i, .............................9iiiiiii:............0iiiiiiii1.................................. ,i",
"i, .............................9iiiiiii:............#uiiiiiiiu$................................. ,i",
"i, .............................9iiiiiii:.............1iiiiiiiiw................................. ,i",
"i, .............................9iiiiiii:..............wiiiiiiii2................................ ,i",
"i, .............................9iiiiiii:..............$uiiiiiiiu$............................... ,i",
"i, .............................9iiiiiii:...............3iiiiiiiiw............................... ,i",
"i, .............................9iiiiiii:...............Xeiiiiiiii2.............................. ,i",
"i, .............................9iiiiiii:................&iiiiiiiiu%............................. ,i",
"i, .............................9iiiiiii:.................5iiiiiiiieX............................ ,i",
"i, .............................9iiiiiii:.................Xriiiiiiii3............................ ,i",
"i, .............................9iiiiiii:..................=iiiiiiiii&........................... ,i",
"i, .............................9iiiiiii:...................6iiiiiiiieX.......................... ,i",
"i, .............................9iiiiiii:...................otiiiiiiii4.......................... ,i",
"i, .............................9iiiiiii:....................;iiiiiiiii*......................... ,i",
"i, .............................9iiiiiii:.....................8iiiiiiiirX........................ ,i",
"i, .............................9iiiiiii:.....................Oyiiiiiiii5........................ ,i",
"i, .............................9iiiiiii:......................>iiiiiiiii*....................... ,i",
"i, .............................9iiiiiii:.......................9iiiiiiiiro...................... ,i",
"i, .............................9iiiiiii:.......................@yiiiiiiii6...................... ,i",
"i, .............................................................................................. ,i",
"i, .............................................................................................. ,i",
"i, .............................................................................................. ,i",
"i, .............................................................................................. ,i",
"i, .............................................................................................. ,i",
"i, .............................................................................................. ,i",
"i, .............................................................................................. ,i",
"i, .............................................................................................. ,i",
"i, .............................................................................................. ,i",
"i, .............................................................................................. ,i",
"i, .............................................................................................. ,i",
"i, .............................................................................................. ,i",
"i, .............................................................................................. ,i",
"i, .............................................................................................. ,i",
"i, .............................................................................................. ,i",
"i, .............................................................................................. ,i",
"i, .............................................................................................. ,i",
"i,O.............................................................................................. ,i",
"i,                                                                                                ,i",
"i>,,,,,,,,,,,,,,,,,,,,,,,,,,,,,,,,,,,,,,,,,,,,,,,,,,,,,,,,,,,,,,,,,,,,,,,,,,,,,,,,,,,,,,,,,,,,,,,,>i",
"iiiiiiiiiiiiiiiiiiiiiiiiiiiiiiiiiiiiiiiiiiiiiiiiiiiiiiiiiiiiiiiiiiiiiiiiiiiiiiiiiiiiiiiiiiiiiiiiiiii"
};
