/* XPM */
static char *l[] = {
/* columns rows colors chars-per-pixel */
"100 100 12 1 ",
"  c #2E0000",
". c #686868",
"X c #7C7C7C",
"o c #ADAAAA",
"O c #AFAFAF",
"+ c gray70",
"@ c #BDBBBB",
"# c #CDCBCB",
"$ c #D7D6D6",
"% c #F3F2F2",
"& c #F9F9F9",
"* c white",
/* pixels */
"****************************************************************************************************",
"*O++++++++++++++++++++++++++++++++++++++++++++++++++++++++++++++++++++++++++++++++++++++++++++++++O*",
"*+................................................................................................+*",
"*+.**********************************************************************************************.+*",
"*+.**********************************************************************************************.+*",
"*+.**********************************************************************************************.+*",
"*+.**********************************************************************************************.+*",
"*+.**********************************************************************************************.+*",
"*+.**********************************************************************************************.+*",
"*+.**********************************************************************************************.+*",
"*+.**********************************************************************************************.+*",
"*+.**********************************************************************************************.+*",
"*+.**********************************************************************************************.+*",
"*+.**********************************************************************************************.+*",
"*+.**********************************************************************************************.+*",
"*+.**********************************************************************************************.+*",
"*+.**********************************************************************************************.+*",
"*+.**********************************************************************************************.+*",
"*+.**********************************************************************************************.+*",
"*+.**********************************************************************************************.+*",
"*+.********************************o       $*****************************************************.+*",
"*+.********************************o       $*****************************************************.+*",
"*+.********************************o       $*****************************************************.+*",
"*+.********************************o       $*****************************************************.+*",
"*+.********************************o       $*****************************************************.+*",
"*+.********************************o       $*****************************************************.+*",
"*+.********************************o       $*****************************************************.+*",
"*+.********************************o       $*****************************************************.+*",
"*+.********************************o       $*****************************************************.+*",
"*+.********************************o       $*****************************************************.+*",
"*+.********************************o       $*****************************************************.+*",
"*+.********************************o       $*****************************************************.+*",
"*+.********************************o       $*****************************************************.+*",
"*+.********************************o       $*****************************************************.+*",
"*+.********************************o       $*****************************************************.+*",
"*+.********************************o       $*****************************************************.+*",
"*+.********************************o       $*****************************************************.+*",
"*+.********************************o       $*****************************************************.+*",
"*+.********************************o       $*****************************************************.+*",
"*+.********************************o       $*****************************************************.+*",
"*+.********************************o       $*****************************************************.+*",
"*+.********************************o       $*****************************************************.+*",
"*+.********************************o       $*****************************************************.+*",
"*+.********************************o       $*****************************************************.+*",
"*+.********************************o       $*****************************************************.+*",
"*+.********************************o       $*****************************************************.+*",
"*+.********************************o       $*****************************************************.+*",
"*+.********************************o       $*****************************************************.+*",
"*+.********************************o       $*****************************************************.+*",
"*+.********************************o       $*****************************************************.+*",
"*+.********************************o       $*****************************************************.+*",
"*+.********************************o       $*****************************************************.+*",
"*+.********************************o       $*****************************************************.+*",
"*+.********************************o       $*****************************************************.+*",
"*+.********************************o       $*****************************************************.+*",
"*+.********************************o       $*****************************************************.+*",
"*+.********************************o       $*****************************************************.+*",
"*+.********************************o       $*****************************************************.+*",
"*+.********************************o       $*****************************************************.+*",
"*+.********************************o       $*****************************************************.+*",
"*+.********************************o       $*****************************************************.+*",
"*+.********************************o       $*****************************************************.+*",
"*+.********************************o       $*****************************************************.+*",
"*+.********************************o       $*****************************************************.+*",
"*+.********************************o       $*****************************************************.+*",
"*+.********************************o       $*****************************************************.+*",
"*+.********************************o       $*****************************************************.+*",
"*+.********************************o       $*****************************************************.+*",
"*+.********************************o       $*****************************************************.+*",
"*+.********************************o       $*****************************************************.+*",
"*+.********************************o       $*****************************************************.+*",
"*+.********************************o       $*****************************************************.+*",
"*+.********************************o       #%%%%%%%%%%%%%%%%%%%%%%%%%%%&*************************.+*",
"*+.********************************o                                   @*************************.+*",
"*+.********************************o                                   @*************************.+*",
"*+.********************************o                                   @*************************.+*",
"*+.********************************o                                   @*************************.+*",
"*+.********************************o                                   @*************************.+*",
"*+.********************************o                                   @*************************.+*",
"*+.**********************************************************************************************.+*",
"*+.**********************************************************************************************.+*",
"*+.**********************************************************************************************.+*",
"*+.**********************************************************************************************.+*",
"*+.**********************************************************************************************.+*",
"*+.**********************************************************************************************.+*",
"*+.**********************************************************************************************.+*",
"*+.**********************************************************************************************.+*",
"*+.**********************************************************************************************.+*",
"*+.**********************************************************************************************.+*",
"*+.**********************************************************************************************.+*",
"*+.**********************************************************************************************.+*",
"*+.**********************************************************************************************.+*",
"*+.**********************************************************************************************.+*",
"*+.**********************************************************************************************.+*",
"*+.**********************************************************************************************.+*",
"*+.**********************************************************************************************.+*",
"*+X**********************************************************************************************.+*",
"*+................................................................................................+*",
"*O++++++++++++++++++++++++++++++++++++++++++++++++++++++++++++++++++++++++++++++++++++++++++++++++O*",
"****************************************************************************************************"
};
