/* XPM */
static char *l3[] = {
/* columns rows colors chars-per-pixel */
"100 100 10 1 ",
"  c #686868",
". c #727272",
"X c #7C7C7C",
"o c #8B8B8B",
"O c #AFAFAF",
"+ c gray70",
"@ c #BCBCBC",
"# c gray79",
"$ c #D5D5D5",
"% c white",
/* pixels */
"%%%%%%%%%%%%%%%%%%%%%%%%%%%%%%%%%%%%%%%%%%%%%%%%%%%%%%%%%%%%%%%%%%%%%%%%%%%%%%%%%%%%%%%%%%%%%%%%%%%%",
"%O++++++++++++++++++++++++++++++++++++++++++++++++++++++++++++++++++++++++++++++++++++++++++++++++O%",
"%+                                                                                                +%",
"%+ .............................................................................................. +%",
"%+ .............................................................................................. +%",
"%+ .............................................................................................. +%",
"%+ .............................................................................................. +%",
"%+ .............................................................................................. +%",
"%+ .............................................................................................. +%",
"%+ .............................................................................................. +%",
"%+ .............................................................................................. +%",
"%+ .............................................................................................. +%",
"%+ .............................................................................................. +%",
"%+ .............................................................................................. +%",
"%+ .............................................................................................. +%",
"%+ .............................................................................................. +%",
"%+ .............................................................................................. +%",
"%+ .............................................................................................. +%",
"%+ .............................................................................................. +%",
"%+ .............................................................................................. +%",
"%+ ................................$%%%%%%%+..................................................... +%",
"%+ ................................$%%%%%%%+..................................................... +%",
"%+ ................................$%%%%%%%+..................................................... +%",
"%+ ................................$%%%%%%%+..................................................... +%",
"%+ ................................$%%%%%%%+..................................................... +%",
"%+ ................................$%%%%%%%+..................................................... +%",
"%+ ................................$%%%%%%%+..................................................... +%",
"%+ ................................$%%%%%%%+..................................................... +%",
"%+ ................................$%%%%%%%+..................................................... +%",
"%+ ................................$%%%%%%%+..................................................... +%",
"%+ ................................$%%%%%%%+..................................................... +%",
"%+ ................................$%%%%%%%+..................................................... +%",
"%+ ................................$%%%%%%%+..................................................... +%",
"%+ ................................$%%%%%%%+..................................................... +%",
"%+ ................................$%%%%%%%+..................................................... +%",
"%+ ................................$%%%%%%%+..................................................... +%",
"%+ ................................$%%%%%%%+..................................................... +%",
"%+ ................................$%%%%%%%+..................................................... +%",
"%+ ................................$%%%%%%%+..................................................... +%",
"%+ ................................$%%%%%%%+..................................................... +%",
"%+ ................................$%%%%%%%+..................................................... +%",
"%+ ................................$%%%%%%%+..................................................... +%",
"%+ ................................$%%%%%%%+..................................................... +%",
"%+ ................................$%%%%%%%+..................................................... +%",
"%+ ................................$%%%%%%%+..................................................... +%",
"%+ ................................$%%%%%%%+..................................................... +%",
"%+ ................................$%%%%%%%+..................................................... +%",
"%+ ................................$%%%%%%%+..................................................... +%",
"%+ ................................$%%%%%%%+..................................................... +%",
"%+ ................................$%%%%%%%+..................................................... +%",
"%+ ................................$%%%%%%%+..................................................... +%",
"%+ ................................$%%%%%%%+..................................................... +%",
"%+ ................................$%%%%%%%+..................................................... +%",
"%+ ................................$%%%%%%%+..................................................... +%",
"%+ ................................$%%%%%%%+..................................................... +%",
"%+ ................................$%%%%%%%+..................................................... +%",
"%+ ................................$%%%%%%%+..................................................... +%",
"%+ ................................$%%%%%%%+..................................................... +%",
"%+ ................................$%%%%%%%+..................................................... +%",
"%+ ................................$%%%%%%%+..................................................... +%",
"%+ ................................$%%%%%%%+..................................................... +%",
"%+ ................................$%%%%%%%+..................................................... +%",
"%+ ................................$%%%%%%%+..................................................... +%",
"%+ ................................$%%%%%%%+..................................................... +%",
"%+ ................................$%%%%%%%+..................................................... +%",
"%+ ................................$%%%%%%%+..................................................... +%",
"%+ ................................$%%%%%%%+..................................................... +%",
"%+ ................................$%%%%%%%+..................................................... +%",
"%+ ................................$%%%%%%%+..................................................... +%",
"%+ ................................$%%%%%%%+..................................................... +%",
"%+ ................................$%%%%%%%+..................................................... +%",
"%+ ................................$%%%%%%%+..................................................... +%",
"%+ ................................$%%%%%%%@oooooooooooooooooooooooooooX......................... +%",
"%+ ................................$%%%%%%%%%%%%%%%%%%%%%%%%%%%%%%%%%%%#......................... +%",
"%+ ................................$%%%%%%%%%%%%%%%%%%%%%%%%%%%%%%%%%%%#......................... +%",
"%+ ................................$%%%%%%%%%%%%%%%%%%%%%%%%%%%%%%%%%%%#......................... +%",
"%+ ................................$%%%%%%%%%%%%%%%%%%%%%%%%%%%%%%%%%%%#......................... +%",
"%+ ................................$%%%%%%%%%%%%%%%%%%%%%%%%%%%%%%%%%%%#......................... +%",
"%+ ................................$%%%%%%%%%%%%%%%%%%%%%%%%%%%%%%%%%%%#......................... +%",
"%+ .............................................................................................. +%",
"%+ .............................................................................................. +%",
"%+ .............................................................................................. +%",
"%+ .............................................................................................. +%",
"%+ .............................................................................................. +%",
"%+ .............................................................................................. +%",
"%+ .............................................................................................. +%",
"%+ .............................................................................................. +%",
"%+ .............................................................................................. +%",
"%+ .............................................................................................. +%",
"%+ .............................................................................................. +%",
"%+ .............................................................................................. +%",
"%+ .............................................................................................. +%",
"%+ .............................................................................................. +%",
"%+ .............................................................................................. +%",
"%+ .............................................................................................. +%",
"%+ .............................................................................................. +%",
"%+X.............................................................................................. +%",
"%+                                                                                                +%",
"%O++++++++++++++++++++++++++++++++++++++++++++++++++++++++++++++++++++++++++++++++++++++++++++++++O%",
"%%%%%%%%%%%%%%%%%%%%%%%%%%%%%%%%%%%%%%%%%%%%%%%%%%%%%%%%%%%%%%%%%%%%%%%%%%%%%%%%%%%%%%%%%%%%%%%%%%%%"
};
