/* XPM */
static char *m[] = {
/* columns rows colors chars-per-pixel */
"100 100 69 1 ",
"  c #2E0000",
". c #310D0D",
"X c #341616",
"o c #371C1C",
"O c #3A2222",
"+ c #3D2626",
"@ c #3F2A2A",
"# c #422E2E",
"$ c #544747",
"% c #574B4B",
"& c #594D4D",
"* c #5C5151",
"= c #5F5555",
"- c #625858",
"; c #655C5C",
": c #685F5F",
"> c #696060",
", c #6C6363",
"< c #6E6666",
"1 c #686868",
"2 c #726A6A",
"3 c #766E6E",
"4 c #7A7373",
"5 c #7E7777",
"6 c #7C7C7C",
"7 c #817A7A",
"8 c #837E7E",
"9 c #857F7F",
"0 c #878181",
"q c #898383",
"w c #8A8484",
"e c #8C8787",
"r c #8D8888",
"t c #908B8B",
"y c #938E8E",
"u c #959191",
"i c #989494",
"p c #A5A1A1",
"a c #A9A5A5",
"s c #ACA9A9",
"d c #AFAFAF",
"f c #B1AEAE",
"g c gray70",
"h c #B4B1B1",
"j c #B6B4B4",
"k c #B8B6B6",
"l c #BBB9B9",
"z c #BDBBBB",
"x c #BFBDBD",
"c c #C2C0C0",
"v c #C4C2C2",
"b c #C7C5C5",
"n c #C8C7C7",
"m c #CAC8C8",
"M c #CDCBCB",
"N c #CECDCD",
"B c #D0CECE",
"V c #D2D0D0",
"C c #DDDCDC",
"Z c gray89",
"A c #E5E4E4",
"S c #E8E7E7",
"D c #EAEAEA",
"F c #ECECEC",
"G c #F3F3F3",
"H c #F4F3F3",
"J c gray97",
"K c #F9F9F9",
"L c white",
/* pixels */
"LLLLLLLLLLLLLLLLLLLLLLLLLLLLLLLLLLLLLLLLLLLLLLLLLLLLLLLLLLLLLLLLLLLLLLLLLLLLLLLLLLLLLLLLLLLLLLLLLLLL",
"LdggggggggggggggggggggggggggggggggggggggggggggggggggggggggggggggggggggggggggggggggggggggggggggggggdL",
"Lg111111111111111111111111111111111111111111111111111111111111111111111111111111111111111111111111gL",
"Lg1LLLLLLLLLLLLLLLLLLLLLLLLLLLLLLLLLLLLLLLLLLLLLLLLLLLLLLLLLLLLLLLLLLLLLLLLLLLLLLLLLLLLLLLLLLLLLL1gL",
"Lg1LLLLLLLLLLLLLLLLLLLLLLLLLLLLLLLLLLLLLLLLLLLLLLLLLLLLLLLLLLLLLLLLLLLLLLLLLLLLLLLLLLLLLLLLLLLLLL1gL",
"Lg1LLLLLLLLLLLLLLLLLLLLLLLLLLLLLLLLLLLLLLLLLLLLLLLLLLLLLLLLLLLLLLLLLLLLLLLLLLLLLLLLLLLLLLLLLLLLLL1gL",
"Lg1LLLLLLLLLLLLLLLLLLLLLLLLLLLLLLLLLLLLLLLLLLLLLLLLLLLLLLLLLLLLLLLLLLLLLLLLLLLLLLLLLLLLLLLLLLLLLL1gL",
"Lg1LLLLLLLLLLLLLLLLLLLLLLLLLLLLLLLLLLLLLLLLLLLLLLLLLLLLLLLLLLLLLLLLLLLLLLLLLLLLLLLLLLLLLLLLLLLLLL1gL",
"Lg1LLLLLLLLLLLLLLLLLLLLLLLLLLLLLLLLLLLLLLLLLLLLLLLLLLLLLLLLLLLLLLLLLLLLLLLLLLLLLLLLLLLLLLLLLLLLLL1gL",
"Lg1LLLLLLLLLLLLLLLLLLLLLLLLLLLLLLLLLLLLLLLLLLLLLLLLLLLLLLLLLLLLLLLLLLLLLLLLLLLLLLLLLLLLLLLLLLLLLL1gL",
"Lg1LLLLLLLLLLLLLLLLLLLLLLLLLLLLLLLLLLLLLLLLLLLLLLLLLLLLLLLLLLLLLLLLLLLLLLLLLLLLLLLLLLLLLLLLLLLLLL1gL",
"Lg1LLLLLLLLLLLLLLLLLLLLLLLLLLLLLLLLLLLLLLLLLLLLLLLLLLLLLLLLLLLLLLLLLLLLLLLLLLLLLLLLLLLLLLLLLLLLLL1gL",
"Lg1LLLLLLLLLLLLLLLLLLLLLLLLLLLLLLLLLLLLLLLLLLLLLLLLLLLLLLLLLLLLLLLLLLLLLLLLLLLLLLLLLLLLLLLLLLLLLL1gL",
"Lg1LLLLLLLLLLLLLLLLLLLLLLLLLLLLLLLLLLLLLLLLLLLLLLLLLLLLLLLLLLLLLLLLLLLLLLLLLLLLLLLLLLLLLLLLLLLLLL1gL",
"Lg1LLLLLLLLLLLLLLLLLLLLLLLLLLLLLLLLLLLLLLLLLLLLLLLLLLLLLLLLLLLLLLLLLLLLLLLLLLLLLLLLLLLLLLLLLLLLLL1gL",
"Lg1LLLLLLLLLLLLLLLLLLLLLLLLLLLLLLLLLLLLLLLLLLLLLLLLLLLLLLLLLLLLLLLLLLLLLLLLLLLLLLLLLLLLLLLLLLLLLL1gL",
"Lg1LLLLLLLLLLLLLLLLLLLLLLLLLLLLLLLLLLLLLLLLLLLLLLLLLLLLLLLLLLLLLLLLLLLLLLLLLLLLLLLLLLLLLLLLLLLLLL1gL",
"Lg1LLLLLLLLLLLLLLLLLLLLLLLLLLLLLLLLLLLLLLLLLLLLLLLLLLLLLLLLLLLLLLLLLLLLLLLLLLLLLLLLLLLLLLLLLLLLLL1gL",
"Lg1LLLLLLLLLLLLLLLLLLLLLLLLLLLLLLLLLLLLLLLLLLLLLLLLLLLLLLLLLLLLLLLLLLLLLLLLLLLLLLLLLLLLLLLLLLLLLL1gL",
"Lg1LLLLLLLLLLLLLLLLLLLLLLLLLLLLLLLLLLLLLLLLLLLLLLLLLLLLLLLLLLLLLLLLLLLLLLLLLLLLLLLLLLLLLLLLLLLLLL1gL",
"Lg1LLLLLLLLLLLLLLLLLLLLLLLLLLLp         oJLLLLLLLLLLLLLLLLLLK#         yLLLLLLLLLLLLLLLLLLLLLLLLL1gL",
"Lg1LLLLLLLLLLLLLLLLLLLLLLLLLLLp          MLLLLLLLLLLLLLLLLLLV          yLLLLLLLLLLLLLLLLLLLLLLLLL1gL",
"Lg1LLLLLLLLLLLLLLLLLLLLLLLLLLLp          rLLLLLLLLLLLLLLLLLLi          yLLLLLLLLLLLLLLLLLLLLLLLLL1gL",
"Lg1LLLLLLLLLLLLLLLLLLLLLLLLLLLp          oJLLLLLLLLLLLLLLLLK@          yLLLLLLLLLLLLLLLLLLLLLLLLL1gL",
"Lg1LLLLLLLLLLLLLLLLLLLLLLLLLLLp           mLLLLLLLLLLLLLLLLB           yLLLLLLLLLLLLLLLLLLLLLLLLL1gL",
"Lg1LLLLLLLLLLLLLLLLLLLLLLLLLLLp           rLLLLLLLLLLLLLLLLu           yLLLLLLLLLLLLLLLLLLLLLLLLL1gL",
"Lg1LLLLLLLLLLLLLLLLLLLLLLLLLLLp           XJLLLLLLLLLLLLLLJ+           yLLLLLLLLLLLLLLLLLLLLLLLLL1gL",
"Lg1LLLLLLLLLLLLLLLLLLLLLLLLLLLp      ,     mLLLLLLLLLLLLLLN     <      yLLLLLLLLLLLLLLLLLLLLLLLLL1gL",
"Lg1LLLLLLLLLLLLLLLLLLLLLLLLLLLp      p-    rLLLLLLLLLLLLLLy    $s      yLLLLLLLLLLLLLLLLLLLLLLLLL1gL",
"Lg1LLLLLLLLLLLLLLLLLLLLLLLLLLLp      af    XJLLLLLLLLLLLLJO    af      yLLLLLLLLLLLLLLLLLLLLLLLLL1gL",
"Lg1LLLLLLLLLLLLLLLLLLLLLLLLLLLp      aZ     mLLLLLLLLLLLLM     Cf      yLLLLLLLLLLLLLLLLLLLLLLLLL1gL",
"Lg1LLLLLLLLLLLLLLLLLLLLLLLLLLLp      aL;    eLLLLLLLLLLLLt    %Lf      yLLLLLLLLLLLLLLLLLLLLLLLLL1gL",
"Lg1LLLLLLLLLLLLLLLLLLLLLLLLLLLp      aLh    XJLLLLLLLLLLJo    aLf      yLLLLLLLLLLLLLLLLLLLLLLLLL1gL",
"Lg1LLLLLLLLLLLLLLLLLLLLLLLLLLLp      aLA     mLLLLLLLLLLm     CLf      yLLLLLLLLLLLLLLLLLLLLLLLLL1gL",
"Lg1LLLLLLLLLLLLLLLLLLLLLLLLLLLp      aLL>    wLLLLLLLLLLr    &LLf      yLLLLLLLLLLLLLLLLLLLLLLLLL1gL",
"Lg1LLLLLLLLLLLLLLLLLLLLLLLLLLLp      aLLj    XHLLLLLLLLJX    sLLf      yLLLLLLLLLLLLLLLLLLLLLLLLL1gL",
"Lg1LLLLLLLLLLLLLLLLLLLLLLLLLLLp      aLLA     nLLLLLLLLn     CLLf      yLLLLLLLLLLLLLLLLLLLLLLLLL1gL",
"Lg1LLLLLLLLLLLLLLLLLLLLLLLLLLLp      aLLL<    wLLLLLLLLw    *LLLf      yLLLLLLLLLLLLLLLLLLLLLLLLL1gL",
"Lg1LLLLLLLLLLLLLLLLLLLLLLLLLLLp      aLLLk    .HLLLLLLG.    sLLLf      yLLLLLLLLLLLLLLLLLLLLLLLLL1gL",
"Lg1LLLLLLLLLLLLLLLLLLLLLLLLLLLp      aLLLD     nLLLLLLb     ZLLLf      yLLLLLLLLLLLLLLLLLLLLLLLLL1gL",
"Lg1LLLLLLLLLLLLLLLLLLLLLLLLLLLp      aLLLL2    wLLLLLL0    =LLLLf      yLLLLLLLLLLLLLLLLLLLLLLLLL1gL",
"Lg1LLLLLLLLLLLLLLLLLLLLLLLLLLLp      aLLLLl    .GLLLLG.    fLLLLf      yLLLLLLLLLLLLLLLLLLLLLLLLL1gL",
"Lg1LLLLLLLLLLLLLLLLLLLLLLLLLLLp      aLLLLD     nLLLLb     ZLLLLf      yLLLLLLLLLLLLLLLLLLLLLLLLL1gL",
"Lg1LLLLLLLLLLLLLLLLLLLLLLLLLLLp      aLLLLL3    qLLLL8    -LLLLLf      yLLLLLLLLLLLLLLLLLLLLLLLLL1gL",
"Lg1LLLLLLLLLLLLLLLLLLLLLLLLLLLp      aLLLLLz    .GLLG     fLLLLLf      yLLLLLLLLLLLLLLLLLLLLLLLLL1gL",
"Lg1LLLLLLLLLLLLLLLLLLLLLLLLLLLp      aLLLLLF     bLLv     ZLLLLLf      yLLLLLLLLLLLLLLLLLLLLLLLLL1gL",
"Lg1LLLLLLLLLLLLLLLLLLLLLLLLLLLp      aLLLLLL4    qLL7    ;LLLLLLf      yLLLLLLLLLLLLLLLLLLLLLLLLL1gL",
"Lg1LLLLLLLLLLLLLLLLLLLLLLLLLLLp      aLLLLLLx    .GF     gLLLLLLf      yLLLLLLLLLLLLLLLLLLLLLLLLL1gL",
"Lg1LLLLLLLLLLLLLLLLLLLLLLLLLLLp      aLLLLLLF     bc     ALLLLLLf      yLLLLLLLLLLLLLLLLLLLLLLLLL1gL",
"Lg1LLLLLLLLLLLLLLLLLLLLLLLLLLLp      aLLLLLLL5    05    :LLLLLLLf      yLLLLLLLLLLLLLLLLLLLLLLLLL1gL",
"Lg1LLLLLLLLLLLLLLLLLLLLLLLLLLLp      aLLLLLLLc          hLLLLLLLf      yLLLLLLLLLLLLLLLLLLLLLLLLL1gL",
"Lg1LLLLLLLLLLLLLLLLLLLLLLLLLLLp      aLLLLLLLF          ALLLLLLLf      yLLLLLLLLLLLLLLLLLLLLLLLLL1gL",
"Lg1LLLLLLLLLLLLLLLLLLLLLLLLLLLp      aLLLLLLLL8        >LLLLLLLLf      yLLLLLLLLLLLLLLLLLLLLLLLLL1gL",
"Lg1LLLLLLLLLLLLLLLLLLLLLLLLLLLp      aLLLLLLLLv        jLLLLLLLLf      yLLLLLLLLLLLLLLLLLLLLLLLLL1gL",
"Lg1LLLLLLLLLLLLLLLLLLLLLLLLLLLp      aLLLLLLLLG        ALLLLLLLLf      yLLLLLLLLLLLLLLLLLLLLLLLLL1gL",
"Lg1LLLLLLLLLLLLLLLLLLLLLLLLLLLp      aLLLLLLLLL9      <LLLLLLLLLf      yLLLLLLLLLLLLLLLLLLLLLLLLL1gL",
"Lg1LLLLLLLLLLLLLLLLLLLLLLLLLLLp      aLLLLLLLLLb      kLLLLLLLLLf      yLLLLLLLLLLLLLLLLLLLLLLLLL1gL",
"Lg1LLLLLLLLLLLLLLLLLLLLLLLLLLLp      aLLLLLLLLLG.     SLLLLLLLLLf      yLLLLLLLLLLLLLLLLLLLLLLLLL1gL",
"Lg1LLLLLLLLLLLLLLLLLLLLLLLLLLLp      aLLLLLLLLLLLLLLLLLLLLLLLLLLf      yLLLLLLLLLLLLLLLLLLLLLLLLL1gL",
"Lg1LLLLLLLLLLLLLLLLLLLLLLLLLLLp      aLLLLLLLLLLLLLLLLLLLLLLLLLLf      yLLLLLLLLLLLLLLLLLLLLLLLLL1gL",
"Lg1LLLLLLLLLLLLLLLLLLLLLLLLLLLp      aLLLLLLLLLLLLLLLLLLLLLLLLLLf      yLLLLLLLLLLLLLLLLLLLLLLLLL1gL",
"Lg1LLLLLLLLLLLLLLLLLLLLLLLLLLLp      aLLLLLLLLLLLLLLLLLLLLLLLLLLf      yLLLLLLLLLLLLLLLLLLLLLLLLL1gL",
"Lg1LLLLLLLLLLLLLLLLLLLLLLLLLLLp      aLLLLLLLLLLLLLLLLLLLLLLLLLLf      yLLLLLLLLLLLLLLLLLLLLLLLLL1gL",
"Lg1LLLLLLLLLLLLLLLLLLLLLLLLLLLp      aLLLLLLLLLLLLLLLLLLLLLLLLLLf      yLLLLLLLLLLLLLLLLLLLLLLLLL1gL",
"Lg1LLLLLLLLLLLLLLLLLLLLLLLLLLLp      aLLLLLLLLLLLLLLLLLLLLLLLLLLf      yLLLLLLLLLLLLLLLLLLLLLLLLL1gL",
"Lg1LLLLLLLLLLLLLLLLLLLLLLLLLLLp      aLLLLLLLLLLLLLLLLLLLLLLLLLLf      yLLLLLLLLLLLLLLLLLLLLLLLLL1gL",
"Lg1LLLLLLLLLLLLLLLLLLLLLLLLLLLp      aLLLLLLLLLLLLLLLLLLLLLLLLLLf      yLLLLLLLLLLLLLLLLLLLLLLLLL1gL",
"Lg1LLLLLLLLLLLLLLLLLLLLLLLLLLLp      aLLLLLLLLLLLLLLLLLLLLLLLLLLf      yLLLLLLLLLLLLLLLLLLLLLLLLL1gL",
"Lg1LLLLLLLLLLLLLLLLLLLLLLLLLLLp      aLLLLLLLLLLLLLLLLLLLLLLLLLLf      yLLLLLLLLLLLLLLLLLLLLLLLLL1gL",
"Lg1LLLLLLLLLLLLLLLLLLLLLLLLLLLp      aLLLLLLLLLLLLLLLLLLLLLLLLLLf      yLLLLLLLLLLLLLLLLLLLLLLLLL1gL",
"Lg1LLLLLLLLLLLLLLLLLLLLLLLLLLLp      aLLLLLLLLLLLLLLLLLLLLLLLLLLf      yLLLLLLLLLLLLLLLLLLLLLLLLL1gL",
"Lg1LLLLLLLLLLLLLLLLLLLLLLLLLLLp      aLLLLLLLLLLLLLLLLLLLLLLLLLLf      yLLLLLLLLLLLLLLLLLLLLLLLLL1gL",
"Lg1LLLLLLLLLLLLLLLLLLLLLLLLLLLp      aLLLLLLLLLLLLLLLLLLLLLLLLLLf      yLLLLLLLLLLLLLLLLLLLLLLLLL1gL",
"Lg1LLLLLLLLLLLLLLLLLLLLLLLLLLLp      aLLLLLLLLLLLLLLLLLLLLLLLLLLf      yLLLLLLLLLLLLLLLLLLLLLLLLL1gL",
"Lg1LLLLLLLLLLLLLLLLLLLLLLLLLLLp      aLLLLLLLLLLLLLLLLLLLLLLLLLLf      yLLLLLLLLLLLLLLLLLLLLLLLLL1gL",
"Lg1LLLLLLLLLLLLLLLLLLLLLLLLLLLp      aLLLLLLLLLLLLLLLLLLLLLLLLLLf      yLLLLLLLLLLLLLLLLLLLLLLLLL1gL",
"Lg1LLLLLLLLLLLLLLLLLLLLLLLLLLLp      aLLLLLLLLLLLLLLLLLLLLLLLLLLf      yLLLLLLLLLLLLLLLLLLLLLLLLL1gL",
"Lg1LLLLLLLLLLLLLLLLLLLLLLLLLLLp      aLLLLLLLLLLLLLLLLLLLLLLLLLLf      yLLLLLLLLLLLLLLLLLLLLLLLLL1gL",
"Lg1LLLLLLLLLLLLLLLLLLLLLLLLLLLp      aLLLLLLLLLLLLLLLLLLLLLLLLLLf      yLLLLLLLLLLLLLLLLLLLLLLLLL1gL",
"Lg1LLLLLLLLLLLLLLLLLLLLLLLLLLLLLLLLLLLLLLLLLLLLLLLLLLLLLLLLLLLLLLLLLLLLLLLLLLLLLLLLLLLLLLLLLLLLLL1gL",
"Lg1LLLLLLLLLLLLLLLLLLLLLLLLLLLLLLLLLLLLLLLLLLLLLLLLLLLLLLLLLLLLLLLLLLLLLLLLLLLLLLLLLLLLLLLLLLLLLL1gL",
"Lg1LLLLLLLLLLLLLLLLLLLLLLLLLLLLLLLLLLLLLLLLLLLLLLLLLLLLLLLLLLLLLLLLLLLLLLLLLLLLLLLLLLLLLLLLLLLLLL1gL",
"Lg1LLLLLLLLLLLLLLLLLLLLLLLLLLLLLLLLLLLLLLLLLLLLLLLLLLLLLLLLLLLLLLLLLLLLLLLLLLLLLLLLLLLLLLLLLLLLLL1gL",
"Lg1LLLLLLLLLLLLLLLLLLLLLLLLLLLLLLLLLLLLLLLLLLLLLLLLLLLLLLLLLLLLLLLLLLLLLLLLLLLLLLLLLLLLLLLLLLLLLL1gL",
"Lg1LLLLLLLLLLLLLLLLLLLLLLLLLLLLLLLLLLLLLLLLLLLLLLLLLLLLLLLLLLLLLLLLLLLLLLLLLLLLLLLLLLLLLLLLLLLLLL1gL",
"Lg1LLLLLLLLLLLLLLLLLLLLLLLLLLLLLLLLLLLLLLLLLLLLLLLLLLLLLLLLLLLLLLLLLLLLLLLLLLLLLLLLLLLLLLLLLLLLLL1gL",
"Lg1LLLLLLLLLLLLLLLLLLLLLLLLLLLLLLLLLLLLLLLLLLLLLLLLLLLLLLLLLLLLLLLLLLLLLLLLLLLLLLLLLLLLLLLLLLLLLL1gL",
"Lg1LLLLLLLLLLLLLLLLLLLLLLLLLLLLLLLLLLLLLLLLLLLLLLLLLLLLLLLLLLLLLLLLLLLLLLLLLLLLLLLLLLLLLLLLLLLLLL1gL",
"Lg1LLLLLLLLLLLLLLLLLLLLLLLLLLLLLLLLLLLLLLLLLLLLLLLLLLLLLLLLLLLLLLLLLLLLLLLLLLLLLLLLLLLLLLLLLLLLLL1gL",
"Lg1LLLLLLLLLLLLLLLLLLLLLLLLLLLLLLLLLLLLLLLLLLLLLLLLLLLLLLLLLLLLLLLLLLLLLLLLLLLLLLLLLLLLLLLLLLLLLL1gL",
"Lg1LLLLLLLLLLLLLLLLLLLLLLLLLLLLLLLLLLLLLLLLLLLLLLLLLLLLLLLLLLLLLLLLLLLLLLLLLLLLLLLLLLLLLLLLLLLLLL1gL",
"Lg1LLLLLLLLLLLLLLLLLLLLLLLLLLLLLLLLLLLLLLLLLLLLLLLLLLLLLLLLLLLLLLLLLLLLLLLLLLLLLLLLLLLLLLLLLLLLLL1gL",
"Lg1LLLLLLLLLLLLLLLLLLLLLLLLLLLLLLLLLLLLLLLLLLLLLLLLLLLLLLLLLLLLLLLLLLLLLLLLLLLLLLLLLLLLLLLLLLLLLL1gL",
"Lg1LLLLLLLLLLLLLLLLLLLLLLLLLLLLLLLLLLLLLLLLLLLLLLLLLLLLLLLLLLLLLLLLLLLLLLLLLLLLLLLLLLLLLLLLLLLLLL1gL",
"Lg1LLLLLLLLLLLLLLLLLLLLLLLLLLLLLLLLLLLLLLLLLLLLLLLLLLLLLLLLLLLLLLLLLLLLLLLLLLLLLLLLLLLLLLLLLLLLLL1gL",
"Lg1LLLLLLLLLLLLLLLLLLLLLLLLLLLLLLLLLLLLLLLLLLLLLLLLLLLLLLLLLLLLLLLLLLLLLLLLLLLLLLLLLLLLLLLLLLLLLL1gL",
"Lg6LLLLLLLLLLLLLLLLLLLLLLLLLLLLLLLLLLLLLLLLLLLLLLLLLLLLLLLLLLLLLLLLLLLLLLLLLLLLLLLLLLLLLLLLLLLLLL1gL",
"Lg111111111111111111111111111111111111111111111111111111111111111111111111111111111111111111111111gL",
"LdggggggggggggggggggggggggggggggggggggggggggggggggggggggggggggggggggggggggggggggggggggggggggggggggdL",
"LLLLLLLLLLLLLLLLLLLLLLLLLLLLLLLLLLLLLLLLLLLLLLLLLLLLLLLLLLLLLLLLLLLLLLLLLLLLLLLLLLLLLLLLLLLLLLLLLLLL"
};
