/* XPM */
static char *m1[] = {
/* columns rows colors chars-per-pixel */
"100 100 68 1 ",
"  c #686868",
". c #7C7C7C",
"X c #348032",
"o c #378135",
"O c #3A8238",
"+ c #3C823B",
"@ c #3F833D",
"# c #418440",
"$ c #538B52",
"% c #578D56",
"& c #5A8E59",
"* c #5D905C",
"= c #60915F",
"- c #639362",
"; c #659364",
": c #669465",
"> c #6A9669",
", c #6E986D",
"< c #729A71",
"1 c #759C74",
"2 c #7A9F79",
"3 c #7EA17D",
"4 c #81A381",
"5 c #83A483",
"6 c #85A685",
"7 c #89A889",
"8 c #8CAA8B",
"9 c #8FAB8E",
"0 c #93AE93",
"q c #95AF94",
"w c #97B197",
"e c #AFAFAF",
"r c #A8BCA7",
"t c #AABEAA",
"y c #ACBFAC",
"u c gray70",
"i c #AEC1AE",
"p c #B0C2AF",
"a c #B1C3B1",
"s c #B3C4B3",
"d c #B4C5B3",
"f c #B4C5B4",
"g c #B8C8B8",
"h c #BDCBBD",
"j c #BFCDBF",
"k c #C1CFC1",
"l c #C4D0C3",
"z c #C5D2C5",
"x c #CAD5CA",
"c c #CCD7CC",
"v c #CFD9CF",
"b c #D1DBD1",
"n c #D2DCD2",
"m c #D4DDD3",
"M c #DCE3DC",
"N c #DEE4DD",
"B c #E1E7E1",
"V c #E3E8E3",
"C c #E4E9E4",
"Z c #E7ECE7",
"A c #EBEFEB",
"S c #EFF2EF",
"D c #F0F3F0",
"F c #F1F4F1",
"G c #F4F6F4",
"H c #F7F9F7",
"J c #F8F9F8",
"K c white",
/* pixels */
"KKKKKKKKKKKKKKKKKKKKKKKKKKKKKKKKKKKKKKKKKKKKKKKKKKKKKKKKKKKKKKKKKKKKKKKKKKKKKKKKKKKKKKKKKKKKKKKKKKKK",
"KeuuuuuuuuuuuuuuuuuuuuuuuuuuuuuuuuuuuuuuuuuuuuuuuuuuuuuuuuuuuuuuuuuuuuuuuuuuuuuuuuuuuuuuuuuuuuuuuueK",
"Ku                                                                                                uK",
"Ku XXXXXXXXXXXXXXXXXXXXXXXXXXXXXXXXXXXXXXXXXXXXXXXXXXXXXXXXXXXXXXXXXXXXXXXXXXXXXXXXXXXXXXXXXXXXXX uK",
"Ku XXXXXXXXXXXXXXXXXXXXXXXXXXXXXXXXXXXXXXXXXXXXXXXXXXXXXXXXXXXXXXXXXXXXXXXXXXXXXXXXXXXXXXXXXXXXXX uK",
"Ku XXXXXXXXXXXXXXXXXXXXXXXXXXXXXXXXXXXXXXXXXXXXXXXXXXXXXXXXXXXXXXXXXXXXXXXXXXXXXXXXXXXXXXXXXXXXXX uK",
"Ku XXXXXXXXXXXXXXXXXXXXXXXXXXXXXXXXXXXXXXXXXXXXXXXXXXXXXXXXXXXXXXXXXXXXXXXXXXXXXXXXXXXXXXXXXXXXXX uK",
"Ku XXXXXXXXXXXXXXXXXXXXXXXXXXXXXXXXXXXXXXXXXXXXXXXXXXXXXXXXXXXXXXXXXXXXXXXXXXXXXXXXXXXXXXXXXXXXXX uK",
"Ku XXXXXXXXXXXXXXXXXXXXXXXXXXXXXXXXXXXXXXXXXXXXXXXXXXXXXXXXXXXXXXXXXXXXXXXXXXXXXXXXXXXXXXXXXXXXXX uK",
"Ku XXXXXXXXXXXXXXXXXXXXXXXXXXXXXXXXXXXXXXXXXXXXXXXXXXXXXXXXXXXXXXXXXXXXXXXXXXXXXXXXXXXXXXXXXXXXXX uK",
"Ku XXXXXXXXXXXXXXXXXXXXXXXXXXXXXXXXXXXXXXXXXXXXXXXXXXXXXXXXXXXXXXXXXXXXXXXXXXXXXXXXXXXXXXXXXXXXXX uK",
"Ku XXXXXXXXXXXXXXXXXXXXXXXXXXXXXXXXXXXXXXXXXXXXXXXXXXXXXXXXXXXXXXXXXXXXXXXXXXXXXXXXXXXXXXXXXXXXXX uK",
"Ku XXXXXXXXXXXXXXXXXXXXXXXXXXXXXXXXXXXXXXXXXXXXXXXXXXXXXXXXXXXXXXXXXXXXXXXXXXXXXXXXXXXXXXXXXXXXXX uK",
"Ku XXXXXXXXXXXXXXXXXXXXXXXXXXXXXXXXXXXXXXXXXXXXXXXXXXXXXXXXXXXXXXXXXXXXXXXXXXXXXXXXXXXXXXXXXXXXXX uK",
"Ku XXXXXXXXXXXXXXXXXXXXXXXXXXXXXXXXXXXXXXXXXXXXXXXXXXXXXXXXXXXXXXXXXXXXXXXXXXXXXXXXXXXXXXXXXXXXXX uK",
"Ku XXXXXXXXXXXXXXXXXXXXXXXXXXXXXXXXXXXXXXXXXXXXXXXXXXXXXXXXXXXXXXXXXXXXXXXXXXXXXXXXXXXXXXXXXXXXXX uK",
"Ku XXXXXXXXXXXXXXXXXXXXXXXXXXXXXXXXXXXXXXXXXXXXXXXXXXXXXXXXXXXXXXXXXXXXXXXXXXXXXXXXXXXXXXXXXXXXXX uK",
"Ku XXXXXXXXXXXXXXXXXXXXXXXXXXXXXXXXXXXXXXXXXXXXXXXXXXXXXXXXXXXXXXXXXXXXXXXXXXXXXXXXXXXXXXXXXXXXXX uK",
"Ku XXXXXXXXXXXXXXXXXXXXXXXXXXXXXXXXXXXXXXXXXXXXXXXXXXXXXXXXXXXXXXXXXXXXXXXXXXXXXXXXXXXXXXXXXXXXXX uK",
"Ku XXXXXXXXXXXXXXXXXXXXXXXXXXXXXXXXXXXXXXXXXXXXXXXXXXXXXXXXXXXXXXXXXXXXXXXXXXXXXXXXXXXXXXXXXXXXXX uK",
"Ku XXXXXXXXXXXXXXXXXXXXXXXXXXXmKKKKKKKKKK*XXXXXXXXXXXXXXXXXX$KKKKKKKKKKBXXXXXXXXXXXXXXXXXXXXXXXXX uK",
"Ku XXXXXXXXXXXXXXXXXXXXXXXXXXXmKKKKKKKKKKiXXXXXXXXXXXXXXXXXXrKKKKKKKKKKBXXXXXXXXXXXXXXXXXXXXXXXXX uK",
"Ku XXXXXXXXXXXXXXXXXXXXXXXXXXXmKKKKKKKKKKBXXXXXXXXXXXXXXXXXXMKKKKKKKKKKBXXXXXXXXXXXXXXXXXXXXXXXXX uK",
"Ku XXXXXXXXXXXXXXXXXXXXXXXXXXXmKKKKKKKKKKK=XXXXXXXXXXXXXXXX%KKKKKKKKKKKBXXXXXXXXXXXXXXXXXXXXXXXXX uK",
"Ku XXXXXXXXXXXXXXXXXXXXXXXXXXXmKKKKKKKKKKKpXXXXXXXXXXXXXXXXtKKKKKKKKKKKBXXXXXXXXXXXXXXXXXXXXXXXXX uK",
"Ku XXXXXXXXXXXXXXXXXXXXXXXXXXXmKKKKKKKKKKKVXXXXXXXXXXXXXXXXNKKKKKKKKKKKBXXXXXXXXXXXXXXXXXXXXXXXXX uK",
"Ku XXXXXXXXXXXXXXXXXXXXXXXXXXXmKKKKKKKKKKKK-XXXXXXXXXXXXXX&KKKKKKKKKKKKBXXXXXXXXXXXXXXXXXXXXXXXXX uK",
"Ku XXXXXXXXXXXXXXXXXXXXXXXXXXXmKKKKKKFKKKKKaXXXXXXXXXXXXXXyKKKKKDKKKKKKBXXXXXXXXXXXXXXXXXXXXXXXXX uK",
"Ku XXXXXXXXXXXXXXXXXXXXXXXXXXXmKKKKKKnGKKKKVXXXXXXXXXXXXXXNKKKKJvKKKKKKBXXXXXXXXXXXXXXXXXXXXXXXXX uK",
"Ku XXXXXXXXXXXXXXXXXXXXXXXXXXXmKKKKKKbxKKKKK-XXXXXXXXXXXX*KKKKKbxKKKKKKBXXXXXXXXXXXXXXXXXXXXXXXXX uK",
"Ku XXXXXXXXXXXXXXXXXXXXXXXXXXXmKKKKKKb8KKKKKaXXXXXXXXXXXXiKKKKKwxKKKKKKBXXXXXXXXXXXXXXXXXXXXXXXXX uK",
"Ku XXXXXXXXXXXXXXXXXXXXXXXXXXXmKKKKKKboFKKKKVXXXXXXXXXXXXBKKKKH#xKKKKKKBXXXXXXXXXXXXXXXXXXXXXXXXX uK",
"Ku XXXXXXXXXXXXXXXXXXXXXXXXXXXmKKKKKKbXxKKKKK-XXXXXXXXXX=KKKKKvXxKKKKKKBXXXXXXXXXXXXXXXXXXXXXXXXX uK",
"Ku XXXXXXXXXXXXXXXXXXXXXXXXXXXmKKKKKKbX7KKKKKaXXXXXXXXXXaKKKKKqXxKKKKKKBXXXXXXXXXXXXXXXXXXXXXXXXX uK",
"Ku XXXXXXXXXXXXXXXXXXXXXXXXXXXmKKKKKKbXoFKKKKVXXXXXXXXXXVKKKKH@XxKKKKKKBXXXXXXXXXXXXXXXXXXXXXXXXX uK",
"Ku XXXXXXXXXXXXXXXXXXXXXXXXXXXmKKKKKKbXXzKKKKK:XXXXXXXX;KKKKKvXXxKKKKKKBXXXXXXXXXXXXXXXXXXXXXXXXX uK",
"Ku XXXXXXXXXXXXXXXXXXXXXXXXXXXmKKKKKKbXX6KKKKKsXXXXXXXXsKKKKK0XXxKKKKKKBXXXXXXXXXXXXXXXXXXXXXXXXX uK",
"Ku XXXXXXXXXXXXXXXXXXXXXXXXXXXmKKKKKKbXXXDKKKKCXXXXXXXXCKKKKH+XXxKKKKKKBXXXXXXXXXXXXXXXXXXXXXXXXX uK",
"Ku XXXXXXXXXXXXXXXXXXXXXXXXXXXmKKKKKKbXXXlKKKKK:XXXXXX:KKKKKcXXXxKKKKKKBXXXXXXXXXXXXXXXXXXXXXXXXX uK",
"Ku XXXXXXXXXXXXXXXXXXXXXXXXXXXmKKKKKKbXXX4KKKKKsXXXXXXfKKKKK0XXXxKKKKKKBXXXXXXXXXXXXXXXXXXXXXXXXX uK",
"Ku XXXXXXXXXXXXXXXXXXXXXXXXXXXmKKKKKKbXXXXSKKKKCXXXXXXCKKKKGOXXXxKKKKKKBXXXXXXXXXXXXXXXXXXXXXXXXX uK",
"Ku XXXXXXXXXXXXXXXXXXXXXXXXXXXmKKKKKKbXXXXkKKKKK:XXXX>KKKKKxXXXXxKKKKKKBXXXXXXXXXXXXXXXXXXXXXXXXX uK",
"Ku XXXXXXXXXXXXXXXXXXXXXXXXXXXmKKKKKKbXXXX3KKKKKdXXXXfKKKKK9XXXXxKKKKKKBXXXXXXXXXXXXXXXXXXXXXXXXX uK",
"Ku XXXXXXXXXXXXXXXXXXXXXXXXXXXmKKKKKKbXXXXXSKKKKCXXXXZKKKKGOXXXXxKKKKKKBXXXXXXXXXXXXXXXXXXXXXXXXX uK",
"Ku XXXXXXXXXXXXXXXXXXXXXXXXXXXmKKKKKKbXXXXXjKKKKK>XX,KKKKKxXXXXXxKKKKKKBXXXXXXXXXXXXXXXXXXXXXXXXX uK",
"Ku XXXXXXXXXXXXXXXXXXXXXXXXXXXmKKKKKKbXXXXX2KKKKKfXXgKKKKK8XXXXXxKKKKKKBXXXXXXXXXXXXXXXXXXXXXXXXX uK",
"Ku XXXXXXXXXXXXXXXXXXXXXXXXXXXmKKKKKKbXXXXXXAKKKKCXXAKKKKFoXXXXXxKKKKKKBXXXXXXXXXXXXXXXXXXXXXXXXX uK",
"Ku XXXXXXXXXXXXXXXXXXXXXXXXXXXmKKKKKKbXXXXXXhKKKKK><KKKKKxXXXXXXxKKKKKKBXXXXXXXXXXXXXXXXXXXXXXXXX uK",
"Ku XXXXXXXXXXXXXXXXXXXXXXXXXXXmKKKKKKbXXXXXX1KKKKKfgKKKKK7XXXXXXxKKKKKKBXXXXXXXXXXXXXXXXXXXXXXXXX uK",
"Ku XXXXXXXXXXXXXXXXXXXXXXXXXXXmKKKKKKbXXXXXXXAKKKKCAKKKKFoXXXXXXxKKKKKKBXXXXXXXXXXXXXXXXXXXXXXXXX uK",
"Ku XXXXXXXXXXXXXXXXXXXXXXXXXXXmKKKKKKbXXXXXXXgKKKKKKKKKKzXXXXXXXxKKKKKKBXXXXXXXXXXXXXXXXXXXXXXXXX uK",
"Ku XXXXXXXXXXXXXXXXXXXXXXXXXXXmKKKKKKbXXXXXXX<KKKKKKKKKK6XXXXXXXxKKKKKKBXXXXXXXXXXXXXXXXXXXXXXXXX uK",
"Ku XXXXXXXXXXXXXXXXXXXXXXXXXXXmKKKKKKbXXXXXXXXAKKKKKKKKFXXXXXXXXxKKKKKKBXXXXXXXXXXXXXXXXXXXXXXXXX uK",
"Ku XXXXXXXXXXXXXXXXXXXXXXXXXXXmKKKKKKbXXXXXXXXgKKKKKKKKzXXXXXXXXxKKKKKKBXXXXXXXXXXXXXXXXXXXXXXXXX uK",
"Ku XXXXXXXXXXXXXXXXXXXXXXXXXXXmKKKKKKbXXXXXXXX,KKKKKKKK6XXXXXXXXxKKKKKKBXXXXXXXXXXXXXXXXXXXXXXXXX uK",
"Ku XXXXXXXXXXXXXXXXXXXXXXXXXXXmKKKKKKbXXXXXXXXXCKKKKKKDXXXXXXXXXxKKKKKKBXXXXXXXXXXXXXXXXXXXXXXXXX uK",
"Ku XXXXXXXXXXXXXXXXXXXXXXXXXXXmKKKKKKbXXXXXXXXXfKKKKKKzXXXXXXXXXxKKKKKKBXXXXXXXXXXXXXXXXXXXXXXXXX uK",
"Ku XXXXXXXXXXXXXXXXXXXXXXXXXXXmKKKKKKbXXXXXXXXX>KKKKKK5XXXXXXXXXxKKKKKKBXXXXXXXXXXXXXXXXXXXXXXXXX uK",
"Ku XXXXXXXXXXXXXXXXXXXXXXXXXXXmKKKKKKbXXXXXXXXXXXXXXXXXXXXXXXXXXxKKKKKKBXXXXXXXXXXXXXXXXXXXXXXXXX uK",
"Ku XXXXXXXXXXXXXXXXXXXXXXXXXXXmKKKKKKbXXXXXXXXXXXXXXXXXXXXXXXXXXxKKKKKKBXXXXXXXXXXXXXXXXXXXXXXXXX uK",
"Ku XXXXXXXXXXXXXXXXXXXXXXXXXXXmKKKKKKbXXXXXXXXXXXXXXXXXXXXXXXXXXxKKKKKKBXXXXXXXXXXXXXXXXXXXXXXXXX uK",
"Ku XXXXXXXXXXXXXXXXXXXXXXXXXXXmKKKKKKbXXXXXXXXXXXXXXXXXXXXXXXXXXxKKKKKKBXXXXXXXXXXXXXXXXXXXXXXXXX uK",
"Ku XXXXXXXXXXXXXXXXXXXXXXXXXXXmKKKKKKbXXXXXXXXXXXXXXXXXXXXXXXXXXxKKKKKKBXXXXXXXXXXXXXXXXXXXXXXXXX uK",
"Ku XXXXXXXXXXXXXXXXXXXXXXXXXXXmKKKKKKbXXXXXXXXXXXXXXXXXXXXXXXXXXxKKKKKKBXXXXXXXXXXXXXXXXXXXXXXXXX uK",
"Ku XXXXXXXXXXXXXXXXXXXXXXXXXXXmKKKKKKbXXXXXXXXXXXXXXXXXXXXXXXXXXxKKKKKKBXXXXXXXXXXXXXXXXXXXXXXXXX uK",
"Ku XXXXXXXXXXXXXXXXXXXXXXXXXXXmKKKKKKbXXXXXXXXXXXXXXXXXXXXXXXXXXxKKKKKKBXXXXXXXXXXXXXXXXXXXXXXXXX uK",
"Ku XXXXXXXXXXXXXXXXXXXXXXXXXXXmKKKKKKbXXXXXXXXXXXXXXXXXXXXXXXXXXxKKKKKKBXXXXXXXXXXXXXXXXXXXXXXXXX uK",
"Ku XXXXXXXXXXXXXXXXXXXXXXXXXXXmKKKKKKbXXXXXXXXXXXXXXXXXXXXXXXXXXxKKKKKKBXXXXXXXXXXXXXXXXXXXXXXXXX uK",
"Ku XXXXXXXXXXXXXXXXXXXXXXXXXXXmKKKKKKbXXXXXXXXXXXXXXXXXXXXXXXXXXxKKKKKKBXXXXXXXXXXXXXXXXXXXXXXXXX uK",
"Ku XXXXXXXXXXXXXXXXXXXXXXXXXXXmKKKKKKbXXXXXXXXXXXXXXXXXXXXXXXXXXxKKKKKKBXXXXXXXXXXXXXXXXXXXXXXXXX uK",
"Ku XXXXXXXXXXXXXXXXXXXXXXXXXXXmKKKKKKbXXXXXXXXXXXXXXXXXXXXXXXXXXxKKKKKKBXXXXXXXXXXXXXXXXXXXXXXXXX uK",
"Ku XXXXXXXXXXXXXXXXXXXXXXXXXXXmKKKKKKbXXXXXXXXXXXXXXXXXXXXXXXXXXxKKKKKKBXXXXXXXXXXXXXXXXXXXXXXXXX uK",
"Ku XXXXXXXXXXXXXXXXXXXXXXXXXXXmKKKKKKbXXXXXXXXXXXXXXXXXXXXXXXXXXxKKKKKKBXXXXXXXXXXXXXXXXXXXXXXXXX uK",
"Ku XXXXXXXXXXXXXXXXXXXXXXXXXXXmKKKKKKbXXXXXXXXXXXXXXXXXXXXXXXXXXxKKKKKKBXXXXXXXXXXXXXXXXXXXXXXXXX uK",
"Ku XXXXXXXXXXXXXXXXXXXXXXXXXXXmKKKKKKbXXXXXXXXXXXXXXXXXXXXXXXXXXxKKKKKKBXXXXXXXXXXXXXXXXXXXXXXXXX uK",
"Ku XXXXXXXXXXXXXXXXXXXXXXXXXXXmKKKKKKbXXXXXXXXXXXXXXXXXXXXXXXXXXxKKKKKKBXXXXXXXXXXXXXXXXXXXXXXXXX uK",
"Ku XXXXXXXXXXXXXXXXXXXXXXXXXXXmKKKKKKbXXXXXXXXXXXXXXXXXXXXXXXXXXxKKKKKKBXXXXXXXXXXXXXXXXXXXXXXXXX uK",
"Ku XXXXXXXXXXXXXXXXXXXXXXXXXXXmKKKKKKbXXXXXXXXXXXXXXXXXXXXXXXXXXxKKKKKKBXXXXXXXXXXXXXXXXXXXXXXXXX uK",
"Ku XXXXXXXXXXXXXXXXXXXXXXXXXXXmKKKKKKbXXXXXXXXXXXXXXXXXXXXXXXXXXxKKKKKKBXXXXXXXXXXXXXXXXXXXXXXXXX uK",
"Ku XXXXXXXXXXXXXXXXXXXXXXXXXXXXXXXXXXXXXXXXXXXXXXXXXXXXXXXXXXXXXXXXXXXXXXXXXXXXXXXXXXXXXXXXXXXXXX uK",
"Ku XXXXXXXXXXXXXXXXXXXXXXXXXXXXXXXXXXXXXXXXXXXXXXXXXXXXXXXXXXXXXXXXXXXXXXXXXXXXXXXXXXXXXXXXXXXXXX uK",
"Ku XXXXXXXXXXXXXXXXXXXXXXXXXXXXXXXXXXXXXXXXXXXXXXXXXXXXXXXXXXXXXXXXXXXXXXXXXXXXXXXXXXXXXXXXXXXXXX uK",
"Ku XXXXXXXXXXXXXXXXXXXXXXXXXXXXXXXXXXXXXXXXXXXXXXXXXXXXXXXXXXXXXXXXXXXXXXXXXXXXXXXXXXXXXXXXXXXXXX uK",
"Ku XXXXXXXXXXXXXXXXXXXXXXXXXXXXXXXXXXXXXXXXXXXXXXXXXXXXXXXXXXXXXXXXXXXXXXXXXXXXXXXXXXXXXXXXXXXXXX uK",
"Ku XXXXXXXXXXXXXXXXXXXXXXXXXXXXXXXXXXXXXXXXXXXXXXXXXXXXXXXXXXXXXXXXXXXXXXXXXXXXXXXXXXXXXXXXXXXXXX uK",
"Ku XXXXXXXXXXXXXXXXXXXXXXXXXXXXXXXXXXXXXXXXXXXXXXXXXXXXXXXXXXXXXXXXXXXXXXXXXXXXXXXXXXXXXXXXXXXXXX uK",
"Ku XXXXXXXXXXXXXXXXXXXXXXXXXXXXXXXXXXXXXXXXXXXXXXXXXXXXXXXXXXXXXXXXXXXXXXXXXXXXXXXXXXXXXXXXXXXXXX uK",
"Ku XXXXXXXXXXXXXXXXXXXXXXXXXXXXXXXXXXXXXXXXXXXXXXXXXXXXXXXXXXXXXXXXXXXXXXXXXXXXXXXXXXXXXXXXXXXXXX uK",
"Ku XXXXXXXXXXXXXXXXXXXXXXXXXXXXXXXXXXXXXXXXXXXXXXXXXXXXXXXXXXXXXXXXXXXXXXXXXXXXXXXXXXXXXXXXXXXXXX uK",
"Ku XXXXXXXXXXXXXXXXXXXXXXXXXXXXXXXXXXXXXXXXXXXXXXXXXXXXXXXXXXXXXXXXXXXXXXXXXXXXXXXXXXXXXXXXXXXXXX uK",
"Ku XXXXXXXXXXXXXXXXXXXXXXXXXXXXXXXXXXXXXXXXXXXXXXXXXXXXXXXXXXXXXXXXXXXXXXXXXXXXXXXXXXXXXXXXXXXXXX uK",
"Ku XXXXXXXXXXXXXXXXXXXXXXXXXXXXXXXXXXXXXXXXXXXXXXXXXXXXXXXXXXXXXXXXXXXXXXXXXXXXXXXXXXXXXXXXXXXXXX uK",
"Ku XXXXXXXXXXXXXXXXXXXXXXXXXXXXXXXXXXXXXXXXXXXXXXXXXXXXXXXXXXXXXXXXXXXXXXXXXXXXXXXXXXXXXXXXXXXXXX uK",
"Ku XXXXXXXXXXXXXXXXXXXXXXXXXXXXXXXXXXXXXXXXXXXXXXXXXXXXXXXXXXXXXXXXXXXXXXXXXXXXXXXXXXXXXXXXXXXXXX uK",
"Ku XXXXXXXXXXXXXXXXXXXXXXXXXXXXXXXXXXXXXXXXXXXXXXXXXXXXXXXXXXXXXXXXXXXXXXXXXXXXXXXXXXXXXXXXXXXXXX uK",
"Ku XXXXXXXXXXXXXXXXXXXXXXXXXXXXXXXXXXXXXXXXXXXXXXXXXXXXXXXXXXXXXXXXXXXXXXXXXXXXXXXXXXXXXXXXXXXXXX uK",
"Ku.XXXXXXXXXXXXXXXXXXXXXXXXXXXXXXXXXXXXXXXXXXXXXXXXXXXXXXXXXXXXXXXXXXXXXXXXXXXXXXXXXXXXXXXXXXXXXX uK",
"Ku                                                                                                uK",
"KeuuuuuuuuuuuuuuuuuuuuuuuuuuuuuuuuuuuuuuuuuuuuuuuuuuuuuuuuuuuuuuuuuuuuuuuuuuuuuuuuuuuuuuuuuuuuuuuueK",
"KKKKKKKKKKKKKKKKKKKKKKKKKKKKKKKKKKKKKKKKKKKKKKKKKKKKKKKKKKKKKKKKKKKKKKKKKKKKKKKKKKKKKKKKKKKKKKKKKKKK"
};
