/* XPM */
static char *m2[] = {
/* columns rows colors chars-per-pixel */
"100 100 60 1 ",
"  c #686868",
". c #7C7C7C",
"X c #C3AF2A",
"o c #C3AF2E",
"O c #C4B031",
"+ c #C4B137",
"@ c #C4B13A",
"# c #C7B54E",
"$ c #C7B552",
"% c #C8B656",
"& c #C9B759",
"* c #CAB95F",
"= c #CAB962",
"- c #CABA64",
"; c #CCBC6B",
": c #CDBD6E",
"> c #CDBE72",
", c #CEBF77",
"< c #D0C17B",
"1 c #D0C27F",
"2 c #AFAFAF",
"3 c gray70",
"4 c #D1C383",
"5 c #D2C587",
"6 c #D3C68A",
"7 c #D4C78E",
"8 c #D6C993",
"9 c #D6CA96",
"0 c #DCD1A6",
"q c #DDD3AB",
"w c #DED4AD",
"e c #DFD5B0",
"r c #E0D6B2",
"t c #E0D7B4",
"y c #E1D9B7",
"u c #E2DAB9",
"i c #E3DBBC",
"p c #E4DCBE",
"a c #E5DDC0",
"s c #E6DFC5",
"d c #E7E0C7",
"f c #E7E1C8",
"g c #E8E2C9",
"h c #E9E3CC",
"j c #EAE4CF",
"k c #EBE5D0",
"l c #ECE7D3",
"z c #EFEBDC",
"x c #F0ECDD",
"c c #F1EEE0",
"v c #F3F0E4",
"b c #F4F1E7",
"n c #F5F2E8",
"m c #F6F4EB",
"M c #F7F5EE",
"N c #F9F7F1",
"B c #FAF8F3",
"V c #FBFAF7",
"C c #FCFBF8",
"Z c white",
/* pixels */
"ZZZZZZZZZZZZZZZZZZZZZZZZZZZZZZZZZZZZZZZZZZZZZZZZZZZZZZZZZZZZZZZZZZZZZZZZZZZZZZZZZZZZZZZZZZZZZZZZZZZZ",
"Z23333333333333333333333333333333333333333333333333333333333333333333333333333333333333333333333332Z",
"Z3                                                                                                3Z",
"Z3 XXXXXXXXXXXXXXXXXXXXXXXXXXXXXXXXXXXXXXXXXXXXXXXXXXXXXXXXXXXXXXXXXXXXXXXXXXXXXXXXXXXXXXXXXXXXXX 3Z",
"Z3 XXXXXXXXXXXXXXXXXXXXXXXXXXXXXXXXXXXXXXXXXXXXXXXXXXXXXXXXXXXXXXXXXXXXXXXXXXXXXXXXXXXXXXXXXXXXXX 3Z",
"Z3 XXXXXXXXXXXXXXXXXXXXXXXXXXXXXXXXXXXXXXXXXXXXXXXXXXXXXXXXXXXXXXXXXXXXXXXXXXXXXXXXXXXXXXXXXXXXXX 3Z",
"Z3 XXXXXXXXXXXXXXXXXXXXXXXXXXXXXXXXXXXXXXXXXXXXXXXXXXXXXXXXXXXXXXXXXXXXXXXXXXXXXXXXXXXXXXXXXXXXXX 3Z",
"Z3 XXXXXXXXXXXXXXXXXXXXXXXXXXXXXXXXXXXXXXXXXXXXXXXXXXXXXXXXXXXXXXXXXXXXXXXXXXXXXXXXXXXXXXXXXXXXXX 3Z",
"Z3 XXXXXXXXXXXXXXXXXXXXXXXXXXXXXXXXXXXXXXXXXXXXXXXXXXXXXXXXXXXXXXXXXXXXXXXXXXXXXXXXXXXXXXXXXXXXXX 3Z",
"Z3 XXXXXXXXXXXXXXXXXXXXXXXXXXXXXXXXXXXXXXXXXXXXXXXXXXXXXXXXXXXXXXXXXXXXXXXXXXXXXXXXXXXXXXXXXXXXXX 3Z",
"Z3 XXXXXXXXXXXXXXXXXXXXXXXXXXXXXXXXXXXXXXXXXXXXXXXXXXXXXXXXXXXXXXXXXXXXXXXXXXXXXXXXXXXXXXXXXXXXXX 3Z",
"Z3 XXXXXXXXXXXXXXXXXXXXXXXXXXXXXXXXXXXXXXXXXXXXXXXXXXXXXXXXXXXXXXXXXXXXXXXXXXXXXXXXXXXXXXXXXXXXXX 3Z",
"Z3 XXXXXXXXXXXXXXXXXXXXXXXXXXXXXXXXXXXXXXXXXXXXXXXXXXXXXXXXXXXXXXXXXXXXXXXXXXXXXXXXXXXXXXXXXXXXXX 3Z",
"Z3 XXXXXXXXXXXXXXXXXXXXXXXXXXXXXXXXXXXXXXXXXXXXXXXXXXXXXXXXXXXXXXXXXXXXXXXXXXXXXXXXXXXXXXXXXXXXXX 3Z",
"Z3 XXXXXXXXXXXXXXXXXXXXXXXXXXXXXXXXXXXXXXXXXXXXXXXXXXXXXXXXXXXXXXXXXXXXXXXXXXXXXXXXXXXXXXXXXXXXXX 3Z",
"Z3 XXXXXXXXXXXXXXXXXXXXXXXXXXXXXXXXXXXXXXXXXXXXXXXXXXXXXXXXXXXXXXXXXXXXXXXXXXXXXXXXXXXXXXXXXXXXXX 3Z",
"Z3 XXXXXXXXXXXXXXXXXXXXXXXXXXXXXXXXXXXXXXXXXXXXXXXXXXXXXXXXXXXXXXXXXXXXXXXXXXXXXXXXXXXXXXXXXXXXXX 3Z",
"Z3 XXXXXXXXXXXXXXXXXXXXXXXXXXXXXXXXXXXXXXXXXXXXXXXXXXXXXXXXXXXXXXXXXXXXXXXXXXXXXXXXXXXXXXXXXXXXXX 3Z",
"Z3 XXXXXXXXXXXXXXXXXXXXXXXXXXXXXXXXXXXXXXXXXXXXXXXXXXXXXXXXXXXXXXXXXXXXXXXXXXXXXXXXXXXXXXXXXXXXXX 3Z",
"Z3 XXXXXXXXXXXXXXXXXXXXXXXXXXXXXXXXXXXXXXXXXXXXXXXXXXXXXXXXXXXXXXXXXXXXXXXXXXXXXXXXXXXXXXXXXXXXXX 3Z",
"Z3 XXXXXXXXXXXXXXXXXXXXXXXXXXXlZZZZZZZZZZ&XXXXXXXXXXXXXXXXXX#ZZZZZZZZZZcXXXXXXXXXXXXXXXXXXXXXXXXX 3Z",
"Z3 XXXXXXXXXXXXXXXXXXXXXXXXXXXlZZZZZZZZZZwXXXXXXXXXXXXXXXXXX0ZZZZZZZZZZcXXXXXXXXXXXXXXXXXXXXXXXXX 3Z",
"Z3 XXXXXXXXXXXXXXXXXXXXXXXXXXXlZZZZZZZZZZcXXXXXXXXXXXXXXXXXXzZZZZZZZZZZcXXXXXXXXXXXXXXXXXXXXXXXXX 3Z",
"Z3 XXXXXXXXXXXXXXXXXXXXXXXXXXXlZZZZZZZZZZZ*XXXXXXXXXXXXXXXX$ZZZZZZZZZZZcXXXXXXXXXXXXXXXXXXXXXXXXX 3Z",
"Z3 XXXXXXXXXXXXXXXXXXXXXXXXXXXlZZZZZZZZZZZwXXXXXXXXXXXXXXXXqZZZZZZZZZZZcXXXXXXXXXXXXXXXXXXXXXXXXX 3Z",
"Z3 XXXXXXXXXXXXXXXXXXXXXXXXXXXlZZZZZZZZZZZcXXXXXXXXXXXXXXXXxZZZZZZZZZZZcXXXXXXXXXXXXXXXXXXXXXXXXX 3Z",
"Z3 XXXXXXXXXXXXXXXXXXXXXXXXXXXlZZZZZZZZZZZZ*XXXXXXXXXXXXXX%ZZZZZZZZZZZZcXXXXXXXXXXXXXXXXXXXXXXXXX 3Z",
"Z3 XXXXXXXXXXXXXXXXXXXXXXXXXXXlZZZZZZNZZZZZwXXXXXXXXXXXXXXqZZZZZNZZZZZZcXXXXXXXXXXXXXXXXXXXXXXXXX 3Z",
"Z3 XXXXXXXXXXXXXXXXXXXXXXXXXXXlZZZZZZkVZZZZcXXXXXXXXXXXXXXxZZZZCjZZZZZZcXXXXXXXXXXXXXXXXXXXXXXXXX 3Z",
"Z3 XXXXXXXXXXXXXXXXXXXXXXXXXXXlZZZZZZkgZZZZZ*XXXXXXXXXXXX&ZZZZZkgZZZZZZcXXXXXXXXXXXXXXXXXXXXXXXXX 3Z",
"Z3 XXXXXXXXXXXXXXXXXXXXXXXXXXXlZZZZZZk6ZZZZZeXXXXXXXXXXXXwZZZZZ9gZZZZZZcXXXXXXXXXXXXXXXXXXXXXXXXX 3Z",
"Z3 XXXXXXXXXXXXXXXXXXXXXXXXXXXlZZZZZZkoBZZZZcXXXXXXXXXXXXcZZZZV@gZZZZZZcXXXXXXXXXXXXXXXXXXXXXXXXX 3Z",
"Z3 XXXXXXXXXXXXXXXXXXXXXXXXXXXlZZZZZZkXdZZZZZ*XXXXXXXXXX*ZZZZZjXgZZZZZZcXXXXXXXXXXXXXXXXXXXXXXXXX 3Z",
"Z3 XXXXXXXXXXXXXXXXXXXXXXXXXXXlZZZZZZkX5ZZZZZeXXXXXXXXXXwZZZZZ8XgZZZZZZcXXXXXXXXXXXXXXXXXXXXXXXXX 3Z",
"Z3 XXXXXXXXXXXXXXXXXXXXXXXXXXXlZZZZZZkXoNZZZZcXXXXXXXXXXcZZZZV+XgZZZZZZcXXXXXXXXXXXXXXXXXXXXXXXXX 3Z",
"Z3 XXXXXXXXXXXXXXXXXXXXXXXXXXXlZZZZZZkXXsZZZZZ=XXXXXXXX=ZZZZZjXXgZZZZZZcXXXXXXXXXXXXXXXXXXXXXXXXX 3Z",
"Z3 XXXXXXXXXXXXXXXXXXXXXXXXXXXlZZZZZZkXX4ZZZZZeXXXXXXXXeZZZZZ8XXgZZZZZZcXXXXXXXXXXXXXXXXXXXXXXXXX 3Z",
"Z3 XXXXXXXXXXXXXXXXXXXXXXXXXXXlZZZZZZkXXXNZZZZcXXXXXXXXcZZZZV+XXgZZZZZZcXXXXXXXXXXXXXXXXXXXXXXXXX 3Z",
"Z3 XXXXXXXXXXXXXXXXXXXXXXXXXXXlZZZZZZkXXXaZZZZZ=XXXXXX-ZZZZZhXXXgZZZZZZcXXXXXXXXXXXXXXXXXXXXXXXXX 3Z",
"Z3 XXXXXXXXXXXXXXXXXXXXXXXXXXXlZZZZZZkXXX1ZZZZZrXXXXXXrZZZZZ7XXXgZZZZZZcXXXXXXXXXXXXXXXXXXXXXXXXX 3Z",
"Z3 XXXXXXXXXXXXXXXXXXXXXXXXXXXlZZZZZZkXXXXMZZZZvXXXXXXvZZZZVOXXXgZZZZZZcXXXXXXXXXXXXXXXXXXXXXXXXX 3Z",
"Z3 XXXXXXXXXXXXXXXXXXXXXXXXXXXlZZZZZZkXXXXaZZZZZ-XXXX-ZZZZZgXXXXgZZZZZZcXXXXXXXXXXXXXXXXXXXXXXXXX 3Z",
"Z3 XXXXXXXXXXXXXXXXXXXXXXXXXXXlZZZZZZkXXXX<ZZZZZrXXXXyZZZZZ7XXXXgZZZZZZcXXXXXXXXXXXXXXXXXXXXXXXXX 3Z",
"Z3 XXXXXXXXXXXXXXXXXXXXXXXXXXXlZZZZZZkXXXXXMZZZZvXXXXbZZZZVOXXXXgZZZZZZcXXXXXXXXXXXXXXXXXXXXXXXXX 3Z",
"Z3 XXXXXXXXXXXXXXXXXXXXXXXXXXXlZZZZZZkXXXXXpZZZZZ-XX;ZZZZZgXXXXXgZZZZZZcXXXXXXXXXXXXXXXXXXXXXXXXX 3Z",
"Z3 XXXXXXXXXXXXXXXXXXXXXXXXXXXlZZZZZZkXXXXX,ZZZZZrXXyZZZZZ6XXXXXgZZZZZZcXXXXXXXXXXXXXXXXXXXXXXXXX 3Z",
"Z3 XXXXXXXXXXXXXXXXXXXXXXXXXXXlZZZZZZkXXXXXXmZZZZvXXnZZZZBoXXXXXgZZZZZZcXXXXXXXXXXXXXXXXXXXXXXXXX 3Z",
"Z3 XXXXXXXXXXXXXXXXXXXXXXXXXXXlZZZZZZkXXXXXXiZZZZZ-:ZZZZZfXXXXXXgZZZZZZcXXXXXXXXXXXXXXXXXXXXXXXXX 3Z",
"Z3 XXXXXXXXXXXXXXXXXXXXXXXXXXXlZZZZZZkXXXXXX>ZZZZZtuZZZZZ6XXXXXXgZZZZZZcXXXXXXXXXXXXXXXXXXXXXXXXX 3Z",
"Z3 XXXXXXXXXXXXXXXXXXXXXXXXXXXlZZZZZZkXXXXXXXnZZZZvnZZZZBoXXXXXXgZZZZZZcXXXXXXXXXXXXXXXXXXXXXXXXX 3Z",
"Z3 XXXXXXXXXXXXXXXXXXXXXXXXXXXlZZZZZZkXXXXXXXuZZZZZZZZZZdXXXXXXXgZZZZZZcXXXXXXXXXXXXXXXXXXXXXXXXX 3Z",
"Z3 XXXXXXXXXXXXXXXXXXXXXXXXXXXlZZZZZZkXXXXXXX:ZZZZZZZZZZ5XXXXXXXgZZZZZZcXXXXXXXXXXXXXXXXXXXXXXXXX 3Z",
"Z3 XXXXXXXXXXXXXXXXXXXXXXXXXXXlZZZZZZkXXXXXXXXnZZZZZZZZNXXXXXXXXgZZZZZZcXXXXXXXXXXXXXXXXXXXXXXXXX 3Z",
"Z3 XXXXXXXXXXXXXXXXXXXXXXXXXXXlZZZZZZkXXXXXXXXyZZZZZZZZsXXXXXXXXgZZZZZZcXXXXXXXXXXXXXXXXXXXXXXXXX 3Z",
"Z3 XXXXXXXXXXXXXXXXXXXXXXXXXXXlZZZZZZkXXXXXXXX;ZZZZZZZZ4XXXXXXXXgZZZZZZcXXXXXXXXXXXXXXXXXXXXXXXXX 3Z",
"Z3 XXXXXXXXXXXXXXXXXXXXXXXXXXXlZZZZZZkXXXXXXXXXbZZZZZZNXXXXXXXXXgZZZZZZcXXXXXXXXXXXXXXXXXXXXXXXXX 3Z",
"Z3 XXXXXXXXXXXXXXXXXXXXXXXXXXXlZZZZZZkXXXXXXXXXyZZZZZZaXXXXXXXXXgZZZZZZcXXXXXXXXXXXXXXXXXXXXXXXXX 3Z",
"Z3 XXXXXXXXXXXXXXXXXXXXXXXXXXXlZZZZZZkXXXXXXXXX-ZZZZZZ4XXXXXXXXXgZZZZZZcXXXXXXXXXXXXXXXXXXXXXXXXX 3Z",
"Z3 XXXXXXXXXXXXXXXXXXXXXXXXXXXlZZZZZZkXXXXXXXXXXXXXXXXXXXXXXXXXXgZZZZZZcXXXXXXXXXXXXXXXXXXXXXXXXX 3Z",
"Z3 XXXXXXXXXXXXXXXXXXXXXXXXXXXlZZZZZZkXXXXXXXXXXXXXXXXXXXXXXXXXXgZZZZZZcXXXXXXXXXXXXXXXXXXXXXXXXX 3Z",
"Z3 XXXXXXXXXXXXXXXXXXXXXXXXXXXlZZZZZZkXXXXXXXXXXXXXXXXXXXXXXXXXXgZZZZZZcXXXXXXXXXXXXXXXXXXXXXXXXX 3Z",
"Z3 XXXXXXXXXXXXXXXXXXXXXXXXXXXlZZZZZZkXXXXXXXXXXXXXXXXXXXXXXXXXXgZZZZZZcXXXXXXXXXXXXXXXXXXXXXXXXX 3Z",
"Z3 XXXXXXXXXXXXXXXXXXXXXXXXXXXlZZZZZZkXXXXXXXXXXXXXXXXXXXXXXXXXXgZZZZZZcXXXXXXXXXXXXXXXXXXXXXXXXX 3Z",
"Z3 XXXXXXXXXXXXXXXXXXXXXXXXXXXlZZZZZZkXXXXXXXXXXXXXXXXXXXXXXXXXXgZZZZZZcXXXXXXXXXXXXXXXXXXXXXXXXX 3Z",
"Z3 XXXXXXXXXXXXXXXXXXXXXXXXXXXlZZZZZZkXXXXXXXXXXXXXXXXXXXXXXXXXXgZZZZZZcXXXXXXXXXXXXXXXXXXXXXXXXX 3Z",
"Z3 XXXXXXXXXXXXXXXXXXXXXXXXXXXlZZZZZZkXXXXXXXXXXXXXXXXXXXXXXXXXXgZZZZZZcXXXXXXXXXXXXXXXXXXXXXXXXX 3Z",
"Z3 XXXXXXXXXXXXXXXXXXXXXXXXXXXlZZZZZZkXXXXXXXXXXXXXXXXXXXXXXXXXXgZZZZZZcXXXXXXXXXXXXXXXXXXXXXXXXX 3Z",
"Z3 XXXXXXXXXXXXXXXXXXXXXXXXXXXlZZZZZZkXXXXXXXXXXXXXXXXXXXXXXXXXXgZZZZZZcXXXXXXXXXXXXXXXXXXXXXXXXX 3Z",
"Z3 XXXXXXXXXXXXXXXXXXXXXXXXXXXlZZZZZZkXXXXXXXXXXXXXXXXXXXXXXXXXXgZZZZZZcXXXXXXXXXXXXXXXXXXXXXXXXX 3Z",
"Z3 XXXXXXXXXXXXXXXXXXXXXXXXXXXlZZZZZZkXXXXXXXXXXXXXXXXXXXXXXXXXXgZZZZZZcXXXXXXXXXXXXXXXXXXXXXXXXX 3Z",
"Z3 XXXXXXXXXXXXXXXXXXXXXXXXXXXlZZZZZZkXXXXXXXXXXXXXXXXXXXXXXXXXXgZZZZZZcXXXXXXXXXXXXXXXXXXXXXXXXX 3Z",
"Z3 XXXXXXXXXXXXXXXXXXXXXXXXXXXlZZZZZZkXXXXXXXXXXXXXXXXXXXXXXXXXXgZZZZZZcXXXXXXXXXXXXXXXXXXXXXXXXX 3Z",
"Z3 XXXXXXXXXXXXXXXXXXXXXXXXXXXlZZZZZZkXXXXXXXXXXXXXXXXXXXXXXXXXXgZZZZZZcXXXXXXXXXXXXXXXXXXXXXXXXX 3Z",
"Z3 XXXXXXXXXXXXXXXXXXXXXXXXXXXlZZZZZZkXXXXXXXXXXXXXXXXXXXXXXXXXXgZZZZZZcXXXXXXXXXXXXXXXXXXXXXXXXX 3Z",
"Z3 XXXXXXXXXXXXXXXXXXXXXXXXXXXlZZZZZZkXXXXXXXXXXXXXXXXXXXXXXXXXXgZZZZZZcXXXXXXXXXXXXXXXXXXXXXXXXX 3Z",
"Z3 XXXXXXXXXXXXXXXXXXXXXXXXXXXlZZZZZZkXXXXXXXXXXXXXXXXXXXXXXXXXXgZZZZZZcXXXXXXXXXXXXXXXXXXXXXXXXX 3Z",
"Z3 XXXXXXXXXXXXXXXXXXXXXXXXXXXlZZZZZZkXXXXXXXXXXXXXXXXXXXXXXXXXXgZZZZZZcXXXXXXXXXXXXXXXXXXXXXXXXX 3Z",
"Z3 XXXXXXXXXXXXXXXXXXXXXXXXXXXlZZZZZZkXXXXXXXXXXXXXXXXXXXXXXXXXXgZZZZZZcXXXXXXXXXXXXXXXXXXXXXXXXX 3Z",
"Z3 XXXXXXXXXXXXXXXXXXXXXXXXXXXlZZZZZZkXXXXXXXXXXXXXXXXXXXXXXXXXXgZZZZZZcXXXXXXXXXXXXXXXXXXXXXXXXX 3Z",
"Z3 XXXXXXXXXXXXXXXXXXXXXXXXXXXXXXXXXXXXXXXXXXXXXXXXXXXXXXXXXXXXXXXXXXXXXXXXXXXXXXXXXXXXXXXXXXXXXX 3Z",
"Z3 XXXXXXXXXXXXXXXXXXXXXXXXXXXXXXXXXXXXXXXXXXXXXXXXXXXXXXXXXXXXXXXXXXXXXXXXXXXXXXXXXXXXXXXXXXXXXX 3Z",
"Z3 XXXXXXXXXXXXXXXXXXXXXXXXXXXXXXXXXXXXXXXXXXXXXXXXXXXXXXXXXXXXXXXXXXXXXXXXXXXXXXXXXXXXXXXXXXXXXX 3Z",
"Z3 XXXXXXXXXXXXXXXXXXXXXXXXXXXXXXXXXXXXXXXXXXXXXXXXXXXXXXXXXXXXXXXXXXXXXXXXXXXXXXXXXXXXXXXXXXXXXX 3Z",
"Z3 XXXXXXXXXXXXXXXXXXXXXXXXXXXXXXXXXXXXXXXXXXXXXXXXXXXXXXXXXXXXXXXXXXXXXXXXXXXXXXXXXXXXXXXXXXXXXX 3Z",
"Z3 XXXXXXXXXXXXXXXXXXXXXXXXXXXXXXXXXXXXXXXXXXXXXXXXXXXXXXXXXXXXXXXXXXXXXXXXXXXXXXXXXXXXXXXXXXXXXX 3Z",
"Z3 XXXXXXXXXXXXXXXXXXXXXXXXXXXXXXXXXXXXXXXXXXXXXXXXXXXXXXXXXXXXXXXXXXXXXXXXXXXXXXXXXXXXXXXXXXXXXX 3Z",
"Z3 XXXXXXXXXXXXXXXXXXXXXXXXXXXXXXXXXXXXXXXXXXXXXXXXXXXXXXXXXXXXXXXXXXXXXXXXXXXXXXXXXXXXXXXXXXXXXX 3Z",
"Z3 XXXXXXXXXXXXXXXXXXXXXXXXXXXXXXXXXXXXXXXXXXXXXXXXXXXXXXXXXXXXXXXXXXXXXXXXXXXXXXXXXXXXXXXXXXXXXX 3Z",
"Z3 XXXXXXXXXXXXXXXXXXXXXXXXXXXXXXXXXXXXXXXXXXXXXXXXXXXXXXXXXXXXXXXXXXXXXXXXXXXXXXXXXXXXXXXXXXXXXX 3Z",
"Z3 XXXXXXXXXXXXXXXXXXXXXXXXXXXXXXXXXXXXXXXXXXXXXXXXXXXXXXXXXXXXXXXXXXXXXXXXXXXXXXXXXXXXXXXXXXXXXX 3Z",
"Z3 XXXXXXXXXXXXXXXXXXXXXXXXXXXXXXXXXXXXXXXXXXXXXXXXXXXXXXXXXXXXXXXXXXXXXXXXXXXXXXXXXXXXXXXXXXXXXX 3Z",
"Z3 XXXXXXXXXXXXXXXXXXXXXXXXXXXXXXXXXXXXXXXXXXXXXXXXXXXXXXXXXXXXXXXXXXXXXXXXXXXXXXXXXXXXXXXXXXXXXX 3Z",
"Z3 XXXXXXXXXXXXXXXXXXXXXXXXXXXXXXXXXXXXXXXXXXXXXXXXXXXXXXXXXXXXXXXXXXXXXXXXXXXXXXXXXXXXXXXXXXXXXX 3Z",
"Z3 XXXXXXXXXXXXXXXXXXXXXXXXXXXXXXXXXXXXXXXXXXXXXXXXXXXXXXXXXXXXXXXXXXXXXXXXXXXXXXXXXXXXXXXXXXXXXX 3Z",
"Z3 XXXXXXXXXXXXXXXXXXXXXXXXXXXXXXXXXXXXXXXXXXXXXXXXXXXXXXXXXXXXXXXXXXXXXXXXXXXXXXXXXXXXXXXXXXXXXX 3Z",
"Z3 XXXXXXXXXXXXXXXXXXXXXXXXXXXXXXXXXXXXXXXXXXXXXXXXXXXXXXXXXXXXXXXXXXXXXXXXXXXXXXXXXXXXXXXXXXXXXX 3Z",
"Z3.XXXXXXXXXXXXXXXXXXXXXXXXXXXXXXXXXXXXXXXXXXXXXXXXXXXXXXXXXXXXXXXXXXXXXXXXXXXXXXXXXXXXXXXXXXXXXX 3Z",
"Z3                                                                                                3Z",
"Z23333333333333333333333333333333333333333333333333333333333333333333333333333333333333333333333332Z",
"ZZZZZZZZZZZZZZZZZZZZZZZZZZZZZZZZZZZZZZZZZZZZZZZZZZZZZZZZZZZZZZZZZZZZZZZZZZZZZZZZZZZZZZZZZZZZZZZZZZZZ"
};
