/* XPM */
static char *m3[] = {
/* columns rows colors chars-per-pixel */
"100 100 35 1 ",
"  c #686868",
". c #727272",
"X c #777777",
"o c gray50",
"O c #818181",
"+ c gray52",
"@ c #888888",
"# c gray56",
"$ c gray57",
"% c gray59",
"& c gray60",
"* c gray62",
"= c gray64",
"- c gray65",
"; c gray67",
": c #AFAFAF",
"> c gray70",
", c #B7B7B7",
"< c #BBBBBB",
"1 c #BCBCBC",
"2 c #C0C0C0",
"3 c gray77",
"4 c #CBCBCB",
"5 c #CDCDCD",
"6 c #D2D2D2",
"7 c #D7D7D7",
"8 c #DADADA",
"9 c #E1E1E1",
"0 c #E4E4E4",
"q c gray91",
"w c #EEEEEE",
"e c #F3F3F3",
"r c #F6F6F6",
"t c #F9F9F9",
"y c white",
/* pixels */
"yyyyyyyyyyyyyyyyyyyyyyyyyyyyyyyyyyyyyyyyyyyyyyyyyyyyyyyyyyyyyyyyyyyyyyyyyyyyyyyyyyyyyyyyyyyyyyyyyyyy",
"y:>>>>>>>>>>>>>>>>>>>>>>>>>>>>>>>>>>>>>>>>>>>>>>>>>>>>>>>>>>>>>>>>>>>>>>>>>>>>>>>>>>>>>>>>>>>>>>>>:y",
"y>                                                                                                >y",
"y> .............................................................................................. >y",
"y> .............................................................................................. >y",
"y> .............................................................................................. >y",
"y> .............................................................................................. >y",
"y> .............................................................................................. >y",
"y> .............................................................................................. >y",
"y> .............................................................................................. >y",
"y> .............................................................................................. >y",
"y> .............................................................................................. >y",
"y> .............................................................................................. >y",
"y> .............................................................................................. >y",
"y> .............................................................................................. >y",
"y> .............................................................................................. >y",
"y> .............................................................................................. >y",
"y> .............................................................................................. >y",
"y> .............................................................................................. >y",
"y> .............................................................................................. >y",
"y> ...........................8yyyyyyyyyy+..................oyyyyyyyyyy0......................... >y",
"y> ...........................8yyyyyyyyyy1..................,yyyyyyyyyy0......................... >y",
"y> ...........................8yyyyyyyyyy0..................9yyyyyyyyyy0......................... >y",
"y> ...........................8yyyyyyyyyyy+................Oyyyyyyyyyyy0......................... >y",
"y> ...........................8yyyyyyyyyyy1................<yyyyyyyyyyy0......................... >y",
"y> ...........................8yyyyyyyyyyy0................9yyyyyyyyyyy0......................... >y",
"y> ...........................8yyyyyyyyyyyy+..............Oyyyyyyyyyyyy0......................... >y",
"y> ...........................8yyyyyyeyyyyy1..............<yyyyyeyyyyyy0......................... >y",
"y> ...........................8yyyyyy8ryyyy0..............0yyyyt7yyyyyy0......................... >y",
"y> ...........................8yyyyyy86yyyyy@............+yyyyy86yyyyyy0......................... >y",
"y> ...........................8yyyyyy8=yyyyy1............1yyyyy;6yyyyyy0......................... >y",
"y> ...........................8yyyyyy8.ryyyy0............0yyyytX6yyyyyy0......................... >y",
"y> ...........................8yyyyyy8.6yyyyy@..........+yyyyy7.6yyyyyy0......................... >y",
"y> ...........................8yyyyyy8.=yyyyy1..........1yyyyy;.6yyyyyy0......................... >y",
"y> ...........................8yyyyyy8..ryyyy0..........0yyyytX.6yyyyyy0......................... >y",
"y> ...........................8yyyyyy8..5yyyyy@........@yyyyy7..6yyyyyy0......................... >y",
"y> ...........................8yyyyyy8..*yyyyy1........1yyyyy;..6yyyyyy0......................... >y",
"y> ...........................8yyyyyy8...eyyyyq........qyyyyrX..6yyyyyy0......................... >y",
"y> ...........................8yyyyyy8...5yyyyy@......@yyyyy7...6yyyyyy0......................... >y",
"y> ...........................8yyyyyy8...&yyyyy2......2yyyyy-...6yyyyyy0......................... >y",
"y> ...........................8yyyyyy8....eyyyyq......qyyyyrX...6yyyyyy0......................... >y",
"y> ...........................8yyyyyy8....4yyyyy@....#yyyyy6....6yyyyyy0......................... >y",
"y> ...........................8yyyyyy8....&yyyyy2....2yyyyy-....6yyyyyy0......................... >y",
"y> ...........................8yyyyyy8.....eyyyyq....qyyyyrX....6yyyyyy0......................... >y",
"y> ...........................8yyyyyy8.....4yyyyy@..#yyyyy6.....6yyyyyy0......................... >y",
"y> ...........................8yyyyyy8.....%yyyyy2..3yyyyy=.....6yyyyyy0......................... >y",
"y> ...........................8yyyyyy8......wyyyyq..wyyyyr......6yyyyyy0......................... >y",
"y> ...........................8yyyyyy8......4yyyyy#$yyyyy6......6yyyyyy0......................... >y",
"y> ...........................8yyyyyy8......$yyyyy23yyyyy=......6yyyyyy0......................... >y",
"y> ...........................8yyyyyy8.......wyyyyqwyyyyr.......6yyyyyy0......................... >y",
"y> ...........................8yyyyyy8.......3yyyyyyyyyy6.......6yyyyyy0......................... >y",
"y> ...........................8yyyyyy8.......$yyyyyyyyyy*.......6yyyyyy0......................... >y",
"y> ...........................8yyyyyy8........qyyyyyyyye........6yyyyyy0......................... >y",
"y> ...........................8yyyyyy8........3yyyyyyyy5........6yyyyyy0......................... >y",
"y> ...........................8yyyyyy8........#yyyyyyyy*........6yyyyyy0......................... >y",
"y> ...........................8yyyyyy8.........qyyyyyye.........6yyyyyy0......................... >y",
"y> ...........................8yyyyyy8.........2yyyyyy5.........6yyyyyy0......................... >y",
"y> ...........................8yyyyyy8.........@yyyyyy*.........6yyyyyy0......................... >y",
"y> ...........................8yyyyyy8..........................6yyyyyy0......................... >y",
"y> ...........................8yyyyyy8..........................6yyyyyy0......................... >y",
"y> ...........................8yyyyyy8..........................6yyyyyy0......................... >y",
"y> ...........................8yyyyyy8..........................6yyyyyy0......................... >y",
"y> ...........................8yyyyyy8..........................6yyyyyy0......................... >y",
"y> ...........................8yyyyyy8..........................6yyyyyy0......................... >y",
"y> ...........................8yyyyyy8..........................6yyyyyy0......................... >y",
"y> ...........................8yyyyyy8..........................6yyyyyy0......................... >y",
"y> ...........................8yyyyyy8..........................6yyyyyy0......................... >y",
"y> ...........................8yyyyyy8..........................6yyyyyy0......................... >y",
"y> ...........................8yyyyyy8..........................6yyyyyy0......................... >y",
"y> ...........................8yyyyyy8..........................6yyyyyy0......................... >y",
"y> ...........................8yyyyyy8..........................6yyyyyy0......................... >y",
"y> ...........................8yyyyyy8..........................6yyyyyy0......................... >y",
"y> ...........................8yyyyyy8..........................6yyyyyy0......................... >y",
"y> ...........................8yyyyyy8..........................6yyyyyy0......................... >y",
"y> ...........................8yyyyyy8..........................6yyyyyy0......................... >y",
"y> ...........................8yyyyyy8..........................6yyyyyy0......................... >y",
"y> ...........................8yyyyyy8..........................6yyyyyy0......................... >y",
"y> ...........................8yyyyyy8..........................6yyyyyy0......................... >y",
"y> ...........................8yyyyyy8..........................6yyyyyy0......................... >y",
"y> .............................................................................................. >y",
"y> .............................................................................................. >y",
"y> .............................................................................................. >y",
"y> .............................................................................................. >y",
"y> .............................................................................................. >y",
"y> .............................................................................................. >y",
"y> .............................................................................................. >y",
"y> .............................................................................................. >y",
"y> .............................................................................................. >y",
"y> .............................................................................................. >y",
"y> .............................................................................................. >y",
"y> .............................................................................................. >y",
"y> .............................................................................................. >y",
"y> .............................................................................................. >y",
"y> .............................................................................................. >y",
"y> .............................................................................................. >y",
"y> .............................................................................................. >y",
"y>o.............................................................................................. >y",
"y>                                                                                                >y",
"y:>>>>>>>>>>>>>>>>>>>>>>>>>>>>>>>>>>>>>>>>>>>>>>>>>>>>>>>>>>>>>>>>>>>>>>>>>>>>>>>>>>>>>>>>>>>>>>>>:y",
"yyyyyyyyyyyyyyyyyyyyyyyyyyyyyyyyyyyyyyyyyyyyyyyyyyyyyyyyyyyyyyyyyyyyyyyyyyyyyyyyyyyyyyyyyyyyyyyyyyyy"
};
