/* XPM */
static char *n[] = {
/* columns rows colors chars-per-pixel */
"100 100 74 1 ",
"  c #2E0000",
". c #310D0D",
"X c #341616",
"o c #371C1C",
"O c #3A2222",
"+ c #3D2626",
"@ c #3F2A2A",
"# c #422E2E",
"$ c #443232",
"% c #463535",
"& c #4A3B3B",
"* c #4C3D3D",
"= c #504242",
"- c #544747",
"; c #564949",
": c #5B4F4F",
"> c #5C5151",
", c #615656",
"< c #655C5C",
"1 c #685F5F",
"2 c #6A6262",
"3 c #6D6565",
"4 c #686868",
"5 c #716969",
"6 c #736C6C",
"7 c #746D6D",
"8 c #7B7575",
"9 c #7E7878",
"0 c #7C7C7C",
"q c #827C7C",
"w c #878181",
"e c #8A8484",
"r c #8C8787",
"t c #908B8B",
"y c #928D8D",
"u c #959191",
"i c #9A9595",
"p c #9C9898",
"a c #A19D9D",
"s c #A5A2A2",
"d c #A8A4A4",
"f c #ADAAAA",
"g c #AFAFAF",
"h c #B0ADAD",
"j c gray70",
"k c #B4B2B2",
"l c #B7B4B4",
"z c #BBB9B9",
"x c #BDBBBB",
"c c #BFBDBD",
"v c #C3C0C0",
"b c #C4C2C2",
"n c #C6C4C4",
"m c #CAC8C8",
"M c #CDCBCB",
"N c #CECCCC",
"B c #D3D2D2",
"V c #D4D3D3",
"C c #D7D6D6",
"Z c #D8D6D6",
"A c #DAD9D9",
"S c #DCDBDB",
"D c #DEDDDD",
"F c #E1E0E0",
"G c #E4E3E3",
"H c #E6E5E5",
"J c gray92",
"K c #EFEFEF",
"L c #F3F3F3",
"P c gray96",
"I c #F8F7F7",
"U c gray98",
"Y c #FCFBFB",
"T c white",
/* pixels */
"TTTTTTTTTTTTTTTTTTTTTTTTTTTTTTTTTTTTTTTTTTTTTTTTTTTTTTTTTTTTTTTTTTTTTTTTTTTTTTTTTTTTTTTTTTTTTTTTTTTT",
"TgjjjjjjjjjjjjjjjjjjjjjjjjjjjjjjjjjjjjjjjjjjjjjjjjjjjjjjjjjjjjjjjjjjjjjjjjjjjjjjjjjjjjjjjjjjjjjjjjgT",
"Tj444444444444444444444444444444444444444444444444444444444444444444444444444444444444444444444444jT",
"Tj4TTTTTTTTTTTTTTTTTTTTTTTTTTTTTTTTTTTTTTTTTTTTTTTTTTTTTTTTTTTTTTTTTTTTTTTTTTTTTTTTTTTTTTTTTTTTTT4jT",
"Tj4TTTTTTTTTTTTTTTTTTTTTTTTTTTTTTTTTTTTTTTTTTTTTTTTTTTTTTTTTTTTTTTTTTTTTTTTTTTTTTTTTTTTTTTTTTTTTT4jT",
"Tj4TTTTTTTTTTTTTTTTTTTTTTTTTTTTTTTTTTTTTTTTTTTTTTTTTTTTTTTTTTTTTTTTTTTTTTTTTTTTTTTTTTTTTTTTTTTTTT4jT",
"Tj4TTTTTTTTTTTTTTTTTTTTTTTTTTTTTTTTTTTTTTTTTTTTTTTTTTTTTTTTTTTTTTTTTTTTTTTTTTTTTTTTTTTTTTTTTTTTTT4jT",
"Tj4TTTTTTTTTTTTTTTTTTTTTTTTTTTTTTTTTTTTTTTTTTTTTTTTTTTTTTTTTTTTTTTTTTTTTTTTTTTTTTTTTTTTTTTTTTTTTT4jT",
"Tj4TTTTTTTTTTTTTTTTTTTTTTTTTTTTTTTTTTTTTTTTTTTTTTTTTTTTTTTTTTTTTTTTTTTTTTTTTTTTTTTTTTTTTTTTTTTTTT4jT",
"Tj4TTTTTTTTTTTTTTTTTTTTTTTTTTTTTTTTTTTTTTTTTTTTTTTTTTTTTTTTTTTTTTTTTTTTTTTTTTTTTTTTTTTTTTTTTTTTTT4jT",
"Tj4TTTTTTTTTTTTTTTTTTTTTTTTTTTTTTTTTTTTTTTTTTTTTTTTTTTTTTTTTTTTTTTTTTTTTTTTTTTTTTTTTTTTTTTTTTTTTT4jT",
"Tj4TTTTTTTTTTTTTTTTTTTTTTTTTTTTTTTTTTTTTTTTTTTTTTTTTTTTTTTTTTTTTTTTTTTTTTTTTTTTTTTTTTTTTTTTTTTTTT4jT",
"Tj4TTTTTTTTTTTTTTTTTTTTTTTTTTTTTTTTTTTTTTTTTTTTTTTTTTTTTTTTTTTTTTTTTTTTTTTTTTTTTTTTTTTTTTTTTTTTTT4jT",
"Tj4TTTTTTTTTTTTTTTTTTTTTTTTTTTTTTTTTTTTTTTTTTTTTTTTTTTTTTTTTTTTTTTTTTTTTTTTTTTTTTTTTTTTTTTTTTTTTT4jT",
"Tj4TTTTTTTTTTTTTTTTTTTTTTTTTTTTTTTTTTTTTTTTTTTTTTTTTTTTTTTTTTTTTTTTTTTTTTTTTTTTTTTTTTTTTTTTTTTTTT4jT",
"Tj4TTTTTTTTTTTTTTTTTTTTTTTTTTTTTTTTTTTTTTTTTTTTTTTTTTTTTTTTTTTTTTTTTTTTTTTTTTTTTTTTTTTTTTTTTTTTTT4jT",
"Tj4TTTTTTTTTTTTTTTTTTTTTTTTTTTTTTTTTTTTTTTTTTTTTTTTTTTTTTTTTTTTTTTTTTTTTTTTTTTTTTTTTTTTTTTTTTTTTT4jT",
"Tj4TTTTTTTTTTTTTTTTTTTTTTTTTTTTTTTTTTTTTTTTTTTTTTTTTTTTTTTTTTTTTTTTTTTTTTTTTTTTTTTTTTTTTTTTTTTTTT4jT",
"Tj4TTTTTTTTTTTTTTTTTTTTTTTTTTTTTTTTTTTTTTTTTTTTTTTTTTTTTTTTTTTTTTTTTTTTTTTTTTTTTTTTTTTTTTTTTTTTTT4jT",
"Tj4TTTTTTTTTTTTTTTTTTTTTTTTTTTTTTTTTTTTTTTTTTTTTTTTTTTTTTTTTTTTTTTTTTTTTTTTTTTTTTTTTTTTTTTTTTTTTT4jT",
"Tj4TTTTTTTTTTTTTTTTTTTTTTTTTTTTTj         sTTTTTTTTTTTTTTTTTTT2      yTTTTTTTTTTTTTTTTTTTTTTTTTTT4jT",
"Tj4TTTTTTTTTTTTTTTTTTTTTTTTTTTTTj         $PTTTTTTTTTTTTTTTTTT2      yTTTTTTTTTTTTTTTTTTTTTTTTTTT4jT",
"Tj4TTTTTTTTTTTTTTTTTTTTTTTTTTTTTj          nTTTTTTTTTTTTTTTTTT2      yTTTTTTTTTTTTTTTTTTTTTTTTTTT4jT",
"Tj4TTTTTTTTTTTTTTTTTTTTTTTTTTTTTj          6TTTTTTTTTTTTTTTTTT2      yTTTTTTTTTTTTTTTTTTTTTTTTTTT4jT",
"Tj4TTTTTTTTTTTTTTTTTTTTTTTTTTTTTj           FTTTTTTTTTTTTTTTTT2      yTTTTTTTTTTTTTTTTTTTTTTTTTTT4jT",
"Tj4TTTTTTTTTTTTTTTTTTTTTTTTTTTTTj           aTTTTTTTTTTTTTTTTT2      yTTTTTTTTTTTTTTTTTTTTTTTTTTT4jT",
"Tj4TTTTTTTTTTTTTTTTTTTTTTTTTTTTTj           +PTTTTTTTTTTTTTTTT2      yTTTTTTTTTTTTTTTTTTTTTTTTTTT4jT",
"Tj4TTTTTTTTTTTTTTTTTTTTTTTTTTTTTj            vTTTTTTTTTTTTTTTT2      yTTTTTTTTTTTTTTTTTTTTTTTTTTT4jT",
"Tj4TTTTTTTTTTTTTTTTTTTTTTTTTTTTTj            3TTTTTTTTTTTTTTTT2      yTTTTTTTTTTTTTTTTTTTTTTTTTTT4jT",
"Tj4TTTTTTTTTTTTTTTTTTTTTTTTTTTTTj             DTTTTTTTTTTTTTTT2      yTTTTTTTTTTTTTTTTTTTTTTTTTTT4jT",
"Tj4TTTTTTTTTTTTTTTTTTTTTTTTTTTTTj       X     pTTTTTTTTTTTTTTT2      yTTTTTTTTTTTTTTTTTTTTTTTTTTT4jT",
"Tj4TTTTTTTTTTTTTTTTTTTTTTTTTTTTTj       u     OLTTTTTTTTTTTTTT2      yTTTTTTTTTTTTTTTTTTTTTTTTTTT4jT",
"Tj4TTTTTTTTTTTTTTTTTTTTTTTTTTTTTj       A      cTTTTTTTTTTTTTT2      yTTTTTTTTTTTTTTTTTTTTTTTTTTT4jT",
"Tj4TTTTTTTTTTTTTTTTTTTTTTTTTTTTTj       U7     1TTTTTTTTTTTTTT2      yTTTTTTTTTTTTTTTTTTTTTTTTTTT4jT",
"Tj4TTTTTTTTTTTTTTTTTTTTTTTTTTTTTj       Un      ATTTTTTTTTTTTT2      yTTTTTTTTTTTTTTTTTTTTTTTTTTT4jT",
"Tj4TTTTTTTTTTTTTTTTTTTTTTTTTTTTTj       UI%     uTTTTTTTTTTTTT2      yTTTTTTTTTTTTTTTTTTTTTTTTTTT4jT",
"Tj4TTTTTTTTTTTTTTTTTTTTTTTTTTTTTj       UTd     XLTTTTTTTTTTTT2      yTTTTTTTTTTTTTTTTTTTTTTTTTTT4jT",
"Tj4TTTTTTTTTTTTTTTTTTTTTTTTTTTTTj       UTH      zTTTTTTTTTTTT2      yTTTTTTTTTTTTTTTTTTTTTTTTTTT4jT",
"Tj4TTTTTTTTTTTTTTTTTTTTTTTTTTTTTj       UTT9     ,TTTTTTTTTTTT2      yTTTTTTTTTTTTTTTTTTTTTTTTTTT4jT",
"Tj4TTTTTTTTTTTTTTTTTTTTTTTTTTTTTj       UTTM      ZTTTTTTTTTTT2      yTTTTTTTTTTTTTTTTTTTTTTTTTTT4jT",
"Tj4TTTTTTTTTTTTTTTTTTTTTTTTTTTTTj       UTTU=     yTTTTTTTTTTT2      yTTTTTTTTTTTTTTTTTTTTTTTTTTT4jT",
"Tj4TTTTTTTTTTTTTTTTTTTTTTTTTTTTTj       UTTTh     .KTTTTTTTTTT2      yTTTTTTTTTTTTTTTTTTTTTTTTTTT4jT",
"Tj4TTTTTTTTTTTTTTTTTTTTTTTTTTTTTj       UTTTJ      lTTTTTTTTTT2      yTTTTTTTTTTTTTTTTTTTTTTTTTTT4jT",
"Tj4TTTTTTTTTTTTTTTTTTTTTTTTTTTTTj       UTTTTe     >TTTTTTTTTT2      yTTTTTTTTTTTTTTTTTTTTTTTTTTT4jT",
"Tj4TTTTTTTTTTTTTTTTTTTTTTTTTTTTTj       UTTTTB      VTTTTTTTTT2      yTTTTTTTTTTTTTTTTTTTTTTTTTTT4jT",
"Tj4TTTTTTTTTTTTTTTTTTTTTTTTTTTTTj       UTTTTT:     rTTTTTTTTT2      yTTTTTTTTTTTTTTTTTTTTTTTTTTT4jT",
"Tj4TTTTTTTTTTTTTTTTTTTTTTTTTTTTTj       UTTTTTl      KTTTTTTTT2      yTTTTTTTTTTTTTTTTTTTTTTTTTTT4jT",
"Tj4TTTTTTTTTTTTTTTTTTTTTTTTTTTTTj       UTTTTTK.     jTTTTTTTT2      yTTTTTTTTTTTTTTTTTTTTTTTTTTT4jT",
"Tj4TTTTTTTTTTTTTTTTTTTTTTTTTTTTTj       UTTTTTTy     ;UTTTTTTT2      yTTTTTTTTTTTTTTTTTTTTTTTTTTT4jT",
"Tj4TTTTTTTTTTTTTTTTTTTTTTTTTTTTTj       UTTTTTTZ      BTTTTTTT2      yTTTTTTTTTTTTTTTTTTTTTTTTTTT4jT",
"Tj4TTTTTTTTTTTTTTTTTTTTTTTTTTTTTj       UTTTTTTT<     wTTTTTTT2      yTTTTTTTTTTTTTTTTTTTTTTTTTTT4jT",
"Tj4TTTTTTTTTTTTTTTTTTTTTTTTTTTTTj       UTTTTTTTx      JTTTTTT2      yTTTTTTTTTTTTTTTTTTTTTTTTTTT4jT",
"Tj4TTTTTTTTTTTTTTTTTTTTTTTTTTTTTj       UTTTTTTTLO     gTTTTTT2      yTTTTTTTTTTTTTTTTTTTTTTTTTTT4jT",
"Tj4TTTTTTTTTTTTTTTTTTTTTTTTTTTTTj       UTTTTTTTTp     =UTTTTT2      yTTTTTTTTTTTTTTTTTTTTTTTTTTT4jT",
"Tj4TTTTTTTTTTTTTTTTTTTTTTTTTTTTTj       UTTTTTTTTD      NTTTTT2      yTTTTTTTTTTTTTTTTTTTTTTTTTTT4jT",
"Tj4TTTTTTTTTTTTTTTTTTTTTTTTTTTTTj       UTTTTTTTTT5     qTTTTT2      yTTTTTTTTTTTTTTTTTTTTTTTTTTT4jT",
"Tj4TTTTTTTTTTTTTTTTTTTTTTTTTTTTTj       UTTTTTTTTTb      HTTTT2      yTTTTTTTTTTTTTTTTTTTTTTTTTTT4jT",
"Tj4TTTTTTTTTTTTTTTTTTTTTTTTTTTTTj       UTTTTTTTTTP#     dTTTT2      yTTTTTTTTTTTTTTTTTTTTTTTTTTT4jT",
"Tj4TTTTTTTTTTTTTTTTTTTTTTTTTTTTTj       UTTTTTTTTTTs     &UTTT2      yTTTTTTTTTTTTTTTTTTTTTTTTTTT4jT",
"Tj4TTTTTTTTTTTTTTTTTTTTTTTTTTTTTj       UTTTTTTTTTTG      mTTT2      yTTTTTTTTTTTTTTTTTTTTTTTTTTT4jT",
"Tj4TTTTTTTTTTTTTTTTTTTTTTTTTTTTTj       UTTTTTTTTTTT8     8TTT2      yTTTTTTTTTTTTTTTTTTTTTTTTTTT4jT",
"Tj4TTTTTTTTTTTTTTTTTTTTTTTTTTTTTj       UTTTTTTTTTTTm      HTT2      yTTTTTTTTTTTTTTTTTTTTTTTTTTT4jT",
"Tj4TTTTTTTTTTTTTTTTTTTTTTTTTTTTTj       UTTTTTTTTTTTU*     sTT2      yTTTTTTTTTTTTTTTTTTTTTTTTTTT4jT",
"Tj4TTTTTTTTTTTTTTTTTTTTTTTTTTTTTj       UTTTTTTTTTTTTf     $PT2      yTTTTTTTTTTTTTTTTTTTTTTTTTTT4jT",
"Tj4TTTTTTTTTTTTTTTTTTTTTTTTTTTTTj       UTTTTTTTTTTTTJ      nT2      yTTTTTTTTTTTTTTTTTTTTTTTTTTT4jT",
"Tj4TTTTTTTTTTTTTTTTTTTTTTTTTTTTTj       UTTTTTTTTTTTTTw     7T2      yTTTTTTTTTTTTTTTTTTTTTTTTTTT4jT",
"Tj4TTTTTTTTTTTTTTTTTTTTTTTTTTTTTj       UTTTTTTTTTTTTTB      F2      yTTTTTTTTTTTTTTTTTTTTTTTTTTT4jT",
"Tj4TTTTTTTTTTTTTTTTTTTTTTTTTTTTTh       UTTTTTTTTTTTTTY;     a2      yTTTTTTTTTTTTTTTTTTTTTTTTTTT4jT",
"Tj4TTTTTTTTTTTTTTTTTTTTTTTTTTTTTj       UTTTTTTTTTTTTTTk     @-      yTTTTTTTTTTTTTTTTTTTTTTTTTTT4jT",
"Tj4TTTTTTTTTTTTTTTTTTTTTTTTTTTTTj       UTTTTTTTTTTTTTTK             yTTTTTTTTTTTTTTTTTTTTTTTTTTT4jT",
"Tj4TTTTTTTTTTTTTTTTTTTTTTTTTTTTTj       UTTTTTTTTTTTTTTTt            yTTTTTTTTTTTTTTTTTTTTTTTTTTT4jT",
"Tj4TTTTTTTTTTTTTTTTTTTTTTTTTTTTTj       UTTTTTTTTTTTTTTTC            yTTTTTTTTTTTTTTTTTTTTTTTTTTT4jT",
"Tj4TTTTTTTTTTTTTTTTTTTTTTTTTTTTTj       UTTTTTTTTTTTTTTTT,           yTTTTTTTTTTTTTTTTTTTTTTTTTTT4jT",
"Tj4TTTTTTTTTTTTTTTTTTTTTTTTTTTTTj       UTTTTTTTTTTTTTTTTx           yTTTTTTTTTTTTTTTTTTTTTTTTTTT4jT",
"Tj4TTTTTTTTTTTTTTTTTTTTTTTTTTTTTj       UTTTTTTTTTTTTTTTTLo          yTTTTTTTTTTTTTTTTTTTTTTTTTTT4jT",
"Tj4TTTTTTTTTTTTTTTTTTTTTTTTTTTTTj       UTTTTTTTTTTTTTTTTTi          yTTTTTTTTTTTTTTTTTTTTTTTTTTT4jT",
"Tj4TTTTTTTTTTTTTTTTTTTTTTTTTTTTTj       UTTTTTTTTTTTTTTTTTS          yTTTTTTTTTTTTTTTTTTTTTTTTTTT4jT",
"Tj4TTTTTTTTTTTTTTTTTTTTTTTTTTTTTj       UTTTTTTTTTTTTTTTTTT3         yTTTTTTTTTTTTTTTTTTTTTTTTTTT4jT",
"Tj4TTTTTTTTTTTTTTTTTTTTTTTTTTTTTj       UTTTTTTTTTTTTTTTTTTv         yTTTTTTTTTTTTTTTTTTTTTTTTTTT4jT",
"Tj4TTTTTTTTTTTTTTTTTTTTTTTTTTTTTTTTTTTTTTTTTTTTTTTTTTTTTTTTTTTTTTTTTTTTTTTTTTTTTTTTTTTTTTTTTTTTTT4jT",
"Tj4TTTTTTTTTTTTTTTTTTTTTTTTTTTTTTTTTTTTTTTTTTTTTTTTTTTTTTTTTTTTTTTTTTTTTTTTTTTTTTTTTTTTTTTTTTTTTT4jT",
"Tj4TTTTTTTTTTTTTTTTTTTTTTTTTTTTTTTTTTTTTTTTTTTTTTTTTTTTTTTTTTTTTTTTTTTTTTTTTTTTTTTTTTTTTTTTTTTTTT4jT",
"Tj4TTTTTTTTTTTTTTTTTTTTTTTTTTTTTTTTTTTTTTTTTTTTTTTTTTTTTTTTTTTTTTTTTTTTTTTTTTTTTTTTTTTTTTTTTTTTTT4jT",
"Tj4TTTTTTTTTTTTTTTTTTTTTTTTTTTTTTTTTTTTTTTTTTTTTTTTTTTTTTTTTTTTTTTTTTTTTTTTTTTTTTTTTTTTTTTTTTTTTT4jT",
"Tj4TTTTTTTTTTTTTTTTTTTTTTTTTTTTTTTTTTTTTTTTTTTTTTTTTTTTTTTTTTTTTTTTTTTTTTTTTTTTTTTTTTTTTTTTTTTTTT4jT",
"Tj4TTTTTTTTTTTTTTTTTTTTTTTTTTTTTTTTTTTTTTTTTTTTTTTTTTTTTTTTTTTTTTTTTTTTTTTTTTTTTTTTTTTTTTTTTTTTTT4jT",
"Tj4TTTTTTTTTTTTTTTTTTTTTTTTTTTTTTTTTTTTTTTTTTTTTTTTTTTTTTTTTTTTTTTTTTTTTTTTTTTTTTTTTTTTTTTTTTTTTT4jT",
"Tj4TTTTTTTTTTTTTTTTTTTTTTTTTTTTTTTTTTTTTTTTTTTTTTTTTTTTTTTTTTTTTTTTTTTTTTTTTTTTTTTTTTTTTTTTTTTTTT4jT",
"Tj4TTTTTTTTTTTTTTTTTTTTTTTTTTTTTTTTTTTTTTTTTTTTTTTTTTTTTTTTTTTTTTTTTTTTTTTTTTTTTTTTTTTTTTTTTTTTTT4jT",
"Tj4TTTTTTTTTTTTTTTTTTTTTTTTTTTTTTTTTTTTTTTTTTTTTTTTTTTTTTTTTTTTTTTTTTTTTTTTTTTTTTTTTTTTTTTTTTTTTT4jT",
"Tj4TTTTTTTTTTTTTTTTTTTTTTTTTTTTTTTTTTTTTTTTTTTTTTTTTTTTTTTTTTTTTTTTTTTTTTTTTTTTTTTTTTTTTTTTTTTTTT4jT",
"Tj4TTTTTTTTTTTTTTTTTTTTTTTTTTTTTTTTTTTTTTTTTTTTTTTTTTTTTTTTTTTTTTTTTTTTTTTTTTTTTTTTTTTTTTTTTTTTTT4jT",
"Tj4TTTTTTTTTTTTTTTTTTTTTTTTTTTTTTTTTTTTTTTTTTTTTTTTTTTTTTTTTTTTTTTTTTTTTTTTTTTTTTTTTTTTTTTTTTTTTT4jT",
"Tj4TTTTTTTTTTTTTTTTTTTTTTTTTTTTTTTTTTTTTTTTTTTTTTTTTTTTTTTTTTTTTTTTTTTTTTTTTTTTTTTTTTTTTTTTTTTTTT4jT",
"Tj4TTTTTTTTTTTTTTTTTTTTTTTTTTTTTTTTTTTTTTTTTTTTTTTTTTTTTTTTTTTTTTTTTTTTTTTTTTTTTTTTTTTTTTTTTTTTTT4jT",
"Tj4TTTTTTTTTTTTTTTTTTTTTTTTTTTTTTTTTTTTTTTTTTTTTTTTTTTTTTTTTTTTTTTTTTTTTTTTTTTTTTTTTTTTTTTTTTTTTT4jT",
"Tj0TTTTTTTTTTTTTTTTTTTTTTTTTTTTTTTTTTTTTTTTTTTTTTTTTTTTTTTTTTTTTTTTTTTTTTTTTTTTTTTTTTTTTTTTTTTTTT4jT",
"Tj444444444444444444444444444444444444444444444444444444444444444444444444444444444444444444444444jT",
"TgjjjjjjjjjjjjjjjjjjjjjjjjjjjjjjjjjjjjjjjjjjjjjjjjjjjjjjjjjjjjjjjjjjjjjjjjjjjjjjjjjjjjjjjjjjjjjjjjgT",
"TTTTTTTTTTTTTTTTTTTTTTTTTTTTTTTTTTTTTTTTTTTTTTTTTTTTTTTTTTTTTTTTTTTTTTTTTTTTTTTTTTTTTTTTTTTTTTTTTTTT"
};
