/* XPM */
static char *n1[] = {
/* columns rows colors chars-per-pixel */
"100 100 71 1 ",
"  c #686868",
". c #7C7C7C",
"X c #348032",
"o c #378135",
"O c #3A8238",
"+ c #3C823B",
"@ c #3F833D",
"# c #448542",
"$ c #468644",
"% c #488747",
"& c #4A8749",
"* c #4E894D",
"= c #508A4F",
"- c #538B52",
"; c #588D57",
": c #5A8E59",
"> c #5C8F5B",
", c #5D905C",
"< c #60915F",
"1 c #679567",
"2 c #6A9669",
"3 c #6D976C",
"4 c #729A71",
"5 c #759C74",
"6 c #799E78",
"7 c #7CA07B",
"8 c #7EA17D",
"9 c #80A280",
"0 c #87A787",
"q c #8AA989",
"w c #8FAC8F",
"e c #90AD90",
"r c #95AF94",
"t c #96B095",
"y c #9BB39A",
"u c #9BB49B",
"i c #9FB79F",
"p c #AFAFAF",
"a c #A0B7A0",
"s c #A6BBA5",
"d c #A8BDA8",
"f c gray70",
"g c #AEC0AD",
"h c #B1C3B1",
"j c #B6C6B5",
"k c #B8C8B7",
"l c #BAC9B9",
"z c #BDCCBD",
"x c #C1CFC1",
"c c #C5D1C5",
"v c #C8D4C8",
"b c #CCD7CC",
"n c #CFD9CF",
"m c #D1DBD1",
"M c #D3DCD3",
"N c #D4DDD3",
"B c #D6DFD6",
"V c #D9E1D9",
"C c #DEE4DD",
"Z c #E0E6E0",
"A c #E3E8E3",
"S c #E4E9E4",
"D c #E9EEE9",
"F c #EEF1EE",
"G c #F0F3F0",
"H c #F1F4F1",
"J c #F5F7F5",
"K c #F6F8F6",
"L c #F9FAF9",
"P c #FBFCFB",
"I c white",
/* pixels */
"IIIIIIIIIIIIIIIIIIIIIIIIIIIIIIIIIIIIIIIIIIIIIIIIIIIIIIIIIIIIIIIIIIIIIIIIIIIIIIIIIIIIIIIIIIIIIIIIIIII",
"IpffffffffffffffffffffffffffffffffffffffffffffffffffffffffffffffffffffffffffffffffffffffffffffffffpI",
"If                                                                                                fI",
"If XXXXXXXXXXXXXXXXXXXXXXXXXXXXXXXXXXXXXXXXXXXXXXXXXXXXXXXXXXXXXXXXXXXXXXXXXXXXXXXXXXXXXXXXXXXXXX fI",
"If XXXXXXXXXXXXXXXXXXXXXXXXXXXXXXXXXXXXXXXXXXXXXXXXXXXXXXXXXXXXXXXXXXXXXXXXXXXXXXXXXXXXXXXXXXXXXX fI",
"If XXXXXXXXXXXXXXXXXXXXXXXXXXXXXXXXXXXXXXXXXXXXXXXXXXXXXXXXXXXXXXXXXXXXXXXXXXXXXXXXXXXXXXXXXXXXXX fI",
"If XXXXXXXXXXXXXXXXXXXXXXXXXXXXXXXXXXXXXXXXXXXXXXXXXXXXXXXXXXXXXXXXXXXXXXXXXXXXXXXXXXXXXXXXXXXXXX fI",
"If XXXXXXXXXXXXXXXXXXXXXXXXXXXXXXXXXXXXXXXXXXXXXXXXXXXXXXXXXXXXXXXXXXXXXXXXXXXXXXXXXXXXXXXXXXXXXX fI",
"If XXXXXXXXXXXXXXXXXXXXXXXXXXXXXXXXXXXXXXXXXXXXXXXXXXXXXXXXXXXXXXXXXXXXXXXXXXXXXXXXXXXXXXXXXXXXXX fI",
"If XXXXXXXXXXXXXXXXXXXXXXXXXXXXXXXXXXXXXXXXXXXXXXXXXXXXXXXXXXXXXXXXXXXXXXXXXXXXXXXXXXXXXXXXXXXXXX fI",
"If XXXXXXXXXXXXXXXXXXXXXXXXXXXXXXXXXXXXXXXXXXXXXXXXXXXXXXXXXXXXXXXXXXXXXXXXXXXXXXXXXXXXXXXXXXXXXX fI",
"If XXXXXXXXXXXXXXXXXXXXXXXXXXXXXXXXXXXXXXXXXXXXXXXXXXXXXXXXXXXXXXXXXXXXXXXXXXXXXXXXXXXXXXXXXXXXXX fI",
"If XXXXXXXXXXXXXXXXXXXXXXXXXXXXXXXXXXXXXXXXXXXXXXXXXXXXXXXXXXXXXXXXXXXXXXXXXXXXXXXXXXXXXXXXXXXXXX fI",
"If XXXXXXXXXXXXXXXXXXXXXXXXXXXXXXXXXXXXXXXXXXXXXXXXXXXXXXXXXXXXXXXXXXXXXXXXXXXXXXXXXXXXXXXXXXXXXX fI",
"If XXXXXXXXXXXXXXXXXXXXXXXXXXXXXXXXXXXXXXXXXXXXXXXXXXXXXXXXXXXXXXXXXXXXXXXXXXXXXXXXXXXXXXXXXXXXXX fI",
"If XXXXXXXXXXXXXXXXXXXXXXXXXXXXXXXXXXXXXXXXXXXXXXXXXXXXXXXXXXXXXXXXXXXXXXXXXXXXXXXXXXXXXXXXXXXXXX fI",
"If XXXXXXXXXXXXXXXXXXXXXXXXXXXXXXXXXXXXXXXXXXXXXXXXXXXXXXXXXXXXXXXXXXXXXXXXXXXXXXXXXXXXXXXXXXXXXX fI",
"If XXXXXXXXXXXXXXXXXXXXXXXXXXXXXXXXXXXXXXXXXXXXXXXXXXXXXXXXXXXXXXXXXXXXXXXXXXXXXXXXXXXXXXXXXXXXXX fI",
"If XXXXXXXXXXXXXXXXXXXXXXXXXXXXXXXXXXXXXXXXXXXXXXXXXXXXXXXXXXXXXXXXXXXXXXXXXXXXXXXXXXXXXXXXXXXXXX fI",
"If XXXXXXXXXXXXXXXXXXXXXXXXXXXXXXXXXXXXXXXXXXXXXXXXXXXXXXXXXXXXXXXXXXXXXXXXXXXXXXXXXXXXXXXXXXXXXX fI",
"If XXXXXXXXXXXXXXXXXXXXXXXXXXXXXvIIIIIIIIIMXXXXXXXXXXXXXXXXXXXHIIIIIIZXXXXXXXXXXXXXXXXXXXXXXXXXXX fI",
"If XXXXXXXXXXXXXXXXXXXXXXXXXXXXXvIIIIIIIIII>XXXXXXXXXXXXXXXXXXHIIIIIIZXXXXXXXXXXXXXXXXXXXXXXXXXXX fI",
"If XXXXXXXXXXXXXXXXXXXXXXXXXXXXXvIIIIIIIIIIjXXXXXXXXXXXXXXXXXXHIIIIIIZXXXXXXXXXXXXXXXXXXXXXXXXXXX fI",
"If XXXXXXXXXXXXXXXXXXXXXXXXXXXXXvIIIIIIIIIIFXXXXXXXXXXXXXXXXXXHIIIIIIZXXXXXXXXXXXXXXXXXXXXXXXXXXX fI",
"If XXXXXXXXXXXXXXXXXXXXXXXXXXXXXvIIIIIIIIIIIeXXXXXXXXXXXXXXXXXHIIIIIIZXXXXXXXXXXXXXXXXXXXXXXXXXXX fI",
"If XXXXXXXXXXXXXXXXXXXXXXXXXXXXXvIIIIIIIIIIIBXXXXXXXXXXXXXXXXXHIIIIIIZXXXXXXXXXXXXXXXXXXXXXXXXXXX fI",
"If XXXXXXXXXXXXXXXXXXXXXXXXXXXXXvIIIIIIIIIIII<XXXXXXXXXXXXXXXXHIIIIIIZXXXXXXXXXXXXXXXXXXXXXXXXXXX fI",
"If XXXXXXXXXXXXXXXXXXXXXXXXXXXXXvIIIIIIIIIIIIlXXXXXXXXXXXXXXXXHIIIIIIZXXXXXXXXXXXXXXXXXXXXXXXXXXX fI",
"If XXXXXXXXXXXXXXXXXXXXXXXXXXXXXvIIIIIIIIIIIIGoXXXXXXXXXXXXXXXHIIIIIIZXXXXXXXXXXXXXXXXXXXXXXXXXXX fI",
"If XXXXXXXXXXXXXXXXXXXXXXXXXXXXXvIIIIIIIIIIIIItXXXXXXXXXXXXXXXHIIIIIIZXXXXXXXXXXXXXXXXXXXXXXXXXXX fI",
"If XXXXXXXXXXXXXXXXXXXXXXXXXXXXXvIIIIIIIIIIIIIVXXXXXXXXXXXXXXXHIIIIIIZXXXXXXXXXXXXXXXXXXXXXXXXXXX fI",
"If XXXXXXXXXXXXXXXXXXXXXXXXXXXXXvIIIIIIICIIIIII1XXXXXXXXXXXXXXHIIIIIIZXXXXXXXXXXXXXXXXXXXXXXXXXXX fI",
"If XXXXXXXXXXXXXXXXXXXXXXXXXXXXXvIIIIIIIuIIIIIIzXXXXXXXXXXXXXXHIIIIIIZXXXXXXXXXXXXXXXXXXXXXXXXXXX fI",
"If XXXXXXXXXXXXXXXXXXXXXXXXXXXXXvIIIIIII=FIIIIIH+XXXXXXXXXXXXXHIIIIIIZXXXXXXXXXXXXXXXXXXXXXXXXXXX fI",
"If XXXXXXXXXXXXXXXXXXXXXXXXXXXXXvIIIIIII=jIIIIIIyXXXXXXXXXXXXXHIIIIIIZXXXXXXXXXXXXXXXXXXXXXXXXXXX fI",
"If XXXXXXXXXXXXXXXXXXXXXXXXXXXXXvIIIIIII=;PIIIIICXXXXXXXXXXXXXHIIIIIIZXXXXXXXXXXXXXXXXXXXXXXXXXXX fI",
"If XXXXXXXXXXXXXXXXXXXXXXXXXXXXXvIIIIIII=XmIIIIII3XXXXXXXXXXXXHIIIIIIZXXXXXXXXXXXXXXXXXXXXXXXXXXX fI",
"If XXXXXXXXXXXXXXXXXXXXXXXXXXXXXvIIIIIII=X0IIIIIIxXXXXXXXXXXXXHIIIIIIZXXXXXXXXXXXXXXXXXXXXXXXXXXX fI",
"If XXXXXXXXXXXXXXXXXXXXXXXXXXXXXvIIIIIII=XXDIIIIIJ@XXXXXXXXXXXHIIIIIIZXXXXXXXXXXXXXXXXXXXXXXXXXXX fI",
"If XXXXXXXXXXXXXXXXXXXXXXXXXXXXXvIIIIIII=XXgIIIIIIiXXXXXXXXXXXHIIIIIIZXXXXXXXXXXXXXXXXXXXXXXXXXXX fI",
"If XXXXXXXXXXXXXXXXXXXXXXXXXXXXXvIIIIIII=XX*LIIIIIZXXXXXXXXXXXHIIIIIIZXXXXXXXXXXXXXXXXXXXXXXXXXXX fI",
"If XXXXXXXXXXXXXXXXXXXXXXXXXXXXXvIIIIIII=XXXvIIIIII4XXXXXXXXXXHIIIIIIZXXXXXXXXXXXXXXXXXXXXXXXXXXX fI",
"If XXXXXXXXXXXXXXXXXXXXXXXXXXXXXvIIIIIII=XXX7IIIIIIcXXXXXXXXXXHIIIIIIZXXXXXXXXXXXXXXXXXXXXXXXXXXX fI",
"If XXXXXXXXXXXXXXXXXXXXXXXXXXXXXvIIIIIII=XXXXSIIIIIK#XXXXXXXXXHIIIIIIZXXXXXXXXXXXXXXXXXXXXXXXXXXX fI",
"If XXXXXXXXXXXXXXXXXXXXXXXXXXXXXvIIIIIII=XXXXsIIIIIIsXXXXXXXXXHIIIIIIZXXXXXXXXXXXXXXXXXXXXXXXXXXX fI",
"If XXXXXXXXXXXXXXXXXXXXXXXXXXXXXvIIIIIII=XXXX$KIIIIIAXXXXXXXXXHIIIIIIZXXXXXXXXXXXXXXXXXXXXXXXXXXX fI",
"If XXXXXXXXXXXXXXXXXXXXXXXXXXXXXvIIIIIII=XXXXXcIIIIII6XXXXXXXXHIIIIIIZXXXXXXXXXXXXXXXXXXXXXXXXXXX fI",
"If XXXXXXXXXXXXXXXXXXXXXXXXXXXXXvIIIIIII=XXXXX4IIIIIIvXXXXXXXXHIIIIIIZXXXXXXXXXXXXXXXXXXXXXXXXXXX fI",
"If XXXXXXXXXXXXXXXXXXXXXXXXXXXXXvIIIIIII=XXXXXXCIIIIIL&XXXXXXXHIIIIIIZXXXXXXXXXXXXXXXXXXXXXXXXXXX fI",
"If XXXXXXXXXXXXXXXXXXXXXXXXXXXXXvIIIIIII=XXXXXXiIIIIIIdXXXXXXXHIIIIIIZXXXXXXXXXXXXXXXXXXXXXXXXXXX fI",
"If XXXXXXXXXXXXXXXXXXXXXXXXXXXXXvIIIIIII=XXXXXX+HIIIIISXXXXXXXHIIIIIIZXXXXXXXXXXXXXXXXXXXXXXXXXXX fI",
"If XXXXXXXXXXXXXXXXXXXXXXXXXXXXXvIIIIIII=XXXXXXXzIIIIII8XXXXXXHIIIIIIZXXXXXXXXXXXXXXXXXXXXXXXXXXX fI",
"If XXXXXXXXXXXXXXXXXXXXXXXXXXXXXvIIIIIII=XXXXXXX1IIIIIIbXXXXXXHIIIIIIZXXXXXXXXXXXXXXXXXXXXXXXXXXX fI",
"If XXXXXXXXXXXXXXXXXXXXXXXXXXXXXvIIIIIII=XXXXXXXXVIIIIIL*XXXXXHIIIIIIZXXXXXXXXXXXXXXXXXXXXXXXXXXX fI",
"If XXXXXXXXXXXXXXXXXXXXXXXXXXXXXvIIIIIII=XXXXXXXXrIIIIIIgXXXXXHIIIIIIZXXXXXXXXXXXXXXXXXXXXXXXXXXX fI",
"If XXXXXXXXXXXXXXXXXXXXXXXXXXXXXvIIIIIII=XXXXXXXXoFIIIIIDXXXXXHIIIIIIZXXXXXXXXXXXXXXXXXXXXXXXXXXX fI",
"If XXXXXXXXXXXXXXXXXXXXXXXXXXXXXvIIIIIII=XXXXXXXXXkIIIIII0XXXXHIIIIIIZXXXXXXXXXXXXXXXXXXXXXXXXXXX fI",
"If XXXXXXXXXXXXXXXXXXXXXXXXXXXXXvIIIIIII=XXXXXXXXX,IIIIIInXXXXHIIIIIIZXXXXXXXXXXXXXXXXXXXXXXXXXXX fI",
"If XXXXXXXXXXXXXXXXXXXXXXXXXXXXXvIIIIIII=XXXXXXXXXXNIIIIIL-XXXHIIIIIIZXXXXXXXXXXXXXXXXXXXXXXXXXXX fI",
"If XXXXXXXXXXXXXXXXXXXXXXXXXXXXXvIIIIIII=XXXXXXXXXXqIIIIIIhXXXHIIIIIIZXXXXXXXXXXXXXXXXXXXXXXXXXXX fI",
"If XXXXXXXXXXXXXXXXXXXXXXXXXXXXXvIIIIIII=XXXXXXXXXXXDIIIIIDXXXHIIIIIIZXXXXXXXXXXXXXXXXXXXXXXXXXXX fI",
"If XXXXXXXXXXXXXXXXXXXXXXXXXXXXXvIIIIIII=XXXXXXXXXXXhIIIIIIqXXHIIIIIIZXXXXXXXXXXXXXXXXXXXXXXXXXXX fI",
"If XXXXXXXXXXXXXXXXXXXXXXXXXXXXXvIIIIIII=XXXXXXXXXXX-LIIIIIMXXHIIIIIIZXXXXXXXXXXXXXXXXXXXXXXXXXXX fI",
"If XXXXXXXXXXXXXXXXXXXXXXXXXXXXXvIIIIIII=XXXXXXXXXXXXnIIIIII:XHIIIIIIZXXXXXXXXXXXXXXXXXXXXXXXXXXX fI",
"If XXXXXXXXXXXXXXXXXXXXXXXXXXXXXvIIIIIII=XXXXXXXXXXXX9IIIIIIjXHIIIIIIZXXXXXXXXXXXXXXXXXXXXXXXXXXX fI",
"If XXXXXXXXXXXXXXXXXXXXXXXXXXXXXvIIIIIII=XXXXXXXXXXXXXSIIIIIFXHIIIIIIZXXXXXXXXXXXXXXXXXXXXXXXXXXX fI",
"If XXXXXXXXXXXXXXXXXXXXXXXXXXXXXvIIIIIII=XXXXXXXXXXXXXdIIIIIIwHIIIIIIZXXXXXXXXXXXXXXXXXXXXXXXXXXX fI",
"If XXXXXXXXXXXXXXXXXXXXXXXXXXXXXvIIIIIII=XXXXXXXXXXXXX%LIIIIIBHIIIIIIZXXXXXXXXXXXXXXXXXXXXXXXXXXX fI",
"If XXXXXXXXXXXXXXXXXXXXXXXXXXXXXvIIIIIII=XXXXXXXXXXXXXXcIIIIIILIIIIIIZXXXXXXXXXXXXXXXXXXXXXXXXXXX fI",
"If XXXXXXXXXXXXXXXXXXXXXXXXXXXXXvIIIIIII=XXXXXXXXXXXXXX5IIIIIIIIIIIIIZXXXXXXXXXXXXXXXXXXXXXXXXXXX fI",
"If XXXXXXXXXXXXXXXXXXXXXXXXXXXXXvIIIIIII=XXXXXXXXXXXXXXXZIIIIIIIIIIIIZXXXXXXXXXXXXXXXXXXXXXXXXXXX fI",
"If XXXXXXXXXXXXXXXXXXXXXXXXXXXXXvIIIIIII=XXXXXXXXXXXXXXXaIIIIIIIIIIIIZXXXXXXXXXXXXXXXXXXXXXXXXXXX fI",
"If XXXXXXXXXXXXXXXXXXXXXXXXXXXXXvIIIIIII=XXXXXXXXXXXXXXX@JIIIIIIIIIIIZXXXXXXXXXXXXXXXXXXXXXXXXXXX fI",
"If XXXXXXXXXXXXXXXXXXXXXXXXXXXXXvIIIIIII=XXXXXXXXXXXXXXXXxIIIIIIIIIIIZXXXXXXXXXXXXXXXXXXXXXXXXXXX fI",
"If XXXXXXXXXXXXXXXXXXXXXXXXXXXXXvIIIIIII=XXXXXXXXXXXXXXXX2IIIIIIIIIIIZXXXXXXXXXXXXXXXXXXXXXXXXXXX fI",
"If XXXXXXXXXXXXXXXXXXXXXXXXXXXXXvIIIIIII=XXXXXXXXXXXXXXXXXVIIIIIIIIIIZXXXXXXXXXXXXXXXXXXXXXXXXXXX fI",
"If XXXXXXXXXXXXXXXXXXXXXXXXXXXXXvIIIIIII=XXXXXXXXXXXXXXXXXyIIIIIIIIIIZXXXXXXXXXXXXXXXXXXXXXXXXXXX fI",
"If XXXXXXXXXXXXXXXXXXXXXXXXXXXXXvIIIIIII=XXXXXXXXXXXXXXXXXOGIIIIIIIIIZXXXXXXXXXXXXXXXXXXXXXXXXXXX fI",
"If XXXXXXXXXXXXXXXXXXXXXXXXXXXXXvIIIIIII=XXXXXXXXXXXXXXXXXXlIIIIIIIIIZXXXXXXXXXXXXXXXXXXXXXXXXXXX fI",
"If XXXXXXXXXXXXXXXXXXXXXXXXXXXXXXXXXXXXXXXXXXXXXXXXXXXXXXXXXXXXXXXXXXXXXXXXXXXXXXXXXXXXXXXXXXXXXX fI",
"If XXXXXXXXXXXXXXXXXXXXXXXXXXXXXXXXXXXXXXXXXXXXXXXXXXXXXXXXXXXXXXXXXXXXXXXXXXXXXXXXXXXXXXXXXXXXXX fI",
"If XXXXXXXXXXXXXXXXXXXXXXXXXXXXXXXXXXXXXXXXXXXXXXXXXXXXXXXXXXXXXXXXXXXXXXXXXXXXXXXXXXXXXXXXXXXXXX fI",
"If XXXXXXXXXXXXXXXXXXXXXXXXXXXXXXXXXXXXXXXXXXXXXXXXXXXXXXXXXXXXXXXXXXXXXXXXXXXXXXXXXXXXXXXXXXXXXX fI",
"If XXXXXXXXXXXXXXXXXXXXXXXXXXXXXXXXXXXXXXXXXXXXXXXXXXXXXXXXXXXXXXXXXXXXXXXXXXXXXXXXXXXXXXXXXXXXXX fI",
"If XXXXXXXXXXXXXXXXXXXXXXXXXXXXXXXXXXXXXXXXXXXXXXXXXXXXXXXXXXXXXXXXXXXXXXXXXXXXXXXXXXXXXXXXXXXXXX fI",
"If XXXXXXXXXXXXXXXXXXXXXXXXXXXXXXXXXXXXXXXXXXXXXXXXXXXXXXXXXXXXXXXXXXXXXXXXXXXXXXXXXXXXXXXXXXXXXX fI",
"If XXXXXXXXXXXXXXXXXXXXXXXXXXXXXXXXXXXXXXXXXXXXXXXXXXXXXXXXXXXXXXXXXXXXXXXXXXXXXXXXXXXXXXXXXXXXXX fI",
"If XXXXXXXXXXXXXXXXXXXXXXXXXXXXXXXXXXXXXXXXXXXXXXXXXXXXXXXXXXXXXXXXXXXXXXXXXXXXXXXXXXXXXXXXXXXXXX fI",
"If XXXXXXXXXXXXXXXXXXXXXXXXXXXXXXXXXXXXXXXXXXXXXXXXXXXXXXXXXXXXXXXXXXXXXXXXXXXXXXXXXXXXXXXXXXXXXX fI",
"If XXXXXXXXXXXXXXXXXXXXXXXXXXXXXXXXXXXXXXXXXXXXXXXXXXXXXXXXXXXXXXXXXXXXXXXXXXXXXXXXXXXXXXXXXXXXXX fI",
"If XXXXXXXXXXXXXXXXXXXXXXXXXXXXXXXXXXXXXXXXXXXXXXXXXXXXXXXXXXXXXXXXXXXXXXXXXXXXXXXXXXXXXXXXXXXXXX fI",
"If XXXXXXXXXXXXXXXXXXXXXXXXXXXXXXXXXXXXXXXXXXXXXXXXXXXXXXXXXXXXXXXXXXXXXXXXXXXXXXXXXXXXXXXXXXXXXX fI",
"If XXXXXXXXXXXXXXXXXXXXXXXXXXXXXXXXXXXXXXXXXXXXXXXXXXXXXXXXXXXXXXXXXXXXXXXXXXXXXXXXXXXXXXXXXXXXXX fI",
"If XXXXXXXXXXXXXXXXXXXXXXXXXXXXXXXXXXXXXXXXXXXXXXXXXXXXXXXXXXXXXXXXXXXXXXXXXXXXXXXXXXXXXXXXXXXXXX fI",
"If XXXXXXXXXXXXXXXXXXXXXXXXXXXXXXXXXXXXXXXXXXXXXXXXXXXXXXXXXXXXXXXXXXXXXXXXXXXXXXXXXXXXXXXXXXXXXX fI",
"If XXXXXXXXXXXXXXXXXXXXXXXXXXXXXXXXXXXXXXXXXXXXXXXXXXXXXXXXXXXXXXXXXXXXXXXXXXXXXXXXXXXXXXXXXXXXXX fI",
"If.XXXXXXXXXXXXXXXXXXXXXXXXXXXXXXXXXXXXXXXXXXXXXXXXXXXXXXXXXXXXXXXXXXXXXXXXXXXXXXXXXXXXXXXXXXXXXX fI",
"If                                                                                                fI",
"IpffffffffffffffffffffffffffffffffffffffffffffffffffffffffffffffffffffffffffffffffffffffffffffffffpI",
"IIIIIIIIIIIIIIIIIIIIIIIIIIIIIIIIIIIIIIIIIIIIIIIIIIIIIIIIIIIIIIIIIIIIIIIIIIIIIIIIIIIIIIIIIIIIIIIIIIII"
};
