/* XPM */
static char *n2[] = {
/* columns rows colors chars-per-pixel */
"100 100 69 1 ",
"  c #686868",
". c #7C7C7C",
"X c #C3AF2A",
"o c #C3AF2E",
"O c #C4B031",
"+ c #C4B034",
"@ c #C5B23F",
"# c #C5B242",
"$ c #C6B344",
"% c #C6B348",
"& c #C6B44A",
"* c #C7B54E",
"= c #C8B757",
"- c #C9B759",
"; c #C9B85C",
": c #CABA64",
"> c #CCBB69",
", c #CDBD6E",
"< c #CDBE72",
"1 c #CEBF76",
"2 c #CFC079",
"3 c #D0C17B",
"4 c #D0C17E",
"5 c #AFAFAF",
"6 c gray70",
"7 c #D1C382",
"8 c #D2C485",
"9 c #D3C588",
"0 c #D4C78E",
"q c #D6C993",
"w c #D6CA94",
"e c #D7CC99",
"r c #D8CC9A",
"t c #D9CE9E",
"y c #DAD0A3",
"u c #DBD0A4",
"i c #DCD2A7",
"p c #DED4AC",
"a c #DFD5B0",
"s c #E0D7B4",
"d c #E0D8B5",
"f c #E2DAB9",
"g c #E3DBBC",
"h c #E4DCBE",
"j c #E5DDC0",
"k c #E6DFC4",
"l c #E7E0C6",
"z c #E7E1C8",
"x c #E9E2CB",
"c c #E9E3CD",
"v c #EAE4CF",
"b c #EBE5D1",
"n c #ECE6D2",
"m c #EDE8D6",
"M c #EEEAD9",
"N c #F0EBDC",
"B c #F0ECDD",
"V c #F2EFE2",
"C c #F3F0E4",
"Z c #F4F1E6",
"A c #F5F3E9",
"S c #F7F5EE",
"D c #F8F6EF",
"F c #F9F7F1",
"G c #F9F8F2",
"H c #FBFAF6",
"J c #FCFBF9",
"K c #FDFDFB",
"L c white",
/* pixels */
"LLLLLLLLLLLLLLLLLLLLLLLLLLLLLLLLLLLLLLLLLLLLLLLLLLLLLLLLLLLLLLLLLLLLLLLLLLLLLLLLLLLLLLLLLLLLLLLLLLLL",
"L56666666666666666666666666666666666666666666666666666666666666666666666666666666666666666666666665L",
"L6                                                                                                6L",
"L6 XXXXXXXXXXXXXXXXXXXXXXXXXXXXXXXXXXXXXXXXXXXXXXXXXXXXXXXXXXXXXXXXXXXXXXXXXXXXXXXXXXXXXXXXXXXXXX 6L",
"L6 XXXXXXXXXXXXXXXXXXXXXXXXXXXXXXXXXXXXXXXXXXXXXXXXXXXXXXXXXXXXXXXXXXXXXXXXXXXXXXXXXXXXXXXXXXXXXX 6L",
"L6 XXXXXXXXXXXXXXXXXXXXXXXXXXXXXXXXXXXXXXXXXXXXXXXXXXXXXXXXXXXXXXXXXXXXXXXXXXXXXXXXXXXXXXXXXXXXXX 6L",
"L6 XXXXXXXXXXXXXXXXXXXXXXXXXXXXXXXXXXXXXXXXXXXXXXXXXXXXXXXXXXXXXXXXXXXXXXXXXXXXXXXXXXXXXXXXXXXXXX 6L",
"L6 XXXXXXXXXXXXXXXXXXXXXXXXXXXXXXXXXXXXXXXXXXXXXXXXXXXXXXXXXXXXXXXXXXXXXXXXXXXXXXXXXXXXXXXXXXXXXX 6L",
"L6 XXXXXXXXXXXXXXXXXXXXXXXXXXXXXXXXXXXXXXXXXXXXXXXXXXXXXXXXXXXXXXXXXXXXXXXXXXXXXXXXXXXXXXXXXXXXXX 6L",
"L6 XXXXXXXXXXXXXXXXXXXXXXXXXXXXXXXXXXXXXXXXXXXXXXXXXXXXXXXXXXXXXXXXXXXXXXXXXXXXXXXXXXXXXXXXXXXXXX 6L",
"L6 XXXXXXXXXXXXXXXXXXXXXXXXXXXXXXXXXXXXXXXXXXXXXXXXXXXXXXXXXXXXXXXXXXXXXXXXXXXXXXXXXXXXXXXXXXXXXX 6L",
"L6 XXXXXXXXXXXXXXXXXXXXXXXXXXXXXXXXXXXXXXXXXXXXXXXXXXXXXXXXXXXXXXXXXXXXXXXXXXXXXXXXXXXXXXXXXXXXXX 6L",
"L6 XXXXXXXXXXXXXXXXXXXXXXXXXXXXXXXXXXXXXXXXXXXXXXXXXXXXXXXXXXXXXXXXXXXXXXXXXXXXXXXXXXXXXXXXXXXXXX 6L",
"L6 XXXXXXXXXXXXXXXXXXXXXXXXXXXXXXXXXXXXXXXXXXXXXXXXXXXXXXXXXXXXXXXXXXXXXXXXXXXXXXXXXXXXXXXXXXXXXX 6L",
"L6 XXXXXXXXXXXXXXXXXXXXXXXXXXXXXXXXXXXXXXXXXXXXXXXXXXXXXXXXXXXXXXXXXXXXXXXXXXXXXXXXXXXXXXXXXXXXXX 6L",
"L6 XXXXXXXXXXXXXXXXXXXXXXXXXXXXXXXXXXXXXXXXXXXXXXXXXXXXXXXXXXXXXXXXXXXXXXXXXXXXXXXXXXXXXXXXXXXXXX 6L",
"L6 XXXXXXXXXXXXXXXXXXXXXXXXXXXXXXXXXXXXXXXXXXXXXXXXXXXXXXXXXXXXXXXXXXXXXXXXXXXXXXXXXXXXXXXXXXXXXX 6L",
"L6 XXXXXXXXXXXXXXXXXXXXXXXXXXXXXXXXXXXXXXXXXXXXXXXXXXXXXXXXXXXXXXXXXXXXXXXXXXXXXXXXXXXXXXXXXXXXXX 6L",
"L6 XXXXXXXXXXXXXXXXXXXXXXXXXXXXXXXXXXXXXXXXXXXXXXXXXXXXXXXXXXXXXXXXXXXXXXXXXXXXXXXXXXXXXXXXXXXXXX 6L",
"L6 XXXXXXXXXXXXXXXXXXXXXXXXXXXXXXXXXXXXXXXXXXXXXXXXXXXXXXXXXXXXXXXXXXXXXXXXXXXXXXXXXXXXXXXXXXXXXX 6L",
"L6 XXXXXXXXXXXXXXXXXXXXXXXXXXXXXzLLLLLLLLLnXXXXXXXXXXXXXXXXXXXFLLLLLLVXXXXXXXXXXXXXXXXXXXXXXXXXXX 6L",
"L6 XXXXXXXXXXXXXXXXXXXXXXXXXXXXXzLLLLLLLLLL=XXXXXXXXXXXXXXXXXXFLLLLLLVXXXXXXXXXXXXXXXXXXXXXXXXXXX 6L",
"L6 XXXXXXXXXXXXXXXXXXXXXXXXXXXXXzLLLLLLLLLLdXXXXXXXXXXXXXXXXXXFLLLLLLVXXXXXXXXXXXXXXXXXXXXXXXXXXX 6L",
"L6 XXXXXXXXXXXXXXXXXXXXXXXXXXXXXzLLLLLLLLLLSXXXXXXXXXXXXXXXXXXFLLLLLLVXXXXXXXXXXXXXXXXXXXXXXXXXXX 6L",
"L6 XXXXXXXXXXXXXXXXXXXXXXXXXXXXXzLLLLLLLLLLL0XXXXXXXXXXXXXXXXXFLLLLLLVXXXXXXXXXXXXXXXXXXXXXXXXXXX 6L",
"L6 XXXXXXXXXXXXXXXXXXXXXXXXXXXXXzLLLLLLLLLLLmXXXXXXXXXXXXXXXXXFLLLLLLVXXXXXXXXXXXXXXXXXXXXXXXXXXX 6L",
"L6 XXXXXXXXXXXXXXXXXXXXXXXXXXXXXzLLLLLLLLLLLL;XXXXXXXXXXXXXXXXFLLLLLLVXXXXXXXXXXXXXXXXXXXXXXXXXXX 6L",
"L6 XXXXXXXXXXXXXXXXXXXXXXXXXXXXXzLLLLLLLLLLLLfXXXXXXXXXXXXXXXXFLLLLLLVXXXXXXXXXXXXXXXXXXXXXXXXXXX 6L",
"L6 XXXXXXXXXXXXXXXXXXXXXXXXXXXXXzLLLLLLLLLLLLFoXXXXXXXXXXXXXXXFLLLLLLVXXXXXXXXXXXXXXXXXXXXXXXXXXX 6L",
"L6 XXXXXXXXXXXXXXXXXXXXXXXXXXXXXzLLLLLLLLLLLLLwXXXXXXXXXXXXXXXFLLLLLLVXXXXXXXXXXXXXXXXXXXXXXXXXXX 6L",
"L6 XXXXXXXXXXXXXXXXXXXXXXXXXXXXXzLLLLLLLLLLLLLMXXXXXXXXXXXXXXXFLLLLLLVXXXXXXXXXXXXXXXXXXXXXXXXXXX 6L",
"L6 XXXXXXXXXXXXXXXXXXXXXXXXXXXXXzLLLLLLLBLLLLLL:XXXXXXXXXXXXXXFLLLLLLVXXXXXXXXXXXXXXXXXXXXXXXXXXX 6L",
"L6 XXXXXXXXXXXXXXXXXXXXXXXXXXXXXzLLLLLLLrLLLLLLgXXXXXXXXXXXXXXFLLLLLLVXXXXXXXXXXXXXXXXXXXXXXXXXXX 6L",
"L6 XXXXXXXXXXXXXXXXXXXXXXXXXXXXXzLLLLLLL&SLLLLLG+XXXXXXXXXXXXXFLLLLLLVXXXXXXXXXXXXXXXXXXXXXXXXXXX 6L",
"L6 XXXXXXXXXXXXXXXXXXXXXXXXXXXXXzLLLLLLL&sLLLLLLeXXXXXXXXXXXXXFLLLLLLVXXXXXXXXXXXXXXXXXXXXXXXXXXX 6L",
"L6 XXXXXXXXXXXXXXXXXXXXXXXXXXXXXzLLLLLLL&=KLLLLLNXXXXXXXXXXXXXFLLLLLLVXXXXXXXXXXXXXXXXXXXXXXXXXXX 6L",
"L6 XXXXXXXXXXXXXXXXXXXXXXXXXXXXXzLLLLLLL&XbLLLLLL>XXXXXXXXXXXXFLLLLLLVXXXXXXXXXXXXXXXXXXXXXXXXXXX 6L",
"L6 XXXXXXXXXXXXXXXXXXXXXXXXXXXXXzLLLLLLL&X8LLLLLLjXXXXXXXXXXXXFLLLLLLVXXXXXXXXXXXXXXXXXXXXXXXXXXX 6L",
"L6 XXXXXXXXXXXXXXXXXXXXXXXXXXXXXzLLLLLLL&XXALLLLLH+XXXXXXXXXXXFLLLLLLVXXXXXXXXXXXXXXXXXXXXXXXXXXX 6L",
"L6 XXXXXXXXXXXXXXXXXXXXXXXXXXXXXzLLLLLLL&XXpLLLLLLtXXXXXXXXXXXFLLLLLLVXXXXXXXXXXXXXXXXXXXXXXXXXXX 6L",
"L6 XXXXXXXXXXXXXXXXXXXXXXXXXXXXXzLLLLLLL&XX%JLLLLLBXXXXXXXXXXXFLLLLLLVXXXXXXXXXXXXXXXXXXXXXXXXXXX 6L",
"L6 XXXXXXXXXXXXXXXXXXXXXXXXXXXXXzLLLLLLL&XXXxLLLLLL,XXXXXXXXXXFLLLLLLVXXXXXXXXXXXXXXXXXXXXXXXXXXX 6L",
"L6 XXXXXXXXXXXXXXXXXXXXXXXXXXXXXzLLLLLLL&XXX2LLLLLLkXXXXXXXXXXFLLLLLLVXXXXXXXXXXXXXXXXXXXXXXXXXXX 6L",
"L6 XXXXXXXXXXXXXXXXXXXXXXXXXXXXXzLLLLLLL&XXXXCLLLLLH@XXXXXXXXXFLLLLLLVXXXXXXXXXXXXXXXXXXXXXXXXXXX 6L",
"L6 XXXXXXXXXXXXXXXXXXXXXXXXXXXXXzLLLLLLL&XXXXuLLLLLLyXXXXXXXXXFLLLLLLVXXXXXXXXXXXXXXXXXXXXXXXXXXX 6L",
"L6 XXXXXXXXXXXXXXXXXXXXXXXXXXXXXzLLLLLLL&XXXX@HLLLLLVXXXXXXXXXFLLLLLLVXXXXXXXXXXXXXXXXXXXXXXXXXXX 6L",
"L6 XXXXXXXXXXXXXXXXXXXXXXXXXXXXXzLLLLLLL&XXXXXkLLLLLL1XXXXXXXXFLLLLLLVXXXXXXXXXXXXXXXXXXXXXXXXXXX 6L",
"L6 XXXXXXXXXXXXXXXXXXXXXXXXXXXXXzLLLLLLL&XXXXX,LLLLLLzXXXXXXXXFLLLLLLVXXXXXXXXXXXXXXXXXXXXXXXXXXX 6L",
"L6 XXXXXXXXXXXXXXXXXXXXXXXXXXXXXzLLLLLLL&XXXXXXBLLLLLJ$XXXXXXXFLLLLLLVXXXXXXXXXXXXXXXXXXXXXXXXXXX 6L",
"L6 XXXXXXXXXXXXXXXXXXXXXXXXXXXXXzLLLLLLL&XXXXXXtLLLLLLiXXXXXXXFLLLLLLVXXXXXXXXXXXXXXXXXXXXXXXXXXX 6L",
"L6 XXXXXXXXXXXXXXXXXXXXXXXXXXXXXzLLLLLLL&XXXXXX+GLLLLLCXXXXXXXFLLLLLLVXXXXXXXXXXXXXXXXXXXXXXXXXXX 6L",
"L6 XXXXXXXXXXXXXXXXXXXXXXXXXXXXXzLLLLLLL&XXXXXXXhLLLLLL3XXXXXXFLLLLLLVXXXXXXXXXXXXXXXXXXXXXXXXXXX 6L",
"L6 XXXXXXXXXXXXXXXXXXXXXXXXXXXXXzLLLLLLL&XXXXXXX:LLLLLLxXXXXXXFLLLLLLVXXXXXXXXXXXXXXXXXXXXXXXXXXX 6L",
"L6 XXXXXXXXXXXXXXXXXXXXXXXXXXXXXzLLLLLLL&XXXXXXXXMLLLLLJ%XXXXXFLLLLLLVXXXXXXXXXXXXXXXXXXXXXXXXXXX 6L",
"L6 XXXXXXXXXXXXXXXXXXXXXXXXXXXXXzLLLLLLL&XXXXXXXXqLLLLLLpXXXXXFLLLLLLVXXXXXXXXXXXXXXXXXXXXXXXXXXX 6L",
"L6 XXXXXXXXXXXXXXXXXXXXXXXXXXXXXzLLLLLLL&XXXXXXXXoDLLLLLAXXXXXFLLLLLLVXXXXXXXXXXXXXXXXXXXXXXXXXXX 6L",
"L6 XXXXXXXXXXXXXXXXXXXXXXXXXXXXXzLLLLLLL&XXXXXXXXXdLLLLLL7XXXXFLLLLLLVXXXXXXXXXXXXXXXXXXXXXXXXXXX 6L",
"L6 XXXXXXXXXXXXXXXXXXXXXXXXXXXXXzLLLLLLL&XXXXXXXXX-LLLLLLvXXXXFLLLLLLVXXXXXXXXXXXXXXXXXXXXXXXXXXX 6L",
"L6 XXXXXXXXXXXXXXXXXXXXXXXXXXXXXzLLLLLLL&XXXXXXXXXXnLLLLLK*XXXFLLLLLLVXXXXXXXXXXXXXXXXXXXXXXXXXXX 6L",
"L6 XXXXXXXXXXXXXXXXXXXXXXXXXXXXXzLLLLLLL&XXXXXXXXXX9LLLLLLaXXXFLLLLLLVXXXXXXXXXXXXXXXXXXXXXXXXXXX 6L",
"L6 XXXXXXXXXXXXXXXXXXXXXXXXXXXXXzLLLLLLL&XXXXXXXXXXXALLLLLAXXXFLLLLLLVXXXXXXXXXXXXXXXXXXXXXXXXXXX 6L",
"L6 XXXXXXXXXXXXXXXXXXXXXXXXXXXXXzLLLLLLL&XXXXXXXXXXXpLLLLLL9XXFLLLLLLVXXXXXXXXXXXXXXXXXXXXXXXXXXX 6L",
"L6 XXXXXXXXXXXXXXXXXXXXXXXXXXXXXzLLLLLLL&XXXXXXXXXXX*KLLLLLbXXFLLLLLLVXXXXXXXXXXXXXXXXXXXXXXXXXXX 6L",
"L6 XXXXXXXXXXXXXXXXXXXXXXXXXXXXXzLLLLLLL&XXXXXXXXXXXXcLLLLLL=XFLLLLLLVXXXXXXXXXXXXXXXXXXXXXXXXXXX 6L",
"L6 XXXXXXXXXXXXXXXXXXXXXXXXXXXXXzLLLLLLL&XXXXXXXXXXXX4LLLLLLsXFLLLLLLVXXXXXXXXXXXXXXXXXXXXXXXXXXX 6L",
"L6 XXXXXXXXXXXXXXXXXXXXXXXXXXXXXzLLLLLLL&XXXXXXXXXXXXXZLLLLLSXFLLLLLLVXXXXXXXXXXXXXXXXXXXXXXXXXXX 6L",
"L6 XXXXXXXXXXXXXXXXXXXXXXXXXXXXXzLLLLLLL&XXXXXXXXXXXXXiLLLLLL0FLLLLLLVXXXXXXXXXXXXXXXXXXXXXXXXXXX 6L",
"L6 XXXXXXXXXXXXXXXXXXXXXXXXXXXXXzLLLLLLL&XXXXXXXXXXXXX#JLLLLLmFLLLLLLVXXXXXXXXXXXXXXXXXXXXXXXXXXX 6L",
"L6 XXXXXXXXXXXXXXXXXXXXXXXXXXXXXzLLLLLLL&XXXXXXXXXXXXXXlLLLLLLJLLLLLLVXXXXXXXXXXXXXXXXXXXXXXXXXXX 6L",
"L6 XXXXXXXXXXXXXXXXXXXXXXXXXXXXXzLLLLLLL&XXXXXXXXXXXXXX<LLLLLLLLLLLLLVXXXXXXXXXXXXXXXXXXXXXXXXXXX 6L",
"L6 XXXXXXXXXXXXXXXXXXXXXXXXXXXXXzLLLLLLL&XXXXXXXXXXXXXXXVLLLLLLLLLLLLVXXXXXXXXXXXXXXXXXXXXXXXXXXX 6L",
"L6 XXXXXXXXXXXXXXXXXXXXXXXXXXXXXzLLLLLLL&XXXXXXXXXXXXXXXtLLLLLLLLLLLLVXXXXXXXXXXXXXXXXXXXXXXXXXXX 6L",
"L6 XXXXXXXXXXXXXXXXXXXXXXXXXXXXXzLLLLLLL&XXXXXXXXXXXXXXX+HLLLLLLLLLLLVXXXXXXXXXXXXXXXXXXXXXXXXXXX 6L",
"L6 XXXXXXXXXXXXXXXXXXXXXXXXXXXXXzLLLLLLL&XXXXXXXXXXXXXXXXjLLLLLLLLLLLVXXXXXXXXXXXXXXXXXXXXXXXXXXX 6L",
"L6 XXXXXXXXXXXXXXXXXXXXXXXXXXXXXzLLLLLLL&XXXXXXXXXXXXXXXX:LLLLLLLLLLLVXXXXXXXXXXXXXXXXXXXXXXXXXXX 6L",
"L6 XXXXXXXXXXXXXXXXXXXXXXXXXXXXXzLLLLLLL&XXXXXXXXXXXXXXXXXMLLLLLLLLLLVXXXXXXXXXXXXXXXXXXXXXXXXXXX 6L",
"L6 XXXXXXXXXXXXXXXXXXXXXXXXXXXXXzLLLLLLL&XXXXXXXXXXXXXXXXXwLLLLLLLLLLVXXXXXXXXXXXXXXXXXXXXXXXXXXX 6L",
"L6 XXXXXXXXXXXXXXXXXXXXXXXXXXXXXzLLLLLLL&XXXXXXXXXXXXXXXXXOFLLLLLLLLLVXXXXXXXXXXXXXXXXXXXXXXXXXXX 6L",
"L6 XXXXXXXXXXXXXXXXXXXXXXXXXXXXXzLLLLLLL&XXXXXXXXXXXXXXXXXXfLLLLLLLLLVXXXXXXXXXXXXXXXXXXXXXXXXXXX 6L",
"L6 XXXXXXXXXXXXXXXXXXXXXXXXXXXXXXXXXXXXXXXXXXXXXXXXXXXXXXXXXXXXXXXXXXXXXXXXXXXXXXXXXXXXXXXXXXXXXX 6L",
"L6 XXXXXXXXXXXXXXXXXXXXXXXXXXXXXXXXXXXXXXXXXXXXXXXXXXXXXXXXXXXXXXXXXXXXXXXXXXXXXXXXXXXXXXXXXXXXXX 6L",
"L6 XXXXXXXXXXXXXXXXXXXXXXXXXXXXXXXXXXXXXXXXXXXXXXXXXXXXXXXXXXXXXXXXXXXXXXXXXXXXXXXXXXXXXXXXXXXXXX 6L",
"L6 XXXXXXXXXXXXXXXXXXXXXXXXXXXXXXXXXXXXXXXXXXXXXXXXXXXXXXXXXXXXXXXXXXXXXXXXXXXXXXXXXXXXXXXXXXXXXX 6L",
"L6 XXXXXXXXXXXXXXXXXXXXXXXXXXXXXXXXXXXXXXXXXXXXXXXXXXXXXXXXXXXXXXXXXXXXXXXXXXXXXXXXXXXXXXXXXXXXXX 6L",
"L6 XXXXXXXXXXXXXXXXXXXXXXXXXXXXXXXXXXXXXXXXXXXXXXXXXXXXXXXXXXXXXXXXXXXXXXXXXXXXXXXXXXXXXXXXXXXXXX 6L",
"L6 XXXXXXXXXXXXXXXXXXXXXXXXXXXXXXXXXXXXXXXXXXXXXXXXXXXXXXXXXXXXXXXXXXXXXXXXXXXXXXXXXXXXXXXXXXXXXX 6L",
"L6 XXXXXXXXXXXXXXXXXXXXXXXXXXXXXXXXXXXXXXXXXXXXXXXXXXXXXXXXXXXXXXXXXXXXXXXXXXXXXXXXXXXXXXXXXXXXXX 6L",
"L6 XXXXXXXXXXXXXXXXXXXXXXXXXXXXXXXXXXXXXXXXXXXXXXXXXXXXXXXXXXXXXXXXXXXXXXXXXXXXXXXXXXXXXXXXXXXXXX 6L",
"L6 XXXXXXXXXXXXXXXXXXXXXXXXXXXXXXXXXXXXXXXXXXXXXXXXXXXXXXXXXXXXXXXXXXXXXXXXXXXXXXXXXXXXXXXXXXXXXX 6L",
"L6 XXXXXXXXXXXXXXXXXXXXXXXXXXXXXXXXXXXXXXXXXXXXXXXXXXXXXXXXXXXXXXXXXXXXXXXXXXXXXXXXXXXXXXXXXXXXXX 6L",
"L6 XXXXXXXXXXXXXXXXXXXXXXXXXXXXXXXXXXXXXXXXXXXXXXXXXXXXXXXXXXXXXXXXXXXXXXXXXXXXXXXXXXXXXXXXXXXXXX 6L",
"L6 XXXXXXXXXXXXXXXXXXXXXXXXXXXXXXXXXXXXXXXXXXXXXXXXXXXXXXXXXXXXXXXXXXXXXXXXXXXXXXXXXXXXXXXXXXXXXX 6L",
"L6 XXXXXXXXXXXXXXXXXXXXXXXXXXXXXXXXXXXXXXXXXXXXXXXXXXXXXXXXXXXXXXXXXXXXXXXXXXXXXXXXXXXXXXXXXXXXXX 6L",
"L6 XXXXXXXXXXXXXXXXXXXXXXXXXXXXXXXXXXXXXXXXXXXXXXXXXXXXXXXXXXXXXXXXXXXXXXXXXXXXXXXXXXXXXXXXXXXXXX 6L",
"L6 XXXXXXXXXXXXXXXXXXXXXXXXXXXXXXXXXXXXXXXXXXXXXXXXXXXXXXXXXXXXXXXXXXXXXXXXXXXXXXXXXXXXXXXXXXXXXX 6L",
"L6 XXXXXXXXXXXXXXXXXXXXXXXXXXXXXXXXXXXXXXXXXXXXXXXXXXXXXXXXXXXXXXXXXXXXXXXXXXXXXXXXXXXXXXXXXXXXXX 6L",
"L6.XXXXXXXXXXXXXXXXXXXXXXXXXXXXXXXXXXXXXXXXXXXXXXXXXXXXXXXXXXXXXXXXXXXXXXXXXXXXXXXXXXXXXXXXXXXXXX 6L",
"L6                                                                                                6L",
"L56666666666666666666666666666666666666666666666666666666666666666666666666666666666666666666666665L",
"LLLLLLLLLLLLLLLLLLLLLLLLLLLLLLLLLLLLLLLLLLLLLLLLLLLLLLLLLLLLLLLLLLLLLLLLLLLLLLLLLLLLLLLLLLLLLLLLLLLL"
};
