/* XPM */
static char *n3[] = {
/* columns rows colors chars-per-pixel */
"100 100 37 1 ",
"  c #686868",
". c #727272",
"X c gray46",
"o c #797979",
"O c #7E7E7E",
"+ c gray51",
"@ c #868686",
"# c #8B8B8B",
"$ c #8E8E8E",
"% c gray57",
"& c #959595",
"* c #989898",
"= c #9F9F9F",
"- c gray63",
"; c gray65",
": c #AAAAAA",
"> c #AFAFAF",
", c gray70",
"< c #B6B6B6",
"1 c gray72",
"2 c #BCBCBC",
"3 c gray76",
"4 c #C5C5C5",
"5 c #C8C8C8",
"6 c #CECECE",
"7 c gray82",
"8 c gray83",
"9 c #DADADA",
"0 c #DFDFDF",
"q c gray89",
"w c #E7E7E7",
"e c gray91",
"r c gray93",
"t c #F3F3F3",
"y c #F4F4F4",
"u c #F8F8F8",
"i c white",
/* pixels */
"iiiiiiiiiiiiiiiiiiiiiiiiiiiiiiiiiiiiiiiiiiiiiiiiiiiiiiiiiiiiiiiiiiiiiiiiiiiiiiiiiiiiiiiiiiiiiiiiiiii",
"i>,,,,,,,,,,,,,,,,,,,,,,,,,,,,,,,,,,,,,,,,,,,,,,,,,,,,,,,,,,,,,,,,,,,,,,,,,,,,,,,,,,,,,,,,,,,,,,,,>i",
"i,                                                                                                ,i",
"i, .............................................................................................. ,i",
"i, .............................................................................................. ,i",
"i, .............................................................................................. ,i",
"i, .............................................................................................. ,i",
"i, .............................................................................................. ,i",
"i, .............................................................................................. ,i",
"i, .............................................................................................. ,i",
"i, .............................................................................................. ,i",
"i, .............................................................................................. ,i",
"i, .............................................................................................. ,i",
"i, .............................................................................................. ,i",
"i, .............................................................................................. ,i",
"i, .............................................................................................. ,i",
"i, .............................................................................................. ,i",
"i, .............................................................................................. ,i",
"i, .............................................................................................. ,i",
"i, .............................................................................................. ,i",
"i, .............................7iiiiiiiii9...................tiiiiiiw........................... ,i",
"i, .............................7iiiiiiiiii@..................tiiiiiiw........................... ,i",
"i, .............................7iiiiiiiiii3..................tiiiiiiw........................... ,i",
"i, .............................7iiiiiiiiiit..................tiiiiiiw........................... ,i",
"i, .............................7iiiiiiiiiii;.................tiiiiiiw........................... ,i",
"i, .............................7iiiiiiiiiii0.................tiiiiiiw........................... ,i",
"i, .............................7iiiiiiiiiiii@................tiiiiiiw........................... ,i",
"i, .............................7iiiiiiiiiiii4................tiiiiiiw........................... ,i",
"i, .............................7iiiiiiiiiiiit................tiiiiiiw........................... ,i",
"i, .............................7iiiiiiiiiiiii:...............tiiiiiiw........................... ,i",
"i, .............................7iiiiiiiiiiiii0...............tiiiiiiw........................... ,i",
"i, .............................7iiiiiiiqiiiiii#..............tiiiiiiw........................... ,i",
"i, .............................7iiiiiii>iiiiii5..............tiiiiiiw........................... ,i",
"i, .............................7iiiiiiiOtiiiiiyX.............tiiiiiiw........................... ,i",
"i, .............................7iiiiiiiO3iiiiii>.............tiiiiiiw........................... ,i",
"i, .............................7iiiiiiiO+iiiiiiq.............tiiiiiiw........................... ,i",
"i, .............................7iiiiiiiO.9iiiiii$............tiiiiiiw........................... ,i",
"i, .............................7iiiiiiiO.=iiiiii5............tiiiiiiw........................... ,i",
"i, .............................7iiiiiiiO..riiiiiyX...........tiiiiiiw........................... ,i",
"i, .............................7iiiiiiiO..2iiiiii,...........tiiiiiiw........................... ,i",
"i, .............................7iiiiiiiO..Ouiiiiiw...........tiiiiiiw........................... ,i",
"i, .............................7iiiiiiiO...7iiiiii%..........tiiiiiiw........................... ,i",
"i, .............................7iiiiiiiO...*iiiiii6..........tiiiiiiw........................... ,i",
"i, .............................7iiiiiiiO....eiiiiiyo.........tiiiiiiw........................... ,i",
"i, .............................7iiiiiiiO....<iiiiii<.........tiiiiiiw........................... ,i",
"i, .............................7iiiiiiiO....ouiiiiiw.........tiiiiiiw........................... ,i",
"i, .............................7iiiiiiiO.....6iiiiii&........tiiiiiiw........................... ,i",
"i, .............................7iiiiiiiO.....%iiiiii7........tiiiiiiw........................... ,i",
"i, .............................7iiiiiiiO......qiiiiiuo.......tiiiiiiw........................... ,i",
"i, .............................7iiiiiiiO......,iiiiii1.......tiiiiiiw........................... ,i",
"i, .............................7iiiiiiiO......Xyiiiiie.......tiiiiiiw........................... ,i",
"i, .............................7iiiiiiiO.......5iiiiii*......tiiiiiiw........................... ,i",
"i, .............................7iiiiiiiO.......#iiiiii8......tiiiiiiw........................... ,i",
"i, .............................7iiiiiiiO........0iiiiiuO.....tiiiiiiw........................... ,i",
"i, .............................7iiiiiiiO........:iiiiii1.....tiiiiiiw........................... ,i",
"i, .............................7iiiiiiiO.........tiiiiie.....tiiiiiiw........................... ,i",
"i, .............................7iiiiiiiO.........4iiiiii=....tiiiiiiw........................... ,i",
"i, .............................7iiiiiiiO.........@iiiiii8....tiiiiiiw........................... ,i",
"i, .............................7iiiiiiiO..........9iiiiiuO...tiiiiiiw........................... ,i",
"i, .............................7iiiiiiiO..........-iiiiii2...tiiiiiiw........................... ,i",
"i, .............................7iiiiiiiO...........riiiiir...tiiiiiiw........................... ,i",
"i, .............................7iiiiiiiO...........2iiiiii-..tiiiiiiw........................... ,i",
"i, .............................7iiiiiiiO...........Ouiiiii9..tiiiiiiw........................... ,i",
"i, .............................7iiiiiiiO............8iiiiii+.tiiiiiiw........................... ,i",
"i, .............................7iiiiiiiO............*iiiiii3.tiiiiiiw........................... ,i",
"i, .............................7iiiiiiiO.............eiiiiit.tiiiiiiw........................... ,i",
"i, .............................7iiiiiiiO.............1iiiiii;tiiiiiiw........................... ,i",
"i, .............................7iiiiiiiO.............ouiiiii0tiiiiiiw........................... ,i",
"i, .............................7iiiiiiiO..............7iiiiiiuiiiiiiw........................... ,i",
"i, .............................7iiiiiiiO..............%iiiiiiiiiiiiiw........................... ,i",
"i, .............................7iiiiiiiO...............wiiiiiiiiiiiiw........................... ,i",
"i, .............................7iiiiiiiO...............,iiiiiiiiiiiiw........................... ,i",
"i, .............................7iiiiiiiO...............Xyiiiiiiiiiiiw........................... ,i",
"i, .............................7iiiiiiiO................5iiiiiiiiiiiw........................... ,i",
"i, .............................7iiiiiiiO................$iiiiiiiiiiiw........................... ,i",
"i, .............................7iiiiiiiO.................qiiiiiiiiiiw........................... ,i",
"i, .............................7iiiiiiiO.................:iiiiiiiiiiw........................... ,i",
"i, .............................7iiiiiiiO.................Xtiiiiiiiiiw........................... ,i",
"i, .............................7iiiiiiiO..................4iiiiiiiiiw........................... ,i",
"i, .............................................................................................. ,i",
"i, .............................................................................................. ,i",
"i, .............................................................................................. ,i",
"i, .............................................................................................. ,i",
"i, .............................................................................................. ,i",
"i, .............................................................................................. ,i",
"i, .............................................................................................. ,i",
"i, .............................................................................................. ,i",
"i, .............................................................................................. ,i",
"i, .............................................................................................. ,i",
"i, .............................................................................................. ,i",
"i, .............................................................................................. ,i",
"i, .............................................................................................. ,i",
"i, .............................................................................................. ,i",
"i, .............................................................................................. ,i",
"i, .............................................................................................. ,i",
"i, .............................................................................................. ,i",
"i,O.............................................................................................. ,i",
"i,                                                                                                ,i",
"i>,,,,,,,,,,,,,,,,,,,,,,,,,,,,,,,,,,,,,,,,,,,,,,,,,,,,,,,,,,,,,,,,,,,,,,,,,,,,,,,,,,,,,,,,,,,,,,,,>i",
"iiiiiiiiiiiiiiiiiiiiiiiiiiiiiiiiiiiiiiiiiiiiiiiiiiiiiiiiiiiiiiiiiiiiiiiiiiiiiiiiiiiiiiiiiiiiiiiiiiii"
};
