/* XPM */
static char *o[] = {
/* columns rows colors chars-per-pixel */
"100 100 86 1 ",
"  c #2E0000",
". c #310D0D",
"X c #341616",
"o c #371C1C",
"O c #3A2222",
"+ c #3D2626",
"@ c #3F2A2A",
"# c #422E2E",
"$ c #443232",
"% c #463535",
"& c #483838",
"* c #4C3D3D",
"= c #4E4040",
"- c #504242",
"; c #574B4B",
": c #5B4F4F",
"> c #5C5151",
", c #615656",
"< c #625858",
"1 c #665D5D",
"2 c #685F5F",
"3 c #6C6363",
"4 c #6E6666",
"5 c #686868",
"6 c #706868",
"7 c #736C6C",
"8 c #766E6E",
"9 c #777070",
"0 c #7A7373",
"q c #7B7575",
"w c #7C7676",
"e c #7E7878",
"r c #7C7C7C",
"t c #817A7A",
"y c #837D7D",
"u c #857F7F",
"i c #868080",
"p c #888282",
"a c #8B8686",
"s c #8C8787",
"d c #8D8888",
"f c #938E8E",
"g c #959191",
"h c #9A9696",
"j c #9C9898",
"k c #A29E9E",
"l c #A4A0A0",
"z c #ABA7A7",
"x c #ABA8A8",
"c c #ADAAAA",
"v c #AFAFAF",
"b c #B1AEAE",
"n c gray70",
"m c #B5B2B2",
"M c #B8B6B6",
"N c #BBB9B9",
"B c #BCB9B9",
"V c #BFBDBD",
"C c #C1BEBE",
"Z c #C3C0C0",
"A c #C5C3C3",
"S c #C7C5C5",
"D c #C8C7C7",
"F c #CBC9C9",
"G c #CCCACA",
"H c #CECCCC",
"J c #D2D1D1",
"K c #D6D5D5",
"L c #D8D6D6",
"P c #DBDADA",
"I c #DCDBDB",
"U c #DFDEDE",
"Y c #E0DFDF",
"T c #E1E0E0",
"R c #E7E6E6",
"E c #E8E7E7",
"W c gray92",
"Q c #ECEBEB",
"! c #EFEEEE",
"~ c #F0EFEF",
"^ c #F3F2F2",
"/ c #F4F3F3",
"( c #F6F6F6",
") c gray98",
"_ c #FCFBFB",
"` c white",
/* pixels */
"````````````````````````````````````````````````````````````````````````````````````````````````````",
"`vnnnnnnnnnnnnnnnnnnnnnnnnnnnnnnnnnnnnnnnnnnnnnnnnnnnnnnnnnnnnnnnnnnnnnnnnnnnnnnnnnnnnnnnnnnnnnnnnv`",
"`n555555555555555555555555555555555555555555555555555555555555555555555555555555555555555555555555n`",
"`n5``````````````````````````````````````````````````````````````````````````````````````````````5n`",
"`n5``````````````````````````````````````````````````````````````````````````````````````````````5n`",
"`n5``````````````````````````````````````````````````````````````````````````````````````````````5n`",
"`n5``````````````````````````````````````````````````````````````````````````````````````````````5n`",
"`n5``````````````````````````````````````````````````````````````````````````````````````````````5n`",
"`n5``````````````````````````````````````````````````````````````````````````````````````````````5n`",
"`n5``````````````````````````````````````````````````````````````````````````````````````````````5n`",
"`n5``````````````````````````````````````````````````````````````````````````````````````````````5n`",
"`n5``````````````````````````````````````````````````````````````````````````````````````````````5n`",
"`n5``````````````````````````````````````````````````````````````````````````````````````````````5n`",
"`n5``````````````````````````````````````````````````````````````````````````````````````````````5n`",
"`n5``````````````````````````````````````````````````````````````````````````````````````````````5n`",
"`n5``````````````````````````````````````````````````````````````````````````````````````````````5n`",
"`n5``````````````````````````````````````````````````````````````````````````````````````````````5n`",
"`n5``````````````````````````````````````````````````````````````````````````````````````````````5n`",
"`n5``````````````````````````````````````````````````````````````````````````````````````````````5n`",
"`n5``````````````````````````````````````````TBj8:#+;6gmP)```````````````````````````````````````5n`",
"`n5```````````````````````````````````````^M:            $lR`````````````````````````````````````5n`",
"`n5``````````````````````````````````````V$                 l/```````````````````````````````````5n`",
"`n5````````````````````````````````````^y                    >T``````````````````````````````````5n`",
"`n5```````````````````````````````````!,                      OL`````````````````````````````````5n`",
"`n5``````````````````````````````````^2                        @U````````````````````````````````5n`",
"`n5``````````````````````````````````i         dDT!!RHhO        :/```````````````````````````````5n`",
"`n5`````````````````````````````````N        0R````````!g        f```````````````````````````````5n`",
"`n5````````````````````````````````!@       g)```````````n        L``````````````````````````````5n`",
"`n5````````````````````````````````j       w)`````````````k       7``````````````````````````````5n`",
"`n5```````````````````````````````!X      oW``````````````),       P`````````````````````````````5n`",
"`n5```````````````````````````````n       x````````````````G       d`````````````````````````````5n`",
"`n5```````````````````````````````>       Q````````````````_;      .^````````````````````````````5n`",
"`n5``````````````````````````````U       u``````````````````b       S````````````````````````````5n`",
"`n5``````````````````````````````b       C``````````````````U       d````````````````````````````5n`",
"`n5``````````````````````````````0       R```````````````````@      #_```````````````````````````5n`",
"`n5`````````````````````````````(.      %````````````````````p       T```````````````````````````5n`",
"`n5`````````````````````````````I       i````````````````````b       Z```````````````````````````5n`",
"`n5`````````````````````````````Z       z````````````````````F       l```````````````````````````5n`",
"`n5`````````````````````````````k       A````````````````````Y       w```````````````````````````5n`",
"`n5`````````````````````````````y       K````````````````````!       %```````````````````````````5n`",
"`n5`````````````````````````````>       R````````````````````_        (``````````````````````````5n`",
"`n5````````````````````````````_        ^`````````````````````*       W``````````````````````````5n`",
"`n5````````````````````````````~        )`````````````````````3       P``````````````````````````5n`",
"`n5````````````````````````````E       +``````````````````````t       J``````````````````````````5n`",
"`n5````````````````````````````U       ;``````````````````````a       D``````````````````````````5n`",
"`n5````````````````````````````K       1``````````````````````g       V``````````````````````````5n`",
"`n5````````````````````````````J       6``````````````````````j       M``````````````````````````5n`",
"`n5````````````````````````````H       9``````````````````````j       m``````````````````````````5n`",
"`n5````````````````````````````G       q``````````````````````k       b``````````````````````````5n`",
"`n5````````````````````````````F       w``````````````````````l       v``````````````````````````5n`",
"`n5````````````````````````````G       q``````````````````````k       b``````````````````````````5n`",
"`n5````````````````````````````H       0``````````````````````j       m``````````````````````````5n`",
"`n5````````````````````````````J       7``````````````````````j       M``````````````````````````5n`",
"`n5````````````````````````````K       2``````````````````````g       V``````````````````````````5n`",
"`n5````````````````````````````U       ;``````````````````````a       D``````````````````````````5n`",
"`n5````````````````````````````R       @``````````````````````t       J``````````````````````````5n`",
"`n5````````````````````````````!        )`````````````````````3       P``````````````````````````5n`",
"`n5````````````````````````````)        ^`````````````````````=       E``````````````````````````5n`",
"`n5`````````````````````````````;       R````````````````````_        (``````````````````````````5n`",
"`n5`````````````````````````````e       K````````````````````!       $```````````````````````````5n`",
"`n5`````````````````````````````k       A````````````````````Y       w```````````````````````````5n`",
"`n5`````````````````````````````V       z````````````````````F       l```````````````````````````5n`",
"`n5`````````````````````````````P       p````````````````````b       Z```````````````````````````5n`",
"`n5`````````````````````````````/       &````````````````````p       T```````````````````````````5n`",
"`n5``````````````````````````````6       R```````````````````#      #_```````````````````````````5n`",
"`n5``````````````````````````````x       C``````````````````Y       s````````````````````````````5n`",
"`n5``````````````````````````````P       u``````````````````b       S````````````````````````````5n`",
"`n5```````````````````````````````-       !````````````````_:       ^````````````````````````````5n`",
"`n5```````````````````````````````z       x````````````````G       d`````````````````````````````5n`",
"`n5```````````````````````````````W       oW``````````````)<       L`````````````````````````````5n`",
"`n5````````````````````````````````f       w)`````````````k       6``````````````````````````````5n`",
"`n5````````````````````````````````WX       g)```````````m        L``````````````````````````````5n`",
"`n5`````````````````````````````````c        qR````````!g        f```````````````````````````````5n`",
"`n5`````````````````````````````````)8         dDR!~RHj+        :/```````````````````````````````5n`",
"`n5``````````````````````````````````Q;                        @U````````````````````````````````5n`",
"`n5```````````````````````````````````R-                      OK`````````````````````````````````5n`",
"`n5````````````````````````````````````!7                    >T``````````````````````````````````5n`",
"`n5`````````````````````````````````````)mO                 k/```````````````````````````````````5n`",
"`n5```````````````````````````````````````!b=            $lR`````````````````````````````````````5n`",
"`n5``````````````````````````````````````````UMh7;@+;4gmP)```````````````````````````````````````5n`",
"`n5``````````````````````````````````````````````````````````````````````````````````````````````5n`",
"`n5``````````````````````````````````````````````````````````````````````````````````````````````5n`",
"`n5``````````````````````````````````````````````````````````````````````````````````````````````5n`",
"`n5``````````````````````````````````````````````````````````````````````````````````````````````5n`",
"`n5``````````````````````````````````````````````````````````````````````````````````````````````5n`",
"`n5``````````````````````````````````````````````````````````````````````````````````````````````5n`",
"`n5``````````````````````````````````````````````````````````````````````````````````````````````5n`",
"`n5``````````````````````````````````````````````````````````````````````````````````````````````5n`",
"`n5``````````````````````````````````````````````````````````````````````````````````````````````5n`",
"`n5``````````````````````````````````````````````````````````````````````````````````````````````5n`",
"`n5``````````````````````````````````````````````````````````````````````````````````````````````5n`",
"`n5``````````````````````````````````````````````````````````````````````````````````````````````5n`",
"`n5``````````````````````````````````````````````````````````````````````````````````````````````5n`",
"`n5``````````````````````````````````````````````````````````````````````````````````````````````5n`",
"`n5``````````````````````````````````````````````````````````````````````````````````````````````5n`",
"`n5``````````````````````````````````````````````````````````````````````````````````````````````5n`",
"`nr``````````````````````````````````````````````````````````````````````````````````````````````5n`",
"`n555555555555555555555555555555555555555555555555555555555555555555555555555555555555555555555555n`",
"`vnnnnnnnnnnnnnnnnnnnnnnnnnnnnnnnnnnnnnnnnnnnnnnnnnnnnnnnnnnnnnnnnnnnnnnnnnnnnnnnnnnnnnnnnnnnnnnnnv`",
"````````````````````````````````````````````````````````````````````````````````````````````````````"
};
