/* XPM */
static char *o1[] = {
/* columns rows colors chars-per-pixel */
"100 100 86 1 ",
"  c #686868",
". c #7C7C7C",
"X c #348032",
"o c #378135",
"O c #3A8238",
"+ c #3C823B",
"@ c #3F833D",
"# c #418440",
"$ c #448542",
"% c #468644",
"& c #488747",
"* c #4A8749",
"= c #4C884B",
"- c #4E894D",
"; c #508A4F",
": c #528A51",
"> c #558C54",
", c #5D905C",
"< c #669465",
"1 c #699568",
"2 c #6E986D",
"3 c #739B72",
"4 c #749B73",
"5 c #759C74",
"6 c #7B9F7A",
"7 c #7CA07B",
"8 c #7EA17D",
"9 c #80A280",
"0 c #83A483",
"q c #85A685",
"w c #88A788",
"e c #8AA989",
"r c #8CAA8B",
"t c #8EAB8D",
"y c #8FAC8F",
"u c #93AE93",
"i c #94AF93",
"p c #9AB399",
"a c #9BB49B",
"s c #9FB79F",
"d c #AFAFAF",
"f c #A0B7A0",
"g c #A1B8A1",
"h c #A7BCA7",
"j c #A8BCA7",
"k c #ABBEAA",
"l c gray70",
"z c #AFC1AF",
"x c #B0C2AF",
"c c #B0C2B0",
"v c #B3C4B3",
"b c #B4C5B3",
"n c #B7C7B7",
"m c #BAC9B9",
"M c #BCCBBB",
"N c #BDCBBD",
"B c #BECCBE",
"V c #C1CEC0",
"C c #C3D0C3",
"Z c #C4D0C3",
"A c #C7D3C6",
"S c #C8D4C8",
"D c #CCD7CC",
"F c #CFD9CE",
"G c #D2DBD2",
"H c #D2DCD2",
"J c #D4DDD3",
"K c #D4DDD4",
"L c #D7E0D7",
"P c #DAE2DA",
"I c #DCE3DB",
"U c #DEE4DD",
"Y c #E0E6E0",
"T c #E2E8E2",
"R c #E6EBE6",
"E c #E8ECE7",
"W c #EAEEEA",
"Q c #EDF1ED",
"! c #F0F3EF",
"~ c #F0F3F0",
"^ c #F2F5F2",
"/ c #F5F7F5",
"( c #F6F8F6",
") c #F8F9F8",
"_ c #FBFCFB",
"` c white",
/* pixels */
"````````````````````````````````````````````````````````````````````````````````````````````````````",
"`dlllllllllllllllllllllllllllllllllllllllllllllllllllllllllllllllllllllllllllllllllllllllllllllllld`",
"`l                                                                                                l`",
"`l XXXXXXXXXXXXXXXXXXXXXXXXXXXXXXXXXXXXXXXXXXXXXXXXXXXXXXXXXXXXXXXXXXXXXXXXXXXXXXXXXXXXXXXXXXXXXX l`",
"`l XXXXXXXXXXXXXXXXXXXXXXXXXXXXXXXXXXXXXXXXXXXXXXXXXXXXXXXXXXXXXXXXXXXXXXXXXXXXXXXXXXXXXXXXXXXXXX l`",
"`l XXXXXXXXXXXXXXXXXXXXXXXXXXXXXXXXXXXXXXXXXXXXXXXXXXXXXXXXXXXXXXXXXXXXXXXXXXXXXXXXXXXXXXXXXXXXXX l`",
"`l XXXXXXXXXXXXXXXXXXXXXXXXXXXXXXXXXXXXXXXXXXXXXXXXXXXXXXXXXXXXXXXXXXXXXXXXXXXXXXXXXXXXXXXXXXXXXX l`",
"`l XXXXXXXXXXXXXXXXXXXXXXXXXXXXXXXXXXXXXXXXXXXXXXXXXXXXXXXXXXXXXXXXXXXXXXXXXXXXXXXXXXXXXXXXXXXXXX l`",
"`l XXXXXXXXXXXXXXXXXXXXXXXXXXXXXXXXXXXXXXXXXXXXXXXXXXXXXXXXXXXXXXXXXXXXXXXXXXXXXXXXXXXXXXXXXXXXXX l`",
"`l XXXXXXXXXXXXXXXXXXXXXXXXXXXXXXXXXXXXXXXXXXXXXXXXXXXXXXXXXXXXXXXXXXXXXXXXXXXXXXXXXXXXXXXXXXXXXX l`",
"`l XXXXXXXXXXXXXXXXXXXXXXXXXXXXXXXXXXXXXXXXXXXXXXXXXXXXXXXXXXXXXXXXXXXXXXXXXXXXXXXXXXXXXXXXXXXXXX l`",
"`l XXXXXXXXXXXXXXXXXXXXXXXXXXXXXXXXXXXXXXXXXXXXXXXXXXXXXXXXXXXXXXXXXXXXXXXXXXXXXXXXXXXXXXXXXXXXXX l`",
"`l XXXXXXXXXXXXXXXXXXXXXXXXXXXXXXXXXXXXXXXXXXXXXXXXXXXXXXXXXXXXXXXXXXXXXXXXXXXXXXXXXXXXXXXXXXXXXX l`",
"`l XXXXXXXXXXXXXXXXXXXXXXXXXXXXXXXXXXXXXXXXXXXXXXXXXXXXXXXXXXXXXXXXXXXXXXXXXXXXXXXXXXXXXXXXXXXXXX l`",
"`l XXXXXXXXXXXXXXXXXXXXXXXXXXXXXXXXXXXXXXXXXXXXXXXXXXXXXXXXXXXXXXXXXXXXXXXXXXXXXXXXXXXXXXXXXXXXXX l`",
"`l XXXXXXXXXXXXXXXXXXXXXXXXXXXXXXXXXXXXXXXXXXXXXXXXXXXXXXXXXXXXXXXXXXXXXXXXXXXXXXXXXXXXXXXXXXXXXX l`",
"`l XXXXXXXXXXXXXXXXXXXXXXXXXXXXXXXXXXXXXXXXXXXXXXXXXXXXXXXXXXXXXXXXXXXXXXXXXXXXXXXXXXXXXXXXXXXXXX l`",
"`l XXXXXXXXXXXXXXXXXXXXXXXXXXXXXXXXXXXXXXXXXXXXXXXXXXXXXXXXXXXXXXXXXXXXXXXXXXXXXXXXXXXXXXXXXXXXXX l`",
"`l XXXXXXXXXXXXXXXXXXXXXXXXXXXXXXXXXXXXXXXXXXXXXXXXXXXXXXXXXXXXXXXXXXXXXXXXXXXXXXXXXXXXXXXXXXXXXX l`",
"`l XXXXXXXXXXXXXXXXXXXXXXXXXXXXXXXXXXXXXXXXX@tVPQ(``(!UAp-XXXXXXXXXXXXXXXXXXXXXXXXXXXXXXXXXXXXXXX l`",
"`l XXXXXXXXXXXXXXXXXXXXXXXXXXXXXXXXXXXXXXX1Z(`````````````GqXXXXXXXXXXXXXXXXXXXXXXXXXXXXXXXXXXXXX l`",
"`l XXXXXXXXXXXXXXXXXXXXXXXXXXXXXXXXXXXXX%N``````````````````K<XXXXXXXXXXXXXXXXXXXXXXXXXXXXXXXXXXX l`",
"`l XXXXXXXXXXXXXXXXXXXXXXXXXXXXXXXXXXXX1E````````````````````(yXXXXXXXXXXXXXXXXXXXXXXXXXXXXXXXXXX l`",
"`l XXXXXXXXXXXXXXXXXXXXXXXXXXXXXXXXXXX5/```````````````````````sXXXXXXXXXXXXXXXXXXXXXXXXXXXXXXXXX l`",
"`l XXXXXXXXXXXXXXXXXXXXXXXXXXXXXXXXXX1^`````````````````````````iXXXXXXXXXXXXXXXXXXXXXXXXXXXXXXXX l`",
"`l XXXXXXXXXXXXXXXXXXXXXXXXXXXXXXXXX@R`````````Tvr53qzP`````````(<XXXXXXXXXXXXXXXXXXXXXXXXXXXXXXX l`",
"`l XXXXXXXXXXXXXXXXXXXXXXXXXXXXXXXXXV````````WwXXXXXXXX3U````````YXXXXXXXXXXXXXXXXXXXXXXXXXXXXXXX l`",
"`l XXXXXXXXXXXXXXXXXXXXXXXXXXXXXXXX3````````U=XXXXXXXXXXoS````````sXXXXXXXXXXXXXXXXXXXXXXXXXXXXXX l`",
"`l XXXXXXXXXXXXXXXXXXXXXXXXXXXXXXXXL```````W*XXXXXXXXXXXXXK```````QOXXXXXXXXXXXXXXXXXXXXXXXXXXXXX l`",
"`l XXXXXXXXXXXXXXXXXXXXXXXXXXXXXXX3````````7XXXXXXXXXXXXXX>/```````sXXXXXXXXXXXXXXXXXXXXXXXXXXXXX l`",
"`l XXXXXXXXXXXXXXXXXXXXXXXXXXXXXXXS```````FXXXXXXXXXXXXXXXXz```````TXXXXXXXXXXXXXXXXXXXXXXXXXXXXX l`",
"`l XXXXXXXXXXXXXXXXXXXXXXXXXXXXXX+(```````6XXXXXXXXXXXXXXXX&(```````1XXXXXXXXXXXXXXXXXXXXXXXXXXXX l`",
"`l XXXXXXXXXXXXXXXXXXXXXXXXXXXXXXu```````RXXXXXXXXXXXXXXXXXXS```````nXXXXXXXXXXXXXXXXXXXXXXXXXXXX l`",
"`l XXXXXXXXXXXXXXXXXXXXXXXXXXXXXXS```````MXXXXXXXXXXXXXXXXXXu```````TXXXXXXXXXXXXXXXXXXXXXXXXXXXX l`",
"`l XXXXXXXXXXXXXXXXXXXXXXXXXXXXXXQ```````qXXXXXXXXXXXXXXXXXX%````````&XXXXXXXXXXXXXXXXXXXXXXXXXXX l`",
"`l XXXXXXXXXXXXXXXXXXXXXXXXXXXXX,```````_#XXXXXXXXXXXXXXXXXXXR```````tXXXXXXXXXXXXXXXXXXXXXXXXXXX l`",
"`l XXXXXXXXXXXXXXXXXXXXXXXXXXXXXp```````RXXXXXXXXXXXXXXXXXXXXS```````mXXXXXXXXXXXXXXXXXXXXXXXXXXX l`",
"`l XXXXXXXXXXXXXXXXXXXXXXXXXXXXXm```````FXXXXXXXXXXXXXXXXXXXXc```````JXXXXXXXXXXXXXXXXXXXXXXXXXXX l`",
"`l XXXXXXXXXXXXXXXXXXXXXXXXXXXXXK```````nXXXXXXXXXXXXXXXXXXXXu```````WXXXXXXXXXXXXXXXXXXXXXXXXXXX l`",
"`l XXXXXXXXXXXXXXXXXXXXXXXXXXXXXE```````gXXXXXXXXXXXXXXXXXXXX5```````_XXXXXXXXXXXXXXXXXXXXXXXXXXX l`",
"`l XXXXXXXXXXXXXXXXXXXXXXXXXXXXX(```````qXXXXXXXXXXXXXXXXXXXX&````````,XXXXXXXXXXXXXXXXXXXXXXXXXX l`",
"`l XXXXXXXXXXXXXXXXXXXXXXXXXXXX&````````2XXXXXXXXXXXXXXXXXXXXX)```````0XXXXXXXXXXXXXXXXXXXXXXXXXX l`",
"`l XXXXXXXXXXXXXXXXXXXXXXXXXXXX3````````;XXXXXXXXXXXXXXXXXXXXX^```````pXXXXXXXXXXXXXXXXXXXXXXXXXX l`",
"`l XXXXXXXXXXXXXXXXXXXXXXXXXXXX0````````XXXXXXXXXXXXXXXXXXXXXXW```````jXXXXXXXXXXXXXXXXXXXXXXXXXX l`",
"`l XXXXXXXXXXXXXXXXXXXXXXXXXXXXu```````)XXXXXXXXXXXXXXXXXXXXXXT```````vXXXXXXXXXXXXXXXXXXXXXXXXXX l`",
"`l XXXXXXXXXXXXXXXXXXXXXXXXXXXXf```````^XXXXXXXXXXXXXXXXXXXXXXU```````BXXXXXXXXXXXXXXXXXXXXXXXXXX l`",
"`l XXXXXXXXXXXXXXXXXXXXXXXXXXXXh```````QXXXXXXXXXXXXXXXXXXXXXXP```````CXXXXXXXXXXXXXXXXXXXXXXXXXX l`",
"`l XXXXXXXXXXXXXXXXXXXXXXXXXXXXk```````QXXXXXXXXXXXXXXXXXXXXXXL```````AXXXXXXXXXXXXXXXXXXXXXXXXXX l`",
"`l XXXXXXXXXXXXXXXXXXXXXXXXXXXXz```````WXXXXXXXXXXXXXXXXXXXXXXK```````SXXXXXXXXXXXXXXXXXXXXXXXXXX l`",
"`l XXXXXXXXXXXXXXXXXXXXXXXXXXXXc```````WXXXXXXXXXXXXXXXXXXXXXXK```````DXXXXXXXXXXXXXXXXXXXXXXXXXX l`",
"`l XXXXXXXXXXXXXXXXXXXXXXXXXXXXz```````WXXXXXXXXXXXXXXXXXXXXXXK```````SXXXXXXXXXXXXXXXXXXXXXXXXXX l`",
"`l XXXXXXXXXXXXXXXXXXXXXXXXXXXXk```````QXXXXXXXXXXXXXXXXXXXXXXL```````AXXXXXXXXXXXXXXXXXXXXXXXXXX l`",
"`l XXXXXXXXXXXXXXXXXXXXXXXXXXXXh```````QXXXXXXXXXXXXXXXXXXXXXXP```````CXXXXXXXXXXXXXXXXXXXXXXXXXX l`",
"`l XXXXXXXXXXXXXXXXXXXXXXXXXXXXf```````^XXXXXXXXXXXXXXXXXXXXXXU```````BXXXXXXXXXXXXXXXXXXXXXXXXXX l`",
"`l XXXXXXXXXXXXXXXXXXXXXXXXXXXXi```````(XXXXXXXXXXXXXXXXXXXXXXT```````bXXXXXXXXXXXXXXXXXXXXXXXXXX l`",
"`l XXXXXXXXXXXXXXXXXXXXXXXXXXXXq````````XXXXXXXXXXXXXXXXXXXXXXW```````jXXXXXXXXXXXXXXXXXXXXXXXXXX l`",
"`l XXXXXXXXXXXXXXXXXXXXXXXXXXXX3````````;XXXXXXXXXXXXXXXXXXXXX^```````pXXXXXXXXXXXXXXXXXXXXXXXXXX l`",
"`l XXXXXXXXXXXXXXXXXXXXXXXXXXXX=````````2XXXXXXXXXXXXXXXXXXXXX)```````0XXXXXXXXXXXXXXXXXXXXXXXXXX l`",
"`l XXXXXXXXXXXXXXXXXXXXXXXXXXXXX(```````qXXXXXXXXXXXXXXXXXXXX&````````,XXXXXXXXXXXXXXXXXXXXXXXXXX l`",
"`l XXXXXXXXXXXXXXXXXXXXXXXXXXXXXW```````gXXXXXXXXXXXXXXXXXXXX4````````XXXXXXXXXXXXXXXXXXXXXXXXXXX l`",
"`l XXXXXXXXXXXXXXXXXXXXXXXXXXXXXK```````nXXXXXXXXXXXXXXXXXXXXu```````WXXXXXXXXXXXXXXXXXXXXXXXXXXX l`",
"`l XXXXXXXXXXXXXXXXXXXXXXXXXXXXXN```````FXXXXXXXXXXXXXXXXXXXXx```````JXXXXXXXXXXXXXXXXXXXXXXXXXXX l`",
"`l XXXXXXXXXXXXXXXXXXXXXXXXXXXXXs```````RXXXXXXXXXXXXXXXXXXXXS```````mXXXXXXXXXXXXXXXXXXXXXXXXXXX l`",
"`l XXXXXXXXXXXXXXXXXXXXXXXXXXXXX<```````_@XXXXXXXXXXXXXXXXXXXR```````yXXXXXXXXXXXXXXXXXXXXXXXXXXX l`",
"`l XXXXXXXXXXXXXXXXXXXXXXXXXXXXXXQ```````qXXXXXXXXXXXXXXXXXX$````````&XXXXXXXXXXXXXXXXXXXXXXXXXXX l`",
"`l XXXXXXXXXXXXXXXXXXXXXXXXXXXXXXF```````mXXXXXXXXXXXXXXXXXXu```````TXXXXXXXXXXXXXXXXXXXXXXXXXXXX l`",
"`l XXXXXXXXXXXXXXXXXXXXXXXXXXXXXXa```````RXXXXXXXXXXXXXXXXXXS```````nXXXXXXXXXXXXXXXXXXXXXXXXXXXX l`",
"`l XXXXXXXXXXXXXXXXXXXXXXXXXXXXXX%)```````6XXXXXXXXXXXXXXXX&(```````1XXXXXXXXXXXXXXXXXXXXXXXXXXXX l`",
"`l XXXXXXXXXXXXXXXXXXXXXXXXXXXXXXXF```````FXXXXXXXXXXXXXXXXz```````TXXXXXXXXXXXXXXXXXXXXXXXXXXXXX l`",
"`l XXXXXXXXXXXXXXXXXXXXXXXXXXXXXXX8````````7XXXXXXXXXXXXXX>/```````sXXXXXXXXXXXXXXXXXXXXXXXXXXXXX l`",
"`l XXXXXXXXXXXXXXXXXXXXXXXXXXXXXXXXU```````W*XXXXXXXXXXXXXK```````Q+XXXXXXXXXXXXXXXXXXXXXXXXXXXXX l`",
"`l XXXXXXXXXXXXXXXXXXXXXXXXXXXXXXXX9````````U=XXXXXXXXXXoS````````sXXXXXXXXXXXXXXXXXXXXXXXXXXXXXX l`",
"`l XXXXXXXXXXXXXXXXXXXXXXXXXXXXXXXXXF````````WqXXXXXXXX3U````````YXXXXXXXXXXXXXXXXXXXXXXXXXXXXXXX l`",
"`l XXXXXXXXXXXXXXXXXXXXXXXXXXXXXXXXX-Q`````````Tve33qkP`````````(<XXXXXXXXXXXXXXXXXXXXXXXXXXXXXXX l`",
"`l XXXXXXXXXXXXXXXXXXXXXXXXXXXXXXXXXX6(`````````````````````````iXXXXXXXXXXXXXXXXXXXXXXXXXXXXXXXX l`",
"`l XXXXXXXXXXXXXXXXXXXXXXXXXXXXXXXXXXXq)```````````````````````fXXXXXXXXXXXXXXXXXXXXXXXXXXXXXXXXX l`",
"`l XXXXXXXXXXXXXXXXXXXXXXXXXXXXXXXXXXXX5Q````````````````````(yXXXXXXXXXXXXXXXXXXXXXXXXXXXXXXXXXX l`",
"`l XXXXXXXXXXXXXXXXXXXXXXXXXXXXXXXXXXXXX:A``````````````````K<XXXXXXXXXXXXXXXXXXXXXXXXXXXXXXXXXXX l`",
"`l XXXXXXXXXXXXXXXXXXXXXXXXXXXXXXXXXXXXXXX3S)`````````````HqXXXXXXXXXXXXXXXXXXXXXXXXXXXXXXXXXXXXX l`",
"`l XXXXXXXXXXXXXXXXXXXXXXXXXXXXXXXXXXXXXXXXX%uCIQ(``)~UAp;XXXXXXXXXXXXXXXXXXXXXXXXXXXXXXXXXXXXXXX l`",
"`l XXXXXXXXXXXXXXXXXXXXXXXXXXXXXXXXXXXXXXXXXXXXXXXXXXXXXXXXXXXXXXXXXXXXXXXXXXXXXXXXXXXXXXXXXXXXXX l`",
"`l XXXXXXXXXXXXXXXXXXXXXXXXXXXXXXXXXXXXXXXXXXXXXXXXXXXXXXXXXXXXXXXXXXXXXXXXXXXXXXXXXXXXXXXXXXXXXX l`",
"`l XXXXXXXXXXXXXXXXXXXXXXXXXXXXXXXXXXXXXXXXXXXXXXXXXXXXXXXXXXXXXXXXXXXXXXXXXXXXXXXXXXXXXXXXXXXXXX l`",
"`l XXXXXXXXXXXXXXXXXXXXXXXXXXXXXXXXXXXXXXXXXXXXXXXXXXXXXXXXXXXXXXXXXXXXXXXXXXXXXXXXXXXXXXXXXXXXXX l`",
"`l XXXXXXXXXXXXXXXXXXXXXXXXXXXXXXXXXXXXXXXXXXXXXXXXXXXXXXXXXXXXXXXXXXXXXXXXXXXXXXXXXXXXXXXXXXXXXX l`",
"`l XXXXXXXXXXXXXXXXXXXXXXXXXXXXXXXXXXXXXXXXXXXXXXXXXXXXXXXXXXXXXXXXXXXXXXXXXXXXXXXXXXXXXXXXXXXXXX l`",
"`l XXXXXXXXXXXXXXXXXXXXXXXXXXXXXXXXXXXXXXXXXXXXXXXXXXXXXXXXXXXXXXXXXXXXXXXXXXXXXXXXXXXXXXXXXXXXXX l`",
"`l XXXXXXXXXXXXXXXXXXXXXXXXXXXXXXXXXXXXXXXXXXXXXXXXXXXXXXXXXXXXXXXXXXXXXXXXXXXXXXXXXXXXXXXXXXXXXX l`",
"`l XXXXXXXXXXXXXXXXXXXXXXXXXXXXXXXXXXXXXXXXXXXXXXXXXXXXXXXXXXXXXXXXXXXXXXXXXXXXXXXXXXXXXXXXXXXXXX l`",
"`l XXXXXXXXXXXXXXXXXXXXXXXXXXXXXXXXXXXXXXXXXXXXXXXXXXXXXXXXXXXXXXXXXXXXXXXXXXXXXXXXXXXXXXXXXXXXXX l`",
"`l XXXXXXXXXXXXXXXXXXXXXXXXXXXXXXXXXXXXXXXXXXXXXXXXXXXXXXXXXXXXXXXXXXXXXXXXXXXXXXXXXXXXXXXXXXXXXX l`",
"`l XXXXXXXXXXXXXXXXXXXXXXXXXXXXXXXXXXXXXXXXXXXXXXXXXXXXXXXXXXXXXXXXXXXXXXXXXXXXXXXXXXXXXXXXXXXXXX l`",
"`l XXXXXXXXXXXXXXXXXXXXXXXXXXXXXXXXXXXXXXXXXXXXXXXXXXXXXXXXXXXXXXXXXXXXXXXXXXXXXXXXXXXXXXXXXXXXXX l`",
"`l XXXXXXXXXXXXXXXXXXXXXXXXXXXXXXXXXXXXXXXXXXXXXXXXXXXXXXXXXXXXXXXXXXXXXXXXXXXXXXXXXXXXXXXXXXXXXX l`",
"`l XXXXXXXXXXXXXXXXXXXXXXXXXXXXXXXXXXXXXXXXXXXXXXXXXXXXXXXXXXXXXXXXXXXXXXXXXXXXXXXXXXXXXXXXXXXXXX l`",
"`l XXXXXXXXXXXXXXXXXXXXXXXXXXXXXXXXXXXXXXXXXXXXXXXXXXXXXXXXXXXXXXXXXXXXXXXXXXXXXXXXXXXXXXXXXXXXXX l`",
"`l.XXXXXXXXXXXXXXXXXXXXXXXXXXXXXXXXXXXXXXXXXXXXXXXXXXXXXXXXXXXXXXXXXXXXXXXXXXXXXXXXXXXXXXXXXXXXXX l`",
"`l                                                                                                l`",
"`dlllllllllllllllllllllllllllllllllllllllllllllllllllllllllllllllllllllllllllllllllllllllllllllllld`",
"````````````````````````````````````````````````````````````````````````````````````````````````````"
};
