/* XPM */
static char *o2[] = {
/* columns rows colors chars-per-pixel */
"100 100 74 1 ",
"  c #686868",
". c #7C7C7C",
"X c #C3AF2A",
"o c #C3AF2E",
"O c #C4B031",
"+ c #C4B137",
"@ c #C4B13A",
"# c #C5B23F",
"$ c #C5B242",
"% c #C6B344",
"& c #C6B348",
"* c #C6B44A",
"= c #C7B44C",
"- c #C7B550",
"; c #C9B759",
": c #CAB962",
"> c #CBBA65",
", c #CBBB68",
"< c #CCBC6B",
"1 c #CDBD6E",
"2 c #CDBD70",
"3 c #CEBF75",
"4 c #CFC078",
"5 c #D0C17B",
"6 c #D0C17E",
"7 c #AFAFAF",
"8 c gray70",
"9 c #D1C383",
"0 c #D2C485",
"q c #D3C68A",
"w c #D4C78D",
"e c #D5C88F",
"r c #D5C991",
"t c #D7CB97",
"y c #D7CB98",
"u c #D7CC99",
"i c #D8CD9B",
"p c #D9CE9E",
"a c #DBD1A6",
"s c #DCD1A6",
"d c #DDD3A9",
"f c #DED4AE",
"g c #DFD5B0",
"h c #E0D6B2",
"j c #E0D7B4",
"k c #E1D8B6",
"l c #E2DAB9",
"z c #E3DBBC",
"x c #E3DCBD",
"c c #E4DDC0",
"v c #E7E0C6",
"b c #E7E1C8",
"n c #E8E2C9",
"m c #E9E3CC",
"M c #EAE4CE",
"N c #EBE6D1",
"B c #ECE7D3",
"V c #ECE7D4",
"C c #EDE8D5",
"Z c #EFEADA",
"A c #F0ECDD",
"S c #F2EEE2",
"D c #F3F0E5",
"F c #F4F1E7",
"G c #F6F3EA",
"H c #F6F4EB",
"J c #F7F5ED",
"K c #F8F6EF",
"L c #F9F7F1",
"P c #F9F8F2",
"I c #FBFAF6",
"U c #FCFBF8",
"Y c #FDFDFB",
"T c white",
/* pixels */
"TTTTTTTTTTTTTTTTTTTTTTTTTTTTTTTTTTTTTTTTTTTTTTTTTTTTTTTTTTTTTTTTTTTTTTTTTTTTTTTTTTTTTTTTTTTTTTTTTTTT",
"T78888888888888888888888888888888888888888888888888888888888888888888888888888888888888888888888887T",
"T8                                                                                                8T",
"T8 XXXXXXXXXXXXXXXXXXXXXXXXXXXXXXXXXXXXXXXXXXXXXXXXXXXXXXXXXXXXXXXXXXXXXXXXXXXXXXXXXXXXXXXXXXXXXX 8T",
"T8 XXXXXXXXXXXXXXXXXXXXXXXXXXXXXXXXXXXXXXXXXXXXXXXXXXXXXXXXXXXXXXXXXXXXXXXXXXXXXXXXXXXXXXXXXXXXXX 8T",
"T8 XXXXXXXXXXXXXXXXXXXXXXXXXXXXXXXXXXXXXXXXXXXXXXXXXXXXXXXXXXXXXXXXXXXXXXXXXXXXXXXXXXXXXXXXXXXXXX 8T",
"T8 XXXXXXXXXXXXXXXXXXXXXXXXXXXXXXXXXXXXXXXXXXXXXXXXXXXXXXXXXXXXXXXXXXXXXXXXXXXXXXXXXXXXXXXXXXXXXX 8T",
"T8 XXXXXXXXXXXXXXXXXXXXXXXXXXXXXXXXXXXXXXXXXXXXXXXXXXXXXXXXXXXXXXXXXXXXXXXXXXXXXXXXXXXXXXXXXXXXXX 8T",
"T8 XXXXXXXXXXXXXXXXXXXXXXXXXXXXXXXXXXXXXXXXXXXXXXXXXXXXXXXXXXXXXXXXXXXXXXXXXXXXXXXXXXXXXXXXXXXXXX 8T",
"T8 XXXXXXXXXXXXXXXXXXXXXXXXXXXXXXXXXXXXXXXXXXXXXXXXXXXXXXXXXXXXXXXXXXXXXXXXXXXXXXXXXXXXXXXXXXXXXX 8T",
"T8 XXXXXXXXXXXXXXXXXXXXXXXXXXXXXXXXXXXXXXXXXXXXXXXXXXXXXXXXXXXXXXXXXXXXXXXXXXXXXXXXXXXXXXXXXXXXXX 8T",
"T8 XXXXXXXXXXXXXXXXXXXXXXXXXXXXXXXXXXXXXXXXXXXXXXXXXXXXXXXXXXXXXXXXXXXXXXXXXXXXXXXXXXXXXXXXXXXXXX 8T",
"T8 XXXXXXXXXXXXXXXXXXXXXXXXXXXXXXXXXXXXXXXXXXXXXXXXXXXXXXXXXXXXXXXXXXXXXXXXXXXXXXXXXXXXXXXXXXXXXX 8T",
"T8 XXXXXXXXXXXXXXXXXXXXXXXXXXXXXXXXXXXXXXXXXXXXXXXXXXXXXXXXXXXXXXXXXXXXXXXXXXXXXXXXXXXXXXXXXXXXXX 8T",
"T8 XXXXXXXXXXXXXXXXXXXXXXXXXXXXXXXXXXXXXXXXXXXXXXXXXXXXXXXXXXXXXXXXXXXXXXXXXXXXXXXXXXXXXXXXXXXXXX 8T",
"T8 XXXXXXXXXXXXXXXXXXXXXXXXXXXXXXXXXXXXXXXXXXXXXXXXXXXXXXXXXXXXXXXXXXXXXXXXXXXXXXXXXXXXXXXXXXXXXX 8T",
"T8 XXXXXXXXXXXXXXXXXXXXXXXXXXXXXXXXXXXXXXXXXXXXXXXXXXXXXXXXXXXXXXXXXXXXXXXXXXXXXXXXXXXXXXXXXXXXXX 8T",
"T8 XXXXXXXXXXXXXXXXXXXXXXXXXXXXXXXXXXXXXXXXXXXXXXXXXXXXXXXXXXXXXXXXXXXXXXXXXXXXXXXXXXXXXXXXXXXXXX 8T",
"T8 XXXXXXXXXXXXXXXXXXXXXXXXXXXXXXXXXXXXXXXXXXXXXXXXXXXXXXXXXXXXXXXXXXXXXXXXXXXXXXXXXXXXXXXXXXXXXX 8T",
"T8 XXXXXXXXXXXXXXXXXXXXXXXXXXXXXXXXXXXXXXXXX+wcZJITTIKAvy&XXXXXXXXXXXXXXXXXXXXXXXXXXXXXXXXXXXXXXX 8T",
"T8 XXXXXXXXXXXXXXXXXXXXXXXXXXXXXXXXXXXXXXX>cITTTTTTTTTTTTTN9XXXXXXXXXXXXXXXXXXXXXXXXXXXXXXXXXXXXX 8T",
"T8 XXXXXXXXXXXXXXXXXXXXXXXXXXXXXXXXXXXXX#zTTTTTTTTTTTTTTTTTTV:XXXXXXXXXXXXXXXXXXXXXXXXXXXXXXXXXXX 8T",
"T8 XXXXXXXXXXXXXXXXXXXXXXXXXXXXXXXXXXXX>FTTTTTTTTTTTTTTTTTTTTIwXXXXXXXXXXXXXXXXXXXXXXXXXXXXXXXXXX 8T",
"T8 XXXXXXXXXXXXXXXXXXXXXXXXXXXXXXXXXXX2ITTTTTTTTTTTTTTTTTTTTTTTpXXXXXXXXXXXXXXXXXXXXXXXXXXXXXXXXX 8T",
"T8 XXXXXXXXXXXXXXXXXXXXXXXXXXXXXXXXXX,PTTTTTTTTTTTTTTTTTTTTTTTTTrXXXXXXXXXXXXXXXXXXXXXXXXXXXXXXXX 8T",
"T8 XXXXXXXXXXXXXXXXXXXXXXXXXXXXXXXXX+FTTTTTTTTTShq210fZTTTTTTTTTI:XXXXXXXXXXXXXXXXXXXXXXXXXXXXXXX 8T",
"T8 XXXXXXXXXXXXXXXXXXXXXXXXXXXXXXXXXcTTTTTTTTH0XXXXXXXX2ATTTTTTTTAXXXXXXXXXXXXXXXXXXXXXXXXXXXXXXX 8T",
"T8 XXXXXXXXXXXXXXXXXXXXXXXXXXXXXXXX1TTTTTTTTA%XXXXXXXXXXobTTTTTTTTpXXXXXXXXXXXXXXXXXXXXXXXXXXXXXX 8T",
"T8 XXXXXXXXXXXXXXXXXXXXXXXXXXXXXXXXCTTTTTTTG%XXXXXXXXXXXXXCTTTTTTTJOXXXXXXXXXXXXXXXXXXXXXXXXXXXXX 8T",
"T8 XXXXXXXXXXXXXXXXXXXXXXXXXXXXXXX1TTTTTTTT4XXXXXXXXXXXXXX-ITTTTTTTiXXXXXXXXXXXXXXXXXXXXXXXXXXXXX 8T",
"T8 XXXXXXXXXXXXXXXXXXXXXXXXXXXXXXXbTTTTTTTMXXXXXXXXXXXXXXXXfTTTTTTTSXXXXXXXXXXXXXXXXXXXXXXXXXXXXX 8T",
"T8 XXXXXXXXXXXXXXXXXXXXXXXXXXXXXX+ITTTTTTT4XXXXXXXXXXXXXXXX$ITTTTTTT>XXXXXXXXXXXXXXXXXXXXXXXXXXXX 8T",
"T8 XXXXXXXXXXXXXXXXXXXXXXXXXXXXXXrTTTTTTTFXXXXXXXXXXXXXXXXXXnTTTTTTTjXXXXXXXXXXXXXXXXXXXXXXXXXXXX 8T",
"T8 XXXXXXXXXXXXXXXXXXXXXXXXXXXXXXnTTTTTTTlXXXXXXXXXXXXXXXXXXrTTTTTTTSXXXXXXXXXXXXXXXXXXXXXXXXXXXX 8T",
"T8 XXXXXXXXXXXXXXXXXXXXXXXXXXXXXXJTTTTTTT9XXXXXXXXXXXXXXXXXX#TTTTTTTT$XXXXXXXXXXXXXXXXXXXXXXXXXXX 8T",
"T8 XXXXXXXXXXXXXXXXXXXXXXXXXXXXX;TTTTTTTY@XXXXXXXXXXXXXXXXXXXDTTTTTTTwXXXXXXXXXXXXXXXXXXXXXXXXXXX 8T",
"T8 XXXXXXXXXXXXXXXXXXXXXXXXXXXXXtTTTTTTTDXXXXXXXXXXXXXXXXXXXXnTTTTTTTlXXXXXXXXXXXXXXXXXXXXXXXXXXX 8T",
"T8 XXXXXXXXXXXXXXXXXXXXXXXXXXXXXlTTTTTTTMXXXXXXXXXXXXXXXXXXXXfTTTTTTTBXXXXXXXXXXXXXXXXXXXXXXXXXXX 8T",
"T8 XXXXXXXXXXXXXXXXXXXXXXXXXXXXXVTTTTTTTkXXXXXXXXXXXXXXXXXXXXrTTTTTTTGXXXXXXXXXXXXXXXXXXXXXXXXXXX 8T",
"T8 XXXXXXXXXXXXXXXXXXXXXXXXXXXXXFTTTTTTTpXXXXXXXXXXXXXXXXXXXX2TTTTTTTYXXXXXXXXXXXXXXXXXXXXXXXXXXX 8T",
"T8 XXXXXXXXXXXXXXXXXXXXXXXXXXXXXITTTTTTT0XXXXXXXXXXXXXXXXXXXX$TTTTTTTT;XXXXXXXXXXXXXXXXXXXXXXXXXX 8T",
"T8 XXXXXXXXXXXXXXXXXXXXXXXXXXXX$TTTTTTTT<XXXXXXXXXXXXXXXXXXXXXYTTTTTTT9XXXXXXXXXXXXXXXXXXXXXXXXXX 8T",
"T8 XXXXXXXXXXXXXXXXXXXXXXXXXXXX1TTTTTTTT*XXXXXXXXXXXXXXXXXXXXXLTTTTTTTuXXXXXXXXXXXXXXXXXXXXXXXXXX 8T",
"T8 XXXXXXXXXXXXXXXXXXXXXXXXXXXX9TTTTTTTTXXXXXXXXXXXXXXXXXXXXXXGTTTTTTTsXXXXXXXXXXXXXXXXXXXXXXXXXX 8T",
"T8 XXXXXXXXXXXXXXXXXXXXXXXXXXXXrTTTTTTTUXXXXXXXXXXXXXXXXXXXXXXSTTTTTTThXXXXXXXXXXXXXXXXXXXXXXXXXX 8T",
"T8 XXXXXXXXXXXXXXXXXXXXXXXXXXXXpTTTTTTTPXXXXXXXXXXXXXXXXXXXXXXATTTTTTTzXXXXXXXXXXXXXXXXXXXXXXXXXX 8T",
"T8 XXXXXXXXXXXXXXXXXXXXXXXXXXXXaTTTTTTTJXXXXXXXXXXXXXXXXXXXXXXZTTTTTTTcXXXXXXXXXXXXXXXXXXXXXXXXXX 8T",
"T8 XXXXXXXXXXXXXXXXXXXXXXXXXXXXdTTTTTTTJXXXXXXXXXXXXXXXXXXXXXXCTTTTTTTvXXXXXXXXXXXXXXXXXXXXXXXXXX 8T",
"T8 XXXXXXXXXXXXXXXXXXXXXXXXXXXXfTTTTTTTGXXXXXXXXXXXXXXXXXXXXXXCTTTTTTTnXXXXXXXXXXXXXXXXXXXXXXXXXX 8T",
"T8 XXXXXXXXXXXXXXXXXXXXXXXXXXXXgTTTTTTTGXXXXXXXXXXXXXXXXXXXXXXVTTTTTTTnXXXXXXXXXXXXXXXXXXXXXXXXXX 8T",
"T8 XXXXXXXXXXXXXXXXXXXXXXXXXXXXfTTTTTTTGXXXXXXXXXXXXXXXXXXXXXXCTTTTTTTnXXXXXXXXXXXXXXXXXXXXXXXXXX 8T",
"T8 XXXXXXXXXXXXXXXXXXXXXXXXXXXXdTTTTTTTJXXXXXXXXXXXXXXXXXXXXXXCTTTTTTTvXXXXXXXXXXXXXXXXXXXXXXXXXX 8T",
"T8 XXXXXXXXXXXXXXXXXXXXXXXXXXXXaTTTTTTTJXXXXXXXXXXXXXXXXXXXXXXZTTTTTTTcXXXXXXXXXXXXXXXXXXXXXXXXXX 8T",
"T8 XXXXXXXXXXXXXXXXXXXXXXXXXXXXpTTTTTTTPXXXXXXXXXXXXXXXXXXXXXXATTTTTTTxXXXXXXXXXXXXXXXXXXXXXXXXXX 8T",
"T8 XXXXXXXXXXXXXXXXXXXXXXXXXXXXrTTTTTTTIXXXXXXXXXXXXXXXXXXXXXXSTTTTTTThXXXXXXXXXXXXXXXXXXXXXXXXXX 8T",
"T8 XXXXXXXXXXXXXXXXXXXXXXXXXXXX9TTTTTTTTXXXXXXXXXXXXXXXXXXXXXXGTTTTTTTsXXXXXXXXXXXXXXXXXXXXXXXXXX 8T",
"T8 XXXXXXXXXXXXXXXXXXXXXXXXXXXX2TTTTTTTT*XXXXXXXXXXXXXXXXXXXXXLTTTTTTTuXXXXXXXXXXXXXXXXXXXXXXXXXX 8T",
"T8 XXXXXXXXXXXXXXXXXXXXXXXXXXXX%TTTTTTTT<XXXXXXXXXXXXXXXXXXXXXYTTTTTTT9XXXXXXXXXXXXXXXXXXXXXXXXXX 8T",
"T8 XXXXXXXXXXXXXXXXXXXXXXXXXXXXXITTTTTTT0XXXXXXXXXXXXXXXXXXXX$TTTTTTTT;XXXXXXXXXXXXXXXXXXXXXXXXXX 8T",
"T8 XXXXXXXXXXXXXXXXXXXXXXXXXXXXXGTTTTTTTpXXXXXXXXXXXXXXXXXXXX2TTTTTTTTXXXXXXXXXXXXXXXXXXXXXXXXXXX 8T",
"T8 XXXXXXXXXXXXXXXXXXXXXXXXXXXXXCTTTTTTTkXXXXXXXXXXXXXXXXXXXXeTTTTTTTGXXXXXXXXXXXXXXXXXXXXXXXXXXX 8T",
"T8 XXXXXXXXXXXXXXXXXXXXXXXXXXXXXzTTTTTTTMXXXXXXXXXXXXXXXXXXXXfTTTTTTTBXXXXXXXXXXXXXXXXXXXXXXXXXXX 8T",
"T8 XXXXXXXXXXXXXXXXXXXXXXXXXXXXXiTTTTTTTDXXXXXXXXXXXXXXXXXXXXnTTTTTTTlXXXXXXXXXXXXXXXXXXXXXXXXXXX 8T",
"T8 XXXXXXXXXXXXXXXXXXXXXXXXXXXXX:TTTTTTTY+XXXXXXXXXXXXXXXXXXXDTTTTTTTwXXXXXXXXXXXXXXXXXXXXXXXXXXX 8T",
"T8 XXXXXXXXXXXXXXXXXXXXXXXXXXXXXXKTTTTTTT9XXXXXXXXXXXXXXXXXX#TTTTTTTT$XXXXXXXXXXXXXXXXXXXXXXXXXXX 8T",
"T8 XXXXXXXXXXXXXXXXXXXXXXXXXXXXXXMTTTTTTTlXXXXXXXXXXXXXXXXXXrTTTTTTTSXXXXXXXXXXXXXXXXXXXXXXXXXXXX 8T",
"T8 XXXXXXXXXXXXXXXXXXXXXXXXXXXXXXiTTTTTTTFXXXXXXXXXXXXXXXXXXnTTTTTTTjXXXXXXXXXXXXXXXXXXXXXXXXXXXX 8T",
"T8 XXXXXXXXXXXXXXXXXXXXXXXXXXXXXX#UTTTTTTT3XXXXXXXXXXXXXXXX$ITTTTTTT,XXXXXXXXXXXXXXXXXXXXXXXXXXXX 8T",
"T8 XXXXXXXXXXXXXXXXXXXXXXXXXXXXXXXMTTTTTTTMXXXXXXXXXXXXXXXXfTTTTTTTSXXXXXXXXXXXXXXXXXXXXXXXXXXXXX 8T",
"T8 XXXXXXXXXXXXXXXXXXXXXXXXXXXXXXX5TTTTTTTT4XXXXXXXXXXXXXX-ITTTTTTTpXXXXXXXXXXXXXXXXXXXXXXXXXXXXX 8T",
"T8 XXXXXXXXXXXXXXXXXXXXXXXXXXXXXXXXATTTTTTTG%XXXXXXXXXXXXXVTTTTTTTJ+XXXXXXXXXXXXXXXXXXXXXXXXXXXXX 8T",
"T8 XXXXXXXXXXXXXXXXXXXXXXXXXXXXXXXX6TTTTTTTTA%XXXXXXXXXXovTTTTTTTTpXXXXXXXXXXXXXXXXXXXXXXXXXXXXXX 8T",
"T8 XXXXXXXXXXXXXXXXXXXXXXXXXXXXXXXXXmTTTTTTTTG0XXXXXXXX1ATTTTTTTTAXXXXXXXXXXXXXXXXXXXXXXXXXXXXXXX 8T",
"T8 XXXXXXXXXXXXXXXXXXXXXXXXXXXXXXXXX&JTTTTTTTTTSgq219dZTTTTTTTTTI:XXXXXXXXXXXXXXXXXXXXXXXXXXXXXXX 8T",
"T8 XXXXXXXXXXXXXXXXXXXXXXXXXXXXXXXXXX4ITTTTTTTTTTTTTTTTTTTTTTTTTrXXXXXXXXXXXXXXXXXXXXXXXXXXXXXXXX 8T",
"T8 XXXXXXXXXXXXXXXXXXXXXXXXXXXXXXXXXXX0UTTTTTTTTTTTTTTTTTTTTTTTpXXXXXXXXXXXXXXXXXXXXXXXXXXXXXXXXX 8T",
"T8 XXXXXXXXXXXXXXXXXXXXXXXXXXXXXXXXXXXX3JTTTTTTTTTTTTTTTTTTTTIwXXXXXXXXXXXXXXXXXXXXXXXXXXXXXXXXXX 8T",
"T8 XXXXXXXXXXXXXXXXXXXXXXXXXXXXXXXXXXXXX=vTTTTTTTTTTTTTTTTTTV:XXXXXXXXXXXXXXXXXXXXXXXXXXXXXXXXXXX 8T",
"T8 XXXXXXXXXXXXXXXXXXXXXXXXXXXXXXXXXXXXXXX2nYTTTTTTTTTTTTTN9XXXXXXXXXXXXXXXXXXXXXXXXXXXXXXXXXXXXX 8T",
"T8 XXXXXXXXXXXXXXXXXXXXXXXXXXXXXXXXXXXXXXXXX#rcZJITTULAvu*XXXXXXXXXXXXXXXXXXXXXXXXXXXXXXXXXXXXXXX 8T",
"T8 XXXXXXXXXXXXXXXXXXXXXXXXXXXXXXXXXXXXXXXXXXXXXXXXXXXXXXXXXXXXXXXXXXXXXXXXXXXXXXXXXXXXXXXXXXXXXX 8T",
"T8 XXXXXXXXXXXXXXXXXXXXXXXXXXXXXXXXXXXXXXXXXXXXXXXXXXXXXXXXXXXXXXXXXXXXXXXXXXXXXXXXXXXXXXXXXXXXXX 8T",
"T8 XXXXXXXXXXXXXXXXXXXXXXXXXXXXXXXXXXXXXXXXXXXXXXXXXXXXXXXXXXXXXXXXXXXXXXXXXXXXXXXXXXXXXXXXXXXXXX 8T",
"T8 XXXXXXXXXXXXXXXXXXXXXXXXXXXXXXXXXXXXXXXXXXXXXXXXXXXXXXXXXXXXXXXXXXXXXXXXXXXXXXXXXXXXXXXXXXXXXX 8T",
"T8 XXXXXXXXXXXXXXXXXXXXXXXXXXXXXXXXXXXXXXXXXXXXXXXXXXXXXXXXXXXXXXXXXXXXXXXXXXXXXXXXXXXXXXXXXXXXXX 8T",
"T8 XXXXXXXXXXXXXXXXXXXXXXXXXXXXXXXXXXXXXXXXXXXXXXXXXXXXXXXXXXXXXXXXXXXXXXXXXXXXXXXXXXXXXXXXXXXXXX 8T",
"T8 XXXXXXXXXXXXXXXXXXXXXXXXXXXXXXXXXXXXXXXXXXXXXXXXXXXXXXXXXXXXXXXXXXXXXXXXXXXXXXXXXXXXXXXXXXXXXX 8T",
"T8 XXXXXXXXXXXXXXXXXXXXXXXXXXXXXXXXXXXXXXXXXXXXXXXXXXXXXXXXXXXXXXXXXXXXXXXXXXXXXXXXXXXXXXXXXXXXXX 8T",
"T8 XXXXXXXXXXXXXXXXXXXXXXXXXXXXXXXXXXXXXXXXXXXXXXXXXXXXXXXXXXXXXXXXXXXXXXXXXXXXXXXXXXXXXXXXXXXXXX 8T",
"T8 XXXXXXXXXXXXXXXXXXXXXXXXXXXXXXXXXXXXXXXXXXXXXXXXXXXXXXXXXXXXXXXXXXXXXXXXXXXXXXXXXXXXXXXXXXXXXX 8T",
"T8 XXXXXXXXXXXXXXXXXXXXXXXXXXXXXXXXXXXXXXXXXXXXXXXXXXXXXXXXXXXXXXXXXXXXXXXXXXXXXXXXXXXXXXXXXXXXXX 8T",
"T8 XXXXXXXXXXXXXXXXXXXXXXXXXXXXXXXXXXXXXXXXXXXXXXXXXXXXXXXXXXXXXXXXXXXXXXXXXXXXXXXXXXXXXXXXXXXXXX 8T",
"T8 XXXXXXXXXXXXXXXXXXXXXXXXXXXXXXXXXXXXXXXXXXXXXXXXXXXXXXXXXXXXXXXXXXXXXXXXXXXXXXXXXXXXXXXXXXXXXX 8T",
"T8 XXXXXXXXXXXXXXXXXXXXXXXXXXXXXXXXXXXXXXXXXXXXXXXXXXXXXXXXXXXXXXXXXXXXXXXXXXXXXXXXXXXXXXXXXXXXXX 8T",
"T8 XXXXXXXXXXXXXXXXXXXXXXXXXXXXXXXXXXXXXXXXXXXXXXXXXXXXXXXXXXXXXXXXXXXXXXXXXXXXXXXXXXXXXXXXXXXXXX 8T",
"T8 XXXXXXXXXXXXXXXXXXXXXXXXXXXXXXXXXXXXXXXXXXXXXXXXXXXXXXXXXXXXXXXXXXXXXXXXXXXXXXXXXXXXXXXXXXXXXX 8T",
"T8.XXXXXXXXXXXXXXXXXXXXXXXXXXXXXXXXXXXXXXXXXXXXXXXXXXXXXXXXXXXXXXXXXXXXXXXXXXXXXXXXXXXXXXXXXXXXXX 8T",
"T8                                                                                                8T",
"T78888888888888888888888888888888888888888888888888888888888888888888888888888888888888888888888887T",
"TTTTTTTTTTTTTTTTTTTTTTTTTTTTTTTTTTTTTTTTTTTTTTTTTTTTTTTTTTTTTTTTTTTTTTTTTTTTTTTTTTTTTTTTTTTTTTTTTTTT"
};
