/* XPM */
static char *o3[] = {
/* columns rows colors chars-per-pixel */
"100 100 37 1 ",
"  c #686868",
". c #727272",
"X c #767676",
"o c gray48",
"O c gray49",
"+ c #808080",
"@ c gray52",
"# c gray54",
"$ c #8D8D8D",
"% c #929292",
"& c #979797",
"* c #989898",
"= c gray62",
"- c gray64",
"; c #A5A5A5",
": c gray66",
"> c #AFAFAF",
", c gray70",
"< c #B7B7B7",
"1 c #BBBBBB",
"2 c gray74",
"3 c #C0C0C0",
"4 c #C5C5C5",
"5 c #CBCBCB",
"6 c #CDCDCD",
"7 c #D0D0D0",
"8 c gray84",
"9 c gray86",
"0 c gainsboro",
"q c gray89",
"w c #E6E6E6",
"e c gray92",
"r c gray93",
"t c gray94",
"y c gray97",
"u c #F8F8F8",
"i c white",
/* pixels */
"iiiiiiiiiiiiiiiiiiiiiiiiiiiiiiiiiiiiiiiiiiiiiiiiiiiiiiiiiiiiiiiiiiiiiiiiiiiiiiiiiiiiiiiiiiiiiiiiiiii",
"i>,,,,,,,,,,,,,,,,,,,,,,,,,,,,,,,,,,,,,,,,,,,,,,,,,,,,,,,,,,,,,,,,,,,,,,,,,,,,,,,,,,,,,,,,,,,,,,,,>i",
"i,                                                                                                ,i",
"i, .............................................................................................. ,i",
"i, .............................................................................................. ,i",
"i, .............................................................................................. ,i",
"i, .............................................................................................. ,i",
"i, .............................................................................................. ,i",
"i, .............................................................................................. ,i",
"i, .............................................................................................. ,i",
"i, .............................................................................................. ,i",
"i, .............................................................................................. ,i",
"i, .............................................................................................. ,i",
"i, .............................................................................................. ,i",
"i, .............................................................................................. ,i",
"i, .............................................................................................. ,i",
"i, .............................................................................................. ,i",
"i, .............................................................................................. ,i",
"i, .............................................................................................. ,i",
"i, .........................................X;50tuiiutq7>O....................................... ,i",
"i, .......................................#6uiiiiiiiiiiiii9=..................................... ,i",
"i, .....................................o5iiiiiiiiiiiiiiiiii9#................................... ,i",
"i, ....................................#eiiiiiiiiiiiiiiiiiiiiy;.................................. ,i",
"i, ...................................&yiiiiiiiiiiiiiiiiiiiiiii,................................. ,i",
"i, ..................................$yiiiiiiiiiiiiiiiiiiiiiiiii:................................ ,i",
"i, .................................Xeiiiiiiiiiw3-%%=1qiiiiiiiiiu#............................... ,i",
"i, .................................5iiiiiiiir-........%qiiiiiiiiw............................... ,i",
"i, ................................%iiiiiiiiqO...........7iiiiiiii,.............................. ,i",
"i, ................................0iiiiiiiro.............0iiiiiiitX............................. ,i",
"i, ...............................%iiiiiiii*..............+yiiiiiii>............................. ,i",
"i, ...............................7iiiiiii8................2iiiiiiiw............................. ,i",
"i, ..............................Xyiiiiiii&................ouiiiiiii$............................ ,i",
"i, ..............................:iiiiiiie..................7iiiiiii3............................ ,i",
"i, ..............................7iiiiiii4..................:iiiiiiiw............................ ,i",
"i, ..............................riiiiiii=..................oiiiiiiiio........................... ,i",
"i, .............................@iiiiiiiiX...................eiiiiiii;........................... ,i",
"i, .............................>iiiiiiie....................7iiiiiii4........................... ,i",
"i, .............................4iiiiiii8....................2iiiiiii9........................... ,i",
"i, .............................9iiiiiii3....................;iiiiiiir........................... ,i",
"i, .............................eiiiiiii,....................%iiiiiiii........................... ,i",
"i, .............................yiiiiiii=....................oiiiiiiii@.......................... ,i",
"i, ............................oiiiiiiii$.....................uiiiiiii=.......................... ,i",
"i, ............................%iiiiiiiiO.....................tiiiiiii>.......................... ,i",
"i, ............................=iiiiiiii......................riiiiiii<.......................... ,i",
"i, ............................:iiiiiiiu......................wiiiiiii3.......................... ,i",
"i, ............................,iiiiiiiy......................qiiiiiii5.......................... ,i",
"i, ............................<iiiiiiit......................0iiiiiii6.......................... ,i",
"i, ............................1iiiiiiir......................0iiiiiii6.......................... ,i",
"i, ............................2iiiiiiir......................0iiiiiii7.......................... ,i",
"i, ............................2iiiiiiir......................9iiiiiii8.......................... ,i",
"i, ............................2iiiiiiir......................0iiiiiii7.......................... ,i",
"i, ............................1iiiiiiir......................0iiiiiii7.......................... ,i",
"i, ............................<iiiiiiit......................0iiiiiii6.......................... ,i",
"i, ............................,iiiiiiiy......................qiiiiiii5.......................... ,i",
"i, ............................:iiiiiiiu......................wiiiiiii3.......................... ,i",
"i, ............................=iiiiiiii......................riiiiiii<.......................... ,i",
"i, ............................%iiiiiiiiO.....................tiiiiiii>.......................... ,i",
"i, ............................Oiiiiiiii$.....................uiiiiiii=.......................... ,i",
"i, .............................uiiiiiii=....................oiiiiiiii@.......................... ,i",
"i, .............................riiiiiii,....................%iiiiiiii........................... ,i",
"i, .............................0iiiiiii3....................;iiiiiiir........................... ,i",
"i, .............................5iiiiiii8....................2iiiiiii9........................... ,i",
"i, .............................>iiiiiiie....................7iiiiiii4........................... ,i",
"i, .............................#iiiiiiiuX...................eiiiiiii;........................... ,i",
"i, ..............................tiiiiiii=..................oiiiiiiiio........................... ,i",
"i, ..............................8iiiiiii4..................;iiiiiiiw............................ ,i",
"i, ..............................>iiiiiiie..................7iiiiiii3............................ ,i",
"i, ..............................ouiiiiiii&................ouiiiiiii$............................ ,i",
"i, ...............................8iiiiiii8................2iiiiiiiw............................. ,i",
"i, ...............................*iiiiiiii*..............+yiiiiiii,............................. ,i",
"i, ................................wiiiiiiiro.............0iiiiiiitX............................. ,i",
"i, ................................*iiiiiiiiqO...........7iiiiiiii,.............................. ,i",
"i, .................................8iiiiiiiir=........%qiiiiiiiiw............................... ,i",
"i, .................................Otiiiiiiiiiw2-%%=10iiiiiiiiiu#............................... ,i",
"i, ..................................&uiiiiiiiiiiiiiiiiiiiiiiiii:................................ ,i",
"i, ...................................=uiiiiiiiiiiiiiiiiiiiiiii,................................. ,i",
"i, ....................................&tiiiiiiiiiiiiiiiiiiiiy;.................................. ,i",
"i, .....................................O7iiiiiiiiiiiiiiiiii0#................................... ,i",
"i, .......................................%7uiiiiiiiiiiiii9=..................................... ,i",
"i, .........................................o:6qtuiiutq7>O....................................... ,i",
"i, .............................................................................................. ,i",
"i, .............................................................................................. ,i",
"i, .............................................................................................. ,i",
"i, .............................................................................................. ,i",
"i, .............................................................................................. ,i",
"i, .............................................................................................. ,i",
"i, .............................................................................................. ,i",
"i, .............................................................................................. ,i",
"i, .............................................................................................. ,i",
"i, .............................................................................................. ,i",
"i, .............................................................................................. ,i",
"i, .............................................................................................. ,i",
"i, .............................................................................................. ,i",
"i, .............................................................................................. ,i",
"i, .............................................................................................. ,i",
"i, .............................................................................................. ,i",
"i,O.............................................................................................. ,i",
"i,                                                                                                ,i",
"i>,,,,,,,,,,,,,,,,,,,,,,,,,,,,,,,,,,,,,,,,,,,,,,,,,,,,,,,,,,,,,,,,,,,,,,,,,,,,,,,,,,,,,,,,,,,,,,,,>i",
"iiiiiiiiiiiiiiiiiiiiiiiiiiiiiiiiiiiiiiiiiiiiiiiiiiiiiiiiiiiiiiiiiiiiiiiiiiiiiiiiiiiiiiiiiiiiiiiiiiii"
};
