/* XPM */
static char *p[] = {
/* columns rows colors chars-per-pixel */
"100 100 61 1 ",
"  c #2E0000",
". c #310D0D",
"X c #341616",
"o c #371C1C",
"O c #3D2626",
"+ c #422E2E",
"@ c #443232",
"# c #4E4040",
"$ c #524545",
"% c #544747",
"& c #574B4B",
"* c #5B4F4F",
"= c #5C5151",
"- c #655C5C",
"; c #6D6565",
": c #686868",
"> c #7B7575",
", c #7E7777",
"< c #7E7878",
"1 c #7C7C7C",
"2 c #827C7C",
"3 c #8C8787",
"4 c #8F8A8A",
"5 c #908B8B",
"6 c #938E8E",
"7 c #949090",
"8 c #9C9898",
"9 c #A39F9F",
"0 c #ABA7A7",
"q c #ADAAAA",
"w c #AFAFAF",
"e c #B2AFAF",
"r c gray70",
"t c #B4B1B1",
"y c #B8B6B6",
"u c #BAB8B8",
"i c #BCB9B9",
"p c #C0BEBE",
"a c #C3C1C1",
"s c #C5C3C3",
"d c #CBC9C9",
"f c #CECDCD",
"g c #D0CFCF",
"h c #D2D1D1",
"j c #D6D5D5",
"k c #DBDADA",
"l c #DCDBDB",
"z c #DDDCDC",
"x c #E3E2E2",
"c c #E4E3E3",
"v c #E7E7E7",
"b c #E8E7E7",
"n c #EAE9E9",
"m c #ECEBEB",
"M c #ECECEC",
"N c #F0EFEF",
"B c #F3F2F2",
"V c #F4F4F4",
"C c #F9F9F9",
"Z c #FCFBFB",
"A c white",
/* pixels */
"AAAAAAAAAAAAAAAAAAAAAAAAAAAAAAAAAAAAAAAAAAAAAAAAAAAAAAAAAAAAAAAAAAAAAAAAAAAAAAAAAAAAAAAAAAAAAAAAAAAA",
"AwrrrrrrrrrrrrrrrrrrrrrrrrrrrrrrrrrrrrrrrrrrrrrrrrrrrrrrrrrrrrrrrrrrrrrrrrrrrrrrrrrrrrrrrrrrrrrrrrwA",
"Ar::::::::::::::::::::::::::::::::::::::::::::::::::::::::::::::::::::::::::::::::::::::::::::::::rA",
"Ar:AAAAAAAAAAAAAAAAAAAAAAAAAAAAAAAAAAAAAAAAAAAAAAAAAAAAAAAAAAAAAAAAAAAAAAAAAAAAAAAAAAAAAAAAAAAAAA:rA",
"Ar:AAAAAAAAAAAAAAAAAAAAAAAAAAAAAAAAAAAAAAAAAAAAAAAAAAAAAAAAAAAAAAAAAAAAAAAAAAAAAAAAAAAAAAAAAAAAAA:rA",
"Ar:AAAAAAAAAAAAAAAAAAAAAAAAAAAAAAAAAAAAAAAAAAAAAAAAAAAAAAAAAAAAAAAAAAAAAAAAAAAAAAAAAAAAAAAAAAAAAA:rA",
"Ar:AAAAAAAAAAAAAAAAAAAAAAAAAAAAAAAAAAAAAAAAAAAAAAAAAAAAAAAAAAAAAAAAAAAAAAAAAAAAAAAAAAAAAAAAAAAAAA:rA",
"Ar:AAAAAAAAAAAAAAAAAAAAAAAAAAAAAAAAAAAAAAAAAAAAAAAAAAAAAAAAAAAAAAAAAAAAAAAAAAAAAAAAAAAAAAAAAAAAAA:rA",
"Ar:AAAAAAAAAAAAAAAAAAAAAAAAAAAAAAAAAAAAAAAAAAAAAAAAAAAAAAAAAAAAAAAAAAAAAAAAAAAAAAAAAAAAAAAAAAAAAA:rA",
"Ar:AAAAAAAAAAAAAAAAAAAAAAAAAAAAAAAAAAAAAAAAAAAAAAAAAAAAAAAAAAAAAAAAAAAAAAAAAAAAAAAAAAAAAAAAAAAAAA:rA",
"Ar:AAAAAAAAAAAAAAAAAAAAAAAAAAAAAAAAAAAAAAAAAAAAAAAAAAAAAAAAAAAAAAAAAAAAAAAAAAAAAAAAAAAAAAAAAAAAAA:rA",
"Ar:AAAAAAAAAAAAAAAAAAAAAAAAAAAAAAAAAAAAAAAAAAAAAAAAAAAAAAAAAAAAAAAAAAAAAAAAAAAAAAAAAAAAAAAAAAAAAA:rA",
"Ar:AAAAAAAAAAAAAAAAAAAAAAAAAAAAAAAAAAAAAAAAAAAAAAAAAAAAAAAAAAAAAAAAAAAAAAAAAAAAAAAAAAAAAAAAAAAAAA:rA",
"Ar:AAAAAAAAAAAAAAAAAAAAAAAAAAAAAAAAAAAAAAAAAAAAAAAAAAAAAAAAAAAAAAAAAAAAAAAAAAAAAAAAAAAAAAAAAAAAAA:rA",
"Ar:AAAAAAAAAAAAAAAAAAAAAAAAAAAAAAAAAAAAAAAAAAAAAAAAAAAAAAAAAAAAAAAAAAAAAAAAAAAAAAAAAAAAAAAAAAAAAA:rA",
"Ar:AAAAAAAAAAAAAAAAAAAAAAAAAAAAAAAAAAAAAAAAAAAAAAAAAAAAAAAAAAAAAAAAAAAAAAAAAAAAAAAAAAAAAAAAAAAAAA:rA",
"Ar:AAAAAAAAAAAAAAAAAAAAAAAAAAAAAAAAAAAAAAAAAAAAAAAAAAAAAAAAAAAAAAAAAAAAAAAAAAAAAAAAAAAAAAAAAAAAAA:rA",
"Ar:AAAAAAAAAAAAAAAAAAAAAAAAAAAAAAAAAAAAAAAAAAAAAAAAAAAAAAAAAAAAAAAAAAAAAAAAAAAAAAAAAAAAAAAAAAAAAA:rA",
"Ar:AAAAAAAAAAAAAAAAAAAAAAAAAAAAAAAAAAAAAAAAAAAAAAAAAAAAAAAAAAAAAAAAAAAAAAAAAAAAAAAAAAAAAAAAAAAAAA:rA",
"Ar:AAAAAAAAAAAAAAAAAAAAAAAAAAAAAAAAAAAAAAAAAAAAAAAAAAAAAAAAAAAAAAAAAAAAAAAAAAAAAAAAAAAAAAAAAAAAAA:rA",
"Ar:AAAAAAAAAAAAAAAAAAAAAAAAAAAAAAz                 O#-28ujVAAAAAAAAAAAAAAAAAAAAAAAAAAAAAAAAAAAAAA:rA",
"Ar:AAAAAAAAAAAAAAAAAAAAAAAAAAAAAAz                         ,aVAAAAAAAAAAAAAAAAAAAAAAAAAAAAAAAAAAA:rA",
"Ar:AAAAAAAAAAAAAAAAAAAAAAAAAAAAAAz                           +qVAAAAAAAAAAAAAAAAAAAAAAAAAAAAAAAAA:rA",
"Ar:AAAAAAAAAAAAAAAAAAAAAAAAAAAAAAz                             $hAAAAAAAAAAAAAAAAAAAAAAAAAAAAAAAA:rA",
"Ar:AAAAAAAAAAAAAAAAAAAAAAAAAAAAAAz                               wAAAAAAAAAAAAAAAAAAAAAAAAAAAAAAA:rA",
"Ar:AAAAAAAAAAAAAAAAAAAAAAAAAAAAAAz                                qAAAAAAAAAAAAAAAAAAAAAAAAAAAAAA:rA",
"Ar:AAAAAAAAAAAAAAAAAAAAAAAAAAAAAAz       9BBBBBBBBBMxje>           dAAAAAAAAAAAAAAAAAAAAAAAAAAAAA:rA",
"Ar:AAAAAAAAAAAAAAAAAAAAAAAAAAAAAAz       0AAAAAAAAAAAAAAx6         +NAAAAAAAAAAAAAAAAAAAAAAAAAAAA:rA",
"Ar:AAAAAAAAAAAAAAAAAAAAAAAAAAAAAAz       0AAAAAAAAAAAAAAAAso        8AAAAAAAAAAAAAAAAAAAAAAAAAAAA:rA",
"Ar:AAAAAAAAAAAAAAAAAAAAAAAAAAAAAAz       0AAAAAAAAAAAAAAAAAh        XBAAAAAAAAAAAAAAAAAAAAAAAAAAA:rA",
"Ar:AAAAAAAAAAAAAAAAAAAAAAAAAAAAAAz       0AAAAAAAAAAAAAAAAAAe        iAAAAAAAAAAAAAAAAAAAAAAAAAAA:rA",
"Ar:AAAAAAAAAAAAAAAAAAAAAAAAAAAAAAz       0AAAAAAAAAAAAAAAAAAC%       <AAAAAAAAAAAAAAAAAAAAAAAAAAA:rA",
"Ar:AAAAAAAAAAAAAAAAAAAAAAAAAAAAAAz       0AAAAAAAAAAAAAAAAAAAu       .CAAAAAAAAAAAAAAAAAAAAAAAAAA:rA",
"Ar:AAAAAAAAAAAAAAAAAAAAAAAAAAAAAAz       0AAAAAAAAAAAAAAAAAAAv        xAAAAAAAAAAAAAAAAAAAAAAAAAA:rA",
"Ar:AAAAAAAAAAAAAAAAAAAAAAAAAAAAAAz       0AAAAAAAAAAAAAAAAAAAA$       fAAAAAAAAAAAAAAAAAAAAAAAAAA:rA",
"Ar:AAAAAAAAAAAAAAAAAAAAAAAAAAAAAAz       0AAAAAAAAAAAAAAAAAAAA2       iAAAAAAAAAAAAAAAAAAAAAAAAAA:rA",
"Ar:AAAAAAAAAAAAAAAAAAAAAAAAAAAAAAz       0AAAAAAAAAAAAAAAAAAAA7       tAAAAAAAAAAAAAAAAAAAAAAAAAA:rA",
"Ar:AAAAAAAAAAAAAAAAAAAAAAAAAAAAAAz       0AAAAAAAAAAAAAAAAAAAA9       eAAAAAAAAAAAAAAAAAAAAAAAAAA:rA",
"Ar:AAAAAAAAAAAAAAAAAAAAAAAAAAAAAAz       0AAAAAAAAAAAAAAAAAAAA7       tAAAAAAAAAAAAAAAAAAAAAAAAAA:rA",
"Ar:AAAAAAAAAAAAAAAAAAAAAAAAAAAAAAz       0AAAAAAAAAAAAAAAAAAAA2       uAAAAAAAAAAAAAAAAAAAAAAAAAA:rA",
"Ar:AAAAAAAAAAAAAAAAAAAAAAAAAAAAAAz       0AAAAAAAAAAAAAAAAAAAA&       dAAAAAAAAAAAAAAAAAAAAAAAAAA:rA",
"Ar:AAAAAAAAAAAAAAAAAAAAAAAAAAAAAAz       0AAAAAAAAAAAAAAAAAAAn        lAAAAAAAAAAAAAAAAAAAAAAAAAA:rA",
"Ar:AAAAAAAAAAAAAAAAAAAAAAAAAAAAAAz       0AAAAAAAAAAAAAAAAAAAp        VAAAAAAAAAAAAAAAAAAAAAAAAAA:rA",
"Ar:AAAAAAAAAAAAAAAAAAAAAAAAAAAAAAz       0AAAAAAAAAAAAAAAAAAC=       ;AAAAAAAAAAAAAAAAAAAAAAAAAAA:rA",
"Ar:AAAAAAAAAAAAAAAAAAAAAAAAAAAAAAz       0AAAAAAAAAAAAAAAAAAi        tAAAAAAAAAAAAAAAAAAAAAAAAAAA:rA",
"Ar:AAAAAAAAAAAAAAAAAAAAAAAAAAAAAAz       0AAAAAAAAAAAAAAAAAk.        nAAAAAAAAAAAAAAAAAAAAAAAAAAA:rA",
"Ar:AAAAAAAAAAAAAAAAAAAAAAAAAAAAAAz       0AAAAAAAAAAAAAAAAg@        4AAAAAAAAAAAAAAAAAAAAAAAAAAAA:rA",
"Ar:AAAAAAAAAAAAAAAAAAAAAAAAAAAAAAz       0AAAAAAAAAAAAAAm9         XbAAAAAAAAAAAAAAAAAAAAAAAAAAAA:rA",
"Ar:AAAAAAAAAAAAAAAAAAAAAAAAAAAAAAz       0AAAAAAAAACBva5.          yAAAAAAAAAAAAAAAAAAAAAAAAAAAAA:rA",
"Ar:AAAAAAAAAAAAAAAAAAAAAAAAAAAAAAz                                7AAAAAAAAAAAAAAAAAAAAAAAAAAAAAA:rA",
"Ar:AAAAAAAAAAAAAAAAAAAAAAAAAAAAAAz                               7ZAAAAAAAAAAAAAAAAAAAAAAAAAAAAAA:rA",
"Ar:AAAAAAAAAAAAAAAAAAAAAAAAAAAAAAz                             XyAAAAAAAAAAAAAAAAAAAAAAAAAAAAAAAA:rA",
"Ar:AAAAAAAAAAAAAAAAAAAAAAAAAAAAAAz                            3bAAAAAAAAAAAAAAAAAAAAAAAAAAAAAAAAA:rA",
"Ar:AAAAAAAAAAAAAAAAAAAAAAAAAAAAAAz                         $0vAAAAAAAAAAAAAAAAAAAAAAAAAAAAAAAAAAA:rA",
"Ar:AAAAAAAAAAAAAAAAAAAAAAAAAAAAAAz                   .*<9acAAAAAAAAAAAAAAAAAAAAAAAAAAAAAAAAAAAAAA:rA",
"Ar:AAAAAAAAAAAAAAAAAAAAAAAAAAAAAAz       9BBBBBBBBBVCAAAAAAAAAAAAAAAAAAAAAAAAAAAAAAAAAAAAAAAAAAAA:rA",
"Ar:AAAAAAAAAAAAAAAAAAAAAAAAAAAAAAz       0AAAAAAAAAAAAAAAAAAAAAAAAAAAAAAAAAAAAAAAAAAAAAAAAAAAAAAA:rA",
"Ar:AAAAAAAAAAAAAAAAAAAAAAAAAAAAAAz       0AAAAAAAAAAAAAAAAAAAAAAAAAAAAAAAAAAAAAAAAAAAAAAAAAAAAAAA:rA",
"Ar:AAAAAAAAAAAAAAAAAAAAAAAAAAAAAAz       0AAAAAAAAAAAAAAAAAAAAAAAAAAAAAAAAAAAAAAAAAAAAAAAAAAAAAAA:rA",
"Ar:AAAAAAAAAAAAAAAAAAAAAAAAAAAAAAz       0AAAAAAAAAAAAAAAAAAAAAAAAAAAAAAAAAAAAAAAAAAAAAAAAAAAAAAA:rA",
"Ar:AAAAAAAAAAAAAAAAAAAAAAAAAAAAAAz       0AAAAAAAAAAAAAAAAAAAAAAAAAAAAAAAAAAAAAAAAAAAAAAAAAAAAAAA:rA",
"Ar:AAAAAAAAAAAAAAAAAAAAAAAAAAAAAAz       0AAAAAAAAAAAAAAAAAAAAAAAAAAAAAAAAAAAAAAAAAAAAAAAAAAAAAAA:rA",
"Ar:AAAAAAAAAAAAAAAAAAAAAAAAAAAAAAz       0AAAAAAAAAAAAAAAAAAAAAAAAAAAAAAAAAAAAAAAAAAAAAAAAAAAAAAA:rA",
"Ar:AAAAAAAAAAAAAAAAAAAAAAAAAAAAAAz       0AAAAAAAAAAAAAAAAAAAAAAAAAAAAAAAAAAAAAAAAAAAAAAAAAAAAAAA:rA",
"Ar:AAAAAAAAAAAAAAAAAAAAAAAAAAAAAAz       0AAAAAAAAAAAAAAAAAAAAAAAAAAAAAAAAAAAAAAAAAAAAAAAAAAAAAAA:rA",
"Ar:AAAAAAAAAAAAAAAAAAAAAAAAAAAAAAz       0AAAAAAAAAAAAAAAAAAAAAAAAAAAAAAAAAAAAAAAAAAAAAAAAAAAAAAA:rA",
"Ar:AAAAAAAAAAAAAAAAAAAAAAAAAAAAAAz       0AAAAAAAAAAAAAAAAAAAAAAAAAAAAAAAAAAAAAAAAAAAAAAAAAAAAAAA:rA",
"Ar:AAAAAAAAAAAAAAAAAAAAAAAAAAAAAAz       0AAAAAAAAAAAAAAAAAAAAAAAAAAAAAAAAAAAAAAAAAAAAAAAAAAAAAAA:rA",
"Ar:AAAAAAAAAAAAAAAAAAAAAAAAAAAAAAz       0AAAAAAAAAAAAAAAAAAAAAAAAAAAAAAAAAAAAAAAAAAAAAAAAAAAAAAA:rA",
"Ar:AAAAAAAAAAAAAAAAAAAAAAAAAAAAAAz       0AAAAAAAAAAAAAAAAAAAAAAAAAAAAAAAAAAAAAAAAAAAAAAAAAAAAAAA:rA",
"Ar:AAAAAAAAAAAAAAAAAAAAAAAAAAAAAAz       0AAAAAAAAAAAAAAAAAAAAAAAAAAAAAAAAAAAAAAAAAAAAAAAAAAAAAAA:rA",
"Ar:AAAAAAAAAAAAAAAAAAAAAAAAAAAAAAz       0AAAAAAAAAAAAAAAAAAAAAAAAAAAAAAAAAAAAAAAAAAAAAAAAAAAAAAA:rA",
"Ar:AAAAAAAAAAAAAAAAAAAAAAAAAAAAAAz       0AAAAAAAAAAAAAAAAAAAAAAAAAAAAAAAAAAAAAAAAAAAAAAAAAAAAAAA:rA",
"Ar:AAAAAAAAAAAAAAAAAAAAAAAAAAAAAAz       0AAAAAAAAAAAAAAAAAAAAAAAAAAAAAAAAAAAAAAAAAAAAAAAAAAAAAAA:rA",
"Ar:AAAAAAAAAAAAAAAAAAAAAAAAAAAAAAz       0AAAAAAAAAAAAAAAAAAAAAAAAAAAAAAAAAAAAAAAAAAAAAAAAAAAAAAA:rA",
"Ar:AAAAAAAAAAAAAAAAAAAAAAAAAAAAAAz       0AAAAAAAAAAAAAAAAAAAAAAAAAAAAAAAAAAAAAAAAAAAAAAAAAAAAAAA:rA",
"Ar:AAAAAAAAAAAAAAAAAAAAAAAAAAAAAAz       0AAAAAAAAAAAAAAAAAAAAAAAAAAAAAAAAAAAAAAAAAAAAAAAAAAAAAAA:rA",
"Ar:AAAAAAAAAAAAAAAAAAAAAAAAAAAAAAz       0AAAAAAAAAAAAAAAAAAAAAAAAAAAAAAAAAAAAAAAAAAAAAAAAAAAAAAA:rA",
"Ar:AAAAAAAAAAAAAAAAAAAAAAAAAAAAAAz       0AAAAAAAAAAAAAAAAAAAAAAAAAAAAAAAAAAAAAAAAAAAAAAAAAAAAAAA:rA",
"Ar:AAAAAAAAAAAAAAAAAAAAAAAAAAAAAAAAAAAAAAAAAAAAAAAAAAAAAAAAAAAAAAAAAAAAAAAAAAAAAAAAAAAAAAAAAAAAAA:rA",
"Ar:AAAAAAAAAAAAAAAAAAAAAAAAAAAAAAAAAAAAAAAAAAAAAAAAAAAAAAAAAAAAAAAAAAAAAAAAAAAAAAAAAAAAAAAAAAAAAA:rA",
"Ar:AAAAAAAAAAAAAAAAAAAAAAAAAAAAAAAAAAAAAAAAAAAAAAAAAAAAAAAAAAAAAAAAAAAAAAAAAAAAAAAAAAAAAAAAAAAAAA:rA",
"Ar:AAAAAAAAAAAAAAAAAAAAAAAAAAAAAAAAAAAAAAAAAAAAAAAAAAAAAAAAAAAAAAAAAAAAAAAAAAAAAAAAAAAAAAAAAAAAAA:rA",
"Ar:AAAAAAAAAAAAAAAAAAAAAAAAAAAAAAAAAAAAAAAAAAAAAAAAAAAAAAAAAAAAAAAAAAAAAAAAAAAAAAAAAAAAAAAAAAAAAA:rA",
"Ar:AAAAAAAAAAAAAAAAAAAAAAAAAAAAAAAAAAAAAAAAAAAAAAAAAAAAAAAAAAAAAAAAAAAAAAAAAAAAAAAAAAAAAAAAAAAAAA:rA",
"Ar:AAAAAAAAAAAAAAAAAAAAAAAAAAAAAAAAAAAAAAAAAAAAAAAAAAAAAAAAAAAAAAAAAAAAAAAAAAAAAAAAAAAAAAAAAAAAAA:rA",
"Ar:AAAAAAAAAAAAAAAAAAAAAAAAAAAAAAAAAAAAAAAAAAAAAAAAAAAAAAAAAAAAAAAAAAAAAAAAAAAAAAAAAAAAAAAAAAAAAA:rA",
"Ar:AAAAAAAAAAAAAAAAAAAAAAAAAAAAAAAAAAAAAAAAAAAAAAAAAAAAAAAAAAAAAAAAAAAAAAAAAAAAAAAAAAAAAAAAAAAAAA:rA",
"Ar:AAAAAAAAAAAAAAAAAAAAAAAAAAAAAAAAAAAAAAAAAAAAAAAAAAAAAAAAAAAAAAAAAAAAAAAAAAAAAAAAAAAAAAAAAAAAAA:rA",
"Ar:AAAAAAAAAAAAAAAAAAAAAAAAAAAAAAAAAAAAAAAAAAAAAAAAAAAAAAAAAAAAAAAAAAAAAAAAAAAAAAAAAAAAAAAAAAAAAA:rA",
"Ar:AAAAAAAAAAAAAAAAAAAAAAAAAAAAAAAAAAAAAAAAAAAAAAAAAAAAAAAAAAAAAAAAAAAAAAAAAAAAAAAAAAAAAAAAAAAAAA:rA",
"Ar:AAAAAAAAAAAAAAAAAAAAAAAAAAAAAAAAAAAAAAAAAAAAAAAAAAAAAAAAAAAAAAAAAAAAAAAAAAAAAAAAAAAAAAAAAAAAAA:rA",
"Ar:AAAAAAAAAAAAAAAAAAAAAAAAAAAAAAAAAAAAAAAAAAAAAAAAAAAAAAAAAAAAAAAAAAAAAAAAAAAAAAAAAAAAAAAAAAAAAA:rA",
"Ar:AAAAAAAAAAAAAAAAAAAAAAAAAAAAAAAAAAAAAAAAAAAAAAAAAAAAAAAAAAAAAAAAAAAAAAAAAAAAAAAAAAAAAAAAAAAAAA:rA",
"Ar:AAAAAAAAAAAAAAAAAAAAAAAAAAAAAAAAAAAAAAAAAAAAAAAAAAAAAAAAAAAAAAAAAAAAAAAAAAAAAAAAAAAAAAAAAAAAAA:rA",
"Ar:AAAAAAAAAAAAAAAAAAAAAAAAAAAAAAAAAAAAAAAAAAAAAAAAAAAAAAAAAAAAAAAAAAAAAAAAAAAAAAAAAAAAAAAAAAAAAA:rA",
"Ar1AAAAAAAAAAAAAAAAAAAAAAAAAAAAAAAAAAAAAAAAAAAAAAAAAAAAAAAAAAAAAAAAAAAAAAAAAAAAAAAAAAAAAAAAAAAAAA:rA",
"Ar::::::::::::::::::::::::::::::::::::::::::::::::::::::::::::::::::::::::::::::::::::::::::::::::rA",
"AwrrrrrrrrrrrrrrrrrrrrrrrrrrrrrrrrrrrrrrrrrrrrrrrrrrrrrrrrrrrrrrrrrrrrrrrrrrrrrrrrrrrrrrrrrrrrrrrrwA",
"AAAAAAAAAAAAAAAAAAAAAAAAAAAAAAAAAAAAAAAAAAAAAAAAAAAAAAAAAAAAAAAAAAAAAAAAAAAAAAAAAAAAAAAAAAAAAAAAAAAA"
};
