/* XPM */
static char *p1[] = {
/* columns rows colors chars-per-pixel */
"100 100 59 1 ",
"  c #686868",
". c #7C7C7C",
"X c #348032",
"o c #378135",
"O c #3C823B",
"+ c #3F833D",
"@ c #418440",
"# c #488747",
"$ c #4C884B",
"% c #538B52",
"& c #578D56",
"* c #60915F",
"= c #639362",
"- c #679567",
"; c #699568",
": c #6E986D",
"> c #709970",
", c #7A9F79",
"< c #7FA27E",
"1 c #83A483",
"2 c #84A584",
"3 c #8AA989",
"4 c #8CAA8B",
"5 c #8DAA8C",
"6 c #90AD90",
"7 c #96B196",
"8 c #9BB39A",
"9 c #AFAFAF",
"0 c #A2B8A1",
"q c #A7BCA7",
"w c #A9BDA9",
"e c #ACBFAC",
"r c gray70",
"t c #B0C2B0",
"y c #B7C7B7",
"u c #B9C9B9",
"i c #BCCBBC",
"p c #BFCDBE",
"a c #C2CFC2",
"s c #C4D0C3",
"d c #C7D3C7",
"f c #C9D4C9",
"g c #CCD7CC",
"h c #CDD8CD",
"j c #D0DAD0",
"k c #D5DDD5",
"l c #D7E0D7",
"z c #D9E1D9",
"x c #DFE6DF",
"c c #E1E7E1",
"v c #E3E8E3",
"b c #E7ECE7",
"n c #E8ECE7",
"m c #E8EDE8",
"M c #F0F3F0",
"N c #F3F5F3",
"B c #F7F9F7",
"V c #F9FAF9",
"C c white",
/* pixels */
"CCCCCCCCCCCCCCCCCCCCCCCCCCCCCCCCCCCCCCCCCCCCCCCCCCCCCCCCCCCCCCCCCCCCCCCCCCCCCCCCCCCCCCCCCCCCCCCCCCCC",
"C9rrrrrrrrrrrrrrrrrrrrrrrrrrrrrrrrrrrrrrrrrrrrrrrrrrrrrrrrrrrrrrrrrrrrrrrrrrrrrrrrrrrrrrrrrrrrrrrr9C",
"Cr                                                                                                rC",
"Cr XXXXXXXXXXXXXXXXXXXXXXXXXXXXXXXXXXXXXXXXXXXXXXXXXXXXXXXXXXXXXXXXXXXXXXXXXXXXXXXXXXXXXXXXXXXXXX rC",
"Cr XXXXXXXXXXXXXXXXXXXXXXXXXXXXXXXXXXXXXXXXXXXXXXXXXXXXXXXXXXXXXXXXXXXXXXXXXXXXXXXXXXXXXXXXXXXXXX rC",
"Cr XXXXXXXXXXXXXXXXXXXXXXXXXXXXXXXXXXXXXXXXXXXXXXXXXXXXXXXXXXXXXXXXXXXXXXXXXXXXXXXXXXXXXXXXXXXXXX rC",
"Cr XXXXXXXXXXXXXXXXXXXXXXXXXXXXXXXXXXXXXXXXXXXXXXXXXXXXXXXXXXXXXXXXXXXXXXXXXXXXXXXXXXXXXXXXXXXXXX rC",
"Cr XXXXXXXXXXXXXXXXXXXXXXXXXXXXXXXXXXXXXXXXXXXXXXXXXXXXXXXXXXXXXXXXXXXXXXXXXXXXXXXXXXXXXXXXXXXXXX rC",
"Cr XXXXXXXXXXXXXXXXXXXXXXXXXXXXXXXXXXXXXXXXXXXXXXXXXXXXXXXXXXXXXXXXXXXXXXXXXXXXXXXXXXXXXXXXXXXXXX rC",
"Cr XXXXXXXXXXXXXXXXXXXXXXXXXXXXXXXXXXXXXXXXXXXXXXXXXXXXXXXXXXXXXXXXXXXXXXXXXXXXXXXXXXXXXXXXXXXXXX rC",
"Cr XXXXXXXXXXXXXXXXXXXXXXXXXXXXXXXXXXXXXXXXXXXXXXXXXXXXXXXXXXXXXXXXXXXXXXXXXXXXXXXXXXXXXXXXXXXXXX rC",
"Cr XXXXXXXXXXXXXXXXXXXXXXXXXXXXXXXXXXXXXXXXXXXXXXXXXXXXXXXXXXXXXXXXXXXXXXXXXXXXXXXXXXXXXXXXXXXXXX rC",
"Cr XXXXXXXXXXXXXXXXXXXXXXXXXXXXXXXXXXXXXXXXXXXXXXXXXXXXXXXXXXXXXXXXXXXXXXXXXXXXXXXXXXXXXXXXXXXXXX rC",
"Cr XXXXXXXXXXXXXXXXXXXXXXXXXXXXXXXXXXXXXXXXXXXXXXXXXXXXXXXXXXXXXXXXXXXXXXXXXXXXXXXXXXXXXXXXXXXXXX rC",
"Cr XXXXXXXXXXXXXXXXXXXXXXXXXXXXXXXXXXXXXXXXXXXXXXXXXXXXXXXXXXXXXXXXXXXXXXXXXXXXXXXXXXXXXXXXXXXXXX rC",
"Cr XXXXXXXXXXXXXXXXXXXXXXXXXXXXXXXXXXXXXXXXXXXXXXXXXXXXXXXXXXXXXXXXXXXXXXXXXXXXXXXXXXXXXXXXXXXXXX rC",
"Cr XXXXXXXXXXXXXXXXXXXXXXXXXXXXXXXXXXXXXXXXXXXXXXXXXXXXXXXXXXXXXXXXXXXXXXXXXXXXXXXXXXXXXXXXXXXXXX rC",
"Cr XXXXXXXXXXXXXXXXXXXXXXXXXXXXXXXXXXXXXXXXXXXXXXXXXXXXXXXXXXXXXXXXXXXXXXXXXXXXXXXXXXXXXXXXXXXXXX rC",
"Cr XXXXXXXXXXXXXXXXXXXXXXXXXXXXXXXXXXXXXXXXXXXXXXXXXXXXXXXXXXXXXXXXXXXXXXXXXXXXXXXXXXXXXXXXXXXXXX rC",
"Cr XXXXXXXXXXXXXXXXXXXXXXXXXXXXXXXXXXXXXXXXXXXXXXXXXXXXXXXXXXXXXXXXXXXXXXXXXXXXXXXXXXXXXXXXXXXXXX rC",
"Cr XXXXXXXXXXXXXXXXXXXXXXXXXXXXXX7CCCCCCCCCCCCCCCCCCVNmza0=XXXXXXXXXXXXXXXXXXXXXXXXXXXXXXXXXXXXXX rC",
"Cr XXXXXXXXXXXXXXXXXXXXXXXXXXXXXX7CCCCCCCCCCCCCCCCCCCCCCCCCmu=XXXXXXXXXXXXXXXXXXXXXXXXXXXXXXXXXXX rC",
"Cr XXXXXXXXXXXXXXXXXXXXXXXXXXXXXX7CCCCCCCCCCCCCCCCCCCCCCCCCCCCh*XXXXXXXXXXXXXXXXXXXXXXXXXXXXXXXXX rC",
"Cr XXXXXXXXXXXXXXXXXXXXXXXXXXXXXX7CCCCCCCCCCCCCCCCCCCCCCCCCCCCCVwXXXXXXXXXXXXXXXXXXXXXXXXXXXXXXXX rC",
"Cr XXXXXXXXXXXXXXXXXXXXXXXXXXXXXX7CCCCCCCCCCCCCCCCCCCCCCCCCCCCCCCgoXXXXXXXXXXXXXXXXXXXXXXXXXXXXXX rC",
"Cr XXXXXXXXXXXXXXXXXXXXXXXXXXXXXX7CCCCCCCCCCCCCCCCCCCCCCCCCCCCCCCChXXXXXXXXXXXXXXXXXXXXXXXXXXXXXX rC",
"Cr XXXXXXXXXXXXXXXXXXXXXXXXXXXXXX7CCCCCCCk;;;;;;;;;,40fmCCCCCCCCCCCtXXXXXXXXXXXXXXXXXXXXXXXXXXXXX rC",
"Cr XXXXXXXXXXXXXXXXXXXXXXXXXXXXXX7CCCCCCChXXXXXXXXXXXXXX5xCCCCCCCCCC>XXXXXXXXXXXXXXXXXXXXXXXXXXXX rC",
"Cr XXXXXXXXXXXXXXXXXXXXXXXXXXXXXX7CCCCCCChXXXXXXXXXXXXXXXXyCCCCCCCCClXXXXXXXXXXXXXXXXXXXXXXXXXXXX rC",
"Cr XXXXXXXXXXXXXXXXXXXXXXXXXXXXXX7CCCCCCChXXXXXXXXXXXXXXXXXqCCCCCCCCC:XXXXXXXXXXXXXXXXXXXXXXXXXXX rC",
"Cr XXXXXXXXXXXXXXXXXXXXXXXXXXXXXX7CCCCCCChXXXXXXXXXXXXXXXXXXfCCCCCCCCpXXXXXXXXXXXXXXXXXXXXXXXXXXX rC",
"Cr XXXXXXXXXXXXXXXXXXXXXXXXXXXXXX7CCCCCCChXXXXXXXXXXXXXXXXXX%VCCCCCCCmXXXXXXXXXXXXXXXXXXXXXXXXXXX rC",
"Cr XXXXXXXXXXXXXXXXXXXXXXXXXXXXXX7CCCCCCChXXXXXXXXXXXXXXXXXXXaCCCCCCCC&XXXXXXXXXXXXXXXXXXXXXXXXXX rC",
"Cr XXXXXXXXXXXXXXXXXXXXXXXXXXXXXX7CCCCCCChXXXXXXXXXXXXXXXXXXX2CCCCCCCC6XXXXXXXXXXXXXXXXXXXXXXXXXX rC",
"Cr XXXXXXXXXXXXXXXXXXXXXXXXXXXXXX7CCCCCCChXXXXXXXXXXXXXXXXXXXOVCCCCCCCeXXXXXXXXXXXXXXXXXXXXXXXXXX rC",
"Cr XXXXXXXXXXXXXXXXXXXXXXXXXXXXXX7CCCCCCChXXXXXXXXXXXXXXXXXXXXnCCCCCCCpXXXXXXXXXXXXXXXXXXXXXXXXXX rC",
"Cr XXXXXXXXXXXXXXXXXXXXXXXXXXXXXX7CCCCCCChXXXXXXXXXXXXXXXXXXXXxCCCCCCCdXXXXXXXXXXXXXXXXXXXXXXXXXX rC",
"Cr XXXXXXXXXXXXXXXXXXXXXXXXXXXXXX7CCCCCCChXXXXXXXXXXXXXXXXXXXXkCCCCCCCfXXXXXXXXXXXXXXXXXXXXXXXXXX rC",
"Cr XXXXXXXXXXXXXXXXXXXXXXXXXXXXXX7CCCCCCChXXXXXXXXXXXXXXXXXXXXxCCCCCCCdXXXXXXXXXXXXXXXXXXXXXXXXXX rC",
"Cr XXXXXXXXXXXXXXXXXXXXXXXXXXXXXX7CCCCCCChXXXXXXXXXXXXXXXXXXXXbCCCCCCCaXXXXXXXXXXXXXXXXXXXXXXXXXX rC",
"Cr XXXXXXXXXXXXXXXXXXXXXXXXXXXXXX7CCCCCCChXXXXXXXXXXXXXXXXXXXoBCCCCCCCtXXXXXXXXXXXXXXXXXXXXXXXXXX rC",
"Cr XXXXXXXXXXXXXXXXXXXXXXXXXXXXXX7CCCCCCChXXXXXXXXXXXXXXXXXXX<CCCCCCCC8XXXXXXXXXXXXXXXXXXXXXXXXXX rC",
"Cr XXXXXXXXXXXXXXXXXXXXXXXXXXXXXX7CCCCCCChXXXXXXXXXXXXXXXXXXXiCCCCCCCC=XXXXXXXXXXXXXXXXXXXXXXXXXX rC",
"Cr XXXXXXXXXXXXXXXXXXXXXXXXXXXXXX7CCCCCCChXXXXXXXXXXXXXXXXXX$BCCCCCCCMXXXXXXXXXXXXXXXXXXXXXXXXXXX rC",
"Cr XXXXXXXXXXXXXXXXXXXXXXXXXXXXXX7CCCCCCChXXXXXXXXXXXXXXXXXXaCCCCCCCCfXXXXXXXXXXXXXXXXXXXXXXXXXXX rC",
"Cr XXXXXXXXXXXXXXXXXXXXXXXXXXXXXX7CCCCCCChXXXXXXXXXXXXXXXXX8CCCCCCCCC1XXXXXXXXXXXXXXXXXXXXXXXXXXX rC",
"Cr XXXXXXXXXXXXXXXXXXXXXXXXXXXXXX7CCCCCCChXXXXXXXXXXXXXXXXwCCCCCCCCCcXXXXXXXXXXXXXXXXXXXXXXXXXXXX rC",
"Cr XXXXXXXXXXXXXXXXXXXXXXXXXXXXXX7CCCCCCChXXXXXXXXXXXXXX,kCCCCCCCCCC1XXXXXXXXXXXXXXXXXXXXXXXXXXXX rC",
"Cr XXXXXXXXXXXXXXXXXXXXXXXXXXXXXX7CCCCCCChXXXXXXXXX%:3ucCCCCCCCCCCCsXXXXXXXXXXXXXXXXXXXXXXXXXXXXX rC",
"Cr XXXXXXXXXXXXXXXXXXXXXXXXXXXXXX7CCCCCCCCCCCCCCCCCCCCCCCCCCCCCCCCxOXXXXXXXXXXXXXXXXXXXXXXXXXXXXX rC",
"Cr XXXXXXXXXXXXXXXXXXXXXXXXXXXXXX7CCCCCCCCCCCCCCCCCCCCCCCCCCCCCCCx#XXXXXXXXXXXXXXXXXXXXXXXXXXXXXX rC",
"Cr XXXXXXXXXXXXXXXXXXXXXXXXXXXXXX7CCCCCCCCCCCCCCCCCCCCCCCCCCCCCCsOXXXXXXXXXXXXXXXXXXXXXXXXXXXXXXX rC",
"Cr XXXXXXXXXXXXXXXXXXXXXXXXXXXXXX7CCCCCCCCCCCCCCCCCCCCCCCCCCCCv1XXXXXXXXXXXXXXXXXXXXXXXXXXXXXXXXX rC",
"Cr XXXXXXXXXXXXXXXXXXXXXXXXXXXXXX7CCCCCCCCCCCCCCCCCCCCCCCCCVj3XXXXXXXXXXXXXXXXXXXXXXXXXXXXXXXXXXX rC",
"Cr XXXXXXXXXXXXXXXXXXXXXXXXXXXXXX7CCCCCCCCCCCCCCCCCCCCBmku3@XXXXXXXXXXXXXXXXXXXXXXXXXXXXXXXXXXXXX rC",
"Cr XXXXXXXXXXXXXXXXXXXXXXXXXXXXXX7CCCCCCCk;;;;;;;;-=&+XXXXXXXXXXXXXXXXXXXXXXXXXXXXXXXXXXXXXXXXXXX rC",
"Cr XXXXXXXXXXXXXXXXXXXXXXXXXXXXXX7CCCCCCChXXXXXXXXXXXXXXXXXXXXXXXXXXXXXXXXXXXXXXXXXXXXXXXXXXXXXXX rC",
"Cr XXXXXXXXXXXXXXXXXXXXXXXXXXXXXX7CCCCCCChXXXXXXXXXXXXXXXXXXXXXXXXXXXXXXXXXXXXXXXXXXXXXXXXXXXXXXX rC",
"Cr XXXXXXXXXXXXXXXXXXXXXXXXXXXXXX7CCCCCCChXXXXXXXXXXXXXXXXXXXXXXXXXXXXXXXXXXXXXXXXXXXXXXXXXXXXXXX rC",
"Cr XXXXXXXXXXXXXXXXXXXXXXXXXXXXXX7CCCCCCChXXXXXXXXXXXXXXXXXXXXXXXXXXXXXXXXXXXXXXXXXXXXXXXXXXXXXXX rC",
"Cr XXXXXXXXXXXXXXXXXXXXXXXXXXXXXX7CCCCCCChXXXXXXXXXXXXXXXXXXXXXXXXXXXXXXXXXXXXXXXXXXXXXXXXXXXXXXX rC",
"Cr XXXXXXXXXXXXXXXXXXXXXXXXXXXXXX7CCCCCCChXXXXXXXXXXXXXXXXXXXXXXXXXXXXXXXXXXXXXXXXXXXXXXXXXXXXXXX rC",
"Cr XXXXXXXXXXXXXXXXXXXXXXXXXXXXXX7CCCCCCChXXXXXXXXXXXXXXXXXXXXXXXXXXXXXXXXXXXXXXXXXXXXXXXXXXXXXXX rC",
"Cr XXXXXXXXXXXXXXXXXXXXXXXXXXXXXX7CCCCCCChXXXXXXXXXXXXXXXXXXXXXXXXXXXXXXXXXXXXXXXXXXXXXXXXXXXXXXX rC",
"Cr XXXXXXXXXXXXXXXXXXXXXXXXXXXXXX7CCCCCCChXXXXXXXXXXXXXXXXXXXXXXXXXXXXXXXXXXXXXXXXXXXXXXXXXXXXXXX rC",
"Cr XXXXXXXXXXXXXXXXXXXXXXXXXXXXXX7CCCCCCChXXXXXXXXXXXXXXXXXXXXXXXXXXXXXXXXXXXXXXXXXXXXXXXXXXXXXXX rC",
"Cr XXXXXXXXXXXXXXXXXXXXXXXXXXXXXX7CCCCCCChXXXXXXXXXXXXXXXXXXXXXXXXXXXXXXXXXXXXXXXXXXXXXXXXXXXXXXX rC",
"Cr XXXXXXXXXXXXXXXXXXXXXXXXXXXXXX7CCCCCCChXXXXXXXXXXXXXXXXXXXXXXXXXXXXXXXXXXXXXXXXXXXXXXXXXXXXXXX rC",
"Cr XXXXXXXXXXXXXXXXXXXXXXXXXXXXXX7CCCCCCChXXXXXXXXXXXXXXXXXXXXXXXXXXXXXXXXXXXXXXXXXXXXXXXXXXXXXXX rC",
"Cr XXXXXXXXXXXXXXXXXXXXXXXXXXXXXX7CCCCCCChXXXXXXXXXXXXXXXXXXXXXXXXXXXXXXXXXXXXXXXXXXXXXXXXXXXXXXX rC",
"Cr XXXXXXXXXXXXXXXXXXXXXXXXXXXXXX7CCCCCCChXXXXXXXXXXXXXXXXXXXXXXXXXXXXXXXXXXXXXXXXXXXXXXXXXXXXXXX rC",
"Cr XXXXXXXXXXXXXXXXXXXXXXXXXXXXXX7CCCCCCChXXXXXXXXXXXXXXXXXXXXXXXXXXXXXXXXXXXXXXXXXXXXXXXXXXXXXXX rC",
"Cr XXXXXXXXXXXXXXXXXXXXXXXXXXXXXX7CCCCCCChXXXXXXXXXXXXXXXXXXXXXXXXXXXXXXXXXXXXXXXXXXXXXXXXXXXXXXX rC",
"Cr XXXXXXXXXXXXXXXXXXXXXXXXXXXXXX7CCCCCCChXXXXXXXXXXXXXXXXXXXXXXXXXXXXXXXXXXXXXXXXXXXXXXXXXXXXXXX rC",
"Cr XXXXXXXXXXXXXXXXXXXXXXXXXXXXXX7CCCCCCChXXXXXXXXXXXXXXXXXXXXXXXXXXXXXXXXXXXXXXXXXXXXXXXXXXXXXXX rC",
"Cr XXXXXXXXXXXXXXXXXXXXXXXXXXXXXX7CCCCCCChXXXXXXXXXXXXXXXXXXXXXXXXXXXXXXXXXXXXXXXXXXXXXXXXXXXXXXX rC",
"Cr XXXXXXXXXXXXXXXXXXXXXXXXXXXXXX7CCCCCCChXXXXXXXXXXXXXXXXXXXXXXXXXXXXXXXXXXXXXXXXXXXXXXXXXXXXXXX rC",
"Cr XXXXXXXXXXXXXXXXXXXXXXXXXXXXXX7CCCCCCChXXXXXXXXXXXXXXXXXXXXXXXXXXXXXXXXXXXXXXXXXXXXXXXXXXXXXXX rC",
"Cr XXXXXXXXXXXXXXXXXXXXXXXXXXXXXX7CCCCCCChXXXXXXXXXXXXXXXXXXXXXXXXXXXXXXXXXXXXXXXXXXXXXXXXXXXXXXX rC",
"Cr XXXXXXXXXXXXXXXXXXXXXXXXXXXXXXXXXXXXXXXXXXXXXXXXXXXXXXXXXXXXXXXXXXXXXXXXXXXXXXXXXXXXXXXXXXXXXX rC",
"Cr XXXXXXXXXXXXXXXXXXXXXXXXXXXXXXXXXXXXXXXXXXXXXXXXXXXXXXXXXXXXXXXXXXXXXXXXXXXXXXXXXXXXXXXXXXXXXX rC",
"Cr XXXXXXXXXXXXXXXXXXXXXXXXXXXXXXXXXXXXXXXXXXXXXXXXXXXXXXXXXXXXXXXXXXXXXXXXXXXXXXXXXXXXXXXXXXXXXX rC",
"Cr XXXXXXXXXXXXXXXXXXXXXXXXXXXXXXXXXXXXXXXXXXXXXXXXXXXXXXXXXXXXXXXXXXXXXXXXXXXXXXXXXXXXXXXXXXXXXX rC",
"Cr XXXXXXXXXXXXXXXXXXXXXXXXXXXXXXXXXXXXXXXXXXXXXXXXXXXXXXXXXXXXXXXXXXXXXXXXXXXXXXXXXXXXXXXXXXXXXX rC",
"Cr XXXXXXXXXXXXXXXXXXXXXXXXXXXXXXXXXXXXXXXXXXXXXXXXXXXXXXXXXXXXXXXXXXXXXXXXXXXXXXXXXXXXXXXXXXXXXX rC",
"Cr XXXXXXXXXXXXXXXXXXXXXXXXXXXXXXXXXXXXXXXXXXXXXXXXXXXXXXXXXXXXXXXXXXXXXXXXXXXXXXXXXXXXXXXXXXXXXX rC",
"Cr XXXXXXXXXXXXXXXXXXXXXXXXXXXXXXXXXXXXXXXXXXXXXXXXXXXXXXXXXXXXXXXXXXXXXXXXXXXXXXXXXXXXXXXXXXXXXX rC",
"Cr XXXXXXXXXXXXXXXXXXXXXXXXXXXXXXXXXXXXXXXXXXXXXXXXXXXXXXXXXXXXXXXXXXXXXXXXXXXXXXXXXXXXXXXXXXXXXX rC",
"Cr XXXXXXXXXXXXXXXXXXXXXXXXXXXXXXXXXXXXXXXXXXXXXXXXXXXXXXXXXXXXXXXXXXXXXXXXXXXXXXXXXXXXXXXXXXXXXX rC",
"Cr XXXXXXXXXXXXXXXXXXXXXXXXXXXXXXXXXXXXXXXXXXXXXXXXXXXXXXXXXXXXXXXXXXXXXXXXXXXXXXXXXXXXXXXXXXXXXX rC",
"Cr XXXXXXXXXXXXXXXXXXXXXXXXXXXXXXXXXXXXXXXXXXXXXXXXXXXXXXXXXXXXXXXXXXXXXXXXXXXXXXXXXXXXXXXXXXXXXX rC",
"Cr XXXXXXXXXXXXXXXXXXXXXXXXXXXXXXXXXXXXXXXXXXXXXXXXXXXXXXXXXXXXXXXXXXXXXXXXXXXXXXXXXXXXXXXXXXXXXX rC",
"Cr XXXXXXXXXXXXXXXXXXXXXXXXXXXXXXXXXXXXXXXXXXXXXXXXXXXXXXXXXXXXXXXXXXXXXXXXXXXXXXXXXXXXXXXXXXXXXX rC",
"Cr XXXXXXXXXXXXXXXXXXXXXXXXXXXXXXXXXXXXXXXXXXXXXXXXXXXXXXXXXXXXXXXXXXXXXXXXXXXXXXXXXXXXXXXXXXXXXX rC",
"Cr XXXXXXXXXXXXXXXXXXXXXXXXXXXXXXXXXXXXXXXXXXXXXXXXXXXXXXXXXXXXXXXXXXXXXXXXXXXXXXXXXXXXXXXXXXXXXX rC",
"Cr XXXXXXXXXXXXXXXXXXXXXXXXXXXXXXXXXXXXXXXXXXXXXXXXXXXXXXXXXXXXXXXXXXXXXXXXXXXXXXXXXXXXXXXXXXXXXX rC",
"Cr.XXXXXXXXXXXXXXXXXXXXXXXXXXXXXXXXXXXXXXXXXXXXXXXXXXXXXXXXXXXXXXXXXXXXXXXXXXXXXXXXXXXXXXXXXXXXXX rC",
"Cr                                                                                                rC",
"C9rrrrrrrrrrrrrrrrrrrrrrrrrrrrrrrrrrrrrrrrrrrrrrrrrrrrrrrrrrrrrrrrrrrrrrrrrrrrrrrrrrrrrrrrrrrrrrrr9C",
"CCCCCCCCCCCCCCCCCCCCCCCCCCCCCCCCCCCCCCCCCCCCCCCCCCCCCCCCCCCCCCCCCCCCCCCCCCCCCCCCCCCCCCCCCCCCCCCCCCCC"
};
