/* XPM */
static char *p2[] = {
/* columns rows colors chars-per-pixel */
"100 100 52 1 ",
"  c #686868",
". c #7C7C7C",
"X c #C3AF2A",
"o c #C3AF2E",
"O c #C4B034",
"+ c #C4B13A",
"@ c #C5B242",
"# c #C6B346",
"$ c #C7B54E",
"% c #C7B552",
"& c #CAB95F",
"* c #CBBA65",
"= c #CCBC6B",
"- c #CCBC6D",
"; c #CEBF77",
": c #CFC078",
"> c #D0C17C",
", c #AFAFAF",
"< c gray70",
"1 c #D1C382",
"2 c #D3C68B",
"3 c #D4C78E",
"4 c #D6CA95",
"5 c #D7CC99",
"6 c #DACFA0",
"7 c #DBD1A6",
"8 c #DCD2A7",
"9 c #DCD2A8",
"0 c #DFD5AF",
"q c #DFD5B0",
"w c #E1D8B6",
"e c #E2D9B8",
"r c #E4DCBE",
"t c #E5DDC1",
"y c #E7E0C7",
"u c #E8E1C8",
"i c #E9E3CC",
"p c #EAE4CF",
"a c #EBE5D0",
"s c #ECE7D4",
"d c #EDE8D6",
"f c #EEEAD9",
"g c #F1EDDF",
"h c #F1EEE0",
"j c #F4F1E7",
"k c #F5F2E8",
"l c #F8F7F0",
"z c #FAF8F3",
"x c #FBFAF7",
"c c #FCFBF8",
"v c #FCFCF9",
"b c white",
/* pixels */
"bbbbbbbbbbbbbbbbbbbbbbbbbbbbbbbbbbbbbbbbbbbbbbbbbbbbbbbbbbbbbbbbbbbbbbbbbbbbbbbbbbbbbbbbbbbbbbbbbbbb",
"b,<<<<<<<<<<<<<<<<<<<<<<<<<<<<<<<<<<<<<<<<<<<<<<<<<<<<<<<<<<<<<<<<<<<<<<<<<<<<<<<<<<<<<<<<<<<<<<<<,b",
"b<                                                                                                <b",
"b< XXXXXXXXXXXXXXXXXXXXXXXXXXXXXXXXXXXXXXXXXXXXXXXXXXXXXXXXXXXXXXXXXXXXXXXXXXXXXXXXXXXXXXXXXXXXXX <b",
"b< XXXXXXXXXXXXXXXXXXXXXXXXXXXXXXXXXXXXXXXXXXXXXXXXXXXXXXXXXXXXXXXXXXXXXXXXXXXXXXXXXXXXXXXXXXXXXX <b",
"b< XXXXXXXXXXXXXXXXXXXXXXXXXXXXXXXXXXXXXXXXXXXXXXXXXXXXXXXXXXXXXXXXXXXXXXXXXXXXXXXXXXXXXXXXXXXXXX <b",
"b< XXXXXXXXXXXXXXXXXXXXXXXXXXXXXXXXXXXXXXXXXXXXXXXXXXXXXXXXXXXXXXXXXXXXXXXXXXXXXXXXXXXXXXXXXXXXXX <b",
"b< XXXXXXXXXXXXXXXXXXXXXXXXXXXXXXXXXXXXXXXXXXXXXXXXXXXXXXXXXXXXXXXXXXXXXXXXXXXXXXXXXXXXXXXXXXXXXX <b",
"b< XXXXXXXXXXXXXXXXXXXXXXXXXXXXXXXXXXXXXXXXXXXXXXXXXXXXXXXXXXXXXXXXXXXXXXXXXXXXXXXXXXXXXXXXXXXXXX <b",
"b< XXXXXXXXXXXXXXXXXXXXXXXXXXXXXXXXXXXXXXXXXXXXXXXXXXXXXXXXXXXXXXXXXXXXXXXXXXXXXXXXXXXXXXXXXXXXXX <b",
"b< XXXXXXXXXXXXXXXXXXXXXXXXXXXXXXXXXXXXXXXXXXXXXXXXXXXXXXXXXXXXXXXXXXXXXXXXXXXXXXXXXXXXXXXXXXXXXX <b",
"b< XXXXXXXXXXXXXXXXXXXXXXXXXXXXXXXXXXXXXXXXXXXXXXXXXXXXXXXXXXXXXXXXXXXXXXXXXXXXXXXXXXXXXXXXXXXXXX <b",
"b< XXXXXXXXXXXXXXXXXXXXXXXXXXXXXXXXXXXXXXXXXXXXXXXXXXXXXXXXXXXXXXXXXXXXXXXXXXXXXXXXXXXXXXXXXXXXXX <b",
"b< XXXXXXXXXXXXXXXXXXXXXXXXXXXXXXXXXXXXXXXXXXXXXXXXXXXXXXXXXXXXXXXXXXXXXXXXXXXXXXXXXXXXXXXXXXXXXX <b",
"b< XXXXXXXXXXXXXXXXXXXXXXXXXXXXXXXXXXXXXXXXXXXXXXXXXXXXXXXXXXXXXXXXXXXXXXXXXXXXXXXXXXXXXXXXXXXXXX <b",
"b< XXXXXXXXXXXXXXXXXXXXXXXXXXXXXXXXXXXXXXXXXXXXXXXXXXXXXXXXXXXXXXXXXXXXXXXXXXXXXXXXXXXXXXXXXXXXXX <b",
"b< XXXXXXXXXXXXXXXXXXXXXXXXXXXXXXXXXXXXXXXXXXXXXXXXXXXXXXXXXXXXXXXXXXXXXXXXXXXXXXXXXXXXXXXXXXXXXX <b",
"b< XXXXXXXXXXXXXXXXXXXXXXXXXXXXXXXXXXXXXXXXXXXXXXXXXXXXXXXXXXXXXXXXXXXXXXXXXXXXXXXXXXXXXXXXXXXXXX <b",
"b< XXXXXXXXXXXXXXXXXXXXXXXXXXXXXXXXXXXXXXXXXXXXXXXXXXXXXXXXXXXXXXXXXXXXXXXXXXXXXXXXXXXXXXXXXXXXXX <b",
"b< XXXXXXXXXXXXXXXXXXXXXXXXXXXXXXXXXXXXXXXXXXXXXXXXXXXXXXXXXXXXXXXXXXXXXXXXXXXXXXXXXXXXXXXXXXXXXX <b",
"b< XXXXXXXXXXXXXXXXXXXXXXXXXXXXXX4bbbbbbbbbbbbbbbbbbvzkft6&XXXXXXXXXXXXXXXXXXXXXXXXXXXXXXXXXXXXXX <b",
"b< XXXXXXXXXXXXXXXXXXXXXXXXXXXXXX4bbbbbbbbbbbbbbbbbbbbbbbbbke&XXXXXXXXXXXXXXXXXXXXXXXXXXXXXXXXXXX <b",
"b< XXXXXXXXXXXXXXXXXXXXXXXXXXXXXX4bbbbbbbbbbbbbbbbbbbbbbbbbbbbi&XXXXXXXXXXXXXXXXXXXXXXXXXXXXXXXXX <b",
"b< XXXXXXXXXXXXXXXXXXXXXXXXXXXXXX4bbbbbbbbbbbbbbbbbbbbbbbbbbbbbc8XXXXXXXXXXXXXXXXXXXXXXXXXXXXXXXX <b",
"b< XXXXXXXXXXXXXXXXXXXXXXXXXXXXXX4bbbbbbbbbbbbbbbbbbbbbbbbbbbbbbbuoXXXXXXXXXXXXXXXXXXXXXXXXXXXXXX <b",
"b< XXXXXXXXXXXXXXXXXXXXXXXXXXXXXX4bbbbbbbbbbbbbbbbbbbbbbbbbbbbbbbbiXXXXXXXXXXXXXXXXXXXXXXXXXXXXXX <b",
"b< XXXXXXXXXXXXXXXXXXXXXXXXXXXXXX4bbbbbbbs*********;26ukbbbbbbbbbbbqXXXXXXXXXXXXXXXXXXXXXXXXXXXXX <b",
"b< XXXXXXXXXXXXXXXXXXXXXXXXXXXXXX4bbbbbbbpXXXXXXXXXXXXXX2gbbbbbbbbbb-XXXXXXXXXXXXXXXXXXXXXXXXXXXX <b",
"b< XXXXXXXXXXXXXXXXXXXXXXXXXXXXXX4bbbbbbbpXXXXXXXXXXXXXXXXwbbbbbbbbbdXXXXXXXXXXXXXXXXXXXXXXXXXXXX <b",
"b< XXXXXXXXXXXXXXXXXXXXXXXXXXXXXX4bbbbbbbpXXXXXXXXXXXXXXXXX7bbbbbbbbb=XXXXXXXXXXXXXXXXXXXXXXXXXXX <b",
"b< XXXXXXXXXXXXXXXXXXXXXXXXXXXXXX4bbbbbbbpXXXXXXXXXXXXXXXXXXubbbbbbbbrXXXXXXXXXXXXXXXXXXXXXXXXXXX <b",
"b< XXXXXXXXXXXXXXXXXXXXXXXXXXXXXX4bbbbbbbpXXXXXXXXXXXXXXXXXX$cbbbbbbbkXXXXXXXXXXXXXXXXXXXXXXXXXXX <b",
"b< XXXXXXXXXXXXXXXXXXXXXXXXXXXXXX4bbbbbbbpXXXXXXXXXXXXXXXXXXXtbbbbbbbb%XXXXXXXXXXXXXXXXXXXXXXXXXX <b",
"b< XXXXXXXXXXXXXXXXXXXXXXXXXXXXXX4bbbbbbbpXXXXXXXXXXXXXXXXXXX1bbbbbbbb3XXXXXXXXXXXXXXXXXXXXXXXXXX <b",
"b< XXXXXXXXXXXXXXXXXXXXXXXXXXXXXX4bbbbbbbpXXXXXXXXXXXXXXXXXXXOcbbbbbbb9XXXXXXXXXXXXXXXXXXXXXXXXXX <b",
"b< XXXXXXXXXXXXXXXXXXXXXXXXXXXXXX4bbbbbbbpXXXXXXXXXXXXXXXXXXXXjbbbbbbbrXXXXXXXXXXXXXXXXXXXXXXXXXX <b",
"b< XXXXXXXXXXXXXXXXXXXXXXXXXXXXXX4bbbbbbbpXXXXXXXXXXXXXXXXXXXXgbbbbbbbyXXXXXXXXXXXXXXXXXXXXXXXXXX <b",
"b< XXXXXXXXXXXXXXXXXXXXXXXXXXXXXX4bbbbbbbpXXXXXXXXXXXXXXXXXXXXdbbbbbbbuXXXXXXXXXXXXXXXXXXXXXXXXXX <b",
"b< XXXXXXXXXXXXXXXXXXXXXXXXXXXXXX4bbbbbbbpXXXXXXXXXXXXXXXXXXXXgbbbbbbbyXXXXXXXXXXXXXXXXXXXXXXXXXX <b",
"b< XXXXXXXXXXXXXXXXXXXXXXXXXXXXXX4bbbbbbbpXXXXXXXXXXXXXXXXXXXXjbbbbbbbtXXXXXXXXXXXXXXXXXXXXXXXXXX <b",
"b< XXXXXXXXXXXXXXXXXXXXXXXXXXXXXX4bbbbbbbpXXXXXXXXXXXXXXXXXXXoxbbbbbbb0XXXXXXXXXXXXXXXXXXXXXXXXXX <b",
"b< XXXXXXXXXXXXXXXXXXXXXXXXXXXXXX4bbbbbbbpXXXXXXXXXXXXXXXXXXX>bbbbbbbb4XXXXXXXXXXXXXXXXXXXXXXXXXX <b",
"b< XXXXXXXXXXXXXXXXXXXXXXXXXXXXXX4bbbbbbbpXXXXXXXXXXXXXXXXXXXebbbbbbbb&XXXXXXXXXXXXXXXXXXXXXXXXXX <b",
"b< XXXXXXXXXXXXXXXXXXXXXXXXXXXXXX4bbbbbbbpXXXXXXXXXXXXXXXXXX#xbbbbbbblXXXXXXXXXXXXXXXXXXXXXXXXXXX <b",
"b< XXXXXXXXXXXXXXXXXXXXXXXXXXXXXX4bbbbbbbpXXXXXXXXXXXXXXXXXXtbbbbbbbbyXXXXXXXXXXXXXXXXXXXXXXXXXXX <b",
"b< XXXXXXXXXXXXXXXXXXXXXXXXXXXXXX4bbbbbbbpXXXXXXXXXXXXXXXXX5bbbbbbbbb1XXXXXXXXXXXXXXXXXXXXXXXXXXX <b",
"b< XXXXXXXXXXXXXXXXXXXXXXXXXXXXXX4bbbbbbbpXXXXXXXXXXXXXXXX9bbbbbbbbbhXXXXXXXXXXXXXXXXXXXXXXXXXXXX <b",
"b< XXXXXXXXXXXXXXXXXXXXXXXXXXXXXX4bbbbbbbpXXXXXXXXXXXXXX:dbbbbbbbbbb1XXXXXXXXXXXXXXXXXXXXXXXXXXXX <b",
"b< XXXXXXXXXXXXXXXXXXXXXXXXXXXXXX4bbbbbbbpXXXXXXXXX$=2ehbbbbbbbbbbbtXXXXXXXXXXXXXXXXXXXXXXXXXXXXX <b",
"b< XXXXXXXXXXXXXXXXXXXXXXXXXXXXXX4bbbbbbbbbbbbbbbbbbbbbbbbbbbbbbbbgOXXXXXXXXXXXXXXXXXXXXXXXXXXXXX <b",
"b< XXXXXXXXXXXXXXXXXXXXXXXXXXXXXX4bbbbbbbbbbbbbbbbbbbbbbbbbbbbbbbg@XXXXXXXXXXXXXXXXXXXXXXXXXXXXXX <b",
"b< XXXXXXXXXXXXXXXXXXXXXXXXXXXXXX4bbbbbbbbbbbbbbbbbbbbbbbbbbbbbbtOXXXXXXXXXXXXXXXXXXXXXXXXXXXXXXX <b",
"b< XXXXXXXXXXXXXXXXXXXXXXXXXXXXXX4bbbbbbbbbbbbbbbbbbbbbbbbbbbbh1XXXXXXXXXXXXXXXXXXXXXXXXXXXXXXXXX <b",
"b< XXXXXXXXXXXXXXXXXXXXXXXXXXXXXX4bbbbbbbbbbbbbbbbbbbbbbbbbca2XXXXXXXXXXXXXXXXXXXXXXXXXXXXXXXXXXX <b",
"b< XXXXXXXXXXXXXXXXXXXXXXXXXXXXXX4bbbbbbbbbbbbbbbbbbbbxkse2+XXXXXXXXXXXXXXXXXXXXXXXXXXXXXXXXXXXXX <b",
"b< XXXXXXXXXXXXXXXXXXXXXXXXXXXXXX4bbbbbbbs*********&%OXXXXXXXXXXXXXXXXXXXXXXXXXXXXXXXXXXXXXXXXXXX <b",
"b< XXXXXXXXXXXXXXXXXXXXXXXXXXXXXX4bbbbbbbpXXXXXXXXXXXXXXXXXXXXXXXXXXXXXXXXXXXXXXXXXXXXXXXXXXXXXXX <b",
"b< XXXXXXXXXXXXXXXXXXXXXXXXXXXXXX4bbbbbbbpXXXXXXXXXXXXXXXXXXXXXXXXXXXXXXXXXXXXXXXXXXXXXXXXXXXXXXX <b",
"b< XXXXXXXXXXXXXXXXXXXXXXXXXXXXXX4bbbbbbbpXXXXXXXXXXXXXXXXXXXXXXXXXXXXXXXXXXXXXXXXXXXXXXXXXXXXXXX <b",
"b< XXXXXXXXXXXXXXXXXXXXXXXXXXXXXX4bbbbbbbpXXXXXXXXXXXXXXXXXXXXXXXXXXXXXXXXXXXXXXXXXXXXXXXXXXXXXXX <b",
"b< XXXXXXXXXXXXXXXXXXXXXXXXXXXXXX4bbbbbbbpXXXXXXXXXXXXXXXXXXXXXXXXXXXXXXXXXXXXXXXXXXXXXXXXXXXXXXX <b",
"b< XXXXXXXXXXXXXXXXXXXXXXXXXXXXXX4bbbbbbbpXXXXXXXXXXXXXXXXXXXXXXXXXXXXXXXXXXXXXXXXXXXXXXXXXXXXXXX <b",
"b< XXXXXXXXXXXXXXXXXXXXXXXXXXXXXX4bbbbbbbpXXXXXXXXXXXXXXXXXXXXXXXXXXXXXXXXXXXXXXXXXXXXXXXXXXXXXXX <b",
"b< XXXXXXXXXXXXXXXXXXXXXXXXXXXXXX4bbbbbbbpXXXXXXXXXXXXXXXXXXXXXXXXXXXXXXXXXXXXXXXXXXXXXXXXXXXXXXX <b",
"b< XXXXXXXXXXXXXXXXXXXXXXXXXXXXXX4bbbbbbbpXXXXXXXXXXXXXXXXXXXXXXXXXXXXXXXXXXXXXXXXXXXXXXXXXXXXXXX <b",
"b< XXXXXXXXXXXXXXXXXXXXXXXXXXXXXX4bbbbbbbpXXXXXXXXXXXXXXXXXXXXXXXXXXXXXXXXXXXXXXXXXXXXXXXXXXXXXXX <b",
"b< XXXXXXXXXXXXXXXXXXXXXXXXXXXXXX4bbbbbbbpXXXXXXXXXXXXXXXXXXXXXXXXXXXXXXXXXXXXXXXXXXXXXXXXXXXXXXX <b",
"b< XXXXXXXXXXXXXXXXXXXXXXXXXXXXXX4bbbbbbbpXXXXXXXXXXXXXXXXXXXXXXXXXXXXXXXXXXXXXXXXXXXXXXXXXXXXXXX <b",
"b< XXXXXXXXXXXXXXXXXXXXXXXXXXXXXX4bbbbbbbpXXXXXXXXXXXXXXXXXXXXXXXXXXXXXXXXXXXXXXXXXXXXXXXXXXXXXXX <b",
"b< XXXXXXXXXXXXXXXXXXXXXXXXXXXXXX4bbbbbbbpXXXXXXXXXXXXXXXXXXXXXXXXXXXXXXXXXXXXXXXXXXXXXXXXXXXXXXX <b",
"b< XXXXXXXXXXXXXXXXXXXXXXXXXXXXXX4bbbbbbbpXXXXXXXXXXXXXXXXXXXXXXXXXXXXXXXXXXXXXXXXXXXXXXXXXXXXXXX <b",
"b< XXXXXXXXXXXXXXXXXXXXXXXXXXXXXX4bbbbbbbpXXXXXXXXXXXXXXXXXXXXXXXXXXXXXXXXXXXXXXXXXXXXXXXXXXXXXXX <b",
"b< XXXXXXXXXXXXXXXXXXXXXXXXXXXXXX4bbbbbbbpXXXXXXXXXXXXXXXXXXXXXXXXXXXXXXXXXXXXXXXXXXXXXXXXXXXXXXX <b",
"b< XXXXXXXXXXXXXXXXXXXXXXXXXXXXXX4bbbbbbbpXXXXXXXXXXXXXXXXXXXXXXXXXXXXXXXXXXXXXXXXXXXXXXXXXXXXXXX <b",
"b< XXXXXXXXXXXXXXXXXXXXXXXXXXXXXX4bbbbbbbpXXXXXXXXXXXXXXXXXXXXXXXXXXXXXXXXXXXXXXXXXXXXXXXXXXXXXXX <b",
"b< XXXXXXXXXXXXXXXXXXXXXXXXXXXXXX4bbbbbbbpXXXXXXXXXXXXXXXXXXXXXXXXXXXXXXXXXXXXXXXXXXXXXXXXXXXXXXX <b",
"b< XXXXXXXXXXXXXXXXXXXXXXXXXXXXXX4bbbbbbbpXXXXXXXXXXXXXXXXXXXXXXXXXXXXXXXXXXXXXXXXXXXXXXXXXXXXXXX <b",
"b< XXXXXXXXXXXXXXXXXXXXXXXXXXXXXX4bbbbbbbpXXXXXXXXXXXXXXXXXXXXXXXXXXXXXXXXXXXXXXXXXXXXXXXXXXXXXXX <b",
"b< XXXXXXXXXXXXXXXXXXXXXXXXXXXXXX4bbbbbbbpXXXXXXXXXXXXXXXXXXXXXXXXXXXXXXXXXXXXXXXXXXXXXXXXXXXXXXX <b",
"b< XXXXXXXXXXXXXXXXXXXXXXXXXXXXXXXXXXXXXXXXXXXXXXXXXXXXXXXXXXXXXXXXXXXXXXXXXXXXXXXXXXXXXXXXXXXXXX <b",
"b< XXXXXXXXXXXXXXXXXXXXXXXXXXXXXXXXXXXXXXXXXXXXXXXXXXXXXXXXXXXXXXXXXXXXXXXXXXXXXXXXXXXXXXXXXXXXXX <b",
"b< XXXXXXXXXXXXXXXXXXXXXXXXXXXXXXXXXXXXXXXXXXXXXXXXXXXXXXXXXXXXXXXXXXXXXXXXXXXXXXXXXXXXXXXXXXXXXX <b",
"b< XXXXXXXXXXXXXXXXXXXXXXXXXXXXXXXXXXXXXXXXXXXXXXXXXXXXXXXXXXXXXXXXXXXXXXXXXXXXXXXXXXXXXXXXXXXXXX <b",
"b< XXXXXXXXXXXXXXXXXXXXXXXXXXXXXXXXXXXXXXXXXXXXXXXXXXXXXXXXXXXXXXXXXXXXXXXXXXXXXXXXXXXXXXXXXXXXXX <b",
"b< XXXXXXXXXXXXXXXXXXXXXXXXXXXXXXXXXXXXXXXXXXXXXXXXXXXXXXXXXXXXXXXXXXXXXXXXXXXXXXXXXXXXXXXXXXXXXX <b",
"b< XXXXXXXXXXXXXXXXXXXXXXXXXXXXXXXXXXXXXXXXXXXXXXXXXXXXXXXXXXXXXXXXXXXXXXXXXXXXXXXXXXXXXXXXXXXXXX <b",
"b< XXXXXXXXXXXXXXXXXXXXXXXXXXXXXXXXXXXXXXXXXXXXXXXXXXXXXXXXXXXXXXXXXXXXXXXXXXXXXXXXXXXXXXXXXXXXXX <b",
"b< XXXXXXXXXXXXXXXXXXXXXXXXXXXXXXXXXXXXXXXXXXXXXXXXXXXXXXXXXXXXXXXXXXXXXXXXXXXXXXXXXXXXXXXXXXXXXX <b",
"b< XXXXXXXXXXXXXXXXXXXXXXXXXXXXXXXXXXXXXXXXXXXXXXXXXXXXXXXXXXXXXXXXXXXXXXXXXXXXXXXXXXXXXXXXXXXXXX <b",
"b< XXXXXXXXXXXXXXXXXXXXXXXXXXXXXXXXXXXXXXXXXXXXXXXXXXXXXXXXXXXXXXXXXXXXXXXXXXXXXXXXXXXXXXXXXXXXXX <b",
"b< XXXXXXXXXXXXXXXXXXXXXXXXXXXXXXXXXXXXXXXXXXXXXXXXXXXXXXXXXXXXXXXXXXXXXXXXXXXXXXXXXXXXXXXXXXXXXX <b",
"b< XXXXXXXXXXXXXXXXXXXXXXXXXXXXXXXXXXXXXXXXXXXXXXXXXXXXXXXXXXXXXXXXXXXXXXXXXXXXXXXXXXXXXXXXXXXXXX <b",
"b< XXXXXXXXXXXXXXXXXXXXXXXXXXXXXXXXXXXXXXXXXXXXXXXXXXXXXXXXXXXXXXXXXXXXXXXXXXXXXXXXXXXXXXXXXXXXXX <b",
"b< XXXXXXXXXXXXXXXXXXXXXXXXXXXXXXXXXXXXXXXXXXXXXXXXXXXXXXXXXXXXXXXXXXXXXXXXXXXXXXXXXXXXXXXXXXXXXX <b",
"b< XXXXXXXXXXXXXXXXXXXXXXXXXXXXXXXXXXXXXXXXXXXXXXXXXXXXXXXXXXXXXXXXXXXXXXXXXXXXXXXXXXXXXXXXXXXXXX <b",
"b< XXXXXXXXXXXXXXXXXXXXXXXXXXXXXXXXXXXXXXXXXXXXXXXXXXXXXXXXXXXXXXXXXXXXXXXXXXXXXXXXXXXXXXXXXXXXXX <b",
"b<.XXXXXXXXXXXXXXXXXXXXXXXXXXXXXXXXXXXXXXXXXXXXXXXXXXXXXXXXXXXXXXXXXXXXXXXXXXXXXXXXXXXXXXXXXXXXXX <b",
"b<                                                                                                <b",
"b,<<<<<<<<<<<<<<<<<<<<<<<<<<<<<<<<<<<<<<<<<<<<<<<<<<<<<<<<<<<<<<<<<<<<<<<<<<<<<<<<<<<<<<<<<<<<<<<<,b",
"bbbbbbbbbbbbbbbbbbbbbbbbbbbbbbbbbbbbbbbbbbbbbbbbbbbbbbbbbbbbbbbbbbbbbbbbbbbbbbbbbbbbbbbbbbbbbbbbbbbb"
};
