/* XPM */
static char *p3[] = {
/* columns rows colors chars-per-pixel */
"100 100 37 1 ",
"  c #686868",
". c #727272",
"X c gray46",
"o c gray48",
"O c gray50",
"+ c #818181",
"@ c #868686",
"# c #888888",
"$ c gray56",
"% c #909090",
"& c gray59",
"* c #9A9A9A",
"= c #9D9D9D",
"- c gray64",
"; c gray65",
": c #AAAAAA",
"> c #AFAFAF",
", c gray70",
"< c #B7B7B7",
"1 c gray72",
"2 c gray",
"3 c #C3C3C3",
"4 c #C5C5C5",
"5 c #CBCBCB",
"6 c gray80",
"7 c #D2D2D2",
"8 c #D5D5D5",
"9 c gray86",
"0 c #DFDFDF",
"q c gray89",
"w c #E4E4E4",
"e c gray92",
"r c gray93",
"t c #F3F3F3",
"y c gray96",
"u c gray98",
"i c white",
/* pixels */
"iiiiiiiiiiiiiiiiiiiiiiiiiiiiiiiiiiiiiiiiiiiiiiiiiiiiiiiiiiiiiiiiiiiiiiiiiiiiiiiiiiiiiiiiiiiiiiiiiiii",
"i>,,,,,,,,,,,,,,,,,,,,,,,,,,,,,,,,,,,,,,,,,,,,,,,,,,,,,,,,,,,,,,,,,,,,,,,,,,,,,,,,,,,,,,,,,,,,,,,,>i",
"i,                                                                                                ,i",
"i, .............................................................................................. ,i",
"i, .............................................................................................. ,i",
"i, .............................................................................................. ,i",
"i, .............................................................................................. ,i",
"i, .............................................................................................. ,i",
"i, .............................................................................................. ,i",
"i, .............................................................................................. ,i",
"i, .............................................................................................. ,i",
"i, .............................................................................................. ,i",
"i, .............................................................................................. ,i",
"i, .............................................................................................. ,i",
"i, .............................................................................................. ,i",
"i, .............................................................................................. ,i",
"i, .............................................................................................. ,i",
"i, .............................................................................................. ,i",
"i, .............................................................................................. ,i",
"i, .............................................................................................. ,i",
"i, ..............................:iiiiiiiiiiiiiiiiiiuye06,@...................................... ,i",
"i, ..............................:iiiiiiiiiiiiiiiiiiiiiiiiir4#................................... ,i",
"i, ..............................:iiiiiiiiiiiiiiiiiiiiiiiiiiii8@................................. ,i",
"i, ..............................:iiiiiiiiiiiiiiiiiiiiiiiiiiiiiu1................................ ,i",
"i, ..............................:iiiiiiiiiiiiiiiiiiiiiiiiiiiiiii8............................... ,i",
"i, ..............................:iiiiiiiiiiiiiiiiiiiiiiiiiiiiiiii8.............................. ,i",
"i, ..............................:iiiiiii9#########&-,7riiiiiiiiiii2............................. ,i",
"i, ..............................:iiiiiii8..............-wiiiiiiiiii%............................ ,i",
"i, ..............................:iiiiiii8................3iiiiiiiii0............................ ,i",
"i, ..............................:iiiiiii8.................<iiiiiiiii$........................... ,i",
"i, ..............................:iiiiiii8..................7iiiiiiii5........................... ,i",
"i, ..............................:iiiiiii8..................Ouiiiiiiir........................... ,i",
"i, ..............................:iiiiiii8...................5iiiiiiii+.......................... ,i",
"i, ..............................:iiiiiii8...................=iiiiiiii;.......................... ,i",
"i, ..............................:iiiiiii8...................Xuiiiiiii1.......................... ,i",
"i, ..............................:iiiiiii8....................eiiiiiii5.......................... ,i",
"i, ..............................:iiiiiii8....................qiiiiiii7.......................... ,i",
"i, ..............................:iiiiiii8....................0iiiiiii7.......................... ,i",
"i, ..............................:iiiiiii8....................qiiiiiii7.......................... ,i",
"i, ..............................:iiiiiii8....................eiiiiiii5.......................... ,i",
"i, ..............................:iiiiiii8....................uiiiiiii2.......................... ,i",
"i, ..............................:iiiiiii8...................*iiiiiiii:.......................... ,i",
"i, ..............................:iiiiiii8...................4iiiiiiii#.......................... ,i",
"i, ..............................:iiiiiii8..................Oyiiiiiiit........................... ,i",
"i, ..............................:iiiiiii8..................5iiiiiiii7........................... ,i",
"i, ..............................:iiiiiii8.................>iiiiiiiii=........................... ,i",
"i, ..............................:iiiiiii8................1iiiiiiiiiw............................ ,i",
"i, ..............................:iiiiiii8..............&0iiiiiiiiii=............................ ,i",
"i, ..............................:iiiiiii8.........O$-4wiiiiiiiiiii6............................. ,i",
"i, ..............................:iiiiiiiiiiiiiiiiiiiiiiiiiiiiiiiiqX............................. ,i",
"i, ..............................:iiiiiiiiiiiiiiiiiiiiiiiiiiiiiiiqo.............................. ,i",
"i, ..............................:iiiiiiiiiiiiiiiiiiiiiiiiiiiiii6X............................... ,i",
"i, ..............................:iiiiiiiiiiiiiiiiiiiiiiiiiiiiw=................................. ,i",
"i, ..............................:iiiiiiiiiiiiiiiiiiiiiiiiiu9-................................... ,i",
"i, ..............................:iiiiiiiiiiiiiiiiiiiiur94-X..................................... ,i",
"i, ..............................:iiiiiii9#########@+X........................................... ,i",
"i, ..............................:iiiiiii8....................................................... ,i",
"i, ..............................:iiiiiii8....................................................... ,i",
"i, ..............................:iiiiiii8....................................................... ,i",
"i, ..............................:iiiiiii8....................................................... ,i",
"i, ..............................:iiiiiii8....................................................... ,i",
"i, ..............................:iiiiiii8....................................................... ,i",
"i, ..............................:iiiiiii8....................................................... ,i",
"i, ..............................:iiiiiii8....................................................... ,i",
"i, ..............................:iiiiiii8....................................................... ,i",
"i, ..............................:iiiiiii8....................................................... ,i",
"i, ..............................:iiiiiii8....................................................... ,i",
"i, ..............................:iiiiiii8....................................................... ,i",
"i, ..............................:iiiiiii8....................................................... ,i",
"i, ..............................:iiiiiii8....................................................... ,i",
"i, ..............................:iiiiiii8....................................................... ,i",
"i, ..............................:iiiiiii8....................................................... ,i",
"i, ..............................:iiiiiii8....................................................... ,i",
"i, ..............................:iiiiiii8....................................................... ,i",
"i, ..............................:iiiiiii8....................................................... ,i",
"i, ..............................:iiiiiii8....................................................... ,i",
"i, ..............................:iiiiiii8....................................................... ,i",
"i, ..............................:iiiiiii8....................................................... ,i",
"i, ..............................:iiiiiii8....................................................... ,i",
"i, .............................................................................................. ,i",
"i, .............................................................................................. ,i",
"i, .............................................................................................. ,i",
"i, .............................................................................................. ,i",
"i, .............................................................................................. ,i",
"i, .............................................................................................. ,i",
"i, .............................................................................................. ,i",
"i, .............................................................................................. ,i",
"i, .............................................................................................. ,i",
"i, .............................................................................................. ,i",
"i, .............................................................................................. ,i",
"i, .............................................................................................. ,i",
"i, .............................................................................................. ,i",
"i, .............................................................................................. ,i",
"i, .............................................................................................. ,i",
"i, .............................................................................................. ,i",
"i, .............................................................................................. ,i",
"i,O.............................................................................................. ,i",
"i,                                                                                                ,i",
"i>,,,,,,,,,,,,,,,,,,,,,,,,,,,,,,,,,,,,,,,,,,,,,,,,,,,,,,,,,,,,,,,,,,,,,,,,,,,,,,,,,,,,,,,,,,,,,,,,>i",
"iiiiiiiiiiiiiiiiiiiiiiiiiiiiiiiiiiiiiiiiiiiiiiiiiiiiiiiiiiiiiiiiiiiiiiiiiiiiiiiiiiiiiiiiiiiiiiiiiiii"
};
