/* XPM */
static char *q[] = {
/* columns rows colors chars-per-pixel */
"100 100 92 1 ",
"  c #2E0000",
". c #310D0D",
"X c #341616",
"o c #371C1C",
"O c #3A2222",
"+ c #3D2626",
"@ c #3F2A2A",
"# c #422E2E",
"$ c #443232",
"% c #463535",
"& c #483838",
"* c #4C3D3D",
"= c #4E4040",
"- c #524545",
"; c #544747",
": c #574B4B",
"> c #5B4F4F",
", c #5C5151",
"< c #5F5555",
"1 c #615656",
"2 c #625858",
"3 c #645A5A",
"4 c #665D5D",
"5 c #685F5F",
"6 c #696060",
"7 c #6C6363",
"8 c #6E6666",
"9 c #686868",
"0 c #706868",
"q c #736C6C",
"w c #766E6E",
"e c #777070",
"r c #7A7373",
"t c #7B7575",
"y c #7C7676",
"u c #7E7878",
"i c #7C7C7C",
"p c #817A7A",
"a c #827C7C",
"s c #857F7F",
"d c #878181",
"f c #888282",
"g c #8B8686",
"h c #8C8787",
"j c #8D8888",
"k c #928D8D",
"l c #959191",
"z c #9A9696",
"x c #9C9898",
"c c #A29E9E",
"v c #A4A0A0",
"b c #ABA7A7",
"n c #ABA8A8",
"m c #ADAAAA",
"M c #AFAFAF",
"N c #B0ADAD",
"B c gray70",
"V c #B5B2B2",
"C c #B6B4B4",
"Z c #B8B5B5",
"A c #BCB9B9",
"S c #BEBCBC",
"D c #C0BEBE",
"F c #C2C0C0",
"G c #C5C3C3",
"H c #C6C4C4",
"J c #C8C7C7",
"K c #CBC9C9",
"L c #CCCACA",
"P c #CECCCC",
"I c #D2D1D1",
"U c #D4D3D3",
"Y c #D6D5D5",
"T c #D8D6D6",
"R c #DBDADA",
"E c #DCDBDB",
"W c #DDDCDC",
"Q c #E0DFDF",
"! c #E1E0E0",
"~ c #E7E6E6",
"^ c #E8E7E7",
"/ c gray92",
"( c #ECEBEB",
") c #EFEEEE",
"_ c #F0EFEF",
"` c gray95",
"' c #F4F3F3",
"] c #F4F4F4",
"[ c #F8F7F7",
"{ c gray98",
"} c #FCFBFB",
"| c white",
/* pixels */
"||||||||||||||||||||||||||||||||||||||||||||||||||||||||||||||||||||||||||||||||||||||||||||||||||||",
"|MBBBBBBBBBBBBBBBBBBBBBBBBBBBBBBBBBBBBBBBBBBBBBBBBBBBBBBBBBBBBBBBBBBBBBBBBBBBBBBBBBBBBBBBBBBBBBBBBM|",
"|B999999999999999999999999999999999999999999999999999999999999999999999999999999999999999999999999B|",
"|B9||||||||||||||||||||||||||||||||||||||||||||||||||||||||||||||||||||||||||||||||||||||||||||||9B|",
"|B9||||||||||||||||||||||||||||||||||||||||||||||||||||||||||||||||||||||||||||||||||||||||||||||9B|",
"|B9||||||||||||||||||||||||||||||||||||||||||||||||||||||||||||||||||||||||||||||||||||||||||||||9B|",
"|B9||||||||||||||||||||||||||||||||||||||||||||||||||||||||||||||||||||||||||||||||||||||||||||||9B|",
"|B9||||||||||||||||||||||||||||||||||||||||||||||||||||||||||||||||||||||||||||||||||||||||||||||9B|",
"|B9||||||||||||||||||||||||||||||||||||||||||||||||||||||||||||||||||||||||||||||||||||||||||||||9B|",
"|B9||||||||||||||||||||||||||||||||||||||||||||||||||||||||||||||||||||||||||||||||||||||||||||||9B|",
"|B9||||||||||||||||||||||||||||||||||||||||||||||||||||||||||||||||||||||||||||||||||||||||||||||9B|",
"|B9||||||||||||||||||||||||||||||||||||||||||||||||||||||||||||||||||||||||||||||||||||||||||||||9B|",
"|B9||||||||||||||||||||||||||||||||||||||||||||||||||||||||||||||||||||||||||||||||||||||||||||||9B|",
"|B9||||||||||||||||||||||||||||||||||||||||||||||||||||||||||||||||||||||||||||||||||||||||||||||9B|",
"|B9||||||||||||||||||||||||||||||||||||||||||||||||||||||||||||||||||||||||||||||||||||||||||||||9B|",
"|B9||||||||||||||||||||||||||||||||||||||||||||||||||||||||||||||||||||||||||||||||||||||||||||||9B|",
"|B9||||||||||||||||||||||||||||||||||||||||||||||||||||||||||||||||||||||||||||||||||||||||||||||9B|",
"|B9||||||||||||||||||||||||||||||||||||||||||||||||||||||||||||||||||||||||||||||||||||||||||||||9B|",
"|B9||||||||||||||||||||||||||||||||||||||||||||||||||||||||||||||||||||||||||||||||||||||||||||||9B|",
"|B9||||||||||||||||||||||||||||||||||||||||||!Axw>#+:0lVR{|||||||||||||||||||||||||||||||||||||||9B|",
"|B9|||||||||||||||||||||||||||||||||||||||`Z:            $v~|||||||||||||||||||||||||||||||||||||9B|",
"|B9||||||||||||||||||||||||||||||||||||||S$                 v'|||||||||||||||||||||||||||||||||||9B|",
"|B9||||||||||||||||||||||||||||||||||||`p                    ,!||||||||||||||||||||||||||||||||||9B|",
"|B9|||||||||||||||||||||||||||||||||||),                      OT|||||||||||||||||||||||||||||||||9B|",
"|B9||||||||||||||||||||||||||||||||||`3                        @W||||||||||||||||||||||||||||||||9B|",
"|B9||||||||||||||||||||||||||||||||||a         jJ!))~PzO        >'|||||||||||||||||||||||||||||||9B|",
"|B9|||||||||||||||||||||||||||||||||Z        r~||||||||)l        k|||||||||||||||||||||||||||||||9B|",
"|B9||||||||||||||||||||||||||||||||)+       l{|||||||||||B        T||||||||||||||||||||||||||||||9B|",
"|B9||||||||||||||||||||||||||||||||z       y{|||||||||||||c       q||||||||||||||||||||||||||||||9B|",
"|B9|||||||||||||||||||||||||||||||).      o/||||||||||||||{1       R|||||||||||||||||||||||||||||9B|",
"|B9|||||||||||||||||||||||||||||||N       n||||||||||||||||L       j|||||||||||||||||||||||||||||9B|",
"|B9|||||||||||||||||||||||||||||||:       (||||||||||||||||}:      .`||||||||||||||||||||||||||||9B|",
"|B9||||||||||||||||||||||||||||||W       s||||||||||||||||||N       H||||||||||||||||||||||||||||9B|",
"|B9||||||||||||||||||||||||||||||m       D||||||||||||||||||W       j||||||||||||||||||||||||||||9B|",
"|B9||||||||||||||||||||||||||||||w       ~|||||||||||||||||||@      #||||||||||||||||||||||||||||9B|",
"|B9|||||||||||||||||||||||||||||]       %||||||||||||||||||||f       !|||||||||||||||||||||||||||9B|",
"|B9|||||||||||||||||||||||||||||R       d||||||||||||||||||||N       G|||||||||||||||||||||||||||9B|",
"|B9|||||||||||||||||||||||||||||D       b||||||||||||||||||||K       v|||||||||||||||||||||||||||9B|",
"|B9|||||||||||||||||||||||||||||c       G||||||||||||||||||||Q       u|||||||||||||||||||||||||||9B|",
"|B9|||||||||||||||||||||||||||||u       Y||||||||||||||||||||)       %|||||||||||||||||||||||||||9B|",
"|B9|||||||||||||||||||||||||||||:       ~||||||||||||||||||||}        ]||||||||||||||||||||||||||9B|",
"|B9||||||||||||||||||||||||||||{        `|||||||||||||||||||||*       /||||||||||||||||||||||||||9B|",
"|B9||||||||||||||||||||||||||||)        {|||||||||||||||||||||7       R||||||||||||||||||||||||||9B|",
"|B9||||||||||||||||||||||||||||~       +||||||||||||||||||||||p       I||||||||||||||||||||||||||9B|",
"|B9||||||||||||||||||||||||||||W       :||||||||||||||||||||||g       J||||||||||||||||||||||||||9B|",
"|B9||||||||||||||||||||||||||||Y       4||||||||||||||||||||||l       S||||||||||||||||||||||||||9B|",
"|B9||||||||||||||||||||||||||||I       0||||||||||||||||||||||x       Z||||||||||||||||||||||||||9B|",
"|B9||||||||||||||||||||||||||||P       e||||||||||||||||||||||x       V||||||||||||||||||||||||||9B|",
"|B9||||||||||||||||||||||||||||L       t||||||||||||||||||||||c       N||||||||||||||||||||||||||9B|",
"|B9||||||||||||||||||||||||||||K       y||||||||||||||||||||||v       M||||||||||||||||||||||||||9B|",
"|B9||||||||||||||||||||||||||||K       t||||||||||||||||||||||c       N||||||||||||||||||||||||||9B|",
"|B9||||||||||||||||||||||||||||P       r||||||||||||||||||||||x       B||||||||||||||||||||||||||9B|",
"|B9||||||||||||||||||||||||||||P       q||||||||||||||||||||||x       C||||||||||||||||||||||||||9B|",
"|B9||||||||||||||||||||||||||||U       5||||||||||||||||||||||l       S||||||||||||||||||||||||||9B|",
"|B9||||||||||||||||||||||||||||E       :||||||||||||||||||||||g       H||||||||||||||||||||||||||9B|",
"|B9||||||||||||||||||||||||||||~       @||||||||||||||||||||||p       P||||||||||||||||||||||||||9B|",
"|B9||||||||||||||||||||||||||||)        {|||||||||||||||||||||7       R||||||||||||||||||||||||||9B|",
"|B9||||||||||||||||||||||||||||{        `|||||||||||||||||||||=       ~||||||||||||||||||||||||||9B|",
"|B9|||||||||||||||||||||||||||||-       ~||||||||||||||||||||}        `||||||||||||||||||||||||||9B|",
"|B9|||||||||||||||||||||||||||||y       Y||||||||||||||||||||)       +|||||||||||||||||||||||||||9B|",
"|B9|||||||||||||||||||||||||||||c       G||||||||||||||||||||Q       w|||||||||||||||||||||||||||9B|",
"|B9|||||||||||||||||||||||||||||D       b||||||||||||||||||||K       x|||||||||||||||||||||||||||9B|",
"|B9|||||||||||||||||||||||||||||E       f||||||||||||||||||||N       S|||||||||||||||||||||||||||9B|",
"|B9|||||||||||||||||||||||||||||[X      &||||||||||||||||||||f       W|||||||||||||||||||||||||||9B|",
"|B9||||||||||||||||||||||||||||||y       ~|||||||||||||||||||#      X[|||||||||||||||||||||||||||9B|",
"|B9||||||||||||||||||||||||||||||C       D||||||||||||||||||Q       s||||||||||||||||||||||||||||9B|",
"|B9||||||||||||||||||||||||||||||~       s||||||||||||||||||N       A||||||||||||||||||||||||||||9B|",
"|B9|||||||||||||||||||||||||||||||7       )||||||||||||||||}>       /||||||||||||||||||||||||||||9B|",
"|B9|||||||||||||||||||||||||||||||D       n||||||||||||||||L       a|||||||||||||||||||||||||||||9B|",
"|B9|||||||||||||||||||||||||||||||]%      o/||||||||||||||{2       U|||||||||||||||||||||||||||||9B|",
"|B9||||||||||||||||||||||||||||||||V       y{|||||||||||||c       6||||||||||||||||||||||||||||||9B|",
"|B9||||||||||||||||||||||||||||||||]:       l{|||||||||||V        L||||||||||||||||||||||||||||||9B|",
"|B9|||||||||||||||||||||||||||||||||P        t~||||||||)l        h|||||||||||||||||||||||||||||||9B|",
"|B9||||||||||||||||||||||||||||||||||x         jJ~)_~Px+        &)|||||||||||||||||||||||||||||||9B|",
"|B9||||||||||||||||||||||||||||||||||{p                        .I||||||||||||||||||||||||||||||||9B|",
"|B9|||||||||||||||||||||||||||||||||||]r                      .J|||||||||||||||||||||||||||||||||9B|",
"|B9||||||||||||||||||||||||||||||||||||{z                    &U||||||||||||||||||||||||||||||||||9B|",
"|B9||||||||||||||||||||||||||||||||||||||P:                 j)|||||||||||||||||||||||||||||||||||9B|",
"|B9|||||||||||||||||||||||||||||||||||||||[F4              #~||||||||||||||||||||||||||||||||||||9B|",
"|B9||||||||||||||||||||||||||||||||||||||||||~Sxr>#         -~|||||||||||||||||||||||||||||||||||9B|",
"|B9|||||||||||||||||||||||||||||||||||||||||||||||||]e       ;^||||||||||||||||||||||||||||||||||9B|",
"|B9||||||||||||||||||||||||||||||||||||||||||||||||||]0       :/|||||||||||||||||||||||||||||||||9B|",
"|B9|||||||||||||||||||||||||||||||||||||||||||||||||||`8       >/||||||||||||||||||||||||||||||||9B|",
"|B9||||||||||||||||||||||||||||||||||||||||||||||||||||`6       >/|||||||||||||||||||||||||||||||9B|",
"|B9|||||||||||||||||||||||||||||||||||||||||||||||||||||)4       ,)||||||||||||||||||||||||||||||9B|",
"|B9||||||||||||||||||||||||||||||||||||||||||||||||||||||)<       <)|||||||||||||||||||||||||||||9B|",
"|B9|||||||||||||||||||||||||||||||||||||||||||||||||||||||(>       2)||||||||||||||||||||||||||||9B|",
"|B9||||||||||||||||||||||||||||||||||||||||||||||||||||||||/:       3)|||||||||||||||||||||||||||9B|",
"|B9|||||||||||||||||||||||||||||||||||||||||||||||||||||||||^-       4_||||||||||||||||||||||||||9B|",
"|B9||||||||||||||||||||||||||||||||||||||||||||||||||||||||||~=       6`|||||||||||||||||||||||||9B|",
"|B9|||||||||||||||||||||||||||||||||||||||||||||||||||||||||||!&       6`||||||||||||||||||||||||9B|",
"|B9||||||||||||||||||||||||||||||||||||||||||||||||||||||||||||Q%       8`|||||||||||||||||||||||9B|",
"|B9|||||||||||||||||||||||||||||||||||||||||||||||||||||||||||||!DDDDDDDDY|||||||||||||||||||||||9B|",
"|B9||||||||||||||||||||||||||||||||||||||||||||||||||||||||||||||||||||||||||||||||||||||||||||||9B|",
"|B9||||||||||||||||||||||||||||||||||||||||||||||||||||||||||||||||||||||||||||||||||||||||||||||9B|",
"|B9||||||||||||||||||||||||||||||||||||||||||||||||||||||||||||||||||||||||||||||||||||||||||||||9B|",
"|Bi||||||||||||||||||||||||||||||||||||||||||||||||||||||||||||||||||||||||||||||||||||||||||||||9B|",
"|B999999999999999999999999999999999999999999999999999999999999999999999999999999999999999999999999B|",
"|MBBBBBBBBBBBBBBBBBBBBBBBBBBBBBBBBBBBBBBBBBBBBBBBBBBBBBBBBBBBBBBBBBBBBBBBBBBBBBBBBBBBBBBBBBBBBBBBBM|",
"||||||||||||||||||||||||||||||||||||||||||||||||||||||||||||||||||||||||||||||||||||||||||||||||||||"
};
