/* XPM */
static char *q1[] = {
/* columns rows colors chars-per-pixel */
"100 100 88 1 ",
"  c #686868",
". c #7C7C7C",
"X c #348032",
"o c #378135",
"O c #3A8238",
"+ c #3F833D",
"@ c #418440",
"# c #448542",
"$ c #468644",
"% c #488747",
"& c #4A8749",
"* c #4C884B",
"= c #4E894D",
"- c #508A4F",
"; c #528A51",
": c #558C54",
"> c #588D57",
", c #5A8E59",
"< c #5F905E",
"1 c #639362",
"2 c #659364",
"3 c #669465",
"4 c #6A9669",
"5 c #6D976C",
"6 c #6E986D",
"7 c #739B72",
"8 c #749B73",
"9 c #759C74",
"0 c #7B9F7A",
"q c #7CA07B",
"w c #7FA27E",
"e c #81A381",
"r c #83A483",
"t c #85A685",
"y c #88A788",
"u c #8AA989",
"i c #8CAA8B",
"p c #8EAB8D",
"a c #8FAC8F",
"s c #93AE93",
"d c #94AF93",
"f c #95AF94",
"g c #97B197",
"h c #9AB399",
"j c #9BB49B",
"k c #9FB79F",
"l c #AFAFAF",
"z c #A1B8A1",
"x c #A4BAA4",
"c c #A7BCA7",
"v c #ABBEAA",
"b c gray70",
"n c #AFC1AF",
"m c #B0C2AF",
"M c #B0C2B0",
"N c #B3C4B3",
"B c #B4C5B3",
"V c #B7C7B7",
"C c #BBCABB",
"Z c #BCCBBB",
"A c #BCCBBC",
"S c #BECCBE",
"D c #C1CEC0",
"F c #C3D0C3",
"G c #C7D3C6",
"H c #C8D4C8",
"J c #CCD7CC",
"K c #CFD9CE",
"L c #D2DBD2",
"P c #D3DCD3",
"I c #D4DDD4",
"U c #D7E0D7",
"Y c #DAE2DA",
"T c #DCE3DC",
"R c #DEE4DD",
"E c #E1E7E1",
"W c #E2E8E2",
"Q c #E6EBE5",
"! c #EAEEEA",
"~ c #EDF1ED",
"^ c #F0F3EF",
"/ c #F0F3F0",
"( c #F3F5F3",
") c #F5F7F5",
"_ c #F6F8F6",
"` c #F8F9F8",
"' c #FBFCFB",
"] c white",
/* pixels */
"]]]]]]]]]]]]]]]]]]]]]]]]]]]]]]]]]]]]]]]]]]]]]]]]]]]]]]]]]]]]]]]]]]]]]]]]]]]]]]]]]]]]]]]]]]]]]]]]]]]]",
"]lbbbbbbbbbbbbbbbbbbbbbbbbbbbbbbbbbbbbbbbbbbbbbbbbbbbbbbbbbbbbbbbbbbbbbbbbbbbbbbbbbbbbbbbbbbbbbbbbl]",
"]b                                                                                                b]",
"]b XXXXXXXXXXXXXXXXXXXXXXXXXXXXXXXXXXXXXXXXXXXXXXXXXXXXXXXXXXXXXXXXXXXXXXXXXXXXXXXXXXXXXXXXXXXXXX b]",
"]b XXXXXXXXXXXXXXXXXXXXXXXXXXXXXXXXXXXXXXXXXXXXXXXXXXXXXXXXXXXXXXXXXXXXXXXXXXXXXXXXXXXXXXXXXXXXXX b]",
"]b XXXXXXXXXXXXXXXXXXXXXXXXXXXXXXXXXXXXXXXXXXXXXXXXXXXXXXXXXXXXXXXXXXXXXXXXXXXXXXXXXXXXXXXXXXXXXX b]",
"]b XXXXXXXXXXXXXXXXXXXXXXXXXXXXXXXXXXXXXXXXXXXXXXXXXXXXXXXXXXXXXXXXXXXXXXXXXXXXXXXXXXXXXXXXXXXXXX b]",
"]b XXXXXXXXXXXXXXXXXXXXXXXXXXXXXXXXXXXXXXXXXXXXXXXXXXXXXXXXXXXXXXXXXXXXXXXXXXXXXXXXXXXXXXXXXXXXXX b]",
"]b XXXXXXXXXXXXXXXXXXXXXXXXXXXXXXXXXXXXXXXXXXXXXXXXXXXXXXXXXXXXXXXXXXXXXXXXXXXXXXXXXXXXXXXXXXXXXX b]",
"]b XXXXXXXXXXXXXXXXXXXXXXXXXXXXXXXXXXXXXXXXXXXXXXXXXXXXXXXXXXXXXXXXXXXXXXXXXXXXXXXXXXXXXXXXXXXXXX b]",
"]b XXXXXXXXXXXXXXXXXXXXXXXXXXXXXXXXXXXXXXXXXXXXXXXXXXXXXXXXXXXXXXXXXXXXXXXXXXXXXXXXXXXXXXXXXXXXXX b]",
"]b XXXXXXXXXXXXXXXXXXXXXXXXXXXXXXXXXXXXXXXXXXXXXXXXXXXXXXXXXXXXXXXXXXXXXXXXXXXXXXXXXXXXXXXXXXXXXX b]",
"]b XXXXXXXXXXXXXXXXXXXXXXXXXXXXXXXXXXXXXXXXXXXXXXXXXXXXXXXXXXXXXXXXXXXXXXXXXXXXXXXXXXXXXXXXXXXXXX b]",
"]b XXXXXXXXXXXXXXXXXXXXXXXXXXXXXXXXXXXXXXXXXXXXXXXXXXXXXXXXXXXXXXXXXXXXXXXXXXXXXXXXXXXXXXXXXXXXXX b]",
"]b XXXXXXXXXXXXXXXXXXXXXXXXXXXXXXXXXXXXXXXXXXXXXXXXXXXXXXXXXXXXXXXXXXXXXXXXXXXXXXXXXXXXXXXXXXXXXX b]",
"]b XXXXXXXXXXXXXXXXXXXXXXXXXXXXXXXXXXXXXXXXXXXXXXXXXXXXXXXXXXXXXXXXXXXXXXXXXXXXXXXXXXXXXXXXXXXXXX b]",
"]b XXXXXXXXXXXXXXXXXXXXXXXXXXXXXXXXXXXXXXXXXXXXXXXXXXXXXXXXXXXXXXXXXXXXXXXXXXXXXXXXXXXXXXXXXXXXXX b]",
"]b XXXXXXXXXXXXXXXXXXXXXXXXXXXXXXXXXXXXXXXXXXXXXXXXXXXXXXXXXXXXXXXXXXXXXXXXXXXXXXXXXXXXXXXXXXXXXX b]",
"]b XXXXXXXXXXXXXXXXXXXXXXXXXXXXXXXXXXXXXXXXXXXXXXXXXXXXXXXXXXXXXXXXXXXXXXXXXXXXXXXXXXXXXXXXXXXXXX b]",
"]b XXXXXXXXXXXXXXXXXXXXXXXXXXXXXXXXXXXXXXXXX+pDY~_]]_^RGh=XXXXXXXXXXXXXXXXXXXXXXXXXXXXXXXXXXXXXXX b]",
"]b XXXXXXXXXXXXXXXXXXXXXXXXXXXXXXXXXXXXXXX4G_]]]]]]]]]]]]]LtXXXXXXXXXXXXXXXXXXXXXXXXXXXXXXXXXXXXX b]",
"]b XXXXXXXXXXXXXXXXXXXXXXXXXXXXXXXXXXXXX$S]]]]]]]]]]]]]]]]]]I3XXXXXXXXXXXXXXXXXXXXXXXXXXXXXXXXXXX b]",
"]b XXXXXXXXXXXXXXXXXXXXXXXXXXXXXXXXXXXX4!]]]]]]]]]]]]]]]]]]]]_aXXXXXXXXXXXXXXXXXXXXXXXXXXXXXXXXXX b]",
"]b XXXXXXXXXXXXXXXXXXXXXXXXXXXXXXXXXXX0)]]]]]]]]]]]]]]]]]]]]]]]kXXXXXXXXXXXXXXXXXXXXXXXXXXXXXXXXX b]",
"]b XXXXXXXXXXXXXXXXXXXXXXXXXXXXXXXXXX6)]]]]]]]]]]]]]]]]]]]]]]]]]dXXXXXXXXXXXXXXXXXXXXXXXXXXXXXXXX b]",
"]b XXXXXXXXXXXXXXXXXXXXXXXXXXXXXXXXX#!]]]]]]]]]WNi97tnY]]]]]]]]]_3XXXXXXXXXXXXXXXXXXXXXXXXXXXXXXX b]",
"]b XXXXXXXXXXXXXXXXXXXXXXXXXXXXXXXXXG]]]]]]]]!yXXXXXXXX7R]]]]]]]]EXXXXXXXXXXXXXXXXXXXXXXXXXXXXXXX b]",
"]b XXXXXXXXXXXXXXXXXXXXXXXXXXXXXXXX9]]]]]]]]R*XXXXXXXXXXoH]]]]]]]]kXXXXXXXXXXXXXXXXXXXXXXXXXXXXXX b]",
"]b XXXXXXXXXXXXXXXXXXXXXXXXXXXXXXXXY]]]]]]]!&XXXXXXXXXXXXXI]]]]]]]~OXXXXXXXXXXXXXXXXXXXXXXXXXXXXX b]",
"]b XXXXXXXXXXXXXXXXXXXXXXXXXXXXXXX9]]]]]]]]qXXXXXXXXXXXXXX:)]]]]]]]kXXXXXXXXXXXXXXXXXXXXXXXXXXXXX b]",
"]b XXXXXXXXXXXXXXXXXXXXXXXXXXXXXXXH]]]]]]]KXXXXXXXXXXXXXXXXn]]]]]]]EXXXXXXXXXXXXXXXXXXXXXXXXXXXXX b]",
"]b XXXXXXXXXXXXXXXXXXXXXXXXXXXXXX@_]]]]]]]0XXXXXXXXXXXXXXXX%_]]]]]]]4XXXXXXXXXXXXXXXXXXXXXXXXXXXX b]",
"]b XXXXXXXXXXXXXXXXXXXXXXXXXXXXXXg]]]]]]]QXXXXXXXXXXXXXXXXXXH]]]]]]]VXXXXXXXXXXXXXXXXXXXXXXXXXXXX b]",
"]b XXXXXXXXXXXXXXXXXXXXXXXXXXXXXXK]]]]]]]ZXXXXXXXXXXXXXXXXXXs]]]]]]]WXXXXXXXXXXXXXXXXXXXXXXXXXXXX b]",
"]b XXXXXXXXXXXXXXXXXXXXXXXXXXXXXX~]]]]]]]tXXXXXXXXXXXXXXXXXX$]]]]]]]]$XXXXXXXXXXXXXXXXXXXXXXXXXXX b]",
"]b XXXXXXXXXXXXXXXXXXXXXXXXXXXXX1]]]]]]]'@XXXXXXXXXXXXXXXXXXXQ]]]]]]]pXXXXXXXXXXXXXXXXXXXXXXXXXXX b]",
"]b XXXXXXXXXXXXXXXXXXXXXXXXXXXXXj]]]]]]]QXXXXXXXXXXXXXXXXXXXXH]]]]]]]CXXXXXXXXXXXXXXXXXXXXXXXXXXX b]",
"]b XXXXXXXXXXXXXXXXXXXXXXXXXXXXXA]]]]]]]KXXXXXXXXXXXXXXXXXXXXM]]]]]]]PXXXXXXXXXXXXXXXXXXXXXXXXXXX b]",
"]b XXXXXXXXXXXXXXXXXXXXXXXXXXXXXI]]]]]]]VXXXXXXXXXXXXXXXXXXXXs]]]]]]]!XXXXXXXXXXXXXXXXXXXXXXXXXXX b]",
"]b XXXXXXXXXXXXXXXXXXXXXXXXXXXXX!]]]]]]]zXXXXXXXXXXXXXXXXXXXX9]]]]]]]'XXXXXXXXXXXXXXXXXXXXXXXXXXX b]",
"]b XXXXXXXXXXXXXXXXXXXXXXXXXXXXX_]]]]]]]tXXXXXXXXXXXXXXXXXXXX%]]]]]]]]<XXXXXXXXXXXXXXXXXXXXXXXXXX b]",
"]b XXXXXXXXXXXXXXXXXXXXXXXXXXXX*]]]]]]]]6XXXXXXXXXXXXXXXXXXXXX`]]]]]]]eXXXXXXXXXXXXXXXXXXXXXXXXXX b]",
"]b XXXXXXXXXXXXXXXXXXXXXXXXXXXX7]]]]]]]]-XXXXXXXXXXXXXXXXXXXXX(]]]]]]]hXXXXXXXXXXXXXXXXXXXXXXXXXX b]",
"]b XXXXXXXXXXXXXXXXXXXXXXXXXXXXt]]]]]]]]XXXXXXXXXXXXXXXXXXXXXX!]]]]]]]cXXXXXXXXXXXXXXXXXXXXXXXXXX b]",
"]b XXXXXXXXXXXXXXXXXXXXXXXXXXXXf]]]]]]]`XXXXXXXXXXXXXXXXXXXXXXW]]]]]]]NXXXXXXXXXXXXXXXXXXXXXXXXXX b]",
"]b XXXXXXXXXXXXXXXXXXXXXXXXXXXXz]]]]]]](XXXXXXXXXXXXXXXXXXXXXXR]]]]]]]SXXXXXXXXXXXXXXXXXXXXXXXXXX b]",
"]b XXXXXXXXXXXXXXXXXXXXXXXXXXXXc]]]]]]]~XXXXXXXXXXXXXXXXXXXXXXY]]]]]]]FXXXXXXXXXXXXXXXXXXXXXXXXXX b]",
"]b XXXXXXXXXXXXXXXXXXXXXXXXXXXXv]]]]]]]~XXXXXXXXXXXXXXXXXXXXXXU]]]]]]]GXXXXXXXXXXXXXXXXXXXXXXXXXX b]",
"]b XXXXXXXXXXXXXXXXXXXXXXXXXXXXn]]]]]]]!XXXXXXXXXXXXXXXXXXXXXXI]]]]]]]HXXXXXXXXXXXXXXXXXXXXXXXXXX b]",
"]b XXXXXXXXXXXXXXXXXXXXXXXXXXXXM]]]]]]]!XXXXXXXXXXXXXXXXXXXXXXI]]]]]]]JXXXXXXXXXXXXXXXXXXXXXXXXXX b]",
"]b XXXXXXXXXXXXXXXXXXXXXXXXXXXXm]]]]]]]!XXXXXXXXXXXXXXXXXXXXXXI]]]]]]]HXXXXXXXXXXXXXXXXXXXXXXXXXX b]",
"]b XXXXXXXXXXXXXXXXXXXXXXXXXXXXn]]]]]]]~XXXXXXXXXXXXXXXXXXXXXXU]]]]]]]HXXXXXXXXXXXXXXXXXXXXXXXXXX b]",
"]b XXXXXXXXXXXXXXXXXXXXXXXXXXXXv]]]]]]]~XXXXXXXXXXXXXXXXXXXXXXY]]]]]]]GXXXXXXXXXXXXXXXXXXXXXXXXXX b]",
"]b XXXXXXXXXXXXXXXXXXXXXXXXXXXXx]]]]]]](XXXXXXXXXXXXXXXXXXXXXXR]]]]]]]SXXXXXXXXXXXXXXXXXXXXXXXXXX b]",
"]b XXXXXXXXXXXXXXXXXXXXXXXXXXXXh]]]]]]]_XXXXXXXXXXXXXXXXXXXXXXW]]]]]]]VXXXXXXXXXXXXXXXXXXXXXXXXXX b]",
"]b XXXXXXXXXXXXXXXXXXXXXXXXXXXXu]]]]]]]]XXXXXXXXXXXXXXXXXXXXXX!]]]]]]]vXXXXXXXXXXXXXXXXXXXXXXXXXX b]",
"]b XXXXXXXXXXXXXXXXXXXXXXXXXXXX9]]]]]]]]-XXXXXXXXXXXXXXXXXXXXX(]]]]]]]jXXXXXXXXXXXXXXXXXXXXXXXXXX b]",
"]b XXXXXXXXXXXXXXXXXXXXXXXXXXXX;]]]]]]]]6XXXXXXXXXXXXXXXXXXXXX`]]]]]]]yXXXXXXXXXXXXXXXXXXXXXXXXXX b]",
"]b XXXXXXXXXXXXXXXXXXXXXXXXXXXXX`]]]]]]]tXXXXXXXXXXXXXXXXXXXX%]]]]]]]]3XXXXXXXXXXXXXXXXXXXXXXXXXX b]",
"]b XXXXXXXXXXXXXXXXXXXXXXXXXXXXX!]]]]]]]zXXXXXXXXXXXXXXXXXXXX8]]]]]]]]OXXXXXXXXXXXXXXXXXXXXXXXXXX b]",
"]b XXXXXXXXXXXXXXXXXXXXXXXXXXXXXI]]]]]]]VXXXXXXXXXXXXXXXXXXXXs]]]]]]]~XXXXXXXXXXXXXXXXXXXXXXXXXXX b]",
"]b XXXXXXXXXXXXXXXXXXXXXXXXXXXXXC]]]]]]]KXXXXXXXXXXXXXXXXXXXXm]]]]]]]YXXXXXXXXXXXXXXXXXXXXXXXXXXX b]",
"]b XXXXXXXXXXXXXXXXXXXXXXXXXXXXXh]]]]]]]QXXXXXXXXXXXXXXXXXXXXH]]]]]]]SXXXXXXXXXXXXXXXXXXXXXXXXXXX b]",
"]b XXXXXXXXXXXXXXXXXXXXXXXXXXXXX>]]]]]]]'+XXXXXXXXXXXXXXXXXXXQ]]]]]]]gXXXXXXXXXXXXXXXXXXXXXXXXXXX b]",
"]b XXXXXXXXXXXXXXXXXXXXXXXXXXXXXX!]]]]]]]tXXXXXXXXXXXXXXXXXX#]]]]]]]]>XXXXXXXXXXXXXXXXXXXXXXXXXXX b]",
"]b XXXXXXXXXXXXXXXXXXXXXXXXXXXXXXG]]]]]]]CXXXXXXXXXXXXXXXXXXs]]]]]]]QXXXXXXXXXXXXXXXXXXXXXXXXXXXX b]",
"]b XXXXXXXXXXXXXXXXXXXXXXXXXXXXXXt]]]]]]]QXXXXXXXXXXXXXXXXXXH]]]]]]]SXXXXXXXXXXXXXXXXXXXXXXXXXXXX b]",
"]b XXXXXXXXXXXXXXXXXXXXXXXXXXXXXXX(]]]]]]]0XXXXXXXXXXXXXXXX%_]]]]]]]qXXXXXXXXXXXXXXXXXXXXXXXXXXXX b]",
"]b XXXXXXXXXXXXXXXXXXXXXXXXXXXXXXXZ]]]]]]]KXXXXXXXXXXXXXXXXn]]]]]]]!XXXXXXXXXXXXXXXXXXXXXXXXXXXXX b]",
"]b XXXXXXXXXXXXXXXXXXXXXXXXXXXXXXX<']]]]]]]qXXXXXXXXXXXXXX:)]]]]]]]xXXXXXXXXXXXXXXXXXXXXXXXXXXXXX b]",
"]b XXXXXXXXXXXXXXXXXXXXXXXXXXXXXXXXH]]]]]]]!&XXXXXXXXXXXXXI]]]]]]](+XXXXXXXXXXXXXXXXXXXXXXXXXXXXX b]",
"]b XXXXXXXXXXXXXXXXXXXXXXXXXXXXXXXX,`]]]]]]]R*XXXXXXXXXXoH]]]]]]]]nXXXXXXXXXXXXXXXXXXXXXXXXXXXXXX b]",
"]b XXXXXXXXXXXXXXXXXXXXXXXXXXXXXXXXXv]]]]]]]]!tXXXXXXXX7R]]]]]]]]WoXXXXXXXXXXXXXXXXXXXXXXXXXXXXXX b]",
"]b XXXXXXXXXXXXXXXXXXXXXXXXXXXXXXXXXXU]]]]]]]]]WNu77tvY]]]]]]]]]`7XXXXXXXXXXXXXXXXXXXXXXXXXXXXXXX b]",
"]b XXXXXXXXXXXXXXXXXXXXXXXXXXXXXXXXXX;!]]]]]]]]]]]]]]]]]]]]]]]]]xXXXXXXXXXXXXXXXXXXXXXXXXXXXXXXXX b]",
"]b XXXXXXXXXXXXXXXXXXXXXXXXXXXXXXXXXXX<!]]]]]]]]]]]]]]]]]]]]]]]BXXXXXXXXXXXXXXXXXXXXXXXXXXXXXXXXX b]",
"]b XXXXXXXXXXXXXXXXXXXXXXXXXXXXXXXXXXXX;T]]]]]]]]]]]]]]]]]]]]`xXXXXXXXXXXXXXXXXXXXXXXXXXXXXXXXXXX b]",
"]b XXXXXXXXXXXXXXXXXXXXXXXXXXXXXXXXXXXXXon`]]]]]]]]]]]]]]]]]E9XXXXXXXXXXXXXXXXXXXXXXXXXXXXXXXXXXX b]",
"]b XXXXXXXXXXXXXXXXXXXXXXXXXXXXXXXXXXXXXXX>C(]]]]]]]]]]]]]]]yXXXXXXXXXXXXXXXXXXXXXXXXXXXXXXXXXXXX b]",
"]b XXXXXXXXXXXXXXXXXXXXXXXXXXXXXXXXXXXXXXXXXotAY~_]]]]]]]]]]`tXXXXXXXXXXXXXXXXXXXXXXXXXXXXXXXXXXX b]",
"]b XXXXXXXXXXXXXXXXXXXXXXXXXXXXXXXXXXXXXXXXXXXXXXXXX<~]]]]]]]`rXXXXXXXXXXXXXXXXXXXXXXXXXXXXXXXXXX b]",
"]b XXXXXXXXXXXXXXXXXXXXXXXXXXXXXXXXXXXXXXXXXXXXXXXXXX2~]]]]]]]`eXXXXXXXXXXXXXXXXXXXXXXXXXXXXXXXXX b]",
"]b XXXXXXXXXXXXXXXXXXXXXXXXXXXXXXXXXXXXXXXXXXXXXXXXXXX4/]]]]]]]_wXXXXXXXXXXXXXXXXXXXXXXXXXXXXXXXX b]",
"]b XXXXXXXXXXXXXXXXXXXXXXXXXXXXXXXXXXXXXXXXXXXXXXXXXXXX5(]]]]]]]_qXXXXXXXXXXXXXXXXXXXXXXXXXXXXXXX b]",
"]b XXXXXXXXXXXXXXXXXXXXXXXXXXXXXXXXXXXXXXXXXXXXXXXXXXXXX7(]]]]]]])0XXXXXXXXXXXXXXXXXXXXXXXXXXXXXX b]",
"]b XXXXXXXXXXXXXXXXXXXXXXXXXXXXXXXXXXXXXXXXXXXXXXXXXXXXXX9)]]]]]]])9XXXXXXXXXXXXXXXXXXXXXXXXXXXXX b]",
"]b XXXXXXXXXXXXXXXXXXXXXXXXXXXXXXXXXXXXXXXXXXXXXXXXXXXXXXX0_]]]]]]])9XXXXXXXXXXXXXXXXXXXXXXXXXXXX b]",
"]b XXXXXXXXXXXXXXXXXXXXXXXXXXXXXXXXXXXXXXXXXXXXXXXXXXXXXXXXw_]]]]]]])7XXXXXXXXXXXXXXXXXXXXXXXXXXX b]",
"]b XXXXXXXXXXXXXXXXXXXXXXXXXXXXXXXXXXXXXXXXXXXXXXXXXXXXXXXXXr`]]]]]]](7XXXXXXXXXXXXXXXXXXXXXXXXXX b]",
"]b XXXXXXXXXXXXXXXXXXXXXXXXXXXXXXXXXXXXXXXXXXXXXXXXXXXXXXXXXXy`]]]]]]](6XXXXXXXXXXXXXXXXXXXXXXXXX b]",
"]b XXXXXXXXXXXXXXXXXXXXXXXXXXXXXXXXXXXXXXXXXXXXXXXXXXXXXXXXXXXp']]]]]]](5XXXXXXXXXXXXXXXXXXXXXXXX b]",
"]b XXXXXXXXXXXXXXXXXXXXXXXXXXXXXXXXXXXXXXXXXXXXXXXXXXXXXXXXXXXXs']]]]]]]/4XXXXXXXXXXXXXXXXXXXXXXX b]",
"]b XXXXXXXXXXXXXXXXXXXXXXXXXXXXXXXXXXXXXXXXXXXXXXXXXXXXXXXXXXXXXpAAAAAAAAzXXXXXXXXXXXXXXXXXXXXXXX b]",
"]b XXXXXXXXXXXXXXXXXXXXXXXXXXXXXXXXXXXXXXXXXXXXXXXXXXXXXXXXXXXXXXXXXXXXXXXXXXXXXXXXXXXXXXXXXXXXXX b]",
"]b XXXXXXXXXXXXXXXXXXXXXXXXXXXXXXXXXXXXXXXXXXXXXXXXXXXXXXXXXXXXXXXXXXXXXXXXXXXXXXXXXXXXXXXXXXXXXX b]",
"]b XXXXXXXXXXXXXXXXXXXXXXXXXXXXXXXXXXXXXXXXXXXXXXXXXXXXXXXXXXXXXXXXXXXXXXXXXXXXXXXXXXXXXXXXXXXXXX b]",
"]b.XXXXXXXXXXXXXXXXXXXXXXXXXXXXXXXXXXXXXXXXXXXXXXXXXXXXXXXXXXXXXXXXXXXXXXXXXXXXXXXXXXXXXXXXXXXXXX b]",
"]b                                                                                                b]",
"]lbbbbbbbbbbbbbbbbbbbbbbbbbbbbbbbbbbbbbbbbbbbbbbbbbbbbbbbbbbbbbbbbbbbbbbbbbbbbbbbbbbbbbbbbbbbbbbbbl]",
"]]]]]]]]]]]]]]]]]]]]]]]]]]]]]]]]]]]]]]]]]]]]]]]]]]]]]]]]]]]]]]]]]]]]]]]]]]]]]]]]]]]]]]]]]]]]]]]]]]]]"
};
