/* XPM */
static char *q2[] = {
/* columns rows colors chars-per-pixel */
"100 100 79 1 ",
"  c #686868",
". c #7C7C7C",
"X c #C3AF2A",
"o c #C3AF2E",
"O c #C4B031",
"+ c #C4B137",
"@ c #C4B13A",
"# c #C5B23F",
"$ c #C5B242",
"% c #C6B344",
"& c #C6B348",
"* c #C6B44A",
"= c #C7B44C",
"- c #C7B550",
"; c #C8B654",
": c #C9B75B",
"> c #CAB95F",
", c #CAB962",
"< c #CBBA67",
"1 c #CBBB68",
"2 c #CCBB69",
"3 c #CCBC6B",
"4 c #CDBD6E",
"5 c #CDBD70",
"6 c #CEBF76",
"7 c #CFC078",
"8 c #D0C17B",
"9 c #D0C27F",
"0 c #AFAFAF",
"q c gray70",
"w c #D1C383",
"e c #D2C485",
"r c #D3C68A",
"t c #D4C78D",
"y c #D5C88F",
"u c #D5C991",
"i c #D6CA96",
"p c #D7CB98",
"a c #D8CC9A",
"s c #D9CE9E",
"d c #DACFA2",
"f c #DAD0A3",
"g c #DBD1A6",
"h c #DDD3A9",
"j c #DED4AE",
"k c #DFD5B0",
"l c #E0D6B2",
"z c #E1D8B6",
"x c #E3DBBB",
"c c #E3DBBC",
"v c #E3DCBD",
"b c #E4DCBE",
"n c #E4DDC0",
"m c #E6DFC5",
"M c #E7E0C6",
"N c #E7E1C8",
"B c #E9E2CB",
"V c #E9E3CC",
"C c #EAE4CE",
"Z c #EBE6D1",
"A c #ECE6D2",
"S c #ECE7D4",
"D c #EDE8D5",
"F c #EFEADA",
"G c #EFEBDC",
"H c #F0ECDD",
"J c #F2EEE2",
"K c #F3F0E5",
"L c #F4F1E6",
"P c #F6F3EA",
"I c #F6F4EB",
"U c #F7F5ED",
"Y c #F8F6EF",
"T c #F9F7F1",
"R c #FAF8F3",
"E c #FBFAF6",
"W c #FCFBF8",
"Q c #FDFDFB",
"! c white",
/* pixels */
"!!!!!!!!!!!!!!!!!!!!!!!!!!!!!!!!!!!!!!!!!!!!!!!!!!!!!!!!!!!!!!!!!!!!!!!!!!!!!!!!!!!!!!!!!!!!!!!!!!!!",
"!0qqqqqqqqqqqqqqqqqqqqqqqqqqqqqqqqqqqqqqqqqqqqqqqqqqqqqqqqqqqqqqqqqqqqqqqqqqqqqqqqqqqqqqqqqqqqqqqq0!",
"!q                                                                                                q!",
"!q XXXXXXXXXXXXXXXXXXXXXXXXXXXXXXXXXXXXXXXXXXXXXXXXXXXXXXXXXXXXXXXXXXXXXXXXXXXXXXXXXXXXXXXXXXXXXX q!",
"!q XXXXXXXXXXXXXXXXXXXXXXXXXXXXXXXXXXXXXXXXXXXXXXXXXXXXXXXXXXXXXXXXXXXXXXXXXXXXXXXXXXXXXXXXXXXXXX q!",
"!q XXXXXXXXXXXXXXXXXXXXXXXXXXXXXXXXXXXXXXXXXXXXXXXXXXXXXXXXXXXXXXXXXXXXXXXXXXXXXXXXXXXXXXXXXXXXXX q!",
"!q XXXXXXXXXXXXXXXXXXXXXXXXXXXXXXXXXXXXXXXXXXXXXXXXXXXXXXXXXXXXXXXXXXXXXXXXXXXXXXXXXXXXXXXXXXXXXX q!",
"!q XXXXXXXXXXXXXXXXXXXXXXXXXXXXXXXXXXXXXXXXXXXXXXXXXXXXXXXXXXXXXXXXXXXXXXXXXXXXXXXXXXXXXXXXXXXXXX q!",
"!q XXXXXXXXXXXXXXXXXXXXXXXXXXXXXXXXXXXXXXXXXXXXXXXXXXXXXXXXXXXXXXXXXXXXXXXXXXXXXXXXXXXXXXXXXXXXXX q!",
"!q XXXXXXXXXXXXXXXXXXXXXXXXXXXXXXXXXXXXXXXXXXXXXXXXXXXXXXXXXXXXXXXXXXXXXXXXXXXXXXXXXXXXXXXXXXXXXX q!",
"!q XXXXXXXXXXXXXXXXXXXXXXXXXXXXXXXXXXXXXXXXXXXXXXXXXXXXXXXXXXXXXXXXXXXXXXXXXXXXXXXXXXXXXXXXXXXXXX q!",
"!q XXXXXXXXXXXXXXXXXXXXXXXXXXXXXXXXXXXXXXXXXXXXXXXXXXXXXXXXXXXXXXXXXXXXXXXXXXXXXXXXXXXXXXXXXXXXXX q!",
"!q XXXXXXXXXXXXXXXXXXXXXXXXXXXXXXXXXXXXXXXXXXXXXXXXXXXXXXXXXXXXXXXXXXXXXXXXXXXXXXXXXXXXXXXXXXXXXX q!",
"!q XXXXXXXXXXXXXXXXXXXXXXXXXXXXXXXXXXXXXXXXXXXXXXXXXXXXXXXXXXXXXXXXXXXXXXXXXXXXXXXXXXXXXXXXXXXXXX q!",
"!q XXXXXXXXXXXXXXXXXXXXXXXXXXXXXXXXXXXXXXXXXXXXXXXXXXXXXXXXXXXXXXXXXXXXXXXXXXXXXXXXXXXXXXXXXXXXXX q!",
"!q XXXXXXXXXXXXXXXXXXXXXXXXXXXXXXXXXXXXXXXXXXXXXXXXXXXXXXXXXXXXXXXXXXXXXXXXXXXXXXXXXXXXXXXXXXXXXX q!",
"!q XXXXXXXXXXXXXXXXXXXXXXXXXXXXXXXXXXXXXXXXXXXXXXXXXXXXXXXXXXXXXXXXXXXXXXXXXXXXXXXXXXXXXXXXXXXXXX q!",
"!q XXXXXXXXXXXXXXXXXXXXXXXXXXXXXXXXXXXXXXXXXXXXXXXXXXXXXXXXXXXXXXXXXXXXXXXXXXXXXXXXXXXXXXXXXXXXXX q!",
"!q XXXXXXXXXXXXXXXXXXXXXXXXXXXXXXXXXXXXXXXXXXXXXXXXXXXXXXXXXXXXXXXXXXXXXXXXXXXXXXXXXXXXXXXXXXXXXX q!",
"!q XXXXXXXXXXXXXXXXXXXXXXXXXXXXXXXXXXXXXXXXX+tnFUE!!EYHMp&XXXXXXXXXXXXXXXXXXXXXXXXXXXXXXXXXXXXXXX q!",
"!q XXXXXXXXXXXXXXXXXXXXXXXXXXXXXXXXXXXXXXX<nE!!!!!!!!!!!!!ZwXXXXXXXXXXXXXXXXXXXXXXXXXXXXXXXXXXXXX q!",
"!q XXXXXXXXXXXXXXXXXXXXXXXXXXXXXXXXXXXXX#v!!!!!!!!!!!!!!!!!!S,XXXXXXXXXXXXXXXXXXXXXXXXXXXXXXXXXXX q!",
"!q XXXXXXXXXXXXXXXXXXXXXXXXXXXXXXXXXXXX1P!!!!!!!!!!!!!!!!!!!!EtXXXXXXXXXXXXXXXXXXXXXXXXXXXXXXXXXX q!",
"!q XXXXXXXXXXXXXXXXXXXXXXXXXXXXXXXXXXX6E!!!!!!!!!!!!!!!!!!!!!!!sXXXXXXXXXXXXXXXXXXXXXXXXXXXXXXXXX q!",
"!q XXXXXXXXXXXXXXXXXXXXXXXXXXXXXXXXXX3R!!!!!!!!!!!!!!!!!!!!!!!!!uXXXXXXXXXXXXXXXXXXXXXXXXXXXXXXXX q!",
"!q XXXXXXXXXXXXXXXXXXXXXXXXXXXXXXXXX#P!!!!!!!!!Jlr54ejF!!!!!!!!!E,XXXXXXXXXXXXXXXXXXXXXXXXXXXXXXX q!",
"!q XXXXXXXXXXXXXXXXXXXXXXXXXXXXXXXXXn!!!!!!!!IeXXXXXXXX5H!!!!!!!!HXXXXXXXXXXXXXXXXXXXXXXXXXXXXXXX q!",
"!q XXXXXXXXXXXXXXXXXXXXXXXXXXXXXXXX5!!!!!!!!H%XXXXXXXXXXoN!!!!!!!!sXXXXXXXXXXXXXXXXXXXXXXXXXXXXXX q!",
"!q XXXXXXXXXXXXXXXXXXXXXXXXXXXXXXXXF!!!!!!!P%XXXXXXXXXXXXXD!!!!!!!UOXXXXXXXXXXXXXXXXXXXXXXXXXXXXX q!",
"!q XXXXXXXXXXXXXXXXXXXXXXXXXXXXXXX5!!!!!!!!7XXXXXXXXXXXXXX-E!!!!!!!aXXXXXXXXXXXXXXXXXXXXXXXXXXXXX q!",
"!q XXXXXXXXXXXXXXXXXXXXXXXXXXXXXXXB!!!!!!!CXXXXXXXXXXXXXXXXj!!!!!!!JXXXXXXXXXXXXXXXXXXXXXXXXXXXXX q!",
"!q XXXXXXXXXXXXXXXXXXXXXXXXXXXXXX@E!!!!!!!7XXXXXXXXXXXXXXXX$E!!!!!!!<XXXXXXXXXXXXXXXXXXXXXXXXXXXX q!",
"!q XXXXXXXXXXXXXXXXXXXXXXXXXXXXXXi!!!!!!!LXXXXXXXXXXXXXXXXXXB!!!!!!!lXXXXXXXXXXXXXXXXXXXXXXXXXXXX q!",
"!q XXXXXXXXXXXXXXXXXXXXXXXXXXXXXXV!!!!!!!xXXXXXXXXXXXXXXXXXXu!!!!!!!JXXXXXXXXXXXXXXXXXXXXXXXXXXXX q!",
"!q XXXXXXXXXXXXXXXXXXXXXXXXXXXXXXU!!!!!!!wXXXXXXXXXXXXXXXXXX#!!!!!!!!#XXXXXXXXXXXXXXXXXXXXXXXXXXX q!",
"!q XXXXXXXXXXXXXXXXXXXXXXXXXXXXX>!!!!!!!Q@XXXXXXXXXXXXXXXXXXXK!!!!!!!tXXXXXXXXXXXXXXXXXXXXXXXXXXX q!",
"!q XXXXXXXXXXXXXXXXXXXXXXXXXXXXXa!!!!!!!KXXXXXXXXXXXXXXXXXXXXB!!!!!!!zXXXXXXXXXXXXXXXXXXXXXXXXXXX q!",
"!q XXXXXXXXXXXXXXXXXXXXXXXXXXXXXx!!!!!!!CXXXXXXXXXXXXXXXXXXXXj!!!!!!!AXXXXXXXXXXXXXXXXXXXXXXXXXXX q!",
"!q XXXXXXXXXXXXXXXXXXXXXXXXXXXXXD!!!!!!!zXXXXXXXXXXXXXXXXXXXXu!!!!!!!PXXXXXXXXXXXXXXXXXXXXXXXXXXX q!",
"!q XXXXXXXXXXXXXXXXXXXXXXXXXXXXXP!!!!!!!sXXXXXXXXXXXXXXXXXXXX5!!!!!!!QXXXXXXXXXXXXXXXXXXXXXXXXXXX q!",
"!q XXXXXXXXXXXXXXXXXXXXXXXXXXXXXE!!!!!!!eXXXXXXXXXXXXXXXXXXXX$!!!!!!!!:XXXXXXXXXXXXXXXXXXXXXXXXXX q!",
"!q XXXXXXXXXXXXXXXXXXXXXXXXXXXX%!!!!!!!!3XXXXXXXXXXXXXXXXXXXXXQ!!!!!!!9XXXXXXXXXXXXXXXXXXXXXXXXXX q!",
"!q XXXXXXXXXXXXXXXXXXXXXXXXXXXX5!!!!!!!!*XXXXXXXXXXXXXXXXXXXXXT!!!!!!!pXXXXXXXXXXXXXXXXXXXXXXXXXX q!",
"!q XXXXXXXXXXXXXXXXXXXXXXXXXXXXw!!!!!!!!XXXXXXXXXXXXXXXXXXXXXXP!!!!!!!gXXXXXXXXXXXXXXXXXXXXXXXXXX q!",
"!q XXXXXXXXXXXXXXXXXXXXXXXXXXXXu!!!!!!!WXXXXXXXXXXXXXXXXXXXXXXJ!!!!!!!lXXXXXXXXXXXXXXXXXXXXXXXXXX q!",
"!q XXXXXXXXXXXXXXXXXXXXXXXXXXXXs!!!!!!!RXXXXXXXXXXXXXXXXXXXXXXH!!!!!!!cXXXXXXXXXXXXXXXXXXXXXXXXXX q!",
"!q XXXXXXXXXXXXXXXXXXXXXXXXXXXXg!!!!!!!UXXXXXXXXXXXXXXXXXXXXXXF!!!!!!!nXXXXXXXXXXXXXXXXXXXXXXXXXX q!",
"!q XXXXXXXXXXXXXXXXXXXXXXXXXXXXh!!!!!!!UXXXXXXXXXXXXXXXXXXXXXXD!!!!!!!MXXXXXXXXXXXXXXXXXXXXXXXXXX q!",
"!q XXXXXXXXXXXXXXXXXXXXXXXXXXXXj!!!!!!!PXXXXXXXXXXXXXXXXXXXXXXD!!!!!!!BXXXXXXXXXXXXXXXXXXXXXXXXXX q!",
"!q XXXXXXXXXXXXXXXXXXXXXXXXXXXXk!!!!!!!PXXXXXXXXXXXXXXXXXXXXXXS!!!!!!!BXXXXXXXXXXXXXXXXXXXXXXXXXX q!",
"!q XXXXXXXXXXXXXXXXXXXXXXXXXXXXj!!!!!!!PXXXXXXXXXXXXXXXXXXXXXXD!!!!!!!BXXXXXXXXXXXXXXXXXXXXXXXXXX q!",
"!q XXXXXXXXXXXXXXXXXXXXXXXXXXXXj!!!!!!!UXXXXXXXXXXXXXXXXXXXXXXD!!!!!!!NXXXXXXXXXXXXXXXXXXXXXXXXXX q!",
"!q XXXXXXXXXXXXXXXXXXXXXXXXXXXXh!!!!!!!UXXXXXXXXXXXXXXXXXXXXXXF!!!!!!!mXXXXXXXXXXXXXXXXXXXXXXXXXX q!",
"!q XXXXXXXXXXXXXXXXXXXXXXXXXXXXf!!!!!!!RXXXXXXXXXXXXXXXXXXXXXXH!!!!!!!vXXXXXXXXXXXXXXXXXXXXXXXXXX q!",
"!q XXXXXXXXXXXXXXXXXXXXXXXXXXXXi!!!!!!!EXXXXXXXXXXXXXXXXXXXXXXJ!!!!!!!zXXXXXXXXXXXXXXXXXXXXXXXXXX q!",
"!q XXXXXXXXXXXXXXXXXXXXXXXXXXXXr!!!!!!!!XXXXXXXXXXXXXXXXXXXXXXP!!!!!!!hXXXXXXXXXXXXXXXXXXXXXXXXXX q!",
"!q XXXXXXXXXXXXXXXXXXXXXXXXXXXX6!!!!!!!!*XXXXXXXXXXXXXXXXXXXXXT!!!!!!!aXXXXXXXXXXXXXXXXXXXXXXXXXX q!",
"!q XXXXXXXXXXXXXXXXXXXXXXXXXXXX=!!!!!!!!3XXXXXXXXXXXXXXXXXXXXXQ!!!!!!!eXXXXXXXXXXXXXXXXXXXXXXXXXX q!",
"!q XXXXXXXXXXXXXXXXXXXXXXXXXXXXXW!!!!!!!eXXXXXXXXXXXXXXXXXXXX$!!!!!!!!<XXXXXXXXXXXXXXXXXXXXXXXXXX q!",
"!q XXXXXXXXXXXXXXXXXXXXXXXXXXXXXP!!!!!!!sXXXXXXXXXXXXXXXXXXXX5!!!!!!!!OXXXXXXXXXXXXXXXXXXXXXXXXXX q!",
"!q XXXXXXXXXXXXXXXXXXXXXXXXXXXXXD!!!!!!!zXXXXXXXXXXXXXXXXXXXXy!!!!!!!UXXXXXXXXXXXXXXXXXXXXXXXXXXX q!",
"!q XXXXXXXXXXXXXXXXXXXXXXXXXXXXXx!!!!!!!CXXXXXXXXXXXXXXXXXXXXj!!!!!!!FXXXXXXXXXXXXXXXXXXXXXXXXXXX q!",
"!q XXXXXXXXXXXXXXXXXXXXXXXXXXXXXi!!!!!!!KXXXXXXXXXXXXXXXXXXXXB!!!!!!!vXXXXXXXXXXXXXXXXXXXXXXXXXXX q!",
"!q XXXXXXXXXXXXXXXXXXXXXXXXXXXXX;!!!!!!!Q+XXXXXXXXXXXXXXXXXXXK!!!!!!!iXXXXXXXXXXXXXXXXXXXXXXXXXXX q!",
"!q XXXXXXXXXXXXXXXXXXXXXXXXXXXXXXP!!!!!!!wXXXXXXXXXXXXXXXXXX#!!!!!!!!;XXXXXXXXXXXXXXXXXXXXXXXXXXX q!",
"!q XXXXXXXXXXXXXXXXXXXXXXXXXXXXXXm!!!!!!!xXXXXXXXXXXXXXXXXXXu!!!!!!!LXXXXXXXXXXXXXXXXXXXXXXXXXXXX q!",
"!q XXXXXXXXXXXXXXXXXXXXXXXXXXXXXXe!!!!!!!LXXXXXXXXXXXXXXXXXXB!!!!!!!bXXXXXXXXXXXXXXXXXXXXXXXXXXXX q!",
"!q XXXXXXXXXXXXXXXXXXXXXXXXXXXXXXXT!!!!!!!6XXXXXXXXXXXXXXXX$E!!!!!!!7XXXXXXXXXXXXXXXXXXXXXXXXXXXX q!",
"!q XXXXXXXXXXXXXXXXXXXXXXXXXXXXXXXx!!!!!!!CXXXXXXXXXXXXXXXXj!!!!!!!PXXXXXXXXXXXXXXXXXXXXXXXXXXXXX q!",
"!q XXXXXXXXXXXXXXXXXXXXXXXXXXXXXXX:Q!!!!!!!7XXXXXXXXXXXXXX-E!!!!!!!fXXXXXXXXXXXXXXXXXXXXXXXXXXXXX q!",
"!q XXXXXXXXXXXXXXXXXXXXXXXXXXXXXXXXM!!!!!!!P%XXXXXXXXXXXXXS!!!!!!!T+XXXXXXXXXXXXXXXXXXXXXXXXXXXXX q!",
"!q XXXXXXXXXXXXXXXXXXXXXXXXXXXXXXXX;W!!!!!!!H%XXXXXXXXXXoM!!!!!!!!jXXXXXXXXXXXXXXXXXXXXXXXXXXXXXX q!",
"!q XXXXXXXXXXXXXXXXXXXXXXXXXXXXXXXXXh!!!!!!!!PeXXXXXXXX4H!!!!!!!!JoXXXXXXXXXXXXXXXXXXXXXXXXXXXXXX q!",
"!q XXXXXXXXXXXXXXXXXXXXXXXXXXXXXXXXXXD!!!!!!!!!Jkr54whF!!!!!!!!!Q4XXXXXXXXXXXXXXXXXXXXXXXXXXXXXXX q!",
"!q XXXXXXXXXXXXXXXXXXXXXXXXXXXXXXXXXX=P!!!!!!!!!!!!!!!!!!!!!!!!!gXXXXXXXXXXXXXXXXXXXXXXXXXXXXXXXX q!",
"!q XXXXXXXXXXXXXXXXXXXXXXXXXXXXXXXXXXX:I!!!!!!!!!!!!!!!!!!!!!!!lXXXXXXXXXXXXXXXXXXXXXXXXXXXXXXXXX q!",
"!q XXXXXXXXXXXXXXXXXXXXXXXXXXXXXXXXXXXX=G!!!!!!!!!!!!!!!!!!!!QfXXXXXXXXXXXXXXXXXXXXXXXXXXXXXXXXXX q!",
"!q XXXXXXXXXXXXXXXXXXXXXXXXXXXXXXXXXXXXXojW!!!!!!!!!!!!!!!!!J5XXXXXXXXXXXXXXXXXXXXXXXXXXXXXXXXXXX q!",
"!q XXXXXXXXXXXXXXXXXXXXXXXXXXXXXXXXXXXXXXX;xR!!!!!!!!!!!!!!!eXXXXXXXXXXXXXXXXXXXXXXXXXXXXXXXXXXXX q!",
"!q XXXXXXXXXXXXXXXXXXXXXXXXXXXXXXXXXXXXXXXXXoecFUE!!!!!!!!!!WwXXXXXXXXXXXXXXXXXXXXXXXXXXXXXXXXXXX q!",
"!q XXXXXXXXXXXXXXXXXXXXXXXXXXXXXXXXXXXXXXXXXXXXXXXXX:U!!!!!!!WwXXXXXXXXXXXXXXXXXXXXXXXXXXXXXXXXXX q!",
"!q XXXXXXXXXXXXXXXXXXXXXXXXXXXXXXXXXXXXXXXXXXXXXXXXXX,U!!!!!!!W9XXXXXXXXXXXXXXXXXXXXXXXXXXXXXXXXX q!",
"!q XXXXXXXXXXXXXXXXXXXXXXXXXXXXXXXXXXXXXXXXXXXXXXXXXXX<T!!!!!!!E8XXXXXXXXXXXXXXXXXXXXXXXXXXXXXXXX q!",
"!q XXXXXXXXXXXXXXXXXXXXXXXXXXXXXXXXXXXXXXXXXXXXXXXXXXXX2T!!!!!!!E7XXXXXXXXXXXXXXXXXXXXXXXXXXXXXXX q!",
"!q XXXXXXXXXXXXXXXXXXXXXXXXXXXXXXXXXXXXXXXXXXXXXXXXXXXXX4R!!!!!!!E6XXXXXXXXXXXXXXXXXXXXXXXXXXXXXX q!",
"!q XXXXXXXXXXXXXXXXXXXXXXXXXXXXXXXXXXXXXXXXXXXXXXXXXXXXXX5E!!!!!!!E6XXXXXXXXXXXXXXXXXXXXXXXXXXXXX q!",
"!q XXXXXXXXXXXXXXXXXXXXXXXXXXXXXXXXXXXXXXXXXXXXXXXXXXXXXXX7E!!!!!!!E5XXXXXXXXXXXXXXXXXXXXXXXXXXXX q!",
"!q XXXXXXXXXXXXXXXXXXXXXXXXXXXXXXXXXXXXXXXXXXXXXXXXXXXXXXXX9E!!!!!!!R5XXXXXXXXXXXXXXXXXXXXXXXXXXX q!",
"!q XXXXXXXXXXXXXXXXXXXXXXXXXXXXXXXXXXXXXXXXXXXXXXXXXXXXXXXXXwW!!!!!!!R4XXXXXXXXXXXXXXXXXXXXXXXXXX q!",
"!q XXXXXXXXXXXXXXXXXXXXXXXXXXXXXXXXXXXXXXXXXXXXXXXXXXXXXXXXXXeQ!!!!!!!T3XXXXXXXXXXXXXXXXXXXXXXXXX q!",
"!q XXXXXXXXXXXXXXXXXXXXXXXXXXXXXXXXXXXXXXXXXXXXXXXXXXXXXXXXXXXrQ!!!!!!!T2XXXXXXXXXXXXXXXXXXXXXXXX q!",
"!q XXXXXXXXXXXXXXXXXXXXXXXXXXXXXXXXXXXXXXXXXXXXXXXXXXXXXXXXXXXXyQ!!!!!!!T<XXXXXXXXXXXXXXXXXXXXXXX q!",
"!q XXXXXXXXXXXXXXXXXXXXXXXXXXXXXXXXXXXXXXXXXXXXXXXXXXXXXXXXXXXXXtxxxxxxxxdXXXXXXXXXXXXXXXXXXXXXXX q!",
"!q XXXXXXXXXXXXXXXXXXXXXXXXXXXXXXXXXXXXXXXXXXXXXXXXXXXXXXXXXXXXXXXXXXXXXXXXXXXXXXXXXXXXXXXXXXXXXX q!",
"!q XXXXXXXXXXXXXXXXXXXXXXXXXXXXXXXXXXXXXXXXXXXXXXXXXXXXXXXXXXXXXXXXXXXXXXXXXXXXXXXXXXXXXXXXXXXXXX q!",
"!q XXXXXXXXXXXXXXXXXXXXXXXXXXXXXXXXXXXXXXXXXXXXXXXXXXXXXXXXXXXXXXXXXXXXXXXXXXXXXXXXXXXXXXXXXXXXXX q!",
"!q.XXXXXXXXXXXXXXXXXXXXXXXXXXXXXXXXXXXXXXXXXXXXXXXXXXXXXXXXXXXXXXXXXXXXXXXXXXXXXXXXXXXXXXXXXXXXXX q!",
"!q                                                                                                q!",
"!0qqqqqqqqqqqqqqqqqqqqqqqqqqqqqqqqqqqqqqqqqqqqqqqqqqqqqqqqqqqqqqqqqqqqqqqqqqqqqqqqqqqqqqqqqqqqqqqq0!",
"!!!!!!!!!!!!!!!!!!!!!!!!!!!!!!!!!!!!!!!!!!!!!!!!!!!!!!!!!!!!!!!!!!!!!!!!!!!!!!!!!!!!!!!!!!!!!!!!!!!!"
};
