/* XPM */
static char *q3[] = {
/* columns rows colors chars-per-pixel */
"100 100 37 1 ",
"  c #686868",
". c #727272",
"X c #767676",
"o c gray48",
"O c gray49",
"+ c #808080",
"@ c #868686",
"# c gray54",
"$ c gray55",
"% c #929292",
"& c #979797",
"* c #989898",
"= c gray62",
"- c gray64",
"; c #A5A5A5",
": c gray67",
"> c #AFAFAF",
", c gray70",
"< c #B4B4B4",
"1 c #BBBBBB",
"2 c gray74",
"3 c #C0C0C0",
"4 c gray78",
"5 c #CBCBCB",
"6 c #CECECE",
"7 c #D0D0D0",
"8 c gray84",
"9 c gray86",
"0 c gainsboro",
"q c gray89",
"w c #E6E6E6",
"e c gray92",
"r c gray93",
"t c gray94",
"y c gray97",
"u c #F8F8F8",
"i c white",
/* pixels */
"iiiiiiiiiiiiiiiiiiiiiiiiiiiiiiiiiiiiiiiiiiiiiiiiiiiiiiiiiiiiiiiiiiiiiiiiiiiiiiiiiiiiiiiiiiiiiiiiiiii",
"i>,,,,,,,,,,,,,,,,,,,,,,,,,,,,,,,,,,,,,,,,,,,,,,,,,,,,,,,,,,,,,,,,,,,,,,,,,,,,,,,,,,,,,,,,,,,,,,,,>i",
"i,                                                                                                ,i",
"i, .............................................................................................. ,i",
"i, .............................................................................................. ,i",
"i, .............................................................................................. ,i",
"i, .............................................................................................. ,i",
"i, .............................................................................................. ,i",
"i, .............................................................................................. ,i",
"i, .............................................................................................. ,i",
"i, .............................................................................................. ,i",
"i, .............................................................................................. ,i",
"i, .............................................................................................. ,i",
"i, .............................................................................................. ,i",
"i, .............................................................................................. ,i",
"i, .............................................................................................. ,i",
"i, .............................................................................................. ,i",
"i, .............................................................................................. ,i",
"i, .............................................................................................. ,i",
"i, .........................................X;50tuiiutq7>O....................................... ,i",
"i, .......................................$6uiiiiiiiiiiiii9=..................................... ,i",
"i, .....................................o5iiiiiiiiiiiiiiiiii9#................................... ,i",
"i, ....................................$riiiiiiiiiiiiiiiiiiiiy;.................................. ,i",
"i, ...................................&yiiiiiiiiiiiiiiiiiiiiiii,................................. ,i",
"i, ..................................$yiiiiiiiiiiiiiiiiiiiiiiiii:................................ ,i",
"i, .................................oeiiiiiiiiiw3-%%=1qiiiiiiiiiu#............................... ,i",
"i, .................................6iiiiiiiir-........%qiiiiiiiiw............................... ,i",
"i, ................................&iiiiiiiiqO...........7iiiiiiii,.............................. ,i",
"i, ................................qiiiiiiiro.............0iiiiiiitX............................. ,i",
"i, ...............................&iiiiiiii*..............+yiiiiiii>............................. ,i",
"i, ...............................7iiiiiii8................2iiiiiiiw............................. ,i",
"i, ..............................Xuiiiiiii&................ouiiiiiii$............................ ,i",
"i, ..............................:iiiiiiie..................7iiiiiii3............................ ,i",
"i, ..............................8iiiiiii4..................:iiiiiiiw............................ ,i",
"i, ..............................tiiiiiii=..................oiiiiiiiio........................... ,i",
"i, .............................#iiiiiiiiX...................eiiiiiii;........................... ,i",
"i, .............................>iiiiiiie....................7iiiiiii4........................... ,i",
"i, .............................4iiiiiii8....................2iiiiiii9........................... ,i",
"i, .............................0iiiiiii3....................;iiiiiiir........................... ,i",
"i, .............................riiiiiii,....................%iiiiiiii........................... ,i",
"i, .............................uiiiiiii=....................oiiiiiiii@.......................... ,i",
"i, ............................Oiiiiiiii$.....................uiiiiiii*.......................... ,i",
"i, ............................%iiiiiiiiO.....................tiiiiiii>.......................... ,i",
"i, ............................=iiiiiiii......................riiiiiii<.......................... ,i",
"i, ............................:iiiiiiiu......................wiiiiiii3.......................... ,i",
"i, ............................,iiiiiiiy......................qiiiiiii5.......................... ,i",
"i, ............................<iiiiiiit......................0iiiiiii6.......................... ,i",
"i, ............................1iiiiiiir......................0iiiiiii6.......................... ,i",
"i, ............................2iiiiiiir......................0iiiiiii7.......................... ,i",
"i, ............................2iiiiiiir......................9iiiiiii8.......................... ,i",
"i, ............................2iiiiiiir......................0iiiiiii7.......................... ,i",
"i, ............................1iiiiiiir......................0iiiiiii7.......................... ,i",
"i, ............................1iiiiiiit......................0iiiiiii6.......................... ,i",
"i, ............................<iiiiiiiy......................qiiiiiii5.......................... ,i",
"i, ............................:iiiiiiiu......................wiiiiiii3.......................... ,i",
"i, ............................-iiiiiiii......................riiiiiii1.......................... ,i",
"i, ............................&iiiiiiiiO.....................tiiiiiii>.......................... ,i",
"i, ............................Oiiiiiiii$.....................uiiiiiii-.......................... ,i",
"i, .............................uiiiiiii=....................oiiiiiiii#.......................... ,i",
"i, .............................riiiiiii,....................%iiiiiiiiX.......................... ,i",
"i, .............................0iiiiiii3....................;iiiiiiit........................... ,i",
"i, .............................4iiiiiii8....................2iiiiiii0........................... ,i",
"i, .............................>iiiiiiie....................7iiiiiii5........................... ,i",
"i, .............................+iiiiiiiuX...................eiiiiiii:........................... ,i",
"i, ..............................riiiiiii=..................oiiiiiiii+........................... ,i",
"i, ..............................6iiiiiii4..................;iiiiiiie............................ ,i",
"i, ..............................=iiiiiiie..................7iiiiiii5............................ ,i",
"i, ...............................tiiiiiii&................ouiiiiiii*............................ ,i",
"i, ...............................4iiiiiii8................2iiiiiiie............................. ,i",
"i, ...............................@iiiiiiii*..............+yiiiiiii<............................. ,i",
"i, ................................7iiiiiiiro.............0iiiiiiitX............................. ,i",
"i, ................................+uiiiiiiiqO...........7iiiiiiii2.............................. ,i",
"i, .................................1iiiiiiiir=........%qiiiiiiiiw............................... ,i",
"i, ..................................0iiiiiiiiiw2-%%=10iiiiiiiiiu%............................... ,i",
"i, ..................................Oriiiiiiiiiiiiiiiiiiiiiiiii<................................ ,i",
"i, ...................................@riiiiiiiiiiiiiiiiiiiiiii3................................. ,i",
"i, ....................................Oqiiiiiiiiiiiiiiiiiiiiu<.................................. ,i",
"i, ......................................1uiiiiiiiiiiiiiiiiiw&................................... ,i",
"i, .......................................+4yiiiiiiiiiiiiiii-.................................... ,i",
"i, ..........................................=50ruiiiiiiiiiiu=................................... ,i",
"i, .................................................@riiiiiiiu=.................................. ,i",
"i, ..................................................#tiiiiiiiu*................................. ,i",
"i, ...................................................#tiiiiiiiu*................................ ,i",
"i, ....................................................$yiiiiiiiu*............................... ,i",
"i, .....................................................%yiiiiiiiy&.............................. ,i",
"i, ......................................................&yiiiiiiiy&............................. ,i",
"i, .......................................................&uiiiiiiiy%............................ ,i",
"i, ........................................................*uiiiiiiiy%........................... ,i",
"i, .........................................................=uiiiiiiiy%.......................... ,i",
"i, ..........................................................-uiiiiiiiy$......................... ,i",
"i, ...........................................................-uiiiiiiit$........................ ,i",
"i, ............................................................;iiiiiiiit$....................... ,i",
"i, .............................................................;44444444<....................... ,i",
"i, .............................................................................................. ,i",
"i, .............................................................................................. ,i",
"i, .............................................................................................. ,i",
"i,O.............................................................................................. ,i",
"i,                                                                                                ,i",
"i>,,,,,,,,,,,,,,,,,,,,,,,,,,,,,,,,,,,,,,,,,,,,,,,,,,,,,,,,,,,,,,,,,,,,,,,,,,,,,,,,,,,,,,,,,,,,,,,,>i",
"iiiiiiiiiiiiiiiiiiiiiiiiiiiiiiiiiiiiiiiiiiiiiiiiiiiiiiiiiiiiiiiiiiiiiiiiiiiiiiiiiiiiiiiiiiiiiiiiiiii"
};
