/* XPM */
static char *r[] = {
/* columns rows colors chars-per-pixel */
"100 100 76 1 ",
"  c #2E0000",
". c #341616",
"X c #371C1C",
"o c #3A2222",
"O c #3D2626",
"+ c #3F2A2A",
"@ c #422E2E",
"# c #443232",
"$ c #4A3B3B",
"% c #4C3D3D",
"& c #4E4040",
"* c #524545",
"= c #544747",
"- c #574B4B",
"; c #5B4F4F",
": c #5E5353",
"> c #5F5555",
", c #625858",
"< c #645A5A",
"1 c #665D5D",
"2 c #685F5F",
"3 c #6C6363",
"4 c #686868",
"5 c #706868",
"6 c #736C6C",
"7 c #766E6E",
"8 c #777070",
"9 c #7E7777",
"0 c #7C7C7C",
"q c #807979",
"w c #837D7D",
"e c #857F7F",
"r c #8A8484",
"t c #908B8B",
"y c #918C8C",
"u c #949090",
"i c #9A9595",
"p c #9F9B9B",
"a c #A09C9C",
"s c #A6A3A3",
"d c #A9A5A5",
"f c #ABA8A8",
"g c #ADAAAA",
"h c #AFAFAF",
"j c #B2AFAF",
"k c gray70",
"l c #B6B3B3",
"z c #B8B6B6",
"x c #BBB9B9",
"c c #BDBBBB",
"v c #BFBDBD",
"b c #C1BEBE",
"n c #C3C0C0",
"m c #C5C3C3",
"M c #C6C4C4",
"N c #C9C7C7",
"B c #CDCBCB",
"V c #CFCECE",
"C c #D3D2D2",
"Z c #D4D2D2",
"A c #D7D6D6",
"S c #D9D8D8",
"D c #DEDDDD",
"F c #E1E0E0",
"G c #E4E3E3",
"H c #E4E4E4",
"J c #E8E7E7",
"K c #E9E8E8",
"L c #EFEEEE",
"P c #F0EFEF",
"I c #F3F3F3",
"U c #F4F4F4",
"Y c #F8F7F7",
"T c #FBFBFB",
"R c #FCFBFB",
"E c white",
/* pixels */
"EEEEEEEEEEEEEEEEEEEEEEEEEEEEEEEEEEEEEEEEEEEEEEEEEEEEEEEEEEEEEEEEEEEEEEEEEEEEEEEEEEEEEEEEEEEEEEEEEEEE",
"EhkkkkkkkkkkkkkkkkkkkkkkkkkkkkkkkkkkkkkkkkkkkkkkkkkkkkkkkkkkkkkkkkkkkkkkkkkkkkkkkkkkkkkkkkkkkkkkkkhE",
"Ek444444444444444444444444444444444444444444444444444444444444444444444444444444444444444444444444kE",
"Ek4EEEEEEEEEEEEEEEEEEEEEEEEEEEEEEEEEEEEEEEEEEEEEEEEEEEEEEEEEEEEEEEEEEEEEEEEEEEEEEEEEEEEEEEEEEEEEE4kE",
"Ek4EEEEEEEEEEEEEEEEEEEEEEEEEEEEEEEEEEEEEEEEEEEEEEEEEEEEEEEEEEEEEEEEEEEEEEEEEEEEEEEEEEEEEEEEEEEEEE4kE",
"Ek4EEEEEEEEEEEEEEEEEEEEEEEEEEEEEEEEEEEEEEEEEEEEEEEEEEEEEEEEEEEEEEEEEEEEEEEEEEEEEEEEEEEEEEEEEEEEEE4kE",
"Ek4EEEEEEEEEEEEEEEEEEEEEEEEEEEEEEEEEEEEEEEEEEEEEEEEEEEEEEEEEEEEEEEEEEEEEEEEEEEEEEEEEEEEEEEEEEEEEE4kE",
"Ek4EEEEEEEEEEEEEEEEEEEEEEEEEEEEEEEEEEEEEEEEEEEEEEEEEEEEEEEEEEEEEEEEEEEEEEEEEEEEEEEEEEEEEEEEEEEEEE4kE",
"Ek4EEEEEEEEEEEEEEEEEEEEEEEEEEEEEEEEEEEEEEEEEEEEEEEEEEEEEEEEEEEEEEEEEEEEEEEEEEEEEEEEEEEEEEEEEEEEEE4kE",
"Ek4EEEEEEEEEEEEEEEEEEEEEEEEEEEEEEEEEEEEEEEEEEEEEEEEEEEEEEEEEEEEEEEEEEEEEEEEEEEEEEEEEEEEEEEEEEEEEE4kE",
"Ek4EEEEEEEEEEEEEEEEEEEEEEEEEEEEEEEEEEEEEEEEEEEEEEEEEEEEEEEEEEEEEEEEEEEEEEEEEEEEEEEEEEEEEEEEEEEEEE4kE",
"Ek4EEEEEEEEEEEEEEEEEEEEEEEEEEEEEEEEEEEEEEEEEEEEEEEEEEEEEEEEEEEEEEEEEEEEEEEEEEEEEEEEEEEEEEEEEEEEEE4kE",
"Ek4EEEEEEEEEEEEEEEEEEEEEEEEEEEEEEEEEEEEEEEEEEEEEEEEEEEEEEEEEEEEEEEEEEEEEEEEEEEEEEEEEEEEEEEEEEEEEE4kE",
"Ek4EEEEEEEEEEEEEEEEEEEEEEEEEEEEEEEEEEEEEEEEEEEEEEEEEEEEEEEEEEEEEEEEEEEEEEEEEEEEEEEEEEEEEEEEEEEEEE4kE",
"Ek4EEEEEEEEEEEEEEEEEEEEEEEEEEEEEEEEEEEEEEEEEEEEEEEEEEEEEEEEEEEEEEEEEEEEEEEEEEEEEEEEEEEEEEEEEEEEEE4kE",
"Ek4EEEEEEEEEEEEEEEEEEEEEEEEEEEEEEEEEEEEEEEEEEEEEEEEEEEEEEEEEEEEEEEEEEEEEEEEEEEEEEEEEEEEEEEEEEEEEE4kE",
"Ek4EEEEEEEEEEEEEEEEEEEEEEEEEEEEEEEEEEEEEEEEEEEEEEEEEEEEEEEEEEEEEEEEEEEEEEEEEEEEEEEEEEEEEEEEEEEEEE4kE",
"Ek4EEEEEEEEEEEEEEEEEEEEEEEEEEEEEEEEEEEEEEEEEEEEEEEEEEEEEEEEEEEEEEEEEEEEEEEEEEEEEEEEEEEEEEEEEEEEEE4kE",
"Ek4EEEEEEEEEEEEEEEEEEEEEEEEEEEEEEEEEEEEEEEEEEEEEEEEEEEEEEEEEEEEEEEEEEEEEEEEEEEEEEEEEEEEEEEEEEEEEE4kE",
"Ek4EEEEEEEEEEEEEEEEEEEEEEEEEEEEEEEEEEEEEEEEEEEEEEEEEEEEEEEEEEEEEEEEEEEEEEEEEEEEEEEEEEEEEEEEEEEEEE4kE",
"Ek4EEEEEEEEEEEEEEEEEEEEEEEEEEEEEB                O%<qizZIEEEEEEEEEEEEEEEEEEEEEEEEEEEEEEEEEEEEEEEE4kE",
"Ek4EEEEEEEEEEEEEEEEEEEEEEEEEEEEEB                        8vIEEEEEEEEEEEEEEEEEEEEEEEEEEEEEEEEEEEEE4kE",
"Ek4EEEEEEEEEEEEEEEEEEEEEEEEEEEEEB                          OdIEEEEEEEEEEEEEEEEEEEEEEEEEEEEEEEEEEE4kE",
"Ek4EEEEEEEEEEEEEEEEEEEEEEEEEEEEEB                            %BEEEEEEEEEEEEEEEEEEEEEEEEEEEEEEEEEE4kE",
"Ek4EEEEEEEEEEEEEEEEEEEEEEEEEEEEEB                              dEEEEEEEEEEEEEEEEEEEEEEEEEEEEEEEEE4kE",
"Ek4EEEEEEEEEEEEEEEEEEEEEEEEEEEEEB                               aEEEEEEEEEEEEEEEEEEEEEEEEEEEEEEEE4kE",
"Ek4EEEEEEEEEEEEEEEEEEEEEEEEEEEEEB       jIIIIIIIILHSzr.          cEEEEEEEEEEEEEEEEEEEEEEEEEEEEEEE4kE",
"Ek4EEEEEEEEEEEEEEEEEEEEEEEEEEEEEB       xEEEEEEEEEEEEELhX        .HEEEEEEEEEEEEEEEEEEEEEEEEEEEEEE4kE",
"Ek4EEEEEEEEEEEEEEEEEEEEEEEEEEEEEB       xEEEEEEEEEEEEEEEG2        eEEEEEEEEEEEEEEEEEEEEEEEEEEEEEE4kE",
"Ek4EEEEEEEEEEEEEEEEEEEEEEEEEEEEEB       xEEEEEEEEEEEEEEEEL=        DEEEEEEEEEEEEEEEEEEEEEEEEEEEEE4kE",
"Ek4EEEEEEEEEEEEEEEEEEEEEEEEEEEEEB       xEEEEEEEEEEEEEEEEES        aEEEEEEEEEEEEEEEEEEEEEEEEEEEEE4kE",
"Ek4EEEEEEEEEEEEEEEEEEEEEEEEEEEEEB       xEEEEEEEEEEEEEEEEEEw       $EEEEEEEEEEEEEEEEEEEEEEEEEEEEE4kE",
"Ek4EEEEEEEEEEEEEEEEEEEEEEEEEEEEEB       xEEEEEEEEEEEEEEEEEEC        HEEEEEEEEEEEEEEEEEEEEEEEEEEEE4kE",
"Ek4EEEEEEEEEEEEEEEEEEEEEEEEEEEEEB       xEEEEEEEEEEEEEEEEEEU        BEEEEEEEEEEEEEEEEEEEEEEEEEEEE4kE",
"Ek4EEEEEEEEEEEEEEEEEEEEEEEEEEEEEB       xEEEEEEEEEEEEEEEEEEE5       zEEEEEEEEEEEEEEEEEEEEEEEEEEEE4kE",
"Ek4EEEEEEEEEEEEEEEEEEEEEEEEEEEEEB       xEEEEEEEEEEEEEEEEEEEr       dEEEEEEEEEEEEEEEEEEEEEEEEEEEE4kE",
"Ek4EEEEEEEEEEEEEEEEEEEEEEEEEEEEEB       xEEEEEEEEEEEEEEEEEEEi       aEEEEEEEEEEEEEEEEEEEEEEEEEEEE4kE",
"Ek4EEEEEEEEEEEEEEEEEEEEEEEEEEEEEB       xEEEEEEEEEEEEEEEEEEEp       aEEEEEEEEEEEEEEEEEEEEEEEEEEEE4kE",
"Ek4EEEEEEEEEEEEEEEEEEEEEEEEEEEEEB       xEEEEEEEEEEEEEEEEEEEt       jEEEEEEEEEEEEEEEEEEEEEEEEEEEE4kE",
"Ek4EEEEEEEEEEEEEEEEEEEEEEEEEEEEEB       xEEEEEEEEEEEEEEEEEEE9       xEEEEEEEEEEEEEEEEEEEEEEEEEEEE4kE",
"Ek4EEEEEEEEEEEEEEEEEEEEEEEEEEEEEB       xEEEEEEEEEEEEEEEEEETO       CEEEEEEEEEEEEEEEEEEEEEEEEEEEE4kE",
"Ek4EEEEEEEEEEEEEEEEEEEEEEEEEEEEEB       xEEEEEEEEEEEEEEEEEEF        IEEEEEEEEEEEEEEEEEEEEEEEEEEEE4kE",
"Ek4EEEEEEEEEEEEEEEEEEEEEEEEEEEEEB       xEEEEEEEEEEEEEEEEEEs       3EEEEEEEEEEEEEEEEEEEEEEEEEEEEE4kE",
"Ek4EEEEEEEEEEEEEEEEEEEEEEEEEEEEEB       xEEEEEEEEEEEEEEEEEPo       mEEEEEEEEEEEEEEEEEEEEEEEEEEEEE4kE",
"Ek4EEEEEEEEEEEEEEEEEEEEEEEEEEEEEB       xEEEEEEEEEEEEEEEERw       &YEEEEEEEEEEEEEEEEEEEEEEEEEEEEE4kE",
"Ek4EEEEEEEEEEEEEEEEEEEEEEEEEEEEEB       xEEEEEEEEEEEEEEEUu        VEEEEEEEEEEEEEEEEEEEEEEEEEEEEEE4kE",
"Ek4EEEEEEEEEEEEEEEEEEEEEEEEEEEEEB       xEEEEEEEEEEEEERV1        iEEEEEEEEEEEEEEEEEEEEEEEEEEEEEEE4kE",
"Ek4EEEEEEEEEEEEEEEEEEEEEEEEEEEEEB       jIIIIIIIIIKFNs;         yTEEEEEEEEEEEEEEEEEEEEEEEEEEEEEEE4kE",
"Ek4EEEEEEEEEEEEEEEEEEEEEEEEEEEEEB                              dREEEEEEEEEEEEEEEEEEEEEEEEEEEEEEEE4kE",
"Ek4EEEEEEEEEEEEEEEEEEEEEEEEEEEEEB                            8DEEEEEEEEEEEEEEEEEEEEEEEEEEEEEEEEEE4kE",
"Ek4EEEEEEEEEEEEEEEEEEEEEEEEEEEEEB                         1sFEEEEEEEEEEEEEEEEEEEEEEEEEEEEEEEEEEEE4kE",
"Ek4EEEEEEEEEEEEEEEEEEEEEEEEEEEEEB                       +kIEEEEEEEEEEEEEEEEEEEEEEEEEEEEEEEEEEEEEE4kE",
"Ek4EEEEEEEEEEEEEEEEEEEEEEEEEEEEEB                         OfYEEEEEEEEEEEEEEEEEEEEEEEEEEEEEEEEEEEE4kE",
"Ek4EEEEEEEEEEEEEEEEEEEEEEEEEEEEEB                           1KEEEEEEEEEEEEEEEEEEEEEEEEEEEEEEEEEEE4kE",
"Ek4EEEEEEEEEEEEEEEEEEEEEEEEEEEEEB       xEEEEEEEEUFmq        =LEEEEEEEEEEEEEEEEEEEEEEEEEEEEEEEEEE4kE",
"Ek4EEEEEEEEEEEEEEEEEEEEEEEEEEEEEB       xEEEEEEEEEEEES1       5TEEEEEEEEEEEEEEEEEEEEEEEEEEEEEEEEE4kE",
"Ek4EEEEEEEEEEEEEEEEEEEEEEEEEEEEEB       xEEEEEEEEEEEEEU7       dEEEEEEEEEEEEEEEEEEEEEEEEEEEEEEEEE4kE",
"Ek4EEEEEEEEEEEEEEEEEEEEEEEEEEEEEB       xEEEEEEEEEEEEEEI-       DEEEEEEEEEEEEEEEEEEEEEEEEEEEEEEEE4kE",
"Ek4EEEEEEEEEEEEEEEEEEEEEEEEEEEEEB       xEEEEEEEEEEEEEEEA       6EEEEEEEEEEEEEEEEEEEEEEEEEEEEEEEE4kE",
"Ek4EEEEEEEEEEEEEEEEEEEEEEEEEEEEEB       xEEEEEEEEEEEEEEEEp       NEEEEEEEEEEEEEEEEEEEEEEEEEEEEEEE4kE",
"Ek4EEEEEEEEEEEEEEEEEEEEEEEEEEEEEB       xEEEEEEEEEEEEEEEEI#      ;TEEEEEEEEEEEEEEEEEEEEEEEEEEEEEE4kE",
"Ek4EEEEEEEEEEEEEEEEEEEEEEEEEEEEEB       xEEEEEEEEEEEEEEEEEz       vEEEEEEEEEEEEEEEEEEEEEEEEEEEEEE4kE",
"Ek4EEEEEEEEEEEEEEEEEEEEEEEEEEEEEB       xEEEEEEEEEEEEEEEEEU&      *TEEEEEEEEEEEEEEEEEEEEEEEEEEEEE4kE",
"Ek4EEEEEEEEEEEEEEEEEEEEEEEEEEEEEB       xEEEEEEEEEEEEEEEEEEz       cEEEEEEEEEEEEEEEEEEEEEEEEEEEEE4kE",
"Ek4EEEEEEEEEEEEEEEEEEEEEEEEEEEEEB       xEEEEEEEEEEEEEEEEEEU@      =TEEEEEEEEEEEEEEEEEEEEEEEEEEEE4kE",
"Ek4EEEEEEEEEEEEEEEEEEEEEEEEEEEEEB       xEEEEEEEEEEEEEEEEEEEg       vEEEEEEEEEEEEEEEEEEEEEEEEEEEE4kE",
"Ek4EEEEEEEEEEEEEEEEEEEEEEEEEEEEEB       xEEEEEEEEEEEEEEEEEEEL.      -TEEEEEEEEEEEEEEEEEEEEEEEEEEE4kE",
"Ek4EEEEEEEEEEEEEEEEEEEEEEEEEEEEEB       xEEEEEEEEEEEEEEEEEEEEa       bEEEEEEEEEEEEEEEEEEEEEEEEEEE4kE",
"Ek4EEEEEEEEEEEEEEEEEEEEEEEEEEEEEB       xEEEEEEEEEEEEEEEEEEEEJ       -TEEEEEEEEEEEEEEEEEEEEEEEEEE4kE",
"Ek4EEEEEEEEEEEEEEEEEEEEEEEEEEEEEB       xEEEEEEEEEEEEEEEEEEEEEy       nEEEEEEEEEEEEEEEEEEEEEEEEEE4kE",
"Ek4EEEEEEEEEEEEEEEEEEEEEEEEEEEEEB       xEEEEEEEEEEEEEEEEEEEEED       ;TEEEEEEEEEEEEEEEEEEEEEEEEE4kE",
"Ek4EEEEEEEEEEEEEEEEEEEEEEEEEEEEEB       xEEEEEEEEEEEEEEEEEEEEEEq       mEEEEEEEEEEEEEEEEEEEEEEEEE4kE",
"Ek4EEEEEEEEEEEEEEEEEEEEEEEEEEEEEB       xEEEEEEEEEEEEEEEEEEEEEEA       :TEEEEEEEEEEEEEEEEEEEEEEEE4kE",
"Ek4EEEEEEEEEEEEEEEEEEEEEEEEEEEEEB       xEEEEEEEEEEEEEEEEEEEEEEE5       MEEEEEEEEEEEEEEEEEEEEEEEE4kE",
"Ek4EEEEEEEEEEEEEEEEEEEEEEEEEEEEEB       xEEEEEEEEEEEEEEEEEEEEEEEB       >TEEEEEEEEEEEEEEEEEEEEEEE4kE",
"Ek4EEEEEEEEEEEEEEEEEEEEEEEEEEEEEB       xEEEEEEEEEEEEEEEEEEEEEEER>       MEEEEEEEEEEEEEEEEEEEEEEE4kE",
"Ek4EEEEEEEEEEEEEEEEEEEEEEEEEEEEEB       xEEEEEEEEEEEEEEEEEEEEEEEEb       ,REEEEEEEEEEEEEEEEEEEEEE4kE",
"Ek4EEEEEEEEEEEEEEEEEEEEEEEEEEEEEB       xEEEEEEEEEEEEEEEEEEEEEEEET&       NEEEEEEEEEEEEEEEEEEEEEE4kE",
"Ek4EEEEEEEEEEEEEEEEEEEEEEEEEEEEEB       xEEEEEEEEEEEEEEEEEEEEEEEEEl       1EEEEEEEEEEEEEEEEEEEEEE4kE",
"Ek4EEEEEEEEEEEEEEEEEEEEEEEEEEEEEEEEEEEEEEEEEEEEEEEEEEEEEEEEEEEEEEEEEEEEEEEEEEEEEEEEEEEEEEEEEEEEEE4kE",
"Ek4EEEEEEEEEEEEEEEEEEEEEEEEEEEEEEEEEEEEEEEEEEEEEEEEEEEEEEEEEEEEEEEEEEEEEEEEEEEEEEEEEEEEEEEEEEEEEE4kE",
"Ek4EEEEEEEEEEEEEEEEEEEEEEEEEEEEEEEEEEEEEEEEEEEEEEEEEEEEEEEEEEEEEEEEEEEEEEEEEEEEEEEEEEEEEEEEEEEEEE4kE",
"Ek4EEEEEEEEEEEEEEEEEEEEEEEEEEEEEEEEEEEEEEEEEEEEEEEEEEEEEEEEEEEEEEEEEEEEEEEEEEEEEEEEEEEEEEEEEEEEEE4kE",
"Ek4EEEEEEEEEEEEEEEEEEEEEEEEEEEEEEEEEEEEEEEEEEEEEEEEEEEEEEEEEEEEEEEEEEEEEEEEEEEEEEEEEEEEEEEEEEEEEE4kE",
"Ek4EEEEEEEEEEEEEEEEEEEEEEEEEEEEEEEEEEEEEEEEEEEEEEEEEEEEEEEEEEEEEEEEEEEEEEEEEEEEEEEEEEEEEEEEEEEEEE4kE",
"Ek4EEEEEEEEEEEEEEEEEEEEEEEEEEEEEEEEEEEEEEEEEEEEEEEEEEEEEEEEEEEEEEEEEEEEEEEEEEEEEEEEEEEEEEEEEEEEEE4kE",
"Ek4EEEEEEEEEEEEEEEEEEEEEEEEEEEEEEEEEEEEEEEEEEEEEEEEEEEEEEEEEEEEEEEEEEEEEEEEEEEEEEEEEEEEEEEEEEEEEE4kE",
"Ek4EEEEEEEEEEEEEEEEEEEEEEEEEEEEEEEEEEEEEEEEEEEEEEEEEEEEEEEEEEEEEEEEEEEEEEEEEEEEEEEEEEEEEEEEEEEEEE4kE",
"Ek4EEEEEEEEEEEEEEEEEEEEEEEEEEEEEEEEEEEEEEEEEEEEEEEEEEEEEEEEEEEEEEEEEEEEEEEEEEEEEEEEEEEEEEEEEEEEEE4kE",
"Ek4EEEEEEEEEEEEEEEEEEEEEEEEEEEEEEEEEEEEEEEEEEEEEEEEEEEEEEEEEEEEEEEEEEEEEEEEEEEEEEEEEEEEEEEEEEEEEE4kE",
"Ek4EEEEEEEEEEEEEEEEEEEEEEEEEEEEEEEEEEEEEEEEEEEEEEEEEEEEEEEEEEEEEEEEEEEEEEEEEEEEEEEEEEEEEEEEEEEEEE4kE",
"Ek4EEEEEEEEEEEEEEEEEEEEEEEEEEEEEEEEEEEEEEEEEEEEEEEEEEEEEEEEEEEEEEEEEEEEEEEEEEEEEEEEEEEEEEEEEEEEEE4kE",
"Ek4EEEEEEEEEEEEEEEEEEEEEEEEEEEEEEEEEEEEEEEEEEEEEEEEEEEEEEEEEEEEEEEEEEEEEEEEEEEEEEEEEEEEEEEEEEEEEE4kE",
"Ek4EEEEEEEEEEEEEEEEEEEEEEEEEEEEEEEEEEEEEEEEEEEEEEEEEEEEEEEEEEEEEEEEEEEEEEEEEEEEEEEEEEEEEEEEEEEEEE4kE",
"Ek4EEEEEEEEEEEEEEEEEEEEEEEEEEEEEEEEEEEEEEEEEEEEEEEEEEEEEEEEEEEEEEEEEEEEEEEEEEEEEEEEEEEEEEEEEEEEEE4kE",
"Ek4EEEEEEEEEEEEEEEEEEEEEEEEEEEEEEEEEEEEEEEEEEEEEEEEEEEEEEEEEEEEEEEEEEEEEEEEEEEEEEEEEEEEEEEEEEEEEE4kE",
"Ek0EEEEEEEEEEEEEEEEEEEEEEEEEEEEEEEEEEEEEEEEEEEEEEEEEEEEEEEEEEEEEEEEEEEEEEEEEEEEEEEEEEEEEEEEEEEEEE4kE",
"Ek444444444444444444444444444444444444444444444444444444444444444444444444444444444444444444444444kE",
"EhkkkkkkkkkkkkkkkkkkkkkkkkkkkkkkkkkkkkkkkkkkkkkkkkkkkkkkkkkkkkkkkkkkkkkkkkkkkkkkkkkkkkkkkkkkkkkkkkhE",
"EEEEEEEEEEEEEEEEEEEEEEEEEEEEEEEEEEEEEEEEEEEEEEEEEEEEEEEEEEEEEEEEEEEEEEEEEEEEEEEEEEEEEEEEEEEEEEEEEEEE"
};
