/* XPM */
static char *r1[] = {
/* columns rows colors chars-per-pixel */
"100 100 78 1 ",
"  c #686868",
". c #7C7C7C",
"X c #348032",
"o c #378135",
"O c #3C823B",
"+ c #418440",
"@ c #468644",
"# c #488747",
"$ c #4A8749",
"% c #4C884B",
"& c #4E894D",
"* c #508A4F",
"= c #538B52",
"- c #578D56",
"; c #588D57",
": c #5A8E59",
"> c #5C8F5B",
", c #639362",
"< c #679567",
"1 c #6A9669",
"2 c #6F996E",
"3 c #739B72",
"4 c #749B73",
"5 c #779D77",
"6 c #7A9F79",
"7 c #7EA17D",
"8 c #81A381",
"9 c #83A483",
"0 c #86A686",
"q c #8BA98A",
"w c #8EAB8D",
"e c #8FAC8F",
"r c #90AD90",
"t c #94AF93",
"y c #95AF94",
"u c #96B095",
"i c #9AB399",
"p c #9DB59D",
"a c #AFAFAF",
"s c #A0B7A0",
"d c #A3B9A2",
"f c #A5BAA4",
"g c #ABBEAA",
"h c gray70",
"j c #AEC1AE",
"k c #B2C4B2",
"l c #B4C5B3",
"z c #B7C7B7",
"x c #B8C8B7",
"c c #BAC9B9",
"v c #BCCBBB",
"b c #BDCBBD",
"n c #BDCCBD",
"m c #C1CFC1",
"M c #C2D0C2",
"N c #C4D0C3",
"B c #C4D1C4",
"V c #C9D4C9",
"C c #CCD7CC",
"Z c #CFD9CE",
"A c #D1DBD1",
"S c #D2DCD2",
"D c #D4DDD4",
"F c #D7E0D7",
"G c #DBE2DB",
"H c #DEE5DE",
"J c #E1E7E1",
"K c #E3E9E3",
"L c #E4E9E4",
"P c #E8ECE7",
"I c #E9EDE9",
"U c #EDF0ED",
"Y c #F0F3EF",
"T c #F2F5F2",
"R c #F4F6F4",
"E c #F6F8F6",
"W c #FAFBFA",
"Q c white",
/* pixels */
"QQQQQQQQQQQQQQQQQQQQQQQQQQQQQQQQQQQQQQQQQQQQQQQQQQQQQQQQQQQQQQQQQQQQQQQQQQQQQQQQQQQQQQQQQQQQQQQQQQQQ",
"QahhhhhhhhhhhhhhhhhhhhhhhhhhhhhhhhhhhhhhhhhhhhhhhhhhhhhhhhhhhhhhhhhhhhhhhhhhhhhhhhhhhhhhhhhhhhhhhhaQ",
"Qh                                                                                                hQ",
"Qh XXXXXXXXXXXXXXXXXXXXXXXXXXXXXXXXXXXXXXXXXXXXXXXXXXXXXXXXXXXXXXXXXXXXXXXXXXXXXXXXXXXXXXXXXXXXXX hQ",
"Qh XXXXXXXXXXXXXXXXXXXXXXXXXXXXXXXXXXXXXXXXXXXXXXXXXXXXXXXXXXXXXXXXXXXXXXXXXXXXXXXXXXXXXXXXXXXXXX hQ",
"Qh XXXXXXXXXXXXXXXXXXXXXXXXXXXXXXXXXXXXXXXXXXXXXXXXXXXXXXXXXXXXXXXXXXXXXXXXXXXXXXXXXXXXXXXXXXXXXX hQ",
"Qh XXXXXXXXXXXXXXXXXXXXXXXXXXXXXXXXXXXXXXXXXXXXXXXXXXXXXXXXXXXXXXXXXXXXXXXXXXXXXXXXXXXXXXXXXXXXXX hQ",
"Qh XXXXXXXXXXXXXXXXXXXXXXXXXXXXXXXXXXXXXXXXXXXXXXXXXXXXXXXXXXXXXXXXXXXXXXXXXXXXXXXXXXXXXXXXXXXXXX hQ",
"Qh XXXXXXXXXXXXXXXXXXXXXXXXXXXXXXXXXXXXXXXXXXXXXXXXXXXXXXXXXXXXXXXXXXXXXXXXXXXXXXXXXXXXXXXXXXXXXX hQ",
"Qh XXXXXXXXXXXXXXXXXXXXXXXXXXXXXXXXXXXXXXXXXXXXXXXXXXXXXXXXXXXXXXXXXXXXXXXXXXXXXXXXXXXXXXXXXXXXXX hQ",
"Qh XXXXXXXXXXXXXXXXXXXXXXXXXXXXXXXXXXXXXXXXXXXXXXXXXXXXXXXXXXXXXXXXXXXXXXXXXXXXXXXXXXXXXXXXXXXXXX hQ",
"Qh XXXXXXXXXXXXXXXXXXXXXXXXXXXXXXXXXXXXXXXXXXXXXXXXXXXXXXXXXXXXXXXXXXXXXXXXXXXXXXXXXXXXXXXXXXXXXX hQ",
"Qh XXXXXXXXXXXXXXXXXXXXXXXXXXXXXXXXXXXXXXXXXXXXXXXXXXXXXXXXXXXXXXXXXXXXXXXXXXXXXXXXXXXXXXXXXXXXXX hQ",
"Qh XXXXXXXXXXXXXXXXXXXXXXXXXXXXXXXXXXXXXXXXXXXXXXXXXXXXXXXXXXXXXXXXXXXXXXXXXXXXXXXXXXXXXXXXXXXXXX hQ",
"Qh XXXXXXXXXXXXXXXXXXXXXXXXXXXXXXXXXXXXXXXXXXXXXXXXXXXXXXXXXXXXXXXXXXXXXXXXXXXXXXXXXXXXXXXXXXXXXX hQ",
"Qh XXXXXXXXXXXXXXXXXXXXXXXXXXXXXXXXXXXXXXXXXXXXXXXXXXXXXXXXXXXXXXXXXXXXXXXXXXXXXXXXXXXXXXXXXXXXXX hQ",
"Qh XXXXXXXXXXXXXXXXXXXXXXXXXXXXXXXXXXXXXXXXXXXXXXXXXXXXXXXXXXXXXXXXXXXXXXXXXXXXXXXXXXXXXXXXXXXXXX hQ",
"Qh XXXXXXXXXXXXXXXXXXXXXXXXXXXXXXXXXXXXXXXXXXXXXXXXXXXXXXXXXXXXXXXXXXXXXXXXXXXXXXXXXXXXXXXXXXXXXX hQ",
"Qh XXXXXXXXXXXXXXXXXXXXXXXXXXXXXXXXXXXXXXXXXXXXXXXXXXXXXXXXXXXXXXXXXXXXXXXXXXXXXXXXXXXXXXXXXXXXXX hQ",
"Qh XXXXXXXXXXXXXXXXXXXXXXXXXXXXXXXXXXXXXXXXXXXXXXXXXXXXXXXXXXXXXXXXXXXXXXXXXXXXXXXXXXXXXXXXXXXXXX hQ",
"Qh XXXXXXXXXXXXXXXXXXXXXXXXXXXXXjQQQQQQQQQQQQQQQQQWRIGNf1XXXXXXXXXXXXXXXXXXXXXXXXXXXXXXXXXXXXXXXX hQ",
"Qh XXXXXXXXXXXXXXXXXXXXXXXXXXXXXjQQQQQQQQQQQQQQQQQQQQQQQQUb1XXXXXXXXXXXXXXXXXXXXXXXXXXXXXXXXXXXXX hQ",
"Qh XXXXXXXXXXXXXXXXXXXXXXXXXXXXXjQQQQQQQQQQQQQQQQQQQQQQQQQQQA<XXXXXXXXXXXXXXXXXXXXXXXXXXXXXXXXXXX hQ",
"Qh XXXXXXXXXXXXXXXXXXXXXXXXXXXXXjQQQQQQQQQQQQQQQQQQQQQQQQQQQQWjXXXXXXXXXXXXXXXXXXXXXXXXXXXXXXXXXX hQ",
"Qh XXXXXXXXXXXXXXXXXXXXXXXXXXXXXjQQQQQQQQQQQQQQQQQQQQQQQQQQQQQQAOXXXXXXXXXXXXXXXXXXXXXXXXXXXXXXXX hQ",
"Qh XXXXXXXXXXXXXXXXXXXXXXXXXXXXXjQQQQQQQQQQQQQQQQQQQQQQQQQQQQQQQDoXXXXXXXXXXXXXXXXXXXXXXXXXXXXXXX hQ",
"Qh XXXXXXXXXXXXXXXXXXXXXXXXXXXXXjQQQQQQQV111111115qpMLQQQQQQQQQQQnXXXXXXXXXXXXXXXXXXXXXXXXXXXXXXX hQ",
"Qh XXXXXXXXXXXXXXXXXXXXXXXXXXXXXjQQQQQQQmXXXXXXXXXXXXX3CQQQQQQQQQQ0XXXXXXXXXXXXXXXXXXXXXXXXXXXXXX hQ",
"Qh XXXXXXXXXXXXXXXXXXXXXXXXXXXXXjQQQQQQQmXXXXXXXXXXXXXXXqTQQQQQQQQLXXXXXXXXXXXXXXXXXXXXXXXXXXXXXX hQ",
"Qh XXXXXXXXXXXXXXXXXXXXXXXXXXXXXjQQQQQQQmXXXXXXXXXXXXXXXX4WQQQQQQQQrXXXXXXXXXXXXXXXXXXXXXXXXXXXXX hQ",
"Qh XXXXXXXXXXXXXXXXXXXXXXXXXXXXXjQQQQQQQmXXXXXXXXXXXXXXXXXpQQQQQQQQDXXXXXXXXXXXXXXXXXXXXXXXXXXXXX hQ",
"Qh XXXXXXXXXXXXXXXXXXXXXXXXXXXXXjQQQQQQQmXXXXXXXXXXXXXXXXXXPQQQQQQQW+XXXXXXXXXXXXXXXXXXXXXXXXXXXX hQ",
"Qh XXXXXXXXXXXXXXXXXXXXXXXXXXXXXjQQQQQQQmXXXXXXXXXXXXXXXXXXfQQQQQQQQ0XXXXXXXXXXXXXXXXXXXXXXXXXXXX hQ",
"Qh XXXXXXXXXXXXXXXXXXXXXXXXXXXXXjQQQQQQQmXXXXXXXXXXXXXXXXXX,QQQQQQQQjXXXXXXXXXXXXXXXXXXXXXXXXXXXX hQ",
"Qh XXXXXXXXXXXXXXXXXXXXXXXXXXXXXjQQQQQQQmXXXXXXXXXXXXXXXXXXXYQQQQQQQBXXXXXXXXXXXXXXXXXXXXXXXXXXXX hQ",
"Qh XXXXXXXXXXXXXXXXXXXXXXXXXXXXXjQQQQQQQmXXXXXXXXXXXXXXXXXXXKQQQQQQQAXXXXXXXXXXXXXXXXXXXXXXXXXXXX hQ",
"Qh XXXXXXXXXXXXXXXXXXXXXXXXXXXXXjQQQQQQQmXXXXXXXXXXXXXXXXXXXGQQQQQQQDXXXXXXXXXXXXXXXXXXXXXXXXXXXX hQ",
"Qh XXXXXXXXXXXXXXXXXXXXXXXXXXXXXjQQQQQQQmXXXXXXXXXXXXXXXXXXXFQQQQQQQDXXXXXXXXXXXXXXXXXXXXXXXXXXXX hQ",
"Qh XXXXXXXXXXXXXXXXXXXXXXXXXXXXXjQQQQQQQmXXXXXXXXXXXXXXXXXXXJQQQQQQQVXXXXXXXXXXXXXXXXXXXXXXXXXXXX hQ",
"Qh XXXXXXXXXXXXXXXXXXXXXXXXXXXXXjQQQQQQQmXXXXXXXXXXXXXXXXXXXIQQQQQQQmXXXXXXXXXXXXXXXXXXXXXXXXXXXX hQ",
"Qh XXXXXXXXXXXXXXXXXXXXXXXXXXXXXjQQQQQQQmXXXXXXXXXXXXXXXXXX$QQQQQQQQfXXXXXXXXXXXXXXXXXXXXXXXXXXXX hQ",
"Qh XXXXXXXXXXXXXXXXXXXXXXXXXXXXXjQQQQQQQmXXXXXXXXXXXXXXXXXXeQQQQQQQQ2XXXXXXXXXXXXXXXXXXXXXXXXXXXX hQ",
"Qh XXXXXXXXXXXXXXXXXXXXXXXXXXXXXjQQQQQQQmXXXXXXXXXXXXXXXXXXSQQQQQQQTXXXXXXXXXXXXXXXXXXXXXXXXXXXXX hQ",
"Qh XXXXXXXXXXXXXXXXXXXXXXXXXXXXXjQQQQQQQmXXXXXXXXXXXXXXXXX3QQQQQQQQcXXXXXXXXXXXXXXXXXXXXXXXXXXXXX hQ",
"Qh XXXXXXXXXXXXXXXXXXXXXXXXXXXXXjQQQQQQQmXXXXXXXXXXXXXXXX#IQQQQQQQW;XXXXXXXXXXXXXXXXXXXXXXXXXXXXX hQ",
"Qh XXXXXXXXXXXXXXXXXXXXXXXXXXXXXjQQQQQQQmXXXXXXXXXXXXXXX>HQQQQQQQQjXXXXXXXXXXXXXXXXXXXXXXXXXXXXXX hQ",
"Qh XXXXXXXXXXXXXXXXXXXXXXXXXXXXXjQQQQQQQmXXXXXXXXXXXXX#gTQQQQQQQQGXXXXXXXXXXXXXXXXXXXXXXXXXXXXXXX hQ",
"Qh XXXXXXXXXXXXXXXXXXXXXXXXXXXXXjQQQQQQQV1111111128rkDEQQQQQQQQQH$XXXXXXXXXXXXXXXXXXXXXXXXXXXXXXX hQ",
"Qh XXXXXXXXXXXXXXXXXXXXXXXXXXXXXjQQQQQQQQQQQQQQQQQQQQQQQQQQQQQQA#XXXXXXXXXXXXXXXXXXXXXXXXXXXXXXXX hQ",
"Qh XXXXXXXXXXXXXXXXXXXXXXXXXXXXXjQQQQQQQQQQQQQQQQQQQQQQQQQQQQUyXXXXXXXXXXXXXXXXXXXXXXXXXXXXXXXXXX hQ",
"Qh XXXXXXXXXXXXXXXXXXXXXXXXXXXXXjQQQQQQQQQQQQQQQQQQQQQQQQQTSeXXXXXXXXXXXXXXXXXXXXXXXXXXXXXXXXXXXX hQ",
"Qh XXXXXXXXXXXXXXXXXXXXXXXXXXXXXjQQQQQQQQQQQQQQQQQQQQQQQQV1XXXXXXXXXXXXXXXXXXXXXXXXXXXXXXXXXXXXXX hQ",
"Qh XXXXXXXXXXXXXXXXXXXXXXXXXXXXXjQQQQQQQQQQQQQQQQQQQQQQQQQQZ;XXXXXXXXXXXXXXXXXXXXXXXXXXXXXXXXXXXX hQ",
"Qh XXXXXXXXXXXXXXXXXXXXXXXXXXXXXjQQQQQQQQQQQQQQQQQQQQQQQQQQQT7XXXXXXXXXXXXXXXXXXXXXXXXXXXXXXXXXXX hQ",
"Qh XXXXXXXXXXXXXXXXXXXXXXXXXXXXXjQQQQQQQmXXXXXXX@,wzIQQQQQQQQW6XXXXXXXXXXXXXXXXXXXXXXXXXXXXXXXXXX hQ",
"Qh XXXXXXXXXXXXXXXXXXXXXXXXXXXXXjQQQQQQQmXXXXXXXXXXXXiTQQQQQQQY-XXXXXXXXXXXXXXXXXXXXXXXXXXXXXXXXX hQ",
"Qh XXXXXXXXXXXXXXXXXXXXXXXXXXXXXjQQQQQQQmXXXXXXXXXXXXX,UQQQQQQQAXXXXXXXXXXXXXXXXXXXXXXXXXXXXXXXXX hQ",
"Qh XXXXXXXXXXXXXXXXXXXXXXXXXXXXXjQQQQQQQmXXXXXXXXXXXXXX2EQQQQQQQuXXXXXXXXXXXXXXXXXXXXXXXXXXXXXXXX hQ",
"Qh XXXXXXXXXXXXXXXXXXXXXXXXXXXXXjQQQQQQQmXXXXXXXXXXXXXXXsQQQQQQQU+XXXXXXXXXXXXXXXXXXXXXXXXXXXXXXX hQ",
"Qh XXXXXXXXXXXXXXXXXXXXXXXXXXXXXjQQQQQQQmXXXXXXXXXXXXXXXXGQQQQQQQlXXXXXXXXXXXXXXXXXXXXXXXXXXXXXXX hQ",
"Qh XXXXXXXXXXXXXXXXXXXXXXXXXXXXXjQQQQQQQmXXXXXXXXXXXXXXXX1QQQQQQQE=XXXXXXXXXXXXXXXXXXXXXXXXXXXXXX hQ",
"Qh XXXXXXXXXXXXXXXXXXXXXXXXXXXXXjQQQQQQQmXXXXXXXXXXXXXXXXXBQQQQQQQnXXXXXXXXXXXXXXXXXXXXXXXXXXXXXX hQ",
"Qh XXXXXXXXXXXXXXXXXXXXXXXXXXXXXjQQQQQQQmXXXXXXXXXXXXXXXXX:WQQQQQQW-XXXXXXXXXXXXXXXXXXXXXXXXXXXXX hQ",
"Qh XXXXXXXXXXXXXXXXXXXXXXXXXXXXXjQQQQQQQmXXXXXXXXXXXXXXXXXXBQQQQQQQnXXXXXXXXXXXXXXXXXXXXXXXXXXXXX hQ",
"Qh XXXXXXXXXXXXXXXXXXXXXXXXXXXXXjQQQQQQQmXXXXXXXXXXXXXXXXXX,QQQQQQQW-XXXXXXXXXXXXXXXXXXXXXXXXXXXX hQ",
"Qh XXXXXXXXXXXXXXXXXXXXXXXXXXXXXjQQQQQQQmXXXXXXXXXXXXXXXXXXXZQQQQQQQnXXXXXXXXXXXXXXXXXXXXXXXXXXXX hQ",
"Qh XXXXXXXXXXXXXXXXXXXXXXXXXXXXXjQQQQQQQmXXXXXXXXXXXXXXXXXXX3QQQQQQQW=XXXXXXXXXXXXXXXXXXXXXXXXXXX hQ",
"Qh XXXXXXXXXXXXXXXXXXXXXXXXXXXXXjQQQQQQQmXXXXXXXXXXXXXXXXXXXXDQQQQQQQvXXXXXXXXXXXXXXXXXXXXXXXXXXX hQ",
"Qh XXXXXXXXXXXXXXXXXXXXXXXXXXXXXjQQQQQQQmXXXXXXXXXXXXXXXXXXXX9QQQQQQQE*XXXXXXXXXXXXXXXXXXXXXXXXXX hQ",
"Qh XXXXXXXXXXXXXXXXXXXXXXXXXXXXXjQQQQQQQmXXXXXXXXXXXXXXXXXXXXXJQQQQQQQcXXXXXXXXXXXXXXXXXXXXXXXXXX hQ",
"Qh XXXXXXXXXXXXXXXXXXXXXXXXXXXXXjQQQQQQQmXXXXXXXXXXXXXXXXXXXXXtQQQQQQQE&XXXXXXXXXXXXXXXXXXXXXXXXX hQ",
"Qh XXXXXXXXXXXXXXXXXXXXXXXXXXXXXjQQQQQQQmXXXXXXXXXXXXXXXXXXXXXXIQQQQQQQxXXXXXXXXXXXXXXXXXXXXXXXXX hQ",
"Qh XXXXXXXXXXXXXXXXXXXXXXXXXXXXXjQQQQQQQmXXXXXXXXXXXXXXXXXXXXXXdQQQQQQQR%XXXXXXXXXXXXXXXXXXXXXXXX hQ",
"Qh XXXXXXXXXXXXXXXXXXXXXXXXXXXXXjQQQQQQQmXXXXXXXXXXXXXXXXXXXXXXOYQQQQQQQzXXXXXXXXXXXXXXXXXXXXXXXX hQ",
"Qh XXXXXXXXXXXXXXXXXXXXXXXXXXXXXjQQQQQQQmXXXXXXXXXXXXXXXXXXXXXXXjQQQQQQQR$XXXXXXXXXXXXXXXXXXXXXXX hQ",
"Qh XXXXXXXXXXXXXXXXXXXXXXXXXXXXXjQQQQQQQmXXXXXXXXXXXXXXXXXXXXXXX#RQQQQQQQzXXXXXXXXXXXXXXXXXXXXXXX hQ",
"Qh XXXXXXXXXXXXXXXXXXXXXXXXXXXXXjQQQQQQQmXXXXXXXXXXXXXXXXXXXXXXXXcQQQQQQQR#XXXXXXXXXXXXXXXXXXXXXX hQ",
"Qh XXXXXXXXXXXXXXXXXXXXXXXXXXXXXjQQQQQQQmXXXXXXXXXXXXXXXXXXXXXXXX-WQQQQQQQkXXXXXXXXXXXXXXXXXXXXXX hQ",
"Qh XXXXXXXXXXXXXXXXXXXXXXXXXXXXXjQQQQQQQmXXXXXXXXXXXXXXXXXXXXXXXXXBQQQQQQQT@XXXXXXXXXXXXXXXXXXXXX hQ",
"Qh XXXXXXXXXXXXXXXXXXXXXXXXXXXXXXXXXXXXXXXXXXXXXXXXXXXXXXXXXXXXXXXXXXXXXXXXXXXXXXXXXXXXXXXXXXXXXX hQ",
"Qh XXXXXXXXXXXXXXXXXXXXXXXXXXXXXXXXXXXXXXXXXXXXXXXXXXXXXXXXXXXXXXXXXXXXXXXXXXXXXXXXXXXXXXXXXXXXXX hQ",
"Qh XXXXXXXXXXXXXXXXXXXXXXXXXXXXXXXXXXXXXXXXXXXXXXXXXXXXXXXXXXXXXXXXXXXXXXXXXXXXXXXXXXXXXXXXXXXXXX hQ",
"Qh XXXXXXXXXXXXXXXXXXXXXXXXXXXXXXXXXXXXXXXXXXXXXXXXXXXXXXXXXXXXXXXXXXXXXXXXXXXXXXXXXXXXXXXXXXXXXX hQ",
"Qh XXXXXXXXXXXXXXXXXXXXXXXXXXXXXXXXXXXXXXXXXXXXXXXXXXXXXXXXXXXXXXXXXXXXXXXXXXXXXXXXXXXXXXXXXXXXXX hQ",
"Qh XXXXXXXXXXXXXXXXXXXXXXXXXXXXXXXXXXXXXXXXXXXXXXXXXXXXXXXXXXXXXXXXXXXXXXXXXXXXXXXXXXXXXXXXXXXXXX hQ",
"Qh XXXXXXXXXXXXXXXXXXXXXXXXXXXXXXXXXXXXXXXXXXXXXXXXXXXXXXXXXXXXXXXXXXXXXXXXXXXXXXXXXXXXXXXXXXXXXX hQ",
"Qh XXXXXXXXXXXXXXXXXXXXXXXXXXXXXXXXXXXXXXXXXXXXXXXXXXXXXXXXXXXXXXXXXXXXXXXXXXXXXXXXXXXXXXXXXXXXXX hQ",
"Qh XXXXXXXXXXXXXXXXXXXXXXXXXXXXXXXXXXXXXXXXXXXXXXXXXXXXXXXXXXXXXXXXXXXXXXXXXXXXXXXXXXXXXXXXXXXXXX hQ",
"Qh XXXXXXXXXXXXXXXXXXXXXXXXXXXXXXXXXXXXXXXXXXXXXXXXXXXXXXXXXXXXXXXXXXXXXXXXXXXXXXXXXXXXXXXXXXXXXX hQ",
"Qh XXXXXXXXXXXXXXXXXXXXXXXXXXXXXXXXXXXXXXXXXXXXXXXXXXXXXXXXXXXXXXXXXXXXXXXXXXXXXXXXXXXXXXXXXXXXXX hQ",
"Qh XXXXXXXXXXXXXXXXXXXXXXXXXXXXXXXXXXXXXXXXXXXXXXXXXXXXXXXXXXXXXXXXXXXXXXXXXXXXXXXXXXXXXXXXXXXXXX hQ",
"Qh XXXXXXXXXXXXXXXXXXXXXXXXXXXXXXXXXXXXXXXXXXXXXXXXXXXXXXXXXXXXXXXXXXXXXXXXXXXXXXXXXXXXXXXXXXXXXX hQ",
"Qh XXXXXXXXXXXXXXXXXXXXXXXXXXXXXXXXXXXXXXXXXXXXXXXXXXXXXXXXXXXXXXXXXXXXXXXXXXXXXXXXXXXXXXXXXXXXXX hQ",
"Qh XXXXXXXXXXXXXXXXXXXXXXXXXXXXXXXXXXXXXXXXXXXXXXXXXXXXXXXXXXXXXXXXXXXXXXXXXXXXXXXXXXXXXXXXXXXXXX hQ",
"Qh XXXXXXXXXXXXXXXXXXXXXXXXXXXXXXXXXXXXXXXXXXXXXXXXXXXXXXXXXXXXXXXXXXXXXXXXXXXXXXXXXXXXXXXXXXXXXX hQ",
"Qh XXXXXXXXXXXXXXXXXXXXXXXXXXXXXXXXXXXXXXXXXXXXXXXXXXXXXXXXXXXXXXXXXXXXXXXXXXXXXXXXXXXXXXXXXXXXXX hQ",
"Qh.XXXXXXXXXXXXXXXXXXXXXXXXXXXXXXXXXXXXXXXXXXXXXXXXXXXXXXXXXXXXXXXXXXXXXXXXXXXXXXXXXXXXXXXXXXXXXX hQ",
"Qh                                                                                                hQ",
"QahhhhhhhhhhhhhhhhhhhhhhhhhhhhhhhhhhhhhhhhhhhhhhhhhhhhhhhhhhhhhhhhhhhhhhhhhhhhhhhhhhhhhhhhhhhhhhhhaQ",
"QQQQQQQQQQQQQQQQQQQQQQQQQQQQQQQQQQQQQQQQQQQQQQQQQQQQQQQQQQQQQQQQQQQQQQQQQQQQQQQQQQQQQQQQQQQQQQQQQQQQ"
};
