/* XPM */
static char *r2[] = {
/* columns rows colors chars-per-pixel */
"100 100 68 1 ",
"  c #686868",
". c #7C7C7C",
"X c #C3AF2A",
"o c #C3AF2E",
"O c #C4B034",
"+ c #C4B13A",
"@ c #C5B23F",
"# c #C5B242",
"$ c #C6B344",
"% c #C6B348",
"& c #C6B44A",
"* c #C7B54E",
"= c #C7B552",
"- c #C8B757",
"; c #CAB95F",
": c #CABA64",
"> c #CBBB68",
", c #CCBC6D",
"< c #CDBD71",
"1 c #CEBF75",
"2 c #D0C17B",
"3 c #D0C27F",
"4 c #AFAFAF",
"5 c gray70",
"6 c #D1C381",
"7 c #D2C484",
"8 c #D3C589",
"9 c #D4C78D",
"0 c #D6C993",
"q c #D6CA94",
"w c #D7CB98",
"e c #D8CD9B",
"r c #D9CE9F",
"t c #DACFA1",
"y c #DBD0A3",
"u c #DBD0A4",
"i c #DDD3A9",
"p c #DED4AD",
"a c #DFD6B1",
"s c #E0D7B3",
"d c #E1D8B6",
"f c #E3DABB",
"g c #E3DBBC",
"h c #E4DCBE",
"j c #E6DEC3",
"k c #E6E0C5",
"l c #E7E1C8",
"z c #E9E3CB",
"x c #E9E3CD",
"c c #EAE4CE",
"v c #EBE5D0",
"b c #ECE6D2",
"n c #ECE7D4",
"m c #EDE9D7",
"M c #EFEBDB",
"N c #F0ECDE",
"B c #F2EFE3",
"V c #F3F0E4",
"C c #F4F1E7",
"Z c #F5F2E9",
"A c #F7F4ED",
"S c #F8F6EF",
"D c #F9F7F1",
"F c #FAF8F3",
"G c #FBFAF6",
"H c #FCFBF8",
"J c #FDFCFA",
"K c white",
/* pixels */
"KKKKKKKKKKKKKKKKKKKKKKKKKKKKKKKKKKKKKKKKKKKKKKKKKKKKKKKKKKKKKKKKKKKKKKKKKKKKKKKKKKKKKKKKKKKKKKKKKKKK",
"K45555555555555555555555555555555555555555555555555555555555555555555555555555555555555555555555554K",
"K5                                                                                                5K",
"K5 XXXXXXXXXXXXXXXXXXXXXXXXXXXXXXXXXXXXXXXXXXXXXXXXXXXXXXXXXXXXXXXXXXXXXXXXXXXXXXXXXXXXXXXXXXXXXX 5K",
"K5 XXXXXXXXXXXXXXXXXXXXXXXXXXXXXXXXXXXXXXXXXXXXXXXXXXXXXXXXXXXXXXXXXXXXXXXXXXXXXXXXXXXXXXXXXXXXXX 5K",
"K5 XXXXXXXXXXXXXXXXXXXXXXXXXXXXXXXXXXXXXXXXXXXXXXXXXXXXXXXXXXXXXXXXXXXXXXXXXXXXXXXXXXXXXXXXXXXXXX 5K",
"K5 XXXXXXXXXXXXXXXXXXXXXXXXXXXXXXXXXXXXXXXXXXXXXXXXXXXXXXXXXXXXXXXXXXXXXXXXXXXXXXXXXXXXXXXXXXXXXX 5K",
"K5 XXXXXXXXXXXXXXXXXXXXXXXXXXXXXXXXXXXXXXXXXXXXXXXXXXXXXXXXXXXXXXXXXXXXXXXXXXXXXXXXXXXXXXXXXXXXXX 5K",
"K5 XXXXXXXXXXXXXXXXXXXXXXXXXXXXXXXXXXXXXXXXXXXXXXXXXXXXXXXXXXXXXXXXXXXXXXXXXXXXXXXXXXXXXXXXXXXXXX 5K",
"K5 XXXXXXXXXXXXXXXXXXXXXXXXXXXXXXXXXXXXXXXXXXXXXXXXXXXXXXXXXXXXXXXXXXXXXXXXXXXXXXXXXXXXXXXXXXXXXX 5K",
"K5 XXXXXXXXXXXXXXXXXXXXXXXXXXXXXXXXXXXXXXXXXXXXXXXXXXXXXXXXXXXXXXXXXXXXXXXXXXXXXXXXXXXXXXXXXXXXXX 5K",
"K5 XXXXXXXXXXXXXXXXXXXXXXXXXXXXXXXXXXXXXXXXXXXXXXXXXXXXXXXXXXXXXXXXXXXXXXXXXXXXXXXXXXXXXXXXXXXXXX 5K",
"K5 XXXXXXXXXXXXXXXXXXXXXXXXXXXXXXXXXXXXXXXXXXXXXXXXXXXXXXXXXXXXXXXXXXXXXXXXXXXXXXXXXXXXXXXXXXXXXX 5K",
"K5 XXXXXXXXXXXXXXXXXXXXXXXXXXXXXXXXXXXXXXXXXXXXXXXXXXXXXXXXXXXXXXXXXXXXXXXXXXXXXXXXXXXXXXXXXXXXXX 5K",
"K5 XXXXXXXXXXXXXXXXXXXXXXXXXXXXXXXXXXXXXXXXXXXXXXXXXXXXXXXXXXXXXXXXXXXXXXXXXXXXXXXXXXXXXXXXXXXXXX 5K",
"K5 XXXXXXXXXXXXXXXXXXXXXXXXXXXXXXXXXXXXXXXXXXXXXXXXXXXXXXXXXXXXXXXXXXXXXXXXXXXXXXXXXXXXXXXXXXXXXX 5K",
"K5 XXXXXXXXXXXXXXXXXXXXXXXXXXXXXXXXXXXXXXXXXXXXXXXXXXXXXXXXXXXXXXXXXXXXXXXXXXXXXXXXXXXXXXXXXXXXXX 5K",
"K5 XXXXXXXXXXXXXXXXXXXXXXXXXXXXXXXXXXXXXXXXXXXXXXXXXXXXXXXXXXXXXXXXXXXXXXXXXXXXXXXXXXXXXXXXXXXXXX 5K",
"K5 XXXXXXXXXXXXXXXXXXXXXXXXXXXXXXXXXXXXXXXXXXXXXXXXXXXXXXXXXXXXXXXXXXXXXXXXXXXXXXXXXXXXXXXXXXXXXX 5K",
"K5 XXXXXXXXXXXXXXXXXXXXXXXXXXXXXXXXXXXXXXXXXXXXXXXXXXXXXXXXXXXXXXXXXXXXXXXXXXXXXXXXXXXXXXXXXXXXXX 5K",
"K5 XXXXXXXXXXXXXXXXXXXXXXXXXXXXXpKKKKKKKKKKKKKKKKKJFZMjy:XXXXXXXXXXXXXXXXXXXXXXXXXXXXXXXXXXXXXXXX 5K",
"K5 XXXXXXXXXXXXXXXXXXXXXXXXXXXXXpKKKKKKKKKKKKKKKKKKKKKKKKAg:XXXXXXXXXXXXXXXXXXXXXXXXXXXXXXXXXXXXX 5K",
"K5 XXXXXXXXXXXXXXXXXXXXXXXXXXXXXpKKKKKKKKKKKKKKKKKKKKKKKKKKKv:XXXXXXXXXXXXXXXXXXXXXXXXXXXXXXXXXXX 5K",
"K5 XXXXXXXXXXXXXXXXXXXXXXXXXXXXXpKKKKKKKKKKKKKKKKKKKKKKKKKKKKJpXXXXXXXXXXXXXXXXXXXXXXXXXXXXXXXXXX 5K",
"K5 XXXXXXXXXXXXXXXXXXXXXXXXXXXXXpKKKKKKKKKKKKKKKKKKKKKKKKKKKKKKvOXXXXXXXXXXXXXXXXXXXXXXXXXXXXXXXX 5K",
"K5 XXXXXXXXXXXXXXXXXXXXXXXXXXXXXpKKKKKKKKKKKKKKKKKKKKKKKKKKKKKKKnoXXXXXXXXXXXXXXXXXXXXXXXXXXXXXXX 5K",
"K5 XXXXXXXXXXXXXXXXXXXXXXXXXXXXXpKKKKKKKz::::::::18ejVKKKKKKKKKKKhXXXXXXXXXXXXXXXXXXXXXXXXXXXXXXX 5K",
"K5 XXXXXXXXXXXXXXXXXXXXXXXXXXXXXpKKKKKKKhXXXXXXXXXXXXX<zKKKKKKKKKK7XXXXXXXXXXXXXXXXXXXXXXXXXXXXXX 5K",
"K5 XXXXXXXXXXXXXXXXXXXXXXXXXXXXXpKKKKKKKjXXXXXXXXXXXXXXX8FKKKKKKKKCXXXXXXXXXXXXXXXXXXXXXXXXXXXXXX 5K",
"K5 XXXXXXXXXXXXXXXXXXXXXXXXXXXXXpKKKKKKKjXXXXXXXXXXXXXXXX<HKKKKKKKK0XXXXXXXXXXXXXXXXXXXXXXXXXXXXX 5K",
"K5 XXXXXXXXXXXXXXXXXXXXXXXXXXXXXpKKKKKKKjXXXXXXXXXXXXXXXXXeKKKKKKKKnXXXXXXXXXXXXXXXXXXXXXXXXXXXXX 5K",
"K5 XXXXXXXXXXXXXXXXXXXXXXXXXXXXXpKKKKKKKjXXXXXXXXXXXXXXXXXXCKKKKKKKJ+XXXXXXXXXXXXXXXXXXXXXXXXXXXX 5K",
"K5 XXXXXXXXXXXXXXXXXXXXXXXXXXXXXpKKKKKKKjXXXXXXXXXXXXXXXXXXuKKKKKKKK7XXXXXXXXXXXXXXXXXXXXXXXXXXXX 5K",
"K5 XXXXXXXXXXXXXXXXXXXXXXXXXXXXXpKKKKKKKjXXXXXXXXXXXXXXXXXX;KKKKKKKKpXXXXXXXXXXXXXXXXXXXXXXXXXXXX 5K",
"K5 XXXXXXXXXXXXXXXXXXXXXXXXXXXXXpKKKKKKKjXXXXXXXXXXXXXXXXXXXSKKKKKKKjXXXXXXXXXXXXXXXXXXXXXXXXXXXX 5K",
"K5 XXXXXXXXXXXXXXXXXXXXXXXXXXXXXpKKKKKKKhXXXXXXXXXXXXXXXXXXXBKKKKKKKvXXXXXXXXXXXXXXXXXXXXXXXXXXXX 5K",
"K5 XXXXXXXXXXXXXXXXXXXXXXXXXXXXXpKKKKKKKjXXXXXXXXXXXXXXXXXXXMKKKKKKKmXXXXXXXXXXXXXXXXXXXXXXXXXXXX 5K",
"K5 XXXXXXXXXXXXXXXXXXXXXXXXXXXXXpKKKKKKKjXXXXXXXXXXXXXXXXXXXmKKKKKKKnXXXXXXXXXXXXXXXXXXXXXXXXXXXX 5K",
"K5 XXXXXXXXXXXXXXXXXXXXXXXXXXXXXpKKKKKKKjXXXXXXXXXXXXXXXXXXXBKKKKKKKzXXXXXXXXXXXXXXXXXXXXXXXXXXXX 5K",
"K5 XXXXXXXXXXXXXXXXXXXXXXXXXXXXXpKKKKKKKjXXXXXXXXXXXXXXXXXXXZKKKKKKKjXXXXXXXXXXXXXXXXXXXXXXXXXXXX 5K",
"K5 XXXXXXXXXXXXXXXXXXXXXXXXXXXXXpKKKKKKKjXXXXXXXXXXXXXXXXXX$KKKKKKKKuXXXXXXXXXXXXXXXXXXXXXXXXXXXX 5K",
"K5 XXXXXXXXXXXXXXXXXXXXXXXXXXXXXpKKKKKKKjXXXXXXXXXXXXXXXXXX9KKKKKKKK,XXXXXXXXXXXXXXXXXXXXXXXXXXXX 5K",
"K5 XXXXXXXXXXXXXXXXXXXXXXXXXXXXXpKKKKKKKjXXXXXXXXXXXXXXXXXXvKKKKKKKDXXXXXXXXXXXXXXXXXXXXXXXXXXXXX 5K",
"K5 XXXXXXXXXXXXXXXXXXXXXXXXXXXXXpKKKKKKKjXXXXXXXXXXXXXXXXX,KKKKKKKKdXXXXXXXXXXXXXXXXXXXXXXXXXXXXX 5K",
"K5 XXXXXXXXXXXXXXXXXXXXXXXXXXXXXpKKKKKKKjXXXXXXXXXXXXXXXX#ZKKKKKKKJ-XXXXXXXXXXXXXXXXXXXXXXXXXXXXX 5K",
"K5 XXXXXXXXXXXXXXXXXXXXXXXXXXXXXpKKKKKKKjXXXXXXXXXXXXXXX-NKKKKKKKKpXXXXXXXXXXXXXXXXXXXXXXXXXXXXXX 5K",
"K5 XXXXXXXXXXXXXXXXXXXXXXXXXXXXXpKKKKKKKjXXXXXXXXXXXXX#iFKKKKKKKKMXXXXXXXXXXXXXXXXXXXXXXXXXXXXXXX 5K",
"K5 XXXXXXXXXXXXXXXXXXXXXXXXXXXXXpKKKKKKKz::::::::,39anGKKKKKKKKKN$XXXXXXXXXXXXXXXXXXXXXXXXXXXXXXX 5K",
"K5 XXXXXXXXXXXXXXXXXXXXXXXXXXXXXpKKKKKKKKKKKKKKKKKKKKKKKKKKKKKKv#XXXXXXXXXXXXXXXXXXXXXXXXXXXXXXXX 5K",
"K5 XXXXXXXXXXXXXXXXXXXXXXXXXXXXXpKKKKKKKKKKKKKKKKKKKKKKKKKKKKA0XXXXXXXXXXXXXXXXXXXXXXXXXXXXXXXXXX 5K",
"K5 XXXXXXXXXXXXXXXXXXXXXXXXXXXXXpKKKKKKKKKKKKKKKKKKKKKKKKKFb9XXXXXXXXXXXXXXXXXXXXXXXXXXXXXXXXXXXX 5K",
"K5 XXXXXXXXXXXXXXXXXXXXXXXXXXXXXpKKKKKKKKKKKKKKKKKKKKKKKKl:XXXXXXXXXXXXXXXXXXXXXXXXXXXXXXXXXXXXXX 5K",
"K5 XXXXXXXXXXXXXXXXXXXXXXXXXXXXXpKKKKKKKKKKKKKKKKKKKKKKKKKKc-XXXXXXXXXXXXXXXXXXXXXXXXXXXXXXXXXXXX 5K",
"K5 XXXXXXXXXXXXXXXXXXXXXXXXXXXXXpKKKKKKKKKKKKKKKKKKKKKKKKKKKF2XXXXXXXXXXXXXXXXXXXXXXXXXXXXXXXXXXX 5K",
"K5 XXXXXXXXXXXXXXXXXXXXXXXXXXXXXpKKKKKKKjXXXXXXX@;9dZKKKKKKKKH1XXXXXXXXXXXXXXXXXXXXXXXXXXXXXXXXXX 5K",
"K5 XXXXXXXXXXXXXXXXXXXXXXXXXXXXXpKKKKKKKjXXXXXXXXXXXXwFKKKKKKKS=XXXXXXXXXXXXXXXXXXXXXXXXXXXXXXXXX 5K",
"K5 XXXXXXXXXXXXXXXXXXXXXXXXXXXXXpKKKKKKKjXXXXXXXXXXXXX;AKKKKKKKvXXXXXXXXXXXXXXXXXXXXXXXXXXXXXXXXX 5K",
"K5 XXXXXXXXXXXXXXXXXXXXXXXXXXXXXpKKKKKKKjXXXXXXXXXXXXXX,GKKKKKKKqXXXXXXXXXXXXXXXXXXXXXXXXXXXXXXXX 5K",
"K5 XXXXXXXXXXXXXXXXXXXXXXXXXXXXXpKKKKKKKjXXXXXXXXXXXXXXXrKKKKKKKA+XXXXXXXXXXXXXXXXXXXXXXXXXXXXXXX 5K",
"K5 XXXXXXXXXXXXXXXXXXXXXXXXXXXXXpKKKKKKKhXXXXXXXXXXXXXXXXMKKKKKKKsXXXXXXXXXXXXXXXXXXXXXXXXXXXXXXX 5K",
"K5 XXXXXXXXXXXXXXXXXXXXXXXXXXXXXpKKKKKKKjXXXXXXXXXXXXXXXX>KKKKKKKG*XXXXXXXXXXXXXXXXXXXXXXXXXXXXXX 5K",
"K5 XXXXXXXXXXXXXXXXXXXXXXXXXXXXXpKKKKKKKjXXXXXXXXXXXXXXXXXjKKKKKKKgXXXXXXXXXXXXXXXXXXXXXXXXXXXXXX 5K",
"K5 XXXXXXXXXXXXXXXXXXXXXXXXXXXXXpKKKKKKKjXXXXXXXXXXXXXXXXX-JKKKKKKH=XXXXXXXXXXXXXXXXXXXXXXXXXXXXX 5K",
"K5 XXXXXXXXXXXXXXXXXXXXXXXXXXXXXpKKKKKKKjXXXXXXXXXXXXXXXXXXjKKKKKKKhXXXXXXXXXXXXXXXXXXXXXXXXXXXXX 5K",
"K5 XXXXXXXXXXXXXXXXXXXXXXXXXXXXXpKKKKKKKjXXXXXXXXXXXXXXXXXX;KKKKKKKH=XXXXXXXXXXXXXXXXXXXXXXXXXXXX 5K",
"K5 XXXXXXXXXXXXXXXXXXXXXXXXXXXXXpKKKKKKKjXXXXXXXXXXXXXXXXXXXxKKKKKKKgXXXXXXXXXXXXXXXXXXXXXXXXXXXX 5K",
"K5 XXXXXXXXXXXXXXXXXXXXXXXXXXXXXpKKKKKKKjXXXXXXXXXXXXXXXXXXX<KKKKKKKH*XXXXXXXXXXXXXXXXXXXXXXXXXXX 5K",
"K5 XXXXXXXXXXXXXXXXXXXXXXXXXXXXXpKKKKKKKjXXXXXXXXXXXXXXXXXXXXmKKKKKKKfXXXXXXXXXXXXXXXXXXXXXXXXXXX 5K",
"K5 XXXXXXXXXXXXXXXXXXXXXXXXXXXXXpKKKKKKKjXXXXXXXXXXXXXXXXXXXX6KKKKKKKG&XXXXXXXXXXXXXXXXXXXXXXXXXX 5K",
"K5 XXXXXXXXXXXXXXXXXXXXXXXXXXXXXpKKKKKKKjXXXXXXXXXXXXXXXXXXXXXBKKKKKKKfXXXXXXXXXXXXXXXXXXXXXXXXXX 5K",
"K5 XXXXXXXXXXXXXXXXXXXXXXXXXXXXXpKKKKKKKjXXXXXXXXXXXXXXXXXXXXX0KKKKKKKG%XXXXXXXXXXXXXXXXXXXXXXXXX 5K",
"K5 XXXXXXXXXXXXXXXXXXXXXXXXXXXXXpKKKKKKKjXXXXXXXXXXXXXXXXXXXXXXZKKKKKKKdXXXXXXXXXXXXXXXXXXXXXXXXX 5K",
"K5 XXXXXXXXXXXXXXXXXXXXXXXXXXXXXpKKKKKKKjXXXXXXXXXXXXXXXXXXXXXXtKKKKKKKG$XXXXXXXXXXXXXXXXXXXXXXXX 5K",
"K5 XXXXXXXXXXXXXXXXXXXXXXXXXXXXXpKKKKKKKjXXXXXXXXXXXXXXXXXXXXXXOSKKKKKKKdXXXXXXXXXXXXXXXXXXXXXXXX 5K",
"K5 XXXXXXXXXXXXXXXXXXXXXXXXXXXXXpKKKKKKKjXXXXXXXXXXXXXXXXXXXXXXXpKKKKKKKG$XXXXXXXXXXXXXXXXXXXXXXX 5K",
"K5 XXXXXXXXXXXXXXXXXXXXXXXXXXXXXpKKKKKKKjXXXXXXXXXXXXXXXXXXXXXXX#GKKKKKKKsXXXXXXXXXXXXXXXXXXXXXXX 5K",
"K5 XXXXXXXXXXXXXXXXXXXXXXXXXXXXXpKKKKKKKjXXXXXXXXXXXXXXXXXXXXXXXXfKKKKKKKG#XXXXXXXXXXXXXXXXXXXXXX 5K",
"K5 XXXXXXXXXXXXXXXXXXXXXXXXXXXXXpKKKKKKKjXXXXXXXXXXXXXXXXXXXXXXXX=JKKKKKKKaXXXXXXXXXXXXXXXXXXXXXX 5K",
"K5 XXXXXXXXXXXXXXXXXXXXXXXXXXXXXpKKKKKKKjXXXXXXXXXXXXXXXXXXXXXXXXXkKKKKKKKF@XXXXXXXXXXXXXXXXXXXXX 5K",
"K5 XXXXXXXXXXXXXXXXXXXXXXXXXXXXXXXXXXXXXXXXXXXXXXXXXXXXXXXXXXXXXXXXXXXXXXXXXXXXXXXXXXXXXXXXXXXXXX 5K",
"K5 XXXXXXXXXXXXXXXXXXXXXXXXXXXXXXXXXXXXXXXXXXXXXXXXXXXXXXXXXXXXXXXXXXXXXXXXXXXXXXXXXXXXXXXXXXXXXX 5K",
"K5 XXXXXXXXXXXXXXXXXXXXXXXXXXXXXXXXXXXXXXXXXXXXXXXXXXXXXXXXXXXXXXXXXXXXXXXXXXXXXXXXXXXXXXXXXXXXXX 5K",
"K5 XXXXXXXXXXXXXXXXXXXXXXXXXXXXXXXXXXXXXXXXXXXXXXXXXXXXXXXXXXXXXXXXXXXXXXXXXXXXXXXXXXXXXXXXXXXXXX 5K",
"K5 XXXXXXXXXXXXXXXXXXXXXXXXXXXXXXXXXXXXXXXXXXXXXXXXXXXXXXXXXXXXXXXXXXXXXXXXXXXXXXXXXXXXXXXXXXXXXX 5K",
"K5 XXXXXXXXXXXXXXXXXXXXXXXXXXXXXXXXXXXXXXXXXXXXXXXXXXXXXXXXXXXXXXXXXXXXXXXXXXXXXXXXXXXXXXXXXXXXXX 5K",
"K5 XXXXXXXXXXXXXXXXXXXXXXXXXXXXXXXXXXXXXXXXXXXXXXXXXXXXXXXXXXXXXXXXXXXXXXXXXXXXXXXXXXXXXXXXXXXXXX 5K",
"K5 XXXXXXXXXXXXXXXXXXXXXXXXXXXXXXXXXXXXXXXXXXXXXXXXXXXXXXXXXXXXXXXXXXXXXXXXXXXXXXXXXXXXXXXXXXXXXX 5K",
"K5 XXXXXXXXXXXXXXXXXXXXXXXXXXXXXXXXXXXXXXXXXXXXXXXXXXXXXXXXXXXXXXXXXXXXXXXXXXXXXXXXXXXXXXXXXXXXXX 5K",
"K5 XXXXXXXXXXXXXXXXXXXXXXXXXXXXXXXXXXXXXXXXXXXXXXXXXXXXXXXXXXXXXXXXXXXXXXXXXXXXXXXXXXXXXXXXXXXXXX 5K",
"K5 XXXXXXXXXXXXXXXXXXXXXXXXXXXXXXXXXXXXXXXXXXXXXXXXXXXXXXXXXXXXXXXXXXXXXXXXXXXXXXXXXXXXXXXXXXXXXX 5K",
"K5 XXXXXXXXXXXXXXXXXXXXXXXXXXXXXXXXXXXXXXXXXXXXXXXXXXXXXXXXXXXXXXXXXXXXXXXXXXXXXXXXXXXXXXXXXXXXXX 5K",
"K5 XXXXXXXXXXXXXXXXXXXXXXXXXXXXXXXXXXXXXXXXXXXXXXXXXXXXXXXXXXXXXXXXXXXXXXXXXXXXXXXXXXXXXXXXXXXXXX 5K",
"K5 XXXXXXXXXXXXXXXXXXXXXXXXXXXXXXXXXXXXXXXXXXXXXXXXXXXXXXXXXXXXXXXXXXXXXXXXXXXXXXXXXXXXXXXXXXXXXX 5K",
"K5 XXXXXXXXXXXXXXXXXXXXXXXXXXXXXXXXXXXXXXXXXXXXXXXXXXXXXXXXXXXXXXXXXXXXXXXXXXXXXXXXXXXXXXXXXXXXXX 5K",
"K5 XXXXXXXXXXXXXXXXXXXXXXXXXXXXXXXXXXXXXXXXXXXXXXXXXXXXXXXXXXXXXXXXXXXXXXXXXXXXXXXXXXXXXXXXXXXXXX 5K",
"K5 XXXXXXXXXXXXXXXXXXXXXXXXXXXXXXXXXXXXXXXXXXXXXXXXXXXXXXXXXXXXXXXXXXXXXXXXXXXXXXXXXXXXXXXXXXXXXX 5K",
"K5.XXXXXXXXXXXXXXXXXXXXXXXXXXXXXXXXXXXXXXXXXXXXXXXXXXXXXXXXXXXXXXXXXXXXXXXXXXXXXXXXXXXXXXXXXXXXXX 5K",
"K5                                                                                                5K",
"K45555555555555555555555555555555555555555555555555555555555555555555555555555555555555555555555554K",
"KKKKKKKKKKKKKKKKKKKKKKKKKKKKKKKKKKKKKKKKKKKKKKKKKKKKKKKKKKKKKKKKKKKKKKKKKKKKKKKKKKKKKKKKKKKKKKKKKKKK"
};
