/* XPM */
static char *r3[] = {
/* columns rows colors chars-per-pixel */
"100 100 37 1 ",
"  c #686868",
". c #727272",
"X c gray46",
"o c #7B7B7B",
"O c #7C7C7C",
"+ c gray51",
"@ c #848484",
"# c #8B8B8B",
"$ c gray55",
"% c #929292",
"& c #959595",
"* c #9B9B9B",
"= c gray61",
"- c #A2A2A2",
"; c #A5A5A5",
": c #A9A9A9",
"> c #AFAFAF",
", c gray70",
"< c gray71",
"1 c #B9B9B9",
"2 c #BCBCBC",
"3 c #C3C3C3",
"4 c gray78",
"5 c #C8C8C8",
"6 c #CDCDCD",
"7 c #D2D2D2",
"8 c gray83",
"9 c #D8D8D8",
"0 c #DDDDDD",
"q c gray88",
"w c #E7E7E7",
"e c gray92",
"r c #ECECEC",
"t c gray95",
"y c gray96",
"u c #FBFBFB",
"i c white",
/* pixels */
"iiiiiiiiiiiiiiiiiiiiiiiiiiiiiiiiiiiiiiiiiiiiiiiiiiiiiiiiiiiiiiiiiiiiiiiiiiiiiiiiiiiiiiiiiiiiiiiiiiii",
"i>,,,,,,,,,,,,,,,,,,,,,,,,,,,,,,,,,,,,,,,,,,,,,,,,,,,,,,,,,,,,,,,,,,,,,,,,,,,,,,,,,,,,,,,,,,,,,,,,>i",
"i,                                                                                                ,i",
"i, .............................................................................................. ,i",
"i, .............................................................................................. ,i",
"i, .............................................................................................. ,i",
"i, .............................................................................................. ,i",
"i, .............................................................................................. ,i",
"i, .............................................................................................. ,i",
"i, .............................................................................................. ,i",
"i, .............................................................................................. ,i",
"i, .............................................................................................. ,i",
"i, .............................................................................................. ,i",
"i, .............................................................................................. ,i",
"i, .............................................................................................. ,i",
"i, .............................................................................................. ,i",
"i, .............................................................................................. ,i",
"i, .............................................................................................. ,i",
"i, .............................................................................................. ,i",
"i, .............................................................................................. ,i",
"i, .............................2iiiiiiiiiiiiiiiiiuyrq6<#........................................ ,i",
"i, .............................2iiiiiiiiiiiiiiiiiiiiiiiir5$..................................... ,i",
"i, .............................2iiiiiiiiiiiiiiiiiiiiiiiiiii9#................................... ,i",
"i, .............................2iiiiiiiiiiiiiiiiiiiiiiiiiiiiu2.................................. ,i",
"i, .............................2iiiiiiiiiiiiiiiiiiiiiiiiiiiiii9X................................ ,i",
"i, .............................2iiiiiiiiiiiiiiiiiiiiiiiiiiiiiii0................................ ,i",
"i, .............................2iiiiiii7########&->6eiiiiiiiiiii5............................... ,i",
"i, .............................2iiiiiii6.............%8iiiiiiiiii=.............................. ,i",
"i, .............................2iiiiiii5...............-yiiiiiiiie.............................. ,i",
"i, .............................2iiiiiii5................%uiiiiiiii:............................. ,i",
"i, .............................2iiiiiii5.................>iiiiiiii0............................. ,i",
"i, .............................2iiiiiii5..................eiiiiiiiuX............................ ,i",
"i, .............................2iiiiiii5..................<iiiiiiii=............................ ,i",
"i, .............................2iiiiiii5..................#iiiiiiii2............................ ,i",
"i, .............................2iiiiiii5...................tiiiiiii6............................ ,i",
"i, .............................2iiiiiii6...................wiiiiiii9............................ ,i",
"i, .............................2iiiiiii5...................qiiiiiii0............................ ,i",
"i, .............................2iiiiiii5...................0iiiiiii9............................ ,i",
"i, .............................2iiiiiii5...................wiiiiiii7............................ ,i",
"i, .............................2iiiiiii5...................riiiiiii5............................ ,i",
"i, .............................2iiiiiii5..................oiiiiiiii<............................ ,i",
"i, .............................2iiiiiii5..................;iiiiiiii$............................ ,i",
"i, .............................2iiiiiii5..................9iiiiiiit............................. ,i",
"i, .............................2iiiiiii5.................%iiiiiiii4............................. ,i",
"i, .............................2iiiiiii5................oeiiiiiiiu+............................. ,i",
"i, .............................2iiiiiii5...............@qiiiiiiii1.............................. ,i",
"i, .............................2iiiiiii5.............o1yiiiiiiiiq............................... ,i",
"i, .............................2iiiiiii7########$*;29uiiiiiiiiiwo............................... ,i",
"i, .............................2iiiiiiiiiiiiiiiiiiiiiiiiiiiiii9o................................ ,i",
"i, .............................2iiiiiiiiiiiiiiiiiiiiiiiiiiiir:.................................. ,i",
"i, .............................2iiiiiiiiiiiiiiiiiiiiiiiiiy9;.................................... ,i",
"i, .............................2iiiiiiiiiiiiiiiiiiiiiiii7$...................................... ,i",
"i, .............................2iiiiiiiiiiiiiiiiiiiiiiiiii8+.................................... ,i",
"i, .............................2iiiiiiiiiiiiiiiiiiiiiiiiiiiy*................................... ,i",
"i, .............................2iiiiiii5.......o@;3riiiiiiiiu&.................................. ,i",
"i, .............................2iiiiiii5............>yiiiiiiit+................................. ,i",
"i, .............................2iiiiiii5.............#tiiiiiii9................................. ,i",
"i, .............................2iiiiiii5..............$uiiiiiii:................................ ,i",
"i, .............................2iiiiiii5...............,iiiiiiitX............................... ,i",
"i, .............................2iiiiiii6................0iiiiiii3............................... ,i",
"i, .............................2iiiiiii5................$iiiiiiiuO.............................. ,i",
"i, .............................2iiiiiii5.................6iiiiiii5.............................. ,i",
"i, .............................2iiiiiii5.................+uiiiiiiu+............................. ,i",
"i, .............................2iiiiiii5..................6iiiiiii5............................. ,i",
"i, .............................2iiiiiii5..................#iiiiiiiu+............................ ,i",
"i, .............................2iiiiiii5...................8iiiiiii5............................ ,i",
"i, .............................2iiiiiii5...................%iiiiiiiuO........................... ,i",
"i, .............................2iiiiiii5....................0iiiiiii4........................... ,i",
"i, .............................2iiiiiii5....................=iiiiiiiuO.......................... ,i",
"i, .............................2iiiiiii5.....................wiiiiiii4.......................... ,i",
"i, .............................2iiiiiii5.....................:iiiiiiiuO......................... ,i",
"i, .............................2iiiiiii5......................riiiiiii4......................... ,i",
"i, .............................2iiiiiii5......................,iiiiiiiyO........................ ,i",
"i, .............................2iiiiiii5......................Xtiiiiiii3........................ ,i",
"i, .............................2iiiiiii5.......................2iiiiiiiyo....................... ,i",
"i, .............................2iiiiiii5.......................oyiiiiiii3....................... ,i",
"i, .............................2iiiiiii5........................4iiiiiiiyo...................... ,i",
"i, .............................2iiiiiii5........................+uiiiiiii2...................... ,i",
"i, .............................2iiiiiii5.........................6iiiiiiiyo..................... ,i",
"i, .............................................................................................. ,i",
"i, .............................................................................................. ,i",
"i, .............................................................................................. ,i",
"i, .............................................................................................. ,i",
"i, .............................................................................................. ,i",
"i, .............................................................................................. ,i",
"i, .............................................................................................. ,i",
"i, .............................................................................................. ,i",
"i, .............................................................................................. ,i",
"i, .............................................................................................. ,i",
"i, .............................................................................................. ,i",
"i, .............................................................................................. ,i",
"i, .............................................................................................. ,i",
"i, .............................................................................................. ,i",
"i, .............................................................................................. ,i",
"i, .............................................................................................. ,i",
"i, .............................................................................................. ,i",
"i,O.............................................................................................. ,i",
"i,                                                                                                ,i",
"i>,,,,,,,,,,,,,,,,,,,,,,,,,,,,,,,,,,,,,,,,,,,,,,,,,,,,,,,,,,,,,,,,,,,,,,,,,,,,,,,,,,,,,,,,,,,,,,,,>i",
"iiiiiiiiiiiiiiiiiiiiiiiiiiiiiiiiiiiiiiiiiiiiiiiiiiiiiiiiiiiiiiiiiiiiiiiiiiiiiiiiiiiiiiiiiiiiiiiiiiii"
};
