/* XPM */
static char *s[] = {
/* columns rows colors chars-per-pixel */
"100 100 80 1 ",
"  c #2E0000",
". c #310D0D",
"X c #341616",
"o c #371C1C",
"O c #3A2222",
"+ c #3D2626",
"@ c #3F2A2A",
"# c #422E2E",
"$ c #463535",
"% c #4A3B3B",
"& c #4E4040",
"* c #504242",
"= c #544747",
"- c #5E5353",
"; c #5F5555",
": c #615656",
"> c #625858",
", c #665D5D",
"< c #685F5F",
"1 c #6C6363",
"2 c #6E6666",
"3 c #686868",
"4 c #716969",
"5 c #736C6C",
"6 c #746D6D",
"7 c #777070",
"8 c #7A7373",
"9 c #7B7575",
"0 c #7C7676",
"q c #7E7878",
"w c #7C7C7C",
"e c #807979",
"r c #837E7E",
"t c #898383",
"y c #8B8585",
"u c #8C8787",
"i c #8F8A8A",
"p c #908B8B",
"a c #938F8F",
"s c #979393",
"d c #9B9797",
"f c #9F9B9B",
"g c #A19D9D",
"h c #A5A1A1",
"j c #ABA7A7",
"k c #ADAAAA",
"l c #AFAFAF",
"z c #B0ADAD",
"x c gray70",
"c c #B6B3B3",
"v c #B7B4B4",
"b c #BAB7B7",
"n c #BCBABA",
"m c #BFBDBD",
"M c #C1BFBF",
"N c #C3C1C1",
"B c #C4C2C2",
"V c #C7C5C5",
"C c #CBCACA",
"Z c #CCCACA",
"A c #CECCCC",
"S c #D0CFCF",
"D c #D3D1D1",
"F c #D4D3D3",
"G c #D5D4D4",
"H c #D8D7D7",
"J c #DAD8D8",
"K c #DCDBDB",
"L c #DFDEDE",
"P c #E3E2E2",
"I c #E7E7E7",
"U c #E9E9E9",
"Y c #EEEEEE",
"T c #F0EFEF",
"R c gray94",
"E c gray96",
"W c #F8F7F7",
"Q c #F9F9F9",
"! c #FCFBFB",
"~ c white",
/* pixels */
"~~~~~~~~~~~~~~~~~~~~~~~~~~~~~~~~~~~~~~~~~~~~~~~~~~~~~~~~~~~~~~~~~~~~~~~~~~~~~~~~~~~~~~~~~~~~~~~~~~~~",
"~lxxxxxxxxxxxxxxxxxxxxxxxxxxxxxxxxxxxxxxxxxxxxxxxxxxxxxxxxxxxxxxxxxxxxxxxxxxxxxxxxxxxxxxxxxxxxxxxxl~",
"~x333333333333333333333333333333333333333333333333333333333333333333333333333333333333333333333333x~",
"~x3~~~~~~~~~~~~~~~~~~~~~~~~~~~~~~~~~~~~~~~~~~~~~~~~~~~~~~~~~~~~~~~~~~~~~~~~~~~~~~~~~~~~~~~~~~~~~~3x~",
"~x3~~~~~~~~~~~~~~~~~~~~~~~~~~~~~~~~~~~~~~~~~~~~~~~~~~~~~~~~~~~~~~~~~~~~~~~~~~~~~~~~~~~~~~~~~~~~~~3x~",
"~x3~~~~~~~~~~~~~~~~~~~~~~~~~~~~~~~~~~~~~~~~~~~~~~~~~~~~~~~~~~~~~~~~~~~~~~~~~~~~~~~~~~~~~~~~~~~~~~3x~",
"~x3~~~~~~~~~~~~~~~~~~~~~~~~~~~~~~~~~~~~~~~~~~~~~~~~~~~~~~~~~~~~~~~~~~~~~~~~~~~~~~~~~~~~~~~~~~~~~~3x~",
"~x3~~~~~~~~~~~~~~~~~~~~~~~~~~~~~~~~~~~~~~~~~~~~~~~~~~~~~~~~~~~~~~~~~~~~~~~~~~~~~~~~~~~~~~~~~~~~~~3x~",
"~x3~~~~~~~~~~~~~~~~~~~~~~~~~~~~~~~~~~~~~~~~~~~~~~~~~~~~~~~~~~~~~~~~~~~~~~~~~~~~~~~~~~~~~~~~~~~~~~3x~",
"~x3~~~~~~~~~~~~~~~~~~~~~~~~~~~~~~~~~~~~~~~~~~~~~~~~~~~~~~~~~~~~~~~~~~~~~~~~~~~~~~~~~~~~~~~~~~~~~~3x~",
"~x3~~~~~~~~~~~~~~~~~~~~~~~~~~~~~~~~~~~~~~~~~~~~~~~~~~~~~~~~~~~~~~~~~~~~~~~~~~~~~~~~~~~~~~~~~~~~~~3x~",
"~x3~~~~~~~~~~~~~~~~~~~~~~~~~~~~~~~~~~~~~~~~~~~~~~~~~~~~~~~~~~~~~~~~~~~~~~~~~~~~~~~~~~~~~~~~~~~~~~3x~",
"~x3~~~~~~~~~~~~~~~~~~~~~~~~~~~~~~~~~~~~~~~~~~~~~~~~~~~~~~~~~~~~~~~~~~~~~~~~~~~~~~~~~~~~~~~~~~~~~~3x~",
"~x3~~~~~~~~~~~~~~~~~~~~~~~~~~~~~~~~~~~~~~~~~~~~~~~~~~~~~~~~~~~~~~~~~~~~~~~~~~~~~~~~~~~~~~~~~~~~~~3x~",
"~x3~~~~~~~~~~~~~~~~~~~~~~~~~~~~~~~~~~~~~~~~~~~~~~~~~~~~~~~~~~~~~~~~~~~~~~~~~~~~~~~~~~~~~~~~~~~~~~3x~",
"~x3~~~~~~~~~~~~~~~~~~~~~~~~~~~~~~~~~~~~~~~~~~~~~~~~~~~~~~~~~~~~~~~~~~~~~~~~~~~~~~~~~~~~~~~~~~~~~~3x~",
"~x3~~~~~~~~~~~~~~~~~~~~~~~~~~~~~~~~~~~~~~~~~~~~~~~~~~~~~~~~~~~~~~~~~~~~~~~~~~~~~~~~~~~~~~~~~~~~~~3x~",
"~x3~~~~~~~~~~~~~~~~~~~~~~~~~~~~~~~~~~~~~~~~~~~~~~~~~~~~~~~~~~~~~~~~~~~~~~~~~~~~~~~~~~~~~~~~~~~~~~3x~",
"~x3~~~~~~~~~~~~~~~~~~~~~~~~~~~~~~~~~~~~~~~~~~~~~~~~~~~~~~~~~~~~~~~~~~~~~~~~~~~~~~~~~~~~~~~~~~~~~~3x~",
"~x3~~~~~~~~~~~~~~~~~~~~~~~~~~~~~~~~~~~~~~~~~QLndq-%o%:5yjBJE~~~~~~~~~~~~~~~~~~~~~~~~~~~~~~~~~~~~~3x~",
"~x3~~~~~~~~~~~~~~~~~~~~~~~~~~~~~~~~~~~~~~~Lf$               6kGQ~~~~~~~~~~~~~~~~~~~~~~~~~~~~~~~~~3x~",
"~x3~~~~~~~~~~~~~~~~~~~~~~~~~~~~~~~~~~~~~K0                     @sAE~~~~~~~~~~~~~~~~~~~~~~~~~~~~~~3x~",
"~x3~~~~~~~~~~~~~~~~~~~~~~~~~~~~~~~~~~~Wg                          b~~~~~~~~~~~~~~~~~~~~~~~~~~~~~~3x~",
"~x3~~~~~~~~~~~~~~~~~~~~~~~~~~~~~~~~~~Y4                           b~~~~~~~~~~~~~~~~~~~~~~~~~~~~~~3x~",
"~x3~~~~~~~~~~~~~~~~~~~~~~~~~~~~~~~~~Y-                            b~~~~~~~~~~~~~~~~~~~~~~~~~~~~~~3x~",
"~x3~~~~~~~~~~~~~~~~~~~~~~~~~~~~~~~~E<         %fMLIYRULAlq.       b~~~~~~~~~~~~~~~~~~~~~~~~~~~~~~3x~",
"~x3~~~~~~~~~~~~~~~~~~~~~~~~~~~~~~~~a        <CQ~~~~~~~~~~~EZr     b~~~~~~~~~~~~~~~~~~~~~~~~~~~~~~3x~",
"~x3~~~~~~~~~~~~~~~~~~~~~~~~~~~~~~~D        kQ~~~~~~~~~~~~~~~~If.  b~~~~~~~~~~~~~~~~~~~~~~~~~~~~~~3x~",
"~x3~~~~~~~~~~~~~~~~~~~~~~~~~~~~~~~2       n~~~~~~~~~~~~~~~~~~~~Ua b~~~~~~~~~~~~~~~~~~~~~~~~~~~~~~3x~",
"~x3~~~~~~~~~~~~~~~~~~~~~~~~~~~~~~H       h~~~~~~~~~~~~~~~~~~~~~~~GV~~~~~~~~~~~~~~~~~~~~~~~~~~~~~~3x~",
"~x3~~~~~~~~~~~~~~~~~~~~~~~~~~~~~~f      *E~~~~~~~~~~~~~~~~~~~~~~~~~~~~~~~~~~~~~~~~~~~~~~~~~~~~~~~3x~",
"~x3~~~~~~~~~~~~~~~~~~~~~~~~~~~~~~&      k~~~~~~~~~~~~~~~~~~~~~~~~~~~~~~~~~~~~~~~~~~~~~~~~~~~~~~~~3x~",
"~x3~~~~~~~~~~~~~~~~~~~~~~~~~~~~~U       L~~~~~~~~~~~~~~~~~~~~~~~~~~~~~~~~~~~~~~~~~~~~~~~~~~~~~~~~3x~",
"~x3~~~~~~~~~~~~~~~~~~~~~~~~~~~~~F       R~~~~~~~~~~~~~~~~~~~~~~~~~~~~~~~~~~~~~~~~~~~~~~~~~~~~~~~~3x~",
"~x3~~~~~~~~~~~~~~~~~~~~~~~~~~~~~N       ~~~~~~~~~~~~~~~~~~~~~~~~~~~~~~~~~~~~~~~~~~~~~~~~~~~~~~~~~3x~",
"~x3~~~~~~~~~~~~~~~~~~~~~~~~~~~~~b      X~~~~~~~~~~~~~~~~~~~~~~~~~~~~~~~~~~~~~~~~~~~~~~~~~~~~~~~~~3x~",
"~x3~~~~~~~~~~~~~~~~~~~~~~~~~~~~~c       E~~~~~~~~~~~~~~~~~~~~~~~~~~~~~~~~~~~~~~~~~~~~~~~~~~~~~~~~3x~",
"~x3~~~~~~~~~~~~~~~~~~~~~~~~~~~~~m       L~~~~~~~~~~~~~~~~~~~~~~~~~~~~~~~~~~~~~~~~~~~~~~~~~~~~~~~~3x~",
"~x3~~~~~~~~~~~~~~~~~~~~~~~~~~~~~C       z~~~~~~~~~~~~~~~~~~~~~~~~~~~~~~~~~~~~~~~~~~~~~~~~~~~~~~~~3x~",
"~x3~~~~~~~~~~~~~~~~~~~~~~~~~~~~~J       @Y~~~~~~~~~~~~~~~~~~~~~~~~~~~~~~~~~~~~~~~~~~~~~~~~~~~~~~~3x~",
"~x3~~~~~~~~~~~~~~~~~~~~~~~~~~~~~E.       9Q~~~~~~~~~~~~~~~~~~~~~~~~~~~~~~~~~~~~~~~~~~~~~~~~~~~~~~3x~",
"~x3~~~~~~~~~~~~~~~~~~~~~~~~~~~~~~8        4U~~~~~~~~~~~~~~~~~~~~~~~~~~~~~~~~~~~~~~~~~~~~~~~~~~~~~3x~",
"~x3~~~~~~~~~~~~~~~~~~~~~~~~~~~~~~m         XhY~~~~~~~~~~~~~~~~~~~~~~~~~~~~~~~~~~~~~~~~~~~~~~~~~~~3x~",
"~x3~~~~~~~~~~~~~~~~~~~~~~~~~~~~~~W&           tCR~~~~~~~~~~~~~~~~~~~~~~~~~~~~~~~~~~~~~~~~~~~~~~~~3x~",
"~x3~~~~~~~~~~~~~~~~~~~~~~~~~~~~~~~m              4kDT~~~~~~~~~~~~~~~~~~~~~~~~~~~~~~~~~~~~~~~~~~~~3x~",
"~x3~~~~~~~~~~~~~~~~~~~~~~~~~~~~~~~~a                 ;fCT~~~~~~~~~~~~~~~~~~~~~~~~~~~~~~~~~~~~~~~~3x~",
"~x3~~~~~~~~~~~~~~~~~~~~~~~~~~~~~~~~E6                    0BE~~~~~~~~~~~~~~~~~~~~~~~~~~~~~~~~~~~~~3x~",
"~x3~~~~~~~~~~~~~~~~~~~~~~~~~~~~~~~~~Qa                     +jY~~~~~~~~~~~~~~~~~~~~~~~~~~~~~~~~~~~3x~",
"~x3~~~~~~~~~~~~~~~~~~~~~~~~~~~~~~~~~~~b@                     OxQ~~~~~~~~~~~~~~~~~~~~~~~~~~~~~~~~~3x~",
"~x3~~~~~~~~~~~~~~~~~~~~~~~~~~~~~~~~~~~~Tf                      2U~~~~~~~~~~~~~~~~~~~~~~~~~~~~~~~~3x~",
"~x3~~~~~~~~~~~~~~~~~~~~~~~~~~~~~~~~~~~~~~Yb:                    %L~~~~~~~~~~~~~~~~~~~~~~~~~~~~~~~3x~",
"~x3~~~~~~~~~~~~~~~~~~~~~~~~~~~~~~~~~~~~~~~~~Lc8                  #P~~~~~~~~~~~~~~~~~~~~~~~~~~~~~~3x~",
"~x3~~~~~~~~~~~~~~~~~~~~~~~~~~~~~~~~~~~~~~~~~~~~RDk8.              ,E~~~~~~~~~~~~~~~~~~~~~~~~~~~~~3x~",
"~x3~~~~~~~~~~~~~~~~~~~~~~~~~~~~~~~~~~~~~~~~~~~~~~~~QJc7            f~~~~~~~~~~~~~~~~~~~~~~~~~~~~~3x~",
"~x3~~~~~~~~~~~~~~~~~~~~~~~~~~~~~~~~~~~~~~~~~~~~~~~~~~~~Yv*          U~~~~~~~~~~~~~~~~~~~~~~~~~~~~3x~",
"~x3~~~~~~~~~~~~~~~~~~~~~~~~~~~~~~~~~~~~~~~~~~~~~~~~~~~~~~Ez         h~~~~~~~~~~~~~~~~~~~~~~~~~~~~3x~",
"~x3~~~~~~~~~~~~~~~~~~~~~~~~~~~~~~~~~~~~~~~~~~~~~~~~~~~~~~~~F#       @Q~~~~~~~~~~~~~~~~~~~~~~~~~~~3x~",
"~x3~~~~~~~~~~~~~~~~~~~~~~~~~~~~~~~~~~~~~~~~~~~~~~~~~~~~~~~~~Z        P~~~~~~~~~~~~~~~~~~~~~~~~~~~3x~",
"~x3~~~~~~~~~~~~~~~~~~~~~~~~~~~~~~~~~~~~~~~~~~~~~~~~~~~~~~~~~~p       M~~~~~~~~~~~~~~~~~~~~~~~~~~~3x~",
"~x3~~~~~~~~~~~~~~~~~~~~~~~~~~~~~~~~~~~~~~~~~~~~~~~~~~~~~~~~~~L       f~~~~~~~~~~~~~~~~~~~~~~~~~~~3x~",
"~x3~~~~~~~~~~~~~~~~~~~~~~~~~~~~~~~~~~~~~~~~~~~~~~~~~~~~~~~~~~~#      i~~~~~~~~~~~~~~~~~~~~~~~~~~~3x~",
"~x3~~~~~~~~~~~~~~~~~~~~~~~~~~~~~~~~~~~~~~~~~~~~~~~~~~~~~~~~~~~r      0~~~~~~~~~~~~~~~~~~~~~~~~~~~3x~",
"~x3~~~~~~~~~~~~~~~~~~~~~~~~~~~~~~~~~~~~~~~~~~~~~~~~~~~~~~~~~~~s      1~~~~~~~~~~~~~~~~~~~~~~~~~~~3x~",
"~x3~~~~~~~~~~~~~~~~~~~~~~~~~~~~~~~~~~~~~~~~~~~~~~~~~~~~~~~~~~~g      4~~~~~~~~~~~~~~~~~~~~~~~~~~~3x~",
"~x3~~~~~~~~~~~~~~~~~~~~~~~~~~~~~~~~~~~~~~~~~~~~~~~~~~~~~~~~~~~p      q~~~~~~~~~~~~~~~~~~~~~~~~~~~3x~",
"~x3~~~~~~~~~~~~~~~~~~~~~~~~~~~~~~~~~~~~~~~~~~~~~~~~~~~~~~~~~~~8      s~~~~~~~~~~~~~~~~~~~~~~~~~~~3x~",
"~x3~~~~~~~~~~~~~~~~~~~~~~~~~~~~~~~~~~~~~~~~~~~~~~~~~~~~~~~~~~Eo      z~~~~~~~~~~~~~~~~~~~~~~~~~~~3x~",
"~x3~~~~~~~~~~~~~~~~~~~~~~~~~~~~~~~~~~~~~~~~~~~~~~~~~~~~~~~~~~D       S~~~~~~~~~~~~~~~~~~~~~~~~~~~3x~",
"~x3~~~~~~~~~~~~~~~~~~~~~~~~~~~~~~AQ~~~~~~~~~~~~~~~~~~~~~~~~~~q       Y~~~~~~~~~~~~~~~~~~~~~~~~~~~3x~",
"~x3~~~~~~~~~~~~~~~~~~~~~~~~~~~~~~82J~~~~~~~~~~~~~~~~~~~~~~~~C       e~~~~~~~~~~~~~~~~~~~~~~~~~~~~3x~",
"~x3~~~~~~~~~~~~~~~~~~~~~~~~~~~~~~8  yP~~~~~~~~~~~~~~~~~~~~~J+       C~~~~~~~~~~~~~~~~~~~~~~~~~~~~3x~",
"~x3~~~~~~~~~~~~~~~~~~~~~~~~~~~~~~8    yJ~~~~~~~~~~~~~~~~~~B@       >!~~~~~~~~~~~~~~~~~~~~~~~~~~~~3x~",
"~x3~~~~~~~~~~~~~~~~~~~~~~~~~~~~~~8      >vI~~~~~~~~~~~~!Fq         F~~~~~~~~~~~~~~~~~~~~~~~~~~~~~3x~",
"~x3~~~~~~~~~~~~~~~~~~~~~~~~~~~~~~8         -dmGIYRYIKNf=          f~~~~~~~~~~~~~~~~~~~~~~~~~~~~~~3x~",
"~x3~~~~~~~~~~~~~~~~~~~~~~~~~~~~~~8                               rQ~~~~~~~~~~~~~~~~~~~~~~~~~~~~~~3x~",
"~x3~~~~~~~~~~~~~~~~~~~~~~~~~~~~~~8                              uQ~~~~~~~~~~~~~~~~~~~~~~~~~~~~~~~3x~",
"~x3~~~~~~~~~~~~~~~~~~~~~~~~~~~~~~d                            Ob~~~~~~~~~~~~~~~~~~~~~~~~~~~~~~~~~3x~",
"~x3~~~~~~~~~~~~~~~~~~~~~~~~~~~~~~~Ym8                       .dU~~~~~~~~~~~~~~~~~~~~~~~~~~~~~~~~~~3x~",
"~x3~~~~~~~~~~~~~~~~~~~~~~~~~~~~~~~~~~YCg;                 1vY~~~~~~~~~~~~~~~~~~~~~~~~~~~~~~~~~~~~3x~",
"~x3~~~~~~~~~~~~~~~~~~~~~~~~~~~~~~~~~~~~~~YJBjy8<=OO%:0dcSY~~~~~~~~~~~~~~~~~~~~~~~~~~~~~~~~~~~~~~~3x~",
"~x3~~~~~~~~~~~~~~~~~~~~~~~~~~~~~~~~~~~~~~~~~~~~~~~~~~~~~~~~~~~~~~~~~~~~~~~~~~~~~~~~~~~~~~~~~~~~~~3x~",
"~x3~~~~~~~~~~~~~~~~~~~~~~~~~~~~~~~~~~~~~~~~~~~~~~~~~~~~~~~~~~~~~~~~~~~~~~~~~~~~~~~~~~~~~~~~~~~~~~3x~",
"~x3~~~~~~~~~~~~~~~~~~~~~~~~~~~~~~~~~~~~~~~~~~~~~~~~~~~~~~~~~~~~~~~~~~~~~~~~~~~~~~~~~~~~~~~~~~~~~~3x~",
"~x3~~~~~~~~~~~~~~~~~~~~~~~~~~~~~~~~~~~~~~~~~~~~~~~~~~~~~~~~~~~~~~~~~~~~~~~~~~~~~~~~~~~~~~~~~~~~~~3x~",
"~x3~~~~~~~~~~~~~~~~~~~~~~~~~~~~~~~~~~~~~~~~~~~~~~~~~~~~~~~~~~~~~~~~~~~~~~~~~~~~~~~~~~~~~~~~~~~~~~3x~",
"~x3~~~~~~~~~~~~~~~~~~~~~~~~~~~~~~~~~~~~~~~~~~~~~~~~~~~~~~~~~~~~~~~~~~~~~~~~~~~~~~~~~~~~~~~~~~~~~~3x~",
"~x3~~~~~~~~~~~~~~~~~~~~~~~~~~~~~~~~~~~~~~~~~~~~~~~~~~~~~~~~~~~~~~~~~~~~~~~~~~~~~~~~~~~~~~~~~~~~~~3x~",
"~x3~~~~~~~~~~~~~~~~~~~~~~~~~~~~~~~~~~~~~~~~~~~~~~~~~~~~~~~~~~~~~~~~~~~~~~~~~~~~~~~~~~~~~~~~~~~~~~3x~",
"~x3~~~~~~~~~~~~~~~~~~~~~~~~~~~~~~~~~~~~~~~~~~~~~~~~~~~~~~~~~~~~~~~~~~~~~~~~~~~~~~~~~~~~~~~~~~~~~~3x~",
"~x3~~~~~~~~~~~~~~~~~~~~~~~~~~~~~~~~~~~~~~~~~~~~~~~~~~~~~~~~~~~~~~~~~~~~~~~~~~~~~~~~~~~~~~~~~~~~~~3x~",
"~x3~~~~~~~~~~~~~~~~~~~~~~~~~~~~~~~~~~~~~~~~~~~~~~~~~~~~~~~~~~~~~~~~~~~~~~~~~~~~~~~~~~~~~~~~~~~~~~3x~",
"~x3~~~~~~~~~~~~~~~~~~~~~~~~~~~~~~~~~~~~~~~~~~~~~~~~~~~~~~~~~~~~~~~~~~~~~~~~~~~~~~~~~~~~~~~~~~~~~~3x~",
"~x3~~~~~~~~~~~~~~~~~~~~~~~~~~~~~~~~~~~~~~~~~~~~~~~~~~~~~~~~~~~~~~~~~~~~~~~~~~~~~~~~~~~~~~~~~~~~~~3x~",
"~x3~~~~~~~~~~~~~~~~~~~~~~~~~~~~~~~~~~~~~~~~~~~~~~~~~~~~~~~~~~~~~~~~~~~~~~~~~~~~~~~~~~~~~~~~~~~~~~3x~",
"~x3~~~~~~~~~~~~~~~~~~~~~~~~~~~~~~~~~~~~~~~~~~~~~~~~~~~~~~~~~~~~~~~~~~~~~~~~~~~~~~~~~~~~~~~~~~~~~~3x~",
"~x3~~~~~~~~~~~~~~~~~~~~~~~~~~~~~~~~~~~~~~~~~~~~~~~~~~~~~~~~~~~~~~~~~~~~~~~~~~~~~~~~~~~~~~~~~~~~~~3x~",
"~xw~~~~~~~~~~~~~~~~~~~~~~~~~~~~~~~~~~~~~~~~~~~~~~~~~~~~~~~~~~~~~~~~~~~~~~~~~~~~~~~~~~~~~~~~~~~~~~3x~",
"~x333333333333333333333333333333333333333333333333333333333333333333333333333333333333333333333333x~",
"~lxxxxxxxxxxxxxxxxxxxxxxxxxxxxxxxxxxxxxxxxxxxxxxxxxxxxxxxxxxxxxxxxxxxxxxxxxxxxxxxxxxxxxxxxxxxxxxxxl~",
"~~~~~~~~~~~~~~~~~~~~~~~~~~~~~~~~~~~~~~~~~~~~~~~~~~~~~~~~~~~~~~~~~~~~~~~~~~~~~~~~~~~~~~~~~~~~~~~~~~~~"
};
