/* XPM */
static char *s1[] = {
/* columns rows colors chars-per-pixel */
"100 100 86 1 ",
"  c #686868",
". c #7C7C7C",
"X c #348032",
"o c #378135",
"O c #3A8238",
"+ c #3C823B",
"@ c #3F833D",
"# c #448542",
"$ c #468644",
"% c #488747",
"& c #4A8749",
"* c #4E894D",
"= c #538B52",
"- c #578D56",
"; c #588D57",
": c #5A8E59",
"> c #5C8F5B",
", c #5F905E",
"< c #60915F",
"1 c #629261",
"2 c #659364",
"3 c #679567",
"4 c #699568",
"5 c #6D976C",
"6 c #6F996E",
"7 c #729A71",
"8 c #749B73",
"9 c #759C74",
"0 c #7A9F79",
"q c #7CA07B",
"w c #7EA17D",
"e c #80A280",
"r c #84A584",
"t c #88A788",
"y c #8CAA8B",
"u c #8DAA8C",
"i c #8FAC8F",
"p c #93AE93",
"a c #94AF93",
"s c #97B197",
"d c #99B299",
"f c #9BB49B",
"g c #9CB49C",
"h c #AFAFAF",
"j c #A3B9A3",
"k c #A6BBA6",
"l c #A7BCA7",
"z c #ABBEAA",
"x c #ACBFAC",
"c c gray70",
"v c #AFC1AF",
"b c #B0C2AF",
"n c #B0C2B0",
"m c #B7C7B7",
"M c #B8C8B8",
"N c #BDCBBD",
"B c #BFCDBE",
"V c #C0CEC0",
"C c #C2D0C2",
"Z c #C4D0C3",
"A c #C6D2C6",
"S c #CBD6CB",
"D c #CCD7CC",
"F c #CFD9CF",
"G c #D2DBD2",
"H c #D4DDD3",
"J c #D6DFD6",
"K c #D7E0D7",
"L c #D9E1D9",
"P c #DCE3DB",
"I c #DCE3DC",
"U c #DFE5DF",
"Y c #E0E6E0",
"T c #E3E9E3",
"R c #E4E9E4",
"E c #E7ECE7",
"W c #E8ECE7",
"Q c #E9EEE9",
"! c #EEF1EE",
"~ c #F0F3F0",
"^ c #F2F5F2",
"/ c #F5F7F5",
"( c #F6F8F6",
") c #FAFBFA",
"_ c #FBFCFB",
"` c white",
/* pixels */
"````````````````````````````````````````````````````````````````````````````````````````````````````",
"`hcccccccccccccccccccccccccccccccccccccccccccccccccccccccccccccccccccccccccccccccccccccccccccccccch`",
"`c                                                                                                c`",
"`c XXXXXXXXXXXXXXXXXXXXXXXXXXXXXXXXXXXXXXXXXXXXXXXXXXXXXXXXXXXXXXXXXXXXXXXXXXXXXXXXXXXXXXXXXXXXXX c`",
"`c XXXXXXXXXXXXXXXXXXXXXXXXXXXXXXXXXXXXXXXXXXXXXXXXXXXXXXXXXXXXXXXXXXXXXXXXXXXXXXXXXXXXXXXXXXXXXX c`",
"`c XXXXXXXXXXXXXXXXXXXXXXXXXXXXXXXXXXXXXXXXXXXXXXXXXXXXXXXXXXXXXXXXXXXXXXXXXXXXXXXXXXXXXXXXXXXXXX c`",
"`c XXXXXXXXXXXXXXXXXXXXXXXXXXXXXXXXXXXXXXXXXXXXXXXXXXXXXXXXXXXXXXXXXXXXXXXXXXXXXXXXXXXXXXXXXXXXXX c`",
"`c XXXXXXXXXXXXXXXXXXXXXXXXXXXXXXXXXXXXXXXXXXXXXXXXXXXXXXXXXXXXXXXXXXXXXXXXXXXXXXXXXXXXXXXXXXXXXX c`",
"`c XXXXXXXXXXXXXXXXXXXXXXXXXXXXXXXXXXXXXXXXXXXXXXXXXXXXXXXXXXXXXXXXXXXXXXXXXXXXXXXXXXXXXXXXXXXXXX c`",
"`c XXXXXXXXXXXXXXXXXXXXXXXXXXXXXXXXXXXXXXXXXXXXXXXXXXXXXXXXXXXXXXXXXXXXXXXXXXXXXXXXXXXXXXXXXXXXXX c`",
"`c XXXXXXXXXXXXXXXXXXXXXXXXXXXXXXXXXXXXXXXXXXXXXXXXXXXXXXXXXXXXXXXXXXXXXXXXXXXXXXXXXXXXXXXXXXXXXX c`",
"`c XXXXXXXXXXXXXXXXXXXXXXXXXXXXXXXXXXXXXXXXXXXXXXXXXXXXXXXXXXXXXXXXXXXXXXXXXXXXXXXXXXXXXXXXXXXXXX c`",
"`c XXXXXXXXXXXXXXXXXXXXXXXXXXXXXXXXXXXXXXXXXXXXXXXXXXXXXXXXXXXXXXXXXXXXXXXXXXXXXXXXXXXXXXXXXXXXXX c`",
"`c XXXXXXXXXXXXXXXXXXXXXXXXXXXXXXXXXXXXXXXXXXXXXXXXXXXXXXXXXXXXXXXXXXXXXXXXXXXXXXXXXXXXXXXXXXXXXX c`",
"`c XXXXXXXXXXXXXXXXXXXXXXXXXXXXXXXXXXXXXXXXXXXXXXXXXXXXXXXXXXXXXXXXXXXXXXXXXXXXXXXXXXXXXXXXXXXXXX c`",
"`c XXXXXXXXXXXXXXXXXXXXXXXXXXXXXXXXXXXXXXXXXXXXXXXXXXXXXXXXXXXXXXXXXXXXXXXXXXXXXXXXXXXXXXXXXXXXXX c`",
"`c XXXXXXXXXXXXXXXXXXXXXXXXXXXXXXXXXXXXXXXXXXXXXXXXXXXXXXXXXXXXXXXXXXXXXXXXXXXXXXXXXXXXXXXXXXXXXX c`",
"`c XXXXXXXXXXXXXXXXXXXXXXXXXXXXXXXXXXXXXXXXXXXXXXXXXXXXXXXXXXXXXXXXXXXXXXXXXXXXXXXXXXXXXXXXXXXXXX c`",
"`c XXXXXXXXXXXXXXXXXXXXXXXXXXXXXXXXXXXXXXXXXXXXXXXXXXXXXXXXXXXXXXXXXXXXXXXXXXXXXXXXXXXXXXXXXXXXXX c`",
"`c XXXXXXXXXXXXXXXXXXXXXXXXXXXXXXXXXXXXXXXXX&sBLQ/)`)/!RFMg1XXXXXXXXXXXXXXXXXXXXXXXXXXXXXXXXXXXXX c`",
"`c XXXXXXXXXXXXXXXXXXXXXXXXXXXXXXXXXXXXXXosL_```````````````!Fj=XXXXXXXXXXXXXXXXXXXXXXXXXXXXXXXXX c`",
"`c XXXXXXXXXXXXXXXXXXXXXXXXXXXXXXXXXXXXXdQ``````````````````````Ux>XXXXXXXXXXXXXXXXXXXXXXXXXXXXXX c`",
"`c XXXXXXXXXXXXXXXXXXXXXXXXXXXXXXXXXXX;J``````````````````````````ZXXXXXXXXXXXXXXXXXXXXXXXXXXXXXX c`",
"`c XXXXXXXXXXXXXXXXXXXXXXXXXXXXXXXXXX9!```````````````````````````ZXXXXXXXXXXXXXXXXXXXXXXXXXXXXXX c`",
"`c XXXXXXXXXXXXXXXXXXXXXXXXXXXXXXXXX0/````````````````````````````ZXXXXXXXXXXXXXXXXXXXXXXXXXXXXXX c`",
"`c XXXXXXXXXXXXXXXXXXXXXXXXXXXXXXXX,^`````````)LMsr96qpvDQ````````ZXXXXXXXXXXXXXXXXXXXXXXXXXXXXXX c`",
"`c XXXXXXXXXXXXXXXXXXXXXXXXXXXXXXXXU````````^b=XXXXXXXXXXX2vE`````ZXXXXXXXXXXXXXXXXXXXXXXXXXXXXXX c`",
"`c XXXXXXXXXXXXXXXXXXXXXXXXXXXXXXXk````````F=XXXXXXXXXXXXXXXXrK```ZXXXXXXXXXXXXXXXXXXXXXXXXXXXXXX c`",
"`c XXXXXXXXXXXXXXXXXXXXXXXXXXXXXX+~```````VXXXXXXXXXXXXXXXXXXXXeU`ZXXXXXXXXXXXXXXXXXXXXXXXXXXXXXX c`",
"`c XXXXXXXXXXXXXXXXXXXXXXXXXXXXXXg```````HXXXXXXXXXXXXXXXXXXXXXXXjmXXXXXXXXXXXXXXXXXXXXXXXXXXXXXX c`",
"`c XXXXXXXXXXXXXXXXXXXXXXXXXXXXXXL``````)1XXXXXXXXXXXXXXXXXXXXXXXXXXXXXXXXXXXXXXXXXXXXXXXXXXXXXXX c`",
"`c XXXXXXXXXXXXXXXXXXXXXXXXXXXXX+)``````FXXXXXXXXXXXXXXXXXXXXXXXXXXXXXXXXXXXXXXXXXXXXXXXXXXXXXXXX c`",
"`c XXXXXXXXXXXXXXXXXXXXXXXXXXXXXe```````sXXXXXXXXXXXXXXXXXXXXXXXXXXXXXXXXXXXXXXXXXXXXXXXXXXXXXXXX c`",
"`c XXXXXXXXXXXXXXXXXXXXXXXXXXXXXk```````4XXXXXXXXXXXXXXXXXXXXXXXXXXXXXXXXXXXXXXXXXXXXXXXXXXXXXXXX c`",
"`c XXXXXXXXXXXXXXXXXXXXXXXXXXXXXM```````#XXXXXXXXXXXXXXXXXXXXXXXXXXXXXXXXXXXXXXXXXXXXXXXXXXXXXXXX c`",
"`c XXXXXXXXXXXXXXXXXXXXXXXXXXXXXC```````OXXXXXXXXXXXXXXXXXXXXXXXXXXXXXXXXXXXXXXXXXXXXXXXXXXXXXXXX c`",
"`c XXXXXXXXXXXXXXXXXXXXXXXXXXXXXA```````>XXXXXXXXXXXXXXXXXXXXXXXXXXXXXXXXXXXXXXXXXXXXXXXXXXXXXXXX c`",
"`c XXXXXXXXXXXXXXXXXXXXXXXXXXXXXN```````pXXXXXXXXXXXXXXXXXXXXXXXXXXXXXXXXXXXXXXXXXXXXXXXXXXXXXXXX c`",
"`c XXXXXXXXXXXXXXXXXXXXXXXXXXXXXb```````SXXXXXXXXXXXXXXXXXXXXXXXXXXXXXXXXXXXXXXXXXXXXXXXXXXXXXXXX c`",
"`c XXXXXXXXXXXXXXXXXXXXXXXXXXXXXg````````7XXXXXXXXXXXXXXXXXXXXXXXXXXXXXXXXXXXXXXXXXXXXXXXXXXXXXXX c`",
"`c XXXXXXXXXXXXXXXXXXXXXXXXXXXXX<````````Q-XXXXXXXXXXXXXXXXXXXXXXXXXXXXXXXXXXXXXXXXXXXXXXXXXXXXXX c`",
"`c XXXXXXXXXXXXXXXXXXXXXXXXXXXXXXQ````````!eXXXXXXXXXXXXXXXXXXXXXXXXXXXXXXXXXXXXXXXXXXXXXXXXXXXXX c`",
"`c XXXXXXXXXXXXXXXXXXXXXXXXXXXXXXB``````````G9XXXXXXXXXXXXXXXXXXXXXXXXXXXXXXXXXXXXXXXXXXXXXXXXXXX c`",
"`c XXXXXXXXXXXXXXXXXXXXXXXXXXXXXX;)```````````Rb6XXXXXXXXXXXXXXXXXXXXXXXXXXXXXXXXXXXXXXXXXXXXXXXX c`",
"`c XXXXXXXXXXXXXXXXXXXXXXXXXXXXXXXB``````````````!Fl7XXXXXXXXXXXXXXXXXXXXXXXXXXXXXXXXXXXXXXXXXXXX c`",
"`c XXXXXXXXXXXXXXXXXXXXXXXXXXXXXXX+Y`````````````````/Kb7XXXXXXXXXXXXXXXXXXXXXXXXXXXXXXXXXXXXXXXX c`",
"`c XXXXXXXXXXXXXXXXXXXXXXXXXXXXXXXX>!````````````````````QM1XXXXXXXXXXXXXXXXXXXXXXXXXXXXXXXXXXXXX c`",
"`c XXXXXXXXXXXXXXXXXXXXXXXXXXXXXXXXX-Y``````````````````````G9XXXXXXXXXXXXXXXXXXXXXXXXXXXXXXXXXXX c`",
"`c XXXXXXXXXXXXXXXXXXXXXXXXXXXXXXXXXX@Z```````````````````````S*XXXXXXXXXXXXXXXXXXXXXXXXXXXXXXXXX c`",
"`c XXXXXXXXXXXXXXXXXXXXXXXXXXXXXXXXXXXX7L``````````````````````~eXXXXXXXXXXXXXXXXXXXXXXXXXXXXXXXX c`",
"`c XXXXXXXXXXXXXXXXXXXXXXXXXXXXXXXXXXXXXX9Z/````````````````````_sXXXXXXXXXXXXXXXXXXXXXXXXXXXXXXX c`",
"`c XXXXXXXXXXXXXXXXXXXXXXXXXXXXXXXXXXXXXXXX@aA!```````````````````yXXXXXXXXXXXXXXXXXXXXXXXXXXXXXX c`",
"`c XXXXXXXXXXXXXXXXXXXXXXXXXXXXXXXXXXXXXXXXXXXX3kFQ```````````````^>XXXXXXXXXXXXXXXXXXXXXXXXXXXXX c`",
"`c XXXXXXXXXXXXXXXXXXXXXXXXXXXXXXXXXXXXXXXXXXXXXXXX-dA!````````````LXXXXXXXXXXXXXXXXXXXXXXXXXXXXX c`",
"`c XXXXXXXXXXXXXXXXXXXXXXXXXXXXXXXXXXXXXXXXXXXXXXXXXXXX0A)``````````wXXXXXXXXXXXXXXXXXXXXXXXXXXXX c`",
"`c XXXXXXXXXXXXXXXXXXXXXXXXXXXXXXXXXXXXXXXXXXXXXXXXXXXXXX,S`````````GXXXXXXXXXXXXXXXXXXXXXXXXXXXX c`",
"`c XXXXXXXXXXXXXXXXXXXXXXXXXXXXXXXXXXXXXXXXXXXXXXXXXXXXXXXXk`````````&XXXXXXXXXXXXXXXXXXXXXXXXXXX c`",
"`c XXXXXXXXXXXXXXXXXXXXXXXXXXXXXXXXXXXXXXXXXXXXXXXXXXXXXXXXXv````````iXXXXXXXXXXXXXXXXXXXXXXXXXXX c`",
"`c XXXXXXXXXXXXXXXXXXXXXXXXXXXXXXXXXXXXXXXXXXXXXXXXXXXXXXXXXXY```````NXXXXXXXXXXXXXXXXXXXXXXXXXXX c`",
"`c XXXXXXXXXXXXXXXXXXXXXXXXXXXXXXXXXXXXXXXXXXXXXXXXXXXXXXXXXXs```````KXXXXXXXXXXXXXXXXXXXXXXXXXXX c`",
"`c XXXXXXXXXXXXXXXXXXXXXXXXXXXXXXXXXXXXXXXXXXXXXXXXXXXXXXXXXX$```````YXXXXXXXXXXXXXXXXXXXXXXXXXXX c`",
"`c XXXXXXXXXXXXXXXXXXXXXXXXXXXXXXXXXXXXXXXXXXXXXXXXXXXXXXXXXXXE``````QXXXXXXXXXXXXXXXXXXXXXXXXXXX c`",
"`c XXXXXXXXXXXXXXXXXXXXXXXXXXXXXXXXXXXXXXXXXXXXXXXXXXXXXXXXXXXU``````^XXXXXXXXXXXXXXXXXXXXXXXXXXX c`",
"`c XXXXXXXXXXXXXXXXXXXXXXXXXXXXXXXXXXXXXXXXXXXXXXXXXXXXXXXXXXXJ``````!XXXXXXXXXXXXXXXXXXXXXXXXXXX c`",
"`c XXXXXXXXXXXXXXXXXXXXXXXXXXXXXXXXXXXXXXXXXXXXXXXXXXXXXXXXXXXY``````QXXXXXXXXXXXXXXXXXXXXXXXXXXX c`",
"`c XXXXXXXXXXXXXXXXXXXXXXXXXXXXXXXXXXXXXXXXXXXXXXXXXXXXXXXXXXX!``````UXXXXXXXXXXXXXXXXXXXXXXXXXXX c`",
"`c XXXXXXXXXXXXXXXXXXXXXXXXXXXXXXXXXXXXXXXXXXXXXXXXXXXXXXXXXX:```````SXXXXXXXXXXXXXXXXXXXXXXXXXXX c`",
"`c XXXXXXXXXXXXXXXXXXXXXXXXXXXXXXXXXXXXXXXXXXXXXXXXXXXXXXXXXXk```````zXXXXXXXXXXXXXXXXXXXXXXXXXXX c`",
"`c XXXXXXXXXXXXXXXXXXXXXXXXXXXXXXz&XXXXXXXXXXXXXXXXXXXXXXXXXOQ```````7XXXXXXXXXXXXXXXXXXXXXXXXXXX c`",
"`c XXXXXXXXXXXXXXXXXXXXXXXXXXXXXX!~fXXXXXXXXXXXXXXXXXXXXXXXXn```````QXXXXXXXXXXXXXXXXXXXXXXXXXXXX c`",
"`c XXXXXXXXXXXXXXXXXXXXXXXXXXXXXX!``RuXXXXXXXXXXXXXXXXXXXXXf````````nXXXXXXXXXXXXXXXXXXXXXXXXXXXX c`",
"`c XXXXXXXXXXXXXXXXXXXXXXXXXXXXXX!````Rg+XXXXXXXXXXXXXXXX+m````````/%XXXXXXXXXXXXXXXXXXXXXXXXXXXX c`",
"`c XXXXXXXXXXXXXXXXXXXXXXXXXXXXXX!``````/AtOXXXXXXXXXXX%kQ`````````kXXXXXXXXXXXXXXXXXXXXXXXXXXXXX c`",
"`c XXXXXXXXXXXXXXXXXXXXXXXXXXXXXX!`````````(LNjr959rdML)``````````KXXXXXXXXXXXXXXXXXXXXXXXXXXXXXX c`",
"`c XXXXXXXXXXXXXXXXXXXXXXXXXXXXXX!```````````````````````````````W*XXXXXXXXXXXXXXXXXXXXXXXXXXXXXX c`",
"`c XXXXXXXXXXXXXXXXXXXXXXXXXXXXXX!``````````````````````````````T-XXXXXXXXXXXXXXXXXXXXXXXXXXXXXXX c`",
"`c XXXXXXXXXXXXXXXXXXXXXXXXXXXXXXL`````````````````````````````Z@XXXXXXXXXXXXXXXXXXXXXXXXXXXXXXXX c`",
"`c XXXXXXXXXXXXXXXXXXXXXXXXXXXXXXX9B!````````````````````````PqXXXXXXXXXXXXXXXXXXXXXXXXXXXXXXXXXX c`",
"`c XXXXXXXXXXXXXXXXXXXXXXXXXXXXXXXXXX9bJ/`````````````````^A0XXXXXXXXXXXXXXXXXXXXXXXXXXXXXXXXXXXX c`",
"`c XXXXXXXXXXXXXXXXXXXXXXXXXXXXXXXXXXXXXX8gMGT!^)``)/QIAz7XXXXXXXXXXXXXXXXXXXXXXXXXXXXXXXXXXXXXXX c`",
"`c XXXXXXXXXXXXXXXXXXXXXXXXXXXXXXXXXXXXXXXXXXXXXXXXXXXXXXXXXXXXXXXXXXXXXXXXXXXXXXXXXXXXXXXXXXXXXX c`",
"`c XXXXXXXXXXXXXXXXXXXXXXXXXXXXXXXXXXXXXXXXXXXXXXXXXXXXXXXXXXXXXXXXXXXXXXXXXXXXXXXXXXXXXXXXXXXXXX c`",
"`c XXXXXXXXXXXXXXXXXXXXXXXXXXXXXXXXXXXXXXXXXXXXXXXXXXXXXXXXXXXXXXXXXXXXXXXXXXXXXXXXXXXXXXXXXXXXXX c`",
"`c XXXXXXXXXXXXXXXXXXXXXXXXXXXXXXXXXXXXXXXXXXXXXXXXXXXXXXXXXXXXXXXXXXXXXXXXXXXXXXXXXXXXXXXXXXXXXX c`",
"`c XXXXXXXXXXXXXXXXXXXXXXXXXXXXXXXXXXXXXXXXXXXXXXXXXXXXXXXXXXXXXXXXXXXXXXXXXXXXXXXXXXXXXXXXXXXXXX c`",
"`c XXXXXXXXXXXXXXXXXXXXXXXXXXXXXXXXXXXXXXXXXXXXXXXXXXXXXXXXXXXXXXXXXXXXXXXXXXXXXXXXXXXXXXXXXXXXXX c`",
"`c XXXXXXXXXXXXXXXXXXXXXXXXXXXXXXXXXXXXXXXXXXXXXXXXXXXXXXXXXXXXXXXXXXXXXXXXXXXXXXXXXXXXXXXXXXXXXX c`",
"`c XXXXXXXXXXXXXXXXXXXXXXXXXXXXXXXXXXXXXXXXXXXXXXXXXXXXXXXXXXXXXXXXXXXXXXXXXXXXXXXXXXXXXXXXXXXXXX c`",
"`c XXXXXXXXXXXXXXXXXXXXXXXXXXXXXXXXXXXXXXXXXXXXXXXXXXXXXXXXXXXXXXXXXXXXXXXXXXXXXXXXXXXXXXXXXXXXXX c`",
"`c XXXXXXXXXXXXXXXXXXXXXXXXXXXXXXXXXXXXXXXXXXXXXXXXXXXXXXXXXXXXXXXXXXXXXXXXXXXXXXXXXXXXXXXXXXXXXX c`",
"`c XXXXXXXXXXXXXXXXXXXXXXXXXXXXXXXXXXXXXXXXXXXXXXXXXXXXXXXXXXXXXXXXXXXXXXXXXXXXXXXXXXXXXXXXXXXXXX c`",
"`c XXXXXXXXXXXXXXXXXXXXXXXXXXXXXXXXXXXXXXXXXXXXXXXXXXXXXXXXXXXXXXXXXXXXXXXXXXXXXXXXXXXXXXXXXXXXXX c`",
"`c XXXXXXXXXXXXXXXXXXXXXXXXXXXXXXXXXXXXXXXXXXXXXXXXXXXXXXXXXXXXXXXXXXXXXXXXXXXXXXXXXXXXXXXXXXXXXX c`",
"`c XXXXXXXXXXXXXXXXXXXXXXXXXXXXXXXXXXXXXXXXXXXXXXXXXXXXXXXXXXXXXXXXXXXXXXXXXXXXXXXXXXXXXXXXXXXXXX c`",
"`c XXXXXXXXXXXXXXXXXXXXXXXXXXXXXXXXXXXXXXXXXXXXXXXXXXXXXXXXXXXXXXXXXXXXXXXXXXXXXXXXXXXXXXXXXXXXXX c`",
"`c XXXXXXXXXXXXXXXXXXXXXXXXXXXXXXXXXXXXXXXXXXXXXXXXXXXXXXXXXXXXXXXXXXXXXXXXXXXXXXXXXXXXXXXXXXXXXX c`",
"`c.XXXXXXXXXXXXXXXXXXXXXXXXXXXXXXXXXXXXXXXXXXXXXXXXXXXXXXXXXXXXXXXXXXXXXXXXXXXXXXXXXXXXXXXXXXXXXX c`",
"`c                                                                                                c`",
"`hcccccccccccccccccccccccccccccccccccccccccccccccccccccccccccccccccccccccccccccccccccccccccccccccch`",
"````````````````````````````````````````````````````````````````````````````````````````````````````"
};
