/* XPM */
static char *s2[] = {
/* columns rows colors chars-per-pixel */
"100 100 74 1 ",
"  c #686868",
". c #7C7C7C",
"X c #C3AF2A",
"o c #C3AF2E",
"O c #C4B031",
"+ c #C4B034",
"@ c #C5B13D",
"# c #C5B242",
"$ c #C6B344",
"% c #C6B348",
"& c #C7B54E",
"* c #C7B552",
"= c #C8B654",
"- c #C9B75B",
"; c #C9B85E",
": c #CAB961",
"> c #CBBA65",
", c #CCBB69",
"< c #CCBC6B",
"1 c #CCBC6C",
"2 c #CDBE72",
"3 c #CEBF75",
"4 c #CFC079",
"5 c #D0C17B",
"6 c #D0C17E",
"7 c #AFAFAF",
"8 c gray70",
"9 c #D1C382",
"0 c #D2C484",
"q c #D3C68B",
"w c #D4C78D",
"e c #D5C991",
"r c #D6CA96",
"t c #D7CB98",
"y c #D8CC9B",
"u c #D9CD9D",
"i c #DACFA2",
"p c #DAD0A3",
"a c #DBD1A5",
"s c #DDD3A9",
"d c #DED4AE",
"f c #E0D7B4",
"g c #E1D9B7",
"h c #E2DABA",
"j c #E3DBBC",
"k c #E3DCBD",
"l c #E4DDBF",
"z c #E5DEC2",
"x c #E6DFC4",
"c c #E6E0C5",
"v c #E7E1C8",
"b c #E9E3CB",
"n c #E9E3CD",
"m c #EAE4CF",
"M c #EBE6D1",
"N c #ECE7D3",
"B c #EDE9D7",
"V c #EEEAD9",
"C c #EFEBDC",
"Z c #F0EBDC",
"A c #F0EDDE",
"S c #F3EFE3",
"D c #F3F0E4",
"F c #F4F1E7",
"G c #F5F3E9",
"H c #F6F4EB",
"J c #F7F5EE",
"K c #F8F6EF",
"L c #F8F6F0",
"P c #F9F8F2",
"I c #FBF9F5",
"U c #FCFBF9",
"Y c #FDFCFA",
"T c white",
/* pixels */
"TTTTTTTTTTTTTTTTTTTTTTTTTTTTTTTTTTTTTTTTTTTTTTTTTTTTTTTTTTTTTTTTTTTTTTTTTTTTTTTTTTTTTTTTTTTTTTTTTTTT",
"T78888888888888888888888888888888888888888888888888888888888888888888888888888888888888888888888887T",
"T8                                                                                                8T",
"T8 XXXXXXXXXXXXXXXXXXXXXXXXXXXXXXXXXXXXXXXXXXXXXXXXXXXXXXXXXXXXXXXXXXXXXXXXXXXXXXXXXXXXXXXXXXXXXX 8T",
"T8 XXXXXXXXXXXXXXXXXXXXXXXXXXXXXXXXXXXXXXXXXXXXXXXXXXXXXXXXXXXXXXXXXXXXXXXXXXXXXXXXXXXXXXXXXXXXXX 8T",
"T8 XXXXXXXXXXXXXXXXXXXXXXXXXXXXXXXXXXXXXXXXXXXXXXXXXXXXXXXXXXXXXXXXXXXXXXXXXXXXXXXXXXXXXXXXXXXXXX 8T",
"T8 XXXXXXXXXXXXXXXXXXXXXXXXXXXXXXXXXXXXXXXXXXXXXXXXXXXXXXXXXXXXXXXXXXXXXXXXXXXXXXXXXXXXXXXXXXXXXX 8T",
"T8 XXXXXXXXXXXXXXXXXXXXXXXXXXXXXXXXXXXXXXXXXXXXXXXXXXXXXXXXXXXXXXXXXXXXXXXXXXXXXXXXXXXXXXXXXXXXXX 8T",
"T8 XXXXXXXXXXXXXXXXXXXXXXXXXXXXXXXXXXXXXXXXXXXXXXXXXXXXXXXXXXXXXXXXXXXXXXXXXXXXXXXXXXXXXXXXXXXXXX 8T",
"T8 XXXXXXXXXXXXXXXXXXXXXXXXXXXXXXXXXXXXXXXXXXXXXXXXXXXXXXXXXXXXXXXXXXXXXXXXXXXXXXXXXXXXXXXXXXXXXX 8T",
"T8 XXXXXXXXXXXXXXXXXXXXXXXXXXXXXXXXXXXXXXXXXXXXXXXXXXXXXXXXXXXXXXXXXXXXXXXXXXXXXXXXXXXXXXXXXXXXXX 8T",
"T8 XXXXXXXXXXXXXXXXXXXXXXXXXXXXXXXXXXXXXXXXXXXXXXXXXXXXXXXXXXXXXXXXXXXXXXXXXXXXXXXXXXXXXXXXXXXXXX 8T",
"T8 XXXXXXXXXXXXXXXXXXXXXXXXXXXXXXXXXXXXXXXXXXXXXXXXXXXXXXXXXXXXXXXXXXXXXXXXXXXXXXXXXXXXXXXXXXXXXX 8T",
"T8 XXXXXXXXXXXXXXXXXXXXXXXXXXXXXXXXXXXXXXXXXXXXXXXXXXXXXXXXXXXXXXXXXXXXXXXXXXXXXXXXXXXXXXXXXXXXXX 8T",
"T8 XXXXXXXXXXXXXXXXXXXXXXXXXXXXXXXXXXXXXXXXXXXXXXXXXXXXXXXXXXXXXXXXXXXXXXXXXXXXXXXXXXXXXXXXXXXXXX 8T",
"T8 XXXXXXXXXXXXXXXXXXXXXXXXXXXXXXXXXXXXXXXXXXXXXXXXXXXXXXXXXXXXXXXXXXXXXXXXXXXXXXXXXXXXXXXXXXXXXX 8T",
"T8 XXXXXXXXXXXXXXXXXXXXXXXXXXXXXXXXXXXXXXXXXXXXXXXXXXXXXXXXXXXXXXXXXXXXXXXXXXXXXXXXXXXXXXXXXXXXXX 8T",
"T8 XXXXXXXXXXXXXXXXXXXXXXXXXXXXXXXXXXXXXXXXXXXXXXXXXXXXXXXXXXXXXXXXXXXXXXXXXXXXXXXXXXXXXXXXXXXXXX 8T",
"T8 XXXXXXXXXXXXXXXXXXXXXXXXXXXXXXXXXXXXXXXXXXXXXXXXXXXXXXXXXXXXXXXXXXXXXXXXXXXXXXXXXXXXXXXXXXXXXX 8T",
"T8 XXXXXXXXXXXXXXXXXXXXXXXXXXXXXXXXXXXXXXXXX$rlVGIYTYIJSmgy;XXXXXXXXXXXXXXXXXXXXXXXXXXXXXXXXXXXXX 8T",
"T8 XXXXXXXXXXXXXXXXXXXXXXXXXXXXXXXXXXXXXXorVYTTTTTTTTTTTTTTTJni&XXXXXXXXXXXXXXXXXXXXXXXXXXXXXXXXX 8T",
"T8 XXXXXXXXXXXXXXXXXXXXXXXXXXXXXXXXXXXXXrGTTTTTTTTTTTTTTTTTTTTTTAs=XXXXXXXXXXXXXXXXXXXXXXXXXXXXXX 8T",
"T8 XXXXXXXXXXXXXXXXXXXXXXXXXXXXXXXXXXX=BTTTTTTTTTTTTTTTTTTTTTTTTTTzXXXXXXXXXXXXXXXXXXXXXXXXXXXXXX 8T",
"T8 XXXXXXXXXXXXXXXXXXXXXXXXXXXXXXXXXX3KTTTTTTTTTTTTTTTTTTTTTTTTTTTzXXXXXXXXXXXXXXXXXXXXXXXXXXXXXX 8T",
"T8 XXXXXXXXXXXXXXXXXXXXXXXXXXXXXXXXX3ITTTTTTTTTTTTTTTTTTTTTTTTTTTTzXXXXXXXXXXXXXXXXXXXXXXXXXXXXXX 8T",
"T8 XXXXXXXXXXXXXXXXXXXXXXXXXXXXXXXX-PTTTTTTTTTYVhr0214edbGTTTTTTTTzXXXXXXXXXXXXXXXXXXXXXXXXXXXXXX 8T",
"T8 XXXXXXXXXXXXXXXXXXXXXXXXXXXXXXXXATTTTTTTTPd&XXXXXXXXXXX:dFTTTTTzXXXXXXXXXXXXXXXXXXXXXXXXXXXXXX 8T",
"T8 XXXXXXXXXXXXXXXXXXXXXXXXXXXXXXXaTTTTTTTTm&XXXXXXXXXXXXXXXX9BTTTzXXXXXXXXXXXXXXXXXXXXXXXXXXXXXX 8T",
"T8 XXXXXXXXXXXXXXXXXXXXXXXXXXXXXX+LTTTTTTTlXXXXXXXXXXXXXXXXXXXX6ATzXXXXXXXXXXXXXXXXXXXXXXXXXXXXXX 8T",
"T8 XXXXXXXXXXXXXXXXXXXXXXXXXXXXXXuTTTTTTTNXXXXXXXXXXXXXXXXXXXXXXXifXXXXXXXXXXXXXXXXXXXXXXXXXXXXXX 8T",
"T8 XXXXXXXXXXXXXXXXXXXXXXXXXXXXXXVTTTTTTU;XXXXXXXXXXXXXXXXXXXXXXXXXXXXXXXXXXXXXXXXXXXXXXXXXXXXXXX 8T",
"T8 XXXXXXXXXXXXXXXXXXXXXXXXXXXXX+YTTTTTTnXXXXXXXXXXXXXXXXXXXXXXXXXXXXXXXXXXXXXXXXXXXXXXXXXXXXXXXX 8T",
"T8 XXXXXXXXXXXXXXXXXXXXXXXXXXXXX6TTTTTTTrXXXXXXXXXXXXXXXXXXXXXXXXXXXXXXXXXXXXXXXXXXXXXXXXXXXXXXXX 8T",
"T8 XXXXXXXXXXXXXXXXXXXXXXXXXXXXXpTTTTTTT>XXXXXXXXXXXXXXXXXXXXXXXXXXXXXXXXXXXXXXXXXXXXXXXXXXXXXXXX 8T",
"T8 XXXXXXXXXXXXXXXXXXXXXXXXXXXXXhTTTTTTT@XXXXXXXXXXXXXXXXXXXXXXXXXXXXXXXXXXXXXXXXXXXXXXXXXXXXXXXX 8T",
"T8 XXXXXXXXXXXXXXXXXXXXXXXXXXXXXzTTTTTTTOXXXXXXXXXXXXXXXXXXXXXXXXXXXXXXXXXXXXXXXXXXXXXXXXXXXXXXXX 8T",
"T8 XXXXXXXXXXXXXXXXXXXXXXXXXXXXXcTTTTTTT=XXXXXXXXXXXXXXXXXXXXXXXXXXXXXXXXXXXXXXXXXXXXXXXXXXXXXXXX 8T",
"T8 XXXXXXXXXXXXXXXXXXXXXXXXXXXXXjTTTTTTTeXXXXXXXXXXXXXXXXXXXXXXXXXXXXXXXXXXXXXXXXXXXXXXXXXXXXXXXX 8T",
"T8 XXXXXXXXXXXXXXXXXXXXXXXXXXXXXdTTTTTTTbXXXXXXXXXXXXXXXXXXXXXXXXXXXXXXXXXXXXXXXXXXXXXXXXXXXXXXXX 8T",
"T8 XXXXXXXXXXXXXXXXXXXXXXXXXXXXXyTTTTTTTT1XXXXXXXXXXXXXXXXXXXXXXXXXXXXXXXXXXXXXXXXXXXXXXXXXXXXXXX 8T",
"T8 XXXXXXXXXXXXXXXXXXXXXXXXXXXXX;TTTTTTTTG*XXXXXXXXXXXXXXXXXXXXXXXXXXXXXXXXXXXXXXXXXXXXXXXXXXXXXX 8T",
"T8 XXXXXXXXXXXXXXXXXXXXXXXXXXXXXXHTTTTTTTTJ6XXXXXXXXXXXXXXXXXXXXXXXXXXXXXXXXXXXXXXXXXXXXXXXXXXXXX 8T",
"T8 XXXXXXXXXXXXXXXXXXXXXXXXXXXXXXjTTTTTTTTTTM2XXXXXXXXXXXXXXXXXXXXXXXXXXXXXXXXXXXXXXXXXXXXXXXXXXX 8T",
"T8 XXXXXXXXXXXXXXXXXXXXXXXXXXXXXX=YTTTTTTTTTTTDd<XXXXXXXXXXXXXXXXXXXXXXXXXXXXXXXXXXXXXXXXXXXXXXXX 8T",
"T8 XXXXXXXXXXXXXXXXXXXXXXXXXXXXXXXkTTTTTTTTTTTTTTJna1XXXXXXXXXXXXXXXXXXXXXXXXXXXXXXXXXXXXXXXXXXXX 8T",
"T8 XXXXXXXXXXXXXXXXXXXXXXXXXXXXXXX+STTTTTTTTTTTTTTTTTIBd1XXXXXXXXXXXXXXXXXXXXXXXXXXXXXXXXXXXXXXXX 8T",
"T8 XXXXXXXXXXXXXXXXXXXXXXXXXXXXXXXX=JTTTTTTTTTTTTTTTTTTTTGg;XXXXXXXXXXXXXXXXXXXXXXXXXXXXXXXXXXXXX 8T",
"T8 XXXXXXXXXXXXXXXXXXXXXXXXXXXXXXXXX*STTTTTTTTTTTTTTTTTTTTTTM2XXXXXXXXXXXXXXXXXXXXXXXXXXXXXXXXXXX 8T",
"T8 XXXXXXXXXXXXXXXXXXXXXXXXXXXXXXXXXX+zTTTTTTTTTTTTTTTTTTTTTTTv%XXXXXXXXXXXXXXXXXXXXXXXXXXXXXXXXX 8T",
"T8 XXXXXXXXXXXXXXXXXXXXXXXXXXXXXXXXXXXX1BTTTTTTTTTTTTTTTTTTTTTTL6XXXXXXXXXXXXXXXXXXXXXXXXXXXXXXXX 8T",
"T8 XXXXXXXXXXXXXXXXXXXXXXXXXXXXXXXXXXXXXX2zITTTTTTTTTTTTTTTTTTTTYrXXXXXXXXXXXXXXXXXXXXXXXXXXXXXXX 8T",
"T8 XXXXXXXXXXXXXXXXXXXXXXXXXXXXXXXXXXXXXXXX+ecJTTTTTTTTTTTTTTTTTTTqXXXXXXXXXXXXXXXXXXXXXXXXXXXXXX 8T",
"T8 XXXXXXXXXXXXXXXXXXXXXXXXXXXXXXXXXXXXXXXXXXXX>anHTTTTTTTTTTTTTTTP=XXXXXXXXXXXXXXXXXXXXXXXXXXXXX 8T",
"T8 XXXXXXXXXXXXXXXXXXXXXXXXXXXXXXXXXXXXXXXXXXXXXXXX*tcJTTTTTTTTTTTTVXXXXXXXXXXXXXXXXXXXXXXXXXXXXX 8T",
"T8 XXXXXXXXXXXXXXXXXXXXXXXXXXXXXXXXXXXXXXXXXXXXXXXXXXXX3xUTTTTTTTTTT5XXXXXXXXXXXXXXXXXXXXXXXXXXXX 8T",
"T8 XXXXXXXXXXXXXXXXXXXXXXXXXXXXXXXXXXXXXXXXXXXXXXXXXXXXXX-bTTTTTTTTTMXXXXXXXXXXXXXXXXXXXXXXXXXXXX 8T",
"T8 XXXXXXXXXXXXXXXXXXXXXXXXXXXXXXXXXXXXXXXXXXXXXXXXXXXXXXXXpTTTTTTTTT$XXXXXXXXXXXXXXXXXXXXXXXXXXX 8T",
"T8 XXXXXXXXXXXXXXXXXXXXXXXXXXXXXXXXXXXXXXXXXXXXXXXXXXXXXXXXXdTTTTTTTTwXXXXXXXXXXXXXXXXXXXXXXXXXXX 8T",
"T8 XXXXXXXXXXXXXXXXXXXXXXXXXXXXXXXXXXXXXXXXXXXXXXXXXXXXXXXXXXSTTTTTTThXXXXXXXXXXXXXXXXXXXXXXXXXXX 8T",
"T8 XXXXXXXXXXXXXXXXXXXXXXXXXXXXXXXXXXXXXXXXXXXXXXXXXXXXXXXXXXrTTTTTTTBXXXXXXXXXXXXXXXXXXXXXXXXXXX 8T",
"T8 XXXXXXXXXXXXXXXXXXXXXXXXXXXXXXXXXXXXXXXXXXXXXXXXXXXXXXXXXX@TTTTTTTSXXXXXXXXXXXXXXXXXXXXXXXXXXX 8T",
"T8 XXXXXXXXXXXXXXXXXXXXXXXXXXXXXXXXXXXXXXXXXXXXXXXXXXXXXXXXXXXFTTTTTTGXXXXXXXXXXXXXXXXXXXXXXXXXXX 8T",
"T8 XXXXXXXXXXXXXXXXXXXXXXXXXXXXXXXXXXXXXXXXXXXXXXXXXXXXXXXXXXXZTTTTTTLXXXXXXXXXXXXXXXXXXXXXXXXXXX 8T",
"T8 XXXXXXXXXXXXXXXXXXXXXXXXXXXXXXXXXXXXXXXXXXXXXXXXXXXXXXXXXXXBTTTTTTJXXXXXXXXXXXXXXXXXXXXXXXXXXX 8T",
"T8 XXXXXXXXXXXXXXXXXXXXXXXXXXXXXXXXXXXXXXXXXXXXXXXXXXXXXXXXXXXSTTTTTTGXXXXXXXXXXXXXXXXXXXXXXXXXXX 8T",
"T8 XXXXXXXXXXXXXXXXXXXXXXXXXXXXXXXXXXXXXXXXXXXXXXXXXXXXXXXXXXXJTTTTTTZXXXXXXXXXXXXXXXXXXXXXXXXXXX 8T",
"T8 XXXXXXXXXXXXXXXXXXXXXXXXXXXXXXXXXXXXXXXXXXXXXXXXXXXXXXXXXX=TTTTTTTbXXXXXXXXXXXXXXXXXXXXXXXXXXX 8T",
"T8 XXXXXXXXXXXXXXXXXXXXXXXXXXXXXXXXXXXXXXXXXXXXXXXXXXXXXXXXXXaTTTTTTTsXXXXXXXXXXXXXXXXXXXXXXXXXXX 8T",
"T8 XXXXXXXXXXXXXXXXXXXXXXXXXXXXXXs$XXXXXXXXXXXXXXXXXXXXXXXXXOGTTTTTTT1XXXXXXXXXXXXXXXXXXXXXXXXXXX 8T",
"T8 XXXXXXXXXXXXXXXXXXXXXXXXXXXXXXJLyXXXXXXXXXXXXXXXXXXXXXXXXdTTTTTTTGXXXXXXXXXXXXXXXXXXXXXXXXXXXX 8T",
"T8 XXXXXXXXXXXXXXXXXXXXXXXXXXXXXXJTTDqXXXXXXXXXXXXXXXXXXXXXyTTTTTTTTdXXXXXXXXXXXXXXXXXXXXXXXXXXXX 8T",
"T8 XXXXXXXXXXXXXXXXXXXXXXXXXXXXXXJTTTTDy+XXXXXXXXXXXXXXXX+gTTTTTTTTI#XXXXXXXXXXXXXXXXXXXXXXXXXXXX 8T",
"T8 XXXXXXXXXXXXXXXXXXXXXXXXXXXXXXJTTTTTTIx0OXXXXXXXXXXX#pGTTTTTTTTTpXXXXXXXXXXXXXXXXXXXXXXXXXXXXX 8T",
"T8 XXXXXXXXXXXXXXXXXXXXXXXXXXXXXXJTTTTTTTTTIVji03,20rhBUTTTTTTTTTTBXXXXXXXXXXXXXXXXXXXXXXXXXXXXXX 8T",
"T8 XXXXXXXXXXXXXXXXXXXXXXXXXXXXXXJTTTTTTTTTTTTTTTTTTTTTTTTTTTTTTTF%XXXXXXXXXXXXXXXXXXXXXXXXXXXXXX 8T",
"T8 XXXXXXXXXXXXXXXXXXXXXXXXXXXXXXJTTTTTTTTTTTTTTTTTTTTTTTTTTTTTTS*XXXXXXXXXXXXXXXXXXXXXXXXXXXXXXX 8T",
"T8 XXXXXXXXXXXXXXXXXXXXXXXXXXXXXXVTTTTTTTTTTTTTTTTTTTTTTTTTTTTTz+XXXXXXXXXXXXXXXXXXXXXXXXXXXXXXXX 8T",
"T8 XXXXXXXXXXXXXXXXXXXXXXXXXXXXXXX2jJTTTTTTTTTTTTTTTTTTTTTTTTV4XXXXXXXXXXXXXXXXXXXXXXXXXXXXXXXXXX 8T",
"T8 XXXXXXXXXXXXXXXXXXXXXXXXXXXXXXXXXX2dBITTTTTTTTTTTTTTTTTLx3XXXXXXXXXXXXXXXXXXXXXXXXXXXXXXXXXXXX 8T",
"T8 XXXXXXXXXXXXXXXXXXXXXXXXXXXXXXXXXXXXXX2ygmSJPUTTYIGCcs1XXXXXXXXXXXXXXXXXXXXXXXXXXXXXXXXXXXXXXX 8T",
"T8 XXXXXXXXXXXXXXXXXXXXXXXXXXXXXXXXXXXXXXXXXXXXXXXXXXXXXXXXXXXXXXXXXXXXXXXXXXXXXXXXXXXXXXXXXXXXXX 8T",
"T8 XXXXXXXXXXXXXXXXXXXXXXXXXXXXXXXXXXXXXXXXXXXXXXXXXXXXXXXXXXXXXXXXXXXXXXXXXXXXXXXXXXXXXXXXXXXXXX 8T",
"T8 XXXXXXXXXXXXXXXXXXXXXXXXXXXXXXXXXXXXXXXXXXXXXXXXXXXXXXXXXXXXXXXXXXXXXXXXXXXXXXXXXXXXXXXXXXXXXX 8T",
"T8 XXXXXXXXXXXXXXXXXXXXXXXXXXXXXXXXXXXXXXXXXXXXXXXXXXXXXXXXXXXXXXXXXXXXXXXXXXXXXXXXXXXXXXXXXXXXXX 8T",
"T8 XXXXXXXXXXXXXXXXXXXXXXXXXXXXXXXXXXXXXXXXXXXXXXXXXXXXXXXXXXXXXXXXXXXXXXXXXXXXXXXXXXXXXXXXXXXXXX 8T",
"T8 XXXXXXXXXXXXXXXXXXXXXXXXXXXXXXXXXXXXXXXXXXXXXXXXXXXXXXXXXXXXXXXXXXXXXXXXXXXXXXXXXXXXXXXXXXXXXX 8T",
"T8 XXXXXXXXXXXXXXXXXXXXXXXXXXXXXXXXXXXXXXXXXXXXXXXXXXXXXXXXXXXXXXXXXXXXXXXXXXXXXXXXXXXXXXXXXXXXXX 8T",
"T8 XXXXXXXXXXXXXXXXXXXXXXXXXXXXXXXXXXXXXXXXXXXXXXXXXXXXXXXXXXXXXXXXXXXXXXXXXXXXXXXXXXXXXXXXXXXXXX 8T",
"T8 XXXXXXXXXXXXXXXXXXXXXXXXXXXXXXXXXXXXXXXXXXXXXXXXXXXXXXXXXXXXXXXXXXXXXXXXXXXXXXXXXXXXXXXXXXXXXX 8T",
"T8 XXXXXXXXXXXXXXXXXXXXXXXXXXXXXXXXXXXXXXXXXXXXXXXXXXXXXXXXXXXXXXXXXXXXXXXXXXXXXXXXXXXXXXXXXXXXXX 8T",
"T8 XXXXXXXXXXXXXXXXXXXXXXXXXXXXXXXXXXXXXXXXXXXXXXXXXXXXXXXXXXXXXXXXXXXXXXXXXXXXXXXXXXXXXXXXXXXXXX 8T",
"T8 XXXXXXXXXXXXXXXXXXXXXXXXXXXXXXXXXXXXXXXXXXXXXXXXXXXXXXXXXXXXXXXXXXXXXXXXXXXXXXXXXXXXXXXXXXXXXX 8T",
"T8 XXXXXXXXXXXXXXXXXXXXXXXXXXXXXXXXXXXXXXXXXXXXXXXXXXXXXXXXXXXXXXXXXXXXXXXXXXXXXXXXXXXXXXXXXXXXXX 8T",
"T8 XXXXXXXXXXXXXXXXXXXXXXXXXXXXXXXXXXXXXXXXXXXXXXXXXXXXXXXXXXXXXXXXXXXXXXXXXXXXXXXXXXXXXXXXXXXXXX 8T",
"T8 XXXXXXXXXXXXXXXXXXXXXXXXXXXXXXXXXXXXXXXXXXXXXXXXXXXXXXXXXXXXXXXXXXXXXXXXXXXXXXXXXXXXXXXXXXXXXX 8T",
"T8 XXXXXXXXXXXXXXXXXXXXXXXXXXXXXXXXXXXXXXXXXXXXXXXXXXXXXXXXXXXXXXXXXXXXXXXXXXXXXXXXXXXXXXXXXXXXXX 8T",
"T8.XXXXXXXXXXXXXXXXXXXXXXXXXXXXXXXXXXXXXXXXXXXXXXXXXXXXXXXXXXXXXXXXXXXXXXXXXXXXXXXXXXXXXXXXXXXXXX 8T",
"T8                                                                                                8T",
"T78888888888888888888888888888888888888888888888888888888888888888888888888888888888888888888888887T",
"TTTTTTTTTTTTTTTTTTTTTTTTTTTTTTTTTTTTTTTTTTTTTTTTTTTTTTTTTTTTTTTTTTTTTTTTTTTTTTTTTTTTTTTTTTTTTTTTTTTT"
};
