/* XPM */
static char *s3[] = {
/* columns rows colors chars-per-pixel */
"100 100 37 1 ",
"  c #686868",
". c #727272",
"X c gray46",
"o c #7B7B7B",
"O c gray50",
"+ c gray51",
"@ c gray53",
"# c #898989",
"$ c gray56",
"% c #939393",
"& c #959595",
"* c #9A9A9A",
"= c #9D9D9D",
"- c #A0A0A0",
"; c #A5A5A5",
": c gray66",
"> c #AFAFAF",
", c gray70",
"< c #B4B4B4",
"1 c #BBBBBB",
"2 c gray74",
"3 c #C3C3C3",
"4 c gray77",
"5 c #CACACA",
"6 c gray80",
"7 c LightGray",
"8 c #D7D7D7",
"9 c #DADADA",
"0 c #DDDDDD",
"q c gray88",
"w c gray90",
"e c gray91",
"r c gray93",
"t c #F1F1F1",
"y c gray97",
"u c #FBFBFB",
"i c white",
/* pixels */
"iiiiiiiiiiiiiiiiiiiiiiiiiiiiiiiiiiiiiiiiiiiiiiiiiiiiiiiiiiiiiiiiiiiiiiiiiiiiiiiiiiiiiiiiiiiiiiiiiiii",
"i>,,,,,,,,,,,,,,,,,,,,,,,,,,,,,,,,,,,,,,,,,,,,,,,,,,,,,,,,,,,,,,,,,,,,,,,,,,,,,,,,,,,,,,,,,,,,,,,,>i",
"i,                                                                                                ,i",
"i, .............................................................................................. ,i",
"i, .............................................................................................. ,i",
"i, .............................................................................................. ,i",
"i, .............................................................................................. ,i",
"i, .............................................................................................. ,i",
"i, .............................................................................................. ,i",
"i, .............................................................................................. ,i",
"i, .............................................................................................. ,i",
"i, .............................................................................................. ,i",
"i, .............................................................................................. ,i",
"i, .............................................................................................. ,i",
"i, .............................................................................................. ,i",
"i, .............................................................................................. ,i",
"i, .............................................................................................. ,i",
"i, .............................................................................................. ,i",
"i, .............................................................................................. ,i",
"i, .........................................o:5qryuiuyte84>@..................................... ,i",
"i, .......................................:0iiiiiiiiiiiiiiiit8<O................................. ,i",
"i, .....................................>riiiiiiiiiiiiiiiiiiiiiiq1@.............................. ,i",
"i, ...................................+0iiiiiiiiiiiiiiiiiiiiiiiiii6.............................. ,i",
"i, ..................................&tiiiiiiiiiiiiiiiiiiiiiiiiiii6.............................. ,i",
"i, .................................&yiiiiiiiiiiiiiiiiiiiiiiiiiiii6.............................. ,i",
"i, ................................@yiiiiiiiiiu04:=%$*:18riiiiiiii6.............................. ,i",
"i, ................................qiiiiiiiiy2O...........#2eiiiii6.............................. ,i",
"i, ...............................<iiiiiiii8O................=0iii6.............................. ,i",
"i, ..............................Xtiiiiiii5....................*wi6.............................. ,i",
"i, ..............................,iiiiiii9.......................<3.............................. ,i",
"i, ..............................0iiiiiiu@....................................................... ,i",
"i, .............................Xuiiiiii8........................................................ ,i",
"i, .............................*iiiiiii:........................................................ ,i",
"i, .............................<iiiiiii#........................................................ ,i",
"i, .............................4iiiiiiio........................................................ ,i",
"i, .............................6iiiiiiiX........................................................ ,i",
"i, .............................6iiiiiii@........................................................ ,i",
"i, .............................5iiiiiii:........................................................ ,i",
"i, .............................2iiiiiii7........................................................ ,i",
"i, .............................>iiiiiiii%....................................................... ,i",
"i, .............................@iiiiiiiir+...................................................... ,i",
"i, ..............................riiiiiiiit*..................................................... ,i",
"i, ..............................5iiiiiiiiii9&................................................... ,i",
"i, ..............................+uiiiiiiiiiiie2$................................................ ,i",
"i, ...............................5iiiiiiiiiiiiiit8<%............................................ ,i",
"i, ...............................Xwiiiiiiiiiiiiiiiiiy02%........................................ ,i",
"i, ................................@tiiiiiiiiiiiiiiiiiiiir4#..................................... ,i",
"i, .................................+wiiiiiiiiiiiiiiiiiiiiii9%................................... ,i",
"i, ..................................X6iiiiiiiiiiiiiiiiiiiiiii7O................................. ,i",
"i, ....................................%0iiiiiiiiiiiiiiiiiiiiiit*................................ ,i",
"i, ......................................%6yiiiiiiiiiiiiiiiiiiiiu:............................... ,i",
"i, ........................................X:7riiiiiiiiiiiiiiiiiii-.............................. ,i",
"i, ............................................#<8riiiiiiiiiiiiiiiy@............................. ,i",
"i, ................................................+>7riiiiiiiiiiii0............................. ,i",
"i, ....................................................&6uiiiiiiiiii*............................ ,i",
"i, ......................................................@7iiiiiiiii9............................ ,i",
"i, ........................................................<iiiiiiiiio........................... ,i",
"i, .........................................................2iiiiiiii;........................... ,i",
"i, ..........................................................wiiiiiii4........................... ,i",
"i, ..........................................................:iiiiiii0........................... ,i",
"i, ..........................................................oiiiiiiiw........................... ,i",
"i, ...........................................................eiiiiiir........................... ,i",
"i, ...........................................................qiiiiiit........................... ,i",
"i, ...........................................................0iiiiiit........................... ,i",
"i, ...........................................................wiiiiiir........................... ,i",
"i, ...........................................................riiiiiiq........................... ,i",
"i, ..........................................................+iiiiiii7........................... ,i",
"i, ..........................................................<iiiiiii1........................... ,i",
"i, ..............................1o.........................Xriiiiiii%........................... ,i",
"i, ..............................rt>........................2iiiiiiir............................ ,i",
"i, ..............................riie-.....................>iiiiiiii2............................ ,i",
"i, ..............................riiiie>X................X3iiiiiiiiyo............................ ,i",
"i, ..............................riiiiiiy6-X...........o<riiiiiiiii<............................. ,i",
"i, ..............................riiiiiiiiiyq5,=&$&=:40uiiiiiiiiii0.............................. ,i",
"i, ..............................riiiiiiiiiiiiiiiiiiiiiiiiiiiiiiieO.............................. ,i",
"i, ..............................riiiiiiiiiiiiiiiiiiiiiiiiiiiiiiw+............................... ,i",
"i, ..............................qiiiiiiiiiiiiiiiiiiiiiiiiiiiii6X................................ ,i",
"i, ...............................&5riiiiiiiiiiiiiiiiiiiiiiiiq*.................................. ,i",
"i, ..................................&20yiiiiiiiiiiiiiiiiit6&.................................... ,i",
"i, ......................................%>48wryuiiuyrq71%....................................... ,i",
"i, .............................................................................................. ,i",
"i, .............................................................................................. ,i",
"i, .............................................................................................. ,i",
"i, .............................................................................................. ,i",
"i, .............................................................................................. ,i",
"i, .............................................................................................. ,i",
"i, .............................................................................................. ,i",
"i, .............................................................................................. ,i",
"i, .............................................................................................. ,i",
"i, .............................................................................................. ,i",
"i, .............................................................................................. ,i",
"i, .............................................................................................. ,i",
"i, .............................................................................................. ,i",
"i, .............................................................................................. ,i",
"i, .............................................................................................. ,i",
"i, .............................................................................................. ,i",
"i,O.............................................................................................. ,i",
"i,                                                                                                ,i",
"i>,,,,,,,,,,,,,,,,,,,,,,,,,,,,,,,,,,,,,,,,,,,,,,,,,,,,,,,,,,,,,,,,,,,,,,,,,,,,,,,,,,,,,,,,,,,,,,,,>i",
"iiiiiiiiiiiiiiiiiiiiiiiiiiiiiiiiiiiiiiiiiiiiiiiiiiiiiiiiiiiiiiiiiiiiiiiiiiiiiiiiiiiiiiiiiiiiiiiiiiii"
};
