/* XPM */
static char *t[] = {
/* columns rows colors chars-per-pixel */
"100 100 14 1 ",
"  c #2E0000",
". c #686868",
"X c #706868",
"o c #746D6D",
"O c #7C7C7C",
"+ c #AFAFAF",
"@ c gray70",
"# c #D7D6D6",
"$ c #E9E8E8",
"% c gray93",
"& c #F3F2F2",
"* c #F4F4F4",
"= c #FBFBFB",
"- c white",
/* pixels */
"----------------------------------------------------------------------------------------------------",
"-+@@@@@@@@@@@@@@@@@@@@@@@@@@@@@@@@@@@@@@@@@@@@@@@@@@@@@@@@@@@@@@@@@@@@@@@@@@@@@@@@@@@@@@@@@@@@@@@@+-",
"-@................................................................................................@-",
"-@.----------------------------------------------------------------------------------------------.@-",
"-@.----------------------------------------------------------------------------------------------.@-",
"-@.----------------------------------------------------------------------------------------------.@-",
"-@.----------------------------------------------------------------------------------------------.@-",
"-@.----------------------------------------------------------------------------------------------.@-",
"-@.----------------------------------------------------------------------------------------------.@-",
"-@.----------------------------------------------------------------------------------------------.@-",
"-@.----------------------------------------------------------------------------------------------.@-",
"-@.----------------------------------------------------------------------------------------------.@-",
"-@.----------------------------------------------------------------------------------------------.@-",
"-@.----------------------------------------------------------------------------------------------.@-",
"-@.----------------------------------------------------------------------------------------------.@-",
"-@.----------------------------------------------------------------------------------------------.@-",
"-@.----------------------------------------------------------------------------------------------.@-",
"-@.----------------------------------------------------------------------------------------------.@-",
"-@.----------------------------------------------------------------------------------------------.@-",
"-@.----------------------------------------------------------------------------------------------.@-",
"-@.-------------------------%                                            #-----------------------.@-",
"-@.-------------------------%                                            #-----------------------.@-",
"-@.-------------------------%                                            #-----------------------.@-",
"-@.-------------------------%                                            #-----------------------.@-",
"-@.-------------------------%                                            #-----------------------.@-",
"-@.-------------------------%                                            #-----------------------.@-",
"-@.--------------------------&&&&&&&&&&&&&&&&&&X       $&&&&&&&&&&&&&&&&&=-----------------------.@-",
"-@.--------------------------------------------o       *-----------------------------------------.@-",
"-@.--------------------------------------------o       *-----------------------------------------.@-",
"-@.--------------------------------------------o       *-----------------------------------------.@-",
"-@.--------------------------------------------o       *-----------------------------------------.@-",
"-@.--------------------------------------------o       *-----------------------------------------.@-",
"-@.--------------------------------------------o       *-----------------------------------------.@-",
"-@.--------------------------------------------o       *-----------------------------------------.@-",
"-@.--------------------------------------------o       *-----------------------------------------.@-",
"-@.--------------------------------------------o       *-----------------------------------------.@-",
"-@.--------------------------------------------o       *-----------------------------------------.@-",
"-@.--------------------------------------------o       *-----------------------------------------.@-",
"-@.--------------------------------------------o       *-----------------------------------------.@-",
"-@.--------------------------------------------o       *-----------------------------------------.@-",
"-@.--------------------------------------------o       *-----------------------------------------.@-",
"-@.--------------------------------------------o       *-----------------------------------------.@-",
"-@.--------------------------------------------o       *-----------------------------------------.@-",
"-@.--------------------------------------------o       *-----------------------------------------.@-",
"-@.--------------------------------------------o       *-----------------------------------------.@-",
"-@.--------------------------------------------o       *-----------------------------------------.@-",
"-@.--------------------------------------------o       *-----------------------------------------.@-",
"-@.--------------------------------------------o       *-----------------------------------------.@-",
"-@.--------------------------------------------o       *-----------------------------------------.@-",
"-@.--------------------------------------------o       *-----------------------------------------.@-",
"-@.--------------------------------------------o       *-----------------------------------------.@-",
"-@.--------------------------------------------o       *-----------------------------------------.@-",
"-@.--------------------------------------------o       *-----------------------------------------.@-",
"-@.--------------------------------------------o       *-----------------------------------------.@-",
"-@.--------------------------------------------o       *-----------------------------------------.@-",
"-@.--------------------------------------------o       *-----------------------------------------.@-",
"-@.--------------------------------------------o       *-----------------------------------------.@-",
"-@.--------------------------------------------o       *-----------------------------------------.@-",
"-@.--------------------------------------------o       *-----------------------------------------.@-",
"-@.--------------------------------------------o       *-----------------------------------------.@-",
"-@.--------------------------------------------o       *-----------------------------------------.@-",
"-@.--------------------------------------------o       *-----------------------------------------.@-",
"-@.--------------------------------------------o       *-----------------------------------------.@-",
"-@.--------------------------------------------o       *-----------------------------------------.@-",
"-@.--------------------------------------------o       *-----------------------------------------.@-",
"-@.--------------------------------------------o       *-----------------------------------------.@-",
"-@.--------------------------------------------o       *-----------------------------------------.@-",
"-@.--------------------------------------------o       *-----------------------------------------.@-",
"-@.--------------------------------------------o       *-----------------------------------------.@-",
"-@.--------------------------------------------o       *-----------------------------------------.@-",
"-@.--------------------------------------------o       *-----------------------------------------.@-",
"-@.--------------------------------------------o       *-----------------------------------------.@-",
"-@.--------------------------------------------o       *-----------------------------------------.@-",
"-@.--------------------------------------------o       *-----------------------------------------.@-",
"-@.--------------------------------------------o       *-----------------------------------------.@-",
"-@.--------------------------------------------o       *-----------------------------------------.@-",
"-@.--------------------------------------------o       *-----------------------------------------.@-",
"-@.--------------------------------------------o       *-----------------------------------------.@-",
"-@.--------------------------------------------o       *-----------------------------------------.@-",
"-@.----------------------------------------------------------------------------------------------.@-",
"-@.----------------------------------------------------------------------------------------------.@-",
"-@.----------------------------------------------------------------------------------------------.@-",
"-@.----------------------------------------------------------------------------------------------.@-",
"-@.----------------------------------------------------------------------------------------------.@-",
"-@.----------------------------------------------------------------------------------------------.@-",
"-@.----------------------------------------------------------------------------------------------.@-",
"-@.----------------------------------------------------------------------------------------------.@-",
"-@.----------------------------------------------------------------------------------------------.@-",
"-@.----------------------------------------------------------------------------------------------.@-",
"-@.----------------------------------------------------------------------------------------------.@-",
"-@.----------------------------------------------------------------------------------------------.@-",
"-@.----------------------------------------------------------------------------------------------.@-",
"-@.----------------------------------------------------------------------------------------------.@-",
"-@.----------------------------------------------------------------------------------------------.@-",
"-@.----------------------------------------------------------------------------------------------.@-",
"-@.----------------------------------------------------------------------------------------------.@-",
"-@O----------------------------------------------------------------------------------------------.@-",
"-@................................................................................................@-",
"-+@@@@@@@@@@@@@@@@@@@@@@@@@@@@@@@@@@@@@@@@@@@@@@@@@@@@@@@@@@@@@@@@@@@@@@@@@@@@@@@@@@@@@@@@@@@@@@@@+-",
"----------------------------------------------------------------------------------------------------"
};
