/* XPM */
static char *u[] = {
/* columns rows colors chars-per-pixel */
"100 100 66 1 ",
"  c #2E0000",
". c #310D0D",
"X c #371C1C",
"o c #3A2222",
"O c #443232",
"+ c #463535",
"@ c #4A3B3B",
"# c #4C3D3D",
"$ c #4E4040",
"% c #504242",
"& c #524545",
"* c #574B4B",
"= c #615656",
"- c #655C5C",
"; c #685F5F",
": c #6E6666",
"> c #686868",
", c #766E6E",
"< c #7A7373",
"1 c #7C7C7C",
"2 c #827C7C",
"3 c #857F7F",
"4 c #878181",
"5 c #898383",
"6 c #8B8686",
"7 c #8E8989",
"8 c #949090",
"9 c #9A9696",
"0 c #9E9B9B",
"q c #A29E9E",
"w c #A6A3A3",
"e c #A8A4A4",
"r c #ADAAAA",
"t c #AFAFAF",
"y c #B0ADAD",
"u c gray70",
"i c #B6B3B3",
"p c #BAB7B7",
"a c #BDBBBB",
"s c #BFBDBD",
"d c #C2C0C0",
"f c #C5C3C3",
"g c #C6C4C4",
"h c #CBC9C9",
"j c #CFCDCD",
"k c #D0CFCF",
"l c #D1D0D0",
"z c #D4D3D3",
"x c #D6D5D5",
"c c #D8D6D6",
"v c #DBDADA",
"b c #DCDBDB",
"n c #DEDDDD",
"m c #E1E0E0",
"M c #E4E3E3",
"N c #E6E5E5",
"B c #E8E7E7",
"V c #EAE9E9",
"C c #ECEBEB",
"Z c #EFEEEE",
"A c #F0EFEF",
"S c gray94",
"D c #F4F3F3",
"F c #F4F4F4",
"G c #F9F9F9",
"H c white",
/* pixels */
"HHHHHHHHHHHHHHHHHHHHHHHHHHHHHHHHHHHHHHHHHHHHHHHHHHHHHHHHHHHHHHHHHHHHHHHHHHHHHHHHHHHHHHHHHHHHHHHHHHHH",
"HtuuuuuuuuuuuuuuuuuuuuuuuuuuuuuuuuuuuuuuuuuuuuuuuuuuuuuuuuuuuuuuuuuuuuuuuuuuuuuuuuuuuuuuuuuuuuuuuutH",
"Hu>>>>>>>>>>>>>>>>>>>>>>>>>>>>>>>>>>>>>>>>>>>>>>>>>>>>>>>>>>>>>>>>>>>>>>>>>>>>>>>>>>>>>>>>>>>>>>>>uH",
"Hu>HHHHHHHHHHHHHHHHHHHHHHHHHHHHHHHHHHHHHHHHHHHHHHHHHHHHHHHHHHHHHHHHHHHHHHHHHHHHHHHHHHHHHHHHHHHHHH>uH",
"Hu>HHHHHHHHHHHHHHHHHHHHHHHHHHHHHHHHHHHHHHHHHHHHHHHHHHHHHHHHHHHHHHHHHHHHHHHHHHHHHHHHHHHHHHHHHHHHHH>uH",
"Hu>HHHHHHHHHHHHHHHHHHHHHHHHHHHHHHHHHHHHHHHHHHHHHHHHHHHHHHHHHHHHHHHHHHHHHHHHHHHHHHHHHHHHHHHHHHHHHH>uH",
"Hu>HHHHHHHHHHHHHHHHHHHHHHHHHHHHHHHHHHHHHHHHHHHHHHHHHHHHHHHHHHHHHHHHHHHHHHHHHHHHHHHHHHHHHHHHHHHHHH>uH",
"Hu>HHHHHHHHHHHHHHHHHHHHHHHHHHHHHHHHHHHHHHHHHHHHHHHHHHHHHHHHHHHHHHHHHHHHHHHHHHHHHHHHHHHHHHHHHHHHHH>uH",
"Hu>HHHHHHHHHHHHHHHHHHHHHHHHHHHHHHHHHHHHHHHHHHHHHHHHHHHHHHHHHHHHHHHHHHHHHHHHHHHHHHHHHHHHHHHHHHHHHH>uH",
"Hu>HHHHHHHHHHHHHHHHHHHHHHHHHHHHHHHHHHHHHHHHHHHHHHHHHHHHHHHHHHHHHHHHHHHHHHHHHHHHHHHHHHHHHHHHHHHHHH>uH",
"Hu>HHHHHHHHHHHHHHHHHHHHHHHHHHHHHHHHHHHHHHHHHHHHHHHHHHHHHHHHHHHHHHHHHHHHHHHHHHHHHHHHHHHHHHHHHHHHHH>uH",
"Hu>HHHHHHHHHHHHHHHHHHHHHHHHHHHHHHHHHHHHHHHHHHHHHHHHHHHHHHHHHHHHHHHHHHHHHHHHHHHHHHHHHHHHHHHHHHHHHH>uH",
"Hu>HHHHHHHHHHHHHHHHHHHHHHHHHHHHHHHHHHHHHHHHHHHHHHHHHHHHHHHHHHHHHHHHHHHHHHHHHHHHHHHHHHHHHHHHHHHHHH>uH",
"Hu>HHHHHHHHHHHHHHHHHHHHHHHHHHHHHHHHHHHHHHHHHHHHHHHHHHHHHHHHHHHHHHHHHHHHHHHHHHHHHHHHHHHHHHHHHHHHHH>uH",
"Hu>HHHHHHHHHHHHHHHHHHHHHHHHHHHHHHHHHHHHHHHHHHHHHHHHHHHHHHHHHHHHHHHHHHHHHHHHHHHHHHHHHHHHHHHHHHHHHH>uH",
"Hu>HHHHHHHHHHHHHHHHHHHHHHHHHHHHHHHHHHHHHHHHHHHHHHHHHHHHHHHHHHHHHHHHHHHHHHHHHHHHHHHHHHHHHHHHHHHHHH>uH",
"Hu>HHHHHHHHHHHHHHHHHHHHHHHHHHHHHHHHHHHHHHHHHHHHHHHHHHHHHHHHHHHHHHHHHHHHHHHHHHHHHHHHHHHHHHHHHHHHHH>uH",
"Hu>HHHHHHHHHHHHHHHHHHHHHHHHHHHHHHHHHHHHHHHHHHHHHHHHHHHHHHHHHHHHHHHHHHHHHHHHHHHHHHHHHHHHHHHHHHHHHH>uH",
"Hu>HHHHHHHHHHHHHHHHHHHHHHHHHHHHHHHHHHHHHHHHHHHHHHHHHHHHHHHHHHHHHHHHHHHHHHHHHHHHHHHHHHHHHHHHHHHHHH>uH",
"Hu>HHHHHHHHHHHHHHHHHHHHHHHHHHHHHHHHHHHHHHHHHHHHHHHHHHHHHHHHHHHHHHHHHHHHHHHHHHHHHHHHHHHHHHHHHHHHHH>uH",
"Hu>HHHHHHHHHHHHHHHHHHHHHHHHHHHHHm       0HHHHHHHHHHHHHHHHHHHHa       jHHHHHHHHHHHHHHHHHHHHHHHHHHH>uH",
"Hu>HHHHHHHHHHHHHHHHHHHHHHHHHHHHHm       0HHHHHHHHHHHHHHHHHHHHa       jHHHHHHHHHHHHHHHHHHHHHHHHHHH>uH",
"Hu>HHHHHHHHHHHHHHHHHHHHHHHHHHHHHm       0HHHHHHHHHHHHHHHHHHHHa       jHHHHHHHHHHHHHHHHHHHHHHHHHHH>uH",
"Hu>HHHHHHHHHHHHHHHHHHHHHHHHHHHHHm       0HHHHHHHHHHHHHHHHHHHHa       jHHHHHHHHHHHHHHHHHHHHHHHHHHH>uH",
"Hu>HHHHHHHHHHHHHHHHHHHHHHHHHHHHHm       0HHHHHHHHHHHHHHHHHHHHa       jHHHHHHHHHHHHHHHHHHHHHHHHHHH>uH",
"Hu>HHHHHHHHHHHHHHHHHHHHHHHHHHHHHm       0HHHHHHHHHHHHHHHHHHHHa       jHHHHHHHHHHHHHHHHHHHHHHHHHHH>uH",
"Hu>HHHHHHHHHHHHHHHHHHHHHHHHHHHHHm       0HHHHHHHHHHHHHHHHHHHHa       jHHHHHHHHHHHHHHHHHHHHHHHHHHH>uH",
"Hu>HHHHHHHHHHHHHHHHHHHHHHHHHHHHHm       0HHHHHHHHHHHHHHHHHHHHa       jHHHHHHHHHHHHHHHHHHHHHHHHHHH>uH",
"Hu>HHHHHHHHHHHHHHHHHHHHHHHHHHHHHm       0HHHHHHHHHHHHHHHHHHHHa       jHHHHHHHHHHHHHHHHHHHHHHHHHHH>uH",
"Hu>HHHHHHHHHHHHHHHHHHHHHHHHHHHHHm       0HHHHHHHHHHHHHHHHHHHHa       jHHHHHHHHHHHHHHHHHHHHHHHHHHH>uH",
"Hu>HHHHHHHHHHHHHHHHHHHHHHHHHHHHHm       0HHHHHHHHHHHHHHHHHHHHa       jHHHHHHHHHHHHHHHHHHHHHHHHHHH>uH",
"Hu>HHHHHHHHHHHHHHHHHHHHHHHHHHHHHm       0HHHHHHHHHHHHHHHHHHHHa       jHHHHHHHHHHHHHHHHHHHHHHHHHHH>uH",
"Hu>HHHHHHHHHHHHHHHHHHHHHHHHHHHHHm       0HHHHHHHHHHHHHHHHHHHHa       jHHHHHHHHHHHHHHHHHHHHHHHHHHH>uH",
"Hu>HHHHHHHHHHHHHHHHHHHHHHHHHHHHHm       0HHHHHHHHHHHHHHHHHHHHa       jHHHHHHHHHHHHHHHHHHHHHHHHHHH>uH",
"Hu>HHHHHHHHHHHHHHHHHHHHHHHHHHHHHm       0HHHHHHHHHHHHHHHHHHHHa       jHHHHHHHHHHHHHHHHHHHHHHHHHHH>uH",
"Hu>HHHHHHHHHHHHHHHHHHHHHHHHHHHHHm       0HHHHHHHHHHHHHHHHHHHHa       jHHHHHHHHHHHHHHHHHHHHHHHHHHH>uH",
"Hu>HHHHHHHHHHHHHHHHHHHHHHHHHHHHHm       0HHHHHHHHHHHHHHHHHHHHa       jHHHHHHHHHHHHHHHHHHHHHHHHHHH>uH",
"Hu>HHHHHHHHHHHHHHHHHHHHHHHHHHHHHm       0HHHHHHHHHHHHHHHHHHHHa       jHHHHHHHHHHHHHHHHHHHHHHHHHHH>uH",
"Hu>HHHHHHHHHHHHHHHHHHHHHHHHHHHHHm       0HHHHHHHHHHHHHHHHHHHHa       jHHHHHHHHHHHHHHHHHHHHHHHHHHH>uH",
"Hu>HHHHHHHHHHHHHHHHHHHHHHHHHHHHHm       0HHHHHHHHHHHHHHHHHHHHa       jHHHHHHHHHHHHHHHHHHHHHHHHHHH>uH",
"Hu>HHHHHHHHHHHHHHHHHHHHHHHHHHHHHm       0HHHHHHHHHHHHHHHHHHHHa       jHHHHHHHHHHHHHHHHHHHHHHHHHHH>uH",
"Hu>HHHHHHHHHHHHHHHHHHHHHHHHHHHHHm       0HHHHHHHHHHHHHHHHHHHHa       jHHHHHHHHHHHHHHHHHHHHHHHHHHH>uH",
"Hu>HHHHHHHHHHHHHHHHHHHHHHHHHHHHHm       0HHHHHHHHHHHHHHHHHHHHa       jHHHHHHHHHHHHHHHHHHHHHHHHHHH>uH",
"Hu>HHHHHHHHHHHHHHHHHHHHHHHHHHHHHm       0HHHHHHHHHHHHHHHHHHHHa       jHHHHHHHHHHHHHHHHHHHHHHHHHHH>uH",
"Hu>HHHHHHHHHHHHHHHHHHHHHHHHHHHHHm       0HHHHHHHHHHHHHHHHHHHHa       jHHHHHHHHHHHHHHHHHHHHHHHHHHH>uH",
"Hu>HHHHHHHHHHHHHHHHHHHHHHHHHHHHHm       0HHHHHHHHHHHHHHHHHHHHa       jHHHHHHHHHHHHHHHHHHHHHHHHHHH>uH",
"Hu>HHHHHHHHHHHHHHHHHHHHHHHHHHHHHm       0HHHHHHHHHHHHHHHHHHHHa       jHHHHHHHHHHHHHHHHHHHHHHHHHHH>uH",
"Hu>HHHHHHHHHHHHHHHHHHHHHHHHHHHHHm       0HHHHHHHHHHHHHHHHHHHHa       jHHHHHHHHHHHHHHHHHHHHHHHHHHH>uH",
"Hu>HHHHHHHHHHHHHHHHHHHHHHHHHHHHHm       0HHHHHHHHHHHHHHHHHHHHa       jHHHHHHHHHHHHHHHHHHHHHHHHHHH>uH",
"Hu>HHHHHHHHHHHHHHHHHHHHHHHHHHHHHm       0HHHHHHHHHHHHHHHHHHHHa       jHHHHHHHHHHHHHHHHHHHHHHHHHHH>uH",
"Hu>HHHHHHHHHHHHHHHHHHHHHHHHHHHHHm       0HHHHHHHHHHHHHHHHHHHHa       jHHHHHHHHHHHHHHHHHHHHHHHHHHH>uH",
"Hu>HHHHHHHHHHHHHHHHHHHHHHHHHHHHHm       0HHHHHHHHHHHHHHHHHHHHa       jHHHHHHHHHHHHHHHHHHHHHHHHHHH>uH",
"Hu>HHHHHHHHHHHHHHHHHHHHHHHHHHHHHm       0HHHHHHHHHHHHHHHHHHHHa       jHHHHHHHHHHHHHHHHHHHHHHHHHHH>uH",
"Hu>HHHHHHHHHHHHHHHHHHHHHHHHHHHHHm       0HHHHHHHHHHHHHHHHHHHHa       jHHHHHHHHHHHHHHHHHHHHHHHHHHH>uH",
"Hu>HHHHHHHHHHHHHHHHHHHHHHHHHHHHHm       0HHHHHHHHHHHHHHHHHHHHa       jHHHHHHHHHHHHHHHHHHHHHHHHHHH>uH",
"Hu>HHHHHHHHHHHHHHHHHHHHHHHHHHHHHm       0HHHHHHHHHHHHHHHHHHHHa       jHHHHHHHHHHHHHHHHHHHHHHHHHHH>uH",
"Hu>HHHHHHHHHHHHHHHHHHHHHHHHHHHHHm       0HHHHHHHHHHHHHHHHHHHHa       jHHHHHHHHHHHHHHHHHHHHHHHHHHH>uH",
"Hu>HHHHHHHHHHHHHHHHHHHHHHHHHHHHHm       0HHHHHHHHHHHHHHHHHHHHa       kHHHHHHHHHHHHHHHHHHHHHHHHHHH>uH",
"Hu>HHHHHHHHHHHHHHHHHHHHHHHHHHHHHM       0HHHHHHHHHHHHHHHHHHHHa       lHHHHHHHHHHHHHHHHHHHHHHHHHHH>uH",
"Hu>HHHHHHHHHHHHHHHHHHHHHHHHHHHHHN       0HHHHHHHHHHHHHHHHHHHHa       zHHHHHHHHHHHHHHHHHHHHHHHHHHH>uH",
"Hu>HHHHHHHHHHHHHHHHHHHHHHHHHHHHHV       0HHHHHHHHHHHHHHHHHHHHa       cHHHHHHHHHHHHHHHHHHHHHHHHHHH>uH",
"Hu>HHHHHHHHHHHHHHHHHHHHHHHHHHHHHZ       0HHHHHHHHHHHHHHHHHHHHa       nHHHHHHHHHHHHHHHHHHHHHHHHHHH>uH",
"Hu>HHHHHHHHHHHHHHHHHHHHHHHHHHHHHF       9HHHHHHHHHHHHHHHHHHHHp       NHHHHHHHHHHHHHHHHHHHHHHHHHHH>uH",
"Hu>HHHHHHHHHHHHHHHHHHHHHHHHHHHHHH       8HHHHHHHHHHHHHHHHHHHHi       ZHHHHHHHHHHHHHHHHHHHHHHHHHHH>uH",
"Hu>HHHHHHHHHHHHHHHHHHHHHHHHHHHHHH*      6HHHHHHHHHHHHHHHHHHHHr       GHHHHHHHHHHHHHHHHHHHHHHHHHHH>uH",
"Hu>HHHHHHHHHHHHHHHHHHHHHHHHHHHHHH2      <HHHHHHHHHHHHHHHHHHHHq      &HHHHHHHHHHHHHHHHHHHHHHHHHHHH>uH",
"Hu>HHHHHHHHHHHHHHHHHHHHHHHHHHHHHHq      %HHHHHHHHHHHHHHHHHHHH5      2HHHHHHHHHHHHHHHHHHHHHHHHHHHH>uH",
"Hu>HHHHHHHHHHHHHHHHHHHHHHHHHHHHHHf       ZHHHHHHHHHHHHHHHHHHH@      wHHHHHHHHHHHHHHHHHHHHHHHHHHHH>uH",
"Hu>HHHHHHHHHHHHHHHHHHHHHHHHHHHHHHN       fHHHHHHHHHHHHHHHHHHb       hHHHHHHHHHHHHHHHHHHHHHHHHHHHH>uH",
"Hu>HHHHHHHHHHHHHHHHHHHHHHHHHHHHHHH=      -GHHHHHHHHHHHHHHHHH6       ZHHHHHHHHHHHHHHHHHHHHHHHHHHHH>uH",
"Hu>HHHHHHHHHHHHHHHHHHHHHHHHHHHHHHHu       wHHHHHHHHHHHHHHHHd       3HHHHHHHHHHHHHHHHHHHHHHHHHHHHH>uH",
"Hu>HHHHHHHHHHHHHHHHHHHHHHHHHHHHHHHZX       yHHHHHHHHHHHHHHf.       xHHHHHHHHHHHHHHHHHHHHHHHHHHHHH>uH",
"Hu>HHHHHHHHHHHHHHHHHHHHHHHHHHHHHHHHe        2mHHHHHHHHHHC8        2HHHHHHHHHHHHHHHHHHHHHHHHHHHHHH>uH",
"Hu>HHHHHHHHHHHHHHHHHHHHHHHHHHHHHHHHF-         <pcVASVvs5         +ZHHHHHHHHHHHHHHHHHHHHHHHHHHHHHH>uH",
"Hu>HHHHHHHHHHHHHHHHHHHHHHHHHHHHHHHHHN@                          XcHHHHHHHHHHHHHHHHHHHHHHHHHHHHHHH>uH",
"Hu>HHHHHHHHHHHHHHHHHHHHHHHHHHHHHHHHHHm*                        OxHHHHHHHHHHHHHHHHHHHHHHHHHHHHHHHH>uH",
"Hu>HHHHHHHHHHHHHHHHHHHHHHHHHHHHHHHHHHHS5                      ,BHHHHHHHHHHHHHHHHHHHHHHHHHHHHHHHHH>uH",
"Hu>HHHHHHHHHHHHHHHHHHHHHHHHHHHHHHHHHHHHHj;                  *dHHHHHHHHHHHHHHHHHHHHHHHHHHHHHHHHHHH>uH",
"Hu>HHHHHHHHHHHHHHHHHHHHHHHHHHHHHHHHHHHHHHHk4              ,gGHHHHHHHHHHHHHHHHHHHHHHHHHHHHHHHHHHHH>uH",
"Hu>HHHHHHHHHHHHHHHHHHHHHHHHHHHHHHHHHHHHHHHHHDly7:$oX#-5ehZHHHHHHHHHHHHHHHHHHHHHHHHHHHHHHHHHHHHHHH>uH",
"Hu>HHHHHHHHHHHHHHHHHHHHHHHHHHHHHHHHHHHHHHHHHHHHHHHHHHHHHHHHHHHHHHHHHHHHHHHHHHHHHHHHHHHHHHHHHHHHHH>uH",
"Hu>HHHHHHHHHHHHHHHHHHHHHHHHHHHHHHHHHHHHHHHHHHHHHHHHHHHHHHHHHHHHHHHHHHHHHHHHHHHHHHHHHHHHHHHHHHHHHH>uH",
"Hu>HHHHHHHHHHHHHHHHHHHHHHHHHHHHHHHHHHHHHHHHHHHHHHHHHHHHHHHHHHHHHHHHHHHHHHHHHHHHHHHHHHHHHHHHHHHHHH>uH",
"Hu>HHHHHHHHHHHHHHHHHHHHHHHHHHHHHHHHHHHHHHHHHHHHHHHHHHHHHHHHHHHHHHHHHHHHHHHHHHHHHHHHHHHHHHHHHHHHHH>uH",
"Hu>HHHHHHHHHHHHHHHHHHHHHHHHHHHHHHHHHHHHHHHHHHHHHHHHHHHHHHHHHHHHHHHHHHHHHHHHHHHHHHHHHHHHHHHHHHHHHH>uH",
"Hu>HHHHHHHHHHHHHHHHHHHHHHHHHHHHHHHHHHHHHHHHHHHHHHHHHHHHHHHHHHHHHHHHHHHHHHHHHHHHHHHHHHHHHHHHHHHHHH>uH",
"Hu>HHHHHHHHHHHHHHHHHHHHHHHHHHHHHHHHHHHHHHHHHHHHHHHHHHHHHHHHHHHHHHHHHHHHHHHHHHHHHHHHHHHHHHHHHHHHHH>uH",
"Hu>HHHHHHHHHHHHHHHHHHHHHHHHHHHHHHHHHHHHHHHHHHHHHHHHHHHHHHHHHHHHHHHHHHHHHHHHHHHHHHHHHHHHHHHHHHHHHH>uH",
"Hu>HHHHHHHHHHHHHHHHHHHHHHHHHHHHHHHHHHHHHHHHHHHHHHHHHHHHHHHHHHHHHHHHHHHHHHHHHHHHHHHHHHHHHHHHHHHHHH>uH",
"Hu>HHHHHHHHHHHHHHHHHHHHHHHHHHHHHHHHHHHHHHHHHHHHHHHHHHHHHHHHHHHHHHHHHHHHHHHHHHHHHHHHHHHHHHHHHHHHHH>uH",
"Hu>HHHHHHHHHHHHHHHHHHHHHHHHHHHHHHHHHHHHHHHHHHHHHHHHHHHHHHHHHHHHHHHHHHHHHHHHHHHHHHHHHHHHHHHHHHHHHH>uH",
"Hu>HHHHHHHHHHHHHHHHHHHHHHHHHHHHHHHHHHHHHHHHHHHHHHHHHHHHHHHHHHHHHHHHHHHHHHHHHHHHHHHHHHHHHHHHHHHHHH>uH",
"Hu>HHHHHHHHHHHHHHHHHHHHHHHHHHHHHHHHHHHHHHHHHHHHHHHHHHHHHHHHHHHHHHHHHHHHHHHHHHHHHHHHHHHHHHHHHHHHHH>uH",
"Hu>HHHHHHHHHHHHHHHHHHHHHHHHHHHHHHHHHHHHHHHHHHHHHHHHHHHHHHHHHHHHHHHHHHHHHHHHHHHHHHHHHHHHHHHHHHHHHH>uH",
"Hu>HHHHHHHHHHHHHHHHHHHHHHHHHHHHHHHHHHHHHHHHHHHHHHHHHHHHHHHHHHHHHHHHHHHHHHHHHHHHHHHHHHHHHHHHHHHHHH>uH",
"Hu>HHHHHHHHHHHHHHHHHHHHHHHHHHHHHHHHHHHHHHHHHHHHHHHHHHHHHHHHHHHHHHHHHHHHHHHHHHHHHHHHHHHHHHHHHHHHHH>uH",
"Hu1HHHHHHHHHHHHHHHHHHHHHHHHHHHHHHHHHHHHHHHHHHHHHHHHHHHHHHHHHHHHHHHHHHHHHHHHHHHHHHHHHHHHHHHHHHHHHH>uH",
"Hu>>>>>>>>>>>>>>>>>>>>>>>>>>>>>>>>>>>>>>>>>>>>>>>>>>>>>>>>>>>>>>>>>>>>>>>>>>>>>>>>>>>>>>>>>>>>>>>>uH",
"HtuuuuuuuuuuuuuuuuuuuuuuuuuuuuuuuuuuuuuuuuuuuuuuuuuuuuuuuuuuuuuuuuuuuuuuuuuuuuuuuuuuuuuuuuuuuuuuuutH",
"HHHHHHHHHHHHHHHHHHHHHHHHHHHHHHHHHHHHHHHHHHHHHHHHHHHHHHHHHHHHHHHHHHHHHHHHHHHHHHHHHHHHHHHHHHHHHHHHHHHH"
};
