/* XPM */
static char *u1[] = {
/* columns rows colors chars-per-pixel */
"100 100 61 1 ",
"  c #686868",
". c #7C7C7C",
"X c #348032",
"o c #378135",
"O c #3C823B",
"+ c #448542",
"@ c #468644",
"# c #528A51",
"$ c #558C54",
"% c #5C8F5B",
"& c #659364",
"* c #669465",
"= c #6F996E",
"- c #739B72",
"; c #749B73",
": c #769D76",
"> c #7B9F7A",
", c #7FA27E",
"< c #80A280",
"1 c #83A483",
"2 c #87A787",
"3 c #88A788",
"4 c #8BA98A",
"5 c #8FAB8E",
"6 c #8FAC8F",
"7 c #96B095",
"8 c #9BB39A",
"9 c #9FB79F",
"0 c #AFAFAF",
"q c #A2B8A1",
"w c #A4BAA4",
"e c #A8BDA8",
"r c #ACBFAC",
"t c gray70",
"y c #B0C2B0",
"u c #B7C7B7",
"i c #B8C8B7",
"p c #BACABA",
"a c #BDCBBD",
"s c #BFCDBE",
"d c #C1CEC0",
"f c #C2D0C2",
"g c #C6D2C6",
"h c #CBD6CA",
"j c #CDD8CD",
"k c #D1DBD1",
"l c #D2DCD2",
"z c #D6DED6",
"x c #D8E0D8",
"c c #DEE5DE",
"v c #E2E8E2",
"b c #E6EBE5",
"n c #EBEFEB",
"m c #EDF1ED",
"M c #F0F3F0",
"N c #F2F5F2",
"B c #F5F7F5",
"V c #F7F9F7",
"C c #FAFBFA",
"Z c #FBFCFB",
"A c white",
/* pixels */
"AAAAAAAAAAAAAAAAAAAAAAAAAAAAAAAAAAAAAAAAAAAAAAAAAAAAAAAAAAAAAAAAAAAAAAAAAAAAAAAAAAAAAAAAAAAAAAAAAAAA",
"A0tttttttttttttttttttttttttttttttttttttttttttttttttttttttttttttttttttttttttttttttttttttttttttttttt0A",
"At                                                                                                tA",
"At XXXXXXXXXXXXXXXXXXXXXXXXXXXXXXXXXXXXXXXXXXXXXXXXXXXXXXXXXXXXXXXXXXXXXXXXXXXXXXXXXXXXXXXXXXXXXX tA",
"At XXXXXXXXXXXXXXXXXXXXXXXXXXXXXXXXXXXXXXXXXXXXXXXXXXXXXXXXXXXXXXXXXXXXXXXXXXXXXXXXXXXXXXXXXXXXXX tA",
"At XXXXXXXXXXXXXXXXXXXXXXXXXXXXXXXXXXXXXXXXXXXXXXXXXXXXXXXXXXXXXXXXXXXXXXXXXXXXXXXXXXXXXXXXXXXXXX tA",
"At XXXXXXXXXXXXXXXXXXXXXXXXXXXXXXXXXXXXXXXXXXXXXXXXXXXXXXXXXXXXXXXXXXXXXXXXXXXXXXXXXXXXXXXXXXXXXX tA",
"At XXXXXXXXXXXXXXXXXXXXXXXXXXXXXXXXXXXXXXXXXXXXXXXXXXXXXXXXXXXXXXXXXXXXXXXXXXXXXXXXXXXXXXXXXXXXXX tA",
"At XXXXXXXXXXXXXXXXXXXXXXXXXXXXXXXXXXXXXXXXXXXXXXXXXXXXXXXXXXXXXXXXXXXXXXXXXXXXXXXXXXXXXXXXXXXXXX tA",
"At XXXXXXXXXXXXXXXXXXXXXXXXXXXXXXXXXXXXXXXXXXXXXXXXXXXXXXXXXXXXXXXXXXXXXXXXXXXXXXXXXXXXXXXXXXXXXX tA",
"At XXXXXXXXXXXXXXXXXXXXXXXXXXXXXXXXXXXXXXXXXXXXXXXXXXXXXXXXXXXXXXXXXXXXXXXXXXXXXXXXXXXXXXXXXXXXXX tA",
"At XXXXXXXXXXXXXXXXXXXXXXXXXXXXXXXXXXXXXXXXXXXXXXXXXXXXXXXXXXXXXXXXXXXXXXXXXXXXXXXXXXXXXXXXXXXXXX tA",
"At XXXXXXXXXXXXXXXXXXXXXXXXXXXXXXXXXXXXXXXXXXXXXXXXXXXXXXXXXXXXXXXXXXXXXXXXXXXXXXXXXXXXXXXXXXXXXX tA",
"At XXXXXXXXXXXXXXXXXXXXXXXXXXXXXXXXXXXXXXXXXXXXXXXXXXXXXXXXXXXXXXXXXXXXXXXXXXXXXXXXXXXXXXXXXXXXXX tA",
"At XXXXXXXXXXXXXXXXXXXXXXXXXXXXXXXXXXXXXXXXXXXXXXXXXXXXXXXXXXXXXXXXXXXXXXXXXXXXXXXXXXXXXXXXXXXXXX tA",
"At XXXXXXXXXXXXXXXXXXXXXXXXXXXXXXXXXXXXXXXXXXXXXXXXXXXXXXXXXXXXXXXXXXXXXXXXXXXXXXXXXXXXXXXXXXXXXX tA",
"At XXXXXXXXXXXXXXXXXXXXXXXXXXXXXXXXXXXXXXXXXXXXXXXXXXXXXXXXXXXXXXXXXXXXXXXXXXXXXXXXXXXXXXXXXXXXXX tA",
"At XXXXXXXXXXXXXXXXXXXXXXXXXXXXXXXXXXXXXXXXXXXXXXXXXXXXXXXXXXXXXXXXXXXXXXXXXXXXXXXXXXXXXXXXXXXXXX tA",
"At XXXXXXXXXXXXXXXXXXXXXXXXXXXXXXXXXXXXXXXXXXXXXXXXXXXXXXXXXXXXXXXXXXXXXXXXXXXXXXXXXXXXXXXXXXXXXX tA",
"At XXXXXXXXXXXXXXXXXXXXXXXXXXXXXXXXXXXXXXXXXXXXXXXXXXXXXXXXXXXXXXXXXXXXXXXXXXXXXXXXXXXXXXXXXXXXXX tA",
"At XXXXXXXXXXXXXXXXXXXXXXXXXXXXX6AAAAAAAxXXXXXXXXXXXXXXXXXXXXsAAAAAAArXXXXXXXXXXXXXXXXXXXXXXXXXXX tA",
"At XXXXXXXXXXXXXXXXXXXXXXXXXXXXX6AAAAAAAxXXXXXXXXXXXXXXXXXXXXsAAAAAAArXXXXXXXXXXXXXXXXXXXXXXXXXXX tA",
"At XXXXXXXXXXXXXXXXXXXXXXXXXXXXX6AAAAAAAxXXXXXXXXXXXXXXXXXXXXsAAAAAAArXXXXXXXXXXXXXXXXXXXXXXXXXXX tA",
"At XXXXXXXXXXXXXXXXXXXXXXXXXXXXX6AAAAAAAxXXXXXXXXXXXXXXXXXXXXsAAAAAAArXXXXXXXXXXXXXXXXXXXXXXXXXXX tA",
"At XXXXXXXXXXXXXXXXXXXXXXXXXXXXX6AAAAAAAxXXXXXXXXXXXXXXXXXXXXsAAAAAAArXXXXXXXXXXXXXXXXXXXXXXXXXXX tA",
"At XXXXXXXXXXXXXXXXXXXXXXXXXXXXX6AAAAAAAxXXXXXXXXXXXXXXXXXXXXsAAAAAAArXXXXXXXXXXXXXXXXXXXXXXXXXXX tA",
"At XXXXXXXXXXXXXXXXXXXXXXXXXXXXX6AAAAAAAxXXXXXXXXXXXXXXXXXXXXsAAAAAAArXXXXXXXXXXXXXXXXXXXXXXXXXXX tA",
"At XXXXXXXXXXXXXXXXXXXXXXXXXXXXX6AAAAAAAxXXXXXXXXXXXXXXXXXXXXsAAAAAAArXXXXXXXXXXXXXXXXXXXXXXXXXXX tA",
"At XXXXXXXXXXXXXXXXXXXXXXXXXXXXX6AAAAAAAxXXXXXXXXXXXXXXXXXXXXsAAAAAAArXXXXXXXXXXXXXXXXXXXXXXXXXXX tA",
"At XXXXXXXXXXXXXXXXXXXXXXXXXXXXX6AAAAAAAxXXXXXXXXXXXXXXXXXXXXsAAAAAAArXXXXXXXXXXXXXXXXXXXXXXXXXXX tA",
"At XXXXXXXXXXXXXXXXXXXXXXXXXXXXX6AAAAAAAxXXXXXXXXXXXXXXXXXXXXsAAAAAAArXXXXXXXXXXXXXXXXXXXXXXXXXXX tA",
"At XXXXXXXXXXXXXXXXXXXXXXXXXXXXX6AAAAAAAxXXXXXXXXXXXXXXXXXXXXsAAAAAAArXXXXXXXXXXXXXXXXXXXXXXXXXXX tA",
"At XXXXXXXXXXXXXXXXXXXXXXXXXXXXX6AAAAAAAxXXXXXXXXXXXXXXXXXXXXsAAAAAAArXXXXXXXXXXXXXXXXXXXXXXXXXXX tA",
"At XXXXXXXXXXXXXXXXXXXXXXXXXXXXX6AAAAAAAxXXXXXXXXXXXXXXXXXXXXsAAAAAAArXXXXXXXXXXXXXXXXXXXXXXXXXXX tA",
"At XXXXXXXXXXXXXXXXXXXXXXXXXXXXX6AAAAAAAxXXXXXXXXXXXXXXXXXXXXsAAAAAAArXXXXXXXXXXXXXXXXXXXXXXXXXXX tA",
"At XXXXXXXXXXXXXXXXXXXXXXXXXXXXX6AAAAAAAxXXXXXXXXXXXXXXXXXXXXsAAAAAAArXXXXXXXXXXXXXXXXXXXXXXXXXXX tA",
"At XXXXXXXXXXXXXXXXXXXXXXXXXXXXX6AAAAAAAxXXXXXXXXXXXXXXXXXXXXsAAAAAAArXXXXXXXXXXXXXXXXXXXXXXXXXXX tA",
"At XXXXXXXXXXXXXXXXXXXXXXXXXXXXX6AAAAAAAxXXXXXXXXXXXXXXXXXXXXsAAAAAAArXXXXXXXXXXXXXXXXXXXXXXXXXXX tA",
"At XXXXXXXXXXXXXXXXXXXXXXXXXXXXX6AAAAAAAxXXXXXXXXXXXXXXXXXXXXsAAAAAAArXXXXXXXXXXXXXXXXXXXXXXXXXXX tA",
"At XXXXXXXXXXXXXXXXXXXXXXXXXXXXX6AAAAAAAxXXXXXXXXXXXXXXXXXXXXsAAAAAAArXXXXXXXXXXXXXXXXXXXXXXXXXXX tA",
"At XXXXXXXXXXXXXXXXXXXXXXXXXXXXX6AAAAAAAxXXXXXXXXXXXXXXXXXXXXsAAAAAAArXXXXXXXXXXXXXXXXXXXXXXXXXXX tA",
"At XXXXXXXXXXXXXXXXXXXXXXXXXXXXX6AAAAAAAxXXXXXXXXXXXXXXXXXXXXsAAAAAAArXXXXXXXXXXXXXXXXXXXXXXXXXXX tA",
"At XXXXXXXXXXXXXXXXXXXXXXXXXXXXX6AAAAAAAxXXXXXXXXXXXXXXXXXXXXsAAAAAAArXXXXXXXXXXXXXXXXXXXXXXXXXXX tA",
"At XXXXXXXXXXXXXXXXXXXXXXXXXXXXX6AAAAAAAxXXXXXXXXXXXXXXXXXXXXsAAAAAAArXXXXXXXXXXXXXXXXXXXXXXXXXXX tA",
"At XXXXXXXXXXXXXXXXXXXXXXXXXXXXX6AAAAAAAxXXXXXXXXXXXXXXXXXXXXsAAAAAAArXXXXXXXXXXXXXXXXXXXXXXXXXXX tA",
"At XXXXXXXXXXXXXXXXXXXXXXXXXXXXX6AAAAAAAxXXXXXXXXXXXXXXXXXXXXsAAAAAAArXXXXXXXXXXXXXXXXXXXXXXXXXXX tA",
"At XXXXXXXXXXXXXXXXXXXXXXXXXXXXX6AAAAAAAxXXXXXXXXXXXXXXXXXXXXsAAAAAAArXXXXXXXXXXXXXXXXXXXXXXXXXXX tA",
"At XXXXXXXXXXXXXXXXXXXXXXXXXXXXX6AAAAAAAxXXXXXXXXXXXXXXXXXXXXsAAAAAAArXXXXXXXXXXXXXXXXXXXXXXXXXXX tA",
"At XXXXXXXXXXXXXXXXXXXXXXXXXXXXX6AAAAAAAxXXXXXXXXXXXXXXXXXXXXsAAAAAAArXXXXXXXXXXXXXXXXXXXXXXXXXXX tA",
"At XXXXXXXXXXXXXXXXXXXXXXXXXXXXX6AAAAAAAxXXXXXXXXXXXXXXXXXXXXsAAAAAAArXXXXXXXXXXXXXXXXXXXXXXXXXXX tA",
"At XXXXXXXXXXXXXXXXXXXXXXXXXXXXX6AAAAAAAxXXXXXXXXXXXXXXXXXXXXsAAAAAAArXXXXXXXXXXXXXXXXXXXXXXXXXXX tA",
"At XXXXXXXXXXXXXXXXXXXXXXXXXXXXX6AAAAAAAxXXXXXXXXXXXXXXXXXXXXsAAAAAAArXXXXXXXXXXXXXXXXXXXXXXXXXXX tA",
"At XXXXXXXXXXXXXXXXXXXXXXXXXXXXX6AAAAAAAxXXXXXXXXXXXXXXXXXXXXsAAAAAAArXXXXXXXXXXXXXXXXXXXXXXXXXXX tA",
"At XXXXXXXXXXXXXXXXXXXXXXXXXXXXX6AAAAAAAxXXXXXXXXXXXXXXXXXXXXsAAAAAAArXXXXXXXXXXXXXXXXXXXXXXXXXXX tA",
"At XXXXXXXXXXXXXXXXXXXXXXXXXXXXX6AAAAAAAxXXXXXXXXXXXXXXXXXXXXsAAAAAAArXXXXXXXXXXXXXXXXXXXXXXXXXXX tA",
"At XXXXXXXXXXXXXXXXXXXXXXXXXXXXX6AAAAAAAxXXXXXXXXXXXXXXXXXXXXsAAAAAAArXXXXXXXXXXXXXXXXXXXXXXXXXXX tA",
"At XXXXXXXXXXXXXXXXXXXXXXXXXXXXX5AAAAAAAxXXXXXXXXXXXXXXXXXXXXsAAAAAAAeXXXXXXXXXXXXXXXXXXXXXXXXXXX tA",
"At XXXXXXXXXXXXXXXXXXXXXXXXXXXXX5AAAAAAAxXXXXXXXXXXXXXXXXXXXXsAAAAAAAeXXXXXXXXXXXXXXXXXXXXXXXXXXX tA",
"At XXXXXXXXXXXXXXXXXXXXXXXXXXXXX4AAAAAAAxXXXXXXXXXXXXXXXXXXXXsAAAAAAAeXXXXXXXXXXXXXXXXXXXXXXXXXXX tA",
"At XXXXXXXXXXXXXXXXXXXXXXXXXXXXX2AAAAAAAxXXXXXXXXXXXXXXXXXXXXsAAAAAAAwXXXXXXXXXXXXXXXXXXXXXXXXXXX tA",
"At XXXXXXXXXXXXXXXXXXXXXXXXXXXXX,AAAAAAAxXXXXXXXXXXXXXXXXXXXXsAAAAAAA9XXXXXXXXXXXXXXXXXXXXXXXXXXX tA",
"At XXXXXXXXXXXXXXXXXXXXXXXXXXXXX;AAAAAAAxXXXXXXXXXXXXXXXXXXXXdAAAAAAA7XXXXXXXXXXXXXXXXXXXXXXXXXXX tA",
"At XXXXXXXXXXXXXXXXXXXXXXXXXXXXX&AAAAAAAxXXXXXXXXXXXXXXXXXXXXfAAAAAAA4XXXXXXXXXXXXXXXXXXXXXXXXXXX tA",
"At XXXXXXXXXXXXXXXXXXXXXXXXXXXXX@AAAAAAAcXXXXXXXXXXXXXXXXXXXXgAAAAAAA:XXXXXXXXXXXXXXXXXXXXXXXXXXX tA",
"At XXXXXXXXXXXXXXXXXXXXXXXXXXXXXXCAAAAAAvXXXXXXXXXXXXXXXXXXXXjAAAAAAA$XXXXXXXXXXXXXXXXXXXXXXXXXXX tA",
"At XXXXXXXXXXXXXXXXXXXXXXXXXXXXXXnAAAAAAnXXXXXXXXXXXXXXXXXXXXzAAAAAACXXXXXXXXXXXXXXXXXXXXXXXXXXXX tA",
"At XXXXXXXXXXXXXXXXXXXXXXXXXXXXXXzAAAAAACoXXXXXXXXXXXXXXXXXXXbAAAAAAnXXXXXXXXXXXXXXXXXXXXXXXXXXXX tA",
"At XXXXXXXXXXXXXXXXXXXXXXXXXXXXXXuAAAAAAA-XXXXXXXXXXXXXXXXXXOCAAAAAAkXXXXXXXXXXXXXXXXXXXXXXXXXXXX tA",
"At XXXXXXXXXXXXXXXXXXXXXXXXXXXXXX2AAAAAAAiXXXXXXXXXXXXXXXXXX8AAAAAAAyXXXXXXXXXXXXXXXXXXXXXXXXXXXX tA",
"At XXXXXXXXXXXXXXXXXXXXXXXXXXXXXXOBAAAAAAN#XXXXXXXXXXXXXXXXobAAAAAAA-XXXXXXXXXXXXXXXXXXXXXXXXXXXX tA",
"At XXXXXXXXXXXXXXXXXXXXXXXXXXXXXXXhAAAAAAAlXXXXXXXXXXXXXXXXpAAAAAAAbXXXXXXXXXXXXXXXXXXXXXXXXXXXXX tA",
"At XXXXXXXXXXXXXXXXXXXXXXXXXXXXXXX:AAAAAAAAhOXXXXXXXXXXXXXuAAAAAAAAqXXXXXXXXXXXXXXXXXXXXXXXXXXXXX tA",
"At XXXXXXXXXXXXXXXXXXXXXXXXXXXXXXXXkAAAAAAAAn5XXXXXXXXXX>cAAAAAAAAnoXXXXXXXXXXXXXXXXXXXXXXXXXXXXX tA",
"At XXXXXXXXXXXXXXXXXXXXXXXXXXXXXXXX%NAAAAAAAAAnf9<-=,8abAAAAAAAAAZ>XXXXXXXXXXXXXXXXXXXXXXXXXXXXXX tA",
"At XXXXXXXXXXXXXXXXXXXXXXXXXXXXXXXXX3CAAAAAAAAAAAAAAAAAAAAAAAAAAA9XXXXXXXXXXXXXXXXXXXXXXXXXXXXXXX tA",
"At XXXXXXXXXXXXXXXXXXXXXXXXXXXXXXXXXX5VAAAAAAAAAAAAAAAAAAAAAAAAAqXXXXXXXXXXXXXXXXXXXXXXXXXXXXXXXX tA",
"At XXXXXXXXXXXXXXXXXXXXXXXXXXXXXXXXXXX=bAAAAAAAAAAAAAAAAAAAAAAm1XXXXXXXXXXXXXXXXXXXXXXXXXXXXXXXXX tA",
"At XXXXXXXXXXXXXXXXXXXXXXXXXXXXXXXXXXXXoeNAAAAAAAAAAAAAAAAAACp+XXXXXXXXXXXXXXXXXXXXXXXXXXXXXXXXXX tA",
"At XXXXXXXXXXXXXXXXXXXXXXXXXXXXXXXXXXXXXX+ebAAAAAAAAAAAAAAmu$XXXXXXXXXXXXXXXXXXXXXXXXXXXXXXXXXXXX tA",
"At XXXXXXXXXXXXXXXXXXXXXXXXXXXXXXXXXXXXXXXXX*ehvMCAACNbky:XXXXXXXXXXXXXXXXXXXXXXXXXXXXXXXXXXXXXXX tA",
"At XXXXXXXXXXXXXXXXXXXXXXXXXXXXXXXXXXXXXXXXXXXXXXXXXXXXXXXXXXXXXXXXXXXXXXXXXXXXXXXXXXXXXXXXXXXXXX tA",
"At XXXXXXXXXXXXXXXXXXXXXXXXXXXXXXXXXXXXXXXXXXXXXXXXXXXXXXXXXXXXXXXXXXXXXXXXXXXXXXXXXXXXXXXXXXXXXX tA",
"At XXXXXXXXXXXXXXXXXXXXXXXXXXXXXXXXXXXXXXXXXXXXXXXXXXXXXXXXXXXXXXXXXXXXXXXXXXXXXXXXXXXXXXXXXXXXXX tA",
"At XXXXXXXXXXXXXXXXXXXXXXXXXXXXXXXXXXXXXXXXXXXXXXXXXXXXXXXXXXXXXXXXXXXXXXXXXXXXXXXXXXXXXXXXXXXXXX tA",
"At XXXXXXXXXXXXXXXXXXXXXXXXXXXXXXXXXXXXXXXXXXXXXXXXXXXXXXXXXXXXXXXXXXXXXXXXXXXXXXXXXXXXXXXXXXXXXX tA",
"At XXXXXXXXXXXXXXXXXXXXXXXXXXXXXXXXXXXXXXXXXXXXXXXXXXXXXXXXXXXXXXXXXXXXXXXXXXXXXXXXXXXXXXXXXXXXXX tA",
"At XXXXXXXXXXXXXXXXXXXXXXXXXXXXXXXXXXXXXXXXXXXXXXXXXXXXXXXXXXXXXXXXXXXXXXXXXXXXXXXXXXXXXXXXXXXXXX tA",
"At XXXXXXXXXXXXXXXXXXXXXXXXXXXXXXXXXXXXXXXXXXXXXXXXXXXXXXXXXXXXXXXXXXXXXXXXXXXXXXXXXXXXXXXXXXXXXX tA",
"At XXXXXXXXXXXXXXXXXXXXXXXXXXXXXXXXXXXXXXXXXXXXXXXXXXXXXXXXXXXXXXXXXXXXXXXXXXXXXXXXXXXXXXXXXXXXXX tA",
"At XXXXXXXXXXXXXXXXXXXXXXXXXXXXXXXXXXXXXXXXXXXXXXXXXXXXXXXXXXXXXXXXXXXXXXXXXXXXXXXXXXXXXXXXXXXXXX tA",
"At XXXXXXXXXXXXXXXXXXXXXXXXXXXXXXXXXXXXXXXXXXXXXXXXXXXXXXXXXXXXXXXXXXXXXXXXXXXXXXXXXXXXXXXXXXXXXX tA",
"At XXXXXXXXXXXXXXXXXXXXXXXXXXXXXXXXXXXXXXXXXXXXXXXXXXXXXXXXXXXXXXXXXXXXXXXXXXXXXXXXXXXXXXXXXXXXXX tA",
"At XXXXXXXXXXXXXXXXXXXXXXXXXXXXXXXXXXXXXXXXXXXXXXXXXXXXXXXXXXXXXXXXXXXXXXXXXXXXXXXXXXXXXXXXXXXXXX tA",
"At XXXXXXXXXXXXXXXXXXXXXXXXXXXXXXXXXXXXXXXXXXXXXXXXXXXXXXXXXXXXXXXXXXXXXXXXXXXXXXXXXXXXXXXXXXXXXX tA",
"At XXXXXXXXXXXXXXXXXXXXXXXXXXXXXXXXXXXXXXXXXXXXXXXXXXXXXXXXXXXXXXXXXXXXXXXXXXXXXXXXXXXXXXXXXXXXXX tA",
"At XXXXXXXXXXXXXXXXXXXXXXXXXXXXXXXXXXXXXXXXXXXXXXXXXXXXXXXXXXXXXXXXXXXXXXXXXXXXXXXXXXXXXXXXXXXXXX tA",
"At.XXXXXXXXXXXXXXXXXXXXXXXXXXXXXXXXXXXXXXXXXXXXXXXXXXXXXXXXXXXXXXXXXXXXXXXXXXXXXXXXXXXXXXXXXXXXXX tA",
"At                                                                                                tA",
"A0tttttttttttttttttttttttttttttttttttttttttttttttttttttttttttttttttttttttttttttttttttttttttttttttt0A",
"AAAAAAAAAAAAAAAAAAAAAAAAAAAAAAAAAAAAAAAAAAAAAAAAAAAAAAAAAAAAAAAAAAAAAAAAAAAAAAAAAAAAAAAAAAAAAAAAAAAA"
};
