/* XPM */
static char *u2[] = {
/* columns rows colors chars-per-pixel */
"100 100 56 1 ",
"  c #686868",
". c #7C7C7C",
"X c #C3AF2A",
"o c #C3AF2E",
"O c #C4B034",
"+ c #C5B23F",
"@ c #C7B44C",
"# c #C7B550",
"$ c #C8B757",
"% c #CAB961",
"& c #CCBC6B",
"* c #CCBC6C",
"= c #CDBD71",
"- c #CEBF75",
"; c #CFC07A",
": c #D0C17C",
"> c #AFAFAF",
", c gray70",
"< c #D1C381",
"1 c #D2C485",
"2 c #D3C589",
"3 c #D4C78D",
"4 c #D7CB97",
"5 c #D7CC99",
"6 c #D9CE9E",
"7 c #DACFA0",
"8 c #DAD0A3",
"9 c #DCD2A7",
"0 c #DDD3AA",
"q c #DFD5AF",
"w c #DFD6B0",
"e c #E1D8B6",
"r c #E2DAB9",
"t c #E3DBBC",
"y c #E4DCBE",
"u c #E4DDC0",
"i c #E6E0C5",
"p c #E7E1C8",
"a c #E8E2CA",
"s c #E9E3CC",
"d c #EBE5D1",
"f c #EEE9D7",
"g c #EFEADA",
"h c #F0ECDE",
"j c #F2EEE1",
"k c #F3F0E5",
"l c #F4F1E6",
"z c #F5F2E8",
"x c #F6F4EB",
"c c #F7F5ED",
"v c #F8F6F0",
"b c #F9F8F2",
"n c #FBFAF7",
"m c #FCFBF8",
"M c #FDFCFA",
"N c white",
/* pixels */
"NNNNNNNNNNNNNNNNNNNNNNNNNNNNNNNNNNNNNNNNNNNNNNNNNNNNNNNNNNNNNNNNNNNNNNNNNNNNNNNNNNNNNNNNNNNNNNNNNNNN",
"N>,,,,,,,,,,,,,,,,,,,,,,,,,,,,,,,,,,,,,,,,,,,,,,,,,,,,,,,,,,,,,,,,,,,,,,,,,,,,,,,,,,,,,,,,,,,,,,,,>N",
"N,                                                                                                ,N",
"N, XXXXXXXXXXXXXXXXXXXXXXXXXXXXXXXXXXXXXXXXXXXXXXXXXXXXXXXXXXXXXXXXXXXXXXXXXXXXXXXXXXXXXXXXXXXXXX ,N",
"N, XXXXXXXXXXXXXXXXXXXXXXXXXXXXXXXXXXXXXXXXXXXXXXXXXXXXXXXXXXXXXXXXXXXXXXXXXXXXXXXXXXXXXXXXXXXXXX ,N",
"N, XXXXXXXXXXXXXXXXXXXXXXXXXXXXXXXXXXXXXXXXXXXXXXXXXXXXXXXXXXXXXXXXXXXXXXXXXXXXXXXXXXXXXXXXXXXXXX ,N",
"N, XXXXXXXXXXXXXXXXXXXXXXXXXXXXXXXXXXXXXXXXXXXXXXXXXXXXXXXXXXXXXXXXXXXXXXXXXXXXXXXXXXXXXXXXXXXXXX ,N",
"N, XXXXXXXXXXXXXXXXXXXXXXXXXXXXXXXXXXXXXXXXXXXXXXXXXXXXXXXXXXXXXXXXXXXXXXXXXXXXXXXXXXXXXXXXXXXXXX ,N",
"N, XXXXXXXXXXXXXXXXXXXXXXXXXXXXXXXXXXXXXXXXXXXXXXXXXXXXXXXXXXXXXXXXXXXXXXXXXXXXXXXXXXXXXXXXXXXXXX ,N",
"N, XXXXXXXXXXXXXXXXXXXXXXXXXXXXXXXXXXXXXXXXXXXXXXXXXXXXXXXXXXXXXXXXXXXXXXXXXXXXXXXXXXXXXXXXXXXXXX ,N",
"N, XXXXXXXXXXXXXXXXXXXXXXXXXXXXXXXXXXXXXXXXXXXXXXXXXXXXXXXXXXXXXXXXXXXXXXXXXXXXXXXXXXXXXXXXXXXXXX ,N",
"N, XXXXXXXXXXXXXXXXXXXXXXXXXXXXXXXXXXXXXXXXXXXXXXXXXXXXXXXXXXXXXXXXXXXXXXXXXXXXXXXXXXXXXXXXXXXXXX ,N",
"N, XXXXXXXXXXXXXXXXXXXXXXXXXXXXXXXXXXXXXXXXXXXXXXXXXXXXXXXXXXXXXXXXXXXXXXXXXXXXXXXXXXXXXXXXXXXXXX ,N",
"N, XXXXXXXXXXXXXXXXXXXXXXXXXXXXXXXXXXXXXXXXXXXXXXXXXXXXXXXXXXXXXXXXXXXXXXXXXXXXXXXXXXXXXXXXXXXXXX ,N",
"N, XXXXXXXXXXXXXXXXXXXXXXXXXXXXXXXXXXXXXXXXXXXXXXXXXXXXXXXXXXXXXXXXXXXXXXXXXXXXXXXXXXXXXXXXXXXXXX ,N",
"N, XXXXXXXXXXXXXXXXXXXXXXXXXXXXXXXXXXXXXXXXXXXXXXXXXXXXXXXXXXXXXXXXXXXXXXXXXXXXXXXXXXXXXXXXXXXXXX ,N",
"N, XXXXXXXXXXXXXXXXXXXXXXXXXXXXXXXXXXXXXXXXXXXXXXXXXXXXXXXXXXXXXXXXXXXXXXXXXXXXXXXXXXXXXXXXXXXXXX ,N",
"N, XXXXXXXXXXXXXXXXXXXXXXXXXXXXXXXXXXXXXXXXXXXXXXXXXXXXXXXXXXXXXXXXXXXXXXXXXXXXXXXXXXXXXXXXXXXXXX ,N",
"N, XXXXXXXXXXXXXXXXXXXXXXXXXXXXXXXXXXXXXXXXXXXXXXXXXXXXXXXXXXXXXXXXXXXXXXXXXXXXXXXXXXXXXXXXXXXXXX ,N",
"N, XXXXXXXXXXXXXXXXXXXXXXXXXXXXXXXXXXXXXXXXXXXXXXXXXXXXXXXXXXXXXXXXXXXXXXXXXXXXXXXXXXXXXXXXXXXXXX ,N",
"N, XXXXXXXXXXXXXXXXXXXXXXXXXXXXX3NNNNNNNfXXXXXXXXXXXXXXXXXXXXyNNNNNNN0XXXXXXXXXXXXXXXXXXXXXXXXXXX ,N",
"N, XXXXXXXXXXXXXXXXXXXXXXXXXXXXX3NNNNNNNfXXXXXXXXXXXXXXXXXXXXyNNNNNNN0XXXXXXXXXXXXXXXXXXXXXXXXXXX ,N",
"N, XXXXXXXXXXXXXXXXXXXXXXXXXXXXX3NNNNNNNfXXXXXXXXXXXXXXXXXXXXyNNNNNNN0XXXXXXXXXXXXXXXXXXXXXXXXXXX ,N",
"N, XXXXXXXXXXXXXXXXXXXXXXXXXXXXX3NNNNNNNfXXXXXXXXXXXXXXXXXXXXyNNNNNNN0XXXXXXXXXXXXXXXXXXXXXXXXXXX ,N",
"N, XXXXXXXXXXXXXXXXXXXXXXXXXXXXX3NNNNNNNfXXXXXXXXXXXXXXXXXXXXyNNNNNNN0XXXXXXXXXXXXXXXXXXXXXXXXXXX ,N",
"N, XXXXXXXXXXXXXXXXXXXXXXXXXXXXX3NNNNNNNfXXXXXXXXXXXXXXXXXXXXyNNNNNNN0XXXXXXXXXXXXXXXXXXXXXXXXXXX ,N",
"N, XXXXXXXXXXXXXXXXXXXXXXXXXXXXX3NNNNNNNfXXXXXXXXXXXXXXXXXXXXyNNNNNNN0XXXXXXXXXXXXXXXXXXXXXXXXXXX ,N",
"N, XXXXXXXXXXXXXXXXXXXXXXXXXXXXX3NNNNNNNfXXXXXXXXXXXXXXXXXXXXyNNNNNNN0XXXXXXXXXXXXXXXXXXXXXXXXXXX ,N",
"N, XXXXXXXXXXXXXXXXXXXXXXXXXXXXX3NNNNNNNfXXXXXXXXXXXXXXXXXXXXyNNNNNNN0XXXXXXXXXXXXXXXXXXXXXXXXXXX ,N",
"N, XXXXXXXXXXXXXXXXXXXXXXXXXXXXX3NNNNNNNfXXXXXXXXXXXXXXXXXXXXyNNNNNNN0XXXXXXXXXXXXXXXXXXXXXXXXXXX ,N",
"N, XXXXXXXXXXXXXXXXXXXXXXXXXXXXX3NNNNNNNfXXXXXXXXXXXXXXXXXXXXyNNNNNNN0XXXXXXXXXXXXXXXXXXXXXXXXXXX ,N",
"N, XXXXXXXXXXXXXXXXXXXXXXXXXXXXX3NNNNNNNfXXXXXXXXXXXXXXXXXXXXyNNNNNNN0XXXXXXXXXXXXXXXXXXXXXXXXXXX ,N",
"N, XXXXXXXXXXXXXXXXXXXXXXXXXXXXX3NNNNNNNfXXXXXXXXXXXXXXXXXXXXyNNNNNNN0XXXXXXXXXXXXXXXXXXXXXXXXXXX ,N",
"N, XXXXXXXXXXXXXXXXXXXXXXXXXXXXX3NNNNNNNfXXXXXXXXXXXXXXXXXXXXyNNNNNNN0XXXXXXXXXXXXXXXXXXXXXXXXXXX ,N",
"N, XXXXXXXXXXXXXXXXXXXXXXXXXXXXX3NNNNNNNfXXXXXXXXXXXXXXXXXXXXyNNNNNNN0XXXXXXXXXXXXXXXXXXXXXXXXXXX ,N",
"N, XXXXXXXXXXXXXXXXXXXXXXXXXXXXX3NNNNNNNfXXXXXXXXXXXXXXXXXXXXyNNNNNNN0XXXXXXXXXXXXXXXXXXXXXXXXXXX ,N",
"N, XXXXXXXXXXXXXXXXXXXXXXXXXXXXX3NNNNNNNfXXXXXXXXXXXXXXXXXXXXyNNNNNNN0XXXXXXXXXXXXXXXXXXXXXXXXXXX ,N",
"N, XXXXXXXXXXXXXXXXXXXXXXXXXXXXX3NNNNNNNfXXXXXXXXXXXXXXXXXXXXyNNNNNNN0XXXXXXXXXXXXXXXXXXXXXXXXXXX ,N",
"N, XXXXXXXXXXXXXXXXXXXXXXXXXXXXX3NNNNNNNfXXXXXXXXXXXXXXXXXXXXyNNNNNNN0XXXXXXXXXXXXXXXXXXXXXXXXXXX ,N",
"N, XXXXXXXXXXXXXXXXXXXXXXXXXXXXX3NNNNNNNfXXXXXXXXXXXXXXXXXXXXyNNNNNNN0XXXXXXXXXXXXXXXXXXXXXXXXXXX ,N",
"N, XXXXXXXXXXXXXXXXXXXXXXXXXXXXX3NNNNNNNfXXXXXXXXXXXXXXXXXXXXyNNNNNNN0XXXXXXXXXXXXXXXXXXXXXXXXXXX ,N",
"N, XXXXXXXXXXXXXXXXXXXXXXXXXXXXX3NNNNNNNfXXXXXXXXXXXXXXXXXXXXyNNNNNNN0XXXXXXXXXXXXXXXXXXXXXXXXXXX ,N",
"N, XXXXXXXXXXXXXXXXXXXXXXXXXXXXX3NNNNNNNfXXXXXXXXXXXXXXXXXXXXyNNNNNNN0XXXXXXXXXXXXXXXXXXXXXXXXXXX ,N",
"N, XXXXXXXXXXXXXXXXXXXXXXXXXXXXX3NNNNNNNfXXXXXXXXXXXXXXXXXXXXyNNNNNNN0XXXXXXXXXXXXXXXXXXXXXXXXXXX ,N",
"N, XXXXXXXXXXXXXXXXXXXXXXXXXXXXX3NNNNNNNfXXXXXXXXXXXXXXXXXXXXyNNNNNNN0XXXXXXXXXXXXXXXXXXXXXXXXXXX ,N",
"N, XXXXXXXXXXXXXXXXXXXXXXXXXXXXX3NNNNNNNfXXXXXXXXXXXXXXXXXXXXyNNNNNNN0XXXXXXXXXXXXXXXXXXXXXXXXXXX ,N",
"N, XXXXXXXXXXXXXXXXXXXXXXXXXXXXX3NNNNNNNfXXXXXXXXXXXXXXXXXXXXyNNNNNNN0XXXXXXXXXXXXXXXXXXXXXXXXXXX ,N",
"N, XXXXXXXXXXXXXXXXXXXXXXXXXXXXX3NNNNNNNfXXXXXXXXXXXXXXXXXXXXyNNNNNNN0XXXXXXXXXXXXXXXXXXXXXXXXXXX ,N",
"N, XXXXXXXXXXXXXXXXXXXXXXXXXXXXX3NNNNNNNfXXXXXXXXXXXXXXXXXXXXyNNNNNNN0XXXXXXXXXXXXXXXXXXXXXXXXXXX ,N",
"N, XXXXXXXXXXXXXXXXXXXXXXXXXXXXX3NNNNNNNfXXXXXXXXXXXXXXXXXXXXyNNNNNNN0XXXXXXXXXXXXXXXXXXXXXXXXXXX ,N",
"N, XXXXXXXXXXXXXXXXXXXXXXXXXXXXX3NNNNNNNfXXXXXXXXXXXXXXXXXXXXyNNNNNNN0XXXXXXXXXXXXXXXXXXXXXXXXXXX ,N",
"N, XXXXXXXXXXXXXXXXXXXXXXXXXXXXX3NNNNNNNfXXXXXXXXXXXXXXXXXXXXyNNNNNNN0XXXXXXXXXXXXXXXXXXXXXXXXXXX ,N",
"N, XXXXXXXXXXXXXXXXXXXXXXXXXXXXX3NNNNNNNfXXXXXXXXXXXXXXXXXXXXyNNNNNNN0XXXXXXXXXXXXXXXXXXXXXXXXXXX ,N",
"N, XXXXXXXXXXXXXXXXXXXXXXXXXXXXX3NNNNNNNfXXXXXXXXXXXXXXXXXXXXyNNNNNNN0XXXXXXXXXXXXXXXXXXXXXXXXXXX ,N",
"N, XXXXXXXXXXXXXXXXXXXXXXXXXXXXX3NNNNNNNfXXXXXXXXXXXXXXXXXXXXyNNNNNNN0XXXXXXXXXXXXXXXXXXXXXXXXXXX ,N",
"N, XXXXXXXXXXXXXXXXXXXXXXXXXXXXX3NNNNNNNfXXXXXXXXXXXXXXXXXXXXyNNNNNNN0XXXXXXXXXXXXXXXXXXXXXXXXXXX ,N",
"N, XXXXXXXXXXXXXXXXXXXXXXXXXXXXX3NNNNNNNfXXXXXXXXXXXXXXXXXXXXyNNNNNNN0XXXXXXXXXXXXXXXXXXXXXXXXXXX ,N",
"N, XXXXXXXXXXXXXXXXXXXXXXXXXXXXX3NNNNNNNfXXXXXXXXXXXXXXXXXXXXyNNNNNNN0XXXXXXXXXXXXXXXXXXXXXXXXXXX ,N",
"N, XXXXXXXXXXXXXXXXXXXXXXXXXXXXX2NNNNNNNfXXXXXXXXXXXXXXXXXXXXyNNNNNNN9XXXXXXXXXXXXXXXXXXXXXXXXXXX ,N",
"N, XXXXXXXXXXXXXXXXXXXXXXXXXXXXX1NNNNNNNfXXXXXXXXXXXXXXXXXXXXyNNNNNNN8XXXXXXXXXXXXXXXXXXXXXXXXXXX ,N",
"N, XXXXXXXXXXXXXXXXXXXXXXXXXXXXX:NNNNNNNfXXXXXXXXXXXXXXXXXXXXyNNNNNNN6XXXXXXXXXXXXXXXXXXXXXXXXXXX ,N",
"N, XXXXXXXXXXXXXXXXXXXXXXXXXXXXX=NNNNNNNgXXXXXXXXXXXXXXXXXXXXuNNNNNNN4XXXXXXXXXXXXXXXXXXXXXXXXXXX ,N",
"N, XXXXXXXXXXXXXXXXXXXXXXXXXXXXX%NNNNNNNgXXXXXXXXXXXXXXXXXXXXuNNNNNNN2XXXXXXXXXXXXXXXXXXXXXXXXXXX ,N",
"N, XXXXXXXXXXXXXXXXXXXXXXXXXXXXX+NNNNNNNhXXXXXXXXXXXXXXXXXXXXiNNNNNNN=XXXXXXXXXXXXXXXXXXXXXXXXXXX ,N",
"N, XXXXXXXXXXXXXXXXXXXXXXXXXXXXXXmNNNNNNjXXXXXXXXXXXXXXXXXXXXsNNNNNNN#XXXXXXXXXXXXXXXXXXXXXXXXXXX ,N",
"N, XXXXXXXXXXXXXXXXXXXXXXXXXXXXXXzNNNNNNxXXXXXXXXXXXXXXXXXXXXfNNNNNNmXXXXXXXXXXXXXXXXXXXXXXXXXXXX ,N",
"N, XXXXXXXXXXXXXXXXXXXXXXXXXXXXXXfNNNNNNmoXXXXXXXXXXXXXXXXXXXkNNNNNNzXXXXXXXXXXXXXXXXXXXXXXXXXXXX ,N",
"N, XXXXXXXXXXXXXXXXXXXXXXXXXXXXXXeNNNNNNN=XXXXXXXXXXXXXXXXXXOMNNNNNNdXXXXXXXXXXXXXXXXXXXXXXXXXXXX ,N",
"N, XXXXXXXXXXXXXXXXXXXXXXXXXXXXXX1NNNNNNNeXXXXXXXXXXXXXXXXXX4NNNNNNNwXXXXXXXXXXXXXXXXXXXXXXXXXXXX ,N",
"N, XXXXXXXXXXXXXXXXXXXXXXXXXXXXXXOnNNNNNNb@XXXXXXXXXXXXXXXXokNNNNNNN*XXXXXXXXXXXXXXXXXXXXXXXXXXXX ,N",
"N, XXXXXXXXXXXXXXXXXXXXXXXXXXXXXXXpNNNNNNNdXXXXXXXXXXXXXXXXrNNNNNNNlXXXXXXXXXXXXXXXXXXXXXXXXXXXXX ,N",
"N, XXXXXXXXXXXXXXXXXXXXXXXXXXXXXXX=NNNNNNNNaOXXXXXXXXXXXXXeNNNNNNNN7XXXXXXXXXXXXXXXXXXXXXXXXXXXXX ,N",
"N, XXXXXXXXXXXXXXXXXXXXXXXXXXXXXXXXdNNNNNNNNz3XXXXXXXXXX;hNNNNNNNNzoXXXXXXXXXXXXXXXXXXXXXXXXXXXXX ,N",
"N, XXXXXXXXXXXXXXXXXXXXXXXXXXXXXXXX$bNNNNNNNNNxu6:*&;5tkNNNNNNNNNM-XXXXXXXXXXXXXXXXXXXXXXXXXXXXXX ,N",
"N, XXXXXXXXXXXXXXXXXXXXXXXXXXXXXXXXX1MNNNNNNNNNNNNNNNNNNNNNNNNNNN6XXXXXXXXXXXXXXXXXXXXXXXXXXXXXXX ,N",
"N, XXXXXXXXXXXXXXXXXXXXXXXXXXXXXXXXXX3nNNNNNNNNNNNNNNNNNNNNNNNNN7XXXXXXXXXXXXXXXXXXXXXXXXXXXXXXXX ,N",
"N, XXXXXXXXXXXXXXXXXXXXXXXXXXXXXXXXXXX*kNNNNNNNNNNNNNNNNNNNNNNc<XXXXXXXXXXXXXXXXXXXXXXXXXXXXXXXXX ,N",
"N, XXXXXXXXXXXXXXXXXXXXXXXXXXXXXXXXXXXXo0bNNNNNNNNNNNNNNNNNNmr+XXXXXXXXXXXXXXXXXXXXXXXXXXXXXXXXXX ,N",
"N, XXXXXXXXXXXXXXXXXXXXXXXXXXXXXXXXXXXXXX+0kNNNNNNNNNNNNNNce#XXXXXXXXXXXXXXXXXXXXXXXXXXXXXXXXXXXX ,N",
"N, XXXXXXXXXXXXXXXXXXXXXXXXXXXXXXXXXXXXXXXXX%9ajvMNNMbkdq-XXXXXXXXXXXXXXXXXXXXXXXXXXXXXXXXXXXXXXX ,N",
"N, XXXXXXXXXXXXXXXXXXXXXXXXXXXXXXXXXXXXXXXXXXXXXXXXXXXXXXXXXXXXXXXXXXXXXXXXXXXXXXXXXXXXXXXXXXXXXX ,N",
"N, XXXXXXXXXXXXXXXXXXXXXXXXXXXXXXXXXXXXXXXXXXXXXXXXXXXXXXXXXXXXXXXXXXXXXXXXXXXXXXXXXXXXXXXXXXXXXX ,N",
"N, XXXXXXXXXXXXXXXXXXXXXXXXXXXXXXXXXXXXXXXXXXXXXXXXXXXXXXXXXXXXXXXXXXXXXXXXXXXXXXXXXXXXXXXXXXXXXX ,N",
"N, XXXXXXXXXXXXXXXXXXXXXXXXXXXXXXXXXXXXXXXXXXXXXXXXXXXXXXXXXXXXXXXXXXXXXXXXXXXXXXXXXXXXXXXXXXXXXX ,N",
"N, XXXXXXXXXXXXXXXXXXXXXXXXXXXXXXXXXXXXXXXXXXXXXXXXXXXXXXXXXXXXXXXXXXXXXXXXXXXXXXXXXXXXXXXXXXXXXX ,N",
"N, XXXXXXXXXXXXXXXXXXXXXXXXXXXXXXXXXXXXXXXXXXXXXXXXXXXXXXXXXXXXXXXXXXXXXXXXXXXXXXXXXXXXXXXXXXXXXX ,N",
"N, XXXXXXXXXXXXXXXXXXXXXXXXXXXXXXXXXXXXXXXXXXXXXXXXXXXXXXXXXXXXXXXXXXXXXXXXXXXXXXXXXXXXXXXXXXXXXX ,N",
"N, XXXXXXXXXXXXXXXXXXXXXXXXXXXXXXXXXXXXXXXXXXXXXXXXXXXXXXXXXXXXXXXXXXXXXXXXXXXXXXXXXXXXXXXXXXXXXX ,N",
"N, XXXXXXXXXXXXXXXXXXXXXXXXXXXXXXXXXXXXXXXXXXXXXXXXXXXXXXXXXXXXXXXXXXXXXXXXXXXXXXXXXXXXXXXXXXXXXX ,N",
"N, XXXXXXXXXXXXXXXXXXXXXXXXXXXXXXXXXXXXXXXXXXXXXXXXXXXXXXXXXXXXXXXXXXXXXXXXXXXXXXXXXXXXXXXXXXXXXX ,N",
"N, XXXXXXXXXXXXXXXXXXXXXXXXXXXXXXXXXXXXXXXXXXXXXXXXXXXXXXXXXXXXXXXXXXXXXXXXXXXXXXXXXXXXXXXXXXXXXX ,N",
"N, XXXXXXXXXXXXXXXXXXXXXXXXXXXXXXXXXXXXXXXXXXXXXXXXXXXXXXXXXXXXXXXXXXXXXXXXXXXXXXXXXXXXXXXXXXXXXX ,N",
"N, XXXXXXXXXXXXXXXXXXXXXXXXXXXXXXXXXXXXXXXXXXXXXXXXXXXXXXXXXXXXXXXXXXXXXXXXXXXXXXXXXXXXXXXXXXXXXX ,N",
"N, XXXXXXXXXXXXXXXXXXXXXXXXXXXXXXXXXXXXXXXXXXXXXXXXXXXXXXXXXXXXXXXXXXXXXXXXXXXXXXXXXXXXXXXXXXXXXX ,N",
"N, XXXXXXXXXXXXXXXXXXXXXXXXXXXXXXXXXXXXXXXXXXXXXXXXXXXXXXXXXXXXXXXXXXXXXXXXXXXXXXXXXXXXXXXXXXXXXX ,N",
"N, XXXXXXXXXXXXXXXXXXXXXXXXXXXXXXXXXXXXXXXXXXXXXXXXXXXXXXXXXXXXXXXXXXXXXXXXXXXXXXXXXXXXXXXXXXXXXX ,N",
"N,.XXXXXXXXXXXXXXXXXXXXXXXXXXXXXXXXXXXXXXXXXXXXXXXXXXXXXXXXXXXXXXXXXXXXXXXXXXXXXXXXXXXXXXXXXXXXXX ,N",
"N,                                                                                                ,N",
"N>,,,,,,,,,,,,,,,,,,,,,,,,,,,,,,,,,,,,,,,,,,,,,,,,,,,,,,,,,,,,,,,,,,,,,,,,,,,,,,,,,,,,,,,,,,,,,,,,>N",
"NNNNNNNNNNNNNNNNNNNNNNNNNNNNNNNNNNNNNNNNNNNNNNNNNNNNNNNNNNNNNNNNNNNNNNNNNNNNNNNNNNNNNNNNNNNNNNNNNNNN"
};
