/* XPM */
static char *u3[] = {
/* columns rows colors chars-per-pixel */
"100 100 37 1 ",
"  c #686868",
". c #727272",
"X c gray46",
"o c #797979",
"O c #7C7C7C",
"+ c #808080",
"@ c #848484",
"# c #898989",
"$ c gray56",
"% c #929292",
"& c gray58",
"* c #9A9A9A",
"= c #9F9F9F",
"- c #A2A2A2",
"; c #A5A5A5",
": c #AAAAAA",
"> c #AFAFAF",
", c gray70",
"< c #B4B4B4",
"1 c gray72",
"2 c gray",
"3 c #C3C3C3",
"4 c gray77",
"5 c gray79",
"6 c gray81",
"7 c LightGray",
"8 c #D5D5D5",
"9 c #D8D8D8",
"0 c gray87",
"q c gray89",
"w c #E6E6E6",
"e c gray92",
"r c #EEEEEE",
"t c gray95",
"y c #F4F4F4",
"u c #FBFBFB",
"i c white",
/* pixels */
"iiiiiiiiiiiiiiiiiiiiiiiiiiiiiiiiiiiiiiiiiiiiiiiiiiiiiiiiiiiiiiiiiiiiiiiiiiiiiiiiiiiiiiiiiiiiiiiiiiii",
"i>,,,,,,,,,,,,,,,,,,,,,,,,,,,,,,,,,,,,,,,,,,,,,,,,,,,,,,,,,,,,,,,,,,,,,,,,,,,,,,,,,,,,,,,,,,,,,,,,>i",
"i,                                                                                                ,i",
"i, .............................................................................................. ,i",
"i, .............................................................................................. ,i",
"i, .............................................................................................. ,i",
"i, .............................................................................................. ,i",
"i, .............................................................................................. ,i",
"i, .............................................................................................. ,i",
"i, .............................................................................................. ,i",
"i, .............................................................................................. ,i",
"i, .............................................................................................. ,i",
"i, .............................................................................................. ,i",
"i, .............................................................................................. ,i",
"i, .............................................................................................. ,i",
"i, .............................................................................................. ,i",
"i, .............................................................................................. ,i",
"i, .............................................................................................. ,i",
"i, .............................................................................................. ,i",
"i, .............................................................................................. ,i",
"i, .............................;iiiiiii0....................5iiiiiii1........................... ,i",
"i, .............................;iiiiiii0....................5iiiiiii1........................... ,i",
"i, .............................;iiiiiii0....................5iiiiiii1........................... ,i",
"i, .............................;iiiiiii0....................5iiiiiii1........................... ,i",
"i, .............................;iiiiiii0....................5iiiiiii1........................... ,i",
"i, .............................;iiiiiii0....................5iiiiiii1........................... ,i",
"i, .............................;iiiiiii0....................5iiiiiii1........................... ,i",
"i, .............................;iiiiiii0....................5iiiiiii1........................... ,i",
"i, .............................;iiiiiii0....................5iiiiiii1........................... ,i",
"i, .............................;iiiiiii0....................5iiiiiii1........................... ,i",
"i, .............................;iiiiiii0....................5iiiiiii1........................... ,i",
"i, .............................;iiiiiii0....................5iiiiiii1........................... ,i",
"i, .............................;iiiiiii0....................5iiiiiii1........................... ,i",
"i, .............................;iiiiiii0....................5iiiiiii1........................... ,i",
"i, .............................;iiiiiii0....................5iiiiiii1........................... ,i",
"i, .............................;iiiiiii0....................5iiiiiii1........................... ,i",
"i, .............................;iiiiiii0....................5iiiiiii1........................... ,i",
"i, .............................;iiiiiii0....................5iiiiiii1........................... ,i",
"i, .............................;iiiiiii0....................5iiiiiii1........................... ,i",
"i, .............................;iiiiiii0....................5iiiiiii1........................... ,i",
"i, .............................;iiiiiii0....................5iiiiiii1........................... ,i",
"i, .............................;iiiiiii0....................5iiiiiii1........................... ,i",
"i, .............................;iiiiiii0....................5iiiiiii1........................... ,i",
"i, .............................;iiiiiii0....................5iiiiiii1........................... ,i",
"i, .............................;iiiiiii0....................5iiiiiii1........................... ,i",
"i, .............................;iiiiiii0....................5iiiiiii1........................... ,i",
"i, .............................;iiiiiii0....................5iiiiiii1........................... ,i",
"i, .............................;iiiiiii0....................5iiiiiii1........................... ,i",
"i, .............................;iiiiiii0....................5iiiiiii1........................... ,i",
"i, .............................;iiiiiii0....................5iiiiiii1........................... ,i",
"i, .............................;iiiiiii0....................5iiiiiii1........................... ,i",
"i, .............................;iiiiiii0....................5iiiiiii1........................... ,i",
"i, .............................;iiiiiii0....................5iiiiiii1........................... ,i",
"i, .............................;iiiiiii0....................5iiiiiii1........................... ,i",
"i, .............................;iiiiiii0....................5iiiiiii1........................... ,i",
"i, .............................;iiiiiii0....................5iiiiiii1........................... ,i",
"i, .............................;iiiiiii0....................5iiiiiii1........................... ,i",
"i, .............................;iiiiiii0....................5iiiiiii1........................... ,i",
"i, .............................-iiiiiii0....................5iiiiiii1........................... ,i",
"i, .............................=iiiiiii0....................5iiiiiii<........................... ,i",
"i, .............................*iiiiiii0....................5iiiiiii,........................... ,i",
"i, .............................%iiiiiii0....................5iiiiiii:........................... ,i",
"i, .............................#iiiiiiiq....................6iiiiiii-........................... ,i",
"i, .............................oiiiiiiiq....................6iiiiiii&........................... ,i",
"i, ..............................uiiiiiiw....................8iiiiiii+........................... ,i",
"i, ..............................eiiiiiir....................0iiiiiiu............................ ,i",
"i, ..............................0iiiiiiu....................eiiiiiie............................ ,i",
"i, ..............................3iiiiiii%..................Xuiiiiii9............................ ,i",
"i, ..............................=iiiiiii4..................>iiiiiii2............................ ,i",
"i, ..............................XyiiiiiiyO.................eiiiiiii%............................ ,i",
"i, ...............................7iiiiiii9................4iiiiiiie............................. ,i",
"i, ...............................&iiiiiiii7X.............3iiiiiiii,............................. ,i",
"i, ................................9iiiiiiiie;..........&qiiiiiiiie.............................. ,i",
"i, ................................@yiiiiiiiiir6,*%$*>5eiiiiiiiiii&.............................. ,i",
"i, .................................-uiiiiiiiiiiiiiiiiiiiiiiiiiii,............................... ,i",
"i, ..................................;uiiiiiiiiiiiiiiiiiiiiiiiii,................................ ,i",
"i, ...................................$eiiiiiiiiiiiiiiiiiiiiiit=................................. ,i",
"i, .....................................1yiiiiiiiiiiiiiiiiiiu4o.................................. ,i",
"i, ......................................o1eiiiiiiiiiiiiiit3+.................................... ,i",
"i, .........................................#17wtuiiuye92&....................................... ,i",
"i, .............................................................................................. ,i",
"i, .............................................................................................. ,i",
"i, .............................................................................................. ,i",
"i, .............................................................................................. ,i",
"i, .............................................................................................. ,i",
"i, .............................................................................................. ,i",
"i, .............................................................................................. ,i",
"i, .............................................................................................. ,i",
"i, .............................................................................................. ,i",
"i, .............................................................................................. ,i",
"i, .............................................................................................. ,i",
"i, .............................................................................................. ,i",
"i, .............................................................................................. ,i",
"i, .............................................................................................. ,i",
"i, .............................................................................................. ,i",
"i, .............................................................................................. ,i",
"i,O.............................................................................................. ,i",
"i,                                                                                                ,i",
"i>,,,,,,,,,,,,,,,,,,,,,,,,,,,,,,,,,,,,,,,,,,,,,,,,,,,,,,,,,,,,,,,,,,,,,,,,,,,,,,,,,,,,,,,,,,,,,,,,>i",
"iiiiiiiiiiiiiiiiiiiiiiiiiiiiiiiiiiiiiiiiiiiiiiiiiiiiiiiiiiiiiiiiiiiiiiiiiiiiiiiiiiiiiiiiiiiiiiiiiiii"
};
