/* XPM */
static char *v[] = {
/* columns rows colors chars-per-pixel */
"100 100 85 1 ",
"  c #2E0000",
". c #310D0D",
"X c #341616",
"o c #371C1C",
"O c #3A2222",
"+ c #3D2626",
"@ c #3F2A2A",
"# c #422E2E",
"$ c #443232",
"% c #463535",
"& c #4A3B3B",
"* c #4C3D3D",
"= c #4E4040",
"- c #504242",
"; c #524545",
": c #564949",
"> c #594D4D",
", c #5C5151",
"< c #615656",
"1 c #625858",
"2 c #645A5A",
"3 c #685F5F",
"4 c #6A6262",
"5 c #6C6363",
"6 c #6D6565",
"7 c #686868",
"8 c #706868",
"9 c #736C6C",
"0 c #766E6E",
"q c #7A7373",
"w c #7C7676",
"e c #7C7C7C",
"r c #807979",
"t c #837E7E",
"y c #857F7F",
"u c #878181",
"i c #8B8686",
"p c #8C8787",
"a c #8F8A8A",
"s c #908B8B",
"d c #928D8D",
"f c #979393",
"g c #9A9595",
"h c #9C9898",
"j c #A19D9D",
"k c #A5A1A1",
"l c #A9A5A5",
"z c #ABA8A8",
"x c #ADAAAA",
"c c #AFAFAF",
"v c #B1AEAE",
"b c gray70",
"n c #B5B2B2",
"m c #B6B4B4",
"M c #BAB7B7",
"N c #BBB9B9",
"B c #BCB9B9",
"V c #BEBCBC",
"C c #C1BEBE",
"Z c #C3C1C1",
"A c #C5C3C3",
"S c #C6C4C4",
"D c #C8C6C6",
"F c #CAC8C8",
"G c #CDCBCB",
"H c #CECDCD",
"J c #D0CECE",
"K c #D3D2D2",
"L c #D4D3D3",
"P c #D6D5D5",
"I c #D8D7D7",
"U c #DAD8D8",
"Y c #DDDCDC",
"T c #E0DFDF",
"R c gray89",
"E c gray90",
"W c #E8E7E7",
"Q c #EBEAEA",
"! c #EFEFEF",
"~ c gray94",
"^ c gray96",
"/ c #F8F7F7",
"( c gray98",
") c #FCFBFB",
"_ c white",
/* pixels */
"____________________________________________________________________________________________________",
"_cbbbbbbbbbbbbbbbbbbbbbbbbbbbbbbbbbbbbbbbbbbbbbbbbbbbbbbbbbbbbbbbbbbbbbbbbbbbbbbbbbbbbbbbbbbbbbbbbc_",
"_b777777777777777777777777777777777777777777777777777777777777777777777777777777777777777777777777b_",
"_b7______________________________________________________________________________________________7b_",
"_b7______________________________________________________________________________________________7b_",
"_b7______________________________________________________________________________________________7b_",
"_b7______________________________________________________________________________________________7b_",
"_b7______________________________________________________________________________________________7b_",
"_b7______________________________________________________________________________________________7b_",
"_b7______________________________________________________________________________________________7b_",
"_b7______________________________________________________________________________________________7b_",
"_b7______________________________________________________________________________________________7b_",
"_b7______________________________________________________________________________________________7b_",
"_b7______________________________________________________________________________________________7b_",
"_b7______________________________________________________________________________________________7b_",
"_b7______________________________________________________________________________________________7b_",
"_b7______________________________________________________________________________________________7b_",
"_b7______________________________________________________________________________________________7b_",
"_b7______________________________________________________________________________________________7b_",
"_b7______________________________________________________________________________________________7b_",
"_b7__________________________l       N__________________________L       t________________________7b_",
"_b7__________________________P       u__________________________l       B________________________7b_",
"_b7__________________________(O      o(_________________________4       E________________________7b_",
"_b7___________________________p       U________________________!       ,_________________________7b_",
"_b7___________________________Z       b________________________G       k_________________________7b_",
"_b7___________________________Q       q________________________j       P_________________________7b_",
"_b7____________________________3       ^_______________________,      o/_________________________7b_",
"_b7____________________________x       L______________________Q       i__________________________7b_",
"_b7____________________________U       z______________________S       C__________________________7b_",
"_b7____________________________(@      6______________________f       Q__________________________7b_",
"_b7_____________________________d       ~_____________________*      2___________________________7b_",
"_b7_____________________________S       H____________________R       l___________________________7b_",
"_b7_____________________________!       j____________________V       I___________________________7b_",
"_b7______________________________8      ,____________________i      +(___________________________7b_",
"_b7______________________________v       Q__________________(@      a____________________________7b_",
"_b7______________________________Y       D__________________Y       A____________________________7b_",
"_b7______________________________)%      g__________________m       !____________________________7b_",
"_b7_______________________________f      -__________________r      4_____________________________7b_",
"_b7_______________________________F       E________________^.      c_____________________________7b_",
"_b7_______________________________~       C________________P       U_____________________________7b_",
"_b7________________________________0      a________________x      $(_____________________________7b_",
"_b7________________________________n      #(_______________8      f______________________________7b_",
"_b7________________________________T       Y______________~       D______________________________7b_",
"_b7_________________________________=      M______________J       !______________________________7b_",
"_b7_________________________________h      y______________k      8_______________________________7b_",
"_b7_________________________________H      o(_____________1      b_______________________________7b_",
"_b7_________________________________~       U____________!       Y_______________________________7b_",
"_b7__________________________________w      v____________D      &________________________________7b_",
"_b7__________________________________M      q____________g      g________________________________7b_",
"_b7__________________________________R       ^___________;      G________________________________7b_",
"_b7___________________________________:      L__________E       ~________________________________7b_",
"_b7___________________________________j      l__________C      q_________________________________7b_",
"_b7___________________________________K      4__________s      M_________________________________7b_",
"_b7___________________________________^.      !________)$      R_________________________________7b_",
"_b7____________________________________t      G________T      ;__________________________________7b_",
"_b7____________________________________B      j________M      h__________________________________7b_",
"_b7____________________________________E      ,________y      J__________________________________7b_",
"_b7_____________________________________,      Q______(o     .^__________________________________7b_",
"_b7_____________________________________k      S______U      r___________________________________7b_",
"_b7_____________________________________P      g______v      B___________________________________7b_",
"_b7_____________________________________/o     =______q      E___________________________________7b_",
"_b7______________________________________i      E____^      >____________________________________7b_",
"_b7______________________________________C      V____K      k____________________________________7b_",
"_b7______________________________________Q      a____l      K____________________________________7b_",
"_b7_______________________________________2     @(___4     X^____________________________________7b_",
"_b7_______________________________________l      Y__!      u_____________________________________7b_",
"_b7_______________________________________I      M__G      V_____________________________________7b_",
"_b7_______________________________________(+     t__h      W_____________________________________7b_",
"_b7________________________________________a     X/_>     <______________________________________7b_",
"_b7________________________________________A      IQ      l______________________________________7b_",
"_b7________________________________________!      vA      P______________________________________7b_",
"_b7_________________________________________5     0f     O(______________________________________7b_",
"_b7_________________________________________c      #     p_______________________________________7b_",
"_b7_________________________________________U            Z_______________________________________7b_",
"_b7_________________________________________($           Q_______________________________________7b_",
"_b7__________________________________________f          3________________________________________7b_",
"_b7__________________________________________D          x________________________________________7b_",
"_b7__________________________________________!          U________________________________________7b_",
"_b7___________________________________________9        @(________________________________________7b_",
"_b7______________________________________________________________________________________________7b_",
"_b7______________________________________________________________________________________________7b_",
"_b7______________________________________________________________________________________________7b_",
"_b7______________________________________________________________________________________________7b_",
"_b7______________________________________________________________________________________________7b_",
"_b7______________________________________________________________________________________________7b_",
"_b7______________________________________________________________________________________________7b_",
"_b7______________________________________________________________________________________________7b_",
"_b7______________________________________________________________________________________________7b_",
"_b7______________________________________________________________________________________________7b_",
"_b7______________________________________________________________________________________________7b_",
"_b7______________________________________________________________________________________________7b_",
"_b7______________________________________________________________________________________________7b_",
"_b7______________________________________________________________________________________________7b_",
"_b7______________________________________________________________________________________________7b_",
"_b7______________________________________________________________________________________________7b_",
"_b7______________________________________________________________________________________________7b_",
"_be______________________________________________________________________________________________7b_",
"_b777777777777777777777777777777777777777777777777777777777777777777777777777777777777777777777777b_",
"_cbbbbbbbbbbbbbbbbbbbbbbbbbbbbbbbbbbbbbbbbbbbbbbbbbbbbbbbbbbbbbbbbbbbbbbbbbbbbbbbbbbbbbbbbbbbbbbbbc_",
"____________________________________________________________________________________________________"
};
