/* XPM */
static char *v1[] = {
/* columns rows colors chars-per-pixel */
"100 100 88 1 ",
"  c #686868",
". c #7C7C7C",
"X c #348032",
"o c #378135",
"O c #3A8238",
"+ c #3C823B",
"@ c #3F833D",
"# c #418440",
"$ c #468644",
"% c #488747",
"& c #4A8749",
"* c #4C884B",
"= c #4E894D",
"- c #538B52",
"; c #558C54",
": c #588D57",
"> c #5C8F5B",
", c #5F905E",
"< c #629261",
"1 c #659364",
"2 c #679567",
"3 c #6B976B",
"4 c #6F996E",
"5 c #729A71",
"6 c #749B73",
"7 c #769D76",
"8 c #7A9F79",
"9 c #7DA17C",
"0 c #80A280",
"q c #83A483",
"w c #86A686",
"e c #88A788",
"r c #89A889",
"t c #8CAA8B",
"y c #8FAB8E",
"u c #92AE92",
"i c #94AF93",
"p c #95AF94",
"a c #97B197",
"s c #9BB39A",
"d c #9CB49C",
"f c #AFAFAF",
"g c #A0B7A0",
"h c #A1B8A1",
"j c #A4BAA4",
"k c #A8BCA7",
"l c #AABEAA",
"z c #ACBFAC",
"x c gray70",
"c c #AEC0AD",
"v c #B1C3B1",
"b c #B2C4B2",
"n c #B4C5B3",
"m c #B6C6B5",
"M c #B9C9B9",
"N c #BCCBBB",
"B c #BDCBBD",
"V c #BECCBE",
"C c #C1CFC1",
"Z c #C2D0C2",
"A c #C4D0C3",
"S c #C7D3C6",
"D c #C8D4C8",
"F c #CCD7CC",
"G c #CDD8CD",
"H c #D1DBD1",
"J c #D2DCD2",
"K c #D4DDD3",
"L c #D6DFD6",
"P c #D7E0D7",
"I c #D9E1D9",
"U c #DCE3DC",
"Y c #DDE4DC",
"T c #E0E6E0",
"R c #E3E8E3",
"E c #E6EBE5",
"W c #E7ECE7",
"Q c #E8ECE7",
"! c #EBEFEB",
"~ c #EDF1ED",
"^ c #F0F3EF",
"/ c #F0F3F0",
"( c #F2F5F2",
") c #F5F7F5",
"_ c #F6F8F6",
"` c #FAFBFA",
"' c #FBFCFB",
"] c white",
/* pixels */
"]]]]]]]]]]]]]]]]]]]]]]]]]]]]]]]]]]]]]]]]]]]]]]]]]]]]]]]]]]]]]]]]]]]]]]]]]]]]]]]]]]]]]]]]]]]]]]]]]]]]",
"]fxxxxxxxxxxxxxxxxxxxxxxxxxxxxxxxxxxxxxxxxxxxxxxxxxxxxxxxxxxxxxxxxxxxxxxxxxxxxxxxxxxxxxxxxxxxxxxxxf]",
"]x                                                                                                x]",
"]x XXXXXXXXXXXXXXXXXXXXXXXXXXXXXXXXXXXXXXXXXXXXXXXXXXXXXXXXXXXXXXXXXXXXXXXXXXXXXXXXXXXXXXXXXXXXXX x]",
"]x XXXXXXXXXXXXXXXXXXXXXXXXXXXXXXXXXXXXXXXXXXXXXXXXXXXXXXXXXXXXXXXXXXXXXXXXXXXXXXXXXXXXXXXXXXXXXX x]",
"]x XXXXXXXXXXXXXXXXXXXXXXXXXXXXXXXXXXXXXXXXXXXXXXXXXXXXXXXXXXXXXXXXXXXXXXXXXXXXXXXXXXXXXXXXXXXXXX x]",
"]x XXXXXXXXXXXXXXXXXXXXXXXXXXXXXXXXXXXXXXXXXXXXXXXXXXXXXXXXXXXXXXXXXXXXXXXXXXXXXXXXXXXXXXXXXXXXXX x]",
"]x XXXXXXXXXXXXXXXXXXXXXXXXXXXXXXXXXXXXXXXXXXXXXXXXXXXXXXXXXXXXXXXXXXXXXXXXXXXXXXXXXXXXXXXXXXXXXX x]",
"]x XXXXXXXXXXXXXXXXXXXXXXXXXXXXXXXXXXXXXXXXXXXXXXXXXXXXXXXXXXXXXXXXXXXXXXXXXXXXXXXXXXXXXXXXXXXXXX x]",
"]x XXXXXXXXXXXXXXXXXXXXXXXXXXXXXXXXXXXXXXXXXXXXXXXXXXXXXXXXXXXXXXXXXXXXXXXXXXXXXXXXXXXXXXXXXXXXXX x]",
"]x XXXXXXXXXXXXXXXXXXXXXXXXXXXXXXXXXXXXXXXXXXXXXXXXXXXXXXXXXXXXXXXXXXXXXXXXXXXXXXXXXXXXXXXXXXXXXX x]",
"]x XXXXXXXXXXXXXXXXXXXXXXXXXXXXXXXXXXXXXXXXXXXXXXXXXXXXXXXXXXXXXXXXXXXXXXXXXXXXXXXXXXXXXXXXXXXXXX x]",
"]x XXXXXXXXXXXXXXXXXXXXXXXXXXXXXXXXXXXXXXXXXXXXXXXXXXXXXXXXXXXXXXXXXXXXXXXXXXXXXXXXXXXXXXXXXXXXXX x]",
"]x XXXXXXXXXXXXXXXXXXXXXXXXXXXXXXXXXXXXXXXXXXXXXXXXXXXXXXXXXXXXXXXXXXXXXXXXXXXXXXXXXXXXXXXXXXXXXX x]",
"]x XXXXXXXXXXXXXXXXXXXXXXXXXXXXXXXXXXXXXXXXXXXXXXXXXXXXXXXXXXXXXXXXXXXXXXXXXXXXXXXXXXXXXXXXXXXXXX x]",
"]x XXXXXXXXXXXXXXXXXXXXXXXXXXXXXXXXXXXXXXXXXXXXXXXXXXXXXXXXXXXXXXXXXXXXXXXXXXXXXXXXXXXXXXXXXXXXXX x]",
"]x XXXXXXXXXXXXXXXXXXXXXXXXXXXXXXXXXXXXXXXXXXXXXXXXXXXXXXXXXXXXXXXXXXXXXXXXXXXXXXXXXXXXXXXXXXXXXX x]",
"]x XXXXXXXXXXXXXXXXXXXXXXXXXXXXXXXXXXXXXXXXXXXXXXXXXXXXXXXXXXXXXXXXXXXXXXXXXXXXXXXXXXXXXXXXXXXXXX x]",
"]x XXXXXXXXXXXXXXXXXXXXXXXXXXXXXXXXXXXXXXXXXXXXXXXXXXXXXXXXXXXXXXXXXXXXXXXXXXXXXXXXXXXXXXXXXXXXXX x]",
"]x XXXXXXXXXXXXXXXXXXXXXXXXXXXXXXXXXXXXXXXXXXXXXXXXXXXXXXXXXXXXXXXXXXXXXXXXXXXXXXXXXXXXXXXXXXXXXX x]",
"]x XXXXXXXXXXXXXXXXXXXXXXXXXXH]]]]]]]CXXXXXXXXXXXXXXXXXXXXXXXXXXj]]]]]]]WXXXXXXXXXXXXXXXXXXXXXXXX x]",
"]x XXXXXXXXXXXXXXXXXXXXXXXXXXh]]]]]]]EXXXXXXXXXXXXXXXXXXXXXXXXXXH]]]]]]]VXXXXXXXXXXXXXXXXXXXXXXXX x]",
"]x XXXXXXXXXXXXXXXXXXXXXXXXXX;]]]]]]]]-XXXXXXXXXXXXXXXXXXXXXXXXX(]]]]]]]wXXXXXXXXXXXXXXXXXXXXXXXX x]",
"]x XXXXXXXXXXXXXXXXXXXXXXXXXXXR]]]]]]]sXXXXXXXXXXXXXXXXXXXXXXXX5]]]]]]]_OXXXXXXXXXXXXXXXXXXXXXXXX x]",
"]x XXXXXXXXXXXXXXXXXXXXXXXXXXXM]]]]]]]DXXXXXXXXXXXXXXXXXXXXXXXXc]]]]]]]JXXXXXXXXXXXXXXXXXXXXXXXXX x]",
"]x XXXXXXXXXXXXXXXXXXXXXXXXXXX9]]]]]]]!XXXXXXXXXXXXXXXXXXXXXXXXL]]]]]]]hXXXXXXXXXXXXXXXXXXXXXXXXX x]",
"]x XXXXXXXXXXXXXXXXXXXXXXXXXXXX(]]]]]]]<XXXXXXXXXXXXXXXXXXXXXXo_]]]]]]]:XXXXXXXXXXXXXXXXXXXXXXXXX x]",
"]x XXXXXXXXXXXXXXXXXXXXXXXXXXXXG]]]]]]]jXXXXXXXXXXXXXXXXXXXXXX9]]]]]]]EXXXXXXXXXXXXXXXXXXXXXXXXXX x]",
"]x XXXXXXXXXXXXXXXXXXXXXXXXXXXXd]]]]]]]GXXXXXXXXXXXXXXXXXXXXXXm]]]]]]]MXXXXXXXXXXXXXXXXXXXXXXXXXX x]",
"]x XXXXXXXXXXXXXXXXXXXXXXXXXXXX=]]]]]]]/XXXXXXXXXXXXXXXXXXXXXXY]]]]]]]0XXXXXXXXXXXXXXXXXXXXXXXXXX x]",
"]x XXXXXXXXXXXXXXXXXXXXXXXXXXXXXT]]]]]]]4XXXXXXXXXXXXXXXXXXXX#`]]]]]])XXXXXXXXXXXXXXXXXXXXXXXXXXX x]",
"]x XXXXXXXXXXXXXXXXXXXXXXXXXXXXXm]]]]]]]zXXXXXXXXXXXXXXXXXXXXt]]]]]]]GXXXXXXXXXXXXXXXXXXXXXXXXXXX x]",
"]x XXXXXXXXXXXXXXXXXXXXXXXXXXXXX7]]]]]]]LXXXXXXXXXXXXXXXXXXXXV]]]]]]]dXXXXXXXXXXXXXXXXXXXXXXXXXXX x]",
"]x XXXXXXXXXXXXXXXXXXXXXXXXXXXXXX^]]]]]])oXXXXXXXXXXXXXXXXXXXR]]]]]]]-XXXXXXXXXXXXXXXXXXXXXXXXXXX x]",
"]x XXXXXXXXXXXXXXXXXXXXXXXXXXXXXXD]]]]]]]9XXXXXXXXXXXXXXXXXX=]]]]]]]TXXXXXXXXXXXXXXXXXXXXXXXXXXXX x]",
"]x XXXXXXXXXXXXXXXXXXXXXXXXXXXXXXa]]]]]]]nXXXXXXXXXXXXXXXXXXa]]]]]]]mXXXXXXXXXXXXXXXXXXXXXXXXXXXX x]",
"]x XXXXXXXXXXXXXXXXXXXXXXXXXXXXXX%']]]]]]IXXXXXXXXXXXXXXXXXXS]]]]]]]8XXXXXXXXXXXXXXXXXXXXXXXXXXXX x]",
"]x XXXXXXXXXXXXXXXXXXXXXXXXXXXXXXXY]]]]]]`@XXXXXXXXXXXXXXXXX!]]]]]](XXXXXXXXXXXXXXXXXXXXXXXXXXXXX x]",
"]x XXXXXXXXXXXXXXXXXXXXXXXXXXXXXXXv]]]]]]]eXXXXXXXXXXXXXXXX>]]]]]]]FXXXXXXXXXXXXXXXXXXXXXXXXXXXXX x]",
"]x XXXXXXXXXXXXXXXXXXXXXXXXXXXXXXX4]]]]]]]NXXXXXXXXXXXXXXXXg]]]]]]]sXXXXXXXXXXXXXXXXXXXXXXXXXXXXX x]",
"]x XXXXXXXXXXXXXXXXXXXXXXXXXXXXXXXX~]]]]]]TXXXXXXXXXXXXXXXXF]]]]]]]*XXXXXXXXXXXXXXXXXXXXXXXXXXXXX x]",
"]x XXXXXXXXXXXXXXXXXXXXXXXXXXXXXXXXS]]]]]]]&XXXXXXXXXXXXXXX~]]]]]]YXXXXXXXXXXXXXXXXXXXXXXXXXXXXXX x]",
"]x XXXXXXXXXXXXXXXXXXXXXXXXXXXXXXXXu]]]]]]]uXXXXXXXXXXXXXX3]]]]]]]bXXXXXXXXXXXXXXXXXXXXXXXXXXXXXX x]",
"]x XXXXXXXXXXXXXXXXXXXXXXXXXXXXXXXX#`]]]]]]ZXXXXXXXXXXXXXXl]]]]]]]5XXXXXXXXXXXXXXXXXXXXXXXXXXXXXX x]",
"]x XXXXXXXXXXXXXXXXXXXXXXXXXXXXXXXXXI]]]]]]EXXXXXXXXXXXXXXK]]]]]]~XXXXXXXXXXXXXXXXXXXXXXXXXXXXXXX x]",
"]x XXXXXXXXXXXXXXXXXXXXXXXXXXXXXXXXXc]]]]]]];XXXXXXXXXXXXX)]]]]]]DXXXXXXXXXXXXXXXXXXXXXXXXXXXXXXX x]",
"]x XXXXXXXXXXXXXXXXXXXXXXXXXXXXXXXXX2]]]]]]]dXXXXXXXXXXXX8]]]]]]]pXXXXXXXXXXXXXXXXXXXXXXXXXXXXXXX x]",
"]x XXXXXXXXXXXXXXXXXXXXXXXXXXXXXXXXXX!]]]]]]DXXXXXXXXXXXXb]]]]]]`$XXXXXXXXXXXXXXXXXXXXXXXXXXXXXXX x]",
"]x XXXXXXXXXXXXXXXXXXXXXXXXXXXXXXXXXXZ]]]]]]~XXXXXXXXXXXXI]]]]]]IXXXXXXXXXXXXXXXXXXXXXXXXXXXXXXXX x]",
"]x XXXXXXXXXXXXXXXXXXXXXXXXXXXXXXXXXXt]]]]]]]<XXXXXXXXXX+`]]]]]]cXXXXXXXXXXXXXXXXXXXXXXXXXXXXXXXX x]",
"]x XXXXXXXXXXXXXXXXXXXXXXXXXXXXXXXXXX+`]]]]]]jXXXXXXXXXXw]]]]]]]3XXXXXXXXXXXXXXXXXXXXXXXXXXXXXXXX x]",
"]x XXXXXXXXXXXXXXXXXXXXXXXXXXXXXXXXXXXL]]]]]]HXXXXXXXXXXM]]]]]]!XXXXXXXXXXXXXXXXXXXXXXXXXXXXXXXXX x]",
"]x XXXXXXXXXXXXXXXXXXXXXXXXXXXXXXXXXXXk]]]]]](XXXXXXXXXXT]]]]]]SXXXXXXXXXXXXXXXXXXXXXXXXXXXXXXXXX x]",
"]x XXXXXXXXXXXXXXXXXXXXXXXXXXXXXXXXXXX,]]]]]]]5XXXXXXXX%]]]]]]]yXXXXXXXXXXXXXXXXXXXXXXXXXXXXXXXXX x]",
"]x XXXXXXXXXXXXXXXXXXXXXXXXXXXXXXXXXXXXW]]]]]]cXXXXXXXXu]]]]]]`@XXXXXXXXXXXXXXXXXXXXXXXXXXXXXXXXX x]",
"]x XXXXXXXXXXXXXXXXXXXXXXXXXXXXXXXXXXXXV]]]]]]LXXXXXXXXZ]]]]]]PXXXXXXXXXXXXXXXXXXXXXXXXXXXXXXXXXX x]",
"]x XXXXXXXXXXXXXXXXXXXXXXXXXXXXXXXXXXXXw]]]]]]_oXXXXXXXE]]]]]]lXXXXXXXXXXXXXXXXXXXXXXXXXXXXXXXXXX x]",
"]x XXXXXXXXXXXXXXXXXXXXXXXXXXXXXXXXXXXXo)]]]]]]9XXXXXX;]]]]]]]<XXXXXXXXXXXXXXXXXXXXXXXXXXXXXXXXXX x]",
"]x XXXXXXXXXXXXXXXXXXXXXXXXXXXXXXXXXXXXXJ]]]]]]mXXXXXXd]]]]]]!XXXXXXXXXXXXXXXXXXXXXXXXXXXXXXXXXXX x]",
"]x XXXXXXXXXXXXXXXXXXXXXXXXXXXXXXXXXXXXXh]]]]]]UXXXXXXD]]]]]]CXXXXXXXXXXXXXXXXXXXXXXXXXXXXXXXXXXX x]",
"]x XXXXXXXXXXXXXXXXXXXXXXXXXXXXXXXXXXXXX:]]]]]]`@XXXXX~]]]]]]rXXXXXXXXXXXXXXXXXXXXXXXXXXXXXXXXXXX x]",
"]x XXXXXXXXXXXXXXXXXXXXXXXXXXXXXXXXXXXXXXE]]]]]]rXXXX1]]]]]]_OXXXXXXXXXXXXXXXXXXXXXXXXXXXXXXXXXXX x]",
"]x XXXXXXXXXXXXXXXXXXXXXXXXXXXXXXXXXXXXXXM]]]]]]BXXXXj]]]]]]LXXXXXXXXXXXXXXXXXXXXXXXXXXXXXXXXXXXX x]",
"]x XXXXXXXXXXXXXXXXXXXXXXXXXXXXXXXXXXXXXX0]]]]]]RXXXXH]]]]]]jXXXXXXXXXXXXXXXXXXXXXXXXXXXXXXXXXXXX x]",
"]x XXXXXXXXXXXXXXXXXXXXXXXXXXXXXXXXXXXXXXX)]]]]]]&XXX(]]]]]]>XXXXXXXXXXXXXXXXXXXXXXXXXXXXXXXXXXXX x]",
"]x XXXXXXXXXXXXXXXXXXXXXXXXXXXXXXXXXXXXXXXG]]]]]]iXX6]]]]]]EXXXXXXXXXXXXXXXXXXXXXXXXXXXXXXXXXXXXX x]",
"]x XXXXXXXXXXXXXXXXXXXXXXXXXXXXXXXXXXXXXXXd]]]]]]AXXc]]]]]]BXXXXXXXXXXXXXXXXXXXXXXXXXXXXXXXXXXXXX x]",
"]x XXXXXXXXXXXXXXXXXXXXXXXXXXXXXXXXXXXXXXX-]]]]]]QXXP]]]]]]qXXXXXXXXXXXXXXXXXXXXXXXXXXXXXXXXXXXXX x]",
"]x XXXXXXXXXXXXXXXXXXXXXXXXXXXXXXXXXXXXXXXXT]]]]]]:o_]]]]])oXXXXXXXXXXXXXXXXXXXXXXXXXXXXXXXXXXXXX x]",
"]x XXXXXXXXXXXXXXXXXXXXXXXXXXXXXXXXXXXXXXXXm]]]]]]d0]]]]]]HXXXXXXXXXXXXXXXXXXXXXXXXXXXXXXXXXXXXXX x]",
"]x XXXXXXXXXXXXXXXXXXXXXXXXXXXXXXXXXXXXXXXX8]]]]]]Dm]]]]]]hXXXXXXXXXXXXXXXXXXXXXXXXXXXXXXXXXXXXXX x]",
"]x XXXXXXXXXXXXXXXXXXXXXXXXXXXXXXXXXXXXXXXXX(]]]]]~Y]]]]]];XXXXXXXXXXXXXXXXXXXXXXXXXXXXXXXXXXXXXX x]",
"]x XXXXXXXXXXXXXXXXXXXXXXXXXXXXXXXXXXXXXXXXXF]]]]]]]]]]]]RXXXXXXXXXXXXXXXXXXXXXXXXXXXXXXXXXXXXXXX x]",
"]x XXXXXXXXXXXXXXXXXXXXXXXXXXXXXXXXXXXXXXXXXs]]]]]]]]]]]]MXXXXXXXXXXXXXXXXXXXXXXXXXXXXXXXXXXXXXXX x]",
"]x XXXXXXXXXXXXXXXXXXXXXXXXXXXXXXXXXXXXXXXXX*]]]]]]]]]]]]9XXXXXXXXXXXXXXXXXXXXXXXXXXXXXXXXXXXXXXX x]",
"]x XXXXXXXXXXXXXXXXXXXXXXXXXXXXXXXXXXXXXXXXXXY]]]]]]]]]](XXXXXXXXXXXXXXXXXXXXXXXXXXXXXXXXXXXXXXXX x]",
"]x XXXXXXXXXXXXXXXXXXXXXXXXXXXXXXXXXXXXXXXXXXb]]]]]]]]]]GXXXXXXXXXXXXXXXXXXXXXXXXXXXXXXXXXXXXXXXX x]",
"]x XXXXXXXXXXXXXXXXXXXXXXXXXXXXXXXXXXXXXXXXXX5]]]]]]]]]]dXXXXXXXXXXXXXXXXXXXXXXXXXXXXXXXXXXXXXXXX x]",
"]x XXXXXXXXXXXXXXXXXXXXXXXXXXXXXXXXXXXXXXXXXXX~]]]]]]]]]=XXXXXXXXXXXXXXXXXXXXXXXXXXXXXXXXXXXXXXXX x]",
"]x XXXXXXXXXXXXXXXXXXXXXXXXXXXXXXXXXXXXXXXXXXXXXXXXXXXXXXXXXXXXXXXXXXXXXXXXXXXXXXXXXXXXXXXXXXXXXX x]",
"]x XXXXXXXXXXXXXXXXXXXXXXXXXXXXXXXXXXXXXXXXXXXXXXXXXXXXXXXXXXXXXXXXXXXXXXXXXXXXXXXXXXXXXXXXXXXXXX x]",
"]x XXXXXXXXXXXXXXXXXXXXXXXXXXXXXXXXXXXXXXXXXXXXXXXXXXXXXXXXXXXXXXXXXXXXXXXXXXXXXXXXXXXXXXXXXXXXXX x]",
"]x XXXXXXXXXXXXXXXXXXXXXXXXXXXXXXXXXXXXXXXXXXXXXXXXXXXXXXXXXXXXXXXXXXXXXXXXXXXXXXXXXXXXXXXXXXXXXX x]",
"]x XXXXXXXXXXXXXXXXXXXXXXXXXXXXXXXXXXXXXXXXXXXXXXXXXXXXXXXXXXXXXXXXXXXXXXXXXXXXXXXXXXXXXXXXXXXXXX x]",
"]x XXXXXXXXXXXXXXXXXXXXXXXXXXXXXXXXXXXXXXXXXXXXXXXXXXXXXXXXXXXXXXXXXXXXXXXXXXXXXXXXXXXXXXXXXXXXXX x]",
"]x XXXXXXXXXXXXXXXXXXXXXXXXXXXXXXXXXXXXXXXXXXXXXXXXXXXXXXXXXXXXXXXXXXXXXXXXXXXXXXXXXXXXXXXXXXXXXX x]",
"]x XXXXXXXXXXXXXXXXXXXXXXXXXXXXXXXXXXXXXXXXXXXXXXXXXXXXXXXXXXXXXXXXXXXXXXXXXXXXXXXXXXXXXXXXXXXXXX x]",
"]x XXXXXXXXXXXXXXXXXXXXXXXXXXXXXXXXXXXXXXXXXXXXXXXXXXXXXXXXXXXXXXXXXXXXXXXXXXXXXXXXXXXXXXXXXXXXXX x]",
"]x XXXXXXXXXXXXXXXXXXXXXXXXXXXXXXXXXXXXXXXXXXXXXXXXXXXXXXXXXXXXXXXXXXXXXXXXXXXXXXXXXXXXXXXXXXXXXX x]",
"]x XXXXXXXXXXXXXXXXXXXXXXXXXXXXXXXXXXXXXXXXXXXXXXXXXXXXXXXXXXXXXXXXXXXXXXXXXXXXXXXXXXXXXXXXXXXXXX x]",
"]x XXXXXXXXXXXXXXXXXXXXXXXXXXXXXXXXXXXXXXXXXXXXXXXXXXXXXXXXXXXXXXXXXXXXXXXXXXXXXXXXXXXXXXXXXXXXXX x]",
"]x XXXXXXXXXXXXXXXXXXXXXXXXXXXXXXXXXXXXXXXXXXXXXXXXXXXXXXXXXXXXXXXXXXXXXXXXXXXXXXXXXXXXXXXXXXXXXX x]",
"]x XXXXXXXXXXXXXXXXXXXXXXXXXXXXXXXXXXXXXXXXXXXXXXXXXXXXXXXXXXXXXXXXXXXXXXXXXXXXXXXXXXXXXXXXXXXXXX x]",
"]x XXXXXXXXXXXXXXXXXXXXXXXXXXXXXXXXXXXXXXXXXXXXXXXXXXXXXXXXXXXXXXXXXXXXXXXXXXXXXXXXXXXXXXXXXXXXXX x]",
"]x XXXXXXXXXXXXXXXXXXXXXXXXXXXXXXXXXXXXXXXXXXXXXXXXXXXXXXXXXXXXXXXXXXXXXXXXXXXXXXXXXXXXXXXXXXXXXX x]",
"]x XXXXXXXXXXXXXXXXXXXXXXXXXXXXXXXXXXXXXXXXXXXXXXXXXXXXXXXXXXXXXXXXXXXXXXXXXXXXXXXXXXXXXXXXXXXXXX x]",
"]x.XXXXXXXXXXXXXXXXXXXXXXXXXXXXXXXXXXXXXXXXXXXXXXXXXXXXXXXXXXXXXXXXXXXXXXXXXXXXXXXXXXXXXXXXXXXXXX x]",
"]x                                                                                                x]",
"]fxxxxxxxxxxxxxxxxxxxxxxxxxxxxxxxxxxxxxxxxxxxxxxxxxxxxxxxxxxxxxxxxxxxxxxxxxxxxxxxxxxxxxxxxxxxxxxxxf]",
"]]]]]]]]]]]]]]]]]]]]]]]]]]]]]]]]]]]]]]]]]]]]]]]]]]]]]]]]]]]]]]]]]]]]]]]]]]]]]]]]]]]]]]]]]]]]]]]]]]]]"
};
