/* XPM */
static char *v2[] = {
/* columns rows colors chars-per-pixel */
"100 100 79 1 ",
"  c #686868",
". c #7C7C7C",
"X c #C3AF2A",
"o c #C3AF2E",
"O c #C4B031",
"+ c #C4B137",
"@ c #C4B13A",
"# c #C5B23F",
"$ c #C5B242",
"% c #C6B344",
"& c #C6B348",
"* c #C7B54E",
"= c #C7B550",
"- c #C8B757",
"; c #C9B75B",
": c #C9B85E",
"> c #CAB961",
", c #CABA64",
"< c #CBBB68",
"1 c #CCBC6B",
"2 c #CDBD6E",
"3 c #CEBE73",
"4 c #CEBF77",
"5 c #CFC07A",
"6 c #D0C17C",
"7 c #AFAFAF",
"8 c gray70",
"9 c #D1C381",
"0 c #D2C486",
"q c #D3C68A",
"w c #D4C78D",
"e c #D5C890",
"r c #D6CA96",
"t c #D7CB98",
"y c #D7CC99",
"u c #D8CC9B",
"i c #D9CE9F",
"p c #DACFA2",
"a c #DAD0A3",
"s c #DBD0A4",
"d c #DCD1A6",
"f c #DDD3AB",
"g c #DED4AC",
"h c #DFD5B0",
"j c #E0D7B3",
"k c #E0D7B4",
"l c #E0D8B5",
"z c #E2D9B8",
"x c #E3DBBC",
"c c #E3DCBD",
"v c #E4DCBE",
"b c #E5DDC0",
"n c #E6DFC5",
"m c #E7E0C6",
"M c #E7E1C8",
"N c #E8E2C9",
"B c #E9E3CD",
"V c #EAE4CE",
"C c #EBE5D0",
"Z c #ECE7D3",
"A c #EDE7D5",
"S c #EDE8D6",
"D c #EEEAD9",
"F c #EFEBDC",
"G c #F0EBDC",
"H c #F1EDDF",
"J c #F2EFE2",
"K c #F3F0E5",
"L c #F4F1E6",
"P c #F6F3EA",
"I c #F6F4EB",
"U c #F7F5ED",
"Y c #F8F6EF",
"T c #F8F7F0",
"R c #F9F8F2",
"E c #FBFAF6",
"W c #FCFBF9",
"Q c #FDFCFA",
"! c white",
/* pixels */
"!!!!!!!!!!!!!!!!!!!!!!!!!!!!!!!!!!!!!!!!!!!!!!!!!!!!!!!!!!!!!!!!!!!!!!!!!!!!!!!!!!!!!!!!!!!!!!!!!!!!",
"!78888888888888888888888888888888888888888888888888888888888888888888888888888888888888888888888887!",
"!8                                                                                                8!",
"!8 XXXXXXXXXXXXXXXXXXXXXXXXXXXXXXXXXXXXXXXXXXXXXXXXXXXXXXXXXXXXXXXXXXXXXXXXXXXXXXXXXXXXXXXXXXXXXX 8!",
"!8 XXXXXXXXXXXXXXXXXXXXXXXXXXXXXXXXXXXXXXXXXXXXXXXXXXXXXXXXXXXXXXXXXXXXXXXXXXXXXXXXXXXXXXXXXXXXXX 8!",
"!8 XXXXXXXXXXXXXXXXXXXXXXXXXXXXXXXXXXXXXXXXXXXXXXXXXXXXXXXXXXXXXXXXXXXXXXXXXXXXXXXXXXXXXXXXXXXXXX 8!",
"!8 XXXXXXXXXXXXXXXXXXXXXXXXXXXXXXXXXXXXXXXXXXXXXXXXXXXXXXXXXXXXXXXXXXXXXXXXXXXXXXXXXXXXXXXXXXXXXX 8!",
"!8 XXXXXXXXXXXXXXXXXXXXXXXXXXXXXXXXXXXXXXXXXXXXXXXXXXXXXXXXXXXXXXXXXXXXXXXXXXXXXXXXXXXXXXXXXXXXXX 8!",
"!8 XXXXXXXXXXXXXXXXXXXXXXXXXXXXXXXXXXXXXXXXXXXXXXXXXXXXXXXXXXXXXXXXXXXXXXXXXXXXXXXXXXXXXXXXXXXXXX 8!",
"!8 XXXXXXXXXXXXXXXXXXXXXXXXXXXXXXXXXXXXXXXXXXXXXXXXXXXXXXXXXXXXXXXXXXXXXXXXXXXXXXXXXXXXXXXXXXXXXX 8!",
"!8 XXXXXXXXXXXXXXXXXXXXXXXXXXXXXXXXXXXXXXXXXXXXXXXXXXXXXXXXXXXXXXXXXXXXXXXXXXXXXXXXXXXXXXXXXXXXXX 8!",
"!8 XXXXXXXXXXXXXXXXXXXXXXXXXXXXXXXXXXXXXXXXXXXXXXXXXXXXXXXXXXXXXXXXXXXXXXXXXXXXXXXXXXXXXXXXXXXXXX 8!",
"!8 XXXXXXXXXXXXXXXXXXXXXXXXXXXXXXXXXXXXXXXXXXXXXXXXXXXXXXXXXXXXXXXXXXXXXXXXXXXXXXXXXXXXXXXXXXXXXX 8!",
"!8 XXXXXXXXXXXXXXXXXXXXXXXXXXXXXXXXXXXXXXXXXXXXXXXXXXXXXXXXXXXXXXXXXXXXXXXXXXXXXXXXXXXXXXXXXXXXXX 8!",
"!8 XXXXXXXXXXXXXXXXXXXXXXXXXXXXXXXXXXXXXXXXXXXXXXXXXXXXXXXXXXXXXXXXXXXXXXXXXXXXXXXXXXXXXXXXXXXXXX 8!",
"!8 XXXXXXXXXXXXXXXXXXXXXXXXXXXXXXXXXXXXXXXXXXXXXXXXXXXXXXXXXXXXXXXXXXXXXXXXXXXXXXXXXXXXXXXXXXXXXX 8!",
"!8 XXXXXXXXXXXXXXXXXXXXXXXXXXXXXXXXXXXXXXXXXXXXXXXXXXXXXXXXXXXXXXXXXXXXXXXXXXXXXXXXXXXXXXXXXXXXXX 8!",
"!8 XXXXXXXXXXXXXXXXXXXXXXXXXXXXXXXXXXXXXXXXXXXXXXXXXXXXXXXXXXXXXXXXXXXXXXXXXXXXXXXXXXXXXXXXXXXXXX 8!",
"!8 XXXXXXXXXXXXXXXXXXXXXXXXXXXXXXXXXXXXXXXXXXXXXXXXXXXXXXXXXXXXXXXXXXXXXXXXXXXXXXXXXXXXXXXXXXXXXX 8!",
"!8 XXXXXXXXXXXXXXXXXXXXXXXXXXXXXXXXXXXXXXXXXXXXXXXXXXXXXXXXXXXXXXXXXXXXXXXXXXXXXXXXXXXXXXXXXXXXXX 8!",
"!8 XXXXXXXXXXXXXXXXXXXXXXXXXXC!!!!!!!bXXXXXXXXXXXXXXXXXXXXXXXXXXa!!!!!!!LXXXXXXXXXXXXXXXXXXXXXXXX 8!",
"!8 XXXXXXXXXXXXXXXXXXXXXXXXXXi!!!!!!!KXXXXXXXXXXXXXXXXXXXXXXXXXXV!!!!!!!vXXXXXXXXXXXXXXXXXXXXXXXX 8!",
"!8 XXXXXXXXXXXXXXXXXXXXXXXXXX=!!!!!!!!*XXXXXXXXXXXXXXXXXXXXXXXXXT!!!!!!!0XXXXXXXXXXXXXXXXXXXXXXXX 8!",
"!8 XXXXXXXXXXXXXXXXXXXXXXXXXXXJ!!!!!!!yXXXXXXXXXXXXXXXXXXXXXXXX2!!!!!!!EOXXXXXXXXXXXXXXXXXXXXXXXX 8!",
"!8 XXXXXXXXXXXXXXXXXXXXXXXXXXXz!!!!!!!MXXXXXXXXXXXXXXXXXXXXXXXXg!!!!!!!CXXXXXXXXXXXXXXXXXXXXXXXXX 8!",
"!8 XXXXXXXXXXXXXXXXXXXXXXXXXXX5!!!!!!!IXXXXXXXXXXXXXXXXXXXXXXXXS!!!!!!!pXXXXXXXXXXXXXXXXXXXXXXXXX 8!",
"!8 XXXXXXXXXXXXXXXXXXXXXXXXXXXXR!!!!!!!:XXXXXXXXXXXXXXXXXXXXXXoE!!!!!!!-XXXXXXXXXXXXXXXXXXXXXXXXX 8!",
"!8 XXXXXXXXXXXXXXXXXXXXXXXXXXXXB!!!!!!!aXXXXXXXXXXXXXXXXXXXXXX6!!!!!!!KXXXXXXXXXXXXXXXXXXXXXXXXXX 8!",
"!8 XXXXXXXXXXXXXXXXXXXXXXXXXXXXu!!!!!!!VXXXXXXXXXXXXXXXXXXXXXXl!!!!!!!zXXXXXXXXXXXXXXXXXXXXXXXXXX 8!",
"!8 XXXXXXXXXXXXXXXXXXXXXXXXXXXX&!!!!!!!TXXXXXXXXXXXXXXXXXXXXXXG!!!!!!!6XXXXXXXXXXXXXXXXXXXXXXXXXX 8!",
"!8 XXXXXXXXXXXXXXXXXXXXXXXXXXXXXH!!!!!!!2XXXXXXXXXXXXXXXXXXXX@Q!!!!!!RXXXXXXXXXXXXXXXXXXXXXXXXXXX 8!",
"!8 XXXXXXXXXXXXXXXXXXXXXXXXXXXXXk!!!!!!!fXXXXXXXXXXXXXXXXXXXXq!!!!!!!VXXXXXXXXXXXXXXXXXXXXXXXXXXX 8!",
"!8 XXXXXXXXXXXXXXXXXXXXXXXXXXXXX3!!!!!!!AXXXXXXXXXXXXXXXXXXXXc!!!!!!!iXXXXXXXXXXXXXXXXXXXXXXXXXXX 8!",
"!8 XXXXXXXXXXXXXXXXXXXXXXXXXXXXXXY!!!!!!EoXXXXXXXXXXXXXXXXXXXJ!!!!!!!*XXXXXXXXXXXXXXXXXXXXXXXXXXX 8!",
"!8 XXXXXXXXXXXXXXXXXXXXXXXXXXXXXXN!!!!!!!5XXXXXXXXXXXXXXXXXX&!!!!!!!JXXXXXXXXXXXXXXXXXXXXXXXXXXXX 8!",
"!8 XXXXXXXXXXXXXXXXXXXXXXXXXXXXXXr!!!!!!!jXXXXXXXXXXXXXXXXXXr!!!!!!!lXXXXXXXXXXXXXXXXXXXXXXXXXXXX 8!",
"!8 XXXXXXXXXXXXXXXXXXXXXXXXXXXXXX$Q!!!!!!DXXXXXXXXXXXXXXXXXXn!!!!!!!4XXXXXXXXXXXXXXXXXXXXXXXXXXXX 8!",
"!8 XXXXXXXXXXXXXXXXXXXXXXXXXXXXXXXG!!!!!!W+XXXXXXXXXXXXXXXXXP!!!!!!TXXXXXXXXXXXXXXXXXXXXXXXXXXXXX 8!",
"!8 XXXXXXXXXXXXXXXXXXXXXXXXXXXXXXXh!!!!!!!0XXXXXXXXXXXXXXXX-!!!!!!!NXXXXXXXXXXXXXXXXXXXXXXXXXXXXX 8!",
"!8 XXXXXXXXXXXXXXXXXXXXXXXXXXXXXXX1!!!!!!!zXXXXXXXXXXXXXXXXi!!!!!!!tXXXXXXXXXXXXXXXXXXXXXXXXXXXXX 8!",
"!8 XXXXXXXXXXXXXXXXXXXXXXXXXXXXXXXXU!!!!!!JXXXXXXXXXXXXXXXXB!!!!!!!%XXXXXXXXXXXXXXXXXXXXXXXXXXXXX 8!",
"!8 XXXXXXXXXXXXXXXXXXXXXXXXXXXXXXXXm!!!!!!!%XXXXXXXXXXXXXXXY!!!!!!HXXXXXXXXXXXXXXXXXXXXXXXXXXXXXX 8!",
"!8 XXXXXXXXXXXXXXXXXXXXXXXXXXXXXXXXe!!!!!!!eXXXXXXXXXXXXXX<!!!!!!!jXXXXXXXXXXXXXXXXXXXXXXXXXXXXXX 8!",
"!8 XXXXXXXXXXXXXXXXXXXXXXXXXXXXXXXX@Q!!!!!!bXXXXXXXXXXXXXXf!!!!!!!3XXXXXXXXXXXXXXXXXXXXXXXXXXXXXX 8!",
"!8 XXXXXXXXXXXXXXXXXXXXXXXXXXXXXXXXXD!!!!!!LXXXXXXXXXXXXXXZ!!!!!!UXXXXXXXXXXXXXXXXXXXXXXXXXXXXXXX 8!",
"!8 XXXXXXXXXXXXXXXXXXXXXXXXXXXXXXXXXg!!!!!!!=XXXXXXXXXXXXXE!!!!!!MXXXXXXXXXXXXXXXXXXXXXXXXXXXXXXX 8!",
"!8 XXXXXXXXXXXXXXXXXXXXXXXXXXXXXXXXX,!!!!!!!uXXXXXXXXXXXX4!!!!!!!eXXXXXXXXXXXXXXXXXXXXXXXXXXXXXXX 8!",
"!8 XXXXXXXXXXXXXXXXXXXXXXXXXXXXXXXXXXP!!!!!!NXXXXXXXXXXXXh!!!!!!Q#XXXXXXXXXXXXXXXXXXXXXXXXXXXXXXX 8!",
"!8 XXXXXXXXXXXXXXXXXXXXXXXXXXXXXXXXXXb!!!!!!UXXXXXXXXXXXXD!!!!!!DXXXXXXXXXXXXXXXXXXXXXXXXXXXXXXXX 8!",
"!8 XXXXXXXXXXXXXXXXXXXXXXXXXXXXXXXXXXq!!!!!!!:XXXXXXXXXX+W!!!!!!gXXXXXXXXXXXXXXXXXXXXXXXXXXXXXXXX 8!",
"!8 XXXXXXXXXXXXXXXXXXXXXXXXXXXXXXXXXX+W!!!!!!aXXXXXXXXXX0!!!!!!!,XXXXXXXXXXXXXXXXXXXXXXXXXXXXXXXX 8!",
"!8 XXXXXXXXXXXXXXXXXXXXXXXXXXXXXXXXXXXS!!!!!!VXXXXXXXXXXz!!!!!!IXXXXXXXXXXXXXXXXXXXXXXXXXXXXXXXXX 8!",
"!8 XXXXXXXXXXXXXXXXXXXXXXXXXXXXXXXXXXXd!!!!!!TXXXXXXXXXXJ!!!!!!bXXXXXXXXXXXXXXXXXXXXXXXXXXXXXXXXX 8!",
"!8 XXXXXXXXXXXXXXXXXXXXXXXXXXXXXXXXXXX;!!!!!!!2XXXXXXXX$!!!!!!!wXXXXXXXXXXXXXXXXXXXXXXXXXXXXXXXXX 8!",
"!8 XXXXXXXXXXXXXXXXXXXXXXXXXXXXXXXXXXXXL!!!!!!gXXXXXXXXe!!!!!!W+XXXXXXXXXXXXXXXXXXXXXXXXXXXXXXXXX 8!",
"!8 XXXXXXXXXXXXXXXXXXXXXXXXXXXXXXXXXXXXv!!!!!!SXXXXXXXXb!!!!!!SXXXXXXXXXXXXXXXXXXXXXXXXXXXXXXXXXX 8!",
"!8 XXXXXXXXXXXXXXXXXXXXXXXXXXXXXXXXXXXX0!!!!!!EoXXXXXXXL!!!!!!fXXXXXXXXXXXXXXXXXXXXXXXXXXXXXXXXXX 8!",
"!8 XXXXXXXXXXXXXXXXXXXXXXXXXXXXXXXXXXXXoE!!!!!!6XXXXXX=!!!!!!!:XXXXXXXXXXXXXXXXXXXXXXXXXXXXXXXXXX 8!",
"!8 XXXXXXXXXXXXXXXXXXXXXXXXXXXXXXXXXXXXXC!!!!!!kXXXXXXu!!!!!!PXXXXXXXXXXXXXXXXXXXXXXXXXXXXXXXXXXX 8!",
"!8 XXXXXXXXXXXXXXXXXXXXXXXXXXXXXXXXXXXXXp!!!!!!FXXXXXXN!!!!!!bXXXXXXXXXXXXXXXXXXXXXXXXXXXXXXXXXXX 8!",
"!8 XXXXXXXXXXXXXXXXXXXXXXXXXXXXXXXXXXXXX-!!!!!!Q+XXXXXU!!!!!!0XXXXXXXXXXXXXXXXXXXXXXXXXXXXXXXXXXX 8!",
"!8 XXXXXXXXXXXXXXXXXXXXXXXXXXXXXXXXXXXXXXK!!!!!!qXXXX>!!!!!!EOXXXXXXXXXXXXXXXXXXXXXXXXXXXXXXXXXXX 8!",
"!8 XXXXXXXXXXXXXXXXXXXXXXXXXXXXXXXXXXXXXXz!!!!!!xXXXXs!!!!!!AXXXXXXXXXXXXXXXXXXXXXXXXXXXXXXXXXXXX 8!",
"!8 XXXXXXXXXXXXXXXXXXXXXXXXXXXXXXXXXXXXXX6!!!!!!JXXXXC!!!!!!sXXXXXXXXXXXXXXXXXXXXXXXXXXXXXXXXXXXX 8!",
"!8 XXXXXXXXXXXXXXXXXXXXXXXXXXXXXXXXXXXXXXXR!!!!!!%XXXT!!!!!!-XXXXXXXXXXXXXXXXXXXXXXXXXXXXXXXXXXXX 8!",
"!8 XXXXXXXXXXXXXXXXXXXXXXXXXXXXXXXXXXXXXXXV!!!!!!eXX3!!!!!!KXXXXXXXXXXXXXXXXXXXXXXXXXXXXXXXXXXXXX 8!",
"!8 XXXXXXXXXXXXXXXXXXXXXXXXXXXXXXXXXXXXXXXi!!!!!!bXXg!!!!!!xXXXXXXXXXXXXXXXXXXXXXXXXXXXXXXXXXXXXX 8!",
"!8 XXXXXXXXXXXXXXXXXXXXXXXXXXXXXXXXXXXXXXX*!!!!!!LXXS!!!!!!9XXXXXXXXXXXXXXXXXXXXXXXXXXXXXXXXXXXXX 8!",
"!8 XXXXXXXXXXXXXXXXXXXXXXXXXXXXXXXXXXXXXXXXJ!!!!!!-oE!!!!!EoXXXXXXXXXXXXXXXXXXXXXXXXXXXXXXXXXXXXX 8!",
"!8 XXXXXXXXXXXXXXXXXXXXXXXXXXXXXXXXXXXXXXXXl!!!!!!i6!!!!!!CXXXXXXXXXXXXXXXXXXXXXXXXXXXXXXXXXXXXXX 8!",
"!8 XXXXXXXXXXXXXXXXXXXXXXXXXXXXXXXXXXXXXXXX4!!!!!!Nl!!!!!!iXXXXXXXXXXXXXXXXXXXXXXXXXXXXXXXXXXXXXX 8!",
"!8 XXXXXXXXXXXXXXXXXXXXXXXXXXXXXXXXXXXXXXXXXT!!!!!UH!!!!!!=XXXXXXXXXXXXXXXXXXXXXXXXXXXXXXXXXXXXXX 8!",
"!8 XXXXXXXXXXXXXXXXXXXXXXXXXXXXXXXXXXXXXXXXXN!!!!!!!!!!!!JXXXXXXXXXXXXXXXXXXXXXXXXXXXXXXXXXXXXXXX 8!",
"!8 XXXXXXXXXXXXXXXXXXXXXXXXXXXXXXXXXXXXXXXXXt!!!!!!!!!!!!zXXXXXXXXXXXXXXXXXXXXXXXXXXXXXXXXXXXXXXX 8!",
"!8 XXXXXXXXXXXXXXXXXXXXXXXXXXXXXXXXXXXXXXXXX%!!!!!!!!!!!!5XXXXXXXXXXXXXXXXXXXXXXXXXXXXXXXXXXXXXXX 8!",
"!8 XXXXXXXXXXXXXXXXXXXXXXXXXXXXXXXXXXXXXXXXXXH!!!!!!!!!!RXXXXXXXXXXXXXXXXXXXXXXXXXXXXXXXXXXXXXXXX 8!",
"!8 XXXXXXXXXXXXXXXXXXXXXXXXXXXXXXXXXXXXXXXXXXj!!!!!!!!!!BXXXXXXXXXXXXXXXXXXXXXXXXXXXXXXXXXXXXXXXX 8!",
"!8 XXXXXXXXXXXXXXXXXXXXXXXXXXXXXXXXXXXXXXXXXX2!!!!!!!!!!uXXXXXXXXXXXXXXXXXXXXXXXXXXXXXXXXXXXXXXXX 8!",
"!8 XXXXXXXXXXXXXXXXXXXXXXXXXXXXXXXXXXXXXXXXXXXU!!!!!!!!!&XXXXXXXXXXXXXXXXXXXXXXXXXXXXXXXXXXXXXXXX 8!",
"!8 XXXXXXXXXXXXXXXXXXXXXXXXXXXXXXXXXXXXXXXXXXXXXXXXXXXXXXXXXXXXXXXXXXXXXXXXXXXXXXXXXXXXXXXXXXXXXX 8!",
"!8 XXXXXXXXXXXXXXXXXXXXXXXXXXXXXXXXXXXXXXXXXXXXXXXXXXXXXXXXXXXXXXXXXXXXXXXXXXXXXXXXXXXXXXXXXXXXXX 8!",
"!8 XXXXXXXXXXXXXXXXXXXXXXXXXXXXXXXXXXXXXXXXXXXXXXXXXXXXXXXXXXXXXXXXXXXXXXXXXXXXXXXXXXXXXXXXXXXXXX 8!",
"!8 XXXXXXXXXXXXXXXXXXXXXXXXXXXXXXXXXXXXXXXXXXXXXXXXXXXXXXXXXXXXXXXXXXXXXXXXXXXXXXXXXXXXXXXXXXXXXX 8!",
"!8 XXXXXXXXXXXXXXXXXXXXXXXXXXXXXXXXXXXXXXXXXXXXXXXXXXXXXXXXXXXXXXXXXXXXXXXXXXXXXXXXXXXXXXXXXXXXXX 8!",
"!8 XXXXXXXXXXXXXXXXXXXXXXXXXXXXXXXXXXXXXXXXXXXXXXXXXXXXXXXXXXXXXXXXXXXXXXXXXXXXXXXXXXXXXXXXXXXXXX 8!",
"!8 XXXXXXXXXXXXXXXXXXXXXXXXXXXXXXXXXXXXXXXXXXXXXXXXXXXXXXXXXXXXXXXXXXXXXXXXXXXXXXXXXXXXXXXXXXXXXX 8!",
"!8 XXXXXXXXXXXXXXXXXXXXXXXXXXXXXXXXXXXXXXXXXXXXXXXXXXXXXXXXXXXXXXXXXXXXXXXXXXXXXXXXXXXXXXXXXXXXXX 8!",
"!8 XXXXXXXXXXXXXXXXXXXXXXXXXXXXXXXXXXXXXXXXXXXXXXXXXXXXXXXXXXXXXXXXXXXXXXXXXXXXXXXXXXXXXXXXXXXXXX 8!",
"!8 XXXXXXXXXXXXXXXXXXXXXXXXXXXXXXXXXXXXXXXXXXXXXXXXXXXXXXXXXXXXXXXXXXXXXXXXXXXXXXXXXXXXXXXXXXXXXX 8!",
"!8 XXXXXXXXXXXXXXXXXXXXXXXXXXXXXXXXXXXXXXXXXXXXXXXXXXXXXXXXXXXXXXXXXXXXXXXXXXXXXXXXXXXXXXXXXXXXXX 8!",
"!8 XXXXXXXXXXXXXXXXXXXXXXXXXXXXXXXXXXXXXXXXXXXXXXXXXXXXXXXXXXXXXXXXXXXXXXXXXXXXXXXXXXXXXXXXXXXXXX 8!",
"!8 XXXXXXXXXXXXXXXXXXXXXXXXXXXXXXXXXXXXXXXXXXXXXXXXXXXXXXXXXXXXXXXXXXXXXXXXXXXXXXXXXXXXXXXXXXXXXX 8!",
"!8 XXXXXXXXXXXXXXXXXXXXXXXXXXXXXXXXXXXXXXXXXXXXXXXXXXXXXXXXXXXXXXXXXXXXXXXXXXXXXXXXXXXXXXXXXXXXXX 8!",
"!8 XXXXXXXXXXXXXXXXXXXXXXXXXXXXXXXXXXXXXXXXXXXXXXXXXXXXXXXXXXXXXXXXXXXXXXXXXXXXXXXXXXXXXXXXXXXXXX 8!",
"!8 XXXXXXXXXXXXXXXXXXXXXXXXXXXXXXXXXXXXXXXXXXXXXXXXXXXXXXXXXXXXXXXXXXXXXXXXXXXXXXXXXXXXXXXXXXXXXX 8!",
"!8 XXXXXXXXXXXXXXXXXXXXXXXXXXXXXXXXXXXXXXXXXXXXXXXXXXXXXXXXXXXXXXXXXXXXXXXXXXXXXXXXXXXXXXXXXXXXXX 8!",
"!8.XXXXXXXXXXXXXXXXXXXXXXXXXXXXXXXXXXXXXXXXXXXXXXXXXXXXXXXXXXXXXXXXXXXXXXXXXXXXXXXXXXXXXXXXXXXXXX 8!",
"!8                                                                                                8!",
"!78888888888888888888888888888888888888888888888888888888888888888888888888888888888888888888888887!",
"!!!!!!!!!!!!!!!!!!!!!!!!!!!!!!!!!!!!!!!!!!!!!!!!!!!!!!!!!!!!!!!!!!!!!!!!!!!!!!!!!!!!!!!!!!!!!!!!!!!!"
};
