/* XPM */
static char *v3[] = {
/* columns rows colors chars-per-pixel */
"100 100 37 1 ",
"  c #686868",
". c #727272",
"X c #777777",
"o c gray48",
"O c gray49",
"+ c #808080",
"@ c gray53",
"# c #8B8B8B",
"$ c gray56",
"% c gray57",
"& c gray58",
"* c #989898",
"= c #9F9F9F",
"- c gray64",
"; c #A7A7A7",
": c gray67",
"> c #AFAFAF",
", c gray70",
"< c #B4B4B4",
"1 c #BBBBBB",
"2 c #BCBCBC",
"3 c gray76",
"4 c #C5C5C5",
"5 c #CBCBCB",
"6 c gray80",
"7 c gray82",
"8 c #D5D5D5",
"9 c #D8D8D8",
"0 c #DDDDDD",
"q c #E2E2E2",
"w c #E7E7E7",
"e c #E9E9E9",
"r c #EEEEEE",
"t c #F3F3F3",
"y c #F4F4F4",
"u c #FBFBFB",
"i c white",
/* pixels */
"iiiiiiiiiiiiiiiiiiiiiiiiiiiiiiiiiiiiiiiiiiiiiiiiiiiiiiiiiiiiiiiiiiiiiiiiiiiiiiiiiiiiiiiiiiiiiiiiiiii",
"i>,,,,,,,,,,,,,,,,,,,,,,,,,,,,,,,,,,,,,,,,,,,,,,,,,,,,,,,,,,,,,,,,,,,,,,,,,,,,,,,,,,,,,,,,,,,,,,,,>i",
"i,                                                                                                ,i",
"i, .............................................................................................. ,i",
"i, .............................................................................................. ,i",
"i, .............................................................................................. ,i",
"i, .............................................................................................. ,i",
"i, .............................................................................................. ,i",
"i, .............................................................................................. ,i",
"i, .............................................................................................. ,i",
"i, .............................................................................................. ,i",
"i, .............................................................................................. ,i",
"i, .............................................................................................. ,i",
"i, .............................................................................................. ,i",
"i, .............................................................................................. ,i",
"i, .............................................................................................. ,i",
"i, .............................................................................................. ,i",
"i, .............................................................................................. ,i",
"i, .............................................................................................. ,i",
"i, .............................................................................................. ,i",
"i, ..........................9iiiiiii5..........................<iiiiiiie........................ ,i",
"i, ..........................,iiiiiiie..........................8iiiiiii5........................ ,i",
"i, ..........................+iiiiiiiiO.........................tiiiiiii=........................ ,i",
"i, ...........................wiiiiiii>........................%iiiiiiiyX........................ ,i",
"i, ...........................4iiiiiii7........................2iiiiiii9......................... ,i",
"i, ...........................*iiiiiiir........................0iiiiiii<......................... ,i",
"i, ............................yiiiiiii@.......................yiiiiiii+......................... ,i",
"i, ............................8iiiiiii<......................*iiiiiiie.......................... ,i",
"i, ............................>iiiiiii8......................3iiiiiii4.......................... ,i",
"i, ............................Oiiiiiiit......................qiiiiiii*.......................... ,i",
"i, .............................wiiiiiii$....................Xuiiiiiiy........................... ,i",
"i, .............................3iiiiiii1....................-iiiiiii8........................... ,i",
"i, .............................&iiiiiii0....................5iiiiiii,........................... ,i",
"i, ..............................tiiiiiiy....................wiiiiiiiO........................... ,i",
"i, ..............................7iiiiiii*..................Oiiiiiiiw............................ ,i",
"i, ..............................:iiiiiii3..................:iiiiiii3............................ ,i",
"i, ..............................oiiiiiiiq..................6iiiiiii&............................ ,i",
"i, ...............................qiiiiiiuX.................riiiiiit............................. ,i",
"i, ...............................2iiiiiii-................@iiiiiii8............................. ,i",
"i, ...............................$iiiiiii4................,iiiiiii>............................. ,i",
"i, ................................tiiiiiiw................8iiiiiiiO............................. ,i",
"i, ................................7iiiiiiio...............tiiiiiiq.............................. ,i",
"i, ................................;iiiiiii:..............$iiiiiii3.............................. ,i",
"i, ................................Xuiiiiii6..............1iiiiiii%.............................. ,i",
"i, .................................0iiiiiie..............9iiiiiit............................... ,i",
"i, .................................1iiiiiii+.............yiiiiii7............................... ,i",
"i, .................................#iiiiiii>............&iiiiiii:............................... ,i",
"i, ..................................riiiiii7............2iiiiiiuo............................... ,i",
"i, ..................................6iiiiiir............qiiiiiiq................................ ,i",
"i, ..................................-iiiiiii#..........Xuiiiiii2................................ ,i",
"i, ..................................Xuiiiiii<..........=iiiiiii$................................ ,i",
"i, ...................................0iiiiii8..........4iiiiiir................................. ,i",
"i, ...................................<iiiiiit..........wiiiiii6................................. ,i",
"i, ...................................@iiiiiii%........oiiiiiii;................................. ,i",
"i, ....................................eiiiiii2........;iiiiiiuX................................. ,i",
"i, ....................................5iiiiii0........6iiiiii0.................................. ,i",
"i, ....................................=iiiiiiy........eiiiiii1.................................. ,i",
"i, .....................................yiiiiii*......+iiiiiii#.................................. ,i",
"i, .....................................9iiiiii3......>iiiiiir................................... ,i",
"i, .....................................<iiiiiiq......7iiiiii5................................... ,i",
"i, .....................................+iiiiiiuX.....riiiiii-................................... ,i",
"i, ......................................eiiiiii-....#iiiiiiuX................................... ,i",
"i, ......................................4iiiiii5....<iiiiii9.................................... ,i",
"i, ......................................*iiiiiiw....9iiiiii<.................................... ,i",
"i, .......................................yiiiiiio...yiiiiii@.................................... ,i",
"i, .......................................8iiiiii:..%iiiiiie..................................... ,i",
"i, .......................................,iiiiii6..2iiiiii5..................................... ,i",
"i, .......................................Oiiiiiie..0iiiiii=..................................... ,i",
"i, ........................................wiiiiii+.uiiiiiy...................................... ,i",
"i, ........................................3iiiiii,*iiiiii9...................................... ,i",
"i, ........................................&iiiiii73iiiiii,...................................... ,i",
"i, .........................................tiiiiitqiiiiii+...................................... ,i",
"i, .........................................8iiiiiiiiiiiiw....................................... ,i",
"i, .........................................>iiiiiiiiiiii4....................................... ,i",
"i, .........................................Oiiiiiiiiiiii*....................................... ,i",
"i, ..........................................qiiiiiiiiiiy........................................ ,i",
"i, ..........................................3iiiiiiiiii8........................................ ,i",
"i, ..........................................%iiiiiiiiii>........................................ ,i",
"i, ...........................................tiiiiiiiiiO........................................ ,i",
"i, .............................................................................................. ,i",
"i, .............................................................................................. ,i",
"i, .............................................................................................. ,i",
"i, .............................................................................................. ,i",
"i, .............................................................................................. ,i",
"i, .............................................................................................. ,i",
"i, .............................................................................................. ,i",
"i, .............................................................................................. ,i",
"i, .............................................................................................. ,i",
"i, .............................................................................................. ,i",
"i, .............................................................................................. ,i",
"i, .............................................................................................. ,i",
"i, .............................................................................................. ,i",
"i, .............................................................................................. ,i",
"i, .............................................................................................. ,i",
"i, .............................................................................................. ,i",
"i, .............................................................................................. ,i",
"i,O.............................................................................................. ,i",
"i,                                                                                                ,i",
"i>,,,,,,,,,,,,,,,,,,,,,,,,,,,,,,,,,,,,,,,,,,,,,,,,,,,,,,,,,,,,,,,,,,,,,,,,,,,,,,,,,,,,,,,,,,,,,,,,>i",
"iiiiiiiiiiiiiiiiiiiiiiiiiiiiiiiiiiiiiiiiiiiiiiiiiiiiiiiiiiiiiiiiiiiiiiiiiiiiiiiiiiiiiiiiiiiiiiiiiiii"
};
