/* XPM */
static char *w[] = {
/* columns rows colors chars-per-pixel */
"100 100 91 1 ",
"  c #2E0000",
". c #310D0D",
"X c #341616",
"o c #371C1C",
"O c #3A2222",
"+ c #3D2626",
"@ c #3F2A2A",
"# c #422E2E",
"$ c #443232",
"% c #463535",
"& c #483838",
"* c #4C3D3D",
"= c #4E4040",
"- c #504242",
"; c #524545",
": c #544747",
"> c #574B4B",
", c #594D4D",
"< c #5E5353",
"1 c #615656",
"2 c #625858",
"3 c #645A5A",
"4 c #665D5D",
"5 c #6A6262",
"6 c #6C6363",
"7 c #6E6666",
"8 c #686868",
"9 c #726A6A",
"0 c #766E6E",
"q c #777070",
"w c #797272",
"e c #7B7575",
"r c #7E7777",
"t c #7E7878",
"y c #7C7C7C",
"u c #807979",
"i c #827C7C",
"p c #868080",
"a c #898383",
"s c #8B8686",
"d c #8C8787",
"f c #8E8989",
"g c #908B8B",
"h c #918C8C",
"j c #979393",
"k c #9B9797",
"l c #9E9A9A",
"z c #A09C9C",
"x c #A6A3A3",
"c c #A9A6A6",
"v c #ABA8A8",
"b c #ADAAAA",
"n c #AFAFAF",
"m c #B1AEAE",
"M c gray70",
"N c #B6B3B3",
"B c #B7B4B4",
"V c #B8B5B5",
"C c #BBB9B9",
"Z c #BDBBBB",
"A c #BEBCBC",
"S c #C0BEBE",
"D c #C3C1C1",
"F c #C4C2C2",
"G c #C6C4C4",
"H c #C8C6C6",
"J c #CBC9C9",
"K c #CCCACA",
"L c #CFCDCD",
"P c #D0CFCF",
"I c #D2D1D1",
"U c #D4D2D2",
"Y c #D6D5D5",
"T c #D9D7D7",
"R c #DBDADA",
"E c #DCDBDB",
"W c #DFDEDE",
"Q c #E0DFDF",
"! c #E3E2E2",
"~ c #E4E3E3",
"^ c #E5E4E4",
"/ c #E8E7E7",
"( c #E9E9E9",
") c #ECEBEB",
"_ c #EEEDED",
"` c #F0EFEF",
"' c #F3F2F2",
"] c #F6F6F6",
"[ c #F8F7F7",
"{ c gray98",
"} c white",
/* pixels */
"}}}}}}}}}}}}}}}}}}}}}}}}}}}}}}}}}}}}}}}}}}}}}}}}}}}}}}}}}}}}}}}}}}}}}}}}}}}}}}}}}}}}}}}}}}}}}}}}}}}}",
"}nMMMMMMMMMMMMMMMMMMMMMMMMMMMMMMMMMMMMMMMMMMMMMMMMMMMMMMMMMMMMMMMMMMMMMMMMMMMMMMMMMMMMMMMMMMMMMMMMn}",
"}M888888888888888888888888888888888888888888888888888888888888888888888888888888888888888888888888M}",
"}M8}}}}}}}}}}}}}}}}}}}}}}}}}}}}}}}}}}}}}}}}}}}}}}}}}}}}}}}}}}}}}}}}}}}}}}}}}}}}}}}}}}}}}}}}}}}}}}8M}",
"}M8}}}}}}}}}}}}}}}}}}}}}}}}}}}}}}}}}}}}}}}}}}}}}}}}}}}}}}}}}}}}}}}}}}}}}}}}}}}}}}}}}}}}}}}}}}}}}}8M}",
"}M8}}}}}}}}}}}}}}}}}}}}}}}}}}}}}}}}}}}}}}}}}}}}}}}}}}}}}}}}}}}}}}}}}}}}}}}}}}}}}}}}}}}}}}}}}}}}}}8M}",
"}M8}}}}}}}}}}}}}}}}}}}}}}}}}}}}}}}}}}}}}}}}}}}}}}}}}}}}}}}}}}}}}}}}}}}}}}}}}}}}}}}}}}}}}}}}}}}}}}8M}",
"}M8}}}}}}}}}}}}}}}}}}}}}}}}}}}}}}}}}}}}}}}}}}}}}}}}}}}}}}}}}}}}}}}}}}}}}}}}}}}}}}}}}}}}}}}}}}}}}}8M}",
"}M8}}}}}}}}}}}}}}}}}}}}}}}}}}}}}}}}}}}}}}}}}}}}}}}}}}}}}}}}}}}}}}}}}}}}}}}}}}}}}}}}}}}}}}}}}}}}}}8M}",
"}M8}}}}}}}}}}}}}}}}}}}}}}}}}}}}}}}}}}}}}}}}}}}}}}}}}}}}}}}}}}}}}}}}}}}}}}}}}}}}}}}}}}}}}}}}}}}}}}8M}",
"}M8}}}}}}}}}}}}}}}}}}}}}}}}}}}}}}}}}}}}}}}}}}}}}}}}}}}}}}}}}}}}}}}}}}}}}}}}}}}}}}}}}}}}}}}}}}}}}}8M}",
"}M8}}}}}}}}}}}}}}}}}}}}}}}}}}}}}}}}}}}}}}}}}}}}}}}}}}}}}}}}}}}}}}}}}}}}}}}}}}}}}}}}}}}}}}}}}}}}}}8M}",
"}M8}}}}}}}}}}}}}}}}}}}}}}}}}}}}}}}}}}}}}}}}}}}}}}}}}}}}}}}}}}}}}}}}}}}}}}}}}}}}}}}}}}}}}}}}}}}}}}8M}",
"}M8}}}}}}}}}}}}}}}}}}}}}}}}}}}}}}}}}}}}}}}}}}}}}}}}}}}}}}}}}}}}}}}}}}}}}}}}}}}}}}}}}}}}}}}}}}}}}}8M}",
"}M8}}}}}}}}}}}}}}}}}}}}}}}}}}}}}}}}}}}}}}}}}}}}}}}}}}}}}}}}}}}}}}}}}}}}}}}}}}}}}}}}}}}}}}}}}}}}}}8M}",
"}M8}}}}}}}}}}}}}}}}}}}}}}}}}}}}}}}}}}}}}}}}}}}}}}}}}}}}}}}}}}}}}}}}}}}}}}}}}}}}}}}}}}}}}}}}}}}}}}8M}",
"}M8}}}}}}}}}}}}}}}}}}}}}}}}}}}}}}}}}}}}}}}}}}}}}}}}}}}}}}}}}}}}}}}}}}}}}}}}}}}}}}}}}}}}}}}}}}}}}}8M}",
"}M8}}}}}}}}}}}}}}}}}}}}}}}}}}}}}}}}}}}}}}}}}}}}}}}}}}}}}}}}}}}}}}}}}}}}}}}}}}}}}}}}}}}}}}}}}}}}}}8M}",
"}M8}}}}}}}}}}}}}}}}}}}}}}}}}}}}}}}}}}}}}}}}}}}}}}}}}}}}}}}}}}}}}}}}}}}}}}}}}}}}}}}}}}}}}}}}}}}}}}8M}",
"}M8}}}}}}}}}}}}}}}}}}}}}}}}}}}}}}}}}}}}}}}}}}}}}}}}}}}}}}}}}}}}}}}}}}}}}}}}}}}}}}}}}}}}}}}}}}}}}}8M}",
"}M8}}}}}}}}}}}}}}}}}}}}}}}}>      s}}}}}}}}}}}}}}}}}}}}}}}}}}}}}}}}b       ]}}}}}}}}}}}}}}}}}}}}}8M}",
"}M8}}}}}}}}}}}}}}}}}}}}}}}}p      5}}}}}}}}}}}}}}}}}}}}}}}}}}}}}}}}j      =}}}}}}}}}}}}}}}}}}}}}}8M}",
"}M8}}}}}}}}}}}}}}}}}}}}}}}}x      O}}}}}}}}}}}}}}}}}}}}}}}}}}}}}}}}w      u}}}}}}}}}}}}}}}}}}}}}}8M}",
"}M8}}}}}}}}}}}}}}}}}}}}}}}}S       '}}}}}}}}}}}}}}}}}}}}}}}}}}}}}}};      z}}}}}}}}}}}}}}}}}}}}}}8M}",
"}M8}}}}}}}}}}}}}}}}}}}}}}}}Y       ^}}}}}}}}}}}}}}}}}}}}}}}}}}}}}}{       Z}}}}}}}}}}}}}}}}}}}}}}8M}",
"}M8}}}}}}}}}}}}}}}}}}}}}}}}(       Y}}}}}}}}}}}}}}}}}}}}}}}}}}}}}}(       I}}}}}}}}}}}}}}}}}}}}}}8M}",
"}M8}}}}}}}}}}}}}}}}}}}}}}}}{       F}}}}}}}}}}}}}}}}}}}}}}}}}}}}}}W       ^}}}}}}}}}}}}}}}}}}}}}}8M}",
"}M8}}}}}}}}}}}}}}}}}}}}}}}}}3      m}}}}}}}}}}}}}}}}}}}}}}}}}}}}}}K       {}}}}}}}}}}}}}}}}}}}}}}8M}",
"}M8}}}}}}}}}}}}}}}}}}}}}}}}}f      k}}}}}}}}}}}}}}}}}}}}}}}}}}}}}}C      <}}}}}}}}}}}}}}}}}}}}}}}8M}",
"}M8}}}}}}}}}}}}}}}}}}}}}}}}}b      u}}}}}}}}}}}}}}}}}}}}}}}}}}}}}}x      s}}}}}}}}}}}}}}}}}}}}}}}8M}",
"}M8}}}}}}}}}}}}}}}}}}}}}}}}}G      ,}}}}}}}}}}}}}}}}}}}}}}}}}}}}}}f      c}}}}}}}}}}}}}}}}}}}}}}}8M}",
"}M8}}}}}}}}}}}}}}}}}}}}}}}}}R       {}}}}}}}}}}}}}}}}}}}}}}}}}}}}}7      D}}}}}}}}}}}}}}}}}}}}}}}8M}",
"}M8}}}}}}}}}}}}}}}}}}}}}}}}}_       _}}}}}}}}}}}}}}}}}}}}}}}}}}}}}@      T}}}}}}}}}}}}}}}}}}}}}}}8M}",
"}M8}}}}}}}}}}}}}}}}}}}}}}}}}}o      W}}}}}}}}}}}}}}}}}}}}}}}}}}}}]       (}}}}}}}}}}}}}}}}}}}}}}}8M}",
"}M8}}}}}}}}}}}}}}}}}}}}}}}}}}9      L}}}}}}}}}}}}}}}}}}}}}}}}}}}}^      .{}}}}}}}}}}}}}}}}}}}}}}}8M}",
"}M8}}}}}}}}}}}}}}}}}}}}}}}}}}j      Z}}}}}}}}}}}}}}}}}}}}}}}}}}}}Y      5}}}}}}}}}}}}}}}}}}}}}}}}8M}",
"}M8}}}}}}}}}}}}}}}}}}}}}}}}}}M      c}}}}}}}}}'iiiiiiii^}}}}}}}}}G      h}}}}}}}}}}}}}}}}}}}}}}}}8M}",
"}M8}}}}}}}}}}}}}}}}}}}}}}}}}}J      h}}}}}}}}}U        G}}}}}}}}}M      m}}}}}}}}}}}}}}}}}}}}}}}}8M}",
"}M8}}}}}}}}}}}}}}}}}}}}}}}}}}W      9}}}}}}}}}N        z}}}}}}}}}l      G}}}}}}}}}}}}}}}}}}}}}}}}8M}",
"}M8}}}}}}}}}}}}}}}}}}}}}}}}}}'      $}}}}}}}}}a        7}}}}}}}}}i      E}}}}}}}}}}}}}}}}}}}}}}}}8M}",
"}M8}}}}}}}}}}}}}}}}}}}}}}}}}}}%      ]}}}}}}}}%         ]}}}}}}}}<      _}}}}}}}}}}}}}}}}}}}}}}}}8M}",
"}M8}}}}}}}}}}}}}}}}}}}}}}}}}}}w      /}}}}}}}(          W}}}}}}}}.     +}}}}}}}}}}}}}}}}}}}}}}}}}8M}",
"}M8}}}}}}}}}}}}}}}}}}}}}}}}}}}l      T}}}}}}}L          A}}}}}}}_      0}}}}}}}}}}}}}}}}}}}}}}}}}8M}",
"}M8}}}}}}}}}}}}}}}}}}}}}}}}}}}V      H}}}}}}}v          j}}}}}}}Q      k}}}}}}}}}}}}}}}}}}}}}}}}}8M}",
"}M8}}}}}}}}}}}}}}}}}}}}}}}}}}}L      N}}}}}}}r    $4    ,}}}}}}}P      N}}}}}}}}}}}}}}}}}}}}}}}}}8M}",
"}M8}}}}}}}}}}}}}}}}}}}}}}}}}}}!      z}}}}}}{O    sx     '}}}}}}A      K}}}}}}}}}}}}}}}}}}}}}}}}}8M}",
"}M8}}}}}}}}}}}}}}}}}}}}}}}}}}}]      p}}}}}}~     BJ     Y}}}}}}c      !}}}}}}}}}}}}}}}}}}}}}}}}}8M}",
"}M8}}}}}}}}}}}}}}}}}}}}}}}}}}}}:     2}}}}}}G     R(     N}}}}}}h      '}}}}}}}}}}}}}}}}}}}}}}}}}8M}",
"}M8}}}}}}}}}}}}}}}}}}}}}}}}}}}}i     .}}}}}}z     ]}=    s}}}}}}0     &}}}}}}}}}}}}}}}}}}}}}}}}}}8M}",
"}M8}}}}}}}}}}}}}}}}}}}}}}}}}}}}x      '}}}}}9    9}}h    &}}}}}}&     t}}}}}}}}}}}}}}}}}}}}}}}}}}8M}",
"}M8}}}}}}}}}}}}}}}}}}}}}}}}}}}}A      !}}}}[     x}}Z     (}}}}]      z}}}}}}}}}}}}}}}}}}}}}}}}}}8M}",
"}M8}}}}}}}}}}}}}}}}}}}}}}}}}}}}U      I}}}}W     K}}W     L}}}}(      C}}}}}}}}}}}}}}}}}}}}}}}}}}8M}",
"}M8}}}}}}}}}}}}}}}}}}}}}}}}}}}}/      S}}}}S     (}}{X    v}}}}R      I}}}}}}}}}}}}}}}}}}}}}}}}}}8M}",
"}M8}}}}}}}}}}}}}}}}}}}}}}}}}}}}{      b}}}}k    -}}}}r    r}}}}J      ^}}}}}}}}}}}}}}}}}}}}}}}}}}8M}",
"}M8}}}}}}}}}}}}}}}}}}}}}}}}}}}}}1     j}}}}2    h}}}}b    o{}}}V      ]}}}}}}}}}}}}}}}}}}}}}}}}}}8M}",
"}M8}}}}}}}}}}}}}}}}}}}}}}}}}}}}}d     w}}}'     Z}}}}I     !}}}z     ,}}}}}}}}}}}}}}}}}}}}}}}}}}}8M}",
"}M8}}}}}}}}}}}}}}}}}}}}}}}}}}}}}c     =}}}T     W}}}}`     G}}}a     p}}}}}}}}}}}}}}}}}}}}}}}}}}}8M}",
"}M8}}}}}}}}}}}}}}}}}}}}}}}}}}}}}F      {}}V    X{}}}}}1    z}}}4     x}}}}}}}}}}}}}}}}}}}}}}}}}}}8M}",
"}M8}}}}}}}}}}}}}}}}}}}}}}}}}}}}}R      (}}g    e}}}}}}l    6}}}o     S}}}}}}}}}}}}}}}}}}}}}}}}}}}8M}",
"}M8}}}}}}}}}}}}}}}}}}}}}}}}}}}}}_      E}};    b}}}}}}G     ]}'      Y}}}}}}}}}}}}}}}}}}}}}}}}}}}8M}",
"}M8}}}}}}}}}}}}}}}}}}}}}}}}}}}}}}X     J}_     I}}}}}}^     E}!      (}}}}}}}}}}}}}}}}}}}}}}}}}}}8M}",
"}M8}}}}}}}}}}}}}}}}}}}}}}}}}}}}}}7     V}I     _}}}}}}}$    Z}U     .{}}}}}}}}}}}}}}}}}}}}}}}}}}}8M}",
"}M8}}}}}}}}}}}}}}}}}}}}}}}}}}}}}}h     x}m    <}}}}}}}}s    j}D     4}}}}}}}}}}}}}}}}}}}}}}}}}}}}8M}",
"}M8}}}}}}}}}}}}}}}}}}}}}}}}}}}}}}m     s}p    l}}}}}}}}V    ,}m     f}}}}}}}}}}}}}}}}}}}}}}}}}}}}8M}",
"}M8}}}}}}}}}}}}}}}}}}}}}}}}}}}}}}H     5}#    F}}}}}}}}R     _k     b}}}}}}}}}}}}}}}}}}}}}}}}}}}}8M}",
"}M8}}}}}}}}}}}}}}}}}}}}}}}}}}}}}}W     O^     ~}}}}}}}}]     Ur     G}}}}}}}}}}}}}}}}}}}}}}}}}}}}8M}",
"}M8}}}}}}}}}}}}}}}}}}}}}}}}}}}}}}'      C    @}}}}}}}}}}9    N>     R}}}}}}}}}}}}}}}}}}}}}}}}}}}}8M}",
"}M8}}}}}}}}}}}}}}}}}}}}}}}}}}}}}}}#     0    p}}}}}}}}}}c    r      _}}}}}}}}}}}}}}}}}}}}}}}}}}}}8M}",
"}M8}}}}}}}}}}}}}}}}}}}}}}}}}}}}}}}q          N}}}}}}}}}}L          O}}}}}}}}}}}}}}}}}}}}}}}}}}}}}8M}",
"}M8}}}}}}}}}}}}}}}}}}}}}}}}}}}}}}}k          T}}}}}}}}}})          9}}}}}}}}}}}}}}}}}}}}}}}}}}}}}8M}",
"}M8}}}}}}}}}}}}}}}}}}}}}}}}}}}}}}}B          ]}}}}}}}}}}}:         j}}}}}}}}}}}}}}}}}}}}}}}}}}}}}8M}",
"}M8}}}}}}}}}}}}}}}}}}}}}}}}}}}}}}}L         6}}}}}}}}}}}}j         N}}}}}}}}}}}}}}}}}}}}}}}}}}}}}8M}",
"}M8}}}}}}}}}}}}}}}}}}}}}}}}}}}}}}}!         x}}}}}}}}}}}}S         J}}}}}}}}}}}}}}}}}}}}}}}}}}}}}8M}",
"}M8}}}}}}}}}}}}}}}}}}}}}}}}}}}}}}}]         J}}}}}}}}}}}}!         Q}}}}}}}}}}}}}}}}}}}}}}}}}}}}}8M}",
"}M8}}}}}}}}}}}}}}}}}}}}}}}}}}}}}}}}=        (}}}}}}}}}}}}{O        '}}}}}}}}}}}}}}}}}}}}}}}}}}}}}8M}",
"}M8}}}}}}}}}}}}}}}}}}}}}}}}}}}}}}}}u       *}}}}}}}}}}}}}}u       %}}}}}}}}}}}}}}}}}}}}}}}}}}}}}}8M}",
"}M8}}}}}}}}}}}}}}}}}}}}}}}}}}}}}}}}z       g}}}}}}}}}}}}}}m       e}}}}}}}}}}}}}}}}}}}}}}}}}}}}}}8M}",
"}M8}}}}}}}}}}}}}}}}}}}}}}}}}}}}}}}}Z       Z}}}}}}}}}}}}}}Y       l}}}}}}}}}}}}}}}}}}}}}}}}}}}}}}8M}",
"}M8}}}}}}}}}}}}}}}}}}}}}}}}}}}}}}}}I       W}}}}}}}}}}}}}}'       V}}}}}}}}}}}}}}}}}}}}}}}}}}}}}}8M}",
"}M8}}}}}}}}}}}}}}}}}}}}}}}}}}}}}}}}}}}}}}}}}}}}}}}}}}}}}}}}}}}}}}}}}}}}}}}}}}}}}}}}}}}}}}}}}}}}}}8M}",
"}M8}}}}}}}}}}}}}}}}}}}}}}}}}}}}}}}}}}}}}}}}}}}}}}}}}}}}}}}}}}}}}}}}}}}}}}}}}}}}}}}}}}}}}}}}}}}}}}8M}",
"}M8}}}}}}}}}}}}}}}}}}}}}}}}}}}}}}}}}}}}}}}}}}}}}}}}}}}}}}}}}}}}}}}}}}}}}}}}}}}}}}}}}}}}}}}}}}}}}}8M}",
"}M8}}}}}}}}}}}}}}}}}}}}}}}}}}}}}}}}}}}}}}}}}}}}}}}}}}}}}}}}}}}}}}}}}}}}}}}}}}}}}}}}}}}}}}}}}}}}}}8M}",
"}M8}}}}}}}}}}}}}}}}}}}}}}}}}}}}}}}}}}}}}}}}}}}}}}}}}}}}}}}}}}}}}}}}}}}}}}}}}}}}}}}}}}}}}}}}}}}}}}8M}",
"}M8}}}}}}}}}}}}}}}}}}}}}}}}}}}}}}}}}}}}}}}}}}}}}}}}}}}}}}}}}}}}}}}}}}}}}}}}}}}}}}}}}}}}}}}}}}}}}}8M}",
"}M8}}}}}}}}}}}}}}}}}}}}}}}}}}}}}}}}}}}}}}}}}}}}}}}}}}}}}}}}}}}}}}}}}}}}}}}}}}}}}}}}}}}}}}}}}}}}}}8M}",
"}M8}}}}}}}}}}}}}}}}}}}}}}}}}}}}}}}}}}}}}}}}}}}}}}}}}}}}}}}}}}}}}}}}}}}}}}}}}}}}}}}}}}}}}}}}}}}}}}8M}",
"}M8}}}}}}}}}}}}}}}}}}}}}}}}}}}}}}}}}}}}}}}}}}}}}}}}}}}}}}}}}}}}}}}}}}}}}}}}}}}}}}}}}}}}}}}}}}}}}}8M}",
"}M8}}}}}}}}}}}}}}}}}}}}}}}}}}}}}}}}}}}}}}}}}}}}}}}}}}}}}}}}}}}}}}}}}}}}}}}}}}}}}}}}}}}}}}}}}}}}}}8M}",
"}M8}}}}}}}}}}}}}}}}}}}}}}}}}}}}}}}}}}}}}}}}}}}}}}}}}}}}}}}}}}}}}}}}}}}}}}}}}}}}}}}}}}}}}}}}}}}}}}8M}",
"}M8}}}}}}}}}}}}}}}}}}}}}}}}}}}}}}}}}}}}}}}}}}}}}}}}}}}}}}}}}}}}}}}}}}}}}}}}}}}}}}}}}}}}}}}}}}}}}}8M}",
"}M8}}}}}}}}}}}}}}}}}}}}}}}}}}}}}}}}}}}}}}}}}}}}}}}}}}}}}}}}}}}}}}}}}}}}}}}}}}}}}}}}}}}}}}}}}}}}}}8M}",
"}M8}}}}}}}}}}}}}}}}}}}}}}}}}}}}}}}}}}}}}}}}}}}}}}}}}}}}}}}}}}}}}}}}}}}}}}}}}}}}}}}}}}}}}}}}}}}}}}8M}",
"}M8}}}}}}}}}}}}}}}}}}}}}}}}}}}}}}}}}}}}}}}}}}}}}}}}}}}}}}}}}}}}}}}}}}}}}}}}}}}}}}}}}}}}}}}}}}}}}}8M}",
"}M8}}}}}}}}}}}}}}}}}}}}}}}}}}}}}}}}}}}}}}}}}}}}}}}}}}}}}}}}}}}}}}}}}}}}}}}}}}}}}}}}}}}}}}}}}}}}}}8M}",
"}M8}}}}}}}}}}}}}}}}}}}}}}}}}}}}}}}}}}}}}}}}}}}}}}}}}}}}}}}}}}}}}}}}}}}}}}}}}}}}}}}}}}}}}}}}}}}}}}8M}",
"}My}}}}}}}}}}}}}}}}}}}}}}}}}}}}}}}}}}}}}}}}}}}}}}}}}}}}}}}}}}}}}}}}}}}}}}}}}}}}}}}}}}}}}}}}}}}}}}8M}",
"}M888888888888888888888888888888888888888888888888888888888888888888888888888888888888888888888888M}",
"}nMMMMMMMMMMMMMMMMMMMMMMMMMMMMMMMMMMMMMMMMMMMMMMMMMMMMMMMMMMMMMMMMMMMMMMMMMMMMMMMMMMMMMMMMMMMMMMMMn}",
"}}}}}}}}}}}}}}}}}}}}}}}}}}}}}}}}}}}}}}}}}}}}}}}}}}}}}}}}}}}}}}}}}}}}}}}}}}}}}}}}}}}}}}}}}}}}}}}}}}}}"
};
