/* XPM */
static char *w1[] = {
/* columns rows colors chars-per-pixel */
"100 100 92 1 ",
"  c #686868",
". c #7C7C7C",
"X c #348032",
"o c #378135",
"O c #3A8238",
"+ c #3C823B",
"@ c #3F833D",
"# c #418440",
"$ c #448542",
"% c #468644",
"& c #4A8749",
"* c #4C884B",
"= c #4E894D",
"- c #538B52",
"; c #558C54",
": c #588D57",
"> c #5A8E59",
", c #5C8F5B",
"< c #5F905E",
"1 c #60915F",
"2 c #639362",
"3 c #659364",
"4 c #679567",
"5 c #699568",
"6 c #6D976C",
"7 c #6F996E",
"8 c #709970",
"9 c #749B73",
"0 c #769D76",
"q c #7A9F79",
"w c #7CA07B",
"e c #7EA17D",
"r c #80A280",
"t c #83A483",
"y c #84A584",
"u c #88A788",
"i c #89A889",
"p c #8CAA8B",
"a c #8DAA8C",
"s c #90AD90",
"d c #94AF93",
"f c #95AF94",
"g c #97B197",
"h c #9BB39A",
"j c #9BB49B",
"k c #9EB69D",
"l c #AFAFAF",
"z c #A2B8A1",
"x c #A5BAA4",
"c c #A7BCA7",
"v c #A8BCA7",
"b c #ABBFAB",
"n c #ACBFAC",
"m c gray70",
"M c #ADC0AD",
"N c #B0C2AF",
"B c #B0C2B0",
"V c #B2C4B2",
"C c #B4C5B3",
"Z c #B6C7B6",
"A c #B8C8B7",
"S c #B9C9B9",
"D c #BCCBBB",
"F c #BCCBBC",
"G c #BFCDBF",
"H c #C1CEC0",
"J c #C3D0C3",
"K c #C6D2C6",
"L c #CAD5CA",
"P c #CCD7CC",
"I c #CDD8CD",
"U c #D0DAD0",
"Y c #D2DCD2",
"T c #D4DDD3",
"R c #D7DFD7",
"E c #DAE2DA",
"W c #DCE3DB",
"Q c #DDE4DC",
"! c #E0E6E0",
"~ c #E2E8E2",
"^ c #E6EBE6",
"/ c #E7ECE7",
"( c #E9EDE9",
") c #EFF2EF",
"_ c #F0F3EF",
"` c #F0F3F0",
"' c #F1F4F1",
"] c #F4F6F4",
"[ c #F7F9F7",
"{ c #F9FAF9",
"} c #FBFCFB",
"| c white",
/* pixels */
"||||||||||||||||||||||||||||||||||||||||||||||||||||||||||||||||||||||||||||||||||||||||||||||||||||",
"|lmmmmmmmmmmmmmmmmmmmmmmmmmmmmmmmmmmmmmmmmmmmmmmmmmmmmmmmmmmmmmmmmmmmmmmmmmmmmmmmmmmmmmmmmmmmmmmmml|",
"|m                                                                                                m|",
"|m XXXXXXXXXXXXXXXXXXXXXXXXXXXXXXXXXXXXXXXXXXXXXXXXXXXXXXXXXXXXXXXXXXXXXXXXXXXXXXXXXXXXXXXXXXXXXX m|",
"|m XXXXXXXXXXXXXXXXXXXXXXXXXXXXXXXXXXXXXXXXXXXXXXXXXXXXXXXXXXXXXXXXXXXXXXXXXXXXXXXXXXXXXXXXXXXXXX m|",
"|m XXXXXXXXXXXXXXXXXXXXXXXXXXXXXXXXXXXXXXXXXXXXXXXXXXXXXXXXXXXXXXXXXXXXXXXXXXXXXXXXXXXXXXXXXXXXXX m|",
"|m XXXXXXXXXXXXXXXXXXXXXXXXXXXXXXXXXXXXXXXXXXXXXXXXXXXXXXXXXXXXXXXXXXXXXXXXXXXXXXXXXXXXXXXXXXXXXX m|",
"|m XXXXXXXXXXXXXXXXXXXXXXXXXXXXXXXXXXXXXXXXXXXXXXXXXXXXXXXXXXXXXXXXXXXXXXXXXXXXXXXXXXXXXXXXXXXXXX m|",
"|m XXXXXXXXXXXXXXXXXXXXXXXXXXXXXXXXXXXXXXXXXXXXXXXXXXXXXXXXXXXXXXXXXXXXXXXXXXXXXXXXXXXXXXXXXXXXXX m|",
"|m XXXXXXXXXXXXXXXXXXXXXXXXXXXXXXXXXXXXXXXXXXXXXXXXXXXXXXXXXXXXXXXXXXXXXXXXXXXXXXXXXXXXXXXXXXXXXX m|",
"|m XXXXXXXXXXXXXXXXXXXXXXXXXXXXXXXXXXXXXXXXXXXXXXXXXXXXXXXXXXXXXXXXXXXXXXXXXXXXXXXXXXXXXXXXXXXXXX m|",
"|m XXXXXXXXXXXXXXXXXXXXXXXXXXXXXXXXXXXXXXXXXXXXXXXXXXXXXXXXXXXXXXXXXXXXXXXXXXXXXXXXXXXXXXXXXXXXXX m|",
"|m XXXXXXXXXXXXXXXXXXXXXXXXXXXXXXXXXXXXXXXXXXXXXXXXXXXXXXXXXXXXXXXXXXXXXXXXXXXXXXXXXXXXXXXXXXXXXX m|",
"|m XXXXXXXXXXXXXXXXXXXXXXXXXXXXXXXXXXXXXXXXXXXXXXXXXXXXXXXXXXXXXXXXXXXXXXXXXXXXXXXXXXXXXXXXXXXXXX m|",
"|m XXXXXXXXXXXXXXXXXXXXXXXXXXXXXXXXXXXXXXXXXXXXXXXXXXXXXXXXXXXXXXXXXXXXXXXXXXXXXXXXXXXXXXXXXXXXXX m|",
"|m XXXXXXXXXXXXXXXXXXXXXXXXXXXXXXXXXXXXXXXXXXXXXXXXXXXXXXXXXXXXXXXXXXXXXXXXXXXXXXXXXXXXXXXXXXXXXX m|",
"|m XXXXXXXXXXXXXXXXXXXXXXXXXXXXXXXXXXXXXXXXXXXXXXXXXXXXXXXXXXXXXXXXXXXXXXXXXXXXXXXXXXXXXXXXXXXXXX m|",
"|m XXXXXXXXXXXXXXXXXXXXXXXXXXXXXXXXXXXXXXXXXXXXXXXXXXXXXXXXXXXXXXXXXXXXXXXXXXXXXXXXXXXXXXXXXXXXXX m|",
"|m XXXXXXXXXXXXXXXXXXXXXXXXXXXXXXXXXXXXXXXXXXXXXXXXXXXXXXXXXXXXXXXXXXXXXXXXXXXXXXXXXXXXXXXXXXXXXX m|",
"|m XXXXXXXXXXXXXXXXXXXXXXXXXXXXXXXXXXXXXXXXXXXXXXXXXXXXXXXXXXXXXXXXXXXXXXXXXXXXXXXXXXXXXXXXXXXXXX m|",
"|m XXXXXXXXXXXXXXXXXXXXXXXX[||||||~XXXXXXXXXXXXXXXXXXXXXXXXXXXXXXXXP|||||||2XXXXXXXXXXXXXXXXXXXXX m|",
"|m XXXXXXXXXXXXXXXXXXXXXXXX^||||||'XXXXXXXXXXXXXXXXXXXXXXXXXXXXXXXXQ||||||{XXXXXXXXXXXXXXXXXXXXXX m|",
"|m XXXXXXXXXXXXXXXXXXXXXXXXY|||||||OXXXXXXXXXXXXXXXXXXXXXXXXXXXXXXX(||||||(XXXXXXXXXXXXXXXXXXXXXX m|",
"|m XXXXXXXXXXXXXXXXXXXXXXXXF|||||||5XXXXXXXXXXXXXXXXXXXXXXXXXXXXXXX{||||||RXXXXXXXXXXXXXXXXXXXXXX m|",
"|m XXXXXXXXXXXXXXXXXXXXXXXXz|||||||iXXXXXXXXXXXXXXXXXXXXXXXXXXXXXX-|||||||GXXXXXXXXXXXXXXXXXXXXXX m|",
"|m XXXXXXXXXXXXXXXXXXXXXXXXr|||||||zXXXXXXXXXXXXXXXXXXXXXXXXXXXXXXw|||||||xXXXXXXXXXXXXXXXXXXXXXX m|",
"|m XXXXXXXXXXXXXXXXXXXXXXXX=|||||||AXXXXXXXXXXXXXXXXXXXXXXXXXXXXXXg|||||||yXXXXXXXXXXXXXXXXXXXXXX m|",
"|m XXXXXXXXXXXXXXXXXXXXXXXXX]||||||LXXXXXXXXXXXXXXXXXXXXXXXXXXXXXXM|||||||;XXXXXXXXXXXXXXXXXXXXXX m|",
"|m XXXXXXXXXXXXXXXXXXXXXXXXX~||||||EXXXXXXXXXXXXXXXXXXXXXXXXXXXXXXH||||||[XXXXXXXXXXXXXXXXXXXXXXX m|",
"|m XXXXXXXXXXXXXXXXXXXXXXXXXI||||||(XXXXXXXXXXXXXXXXXXXXXXXXXXXXXXY||||||^XXXXXXXXXXXXXXXXXXXXXXX m|",
"|m XXXXXXXXXXXXXXXXXXXXXXXXXZ||||||[XXXXXXXXXXXXXXXXXXXXXXXXXXXXXX~||||||UXXXXXXXXXXXXXXXXXXXXXXX m|",
"|m XXXXXXXXXXXXXXXXXXXXXXXXXh|||||||*XXXXXXXXXXXXXXXXXXXXXXXXXXXXX`||||||SXXXXXXXXXXXXXXXXXXXXXXX m|",
"|m XXXXXXXXXXXXXXXXXXXXXXXXX0|||||||0XXXXXXXXXXXXXXXXXXXXXXXXXXXXo|||||||kXXXXXXXXXXXXXXXXXXXXXXX m|",
"|m XXXXXXXXXXXXXXXXXXXXXXXXX#|||||||dXXXXXXXXXXXXXXXXXXXXXXXXXXXX3|||||||eXXXXXXXXXXXXXXXXXXXXXXX m|",
"|m XXXXXXXXXXXXXXXXXXXXXXXXXX_||||||bXXXXXXXXXXXXXXXXXXXXXXXXXXXXy|||||||&XXXXXXXXXXXXXXXXXXXXXXX m|",
"|m XXXXXXXXXXXXXXXXXXXXXXXXXXQ||||||GXXXXXXXXXXXXXXXXXXXXXXXXXXXXz||||||'XXXXXXXXXXXXXXXXXXXXXXXX m|",
"|m XXXXXXXXXXXXXXXXXXXXXXXXXXL||||||UXXXXXXXXX7((((((((yXXXXXXXXXZ||||||!XXXXXXXXXXXXXXXXXXXXXXXX m|",
"|m XXXXXXXXXXXXXXXXXXXXXXXXXXB||||||!XXXXXXXXXx||||||||ZXXXXXXXXXL||||||LXXXXXXXXXXXXXXXXXXXXXXXX m|",
"|m XXXXXXXXXXXXXXXXXXXXXXXXXXd||||||)XXXXXXXXXL||||||||RXXXXXXXXXE||||||ZXXXXXXXXXXXXXXXXXXXXXXXX m|",
"|m XXXXXXXXXXXXXXXXXXXXXXXXXX6|||||||XXXXXXXXX^||||||||`XXXXXXXXX(||||||hXXXXXXXXXXXXXXXXXXXXXXXX m|",
"|m XXXXXXXXXXXXXXXXXXXXXXXXXXo}||||||<XXXXXXX@}|||||||||,XXXXXXXX]||||||8XXXXXXXXXXXXXXXXXXXXXXXX m|",
"|m XXXXXXXXXXXXXXXXXXXXXXXXXXX(||||||tXXXXXXXr||||||||||gXXXXXXX%|||||||+XXXXXXXXXXXXXXXXXXXXXXXX m|",
"|m XXXXXXXXXXXXXXXXXXXXXXXXXXXE||||||kXXXXXXXM||||||||||GXXXXXXX9||||||)XXXXXXXXXXXXXXXXXXXXXXXXX m|",
"|m XXXXXXXXXXXXXXXXXXXXXXXXXXXJ||||||CXXXXXXXI||||||||||QXXXXXXXs||||||EXXXXXXXXXXXXXXXXXXXXXXXXX m|",
"|m XXXXXXXXXXXXXXXXXXXXXXXXXXXb||||||KXXXXXXX(|||||'||||[XXXXXXXb||||||KXXXXXXXXXXXXXXXXXXXXXXXXX m|",
"|m XXXXXXXXXXXXXXXXXXXXXXXXXXXp||||||RXXXXXX&|||||^R|||||7XXXXXXG||||||MXXXXXXXXXXXXXXXXXXXXXXXXX m|",
"|m XXXXXXXXXXXXXXXXXXXXXXXXXXX1||||||^XXXXXXi|||||KB|||||zXXXXXXI||||||sXXXXXXXXXXXXXXXXXXXXXXXXX m|",
"|m XXXXXXXXXXXXXXXXXXXXXXXXXXXX{|||||]XXXXXXZ|||||kr|||||KXXXXXXQ||||||4XXXXXXXXXXXXXXXXXXXXXXXXX m|",
"|m XXXXXXXXXXXXXXXXXXXXXXXXXXXX/||||||$XXXXXR|||||1+{||||^XXXXXX)|||||{XXXXXXXXXXXXXXXXXXXXXXXXXX m|",
"|m XXXXXXXXXXXXXXXXXXXXXXXXXXXXT||||||7XXXXX_||||_XX!||||}+XXXXX{|||||(XXXXXXXXXXXXXXXXXXXXXXXXXX m|",
"|m XXXXXXXXXXXXXXXXXXXXXXXXXXXXG||||||aXXXX:|||||YXXG|||||eXXXX,||||||RXXXXXXXXXXXXXXXXXXXXXXXXXX m|",
"|m XXXXXXXXXXXXXXXXXXXXXXXXXXXXx||||||cXXXXf|||||MXXf|||||MXXXXr||||||HXXXXXXXXXXXXXXXXXXXXXXXXXX m|",
"|m XXXXXXXXXXXXXXXXXXXXXXXXXXXXt||||||DXXXXF|||||eXX-|||||IXXXXj||||||vXXXXXXXXXXXXXXXXXXXXXXXXXX m|",
"|m XXXXXXXXXXXXXXXXXXXXXXXXXXXX-||||||IXXXXE||||{OXXX(||||(XXXXB||||||uXXXXXXXXXXXXXXXXXXXXXXXXXX m|",
"|m XXXXXXXXXXXXXXXXXXXXXXXXXXXXX]|||||QXXXX]||||QXXXXP|||||*XXXK||||||>XXXXXXXXXXXXXXXXXXXXXXXXXX m|",
"|m XXXXXXXXXXXXXXXXXXXXXXXXXXXXX~|||||)XXX5|||||GXXXXc|||||aXXXR|||||[XXXXXXXXXXXXXXXXXXXXXXXXXXX m|",
"|m XXXXXXXXXXXXXXXXXXXXXXXXXXXXXI|||||{XXXk|||||fXXXX8|||||ZXXX^|||||^XXXXXXXXXXXXXXXXXXXXXXXXXXX m|",
"|m XXXXXXXXXXXXXXXXXXXXXXXXXXXXXS||||||;XXJ|||||-XXXXX]||||RXXX'|||||UXXXXXXXXXXXXXXXXXXXXXXXXXXX m|",
"|m XXXXXXXXXXXXXXXXXXXXXXXXXXXXXk||||||eXX!||||(XXXXXXE||||'XX+||||||DXXXXXXXXXXXXXXXXXXXXXXXXXXX m|",
"|m XXXXXXXXXXXXXXXXXXXXXXXXXXXXXq||||||hXo{||||PXXXXXXZ|||||<X5||||||zXXXXXXXXXXXXXXXXXXXXXXXXXXX m|",
"|m XXXXXXXXXXXXXXXXXXXXXXXXXXXXX$||||||NX0|||||cXXXXXXi|||||hXp||||||eXXXXXXXXXXXXXXXXXXXXXXXXXXX m|",
"|m XXXXXXXXXXXXXXXXXXXXXXXXXXXXXX`|||||JXc|||||8XXXXXX$|||||GXx||||||*XXXXXXXXXXXXXXXXXXXXXXXXXXX m|",
"|m XXXXXXXXXXXXXXXXXXXXXXXXXXXXXXQ|||||TXL||||]XXXXXXXX^||||QXS|||||'XXXXXXXXXXXXXXXXXXXXXXXXXXXX m|",
"|m XXXXXXXXXXXXXXXXXXXXXXXXXXXXXXL|||||~X^||||EXXXXXXXXK||||[XL|||||!XXXXXXXXXXXXXXXXXXXXXXXXXXXX m|",
"|m XXXXXXXXXXXXXXXXXXXXXXXXXXXXXXV|||||'#|||||AXXXXXXXXk|||||8W|||||IXXXXXXXXXXXXXXXXXXXXXXXXXXXX m|",
"|m XXXXXXXXXXXXXXXXXXXXXXXXXXXXXXg||||||y|||||iXXXXXXXX<|||||x(|||||ZXXXXXXXXXXXXXXXXXXXXXXXXXXXX m|",
"|m XXXXXXXXXXXXXXXXXXXXXXXXXXXXXX7||||||H|||||%XXXXXXXXX)||||L{|||||hXXXXXXXXXXXXXXXXXXXXXXXXXXXX m|",
"|m XXXXXXXXXXXXXXXXXXXXXXXXXXXXXXO||||||)||||^XXXXXXXXXXU||||(||||||0XXXXXXXXXXXXXXXXXXXXXXXXXXXX m|",
"|m XXXXXXXXXXXXXXXXXXXXXXXXXXXXXXX)||||||||||KXXXXXXXXXXM|||||||||||#XXXXXXXXXXXXXXXXXXXXXXXXXXXX m|",
"|m XXXXXXXXXXXXXXXXXXXXXXXXXXXXXXXE||||||||||kXXXXXXXXXXq||||||||||)XXXXXXXXXXXXXXXXXXXXXXXXXXXXX m|",
"|m XXXXXXXXXXXXXXXXXXXXXXXXXXXXXXXK||||||||||3XXXXXXXXXXo{|||||||||QXXXXXXXXXXXXXXXXXXXXXXXXXXXXX m|",
"|m XXXXXXXXXXXXXXXXXXXXXXXXXXXXXXXn|||||||||'XXXXXXXXXXXXQ|||||||||LXXXXXXXXXXXXXXXXXXXXXXXXXXXXX m|",
"|m XXXXXXXXXXXXXXXXXXXXXXXXXXXXXXXa|||||||||RXXXXXXXXXXXXF|||||||||NXXXXXXXXXXXXXXXXXXXXXXXXXXXXX m|",
"|m XXXXXXXXXXXXXXXXXXXXXXXXXXXXXXX2|||||||||BXXXXXXXXXXXXs|||||||||sXXXXXXXXXXXXXXXXXXXXXXXXXXXXX m|",
"|m XXXXXXXXXXXXXXXXXXXXXXXXXXXXXXXX{||||||||rXXXXXXXXXXXX=|||||||||5XXXXXXXXXXXXXXXXXXXXXXXXXXXXX m|",
"|m XXXXXXXXXXXXXXXXXXXXXXXXXXXXXXXX(|||||||{+XXXXXXXXXXXXX(|||||||}oXXXXXXXXXXXXXXXXXXXXXXXXXXXXX m|",
"|m XXXXXXXXXXXXXXXXXXXXXXXXXXXXXXXXR|||||||!XXXXXXXXXXXXXXL|||||||(XXXXXXXXXXXXXXXXXXXXXXXXXXXXXX m|",
"|m XXXXXXXXXXXXXXXXXXXXXXXXXXXXXXXXG|||||||HXXXXXXXXXXXXXXz|||||||EXXXXXXXXXXXXXXXXXXXXXXXXXXXXXX m|",
"|m XXXXXXXXXXXXXXXXXXXXXXXXXXXXXXXXx|||||||gXXXXXXXXXXXXXX5|||||||JXXXXXXXXXXXXXXXXXXXXXXXXXXXXXX m|",
"|m XXXXXXXXXXXXXXXXXXXXXXXXXXXXXXXXXXXXXXXXXXXXXXXXXXXXXXXXXXXXXXXXXXXXXXXXXXXXXXXXXXXXXXXXXXXXXX m|",
"|m XXXXXXXXXXXXXXXXXXXXXXXXXXXXXXXXXXXXXXXXXXXXXXXXXXXXXXXXXXXXXXXXXXXXXXXXXXXXXXXXXXXXXXXXXXXXXX m|",
"|m XXXXXXXXXXXXXXXXXXXXXXXXXXXXXXXXXXXXXXXXXXXXXXXXXXXXXXXXXXXXXXXXXXXXXXXXXXXXXXXXXXXXXXXXXXXXXX m|",
"|m XXXXXXXXXXXXXXXXXXXXXXXXXXXXXXXXXXXXXXXXXXXXXXXXXXXXXXXXXXXXXXXXXXXXXXXXXXXXXXXXXXXXXXXXXXXXXX m|",
"|m XXXXXXXXXXXXXXXXXXXXXXXXXXXXXXXXXXXXXXXXXXXXXXXXXXXXXXXXXXXXXXXXXXXXXXXXXXXXXXXXXXXXXXXXXXXXXX m|",
"|m XXXXXXXXXXXXXXXXXXXXXXXXXXXXXXXXXXXXXXXXXXXXXXXXXXXXXXXXXXXXXXXXXXXXXXXXXXXXXXXXXXXXXXXXXXXXXX m|",
"|m XXXXXXXXXXXXXXXXXXXXXXXXXXXXXXXXXXXXXXXXXXXXXXXXXXXXXXXXXXXXXXXXXXXXXXXXXXXXXXXXXXXXXXXXXXXXXX m|",
"|m XXXXXXXXXXXXXXXXXXXXXXXXXXXXXXXXXXXXXXXXXXXXXXXXXXXXXXXXXXXXXXXXXXXXXXXXXXXXXXXXXXXXXXXXXXXXXX m|",
"|m XXXXXXXXXXXXXXXXXXXXXXXXXXXXXXXXXXXXXXXXXXXXXXXXXXXXXXXXXXXXXXXXXXXXXXXXXXXXXXXXXXXXXXXXXXXXXX m|",
"|m XXXXXXXXXXXXXXXXXXXXXXXXXXXXXXXXXXXXXXXXXXXXXXXXXXXXXXXXXXXXXXXXXXXXXXXXXXXXXXXXXXXXXXXXXXXXXX m|",
"|m XXXXXXXXXXXXXXXXXXXXXXXXXXXXXXXXXXXXXXXXXXXXXXXXXXXXXXXXXXXXXXXXXXXXXXXXXXXXXXXXXXXXXXXXXXXXXX m|",
"|m XXXXXXXXXXXXXXXXXXXXXXXXXXXXXXXXXXXXXXXXXXXXXXXXXXXXXXXXXXXXXXXXXXXXXXXXXXXXXXXXXXXXXXXXXXXXXX m|",
"|m XXXXXXXXXXXXXXXXXXXXXXXXXXXXXXXXXXXXXXXXXXXXXXXXXXXXXXXXXXXXXXXXXXXXXXXXXXXXXXXXXXXXXXXXXXXXXX m|",
"|m XXXXXXXXXXXXXXXXXXXXXXXXXXXXXXXXXXXXXXXXXXXXXXXXXXXXXXXXXXXXXXXXXXXXXXXXXXXXXXXXXXXXXXXXXXXXXX m|",
"|m XXXXXXXXXXXXXXXXXXXXXXXXXXXXXXXXXXXXXXXXXXXXXXXXXXXXXXXXXXXXXXXXXXXXXXXXXXXXXXXXXXXXXXXXXXXXXX m|",
"|m XXXXXXXXXXXXXXXXXXXXXXXXXXXXXXXXXXXXXXXXXXXXXXXXXXXXXXXXXXXXXXXXXXXXXXXXXXXXXXXXXXXXXXXXXXXXXX m|",
"|m XXXXXXXXXXXXXXXXXXXXXXXXXXXXXXXXXXXXXXXXXXXXXXXXXXXXXXXXXXXXXXXXXXXXXXXXXXXXXXXXXXXXXXXXXXXXXX m|",
"|m.XXXXXXXXXXXXXXXXXXXXXXXXXXXXXXXXXXXXXXXXXXXXXXXXXXXXXXXXXXXXXXXXXXXXXXXXXXXXXXXXXXXXXXXXXXXXXX m|",
"|m                                                                                                m|",
"|lmmmmmmmmmmmmmmmmmmmmmmmmmmmmmmmmmmmmmmmmmmmmmmmmmmmmmmmmmmmmmmmmmmmmmmmmmmmmmmmmmmmmmmmmmmmmmmmml|",
"||||||||||||||||||||||||||||||||||||||||||||||||||||||||||||||||||||||||||||||||||||||||||||||||||||"
};
