/* XPM */
static char *w2[] = {
/* columns rows colors chars-per-pixel */
"100 100 78 1 ",
"  c #686868",
". c #7C7C7C",
"X c #C3AF2A",
"o c #C3AF2E",
"O c #C4B031",
"+ c #C4B137",
"@ c #C4B13A",
"# c #C5B13D",
"$ c #C6B346",
"% c #C6B348",
"& c #C7B54E",
"* c #C7B550",
"= c #C8B757",
"- c #C9B75B",
"; c #C9B85C",
": c #CAB961",
"> c #CBBA65",
", c #CBBB68",
"< c #CCBB69",
"1 c #CCBC6C",
"2 c #CEBE73",
"3 c #CEBF75",
"4 c #CFC07A",
"5 c #D0C17B",
"6 c #D0C17E",
"7 c #AFAFAF",
"8 c gray70",
"9 c #D1C381",
"0 c #D2C587",
"q c #D3C589",
"w c #D4C78D",
"e c #D5C992",
"r c #D6CA96",
"t c #D7CB98",
"y c #D7CC99",
"u c #D8CD9B",
"i c #D8CD9C",
"p c #DACFA0",
"a c #DBD0A3",
"s c #DBD1A6",
"d c #DCD1A6",
"f c #DDD3AA",
"g c #DDD4AC",
"h c #DFD6B0",
"j c #E0D7B3",
"k c #E0D7B4",
"l c #E1D8B5",
"z c #E3DBBB",
"x c #E3DBBC",
"c c #E3DCBD",
"v c #E4DCBE",
"b c #E6DFC3",
"n c #E6DFC4",
"m c #E6E0C5",
"M c #E7E1C8",
"N c #E8E2C9",
"B c #E9E3CD",
"V c #EAE4CE",
"C c #EBE6D2",
"Z c #ECE7D3",
"A c #EDE7D5",
"S c #EDE8D6",
"D c #EFEAD9",
"F c #F0EBDC",
"G c #F1EDDF",
"H c #F2EEE1",
"J c #F3F0E4",
"K c #F4F1E6",
"L c #F5F2E9",
"P c #F6F4EB",
"I c #F7F5EE",
"U c #F8F6EF",
"Y c #F9F7F1",
"T c #FAF8F3",
"R c #FBFAF7",
"E c #FCFBF9",
"W c #FDFDFB",
"Q c white",
/* pixels */
"QQQQQQQQQQQQQQQQQQQQQQQQQQQQQQQQQQQQQQQQQQQQQQQQQQQQQQQQQQQQQQQQQQQQQQQQQQQQQQQQQQQQQQQQQQQQQQQQQQQQ",
"Q78888888888888888888888888888888888888888888888888888888888888888888888888888888888888888888888887Q",
"Q8                                                                                                8Q",
"Q8 XXXXXXXXXXXXXXXXXXXXXXXXXXXXXXXXXXXXXXXXXXXXXXXXXXXXXXXXXXXXXXXXXXXXXXXXXXXXXXXXXXXXXXXXXXXXXX 8Q",
"Q8 XXXXXXXXXXXXXXXXXXXXXXXXXXXXXXXXXXXXXXXXXXXXXXXXXXXXXXXXXXXXXXXXXXXXXXXXXXXXXXXXXXXXXXXXXXXXXX 8Q",
"Q8 XXXXXXXXXXXXXXXXXXXXXXXXXXXXXXXXXXXXXXXXXXXXXXXXXXXXXXXXXXXXXXXXXXXXXXXXXXXXXXXXXXXXXXXXXXXXXX 8Q",
"Q8 XXXXXXXXXXXXXXXXXXXXXXXXXXXXXXXXXXXXXXXXXXXXXXXXXXXXXXXXXXXXXXXXXXXXXXXXXXXXXXXXXXXXXXXXXXXXXX 8Q",
"Q8 XXXXXXXXXXXXXXXXXXXXXXXXXXXXXXXXXXXXXXXXXXXXXXXXXXXXXXXXXXXXXXXXXXXXXXXXXXXXXXXXXXXXXXXXXXXXXX 8Q",
"Q8 XXXXXXXXXXXXXXXXXXXXXXXXXXXXXXXXXXXXXXXXXXXXXXXXXXXXXXXXXXXXXXXXXXXXXXXXXXXXXXXXXXXXXXXXXXXXXX 8Q",
"Q8 XXXXXXXXXXXXXXXXXXXXXXXXXXXXXXXXXXXXXXXXXXXXXXXXXXXXXXXXXXXXXXXXXXXXXXXXXXXXXXXXXXXXXXXXXXXXXX 8Q",
"Q8 XXXXXXXXXXXXXXXXXXXXXXXXXXXXXXXXXXXXXXXXXXXXXXXXXXXXXXXXXXXXXXXXXXXXXXXXXXXXXXXXXXXXXXXXXXXXXX 8Q",
"Q8 XXXXXXXXXXXXXXXXXXXXXXXXXXXXXXXXXXXXXXXXXXXXXXXXXXXXXXXXXXXXXXXXXXXXXXXXXXXXXXXXXXXXXXXXXXXXXX 8Q",
"Q8 XXXXXXXXXXXXXXXXXXXXXXXXXXXXXXXXXXXXXXXXXXXXXXXXXXXXXXXXXXXXXXXXXXXXXXXXXXXXXXXXXXXXXXXXXXXXXX 8Q",
"Q8 XXXXXXXXXXXXXXXXXXXXXXXXXXXXXXXXXXXXXXXXXXXXXXXXXXXXXXXXXXXXXXXXXXXXXXXXXXXXXXXXXXXXXXXXXXXXXX 8Q",
"Q8 XXXXXXXXXXXXXXXXXXXXXXXXXXXXXXXXXXXXXXXXXXXXXXXXXXXXXXXXXXXXXXXXXXXXXXXXXXXXXXXXXXXXXXXXXXXXXX 8Q",
"Q8 XXXXXXXXXXXXXXXXXXXXXXXXXXXXXXXXXXXXXXXXXXXXXXXXXXXXXXXXXXXXXXXXXXXXXXXXXXXXXXXXXXXXXXXXXXXXXX 8Q",
"Q8 XXXXXXXXXXXXXXXXXXXXXXXXXXXXXXXXXXXXXXXXXXXXXXXXXXXXXXXXXXXXXXXXXXXXXXXXXXXXXXXXXXXXXXXXXXXXXX 8Q",
"Q8 XXXXXXXXXXXXXXXXXXXXXXXXXXXXXXXXXXXXXXXXXXXXXXXXXXXXXXXXXXXXXXXXXXXXXXXXXXXXXXXXXXXXXXXXXXXXXX 8Q",
"Q8 XXXXXXXXXXXXXXXXXXXXXXXXXXXXXXXXXXXXXXXXXXXXXXXXXXXXXXXXXXXXXXXXXXXXXXXXXXXXXXXXXXXXXXXXXXXXXX 8Q",
"Q8 XXXXXXXXXXXXXXXXXXXXXXXXXXXXXXXXXXXXXXXXXXXXXXXXXXXXXXXXXXXXXXXXXXXXXXXXXXXXXXXXXXXXXXXXXXXXXX 8Q",
"Q8 XXXXXXXXXXXXXXXXXXXXXXXXRQQQQQQHXXXXXXXXXXXXXXXXXXXXXXXXXXXXXXXXBQQQQQQQ;XXXXXXXXXXXXXXXXXXXXX 8Q",
"Q8 XXXXXXXXXXXXXXXXXXXXXXXXKQQQQQQYXXXXXXXXXXXXXXXXXXXXXXXXXXXXXXXXFQQQQQQWXXXXXXXXXXXXXXXXXXXXXX 8Q",
"Q8 XXXXXXXXXXXXXXXXXXXXXXXXCQQQQQQQOXXXXXXXXXXXXXXXXXXXXXXXXXXXXXXXPQQQQQQLXXXXXXXXXXXXXXXXXXXXXX 8Q",
"Q8 XXXXXXXXXXXXXXXXXXXXXXXXzQQQQQQQ>XXXXXXXXXXXXXXXXXXXXXXXXXXXXXXXEQQQQQQAXXXXXXXXXXXXXXXXXXXXXX 8Q",
"Q8 XXXXXXXXXXXXXXXXXXXXXXXXpQQQQQQQ0XXXXXXXXXXXXXXXXXXXXXXXXXXXXXX&QQQQQQQvXXXXXXXXXXXXXXXXXXXXXX 8Q",
"Q8 XXXXXXXXXXXXXXXXXXXXXXXX6QQQQQQQpXXXXXXXXXXXXXXXXXXXXXXXXXXXXXX4QQQQQQQsXXXXXXXXXXXXXXXXXXXXXX 8Q",
"Q8 XXXXXXXXXXXXXXXXXXXXXXXX%QQQQQQQlXXXXXXXXXXXXXXXXXXXXXXXXXXXXXXrQQQQQQQ0XXXXXXXXXXXXXXXXXXXXXX 8Q",
"Q8 XXXXXXXXXXXXXXXXXXXXXXXXXTQQQQQQNXXXXXXXXXXXXXXXXXXXXXXXXXXXXXXgQQQQQQQ*XXXXXXXXXXXXXXXXXXXXXX 8Q",
"Q8 XXXXXXXXXXXXXXXXXXXXXXXXXHQQQQQQDXXXXXXXXXXXXXXXXXXXXXXXXXXXXXXbQQQQQQRXXXXXXXXXXXXXXXXXXXXXXX 8Q",
"Q8 XXXXXXXXXXXXXXXXXXXXXXXXXBQQQQQQLXXXXXXXXXXXXXXXXXXXXXXXXXXXXXXZQQQQQQJXXXXXXXXXXXXXXXXXXXXXXX 8Q",
"Q8 XXXXXXXXXXXXXXXXXXXXXXXXXlQQQQQQRXXXXXXXXXXXXXXXXXXXXXXXXXXXXXXHQQQQQQCXXXXXXXXXXXXXXXXXXXXXXX 8Q",
"Q8 XXXXXXXXXXXXXXXXXXXXXXXXXyQQQQQQQ$XXXXXXXXXXXXXXXXXXXXXXXXXXXXXYQQQQQQzXXXXXXXXXXXXXXXXXXXXXXX 8Q",
"Q8 XXXXXXXXXXXXXXXXXXXXXXXXX3QQQQQQQ2XXXXXXXXXXXXXXXXXXXXXXXXXXXXoQQQQQQQiXXXXXXXXXXXXXXXXXXXXXXX 8Q",
"Q8 XXXXXXXXXXXXXXXXXXXXXXXXX@QQQQQQQeXXXXXXXXXXXXXXXXXXXXXXXXXXXX:QQQQQQQ4XXXXXXXXXXXXXXXXXXXXXXX 8Q",
"Q8 XXXXXXXXXXXXXXXXXXXXXXXXXXUQQQQQQfXXXXXXXXXXXXXXXXXXXXXXXXXXXX0QQQQQQQ$XXXXXXXXXXXXXXXXXXXXXXX 8Q",
"Q8 XXXXXXXXXXXXXXXXXXXXXXXXXXGQQQQQQvXXXXXXXXXXXXXXXXXXXXXXXXXXXXiQQQQQQYXXXXXXXXXXXXXXXXXXXXXXXX 8Q",
"Q8 XXXXXXXXXXXXXXXXXXXXXXXXXXMQQQQQQCXXXXXXXXX1LLLLLLLL9XXXXXXXXXlQQQQQQGXXXXXXXXXXXXXXXXXXXXXXXX 8Q",
"Q8 XXXXXXXXXXXXXXXXXXXXXXXXXXgQQQQQQHXXXXXXXXXaQQQQQQQQlXXXXXXXXXMQQQQQQNXXXXXXXXXXXXXXXXXXXXXXXX 8Q",
"Q8 XXXXXXXXXXXXXXXXXXXXXXXXXXeQQQQQQIXXXXXXXXXmQQQQQQQQAXXXXXXXXXDQQQQQQjXXXXXXXXXXXXXXXXXXXXXXXX 8Q",
"Q8 XXXXXXXXXXXXXXXXXXXXXXXXXX<QQQQQQQXXXXXXXXXJQQQQQQQQYXXXXXXXXXLQQQQQQrXXXXXXXXXXXXXXXXXXXXXXXX 8Q",
"Q8 XXXXXXXXXXXXXXXXXXXXXXXXXXoWQQQQQQ-XXXXXXX+WQQQQQQQQQ=XXXXXXXXRQQQQQQ2XXXXXXXXXXXXXXXXXXXXXXXX 8Q",
"Q8 XXXXXXXXXXXXXXXXXXXXXXXXXXXPQQQQQQ9XXXXXXX6QQQQQQQQQQrXXXXXXX#QQQQQQQ+XXXXXXXXXXXXXXXXXXXXXXXX 8Q",
"Q8 XXXXXXXXXXXXXXXXXXXXXXXXXXXDQQQQQQiXXXXXXXgQQQQQQQQQQcXXXXXXX2QQQQQQIXXXXXXXXXXXXXXXXXXXXXXXXX 8Q",
"Q8 XXXXXXXXXXXXXXXXXXXXXXXXXXXbQQQQQQjXXXXXXXVQQQQQQQQQQFXXXXXXXeQQQQQQDXXXXXXXXXXXXXXXXXXXXXXXXX 8Q",
"Q8 XXXXXXXXXXXXXXXXXXXXXXXXXXXfQQQQQQmXXXXXXXLQQQQQTQQQQRXXXXXXXfQQQQQQmXXXXXXXXXXXXXXXXXXXXXXXXX 8Q",
"Q8 XXXXXXXXXXXXXXXXXXXXXXXXXXXqQQQQQQSXXXXXX$QQQQQJAQQQQQ1XXXXXXxQQQQQQgXXXXXXXXXXXXXXXXXXXXXXXXX 8Q",
"Q8 XXXXXXXXXXXXXXXXXXXXXXXXXXX;QQQQQQKXXXXXXqQQQQQngQQQQQpXXXXXXVQQQQQQwXXXXXXXXXXXXXXXXXXXXXXXXX 8Q",
"Q8 XXXXXXXXXXXXXXXXXXXXXXXXXXXXEQQQQQRXXXXXXkQQQQQu6QQQQQmXXXXXXGQQQQQQ>XXXXXXXXXXXXXXXXXXXXXXXXX 8Q",
"Q8 XXXXXXXXXXXXXXXXXXXXXXXXXXXXKQQQQQQ#XXXXXAQQQQQ;+WQQQQHXXXXXXIQQQQQWXXXXXXXXXXXXXXXXXXXXXXXXXX 8Q",
"Q8 XXXXXXXXXXXXXXXXXXXXXXXXXXXXZQQQQQQ1XXXXXUQQQQUXXGQQQQW+XXXXXWQQQQQLXXXXXXXXXXXXXXXXXXXXXXXXXX 8Q",
"Q8 XXXXXXXXXXXXXXXXXXXXXXXXXXXXcQQQQQQwXXXX=QQQQQCXXvQQQQQ6XXXX=QQQQQQSXXXXXXXXXXXXXXXXXXXXXXXXXX 8Q",
"Q8 XXXXXXXXXXXXXXXXXXXXXXXXXXXXaQQQQQQsXXXXeQQQQQgXXeQQQQQgXXXX6QQQQQQbXXXXXXXXXXXXXXXXXXXXXXXXXX 8Q",
"Q8 XXXXXXXXXXXXXXXXXXXXXXXXXXXX9QQQQQQzXXXXzQQQQQ5XX&QQQQQVXXXXuQQQQQQdXXXXXXXXXXXXXXXXXXXXXXXXXX 8Q",
"Q8 XXXXXXXXXXXXXXXXXXXXXXXXXXXX&QQQQQQBXXXXDQQQQEOXXXLQQQQLXXXXhQQQQQQ0XXXXXXXXXXXXXXXXXXXXXXXXXX 8Q",
"Q8 XXXXXXXXXXXXXXXXXXXXXXXXXXXXXRQQQQQGXXXXRQQQQGXXXXBQQQQQ$XXXbQQQQQQ=XXXXXXXXXXXXXXXXXXXXXXXXXX 8Q",
"Q8 XXXXXXXXXXXXXXXXXXXXXXXXXXXXXHQQQQQIXXX>QQQQQvXXXXsQQQQQqXXXAQQQQQRXXXXXXXXXXXXXXXXXXXXXXXXXXX 8Q",
"Q8 XXXXXXXXXXXXXXXXXXXXXXXXXXXXXVQQQQQWXXXiQQQQQeXXXX1QQQQQlXXXJQQQQQJXXXXXXXXXXXXXXXXXXXXXXXXXXX 8Q",
"Q8 XXXXXXXXXXXXXXXXXXXXXXXXXXXXXlQQQQQQ*XXbQQQQQ&XXXXXRQQQQSXXXTQQQQQCXXXXXXXXXXXXXXXXXXXXXXXXXXX 8Q",
"Q8 XXXXXXXXXXXXXXXXXXXXXXXXXXXXXuQQQQQQ4XXHQQQQLXXXXXXDQQQQYXX+QQQQQQzXXXXXXXXXXXXXXXXXXXXXXXXXXX 8Q",
"Q8 XXXXXXXXXXXXXXXXXXXXXXXXXXXXX3QQQQQQrXoEQQQQBXXXXXXlQQQQQ-X,QQQQQQiXXXXXXXXXXXXXXXXXXXXXXXXXXX 8Q",
"Q8 XXXXXXXXXXXXXXXXXXXXXXXXXXXXX#QQQQQQgX3QQQQQsXXXXXX0QQQQQrXqQQQQQQ6XXXXXXXXXXXXXXXXXXXXXXXXXXX 8Q",
"Q8 XXXXXXXXXXXXXXXXXXXXXXXXXXXXXXYQQQQQbXsQQQQQ1XXXXXX#QQQQQvXaQQQQQQ$XXXXXXXXXXXXXXXXXXXXXXXXXXX 8Q",
"Q8 XXXXXXXXXXXXXXXXXXXXXXXXXXXXXXGQQQQQZXNQQQQRXXXXXXXXJQQQQGXzQQQQQTXXXXXXXXXXXXXXXXXXXXXXXXXXXX 8Q",
"Q8 XXXXXXXXXXXXXXXXXXXXXXXXXXXXXXNQQQQQHXKQQQQDXXXXXXXXbQQQQRXNQQQQQHXXXXXXXXXXXXXXXXXXXXXXXXXXXX 8Q",
"Q8 XXXXXXXXXXXXXXXXXXXXXXXXXXXXXXhQQQQQY@QQQQQlXXXXXXXXuQQQQQ1DQQQQQBXXXXXXXXXXXXXXXXXXXXXXXXXXXX 8Q",
"Q8 XXXXXXXXXXXXXXXXXXXXXXXXXXXXXXrQQQQQQ0QQQQQqXXXXXXXX-QQQQQaLQQQQQlXXXXXXXXXXXXXXXXXXXXXXXXXXXX 8Q",
"Q8 XXXXXXXXXXXXXXXXXXXXXXXXXXXXXX1QQQQQQbQQQQQ#XXXXXXXXXIQQQQmEQQQQQtXXXXXXXXXXXXXXXXXXXXXXXXXXXX 8Q",
"Q8 XXXXXXXXXXXXXXXXXXXXXXXXXXXXXXOQQQQQQIQQQQJXXXXXXXXXXCQQQQLQQQQQQ2XXXXXXXXXXXXXXXXXXXXXXXXXXXX 8Q",
"Q8 XXXXXXXXXXXXXXXXXXXXXXXXXXXXXXXIQQQQQQQQQQmXXXXXXXXXXgQQQQQQQQQQQ@XXXXXXXXXXXXXXXXXXXXXXXXXXXX 8Q",
"Q8 XXXXXXXXXXXXXXXXXXXXXXXXXXXXXXXDQQQQQQQQQQiXXXXXXXXXX4QQQQQQQQQQUXXXXXXXXXXXXXXXXXXXXXXXXXXXXX 8Q",
"Q8 XXXXXXXXXXXXXXXXXXXXXXXXXXXXXXXnQQQQQQQQQQ:XXXXXXXXXXoEQQQQQQQQQFXXXXXXXXXXXXXXXXXXXXXXXXXXXXX 8Q",
"Q8 XXXXXXXXXXXXXXXXXXXXXXXXXXXXXXXfQQQQQQQQQYXXXXXXXXXXXXGQQQQQQQQQmXXXXXXXXXXXXXXXXXXXXXXXXXXXXX 8Q",
"Q8 XXXXXXXXXXXXXXXXXXXXXXXXXXXXXXXwQQQQQQQQQAXXXXXXXXXXXXzQQQQQQQQQgXXXXXXXXXXXXXXXXXXXXXXXXXXXXX 8Q",
"Q8 XXXXXXXXXXXXXXXXXXXXXXXXXXXXXXX;QQQQQQQQQhXXXXXXXXXXXXwQQQQQQQQQeXXXXXXXXXXXXXXXXXXXXXXXXXXXXX 8Q",
"Q8 XXXXXXXXXXXXXXXXXXXXXXXXXXXXXXXXWQQQQQQQQ6XXXXXXXXXXXX%QQQQQQQQQ,XXXXXXXXXXXXXXXXXXXXXXXXXXXXX 8Q",
"Q8 XXXXXXXXXXXXXXXXXXXXXXXXXXXXXXXXLQQQQQQQW+XXXXXXXXXXXXXLQQQQQQQWoXXXXXXXXXXXXXXXXXXXXXXXXXXXXX 8Q",
"Q8 XXXXXXXXXXXXXXXXXXXXXXXXXXXXXXXXAQQQQQQQHXXXXXXXXXXXXXXNQQQQQQQLXXXXXXXXXXXXXXXXXXXXXXXXXXXXXX 8Q",
"Q8 XXXXXXXXXXXXXXXXXXXXXXXXXXXXXXXXvQQQQQQQbXXXXXXXXXXXXXXpQQQQQQQSXXXXXXXXXXXXXXXXXXXXXXXXXXXXXX 8Q",
"Q8 XXXXXXXXXXXXXXXXXXXXXXXXXXXXXXXXsQQQQQQQrXXXXXXXXXXXXXX>QQQQQQQbXXXXXXXXXXXXXXXXXXXXXXXXXXXXXX 8Q",
"Q8 XXXXXXXXXXXXXXXXXXXXXXXXXXXXXXXXXXXXXXXXXXXXXXXXXXXXXXXXXXXXXXXXXXXXXXXXXXXXXXXXXXXXXXXXXXXXXX 8Q",
"Q8 XXXXXXXXXXXXXXXXXXXXXXXXXXXXXXXXXXXXXXXXXXXXXXXXXXXXXXXXXXXXXXXXXXXXXXXXXXXXXXXXXXXXXXXXXXXXXX 8Q",
"Q8 XXXXXXXXXXXXXXXXXXXXXXXXXXXXXXXXXXXXXXXXXXXXXXXXXXXXXXXXXXXXXXXXXXXXXXXXXXXXXXXXXXXXXXXXXXXXXX 8Q",
"Q8 XXXXXXXXXXXXXXXXXXXXXXXXXXXXXXXXXXXXXXXXXXXXXXXXXXXXXXXXXXXXXXXXXXXXXXXXXXXXXXXXXXXXXXXXXXXXXX 8Q",
"Q8 XXXXXXXXXXXXXXXXXXXXXXXXXXXXXXXXXXXXXXXXXXXXXXXXXXXXXXXXXXXXXXXXXXXXXXXXXXXXXXXXXXXXXXXXXXXXXX 8Q",
"Q8 XXXXXXXXXXXXXXXXXXXXXXXXXXXXXXXXXXXXXXXXXXXXXXXXXXXXXXXXXXXXXXXXXXXXXXXXXXXXXXXXXXXXXXXXXXXXXX 8Q",
"Q8 XXXXXXXXXXXXXXXXXXXXXXXXXXXXXXXXXXXXXXXXXXXXXXXXXXXXXXXXXXXXXXXXXXXXXXXXXXXXXXXXXXXXXXXXXXXXXX 8Q",
"Q8 XXXXXXXXXXXXXXXXXXXXXXXXXXXXXXXXXXXXXXXXXXXXXXXXXXXXXXXXXXXXXXXXXXXXXXXXXXXXXXXXXXXXXXXXXXXXXX 8Q",
"Q8 XXXXXXXXXXXXXXXXXXXXXXXXXXXXXXXXXXXXXXXXXXXXXXXXXXXXXXXXXXXXXXXXXXXXXXXXXXXXXXXXXXXXXXXXXXXXXX 8Q",
"Q8 XXXXXXXXXXXXXXXXXXXXXXXXXXXXXXXXXXXXXXXXXXXXXXXXXXXXXXXXXXXXXXXXXXXXXXXXXXXXXXXXXXXXXXXXXXXXXX 8Q",
"Q8 XXXXXXXXXXXXXXXXXXXXXXXXXXXXXXXXXXXXXXXXXXXXXXXXXXXXXXXXXXXXXXXXXXXXXXXXXXXXXXXXXXXXXXXXXXXXXX 8Q",
"Q8 XXXXXXXXXXXXXXXXXXXXXXXXXXXXXXXXXXXXXXXXXXXXXXXXXXXXXXXXXXXXXXXXXXXXXXXXXXXXXXXXXXXXXXXXXXXXXX 8Q",
"Q8 XXXXXXXXXXXXXXXXXXXXXXXXXXXXXXXXXXXXXXXXXXXXXXXXXXXXXXXXXXXXXXXXXXXXXXXXXXXXXXXXXXXXXXXXXXXXXX 8Q",
"Q8 XXXXXXXXXXXXXXXXXXXXXXXXXXXXXXXXXXXXXXXXXXXXXXXXXXXXXXXXXXXXXXXXXXXXXXXXXXXXXXXXXXXXXXXXXXXXXX 8Q",
"Q8 XXXXXXXXXXXXXXXXXXXXXXXXXXXXXXXXXXXXXXXXXXXXXXXXXXXXXXXXXXXXXXXXXXXXXXXXXXXXXXXXXXXXXXXXXXXXXX 8Q",
"Q8 XXXXXXXXXXXXXXXXXXXXXXXXXXXXXXXXXXXXXXXXXXXXXXXXXXXXXXXXXXXXXXXXXXXXXXXXXXXXXXXXXXXXXXXXXXXXXX 8Q",
"Q8 XXXXXXXXXXXXXXXXXXXXXXXXXXXXXXXXXXXXXXXXXXXXXXXXXXXXXXXXXXXXXXXXXXXXXXXXXXXXXXXXXXXXXXXXXXXXXX 8Q",
"Q8.XXXXXXXXXXXXXXXXXXXXXXXXXXXXXXXXXXXXXXXXXXXXXXXXXXXXXXXXXXXXXXXXXXXXXXXXXXXXXXXXXXXXXXXXXXXXXX 8Q",
"Q8                                                                                                8Q",
"Q78888888888888888888888888888888888888888888888888888888888888888888888888888888888888888888888887Q",
"QQQQQQQQQQQQQQQQQQQQQQQQQQQQQQQQQQQQQQQQQQQQQQQQQQQQQQQQQQQQQQQQQQQQQQQQQQQQQQQQQQQQQQQQQQQQQQQQQQQQ"
};
