/* XPM */
static char *w3[] = {
/* columns rows colors chars-per-pixel */
"100 100 37 1 ",
"  c #686868",
". c #727272",
"X c #747474",
"o c #7B7B7B",
"O c gray49",
"+ c gray51",
"@ c #868686",
"# c #8B8B8B",
"$ c gray56",
"% c #909090",
"& c gray58",
"* c #9A9A9A",
"= c gray61",
"- c gray63",
"; c #A5A5A5",
": c gray66",
"> c #AFAFAF",
", c gray70",
"< c gray71",
"1 c gray73",
"2 c gray",
"3 c #C3C3C3",
"4 c gray78",
"5 c #CACACA",
"6 c gray81",
"7 c #D2D2D2",
"8 c #D5D5D5",
"9 c gray85",
"0 c #DDDDDD",
"q c gray88",
"w c #E6E6E6",
"e c #EAEAEA",
"r c #ECECEC",
"t c #F3F3F3",
"y c gray96",
"u c #F8F8F8",
"i c white",
/* pixels */
"iiiiiiiiiiiiiiiiiiiiiiiiiiiiiiiiiiiiiiiiiiiiiiiiiiiiiiiiiiiiiiiiiiiiiiiiiiiiiiiiiiiiiiiiiiiiiiiiiiii",
"i>,,,,,,,,,,,,,,,,,,,,,,,,,,,,,,,,,,,,,,,,,,,,,,,,,,,,,,,,,,,,,,,,,,,,,,,,,,,,,,,,,,,,,,,,,,,,,,,,>i",
"i,                                                                                                ,i",
"i, .............................................................................................. ,i",
"i, .............................................................................................. ,i",
"i, .............................................................................................. ,i",
"i, .............................................................................................. ,i",
"i, .............................................................................................. ,i",
"i, .............................................................................................. ,i",
"i, .............................................................................................. ,i",
"i, .............................................................................................. ,i",
"i, .............................................................................................. ,i",
"i, .............................................................................................. ,i",
"i, .............................................................................................. ,i",
"i, .............................................................................................. ,i",
"i, .............................................................................................. ,i",
"i, .............................................................................................. ,i",
"i, .............................................................................................. ,i",
"i, .............................................................................................. ,i",
"i, .............................................................................................. ,i",
"i, ........................uiiiiiiw................................8iiiiiii#..................... ,i",
"i, ........................eiiiiiit................................qiiiiiiu...................... ,i",
"i, ........................9iiiiiiiX...............................riiiiiir...................... ,i",
"i, ........................4iiiiiii#...............................uiiiiii0...................... ,i",
"i, ........................,iiiiiii-..............................Oiiiiiii5...................... ,i",
"i, ........................*iiiiiii,..............................*iiiiiii<...................... ,i",
"i, ........................Oiiiiiii4..............................:iiiiiii=...................... ,i",
"i, .........................yiiiiii7..............................2iiiiiii+...................... ,i",
"i, .........................wiiiiiiq..............................6iiiiiiy....................... ,i",
"i, .........................8iiiiiir..............................9iiiiiie....................... ,i",
"i, .........................3iiiiiiu..............................wiiiiii9....................... ,i",
"i, .........................>iiiiiiiO.............................tiiiiii4....................... ,i",
"i, .........................&iiiiiii&.............................iiiiiii,....................... ,i",
"i, .........................Xiiiiiii:............................#iiiiiii*....................... ,i",
"i, ..........................tiiiiii1............................=iiiiiiio....................... ,i",
"i, ..........................qiiiiii5............................,iiiiiiy........................ ,i",
"i, ..........................7iiiiii9.........$eeeeeeee=.........3iiiiiiw........................ ,i",
"i, ..........................2iiiiiiw.........<iiiiiiii3.........7iiiiii7........................ ,i",
"i, ..........................:iiiiiit.........7iiiiiiii0.........0iiiiii3........................ ,i",
"i, ..........................$iiiiiii.........eiiiiiiiit.........eiiiiii:........................ ,i",
"i, ...........................iiiiiii@.......Xiiiiiiiiii@........yiiiiii%........................ ,i",
"i, ...........................riiiiii=.......*iiiiiiiiii:.......oiiiiiiiX........................ ,i",
"i, ...........................0iiiiii,.......1iiiiiiiiii5.......%iiiiiit......................... ,i",
"i, ...........................6iiiiii3.......8iiiiiiiiiiq.......;iiiiiiq......................... ,i",
"i, ...........................1iiiiii6.......riiiiiyiiiiu.......1iiiiii7......................... ,i",
"i, ...........................-iiiiii0......oiiiiie9iiiii$......5iiiiii2......................... ,i",
"i, ...........................@iiiiiie......-iiiii62iiiii,......8iiiiii;......................... ,i",
"i, ............................uiiiiiy......3iiiii>*iiiii7......qiiiiii#......................... ,i",
"i, ............................eiiiiiio.....9iiiii@Xuiiiie......tiiiiiu.......................... ,i",
"i, ............................9iiiiii$.....tiiiit..wiiiiuX.....uiiiiir.......................... ,i",
"i, ............................5iiiiii;....+iiiii9..5iiiii*....@iiiiii0.......................... ,i",
"i, ............................<iiiiii<....:iiiii2..:iiiii1....*iiiiii5.......................... ,i",
"i, ............................=iiiiii4....4iiiii*..Oiiiii8....>iiiiii<.......................... ,i",
"i, ............................Oiiiiii8....qiiiiuX...riiiir....2iiiiii-.......................... ,i",
"i, .............................yiiiiiq....yiiiiw....8iiiiiO...6iiiiii+.......................... ,i",
"i, .............................wiiiiir...#iiiii5....<iiiii-...0iiiiiu........................... ,i",
"i, .............................8iiiiiu...,iiiii:....%iiiii3...eiiiiie........................... ,i",
"i, .............................4iiiiii+..6iiiiiO.....yiiii0...yiiiii9........................... ,i",
"i, .............................>iiiiii*..wiiiir......0iiiit..Xiiiiii4........................... ,i",
"i, .............................&iiiiii>..uiiii8......3iiiii@.$iiiiii,........................... ,i",
"i, .............................oiiiiii2.&iiiii<......-iiiii>.-iiiiii*........................... ,i",
"i, ..............................tiiiii6.<iiiii%......oiiiii5.<iiiiiiO........................... ,i",
"i, ..............................qiiiii9.7iiiiy........eiiiiq.4iiiiiy............................ ,i",
"i, ..............................7iiiiiw.eiiii0........6iiiiu.7iiiiiw............................ ,i",
"i, ..............................2iiiiitXiiiii4........>iiiii%qiiiii8............................ ,i",
"i, ..............................:iiiiii=iiiii-........@iiiii<riiiii3............................ ,i",
"i, ..............................$iiiiii5iiiiio.........tiiii7uiiiii>............................ ,i",
"i, ..............................Xiiiiiitiiiie..........9iiiiriiiiii%............................ ,i",
"i, ...............................riiiiiiiiii7..........1iiiiiiiiiiiX............................ ,i",
"i, ...............................qiiiiiiiiii,..........&iiiiiiiiiit............................. ,i",
"i, ...............................6iiiiiiiiii#...........uiiiiiiiiiq............................. ,i",
"i, ...............................1iiiiiiiiit............qiiiiiiiii7............................. ,i",
"i, ...............................;iiiiiiiii9............4iiiiiiiii2............................. ,i",
"i, ...............................#iiiiiiiii2............;iiiiiiiii;............................. ,i",
"i, ................................uiiiiiiii*............Oiiiiiiiii$............................. ,i",
"i, ................................riiiiiiiuX.............riiiiiiii.............................. ,i",
"i, ................................0iiiiiiiw..............7iiiiiiir.............................. ,i",
"i, ................................5iiiiiii5..............<iiiiiii0.............................. ,i",
"i, ................................<iiiiiii:..............$iiiiiii6.............................. ,i",
"i, .............................................................................................. ,i",
"i, .............................................................................................. ,i",
"i, .............................................................................................. ,i",
"i, .............................................................................................. ,i",
"i, .............................................................................................. ,i",
"i, .............................................................................................. ,i",
"i, .............................................................................................. ,i",
"i, .............................................................................................. ,i",
"i, .............................................................................................. ,i",
"i, .............................................................................................. ,i",
"i, .............................................................................................. ,i",
"i, .............................................................................................. ,i",
"i, .............................................................................................. ,i",
"i, .............................................................................................. ,i",
"i, .............................................................................................. ,i",
"i, .............................................................................................. ,i",
"i, .............................................................................................. ,i",
"i,O.............................................................................................. ,i",
"i,                                                                                                ,i",
"i>,,,,,,,,,,,,,,,,,,,,,,,,,,,,,,,,,,,,,,,,,,,,,,,,,,,,,,,,,,,,,,,,,,,,,,,,,,,,,,,,,,,,,,,,,,,,,,,,>i",
"iiiiiiiiiiiiiiiiiiiiiiiiiiiiiiiiiiiiiiiiiiiiiiiiiiiiiiiiiiiiiiiiiiiiiiiiiiiiiiiiiiiiiiiiiiiiiiiiiiii"
};
