/* XPM */
static char *x[] = {
/* columns rows colors chars-per-pixel */
"100 100 85 1 ",
"  c #2E0000",
". c #310D0D",
"X c #341616",
"o c #371C1C",
"O c #3A2222",
"+ c #3D2626",
"@ c #3F2A2A",
"# c #422E2E",
"$ c #443232",
"% c #463535",
"& c #4A3B3B",
"* c #4E4040",
"= c #504242",
"- c #524545",
"; c #564949",
": c #5B4F4F",
"> c #5E5353",
", c #5F5555",
"< c #615656",
"1 c #625858",
"2 c #645A5A",
"3 c #665D5D",
"4 c #685F5F",
"5 c #6A6262",
"6 c #6D6565",
"7 c #686868",
"8 c #726A6A",
"9 c #736C6C",
"0 c #746D6D",
"q c #777070",
"w c #787171",
"e c #7B7575",
"r c #7C7C7C",
"t c #817A7A",
"y c #837E7E",
"u c #857F7F",
"i c #898383",
"p c #8B8585",
"a c #8F8A8A",
"s c #908B8B",
"d c #938E8E",
"f c #979393",
"g c #9A9595",
"h c #9E9A9A",
"j c #A29E9E",
"k c #A5A1A1",
"l c #A8A4A4",
"z c #ACA9A9",
"x c #AFAFAF",
"c c #B0ADAD",
"v c gray70",
"b c #B4B1B1",
"n c #B7B4B4",
"m c #B8B5B5",
"M c #BAB8B8",
"N c #BCB9B9",
"B c #BEBCBC",
"V c #C0BEBE",
"C c #C3C0C0",
"Z c #C4C2C2",
"A c #C6C4C4",
"S c #C8C7C7",
"D c #CAC8C8",
"F c #CDCBCB",
"G c #CFCDCD",
"H c #D0CECE",
"J c #D3D1D1",
"K c #D5D4D4",
"L c #D8D6D6",
"P c #DBDADA",
"I c #DCDBDB",
"U c #DFDEDE",
"Y c #E0DFDF",
"T c #E2E2E2",
"R c #E5E4E4",
"E c #EBEAEA",
"W c #EEEEEE",
"Q c #F0EFEF",
"! c #F3F3F3",
"~ c #F4F3F3",
"^ c #F4F4F4",
"/ c #F8F7F7",
"( c #F9F9F9",
") c #FCFBFB",
"_ c white",
/* pixels */
"____________________________________________________________________________________________________",
"_xvvvvvvvvvvvvvvvvvvvvvvvvvvvvvvvvvvvvvvvvvvvvvvvvvvvvvvvvvvvvvvvvvvvvvvvvvvvvvvvvvvvvvvvvvvvvvvvvx_",
"_v777777777777777777777777777777777777777777777777777777777777777777777777777777777777777777777777v_",
"_v7______________________________________________________________________________________________7v_",
"_v7______________________________________________________________________________________________7v_",
"_v7______________________________________________________________________________________________7v_",
"_v7______________________________________________________________________________________________7v_",
"_v7______________________________________________________________________________________________7v_",
"_v7______________________________________________________________________________________________7v_",
"_v7______________________________________________________________________________________________7v_",
"_v7______________________________________________________________________________________________7v_",
"_v7______________________________________________________________________________________________7v_",
"_v7______________________________________________________________________________________________7v_",
"_v7______________________________________________________________________________________________7v_",
"_v7______________________________________________________________________________________________7v_",
"_v7______________________________________________________________________________________________7v_",
"_v7______________________________________________________________________________________________7v_",
"_v7______________________________________________________________________________________________7v_",
"_v7______________________________________________________________________________________________7v_",
"_v7______________________________________________________________________________________________7v_",
"_v7___________________________K       +W________________________z       q________________________7v_",
"_v7____________________________d       g_______________________Eo      .T________________________7v_",
"_v7____________________________W#       Y______________________a       l_________________________7v_",
"_v7_____________________________N       e_____________________L       >^_________________________7v_",
"_v7_____________________________(6       F___________________)6       J__________________________7v_",
"_v7______________________________I       >(__________________V       d___________________________7v_",
"_v7_______________________________g       n_________________!&      #W___________________________7v_",
"_v7_______________________________!&      #Q________________k       B____________________________7v_",
"_v7________________________________C       h_______________R.      0_____________________________7v_",
"_v7_________________________________q       T______________y       T_____________________________7v_",
"_v7_________________________________T       t_____________H       l______________________________7v_",
"_v7__________________________________k       H___________(<      :^______________________________7v_",
"_v7__________________________________^-      1(__________m       J_______________________________7v_",
"_v7___________________________________S       M_________W@      a________________________________7v_",
"_v7____________________________________t      $!________g      #W________________________________7v_",
"_v7____________________________________R.      j_______U       B_________________________________7v_",
"_v7_____________________________________z       R______w      0__________________________________7v_",
"_v7_____________________________________^:      u_____S       T__________________________________7v_",
"_v7______________________________________G       J___^;      l___________________________________7v_",
"_v7_______________________________________i      3(__z      :^___________________________________7v_",
"_v7_______________________________________Eo      N_Eo      H____________________________________7v_",
"_v7________________________________________b      &!a      a_____________________________________7v_",
"_v7________________________________________(2      q      @W_____________________________________7v_",
"_v7_________________________________________K             N______________________________________7v_",
"_v7__________________________________________d           8_______________________________________7v_",
"_v7__________________________________________W@          Y_______________________________________7v_",
"_v7___________________________________________M         k________________________________________7v_",
"_v7___________________________________________(>       ;^________________________________________7v_",
"_v7___________________________________________T        =^________________________________________7v_",
"_v7___________________________________________0         k________________________________________7v_",
"_v7__________________________________________B           T_______________________________________7v_",
"_v7_________________________________________W#           w_______________________________________7v_",
"_v7_________________________________________s             A______________________________________7v_",
"_v7________________________________________J       #      *~_____________________________________7v_",
"_v7_______________________________________^>      .U2      j_____________________________________7v_",
"_v7_______________________________________l       z_J       Y____________________________________7v_",
"_v7______________________________________T.      :^__y      q____________________________________7v_",
"_v7______________________________________0       H___T       Z___________________________________7v_",
"_v7_____________________________________B       p_____h      &!__________________________________7v_",
"_v7____________________________________W#      OE_____!#      h__________________________________7v_",
"_v7____________________________________d       n_______m       U_________________________________7v_",
"_v7___________________________________J       4(_______(>      0_________________________________7v_",
"_v7__________________________________^>       L_________F       C________________________________7v_",
"_v7__________________________________l       g___________e      &!_______________________________7v_",
"_v7_________________________________T.      %!___________U       h_______________________________7v_",
"_v7_________________________________0       V_____________g       U______________________________7v_",
"_v7________________________________B       0______________WO      8______________________________7v_",
"_v7_______________________________W$       Y_______________c       B_____________________________7v_",
"_v7_______________________________d       k________________^;      %!____________________________7v_",
"_v7______________________________J       -^_________________S       g____________________________7v_",
"_v7_____________________________^>       D___________________9       I___________________________7v_",
"_v7_____________________________l       y____________________P       6)__________________________7v_",
"_v7____________________________T.      XR_____________________d       N__________________________7v_",
"_v7____________________________q       c______________________Eo      $W_________________________7v_",
"_v7___________________________B       ,(_______________________z       f_________________________7v_",
"_v7__________________________W$       J________________________^=       P________________________7v_",
"_v7__________________________d       a__________________________C       5(_______________________7v_",
"_v7_________________________J       @W___________________________6       M_______________________7v_",
"_v7________________________/>       m____________________________K       #W______________________7v_",
"_v7______________________________________________________________________________________________7v_",
"_v7______________________________________________________________________________________________7v_",
"_v7______________________________________________________________________________________________7v_",
"_v7______________________________________________________________________________________________7v_",
"_v7______________________________________________________________________________________________7v_",
"_v7______________________________________________________________________________________________7v_",
"_v7______________________________________________________________________________________________7v_",
"_v7______________________________________________________________________________________________7v_",
"_v7______________________________________________________________________________________________7v_",
"_v7______________________________________________________________________________________________7v_",
"_v7______________________________________________________________________________________________7v_",
"_v7______________________________________________________________________________________________7v_",
"_v7______________________________________________________________________________________________7v_",
"_v7______________________________________________________________________________________________7v_",
"_v7______________________________________________________________________________________________7v_",
"_v7______________________________________________________________________________________________7v_",
"_v7______________________________________________________________________________________________7v_",
"_vr______________________________________________________________________________________________7v_",
"_v777777777777777777777777777777777777777777777777777777777777777777777777777777777777777777777777v_",
"_xvvvvvvvvvvvvvvvvvvvvvvvvvvvvvvvvvvvvvvvvvvvvvvvvvvvvvvvvvvvvvvvvvvvvvvvvvvvvvvvvvvvvvvvvvvvvvvvvx_",
"____________________________________________________________________________________________________"
};
