/* XPM */
static char *x1[] = {
/* columns rows colors chars-per-pixel */
"100 100 86 1 ",
"  c #686868",
". c #7C7C7C",
"X c #348032",
"o c #378135",
"O c #3A8238",
"+ c #3C823B",
"@ c #3F833D",
"# c #418440",
"$ c #448542",
"% c #468644",
"& c #488747",
"* c #4A8749",
"= c #4C884B",
"- c #4E894D",
"; c #508A4F",
": c #528A51",
"> c #578D56",
", c #588D57",
"< c #5A8E59",
"1 c #5C8F5B",
"2 c #5D905C",
"3 c #60915F",
"4 c #639362",
"5 c #679567",
"6 c #6B976B",
"7 c #6D976C",
"8 c #6F996E",
"9 c #709970",
"0 c #749B73",
"q c #759C74",
"w c #799E78",
"e c #7CA07B",
"r c #7DA17C",
"t c #87A787",
"y c #89A889",
"u c #8EAB8D",
"i c #92AE92",
"p c #94AF93",
"a c #96B196",
"s c #99B299",
"d c #9FB79F",
"f c #AFAFAF",
"g c #A3B9A2",
"h c #A6BBA6",
"j c #A7BCA7",
"k c #A8BCA7",
"l c #AABEAA",
"z c gray70",
"x c #AEC0AD",
"c c #B1C3B1",
"v c #B3C4B3",
"b c #B4C5B3",
"n c #B6C7B6",
"m c #BAC9B9",
"M c #BCCBBB",
"N c #BCCBBC",
"B c #BECCBE",
"V c #C1CEC0",
"C c #C2D0C2",
"Z c #C5D1C5",
"A c #C8D4C8",
"S c #CCD7CC",
"D c #CED8CE",
"F c #D1DBD1",
"G c #D2DCD2",
"H c #D4DDD3",
"J c #D4DDD4",
"K c #D7E0D7",
"L c #D8E0D8",
"P c #DCE3DB",
"I c #DCE3DC",
"U c #DFE6DF",
"Y c #E1E7E1",
"T c #E2E8E2",
"R c #E5EAE5",
"E c #E7ECE7",
"W c #E8ECE7",
"Q c #E8EDE8",
"! c #EDF0ED",
"~ c #F0F3F0",
"^ c #F3F5F3",
"/ c #F5F7F5",
"( c #F6F8F6",
") c #FAFBFA",
"_ c #FBFCFB",
"` c white",
/* pixels */
"````````````````````````````````````````````````````````````````````````````````````````````````````",
"`fzzzzzzzzzzzzzzzzzzzzzzzzzzzzzzzzzzzzzzzzzzzzzzzzzzzzzzzzzzzzzzzzzzzzzzzzzzzzzzzzzzzzzzzzzzzzzzzzf`",
"`z                                                                                                z`",
"`z XXXXXXXXXXXXXXXXXXXXXXXXXXXXXXXXXXXXXXXXXXXXXXXXXXXXXXXXXXXXXXXXXXXXXXXXXXXXXXXXXXXXXXXXXXXXXX z`",
"`z XXXXXXXXXXXXXXXXXXXXXXXXXXXXXXXXXXXXXXXXXXXXXXXXXXXXXXXXXXXXXXXXXXXXXXXXXXXXXXXXXXXXXXXXXXXXXX z`",
"`z XXXXXXXXXXXXXXXXXXXXXXXXXXXXXXXXXXXXXXXXXXXXXXXXXXXXXXXXXXXXXXXXXXXXXXXXXXXXXXXXXXXXXXXXXXXXXX z`",
"`z XXXXXXXXXXXXXXXXXXXXXXXXXXXXXXXXXXXXXXXXXXXXXXXXXXXXXXXXXXXXXXXXXXXXXXXXXXXXXXXXXXXXXXXXXXXXXX z`",
"`z XXXXXXXXXXXXXXXXXXXXXXXXXXXXXXXXXXXXXXXXXXXXXXXXXXXXXXXXXXXXXXXXXXXXXXXXXXXXXXXXXXXXXXXXXXXXXX z`",
"`z XXXXXXXXXXXXXXXXXXXXXXXXXXXXXXXXXXXXXXXXXXXXXXXXXXXXXXXXXXXXXXXXXXXXXXXXXXXXXXXXXXXXXXXXXXXXXX z`",
"`z XXXXXXXXXXXXXXXXXXXXXXXXXXXXXXXXXXXXXXXXXXXXXXXXXXXXXXXXXXXXXXXXXXXXXXXXXXXXXXXXXXXXXXXXXXXXXX z`",
"`z XXXXXXXXXXXXXXXXXXXXXXXXXXXXXXXXXXXXXXXXXXXXXXXXXXXXXXXXXXXXXXXXXXXXXXXXXXXXXXXXXXXXXXXXXXXXXX z`",
"`z XXXXXXXXXXXXXXXXXXXXXXXXXXXXXXXXXXXXXXXXXXXXXXXXXXXXXXXXXXXXXXXXXXXXXXXXXXXXXXXXXXXXXXXXXXXXXX z`",
"`z XXXXXXXXXXXXXXXXXXXXXXXXXXXXXXXXXXXXXXXXXXXXXXXXXXXXXXXXXXXXXXXXXXXXXXXXXXXXXXXXXXXXXXXXXXXXXX z`",
"`z XXXXXXXXXXXXXXXXXXXXXXXXXXXXXXXXXXXXXXXXXXXXXXXXXXXXXXXXXXXXXXXXXXXXXXXXXXXXXXXXXXXXXXXXXXXXXX z`",
"`z XXXXXXXXXXXXXXXXXXXXXXXXXXXXXXXXXXXXXXXXXXXXXXXXXXXXXXXXXXXXXXXXXXXXXXXXXXXXXXXXXXXXXXXXXXXXXX z`",
"`z XXXXXXXXXXXXXXXXXXXXXXXXXXXXXXXXXXXXXXXXXXXXXXXXXXXXXXXXXXXXXXXXXXXXXXXXXXXXXXXXXXXXXXXXXXXXXX z`",
"`z XXXXXXXXXXXXXXXXXXXXXXXXXXXXXXXXXXXXXXXXXXXXXXXXXXXXXXXXXXXXXXXXXXXXXXXXXXXXXXXXXXXXXXXXXXXXXX z`",
"`z XXXXXXXXXXXXXXXXXXXXXXXXXXXXXXXXXXXXXXXXXXXXXXXXXXXXXXXXXXXXXXXXXXXXXXXXXXXXXXXXXXXXXXXXXXXXXX z`",
"`z XXXXXXXXXXXXXXXXXXXXXXXXXXXXXXXXXXXXXXXXXXXXXXXXXXXXXXXXXXXXXXXXXXXXXXXXXXXXXXXXXXXXXXXXXXXXXX z`",
"`z XXXXXXXXXXXXXXXXXXXXXXXXXXXXXXXXXXXXXXXXXXXXXXXXXXXXXXXXXXXXXXXXXXXXXXXXXXXXXXXXXXXXXXXXXXXXXX z`",
"`z XXXXXXXXXXXXXXXXXXXXXXXXXXXg````````0XXXXXXXXXXXXXXXXXXXXXXXXS```````!#XXXXXXXXXXXXXXXXXXXXXXX z`",
"`z XXXXXXXXXXXXXXXXXXXXXXXXXXXXU```````LXXXXXXXXXXXXXXXXXXXXXXXr````````uXXXXXXXXXXXXXXXXXXXXXXXX z`",
"`z XXXXXXXXXXXXXXXXXXXXXXXXXXXXq````````iXXXXXXXXXXXXXXXXXXXXXXY```````DXXXXXXXXXXXXXXXXXXXXXXXXX z`",
"`z XXXXXXXXXXXXXXXXXXXXXXXXXXXXXV```````Q+XXXXXXXXXXXXXXXXXXXXd```````(<XXXXXXXXXXXXXXXXXXXXXXXXX z`",
"`z XXXXXXXXXXXXXXXXXXXXXXXXXXXXX*~```````xXXXXXXXXXXXXXXXXXXX&~```````jXXXXXXXXXXXXXXXXXXXXXXXXXX z`",
"`z XXXXXXXXXXXXXXXXXXXXXXXXXXXXXXs```````/:XXXXXXXXXXXXXXXXXXN```````YXXXXXXXXXXXXXXXXXXXXXXXXXXX z`",
"`z XXXXXXXXXXXXXXXXXXXXXXXXXXXXXXXL```````ZXXXXXXXXXXXXXXXXX5)```````0XXXXXXXXXXXXXXXXXXXXXXXXXXX z`",
"`z XXXXXXXXXXXXXXXXXXXXXXXXXXXXXXX6_```````9XXXXXXXXXXXXXXXXH```````NXXXXXXXXXXXXXXXXXXXXXXXXXXXX z`",
"`z XXXXXXXXXXXXXXXXXXXXXXXXXXXXXXXXm```````LXXXXXXXXXXXXXXXy```````!$XXXXXXXXXXXXXXXXXXXXXXXXXXXX z`",
"`z XXXXXXXXXXXXXXXXXXXXXXXXXXXXXXXX#!```````uXXXXXXXXXXXXXoE```````uXXXXXXXXXXXXXXXXXXXXXXXXXXXXX z`",
"`z XXXXXXXXXXXXXXXXXXXXXXXXXXXXXXXXXi```````QOXXXXXXXXXXXXl```````FXXXXXXXXXXXXXXXXXXXXXXXXXXXXXX z`",
"`z XXXXXXXXXXXXXXXXXXXXXXXXXXXXXXXXXXJ```````lXXXXXXXXXXX:/``````(1XXXXXXXXXXXXXXXXXXXXXXXXXXXXXX z`",
"`z XXXXXXXXXXXXXXXXXXXXXXXXXXXXXXXXXX4)``````/;XXXXXXXXXXZ```````lXXXXXXXXXXXXXXXXXXXXXXXXXXXXXXX z`",
"`z XXXXXXXXXXXXXXXXXXXXXXXXXXXXXXXXXXXv```````VXXXXXXXXX9```````YXXXXXXXXXXXXXXXXXXXXXXXXXXXXXXXX z`",
"`z XXXXXXXXXXXXXXXXXXXXXXXXXXXXXXXXXXX+Q```````7XXXXXXXXL```````qXXXXXXXXXXXXXXXXXXXXXXXXXXXXXXXX z`",
"`z XXXXXXXXXXXXXXXXXXXXXXXXXXXXXXXXXXXXt```````JXXXXXXXp```````BXXXXXXXXXXXXXXXXXXXXXXXXXXXXXXXXX z`",
"`z XXXXXXXXXXXXXXXXXXXXXXXXXXXXXXXXXXXXXD```````yXXXXX@!``````!%XXXXXXXXXXXXXXXXXXXXXXXXXXXXXXXXX z`",
"`z XXXXXXXXXXXXXXXXXXXXXXXXXXXXXXXXXXXXX<(``````RoXXXXb```````iXXXXXXXXXXXXXXXXXXXXXXXXXXXXXXXXXX z`",
"`z XXXXXXXXXXXXXXXXXXXXXXXXXXXXXXXXXXXXXXl```````hXXX1)``````FXXXXXXXXXXXXXXXXXXXXXXXXXXXXXXXXXXX z`",
"`z XXXXXXXXXXXXXXXXXXXXXXXXXXXXXXXXXXXXXXoR``````^=XXS``````(2XXXXXXXXXXXXXXXXXXXXXXXXXXXXXXXXXXX z`",
"`z XXXXXXXXXXXXXXXXXXXXXXXXXXXXXXXXXXXXXXXr```````BXr```````lXXXXXXXXXXXXXXXXXXXXXXXXXXXXXXXXXXXX z`",
"`z XXXXXXXXXXXXXXXXXXXXXXXXXXXXXXXXXXXXXXXXA``````_6T``````TXXXXXXXXXXXXXXXXXXXXXXXXXXXXXXXXXXXXX z`",
"`z XXXXXXXXXXXXXXXXXXXXXXXXXXXXXXXXXXXXXXXX:/``````!```````qXXXXXXXXXXXXXXXXXXXXXXXXXXXXXXXXXXXXX z`",
"`z XXXXXXXXXXXXXXXXXXXXXXXXXXXXXXXXXXXXXXXXXg`````````````BXXXXXXXXXXXXXXXXXXXXXXXXXXXXXXXXXXXXXX z`",
"`z XXXXXXXXXXXXXXXXXXXXXXXXXXXXXXXXXXXXXXXXXXY```````````!%XXXXXXXXXXXXXXXXXXXXXXXXXXXXXXXXXXXXXX z`",
"`z XXXXXXXXXXXXXXXXXXXXXXXXXXXXXXXXXXXXXXXXXXq```````````iXXXXXXXXXXXXXXXXXXXXXXXXXXXXXXXXXXXXXXX z`",
"`z XXXXXXXXXXXXXXXXXXXXXXXXXXXXXXXXXXXXXXXXXXXV`````````GXXXXXXXXXXXXXXXXXXXXXXXXXXXXXXXXXXXXXXXX z`",
"`z XXXXXXXXXXXXXXXXXXXXXXXXXXXXXXXXXXXXXXXXXXX*(```````(2XXXXXXXXXXXXXXXXXXXXXXXXXXXXXXXXXXXXXXXX z`",
"`z XXXXXXXXXXXXXXXXXXXXXXXXXXXXXXXXXXXXXXXXXXXu````````)4XXXXXXXXXXXXXXXXXXXXXXXXXXXXXXXXXXXXXXXX z`",
"`z XXXXXXXXXXXXXXXXXXXXXXXXXXXXXXXXXXXXXXXXXX$!`````````HXXXXXXXXXXXXXXXXXXXXXXXXXXXXXXXXXXXXXXXX z`",
"`z XXXXXXXXXXXXXXXXXXXXXXXXXXXXXXXXXXXXXXXXXXB```````````uXXXXXXXXXXXXXXXXXXXXXXXXXXXXXXXXXXXXXXX z`",
"`z XXXXXXXXXXXXXXXXXXXXXXXXXXXXXXXXXXXXXXXXXq````````````Q@XXXXXXXXXXXXXXXXXXXXXXXXXXXXXXXXXXXXXX z`",
"`z XXXXXXXXXXXXXXXXXXXXXXXXXXXXXXXXXXXXXXXXXY`````````````nXXXXXXXXXXXXXXXXXXXXXXXXXXXXXXXXXXXXXX z`",
"`z XXXXXXXXXXXXXXXXXXXXXXXXXXXXXXXXXXXXXXXXk``````````````)5XXXXXXXXXXXXXXXXXXXXXXXXXXXXXXXXXXXXX z`",
"`z XXXXXXXXXXXXXXXXXXXXXXXXXXXXXXXXXXXXXXX<(```````i/``````JXXXXXXXXXXXXXXXXXXXXXXXXXXXXXXXXXXXXX z`",
"`z XXXXXXXXXXXXXXXXXXXXXXXXXXXXXXXXXXXXXXXF```````DXl```````iXXXXXXXXXXXXXXXXXXXXXXXXXXXXXXXXXXXX z`",
"`z XXXXXXXXXXXXXXXXXXXXXXXXXXXXXXXXXXXXXXu```````(<XoW``````!#XXXXXXXXXXXXXXXXXXXXXXXXXXXXXXXXXXX z`",
"`z XXXXXXXXXXXXXXXXXXXXXXXXXXXXXXXXXXXXX$!```````lXXXu```````mXXXXXXXXXXXXXXXXXXXXXXXXXXXXXXXXXXX z`",
"`z XXXXXXXXXXXXXXXXXXXXXXXXXXXXXXXXXXXXXB```````RoXXXXK``````)6XXXXXXXXXXXXXXXXXXXXXXXXXXXXXXXXXX z`",
"`z XXXXXXXXXXXXXXXXXXXXXXXXXXXXXXXXXXXX0````````eXXXXX8```````KXXXXXXXXXXXXXXXXXXXXXXXXXXXXXXXXXX z`",
"`z XXXXXXXXXXXXXXXXXXXXXXXXXXXXXXXXXXXXY```````ZXXXXXXXZ```````pXXXXXXXXXXXXXXXXXXXXXXXXXXXXXXXXX z`",
"`z XXXXXXXXXXXXXXXXXXXXXXXXXXXXXXXXXXXk```````^-XXXXXXX:/``````!$XXXXXXXXXXXXXXXXXXXXXXXXXXXXXXXX z`",
"`z XXXXXXXXXXXXXXXXXXXXXXXXXXXXXXXXXX<(```````dXXXXXXXXXx```````mXXXXXXXXXXXXXXXXXXXXXXXXXXXXXXXX z`",
"`z XXXXXXXXXXXXXXXXXXXXXXXXXXXXXXXXXXF```````IXXXXXXXXXX+Q``````_6XXXXXXXXXXXXXXXXXXXXXXXXXXXXXXX z`",
"`z XXXXXXXXXXXXXXXXXXXXXXXXXXXXXXXXXu```````_8XXXXXXXXXXXi```````LXXXXXXXXXXXXXXXXXXXXXXXXXXXXXXX z`",
"`z XXXXXXXXXXXXXXXXXXXXXXXXXXXXXXXX$!```````MXXXXXXXXXXXXXP```````aXXXXXXXXXXXXXXXXXXXXXXXXXXXXXX z`",
"`z XXXXXXXXXXXXXXXXXXXXXXXXXXXXXXXXN```````!$XXXXXXXXXXXXXq```````!%XXXXXXXXXXXXXXXXXXXXXXXXXXXXX z`",
"`z XXXXXXXXXXXXXXXXXXXXXXXXXXXXXXX0````````iXXXXXXXXXXXXXXXA```````NXXXXXXXXXXXXXXXXXXXXXXXXXXXXX z`",
"`z XXXXXXXXXXXXXXXXXXXXXXXXXXXXXXXY```````JXXXXXXXXXXXXXXXX<)``````_8XXXXXXXXXXXXXXXXXXXXXXXXXXXX z`",
"`z XXXXXXXXXXXXXXXXXXXXXXXXXXXXXXj```````)4XXXXXXXXXXXXXXXXXb```````LXXXXXXXXXXXXXXXXXXXXXXXXXXXX z`",
"`z XXXXXXXXXXXXXXXXXXXXXXXXXXXXX<(```````cXXXXXXXXXXXXXXXXXX#!```````sXXXXXXXXXXXXXXXXXXXXXXXXXXX z`",
"`z XXXXXXXXXXXXXXXXXXXXXXXXXXXXXF```````QOXXXXXXXXXXXXXXXXXXXs```````~&XXXXXXXXXXXXXXXXXXXXXXXXXX z`",
"`z XXXXXXXXXXXXXXXXXXXXXXXXXXXXu````````tXXXXXXXXXXXXXXXXXXXXXY```````BXXXXXXXXXXXXXXXXXXXXXXXXXX z`",
"`z XXXXXXXXXXXXXXXXXXXXXXXXXXX$!```````AXXXXXXXXXXXXXXXXXXXXXXr````````9XXXXXXXXXXXXXXXXXXXXXXXXX z`",
"`z XXXXXXXXXXXXXXXXXXXXXXXXXXXN```````/>XXXXXXXXXXXXXXXXXXXXXXXD```````UXXXXXXXXXXXXXXXXXXXXXXXXX z`",
"`z XXXXXXXXXXXXXXXXXXXXXXXXXX9````````hXXXXXXXXXXXXXXXXXXXXXXXX3)```````dXXXXXXXXXXXXXXXXXXXXXXXX z`",
"`z XXXXXXXXXXXXXXXXXXXXXXXXXXY```````TXXXXXXXXXXXXXXXXXXXXXXXXXXm```````^*XXXXXXXXXXXXXXXXXXXXXXX z`",
"`z XXXXXXXXXXXXXXXXXXXXXXXXXj````````wXXXXXXXXXXXXXXXXXXXXXXXXXX%~```````VXXXXXXXXXXXXXXXXXXXXXXX z`",
"`z XXXXXXXXXXXXXXXXXXXXXXXX,(```````CXXXXXXXXXXXXXXXXXXXXXXXXXXXXg````````0XXXXXXXXXXXXXXXXXXXXXX z`",
"`z XXXXXXXXXXXXXXXXXXXXXXXXXXXXXXXXXXXXXXXXXXXXXXXXXXXXXXXXXXXXXXXXXXXXXXXXXXXXXXXXXXXXXXXXXXXXXX z`",
"`z XXXXXXXXXXXXXXXXXXXXXXXXXXXXXXXXXXXXXXXXXXXXXXXXXXXXXXXXXXXXXXXXXXXXXXXXXXXXXXXXXXXXXXXXXXXXXX z`",
"`z XXXXXXXXXXXXXXXXXXXXXXXXXXXXXXXXXXXXXXXXXXXXXXXXXXXXXXXXXXXXXXXXXXXXXXXXXXXXXXXXXXXXXXXXXXXXXX z`",
"`z XXXXXXXXXXXXXXXXXXXXXXXXXXXXXXXXXXXXXXXXXXXXXXXXXXXXXXXXXXXXXXXXXXXXXXXXXXXXXXXXXXXXXXXXXXXXXX z`",
"`z XXXXXXXXXXXXXXXXXXXXXXXXXXXXXXXXXXXXXXXXXXXXXXXXXXXXXXXXXXXXXXXXXXXXXXXXXXXXXXXXXXXXXXXXXXXXXX z`",
"`z XXXXXXXXXXXXXXXXXXXXXXXXXXXXXXXXXXXXXXXXXXXXXXXXXXXXXXXXXXXXXXXXXXXXXXXXXXXXXXXXXXXXXXXXXXXXXX z`",
"`z XXXXXXXXXXXXXXXXXXXXXXXXXXXXXXXXXXXXXXXXXXXXXXXXXXXXXXXXXXXXXXXXXXXXXXXXXXXXXXXXXXXXXXXXXXXXXX z`",
"`z XXXXXXXXXXXXXXXXXXXXXXXXXXXXXXXXXXXXXXXXXXXXXXXXXXXXXXXXXXXXXXXXXXXXXXXXXXXXXXXXXXXXXXXXXXXXXX z`",
"`z XXXXXXXXXXXXXXXXXXXXXXXXXXXXXXXXXXXXXXXXXXXXXXXXXXXXXXXXXXXXXXXXXXXXXXXXXXXXXXXXXXXXXXXXXXXXXX z`",
"`z XXXXXXXXXXXXXXXXXXXXXXXXXXXXXXXXXXXXXXXXXXXXXXXXXXXXXXXXXXXXXXXXXXXXXXXXXXXXXXXXXXXXXXXXXXXXXX z`",
"`z XXXXXXXXXXXXXXXXXXXXXXXXXXXXXXXXXXXXXXXXXXXXXXXXXXXXXXXXXXXXXXXXXXXXXXXXXXXXXXXXXXXXXXXXXXXXXX z`",
"`z XXXXXXXXXXXXXXXXXXXXXXXXXXXXXXXXXXXXXXXXXXXXXXXXXXXXXXXXXXXXXXXXXXXXXXXXXXXXXXXXXXXXXXXXXXXXXX z`",
"`z XXXXXXXXXXXXXXXXXXXXXXXXXXXXXXXXXXXXXXXXXXXXXXXXXXXXXXXXXXXXXXXXXXXXXXXXXXXXXXXXXXXXXXXXXXXXXX z`",
"`z XXXXXXXXXXXXXXXXXXXXXXXXXXXXXXXXXXXXXXXXXXXXXXXXXXXXXXXXXXXXXXXXXXXXXXXXXXXXXXXXXXXXXXXXXXXXXX z`",
"`z XXXXXXXXXXXXXXXXXXXXXXXXXXXXXXXXXXXXXXXXXXXXXXXXXXXXXXXXXXXXXXXXXXXXXXXXXXXXXXXXXXXXXXXXXXXXXX z`",
"`z XXXXXXXXXXXXXXXXXXXXXXXXXXXXXXXXXXXXXXXXXXXXXXXXXXXXXXXXXXXXXXXXXXXXXXXXXXXXXXXXXXXXXXXXXXXXXX z`",
"`z XXXXXXXXXXXXXXXXXXXXXXXXXXXXXXXXXXXXXXXXXXXXXXXXXXXXXXXXXXXXXXXXXXXXXXXXXXXXXXXXXXXXXXXXXXXXXX z`",
"`z.XXXXXXXXXXXXXXXXXXXXXXXXXXXXXXXXXXXXXXXXXXXXXXXXXXXXXXXXXXXXXXXXXXXXXXXXXXXXXXXXXXXXXXXXXXXXXX z`",
"`z                                                                                                z`",
"`fzzzzzzzzzzzzzzzzzzzzzzzzzzzzzzzzzzzzzzzzzzzzzzzzzzzzzzzzzzzzzzzzzzzzzzzzzzzzzzzzzzzzzzzzzzzzzzzzf`",
"````````````````````````````````````````````````````````````````````````````````````````````````````"
};
