/* XPM */
static char *x2[] = {
/* columns rows colors chars-per-pixel */
"100 100 79 1 ",
"  c #686868",
". c #7C7C7C",
"X c #C3AF2A",
"o c #C3AF2E",
"O c #C4B031",
"+ c #C4B034",
"@ c #C4B13A",
"# c #C5B23F",
"$ c #C5B242",
"% c #C6B344",
"& c #C6B348",
"* c #C6B44A",
"= c #C7B44C",
"- c #C7B552",
"; c #C8B656",
": c #C9B759",
"> c #CAB95F",
", c #CAB962",
"< c #CABA64",
"1 c #CBBB68",
"2 c #CCBB69",
"3 c #CCBC6B",
"4 c #CCBC6D",
"5 c #CDBE72",
"6 c #CEBF75",
"7 c #CFC07A",
"8 c #D0C17B",
"9 c #D0C17C",
"0 c #AFAFAF",
"q c gray70",
"w c #D1C382",
"e c #D2C587",
"r c #D3C588",
"t c #D4C68C",
"y c #D5C88F",
"u c #D5C890",
"i c #D7CB97",
"p c #D7CC99",
"a c #D8CC9B",
"s c #D9CE9E",
"d c #DACFA1",
"f c #DBD1A5",
"g c #DCD2A7",
"h c #DCD2A9",
"j c #DED4AC",
"k c #DFD5B0",
"l c #E0D6B2",
"z c #E1D8B5",
"x c #E3DBBB",
"c c #E3DBBC",
"v c #E3DCBD",
"b c #E4DCBE",
"n c #E4DDC0",
"m c #E6DFC4",
"M c #E7E0C7",
"N c #E9E2CB",
"B c #E9E3CC",
"V c #EAE4CD",
"C c #EBE5D1",
"Z c #ECE7D3",
"A c #ECE7D4",
"S c #EDE8D5",
"D c #EEE9D8",
"F c #EFEBDC",
"G c #F0EBDC",
"H c #F1EDDF",
"J c #F2EEE1",
"K c #F3F0E4",
"L c #F4F1E7",
"P c #F5F2E8",
"I c #F6F4EB",
"U c #F7F4ED",
"Y c #F8F6EF",
"T c #F8F7F0",
"R c #FAF8F3",
"E c #FAF9F4",
"W c #FCFBF8",
"Q c #FDFCFA",
"! c white",
/* pixels */
"!!!!!!!!!!!!!!!!!!!!!!!!!!!!!!!!!!!!!!!!!!!!!!!!!!!!!!!!!!!!!!!!!!!!!!!!!!!!!!!!!!!!!!!!!!!!!!!!!!!!",
"!0qqqqqqqqqqqqqqqqqqqqqqqqqqqqqqqqqqqqqqqqqqqqqqqqqqqqqqqqqqqqqqqqqqqqqqqqqqqqqqqqqqqqqqqqqqqqqqqq0!",
"!q                                                                                                q!",
"!q XXXXXXXXXXXXXXXXXXXXXXXXXXXXXXXXXXXXXXXXXXXXXXXXXXXXXXXXXXXXXXXXXXXXXXXXXXXXXXXXXXXXXXXXXXXXXX q!",
"!q XXXXXXXXXXXXXXXXXXXXXXXXXXXXXXXXXXXXXXXXXXXXXXXXXXXXXXXXXXXXXXXXXXXXXXXXXXXXXXXXXXXXXXXXXXXXXX q!",
"!q XXXXXXXXXXXXXXXXXXXXXXXXXXXXXXXXXXXXXXXXXXXXXXXXXXXXXXXXXXXXXXXXXXXXXXXXXXXXXXXXXXXXXXXXXXXXXX q!",
"!q XXXXXXXXXXXXXXXXXXXXXXXXXXXXXXXXXXXXXXXXXXXXXXXXXXXXXXXXXXXXXXXXXXXXXXXXXXXXXXXXXXXXXXXXXXXXXX q!",
"!q XXXXXXXXXXXXXXXXXXXXXXXXXXXXXXXXXXXXXXXXXXXXXXXXXXXXXXXXXXXXXXXXXXXXXXXXXXXXXXXXXXXXXXXXXXXXXX q!",
"!q XXXXXXXXXXXXXXXXXXXXXXXXXXXXXXXXXXXXXXXXXXXXXXXXXXXXXXXXXXXXXXXXXXXXXXXXXXXXXXXXXXXXXXXXXXXXXX q!",
"!q XXXXXXXXXXXXXXXXXXXXXXXXXXXXXXXXXXXXXXXXXXXXXXXXXXXXXXXXXXXXXXXXXXXXXXXXXXXXXXXXXXXXXXXXXXXXXX q!",
"!q XXXXXXXXXXXXXXXXXXXXXXXXXXXXXXXXXXXXXXXXXXXXXXXXXXXXXXXXXXXXXXXXXXXXXXXXXXXXXXXXXXXXXXXXXXXXXX q!",
"!q XXXXXXXXXXXXXXXXXXXXXXXXXXXXXXXXXXXXXXXXXXXXXXXXXXXXXXXXXXXXXXXXXXXXXXXXXXXXXXXXXXXXXXXXXXXXXX q!",
"!q XXXXXXXXXXXXXXXXXXXXXXXXXXXXXXXXXXXXXXXXXXXXXXXXXXXXXXXXXXXXXXXXXXXXXXXXXXXXXXXXXXXXXXXXXXXXXX q!",
"!q XXXXXXXXXXXXXXXXXXXXXXXXXXXXXXXXXXXXXXXXXXXXXXXXXXXXXXXXXXXXXXXXXXXXXXXXXXXXXXXXXXXXXXXXXXXXXX q!",
"!q XXXXXXXXXXXXXXXXXXXXXXXXXXXXXXXXXXXXXXXXXXXXXXXXXXXXXXXXXXXXXXXXXXXXXXXXXXXXXXXXXXXXXXXXXXXXXX q!",
"!q XXXXXXXXXXXXXXXXXXXXXXXXXXXXXXXXXXXXXXXXXXXXXXXXXXXXXXXXXXXXXXXXXXXXXXXXXXXXXXXXXXXXXXXXXXXXXX q!",
"!q XXXXXXXXXXXXXXXXXXXXXXXXXXXXXXXXXXXXXXXXXXXXXXXXXXXXXXXXXXXXXXXXXXXXXXXXXXXXXXXXXXXXXXXXXXXXXX q!",
"!q XXXXXXXXXXXXXXXXXXXXXXXXXXXXXXXXXXXXXXXXXXXXXXXXXXXXXXXXXXXXXXXXXXXXXXXXXXXXXXXXXXXXXXXXXXXXXX q!",
"!q XXXXXXXXXXXXXXXXXXXXXXXXXXXXXXXXXXXXXXXXXXXXXXXXXXXXXXXXXXXXXXXXXXXXXXXXXXXXXXXXXXXXXXXXXXXXXX q!",
"!q XXXXXXXXXXXXXXXXXXXXXXXXXXXXXXXXXXXXXXXXXXXXXXXXXXXXXXXXXXXXXXXXXXXXXXXXXXXXXXXXXXXXXXXXXXXXXX q!",
"!q XXXXXXXXXXXXXXXXXXXXXXXXXXXd!!!!!!!!5XXXXXXXXXXXXXXXXXXXXXXXXB!!!!!!!U@XXXXXXXXXXXXXXXXXXXXXXX q!",
"!q XXXXXXXXXXXXXXXXXXXXXXXXXXXXH!!!!!!!DXXXXXXXXXXXXXXXXXXXXXXX7!!!!!!!!rXXXXXXXXXXXXXXXXXXXXXXXX q!",
"!q XXXXXXXXXXXXXXXXXXXXXXXXXXXX5!!!!!!!!uXXXXXXXXXXXXXXXXXXXXXXJ!!!!!!!VXXXXXXXXXXXXXXXXXXXXXXXXX q!",
"!q XXXXXXXXXXXXXXXXXXXXXXXXXXXXXn!!!!!!!P+XXXXXXXXXXXXXXXXXXXXs!!!!!!!E;XXXXXXXXXXXXXXXXXXXXXXXXX q!",
"!q XXXXXXXXXXXXXXXXXXXXXXXXXXXXX%T!!!!!!!jXXXXXXXXXXXXXXXXXXX$T!!!!!!!fXXXXXXXXXXXXXXXXXXXXXXXXXX q!",
"!q XXXXXXXXXXXXXXXXXXXXXXXXXXXXXXi!!!!!!!E=XXXXXXXXXXXXXXXXXXx!!!!!!!JXXXXXXXXXXXXXXXXXXXXXXXXXXX q!",
"!q XXXXXXXXXXXXXXXXXXXXXXXXXXXXXXXD!!!!!!!mXXXXXXXXXXXXXXXXX<Q!!!!!!!5XXXXXXXXXXXXXXXXXXXXXXXXXXX q!",
"!q XXXXXXXXXXXXXXXXXXXXXXXXXXXXXXX1Q!!!!!!!4XXXXXXXXXXXXXXXXZ!!!!!!!cXXXXXXXXXXXXXXXXXXXXXXXXXXXX q!",
"!q XXXXXXXXXXXXXXXXXXXXXXXXXXXXXXXXx!!!!!!!DXXXXXXXXXXXXXXXe!!!!!!!U#XXXXXXXXXXXXXXXXXXXXXXXXXXXX q!",
"!q XXXXXXXXXXXXXXXXXXXXXXXXXXXXXXXX@U!!!!!!!tXXXXXXXXXXXXXoL!!!!!!!tXXXXXXXXXXXXXXXXXXXXXXXXXXXXX q!",
"!q XXXXXXXXXXXXXXXXXXXXXXXXXXXXXXXXXt!!!!!!!POXXXXXXXXXXXXh!!!!!!!CXXXXXXXXXXXXXXXXXXXXXXXXXXXXXX q!",
"!q XXXXXXXXXXXXXXXXXXXXXXXXXXXXXXXXXXA!!!!!!!hXXXXXXXXXXX=E!!!!!!E;XXXXXXXXXXXXXXXXXXXXXXXXXXXXXX q!",
"!q XXXXXXXXXXXXXXXXXXXXXXXXXXXXXXXXXX>W!!!!!!E*XXXXXXXXXXn!!!!!!!gXXXXXXXXXXXXXXXXXXXXXXXXXXXXXXX q!",
"!q XXXXXXXXXXXXXXXXXXXXXXXXXXXXXXXXXXXl!!!!!!!nXXXXXXXXX5!!!!!!!JXXXXXXXXXXXXXXXXXXXXXXXXXXXXXXXX q!",
"!q XXXXXXXXXXXXXXXXXXXXXXXXXXXXXXXXXXX+P!!!!!!!2XXXXXXXXD!!!!!!!5XXXXXXXXXXXXXXXXXXXXXXXXXXXXXXXX q!",
"!q XXXXXXXXXXXXXXXXXXXXXXXXXXXXXXXXXXXXe!!!!!!!SXXXXXXXu!!!!!!!vXXXXXXXXXXXXXXXXXXXXXXXXXXXXXXXXX q!",
"!q XXXXXXXXXXXXXXXXXXXXXXXXXXXXXXXXXXXXXV!!!!!!!rXXXXX+U!!!!!!U#XXXXXXXXXXXXXXXXXXXXXXXXXXXXXXXXX q!",
"!q XXXXXXXXXXXXXXXXXXXXXXXXXXXXXXXXXXXXX;E!!!!!!LoXXXXl!!!!!!!tXXXXXXXXXXXXXXXXXXXXXXXXXXXXXXXXXX q!",
"!q XXXXXXXXXXXXXXXXXXXXXXXXXXXXXXXXXXXXXXh!!!!!!!fXXX;W!!!!!!CXXXXXXXXXXXXXXXXXXXXXXXXXXXXXXXXXXX q!",
"!q XXXXXXXXXXXXXXXXXXXXXXXXXXXXXXXXXXXXXXoK!!!!!!R%XXB!!!!!!E:XXXXXXXXXXXXXXXXXXXXXXXXXXXXXXXXXXX q!",
"!q XXXXXXXXXXXXXXXXXXXXXXXXXXXXXXXXXXXXXXX9!!!!!!!bX8!!!!!!!hXXXXXXXXXXXXXXXXXXXXXXXXXXXXXXXXXXXX q!",
"!q XXXXXXXXXXXXXXXXXXXXXXXXXXXXXXXXXXXXXXXXM!!!!!!Q<J!!!!!!JXXXXXXXXXXXXXXXXXXXXXXXXXXXXXXXXXXXXX q!",
"!q XXXXXXXXXXXXXXXXXXXXXXXXXXXXXXXXXXXXXXXX=R!!!!!!U!!!!!!!6XXXXXXXXXXXXXXXXXXXXXXXXXXXXXXXXXXXXX q!",
"!q XXXXXXXXXXXXXXXXXXXXXXXXXXXXXXXXXXXXXXXXXd!!!!!!!!!!!!!bXXXXXXXXXXXXXXXXXXXXXXXXXXXXXXXXXXXXXX q!",
"!q XXXXXXXXXXXXXXXXXXXXXXXXXXXXXXXXXXXXXXXXXXH!!!!!!!!!!!U#XXXXXXXXXXXXXXXXXXXXXXXXXXXXXXXXXXXXXX q!",
"!q XXXXXXXXXXXXXXXXXXXXXXXXXXXXXXXXXXXXXXXXXX5!!!!!!!!!!!uXXXXXXXXXXXXXXXXXXXXXXXXXXXXXXXXXXXXXXX q!",
"!q XXXXXXXXXXXXXXXXXXXXXXXXXXXXXXXXXXXXXXXXXXXn!!!!!!!!!CXXXXXXXXXXXXXXXXXXXXXXXXXXXXXXXXXXXXXXXX q!",
"!q XXXXXXXXXXXXXXXXXXXXXXXXXXXXXXXXXXXXXXXXXXX%E!!!!!!!E:XXXXXXXXXXXXXXXXXXXXXXXXXXXXXXXXXXXXXXXX q!",
"!q XXXXXXXXXXXXXXXXXXXXXXXXXXXXXXXXXXXXXXXXXXXt!!!!!!!!W>XXXXXXXXXXXXXXXXXXXXXXXXXXXXXXXXXXXXXXXX q!",
"!q XXXXXXXXXXXXXXXXXXXXXXXXXXXXXXXXXXXXXXXXXX#U!!!!!!!!!ZXXXXXXXXXXXXXXXXXXXXXXXXXXXXXXXXXXXXXXXX q!",
"!q XXXXXXXXXXXXXXXXXXXXXXXXXXXXXXXXXXXXXXXXXXv!!!!!!!!!!!tXXXXXXXXXXXXXXXXXXXXXXXXXXXXXXXXXXXXXXX q!",
"!q XXXXXXXXXXXXXXXXXXXXXXXXXXXXXXXXXXXXXXXXX5!!!!!!!!!!!!I+XXXXXXXXXXXXXXXXXXXXXXXXXXXXXXXXXXXXXX q!",
"!q XXXXXXXXXXXXXXXXXXXXXXXXXXXXXXXXXXXXXXXXXJ!!!!!!!!!!!!!zXXXXXXXXXXXXXXXXXXXXXXXXXXXXXXXXXXXXXX q!",
"!q XXXXXXXXXXXXXXXXXXXXXXXXXXXXXXXXXXXXXXXXg!!!!!!!!!!!!!!Q,XXXXXXXXXXXXXXXXXXXXXXXXXXXXXXXXXXXXX q!",
"!q XXXXXXXXXXXXXXXXXXXXXXXXXXXXXXXXXXXXXXX;E!!!!!!!uR!!!!!!AXXXXXXXXXXXXXXXXXXXXXXXXXXXXXXXXXXXXX q!",
"!q XXXXXXXXXXXXXXXXXXXXXXXXXXXXXXXXXXXXXXXC!!!!!!!VXg!!!!!!!yXXXXXXXXXXXXXXXXXXXXXXXXXXXXXXXXXXXX q!",
"!q XXXXXXXXXXXXXXXXXXXXXXXXXXXXXXXXXXXXXXt!!!!!!!E;XoL!!!!!!U@XXXXXXXXXXXXXXXXXXXXXXXXXXXXXXXXXXX q!",
"!q XXXXXXXXXXXXXXXXXXXXXXXXXXXXXXXXXXXXX#U!!!!!!!hXXXr!!!!!!!zXXXXXXXXXXXXXXXXXXXXXXXXXXXXXXXXXXX q!",
"!q XXXXXXXXXXXXXXXXXXXXXXXXXXXXXXXXXXXXXc!!!!!!!JoXXXXS!!!!!!Q<XXXXXXXXXXXXXXXXXXXXXXXXXXXXXXXXXX q!",
"!q XXXXXXXXXXXXXXXXXXXXXXXXXXXXXXXXXXXX5!!!!!!!!7XXXXX4!!!!!!!SXXXXXXXXXXXXXXXXXXXXXXXXXXXXXXXXXX q!",
"!q XXXXXXXXXXXXXXXXXXXXXXXXXXXXXXXXXXXXJ!!!!!!!mXXXXXXXn!!!!!!!uXXXXXXXXXXXXXXXXXXXXXXXXXXXXXXXXX q!",
"!q XXXXXXXXXXXXXXXXXXXXXXXXXXXXXXXXXXXg!!!!!!!R&XXXXXXX=E!!!!!!U#XXXXXXXXXXXXXXXXXXXXXXXXXXXXXXXX q!",
"!q XXXXXXXXXXXXXXXXXXXXXXXXXXXXXXXXXX;E!!!!!!!sXXXXXXXXXj!!!!!!!xXXXXXXXXXXXXXXXXXXXXXXXXXXXXXXXX q!",
"!q XXXXXXXXXXXXXXXXXXXXXXXXXXXXXXXXXXC!!!!!!!FXXXXXXXXXX+P!!!!!!Q1XXXXXXXXXXXXXXXXXXXXXXXXXXXXXXX q!",
"!q XXXXXXXXXXXXXXXXXXXXXXXXXXXXXXXXXt!!!!!!!Q4XXXXXXXXXXXu!!!!!!!DXXXXXXXXXXXXXXXXXXXXXXXXXXXXXXX q!",
"!q XXXXXXXXXXXXXXXXXXXXXXXXXXXXXXXX#U!!!!!!!xXXXXXXXXXXXXXD!!!!!!!iXXXXXXXXXXXXXXXXXXXXXXXXXXXXXX q!",
"!q XXXXXXXXXXXXXXXXXXXXXXXXXXXXXXXXc!!!!!!!U#XXXXXXXXXXXXX5!!!!!!!Y#XXXXXXXXXXXXXXXXXXXXXXXXXXXXX q!",
"!q XXXXXXXXXXXXXXXXXXXXXXXXXXXXXXX5!!!!!!!!yXXXXXXXXXXXXXXXN!!!!!!!cXXXXXXXXXXXXXXXXXXXXXXXXXXXXX q!",
"!q XXXXXXXXXXXXXXXXXXXXXXXXXXXXXXXJ!!!!!!!AXXXXXXXXXXXXXXXX;W!!!!!!Q3XXXXXXXXXXXXXXXXXXXXXXXXXXXX q!",
"!q XXXXXXXXXXXXXXXXXXXXXXXXXXXXXXf!!!!!!!W>XXXXXXXXXXXXXXXXXl!!!!!!!DXXXXXXXXXXXXXXXXXXXXXXXXXXXX q!",
"!q XXXXXXXXXXXXXXXXXXXXXXXXXXXXX;E!!!!!!!kXXXXXXXXXXXXXXXXXX@U!!!!!!!iXXXXXXXXXXXXXXXXXXXXXXXXXXX q!",
"!q XXXXXXXXXXXXXXXXXXXXXXXXXXXXXV!!!!!!!POXXXXXXXXXXXXXXXXXXXp!!!!!!!T$XXXXXXXXXXXXXXXXXXXXXXXXXX q!",
"!q XXXXXXXXXXXXXXXXXXXXXXXXXXXXr!!!!!!!!wXXXXXXXXXXXXXXXXXXXXXH!!!!!!!bXXXXXXXXXXXXXXXXXXXXXXXXXX q!",
"!q XXXXXXXXXXXXXXXXXXXXXXXXXXX#U!!!!!!!NXXXXXXXXXXXXXXXXXXXXXX7!!!!!!!!4XXXXXXXXXXXXXXXXXXXXXXXXX q!",
"!q XXXXXXXXXXXXXXXXXXXXXXXXXXXc!!!!!!!E-XXXXXXXXXXXXXXXXXXXXXXXB!!!!!!!GXXXXXXXXXXXXXXXXXXXXXXXXX q!",
"!q XXXXXXXXXXXXXXXXXXXXXXXXXX5!!!!!!!!fXXXXXXXXXXXXXXXXXXXXXXXX>W!!!!!!!aXXXXXXXXXXXXXXXXXXXXXXXX q!",
"!q XXXXXXXXXXXXXXXXXXXXXXXXXXH!!!!!!!JXXXXXXXXXXXXXXXXXXXXXXXXXXx!!!!!!!T%XXXXXXXXXXXXXXXXXXXXXXX q!",
"!q XXXXXXXXXXXXXXXXXXXXXXXXXf!!!!!!!!6XXXXXXXXXXXXXXXXXXXXXXXXXX#T!!!!!!!nXXXXXXXXXXXXXXXXXXXXXXX q!",
"!q XXXXXXXXXXXXXXXXXXXXXXXX;E!!!!!!!nXXXXXXXXXXXXXXXXXXXXXXXXXXXXs!!!!!!!!5XXXXXXXXXXXXXXXXXXXXXX q!",
"!q XXXXXXXXXXXXXXXXXXXXXXXXXXXXXXXXXXXXXXXXXXXXXXXXXXXXXXXXXXXXXXXXXXXXXXXXXXXXXXXXXXXXXXXXXXXXXX q!",
"!q XXXXXXXXXXXXXXXXXXXXXXXXXXXXXXXXXXXXXXXXXXXXXXXXXXXXXXXXXXXXXXXXXXXXXXXXXXXXXXXXXXXXXXXXXXXXXX q!",
"!q XXXXXXXXXXXXXXXXXXXXXXXXXXXXXXXXXXXXXXXXXXXXXXXXXXXXXXXXXXXXXXXXXXXXXXXXXXXXXXXXXXXXXXXXXXXXXX q!",
"!q XXXXXXXXXXXXXXXXXXXXXXXXXXXXXXXXXXXXXXXXXXXXXXXXXXXXXXXXXXXXXXXXXXXXXXXXXXXXXXXXXXXXXXXXXXXXXX q!",
"!q XXXXXXXXXXXXXXXXXXXXXXXXXXXXXXXXXXXXXXXXXXXXXXXXXXXXXXXXXXXXXXXXXXXXXXXXXXXXXXXXXXXXXXXXXXXXXX q!",
"!q XXXXXXXXXXXXXXXXXXXXXXXXXXXXXXXXXXXXXXXXXXXXXXXXXXXXXXXXXXXXXXXXXXXXXXXXXXXXXXXXXXXXXXXXXXXXXX q!",
"!q XXXXXXXXXXXXXXXXXXXXXXXXXXXXXXXXXXXXXXXXXXXXXXXXXXXXXXXXXXXXXXXXXXXXXXXXXXXXXXXXXXXXXXXXXXXXXX q!",
"!q XXXXXXXXXXXXXXXXXXXXXXXXXXXXXXXXXXXXXXXXXXXXXXXXXXXXXXXXXXXXXXXXXXXXXXXXXXXXXXXXXXXXXXXXXXXXXX q!",
"!q XXXXXXXXXXXXXXXXXXXXXXXXXXXXXXXXXXXXXXXXXXXXXXXXXXXXXXXXXXXXXXXXXXXXXXXXXXXXXXXXXXXXXXXXXXXXXX q!",
"!q XXXXXXXXXXXXXXXXXXXXXXXXXXXXXXXXXXXXXXXXXXXXXXXXXXXXXXXXXXXXXXXXXXXXXXXXXXXXXXXXXXXXXXXXXXXXXX q!",
"!q XXXXXXXXXXXXXXXXXXXXXXXXXXXXXXXXXXXXXXXXXXXXXXXXXXXXXXXXXXXXXXXXXXXXXXXXXXXXXXXXXXXXXXXXXXXXXX q!",
"!q XXXXXXXXXXXXXXXXXXXXXXXXXXXXXXXXXXXXXXXXXXXXXXXXXXXXXXXXXXXXXXXXXXXXXXXXXXXXXXXXXXXXXXXXXXXXXX q!",
"!q XXXXXXXXXXXXXXXXXXXXXXXXXXXXXXXXXXXXXXXXXXXXXXXXXXXXXXXXXXXXXXXXXXXXXXXXXXXXXXXXXXXXXXXXXXXXXX q!",
"!q XXXXXXXXXXXXXXXXXXXXXXXXXXXXXXXXXXXXXXXXXXXXXXXXXXXXXXXXXXXXXXXXXXXXXXXXXXXXXXXXXXXXXXXXXXXXXX q!",
"!q XXXXXXXXXXXXXXXXXXXXXXXXXXXXXXXXXXXXXXXXXXXXXXXXXXXXXXXXXXXXXXXXXXXXXXXXXXXXXXXXXXXXXXXXXXXXXX q!",
"!q XXXXXXXXXXXXXXXXXXXXXXXXXXXXXXXXXXXXXXXXXXXXXXXXXXXXXXXXXXXXXXXXXXXXXXXXXXXXXXXXXXXXXXXXXXXXXX q!",
"!q XXXXXXXXXXXXXXXXXXXXXXXXXXXXXXXXXXXXXXXXXXXXXXXXXXXXXXXXXXXXXXXXXXXXXXXXXXXXXXXXXXXXXXXXXXXXXX q!",
"!q.XXXXXXXXXXXXXXXXXXXXXXXXXXXXXXXXXXXXXXXXXXXXXXXXXXXXXXXXXXXXXXXXXXXXXXXXXXXXXXXXXXXXXXXXXXXXXX q!",
"!q                                                                                                q!",
"!0qqqqqqqqqqqqqqqqqqqqqqqqqqqqqqqqqqqqqqqqqqqqqqqqqqqqqqqqqqqqqqqqqqqqqqqqqqqqqqqqqqqqqqqqqqqqqqqq0!",
"!!!!!!!!!!!!!!!!!!!!!!!!!!!!!!!!!!!!!!!!!!!!!!!!!!!!!!!!!!!!!!!!!!!!!!!!!!!!!!!!!!!!!!!!!!!!!!!!!!!!"
};
