/* XPM */
static char *x3[] = {
/* columns rows colors chars-per-pixel */
"100 100 37 1 ",
"  c #686868",
". c #727272",
"X c #747474",
"o c gray48",
"O c gray50",
"+ c #838383",
"@ c #848484",
"# c #8B8B8B",
"$ c #8D8D8D",
"% c #939393",
"& c #959595",
"* c #989898",
"= c #9F9F9F",
"- c gray63",
"; c #A4A4A4",
": c gray66",
"> c #AFAFAF",
", c gray70",
"< c #B4B4B4",
"1 c #B9B9B9",
"2 c #BCBCBC",
"3 c #C0C0C0",
"4 c gray78",
"5 c #CBCBCB",
"6 c #CECECE",
"7 c gray82",
"8 c gray84",
"9 c #DADADA",
"0 c gray87",
"q c gray88",
"w c #E4E4E4",
"e c gray92",
"r c #ECECEC",
"t c #F3F3F3",
"y c #F6F6F6",
"u c #FBFBFB",
"i c white",
/* pixels */
"iiiiiiiiiiiiiiiiiiiiiiiiiiiiiiiiiiiiiiiiiiiiiiiiiiiiiiiiiiiiiiiiiiiiiiiiiiiiiiiiiiiiiiiiiiiiiiiiiiii",
"i>,,,,,,,,,,,,,,,,,,,,,,,,,,,,,,,,,,,,,,,,,,,,,,,,,,,,,,,,,,,,,,,,,,,,,,,,,,,,,,,,,,,,,,,,,,,,,,,,>i",
"i,                                                                                                ,i",
"i, .............................................................................................. ,i",
"i, .............................................................................................. ,i",
"i, .............................................................................................. ,i",
"i, .............................................................................................. ,i",
"i, .............................................................................................. ,i",
"i, .............................................................................................. ,i",
"i, .............................................................................................. ,i",
"i, .............................................................................................. ,i",
"i, .............................................................................................. ,i",
"i, .............................................................................................. ,i",
"i, .............................................................................................. ,i",
"i, .............................................................................................. ,i",
"i, .............................................................................................. ,i",
"i, .............................................................................................. ,i",
"i, .............................................................................................. ,i",
"i, .............................................................................................. ,i",
"i, .............................................................................................. ,i",
"i, ...........................,iiiiiiii%........................8iiiiiiirX....................... ,i",
"i, ............................wiiiiiiiq.......................*iiiiiiii-........................ ,i",
"i, ............................%iiiiiiii;......................wiiiiiii8......................... ,i",
"i, .............................5iiiiiiirX....................,iiiiiiiy+......................... ,i",
"i, .............................otiiiiiii2...................otiiiiiii<.......................... ,i",
"i, ..............................>iiiiiiiyO..................4iiiiiiiw........................... ,i",
"i, ...............................qiiiiiii6.................#uiiiiiii%........................... ,i",
"i, ...............................$uiiiiiii%................9iiiiiii5............................ ,i",
"i, ................................4iiiiiii0...............-iiiiiiito............................ ,i",
"i, ................................Xriiiiiii;..............eiiiiiii;............................. ,i",
"i, .................................;iiiiiiirX............1iiiiiii9.............................. ,i",
"i, ..................................9iiiiiii1...........Oyiiiiiiu@.............................. ,i",
"i, ..................................#uiiiiiiyO..........6iiiiiii1............................... ,i",
"i, ...................................3iiiiiii6.........%iiiiiiiw................................ ,i",
"i, ...................................Xriiiiiii$........qiiiiiii%................................ ,i",
"i, ....................................=iiiiiii0.......:iiiiiii5................................. ,i",
"i, .....................................8iiiiiii-.....Xriiiiiito................................. ,i",
"i, .....................................+uiiiiiie.....3iiiiiii;.................................. ,i",
"i, ......................................1iiiiiii<...@uiiiiii9................................... ,i",
"i, .......................................eiiiiiiyO..8iiiiiiu@................................... ,i",
"i, .......................................*iiiiiii5.*iiiiiii1.................................... ,i",
"i, ........................................7iiiiiiu#wiiiiiiw..................................... ,i",
"i, ........................................Oyiiiiiiriiiiiii&..................................... ,i",
"i, .........................................<iiiiiiiiiiiii5...................................... ,i",
"i, ..........................................wiiiiiiiiiiito...................................... ,i",
"i, ..........................................%iiiiiiiiiii;....................................... ,i",
"i, ...........................................6iiiiiiiii9........................................ ,i",
"i, ...........................................oyiiiiiiiu@........................................ ,i",
"i, ...........................................;iiiiiiiiu#........................................ ,i",
"i, ..........................................otiiiiiiiii9........................................ ,i",
"i, ..........................................5iiiiiiiiiii;....................................... ,i",
"i, .........................................%iiiiiiiiiiiirX...................................... ,i",
"i, .........................................wiiiiiiiiiiiii3...................................... ,i",
"i, ........................................<iiiiiiiiiiiiiiu#..................................... ,i",
"i, .......................................+yiiiiiii:yiiiiii0..................................... ,i",
"i, .......................................9iiiiiii8.1iiiiiii;.................................... ,i",
"i, ......................................;iiiiiiiu+..eiiiiiirX................................... ,i",
"i, .....................................otiiiiiii1...-iiiiiii4................................... ,i",
"i, .....................................5iiiiiiie.....0iiiiiiu#.................................. ,i",
"i, ....................................%iiiiiiii*.....$iiiiiii0.................................. ,i",
"i, ....................................wiiiiiii6.......6iiiiiii:................................. ,i",
"i, ...................................<iiiiiiiyO.......Oyiiiiiito................................ ,i",
"i, ..................................+yiiiiiii,.........2iiiiiii4................................ ,i",
"i, ..................................9iiiiiiiq..........Xriiiiiiu$............................... ,i",
"i, .................................;iiiiiiii$...........:iiiiiii0............................... ,i",
"i, ................................otiiiiiii4.............qiiiiiii:.............................. ,i",
"i, ................................5iiiiiiito.............&iiiiiiito............................. ,i",
"i, ...............................%iiiiiiii;...............7iiiiiii5............................. ,i",
"i, ...............................wiiiiiii9................+uiiiiiii$............................ ,i",
"i, ..............................<iiiiiiiu#.................3iiiiiiiq............................ ,i",
"i, .............................+yiiiiiii2..................Xtiiiiiii>........................... ,i",
"i, .............................8iiiiiiieX...................>iiiiiiito.......................... ,i",
"i, ............................-iiiiiiii=.....................wiiiiiii5.......................... ,i",
"i, ...........................oriiiiiii7......................*iiiiiiii%......................... ,i",
"i, ...........................5iiiiiiiy+.......................8iiiiiiiq......................... ,i",
"i, ..........................%iiiiiiii<........................@uiiiiiii>........................ ,i",
"i, ..........................wiiiiiiiw..........................4iiiiiiito....................... ,i",
"i, .........................<iiiiiiii&..........................otiiiiiii5....................... ,i",
"i, ........................+yiiiiiii6............................,iiiiiiii%...................... ,i",
"i, .............................................................................................. ,i",
"i, .............................................................................................. ,i",
"i, .............................................................................................. ,i",
"i, .............................................................................................. ,i",
"i, .............................................................................................. ,i",
"i, .............................................................................................. ,i",
"i, .............................................................................................. ,i",
"i, .............................................................................................. ,i",
"i, .............................................................................................. ,i",
"i, .............................................................................................. ,i",
"i, .............................................................................................. ,i",
"i, .............................................................................................. ,i",
"i, .............................................................................................. ,i",
"i, .............................................................................................. ,i",
"i, .............................................................................................. ,i",
"i, .............................................................................................. ,i",
"i, .............................................................................................. ,i",
"i,O.............................................................................................. ,i",
"i,                                                                                                ,i",
"i>,,,,,,,,,,,,,,,,,,,,,,,,,,,,,,,,,,,,,,,,,,,,,,,,,,,,,,,,,,,,,,,,,,,,,,,,,,,,,,,,,,,,,,,,,,,,,,,,>i",
"iiiiiiiiiiiiiiiiiiiiiiiiiiiiiiiiiiiiiiiiiiiiiiiiiiiiiiiiiiiiiiiiiiiiiiiiiiiiiiiiiiiiiiiiiiiiiiiiiiii"
};
