/* XPM */
static char *y[] = {
/* columns rows colors chars-per-pixel */
"100 100 73 1 ",
"  c #2E0000",
". c #310D0D",
"X c #341616",
"o c #371C1C",
"O c #3A2222",
"+ c #3D2626",
"@ c #3F2A2A",
"# c #422E2E",
"$ c #463535",
"% c #483838",
"& c #4E4040",
"* c #504242",
"= c #524545",
"- c #544747",
"; c #564949",
": c #594D4D",
"> c #5C5151",
", c #5F5555",
"< c #665D5D",
"1 c #6C6363",
"2 c #6E6666",
"3 c #686868",
"4 c #716969",
"5 c #766E6E",
"6 c #777070",
"7 c #787171",
"8 c #7E7878",
"9 c #7C7C7C",
"0 c #817A7A",
"q c #837E7E",
"w c #8B8585",
"e c #8C8787",
"r c #908B8B",
"t c #918C8C",
"y c #949090",
"u c #9A9595",
"i c #9D9999",
"p c #A29F9F",
"a c #A5A1A1",
"s c #A9A6A6",
"d c #ACA9A9",
"f c #AFAFAF",
"g c #B2AFAF",
"h c gray70",
"j c #B4B2B2",
"k c #BAB8B8",
"l c #BCBABA",
"z c #BEBCBC",
"x c #C3C1C1",
"c c #C7C5C5",
"v c #C8C6C6",
"b c #CAC8C8",
"n c #CFCECE",
"m c #D3D2D2",
"M c #D4D2D2",
"N c #D6D5D5",
"B c #D8D6D6",
"V c #DAD8D8",
"C c #DCDBDB",
"Z c #DEDDDD",
"A c #E0DFDF",
"S c #E1E0E0",
"D c #E5E4E4",
"F c #E8E7E7",
"G c #EAE9E9",
"H c #ECEBEB",
"J c #EFEEEE",
"K c #F0EFEF",
"L c #F1F0F0",
"P c #F4F3F3",
"I c gray97",
"U c #F8F8F8",
"Y c white",
/* pixels */
"YYYYYYYYYYYYYYYYYYYYYYYYYYYYYYYYYYYYYYYYYYYYYYYYYYYYYYYYYYYYYYYYYYYYYYYYYYYYYYYYYYYYYYYYYYYYYYYYYYYY",
"YfhhhhhhhhhhhhhhhhhhhhhhhhhhhhhhhhhhhhhhhhhhhhhhhhhhhhhhhhhhhhhhhhhhhhhhhhhhhhhhhhhhhhhhhhhhhhhhhhfY",
"Yh333333333333333333333333333333333333333333333333333333333333333333333333333333333333333333333333hY",
"Yh3YYYYYYYYYYYYYYYYYYYYYYYYYYYYYYYYYYYYYYYYYYYYYYYYYYYYYYYYYYYYYYYYYYYYYYYYYYYYYYYYYYYYYYYYYYYYYY3hY",
"Yh3YYYYYYYYYYYYYYYYYYYYYYYYYYYYYYYYYYYYYYYYYYYYYYYYYYYYYYYYYYYYYYYYYYYYYYYYYYYYYYYYYYYYYYYYYYYYYY3hY",
"Yh3YYYYYYYYYYYYYYYYYYYYYYYYYYYYYYYYYYYYYYYYYYYYYYYYYYYYYYYYYYYYYYYYYYYYYYYYYYYYYYYYYYYYYYYYYYYYYY3hY",
"Yh3YYYYYYYYYYYYYYYYYYYYYYYYYYYYYYYYYYYYYYYYYYYYYYYYYYYYYYYYYYYYYYYYYYYYYYYYYYYYYYYYYYYYYYYYYYYYYY3hY",
"Yh3YYYYYYYYYYYYYYYYYYYYYYYYYYYYYYYYYYYYYYYYYYYYYYYYYYYYYYYYYYYYYYYYYYYYYYYYYYYYYYYYYYYYYYYYYYYYYY3hY",
"Yh3YYYYYYYYYYYYYYYYYYYYYYYYYYYYYYYYYYYYYYYYYYYYYYYYYYYYYYYYYYYYYYYYYYYYYYYYYYYYYYYYYYYYYYYYYYYYYY3hY",
"Yh3YYYYYYYYYYYYYYYYYYYYYYYYYYYYYYYYYYYYYYYYYYYYYYYYYYYYYYYYYYYYYYYYYYYYYYYYYYYYYYYYYYYYYYYYYYYYYY3hY",
"Yh3YYYYYYYYYYYYYYYYYYYYYYYYYYYYYYYYYYYYYYYYYYYYYYYYYYYYYYYYYYYYYYYYYYYYYYYYYYYYYYYYYYYYYYYYYYYYYY3hY",
"Yh3YYYYYYYYYYYYYYYYYYYYYYYYYYYYYYYYYYYYYYYYYYYYYYYYYYYYYYYYYYYYYYYYYYYYYYYYYYYYYYYYYYYYYYYYYYYYYY3hY",
"Yh3YYYYYYYYYYYYYYYYYYYYYYYYYYYYYYYYYYYYYYYYYYYYYYYYYYYYYYYYYYYYYYYYYYYYYYYYYYYYYYYYYYYYYYYYYYYYYY3hY",
"Yh3YYYYYYYYYYYYYYYYYYYYYYYYYYYYYYYYYYYYYYYYYYYYYYYYYYYYYYYYYYYYYYYYYYYYYYYYYYYYYYYYYYYYYYYYYYYYYY3hY",
"Yh3YYYYYYYYYYYYYYYYYYYYYYYYYYYYYYYYYYYYYYYYYYYYYYYYYYYYYYYYYYYYYYYYYYYYYYYYYYYYYYYYYYYYYYYYYYYYYY3hY",
"Yh3YYYYYYYYYYYYYYYYYYYYYYYYYYYYYYYYYYYYYYYYYYYYYYYYYYYYYYYYYYYYYYYYYYYYYYYYYYYYYYYYYYYYYYYYYYYYYY3hY",
"Yh3YYYYYYYYYYYYYYYYYYYYYYYYYYYYYYYYYYYYYYYYYYYYYYYYYYYYYYYYYYYYYYYYYYYYYYYYYYYYYYYYYYYYYYYYYYYYYY3hY",
"Yh3YYYYYYYYYYYYYYYYYYYYYYYYYYYYYYYYYYYYYYYYYYYYYYYYYYYYYYYYYYYYYYYYYYYYYYYYYYYYYYYYYYYYYYYYYYYYYY3hY",
"Yh3YYYYYYYYYYYYYYYYYYYYYYYYYYYYYYYYYYYYYYYYYYYYYYYYYYYYYYYYYYYYYYYYYYYYYYYYYYYYYYYYYYYYYYYYYYYYYY3hY",
"Yh3YYYYYYYYYYYYYYYYYYYYYYYYYYYYYYYYYYYYYYYYYYYYYYYYYYYYYYYYYYYYYYYYYYYYYYYYYYYYYYYYYYYYYYYYYYYYYY3hY",
"Yh3YYYYYYYYYYYYYYYYYYYYYYYYYA       +KYYYYYYYYYYYYYYYYYYYYYYYYYYI*       vYYYYYYYYYYYYYYYYYYYYYYY3hY",
"Yh3YYYYYYYYYYYYYYYYYYYYYYYYYYu       pYYYYYYYYYYYYYYYYYYYYYYYYYYh       5YYYYYYYYYYYYYYYYYYYYYYYY3hY",
"Yh3YYYYYYYYYYYYYYYYYYYYYYYYYYJ+      .FYYYYYYYYYYYYYYYYYYYYYYYYL@       ZYYYYYYYYYYYYYYYYYYYYYYYY3hY",
"Yh3YYYYYYYYYYYYYYYYYYYYYYYYYYYj       tYYYYYYYYYYYYYYYYYYYYYYYYa       yYYYYYYYYYYYYYYYYYYYYYYYYY3hY",
"Yh3YYYYYYYYYYYYYYYYYYYYYYYYYYYU:       ZYYYYYYYYYYYYYYYYYYYYYYG.      OJYYYYYYYYYYYYYYYYYYYYYYYYY3hY",
"Yh3YYYYYYYYYYYYYYYYYYYYYYYYYYYYb       8YYYYYYYYYYYYYYYYYYYYYYy       gYYYYYYYYYYYYYYYYYYYYYYYYYY3hY",
"Yh3YYYYYYYYYYYYYYYYYYYYYYYYYYYYY7       mYYYYYYYYYYYYYYYYYYYYS       ;IYYYYYYYYYYYYYYYYYYYYYYYYYY3hY",
"Yh3YYYYYYYYYYYYYYYYYYYYYYYYYYYYYZ       1YYYYYYYYYYYYYYYYYYYYq       vYYYYYYYYYYYYYYYYYYYYYYYYYYY3hY",
"Yh3YYYYYYYYYYYYYYYYYYYYYYYYYYYYYYy       cYYYYYYYYYYYYYYYYYYN       5YYYYYYYYYYYYYYYYYYYYYYYYYYYY3hY",
"Yh3YYYYYYYYYYYYYYYYYYYYYYYYYYYYYYJO      :UYYYYYYYYYYYYYYYYY4       ZYYYYYYYYYYYYYYYYYYYYYYYYYYYY3hY",
"Yh3YYYYYYYYYYYYYYYYYYYYYYYYYYYYYYYg       kYYYYYYYYYYYYYYYYb       yYYYYYYYYYYYYYYYYYYYYYYYYYYYYY3hY",
"Yh3YYYYYYYYYYYYYYYYYYYYYYYYYYYYYYYI;      %PYYYYYYYYYYYYYYU,      OJYYYYYYYYYYYYYYYYYYYYYYYYYYYYY3hY",
"Yh3YYYYYYYYYYYYYYYYYYYYYYYYYYYYYYYYv       dYYYYYYYYYYYYYYz       gYYYYYYYYYYYYYYYYYYYYYYYYYYYYYY3hY",
"Yh3YYYYYYYYYYYYYYYYYYYYYYYYYYYYYYYYY5      oJYYYYYYYYYYYYI&      ;IYYYYYYYYYYYYYYYYYYYYYYYYYYYYYY3hY",
"Yh3YYYYYYYYYYYYYYYYYYYYYYYYYYYYYYYYYC       iYYYYYYYYYYYYg       vYYYYYYYYYYYYYYYYYYYYYYYYYYYYYYY3hY",
"Yh3YYYYYYYYYYYYYYYYYYYYYYYYYYYYYYYYYYt       DYYYYYYYYYYK+      6YYYYYYYYYYYYYYYYYYYYYYYYYYYYYYYY3hY",
"Yh3YYYYYYYYYYYYYYYYYYYYYYYYYYYYYYYYYYHo      wYYYYYYYYYYp       ZYYYYYYYYYYYYYYYYYYYYYYYYYYYYYYYY3hY",
"Yh3YYYYYYYYYYYYYYYYYYYYYYYYYYYYYYYYYYYf       VYYYYYYYYG.      yYYYYYYYYYYYYYYYYYYYYYYYYYYYYYYYYY3hY",
"Yh3YYYYYYYYYYYYYYYYYYYYYYYYYYYYYYYYYYYI=      7YYYYYYYYt      OJYYYYYYYYYYYYYYYYYYYYYYYYYYYYYYYYY3hY",
"Yh3YYYYYYYYYYYYYYYYYYYYYYYYYYYYYYYYYYYYc       nYYYYYYZ       gYYYYYYYYYYYYYYYYYYYYYYYYYYYYYYYYYY3hY",
"Yh3YYYYYYYYYYYYYYYYYYYYYYYYYYYYYYYYYYYYY4      <UYYYYY0      ;IYYYYYYYYYYYYYYYYYYYYYYYYYYYYYYYYYY3hY",
"Yh3YYYYYYYYYYYYYYYYYYYYYYYYYYYYYYYYYYYYYV       xYYYYM       vYYYYYYYYYYYYYYYYYYYYYYYYYYYYYYYYYYY3hY",
"Yh3YYYYYYYYYYYYYYYYYYYYYYYYYYYYYYYYYYYYYYr      -IYYY2      6YYYYYYYYYYYYYYYYYYYYYYYYYYYYYYYYYYYY3hY",
"Yh3YYYYYYYYYYYYYYYYYYYYYYYYYYYYYYYYYYYYYYGX      jYYv       ZYYYYYYYYYYYYYYYYYYYYYYYYYYYYYYYYYYYY3hY",
"Yh3YYYYYYYYYYYYYYYYYYYYYYYYYYYYYYYYYYYYYYYd      #LU>      yYYYYYYYYYYYYYYYYYYYYYYYYYYYYYYYYYYYYY3hY",
"Yh3YYYYYYYYYYYYYYYYYYYYYYYYYYYYYYYYYYYYYYYI*      al      OJYYYYYYYYYYYYYYYYYYYYYYYYYYYYYYYYYYYYY3hY",
"Yh3YYYYYYYYYYYYYYYYYYYYYYYYYYYYYYYYYYYYYYYYx      X$      gYYYYYYYYYYYYYYYYYYYYYYYYYYYYYYYYYYYYYY3hY",
"Yh3YYYYYYYYYYYYYYYYYYYYYYYYYYYYYYYYYYYYYYYYY2            ;IYYYYYYYYYYYYYYYYYYYYYYYYYYYYYYYYYYYYYY3hY",
"Yh3YYYYYYYYYYYYYYYYYYYYYYYYYYYYYYYYYYYYYYYYYB            vYYYYYYYYYYYYYYYYYYYYYYYYYYYYYYYYYYYYYYY3hY",
"Yh3YYYYYYYYYYYYYYYYYYYYYYYYYYYYYYYYYYYYYYYYYYe          6YYYYYYYYYYYYYYYYYYYYYYYYYYYYYYYYYYYYYYYY3hY",
"Yh3YYYYYYYYYYYYYYYYYYYYYYYYYYYYYYYYYYYYYYYYYYGX         ZYYYYYYYYYYYYYYYYYYYYYYYYYYYYYYYYYYYYYYYY3hY",
"Yh3YYYYYYYYYYYYYYYYYYYYYYYYYYYYYYYYYYYYYYYYYYYs        yYYYYYYYYYYYYYYYYYYYYYYYYYYYYYYYYYYYYYYYYY3hY",
"Yh3YYYYYYYYYYYYYYYYYYYYYYYYYYYYYYYYYYYYYYYYYYYI@       JYYYYYYYYYYYYYYYYYYYYYYYYYYYYYYYYYYYYYYYYY3hY",
"Yh3YYYYYYYYYYYYYYYYYYYYYYYYYYYYYYYYYYYYYYYYYYYY:       YYYYYYYYYYYYYYYYYYYYYYYYYYYYYYYYYYYYYYYYYY3hY",
"Yh3YYYYYYYYYYYYYYYYYYYYYYYYYYYYYYYYYYYYYYYYYYYY:       YYYYYYYYYYYYYYYYYYYYYYYYYYYYYYYYYYYYYYYYYY3hY",
"Yh3YYYYYYYYYYYYYYYYYYYYYYYYYYYYYYYYYYYYYYYYYYYY:       YYYYYYYYYYYYYYYYYYYYYYYYYYYYYYYYYYYYYYYYYY3hY",
"Yh3YYYYYYYYYYYYYYYYYYYYYYYYYYYYYYYYYYYYYYYYYYYY:       YYYYYYYYYYYYYYYYYYYYYYYYYYYYYYYYYYYYYYYYYY3hY",
"Yh3YYYYYYYYYYYYYYYYYYYYYYYYYYYYYYYYYYYYYYYYYYYY:       YYYYYYYYYYYYYYYYYYYYYYYYYYYYYYYYYYYYYYYYYY3hY",
"Yh3YYYYYYYYYYYYYYYYYYYYYYYYYYYYYYYYYYYYYYYYYYYY:       YYYYYYYYYYYYYYYYYYYYYYYYYYYYYYYYYYYYYYYYYY3hY",
"Yh3YYYYYYYYYYYYYYYYYYYYYYYYYYYYYYYYYYYYYYYYYYYY:       YYYYYYYYYYYYYYYYYYYYYYYYYYYYYYYYYYYYYYYYYY3hY",
"Yh3YYYYYYYYYYYYYYYYYYYYYYYYYYYYYYYYYYYYYYYYYYYY:       YYYYYYYYYYYYYYYYYYYYYYYYYYYYYYYYYYYYYYYYYY3hY",
"Yh3YYYYYYYYYYYYYYYYYYYYYYYYYYYYYYYYYYYYYYYYYYYY:       YYYYYYYYYYYYYYYYYYYYYYYYYYYYYYYYYYYYYYYYYY3hY",
"Yh3YYYYYYYYYYYYYYYYYYYYYYYYYYYYYYYYYYYYYYYYYYYY:       YYYYYYYYYYYYYYYYYYYYYYYYYYYYYYYYYYYYYYYYYY3hY",
"Yh3YYYYYYYYYYYYYYYYYYYYYYYYYYYYYYYYYYYYYYYYYYYY:       YYYYYYYYYYYYYYYYYYYYYYYYYYYYYYYYYYYYYYYYYY3hY",
"Yh3YYYYYYYYYYYYYYYYYYYYYYYYYYYYYYYYYYYYYYYYYYYY:       YYYYYYYYYYYYYYYYYYYYYYYYYYYYYYYYYYYYYYYYYY3hY",
"Yh3YYYYYYYYYYYYYYYYYYYYYYYYYYYYYYYYYYYYYYYYYYYY:       YYYYYYYYYYYYYYYYYYYYYYYYYYYYYYYYYYYYYYYYYY3hY",
"Yh3YYYYYYYYYYYYYYYYYYYYYYYYYYYYYYYYYYYYYYYYYYYY:       YYYYYYYYYYYYYYYYYYYYYYYYYYYYYYYYYYYYYYYYYY3hY",
"Yh3YYYYYYYYYYYYYYYYYYYYYYYYYYYYYYYYYYYYYYYYYYYY:       YYYYYYYYYYYYYYYYYYYYYYYYYYYYYYYYYYYYYYYYYY3hY",
"Yh3YYYYYYYYYYYYYYYYYYYYYYYYYYYYYYYYYYYYYYYYYYYY:       YYYYYYYYYYYYYYYYYYYYYYYYYYYYYYYYYYYYYYYYYY3hY",
"Yh3YYYYYYYYYYYYYYYYYYYYYYYYYYYYYYYYYYYYYYYYYYYY:       YYYYYYYYYYYYYYYYYYYYYYYYYYYYYYYYYYYYYYYYYY3hY",
"Yh3YYYYYYYYYYYYYYYYYYYYYYYYYYYYYYYYYYYYYYYYYYYY:       YYYYYYYYYYYYYYYYYYYYYYYYYYYYYYYYYYYYYYYYYY3hY",
"Yh3YYYYYYYYYYYYYYYYYYYYYYYYYYYYYYYYYYYYYYYYYYYY:       YYYYYYYYYYYYYYYYYYYYYYYYYYYYYYYYYYYYYYYYYY3hY",
"Yh3YYYYYYYYYYYYYYYYYYYYYYYYYYYYYYYYYYYYYYYYYYYY:       YYYYYYYYYYYYYYYYYYYYYYYYYYYYYYYYYYYYYYYYYY3hY",
"Yh3YYYYYYYYYYYYYYYYYYYYYYYYYYYYYYYYYYYYYYYYYYYY:       YYYYYYYYYYYYYYYYYYYYYYYYYYYYYYYYYYYYYYYYYY3hY",
"Yh3YYYYYYYYYYYYYYYYYYYYYYYYYYYYYYYYYYYYYYYYYYYY:       YYYYYYYYYYYYYYYYYYYYYYYYYYYYYYYYYYYYYYYYYY3hY",
"Yh3YYYYYYYYYYYYYYYYYYYYYYYYYYYYYYYYYYYYYYYYYYYY:       YYYYYYYYYYYYYYYYYYYYYYYYYYYYYYYYYYYYYYYYYY3hY",
"Yh3YYYYYYYYYYYYYYYYYYYYYYYYYYYYYYYYYYYYYYYYYYYY:       YYYYYYYYYYYYYYYYYYYYYYYYYYYYYYYYYYYYYYYYYY3hY",
"Yh3YYYYYYYYYYYYYYYYYYYYYYYYYYYYYYYYYYYYYYYYYYYY:       YYYYYYYYYYYYYYYYYYYYYYYYYYYYYYYYYYYYYYYYYY3hY",
"Yh3YYYYYYYYYYYYYYYYYYYYYYYYYYYYYYYYYYYYYYYYYYYY:       YYYYYYYYYYYYYYYYYYYYYYYYYYYYYYYYYYYYYYYYYY3hY",
"Yh3YYYYYYYYYYYYYYYYYYYYYYYYYYYYYYYYYYYYYYYYYYYYYYYYYYYYYYYYYYYYYYYYYYYYYYYYYYYYYYYYYYYYYYYYYYYYYY3hY",
"Yh3YYYYYYYYYYYYYYYYYYYYYYYYYYYYYYYYYYYYYYYYYYYYYYYYYYYYYYYYYYYYYYYYYYYYYYYYYYYYYYYYYYYYYYYYYYYYYY3hY",
"Yh3YYYYYYYYYYYYYYYYYYYYYYYYYYYYYYYYYYYYYYYYYYYYYYYYYYYYYYYYYYYYYYYYYYYYYYYYYYYYYYYYYYYYYYYYYYYYYY3hY",
"Yh3YYYYYYYYYYYYYYYYYYYYYYYYYYYYYYYYYYYYYYYYYYYYYYYYYYYYYYYYYYYYYYYYYYYYYYYYYYYYYYYYYYYYYYYYYYYYYY3hY",
"Yh3YYYYYYYYYYYYYYYYYYYYYYYYYYYYYYYYYYYYYYYYYYYYYYYYYYYYYYYYYYYYYYYYYYYYYYYYYYYYYYYYYYYYYYYYYYYYYY3hY",
"Yh3YYYYYYYYYYYYYYYYYYYYYYYYYYYYYYYYYYYYYYYYYYYYYYYYYYYYYYYYYYYYYYYYYYYYYYYYYYYYYYYYYYYYYYYYYYYYYY3hY",
"Yh3YYYYYYYYYYYYYYYYYYYYYYYYYYYYYYYYYYYYYYYYYYYYYYYYYYYYYYYYYYYYYYYYYYYYYYYYYYYYYYYYYYYYYYYYYYYYYY3hY",
"Yh3YYYYYYYYYYYYYYYYYYYYYYYYYYYYYYYYYYYYYYYYYYYYYYYYYYYYYYYYYYYYYYYYYYYYYYYYYYYYYYYYYYYYYYYYYYYYYY3hY",
"Yh3YYYYYYYYYYYYYYYYYYYYYYYYYYYYYYYYYYYYYYYYYYYYYYYYYYYYYYYYYYYYYYYYYYYYYYYYYYYYYYYYYYYYYYYYYYYYYY3hY",
"Yh3YYYYYYYYYYYYYYYYYYYYYYYYYYYYYYYYYYYYYYYYYYYYYYYYYYYYYYYYYYYYYYYYYYYYYYYYYYYYYYYYYYYYYYYYYYYYYY3hY",
"Yh3YYYYYYYYYYYYYYYYYYYYYYYYYYYYYYYYYYYYYYYYYYYYYYYYYYYYYYYYYYYYYYYYYYYYYYYYYYYYYYYYYYYYYYYYYYYYYY3hY",
"Yh3YYYYYYYYYYYYYYYYYYYYYYYYYYYYYYYYYYYYYYYYYYYYYYYYYYYYYYYYYYYYYYYYYYYYYYYYYYYYYYYYYYYYYYYYYYYYYY3hY",
"Yh3YYYYYYYYYYYYYYYYYYYYYYYYYYYYYYYYYYYYYYYYYYYYYYYYYYYYYYYYYYYYYYYYYYYYYYYYYYYYYYYYYYYYYYYYYYYYYY3hY",
"Yh3YYYYYYYYYYYYYYYYYYYYYYYYYYYYYYYYYYYYYYYYYYYYYYYYYYYYYYYYYYYYYYYYYYYYYYYYYYYYYYYYYYYYYYYYYYYYYY3hY",
"Yh3YYYYYYYYYYYYYYYYYYYYYYYYYYYYYYYYYYYYYYYYYYYYYYYYYYYYYYYYYYYYYYYYYYYYYYYYYYYYYYYYYYYYYYYYYYYYYY3hY",
"Yh3YYYYYYYYYYYYYYYYYYYYYYYYYYYYYYYYYYYYYYYYYYYYYYYYYYYYYYYYYYYYYYYYYYYYYYYYYYYYYYYYYYYYYYYYYYYYYY3hY",
"Yh3YYYYYYYYYYYYYYYYYYYYYYYYYYYYYYYYYYYYYYYYYYYYYYYYYYYYYYYYYYYYYYYYYYYYYYYYYYYYYYYYYYYYYYYYYYYYYY3hY",
"Yh9YYYYYYYYYYYYYYYYYYYYYYYYYYYYYYYYYYYYYYYYYYYYYYYYYYYYYYYYYYYYYYYYYYYYYYYYYYYYYYYYYYYYYYYYYYYYYY3hY",
"Yh333333333333333333333333333333333333333333333333333333333333333333333333333333333333333333333333hY",
"YfhhhhhhhhhhhhhhhhhhhhhhhhhhhhhhhhhhhhhhhhhhhhhhhhhhhhhhhhhhhhhhhhhhhhhhhhhhhhhhhhhhhhhhhhhhhhhhhhfY",
"YYYYYYYYYYYYYYYYYYYYYYYYYYYYYYYYYYYYYYYYYYYYYYYYYYYYYYYYYYYYYYYYYYYYYYYYYYYYYYYYYYYYYYYYYYYYYYYYYYYY"
};
