/* XPM */
static char *y1[] = {
/* columns rows colors chars-per-pixel */
"100 100 67 1 ",
"  c #686868",
". c #7C7C7C",
"X c #348032",
"o c #378135",
"O c #3C823B",
"+ c #3F833D",
"@ c #418440",
"# c #448542",
"$ c #468644",
"% c #4A8749",
"& c #508A4F",
"* c #538B52",
"= c #578D56",
"- c #5A8E59",
"; c #5D905C",
": c #60915F",
"> c #639362",
", c #669465",
"< c #6B976B",
"1 c #6E986D",
"2 c #709970",
"3 c #749B73",
"4 c #779D77",
"5 c #7B9F7A",
"6 c #7FA27E",
"7 c #83A483",
"8 c #89A889",
"9 c #92AE92",
"0 c #95AF94",
"q c #96B095",
"w c #99B299",
"e c #9BB49B",
"r c #9CB49C",
"t c #AFAFAF",
"y c #A2B8A1",
"u c #A6BBA5",
"i c #ABBEAA",
"p c gray70",
"a c #B1C3B1",
"s c #B2C4B2",
"d c #B4C5B3",
"f c #B4C5B4",
"g c #B9C9B9",
"h c #BECCBE",
"j c #C2CFC2",
"k c #C7D3C7",
"l c #C9D5C9",
"z c #CCD7CC",
"x c #CED8CE",
"c c #D2DBD2",
"v c #D4DDD3",
"b c #D5DED5",
"n c #DBE2DB",
"m c #DEE5DE",
"M c #E0E6E0",
"N c #E3E8E3",
"B c #E4E9E4",
"V c #E7ECE7",
"C c #E9EEE9",
"Z c #EFF2EF",
"A c #F0F3F0",
"S c #F1F4F1",
"D c #F5F7F5",
"F c #F7F8F7",
"G c #F8F9F8",
"H c #FBFCFB",
"J c white",
/* pixels */
"JJJJJJJJJJJJJJJJJJJJJJJJJJJJJJJJJJJJJJJJJJJJJJJJJJJJJJJJJJJJJJJJJJJJJJJJJJJJJJJJJJJJJJJJJJJJJJJJJJJJ",
"JtpppppppppppppppppppppppppppppppppppppppppppppppppppppppppppppppppppppppppppppppppppppppppppppppptJ",
"Jp                                                                                                pJ",
"Jp XXXXXXXXXXXXXXXXXXXXXXXXXXXXXXXXXXXXXXXXXXXXXXXXXXXXXXXXXXXXXXXXXXXXXXXXXXXXXXXXXXXXXXXXXXXXXX pJ",
"Jp XXXXXXXXXXXXXXXXXXXXXXXXXXXXXXXXXXXXXXXXXXXXXXXXXXXXXXXXXXXXXXXXXXXXXXXXXXXXXXXXXXXXXXXXXXXXXX pJ",
"Jp XXXXXXXXXXXXXXXXXXXXXXXXXXXXXXXXXXXXXXXXXXXXXXXXXXXXXXXXXXXXXXXXXXXXXXXXXXXXXXXXXXXXXXXXXXXXXX pJ",
"Jp XXXXXXXXXXXXXXXXXXXXXXXXXXXXXXXXXXXXXXXXXXXXXXXXXXXXXXXXXXXXXXXXXXXXXXXXXXXXXXXXXXXXXXXXXXXXXX pJ",
"Jp XXXXXXXXXXXXXXXXXXXXXXXXXXXXXXXXXXXXXXXXXXXXXXXXXXXXXXXXXXXXXXXXXXXXXXXXXXXXXXXXXXXXXXXXXXXXXX pJ",
"Jp XXXXXXXXXXXXXXXXXXXXXXXXXXXXXXXXXXXXXXXXXXXXXXXXXXXXXXXXXXXXXXXXXXXXXXXXXXXXXXXXXXXXXXXXXXXXXX pJ",
"Jp XXXXXXXXXXXXXXXXXXXXXXXXXXXXXXXXXXXXXXXXXXXXXXXXXXXXXXXXXXXXXXXXXXXXXXXXXXXXXXXXXXXXXXXXXXXXXX pJ",
"Jp XXXXXXXXXXXXXXXXXXXXXXXXXXXXXXXXXXXXXXXXXXXXXXXXXXXXXXXXXXXXXXXXXXXXXXXXXXXXXXXXXXXXXXXXXXXXXX pJ",
"Jp XXXXXXXXXXXXXXXXXXXXXXXXXXXXXXXXXXXXXXXXXXXXXXXXXXXXXXXXXXXXXXXXXXXXXXXXXXXXXXXXXXXXXXXXXXXXXX pJ",
"Jp XXXXXXXXXXXXXXXXXXXXXXXXXXXXXXXXXXXXXXXXXXXXXXXXXXXXXXXXXXXXXXXXXXXXXXXXXXXXXXXXXXXXXXXXXXXXXX pJ",
"Jp XXXXXXXXXXXXXXXXXXXXXXXXXXXXXXXXXXXXXXXXXXXXXXXXXXXXXXXXXXXXXXXXXXXXXXXXXXXXXXXXXXXXXXXXXXXXXX pJ",
"Jp XXXXXXXXXXXXXXXXXXXXXXXXXXXXXXXXXXXXXXXXXXXXXXXXXXXXXXXXXXXXXXXXXXXXXXXXXXXXXXXXXXXXXXXXXXXXXX pJ",
"Jp XXXXXXXXXXXXXXXXXXXXXXXXXXXXXXXXXXXXXXXXXXXXXXXXXXXXXXXXXXXXXXXXXXXXXXXXXXXXXXXXXXXXXXXXXXXXXX pJ",
"Jp XXXXXXXXXXXXXXXXXXXXXXXXXXXXXXXXXXXXXXXXXXXXXXXXXXXXXXXXXXXXXXXXXXXXXXXXXXXXXXXXXXXXXXXXXXXXXX pJ",
"Jp XXXXXXXXXXXXXXXXXXXXXXXXXXXXXXXXXXXXXXXXXXXXXXXXXXXXXXXXXXXXXXXXXXXXXXXXXXXXXXXXXXXXXXXXXXXXXX pJ",
"Jp XXXXXXXXXXXXXXXXXXXXXXXXXXXXXXXXXXXXXXXXXXXXXXXXXXXXXXXXXXXXXXXXXXXXXXXXXXXXXXXXXXXXXXXXXXXXXX pJ",
"Jp XXXXXXXXXXXXXXXXXXXXXXXXXXXXXXXXXXXXXXXXXXXXXXXXXXXXXXXXXXXXXXXXXXXXXXXXXXXXXXXXXXXXXXXXXXXXXX pJ",
"Jp XXXXXXXXXXXXXXXXXXXXXXXXX9JJJJJJJJ2XXXXXXXXXXXXXXXXXXXXXXXXXX;GJJJJJJJsXXXXXXXXXXXXXXXXXXXXXXX pJ",
"Jp XXXXXXXXXXXXXXXXXXXXXXXXXXnJJJJJJJbXXXXXXXXXXXXXXXXXXXXXXXXXXlJJJJJJJZ+XXXXXXXXXXXXXXXXXXXXXXX pJ",
"Jp XXXXXXXXXXXXXXXXXXXXXXXXXX3JJJJJJJJ7XXXXXXXXXXXXXXXXXXXXXXXX1JJJJJJJJqXXXXXXXXXXXXXXXXXXXXXXXX pJ",
"Jp XXXXXXXXXXXXXXXXXXXXXXXXXXXkJJJJJJJMXXXXXXXXXXXXXXXXXXXXXXXXvJJJJJJJmXXXXXXXXXXXXXXXXXXXXXXXXX pJ",
"Jp XXXXXXXXXXXXXXXXXXXXXXXXXXX=FJJJJJJJ0XXXXXXXXXXXXXXXXXXXXXX6JJJJJJJJ5XXXXXXXXXXXXXXXXXXXXXXXXX pJ",
"Jp XXXXXXXXXXXXXXXXXXXXXXXXXXXXaJJJJJJJCoXXXXXXXXXXXXXXXXXXXXXmJJJJJJJlXXXXXXXXXXXXXXXXXXXXXXXXXX pJ",
"Jp XXXXXXXXXXXXXXXXXXXXXXXXXXXXOZJJJJJJJuXXXXXXXXXXXXXXXXXXXX9JJJJJJJG-XXXXXXXXXXXXXXXXXXXXXXXXXX pJ",
"Jp XXXXXXXXXXXXXXXXXXXXXXXXXXXXXqJJJJJJJS#XXXXXXXXXXXXXXXXXXoVJJJJJJJsXXXXXXXXXXXXXXXXXXXXXXXXXXX pJ",
"Jp XXXXXXXXXXXXXXXXXXXXXXXXXXXXXXmJJJJJJJfXXXXXXXXXXXXXXXXXXyJJJJJJJZ+XXXXXXXXXXXXXXXXXXXXXXXXXXX pJ",
"Jp XXXXXXXXXXXXXXXXXXXXXXXXXXXXXX4JJJJJJJF*XXXXXXXXXXXXXXXX@ZJJJJJJJqXXXXXXXXXXXXXXXXXXXXXXXXXXXX pJ",
"Jp XXXXXXXXXXXXXXXXXXXXXXXXXXXXXXXlJJJJJJJjXXXXXXXXXXXXXXXXaJJJJJJJmXXXXXXXXXXXXXXXXXXXXXXXXXXXXX pJ",
"Jp XXXXXXXXXXXXXXXXXXXXXXXXXXXXXXX-GJJJJJJH,XXXXXXXXXXXXXX&DJJJJJJJ5XXXXXXXXXXXXXXXXXXXXXXXXXXXXX pJ",
"Jp XXXXXXXXXXXXXXXXXXXXXXXXXXXXXXXXdJJJJJJJxXXXXXXXXXXXXXXhJJJJJJJlXXXXXXXXXXXXXXXXXXXXXXXXXXXXXX pJ",
"Jp XXXXXXXXXXXXXXXXXXXXXXXXXXXXXXXX+ZJJJJJJJ4XXXXXXXXXXXX;GJJJJJJF-XXXXXXXXXXXXXXXXXXXXXXXXXXXXXX pJ",
"Jp XXXXXXXXXXXXXXXXXXXXXXXXXXXXXXXXXwJJJJJJJnXXXXXXXXXXXXlJJJJJJJsXXXXXXXXXXXXXXXXXXXXXXXXXXXXXXX pJ",
"Jp XXXXXXXXXXXXXXXXXXXXXXXXXXXXXXXXXXmJJJJJJJ8XXXXXXXXXX2JJJJJJJZ+XXXXXXXXXXXXXXXXXXXXXXXXXXXXXXX pJ",
"Jp XXXXXXXXXXXXXXXXXXXXXXXXXXXXXXXXXX5JJJJJJJBXXXXXXXXXXbJJJJJJJqXXXXXXXXXXXXXXXXXXXXXXXXXXXXXXXX pJ",
"Jp XXXXXXXXXXXXXXXXXXXXXXXXXXXXXXXXXXXzJJJJJJJeXXXXXXXX7JJJJJJJmXXXXXXXXXXXXXXXXXXXXXXXXXXXXXXXXX pJ",
"Jp XXXXXXXXXXXXXXXXXXXXXXXXXXXXXXXXXXX;GJJJJJJZOXXXXXXXMJJJJJJJ5XXXXXXXXXXXXXXXXXXXXXXXXXXXXXXXXX pJ",
"Jp XXXXXXXXXXXXXXXXXXXXXXXXXXXXXXXXXXXXfJJJJJJJiXXXXXX0JJJJJJJlXXXXXXXXXXXXXXXXXXXXXXXXXXXXXXXXXX pJ",
"Jp XXXXXXXXXXXXXXXXXXXXXXXXXXXXXXXXXXXX@ZJJJJJJS%XXXXoCJJJJJJF-XXXXXXXXXXXXXXXXXXXXXXXXXXXXXXXXXX pJ",
"Jp XXXXXXXXXXXXXXXXXXXXXXXXXXXXXXXXXXXXXrJJJJJJJgXXXXuJJJJJJJsXXXXXXXXXXXXXXXXXXXXXXXXXXXXXXXXXXX pJ",
"Jp XXXXXXXXXXXXXXXXXXXXXXXXXXXXXXXXXXXXXXMJJJJJJG-XX#AJJJJJJZ+XXXXXXXXXXXXXXXXXXXXXXXXXXXXXXXXXXX pJ",
"Jp XXXXXXXXXXXXXXXXXXXXXXXXXXXXXXXXXXXXXX6JJJJJJJkXXsJJJJJJJqXXXXXXXXXXXXXXXXXXXXXXXXXXXXXXXXXXXX pJ",
"Jp XXXXXXXXXXXXXXXXXXXXXXXXXXXXXXXXXXXXXXXxJJJJJJJ<*FJJJJJJmXXXXXXXXXXXXXXXXXXXXXXXXXXXXXXXXXXXXX pJ",
"Jp XXXXXXXXXXXXXXXXXXXXXXXXXXXXXXXXXXXXXXX:GJJJJJJcjJJJJJJJ4XXXXXXXXXXXXXXXXXXXXXXXXXXXXXXXXXXXXX pJ",
"Jp XXXXXXXXXXXXXXXXXXXXXXXXXXXXXXXXXXXXXXXXgJJJJJJJHJJJJJJlXXXXXXXXXXXXXXXXXXXXXXXXXXXXXXXXXXXXXX pJ",
"Jp XXXXXXXXXXXXXXXXXXXXXXXXXXXXXXXXXXXXXXXX$AJJJJJJJJJJJJF-XXXXXXXXXXXXXXXXXXXXXXXXXXXXXXXXXXXXXX pJ",
"Jp XXXXXXXXXXXXXXXXXXXXXXXXXXXXXXXXXXXXXXXXXrJJJJJJJJJJJJsXXXXXXXXXXXXXXXXXXXXXXXXXXXXXXXXXXXXXXX pJ",
"Jp XXXXXXXXXXXXXXXXXXXXXXXXXXXXXXXXXXXXXXXXXXNJJJJJJJJJJZ+XXXXXXXXXXXXXXXXXXXXXXXXXXXXXXXXXXXXXXX pJ",
"Jp XXXXXXXXXXXXXXXXXXXXXXXXXXXXXXXXXXXXXXXXXX7JJJJJJJJJJqXXXXXXXXXXXXXXXXXXXXXXXXXXXXXXXXXXXXXXXX pJ",
"Jp XXXXXXXXXXXXXXXXXXXXXXXXXXXXXXXXXXXXXXXXXXXcJJJJJJJJmXXXXXXXXXXXXXXXXXXXXXXXXXXXXXXXXXXXXXXXXX pJ",
"Jp XXXXXXXXXXXXXXXXXXXXXXXXXXXXXXXXXXXXXXXXXXX>JJJJJJJJ5XXXXXXXXXXXXXXXXXXXXXXXXXXXXXXXXXXXXXXXXX pJ",
"Jp XXXXXXXXXXXXXXXXXXXXXXXXXXXXXXXXXXXXXXXXXXXXFJJJJJJJ+XXXXXXXXXXXXXXXXXXXXXXXXXXXXXXXXXXXXXXXXX pJ",
"Jp XXXXXXXXXXXXXXXXXXXXXXXXXXXXXXXXXXXXXXXXXXXXFJJJJJJJ+XXXXXXXXXXXXXXXXXXXXXXXXXXXXXXXXXXXXXXXXX pJ",
"Jp XXXXXXXXXXXXXXXXXXXXXXXXXXXXXXXXXXXXXXXXXXXXFJJJJJJJ+XXXXXXXXXXXXXXXXXXXXXXXXXXXXXXXXXXXXXXXXX pJ",
"Jp XXXXXXXXXXXXXXXXXXXXXXXXXXXXXXXXXXXXXXXXXXXXFJJJJJJJ+XXXXXXXXXXXXXXXXXXXXXXXXXXXXXXXXXXXXXXXXX pJ",
"Jp XXXXXXXXXXXXXXXXXXXXXXXXXXXXXXXXXXXXXXXXXXXXFJJJJJJJ+XXXXXXXXXXXXXXXXXXXXXXXXXXXXXXXXXXXXXXXXX pJ",
"Jp XXXXXXXXXXXXXXXXXXXXXXXXXXXXXXXXXXXXXXXXXXXXFJJJJJJJ+XXXXXXXXXXXXXXXXXXXXXXXXXXXXXXXXXXXXXXXXX pJ",
"Jp XXXXXXXXXXXXXXXXXXXXXXXXXXXXXXXXXXXXXXXXXXXXFJJJJJJJ+XXXXXXXXXXXXXXXXXXXXXXXXXXXXXXXXXXXXXXXXX pJ",
"Jp XXXXXXXXXXXXXXXXXXXXXXXXXXXXXXXXXXXXXXXXXXXXFJJJJJJJ+XXXXXXXXXXXXXXXXXXXXXXXXXXXXXXXXXXXXXXXXX pJ",
"Jp XXXXXXXXXXXXXXXXXXXXXXXXXXXXXXXXXXXXXXXXXXXXFJJJJJJJ+XXXXXXXXXXXXXXXXXXXXXXXXXXXXXXXXXXXXXXXXX pJ",
"Jp XXXXXXXXXXXXXXXXXXXXXXXXXXXXXXXXXXXXXXXXXXXXFJJJJJJJ+XXXXXXXXXXXXXXXXXXXXXXXXXXXXXXXXXXXXXXXXX pJ",
"Jp XXXXXXXXXXXXXXXXXXXXXXXXXXXXXXXXXXXXXXXXXXXXFJJJJJJJ+XXXXXXXXXXXXXXXXXXXXXXXXXXXXXXXXXXXXXXXXX pJ",
"Jp XXXXXXXXXXXXXXXXXXXXXXXXXXXXXXXXXXXXXXXXXXXXFJJJJJJJ+XXXXXXXXXXXXXXXXXXXXXXXXXXXXXXXXXXXXXXXXX pJ",
"Jp XXXXXXXXXXXXXXXXXXXXXXXXXXXXXXXXXXXXXXXXXXXXFJJJJJJJ+XXXXXXXXXXXXXXXXXXXXXXXXXXXXXXXXXXXXXXXXX pJ",
"Jp XXXXXXXXXXXXXXXXXXXXXXXXXXXXXXXXXXXXXXXXXXXXFJJJJJJJ+XXXXXXXXXXXXXXXXXXXXXXXXXXXXXXXXXXXXXXXXX pJ",
"Jp XXXXXXXXXXXXXXXXXXXXXXXXXXXXXXXXXXXXXXXXXXXXFJJJJJJJ+XXXXXXXXXXXXXXXXXXXXXXXXXXXXXXXXXXXXXXXXX pJ",
"Jp XXXXXXXXXXXXXXXXXXXXXXXXXXXXXXXXXXXXXXXXXXXXFJJJJJJJ+XXXXXXXXXXXXXXXXXXXXXXXXXXXXXXXXXXXXXXXXX pJ",
"Jp XXXXXXXXXXXXXXXXXXXXXXXXXXXXXXXXXXXXXXXXXXXXFJJJJJJJ+XXXXXXXXXXXXXXXXXXXXXXXXXXXXXXXXXXXXXXXXX pJ",
"Jp XXXXXXXXXXXXXXXXXXXXXXXXXXXXXXXXXXXXXXXXXXXXFJJJJJJJ+XXXXXXXXXXXXXXXXXXXXXXXXXXXXXXXXXXXXXXXXX pJ",
"Jp XXXXXXXXXXXXXXXXXXXXXXXXXXXXXXXXXXXXXXXXXXXXFJJJJJJJ+XXXXXXXXXXXXXXXXXXXXXXXXXXXXXXXXXXXXXXXXX pJ",
"Jp XXXXXXXXXXXXXXXXXXXXXXXXXXXXXXXXXXXXXXXXXXXXFJJJJJJJ+XXXXXXXXXXXXXXXXXXXXXXXXXXXXXXXXXXXXXXXXX pJ",
"Jp XXXXXXXXXXXXXXXXXXXXXXXXXXXXXXXXXXXXXXXXXXXXFJJJJJJJ+XXXXXXXXXXXXXXXXXXXXXXXXXXXXXXXXXXXXXXXXX pJ",
"Jp XXXXXXXXXXXXXXXXXXXXXXXXXXXXXXXXXXXXXXXXXXXXFJJJJJJJ+XXXXXXXXXXXXXXXXXXXXXXXXXXXXXXXXXXXXXXXXX pJ",
"Jp XXXXXXXXXXXXXXXXXXXXXXXXXXXXXXXXXXXXXXXXXXXXFJJJJJJJ+XXXXXXXXXXXXXXXXXXXXXXXXXXXXXXXXXXXXXXXXX pJ",
"Jp XXXXXXXXXXXXXXXXXXXXXXXXXXXXXXXXXXXXXXXXXXXXFJJJJJJJ+XXXXXXXXXXXXXXXXXXXXXXXXXXXXXXXXXXXXXXXXX pJ",
"Jp XXXXXXXXXXXXXXXXXXXXXXXXXXXXXXXXXXXXXXXXXXXXFJJJJJJJ+XXXXXXXXXXXXXXXXXXXXXXXXXXXXXXXXXXXXXXXXX pJ",
"Jp XXXXXXXXXXXXXXXXXXXXXXXXXXXXXXXXXXXXXXXXXXXXFJJJJJJJ+XXXXXXXXXXXXXXXXXXXXXXXXXXXXXXXXXXXXXXXXX pJ",
"Jp XXXXXXXXXXXXXXXXXXXXXXXXXXXXXXXXXXXXXXXXXXXXXXXXXXXXXXXXXXXXXXXXXXXXXXXXXXXXXXXXXXXXXXXXXXXXXX pJ",
"Jp XXXXXXXXXXXXXXXXXXXXXXXXXXXXXXXXXXXXXXXXXXXXXXXXXXXXXXXXXXXXXXXXXXXXXXXXXXXXXXXXXXXXXXXXXXXXXX pJ",
"Jp XXXXXXXXXXXXXXXXXXXXXXXXXXXXXXXXXXXXXXXXXXXXXXXXXXXXXXXXXXXXXXXXXXXXXXXXXXXXXXXXXXXXXXXXXXXXXX pJ",
"Jp XXXXXXXXXXXXXXXXXXXXXXXXXXXXXXXXXXXXXXXXXXXXXXXXXXXXXXXXXXXXXXXXXXXXXXXXXXXXXXXXXXXXXXXXXXXXXX pJ",
"Jp XXXXXXXXXXXXXXXXXXXXXXXXXXXXXXXXXXXXXXXXXXXXXXXXXXXXXXXXXXXXXXXXXXXXXXXXXXXXXXXXXXXXXXXXXXXXXX pJ",
"Jp XXXXXXXXXXXXXXXXXXXXXXXXXXXXXXXXXXXXXXXXXXXXXXXXXXXXXXXXXXXXXXXXXXXXXXXXXXXXXXXXXXXXXXXXXXXXXX pJ",
"Jp XXXXXXXXXXXXXXXXXXXXXXXXXXXXXXXXXXXXXXXXXXXXXXXXXXXXXXXXXXXXXXXXXXXXXXXXXXXXXXXXXXXXXXXXXXXXXX pJ",
"Jp XXXXXXXXXXXXXXXXXXXXXXXXXXXXXXXXXXXXXXXXXXXXXXXXXXXXXXXXXXXXXXXXXXXXXXXXXXXXXXXXXXXXXXXXXXXXXX pJ",
"Jp XXXXXXXXXXXXXXXXXXXXXXXXXXXXXXXXXXXXXXXXXXXXXXXXXXXXXXXXXXXXXXXXXXXXXXXXXXXXXXXXXXXXXXXXXXXXXX pJ",
"Jp XXXXXXXXXXXXXXXXXXXXXXXXXXXXXXXXXXXXXXXXXXXXXXXXXXXXXXXXXXXXXXXXXXXXXXXXXXXXXXXXXXXXXXXXXXXXXX pJ",
"Jp XXXXXXXXXXXXXXXXXXXXXXXXXXXXXXXXXXXXXXXXXXXXXXXXXXXXXXXXXXXXXXXXXXXXXXXXXXXXXXXXXXXXXXXXXXXXXX pJ",
"Jp XXXXXXXXXXXXXXXXXXXXXXXXXXXXXXXXXXXXXXXXXXXXXXXXXXXXXXXXXXXXXXXXXXXXXXXXXXXXXXXXXXXXXXXXXXXXXX pJ",
"Jp XXXXXXXXXXXXXXXXXXXXXXXXXXXXXXXXXXXXXXXXXXXXXXXXXXXXXXXXXXXXXXXXXXXXXXXXXXXXXXXXXXXXXXXXXXXXXX pJ",
"Jp XXXXXXXXXXXXXXXXXXXXXXXXXXXXXXXXXXXXXXXXXXXXXXXXXXXXXXXXXXXXXXXXXXXXXXXXXXXXXXXXXXXXXXXXXXXXXX pJ",
"Jp XXXXXXXXXXXXXXXXXXXXXXXXXXXXXXXXXXXXXXXXXXXXXXXXXXXXXXXXXXXXXXXXXXXXXXXXXXXXXXXXXXXXXXXXXXXXXX pJ",
"Jp XXXXXXXXXXXXXXXXXXXXXXXXXXXXXXXXXXXXXXXXXXXXXXXXXXXXXXXXXXXXXXXXXXXXXXXXXXXXXXXXXXXXXXXXXXXXXX pJ",
"Jp XXXXXXXXXXXXXXXXXXXXXXXXXXXXXXXXXXXXXXXXXXXXXXXXXXXXXXXXXXXXXXXXXXXXXXXXXXXXXXXXXXXXXXXXXXXXXX pJ",
"Jp.XXXXXXXXXXXXXXXXXXXXXXXXXXXXXXXXXXXXXXXXXXXXXXXXXXXXXXXXXXXXXXXXXXXXXXXXXXXXXXXXXXXXXXXXXXXXXX pJ",
"Jp                                                                                                pJ",
"JtpppppppppppppppppppppppppppppppppppppppppppppppppppppppppppppppppppppppppppppppppppppppppppppppptJ",
"JJJJJJJJJJJJJJJJJJJJJJJJJJJJJJJJJJJJJJJJJJJJJJJJJJJJJJJJJJJJJJJJJJJJJJJJJJJJJJJJJJJJJJJJJJJJJJJJJJJJ"
};
