/* XPM */
static char *y2[] = {
/* columns rows colors chars-per-pixel */
"100 100 63 1 ",
"  c #686868",
". c #7C7C7C",
"X c #C3AF2A",
"o c #C3AF2E",
"O c #C4B034",
"+ c #C4B13A",
"@ c #C5B13D",
"# c #C6B344",
"$ c #C6B44A",
"% c #C7B54E",
"& c #C7B552",
"* c #C8B656",
"= c #C9B759",
"- c #C9B85C",
"; c #CAB962",
": c #CBBB68",
"> c #CCBC6B",
", c #CCBC6D",
"< c #CDBD71",
"1 c #CEBF75",
"2 c #CFC078",
"3 c #D0C17B",
"4 c #D0C17C",
"5 c #AFAFAF",
"6 c gray70",
"7 c #D1C381",
"8 c #D2C587",
"9 c #D4C78E",
"0 c #D5C890",
"q c #D6CA94",
"w c #D8CC9B",
"e c #D9CE9E",
"r c #DACFA0",
"t c #DBD0A3",
"y c #DBD0A4",
"u c #DDD3A9",
"i c #DFD5B0",
"p c #E0D7B3",
"a c #E1D8B5",
"s c #E2D9B8",
"d c #E3DCBD",
"f c #E4DDBF",
"g c #E5DDC1",
"h c #E7E0C6",
"j c #E7E1C8",
"k c #E8E1C9",
"l c #EAE4CD",
"z c #EBE6D1",
"x c #ECE7D3",
"c c #EDE7D5",
"v c #EFEBDB",
"b c #F0ECDE",
"n c #F1EDE0",
"m c #F4F1E7",
"M c #F5F3E9",
"N c #F6F4EC",
"B c #F8F6EF",
"V c #F9F7F1",
"C c #F9F8F3",
"Z c #FBFAF7",
"A c #FCFBF8",
"S c #FDFCFB",
"D c white",
/* pixels */
"DDDDDDDDDDDDDDDDDDDDDDDDDDDDDDDDDDDDDDDDDDDDDDDDDDDDDDDDDDDDDDDDDDDDDDDDDDDDDDDDDDDDDDDDDDDDDDDDDDDD",
"D56666666666666666666666666666666666666666666666666666666666666666666666666666666666666666666666665D",
"D6                                                                                                6D",
"D6 XXXXXXXXXXXXXXXXXXXXXXXXXXXXXXXXXXXXXXXXXXXXXXXXXXXXXXXXXXXXXXXXXXXXXXXXXXXXXXXXXXXXXXXXXXXXXX 6D",
"D6 XXXXXXXXXXXXXXXXXXXXXXXXXXXXXXXXXXXXXXXXXXXXXXXXXXXXXXXXXXXXXXXXXXXXXXXXXXXXXXXXXXXXXXXXXXXXXX 6D",
"D6 XXXXXXXXXXXXXXXXXXXXXXXXXXXXXXXXXXXXXXXXXXXXXXXXXXXXXXXXXXXXXXXXXXXXXXXXXXXXXXXXXXXXXXXXXXXXXX 6D",
"D6 XXXXXXXXXXXXXXXXXXXXXXXXXXXXXXXXXXXXXXXXXXXXXXXXXXXXXXXXXXXXXXXXXXXXXXXXXXXXXXXXXXXXXXXXXXXXXX 6D",
"D6 XXXXXXXXXXXXXXXXXXXXXXXXXXXXXXXXXXXXXXXXXXXXXXXXXXXXXXXXXXXXXXXXXXXXXXXXXXXXXXXXXXXXXXXXXXXXXX 6D",
"D6 XXXXXXXXXXXXXXXXXXXXXXXXXXXXXXXXXXXXXXXXXXXXXXXXXXXXXXXXXXXXXXXXXXXXXXXXXXXXXXXXXXXXXXXXXXXXXX 6D",
"D6 XXXXXXXXXXXXXXXXXXXXXXXXXXXXXXXXXXXXXXXXXXXXXXXXXXXXXXXXXXXXXXXXXXXXXXXXXXXXXXXXXXXXXXXXXXXXXX 6D",
"D6 XXXXXXXXXXXXXXXXXXXXXXXXXXXXXXXXXXXXXXXXXXXXXXXXXXXXXXXXXXXXXXXXXXXXXXXXXXXXXXXXXXXXXXXXXXXXXX 6D",
"D6 XXXXXXXXXXXXXXXXXXXXXXXXXXXXXXXXXXXXXXXXXXXXXXXXXXXXXXXXXXXXXXXXXXXXXXXXXXXXXXXXXXXXXXXXXXXXXX 6D",
"D6 XXXXXXXXXXXXXXXXXXXXXXXXXXXXXXXXXXXXXXXXXXXXXXXXXXXXXXXXXXXXXXXXXXXXXXXXXXXXXXXXXXXXXXXXXXXXXX 6D",
"D6 XXXXXXXXXXXXXXXXXXXXXXXXXXXXXXXXXXXXXXXXXXXXXXXXXXXXXXXXXXXXXXXXXXXXXXXXXXXXXXXXXXXXXXXXXXXXXX 6D",
"D6 XXXXXXXXXXXXXXXXXXXXXXXXXXXXXXXXXXXXXXXXXXXXXXXXXXXXXXXXXXXXXXXXXXXXXXXXXXXXXXXXXXXXXXXXXXXXXX 6D",
"D6 XXXXXXXXXXXXXXXXXXXXXXXXXXXXXXXXXXXXXXXXXXXXXXXXXXXXXXXXXXXXXXXXXXXXXXXXXXXXXXXXXXXXXXXXXXXXXX 6D",
"D6 XXXXXXXXXXXXXXXXXXXXXXXXXXXXXXXXXXXXXXXXXXXXXXXXXXXXXXXXXXXXXXXXXXXXXXXXXXXXXXXXXXXXXXXXXXXXXX 6D",
"D6 XXXXXXXXXXXXXXXXXXXXXXXXXXXXXXXXXXXXXXXXXXXXXXXXXXXXXXXXXXXXXXXXXXXXXXXXXXXXXXXXXXXXXXXXXXXXXX 6D",
"D6 XXXXXXXXXXXXXXXXXXXXXXXXXXXXXXXXXXXXXXXXXXXXXXXXXXXXXXXXXXXXXXXXXXXXXXXXXXXXXXXXXXXXXXXXXXXXXX 6D",
"D6 XXXXXXXXXXXXXXXXXXXXXXXXXXXXXXXXXXXXXXXXXXXXXXXXXXXXXXXXXXXXXXXXXXXXXXXXXXXXXXXXXXXXXXXXXXXXXX 6D",
"D6 XXXXXXXXXXXXXXXXXXXXXXXXX0DDDDDDDD,XXXXXXXXXXXXXXXXXXXXXXXXXX=ADDDDDDDpXXXXXXXXXXXXXXXXXXXXXXX 6D",
"D6 XXXXXXXXXXXXXXXXXXXXXXXXXXvDDDDDDDcXXXXXXXXXXXXXXXXXXXXXXXXXXjDDDDDDDNOXXXXXXXXXXXXXXXXXXXXXXX 6D",
"D6 XXXXXXXXXXXXXXXXXXXXXXXXXX<DDDDDDDD7XXXXXXXXXXXXXXXXXXXXXXXX>DDDDDDDDqXXXXXXXXXXXXXXXXXXXXXXXX 6D",
"D6 XXXXXXXXXXXXXXXXXXXXXXXXXXXhDDDDDDDnXXXXXXXXXXXXXXXXXXXXXXXXxDDDDDDDbXXXXXXXXXXXXXXXXXXXXXXXXX 6D",
"D6 XXXXXXXXXXXXXXXXXXXXXXXXXXX&ZDDDDDDD0XXXXXXXXXXXXXXXXXXXXXX4DDDDDDDD1XXXXXXXXXXXXXXXXXXXXXXXXX 6D",
"D6 XXXXXXXXXXXXXXXXXXXXXXXXXXXXiDDDDDDDMoXXXXXXXXXXXXXXXXXXXXXbDDDDDDDkXXXXXXXXXXXXXXXXXXXXXXXXXX 6D",
"D6 XXXXXXXXXXXXXXXXXXXXXXXXXXXXONDDDDDDDyXXXXXXXXXXXXXXXXXXXX9DDDDDDDA*XXXXXXXXXXXXXXXXXXXXXXXXXX 6D",
"D6 XXXXXXXXXXXXXXXXXXXXXXXXXXXXXqDDDDDDDV@XXXXXXXXXXXXXXXXXXomDDDDDDDpXXXXXXXXXXXXXXXXXXXXXXXXXXX 6D",
"D6 XXXXXXXXXXXXXXXXXXXXXXXXXXXXXXbDDDDDDDpXXXXXXXXXXXXXXXXXXrDDDDDDDNOXXXXXXXXXXXXXXXXXXXXXXXXXXX 6D",
"D6 XXXXXXXXXXXXXXXXXXXXXXXXXXXXXX1DDDDDDDZ%XXXXXXXXXXXXXXXX+BDDDDDDDqXXXXXXXXXXXXXXXXXXXXXXXXXXXX 6D",
"D6 XXXXXXXXXXXXXXXXXXXXXXXXXXXXXXXkDDDDDDDgXXXXXXXXXXXXXXXXiDDDDDDDbXXXXXXXXXXXXXXXXXXXXXXXXXXXXX 6D",
"D6 XXXXXXXXXXXXXXXXXXXXXXXXXXXXXXX*ADDDDDDS;XXXXXXXXXXXXXX$ZDDDDDDD1XXXXXXXXXXXXXXXXXXXXXXXXXXXXX 6D",
"D6 XXXXXXXXXXXXXXXXXXXXXXXXXXXXXXXXpDDDDDDDlXXXXXXXXXXXXXXdDDDDDDDkXXXXXXXXXXXXXXXXXXXXXXXXXXXXXX 6D",
"D6 XXXXXXXXXXXXXXXXXXXXXXXXXXXXXXXXONDDDDDDD<XXXXXXXXXXXX=SDDDDDDZ*XXXXXXXXXXXXXXXXXXXXXXXXXXXXXX 6D",
"D6 XXXXXXXXXXXXXXXXXXXXXXXXXXXXXXXXXqDDDDDDDvXXXXXXXXXXXXkDDDDDDDiXXXXXXXXXXXXXXXXXXXXXXXXXXXXXXX 6D",
"D6 XXXXXXXXXXXXXXXXXXXXXXXXXXXXXXXXXXbDDDDDDD8XXXXXXXXXX,DDDDDDDNOXXXXXXXXXXXXXXXXXXXXXXXXXXXXXXX 6D",
"D6 XXXXXXXXXXXXXXXXXXXXXXXXXXXXXXXXXX2DDDDDDDnXXXXXXXXXXcDDDDDDDqXXXXXXXXXXXXXXXXXXXXXXXXXXXXXXXX 6D",
"D6 XXXXXXXXXXXXXXXXXXXXXXXXXXXXXXXXXXXkDDDDDDDwXXXXXXXX7DDDDDDDbXXXXXXXXXXXXXXXXXXXXXXXXXXXXXXXXX 6D",
"D6 XXXXXXXXXXXXXXXXXXXXXXXXXXXXXXXXXXX=ADDDDDDNOXXXXXXXbDDDDDDD1XXXXXXXXXXXXXXXXXXXXXXXXXXXXXXXXX 6D",
"D6 XXXXXXXXXXXXXXXXXXXXXXXXXXXXXXXXXXXXaDDDDDDDuXXXXXX0DDDDDDDkXXXXXXXXXXXXXXXXXXXXXXXXXXXXXXXXXX 6D",
"D6 XXXXXXXXXXXXXXXXXXXXXXXXXXXXXXXXXXXX+NDDDDDDC#XXXXoMDDDDDDZ*XXXXXXXXXXXXXXXXXXXXXXXXXXXXXXXXXX 6D",
"D6 XXXXXXXXXXXXXXXXXXXXXXXXXXXXXXXXXXXXXwDDDDDDDsXXXXtDDDDDDDiXXXXXXXXXXXXXXXXXXXXXXXXXXXXXXXXXXX 6D",
"D6 XXXXXXXXXXXXXXXXXXXXXXXXXXXXXXXXXXXXXXnDDDDDDA*XX@VDDDDDDNOXXXXXXXXXXXXXXXXXXXXXXXXXXXXXXXXXXX 6D",
"D6 XXXXXXXXXXXXXXXXXXXXXXXXXXXXXXXXXXXXXX3DDDDDDDhXXpDDDDDDDqXXXXXXXXXXXXXXXXXXXXXXXXXXXXXXXXXXXX 6D",
"D6 XXXXXXXXXXXXXXXXXXXXXXXXXXXXXXXXXXXXXXXlDDDDDDD:%ZDDDDDDbXXXXXXXXXXXXXXXXXXXXXXXXXXXXXXXXXXXXX 6D",
"D6 XXXXXXXXXXXXXXXXXXXXXXXXXXXXXXXXXXXXXXX-ADDDDDDzfDDDDDDD1XXXXXXXXXXXXXXXXXXXXXXXXXXXXXXXXXXXXX 6D",
"D6 XXXXXXXXXXXXXXXXXXXXXXXXXXXXXXXXXXXXXXXXsDDDDDDDSDDDDDDkXXXXXXXXXXXXXXXXXXXXXXXXXXXXXXXXXXXXXX 6D",
"D6 XXXXXXXXXXXXXXXXXXXXXXXXXXXXXXXXXXXXXXXX@VDDDDDDDDDDDDZ*XXXXXXXXXXXXXXXXXXXXXXXXXXXXXXXXXXXXXX 6D",
"D6 XXXXXXXXXXXXXXXXXXXXXXXXXXXXXXXXXXXXXXXXXeDDDDDDDDDDDDiXXXXXXXXXXXXXXXXXXXXXXXXXXXXXXXXXXXXXXX 6D",
"D6 XXXXXXXXXXXXXXXXXXXXXXXXXXXXXXXXXXXXXXXXXXnDDDDDDDDDDNOXXXXXXXXXXXXXXXXXXXXXXXXXXXXXXXXXXXXXXX 6D",
"D6 XXXXXXXXXXXXXXXXXXXXXXXXXXXXXXXXXXXXXXXXXX7DDDDDDDDDDqXXXXXXXXXXXXXXXXXXXXXXXXXXXXXXXXXXXXXXXX 6D",
"D6 XXXXXXXXXXXXXXXXXXXXXXXXXXXXXXXXXXXXXXXXXXXzDDDDDDDDbXXXXXXXXXXXXXXXXXXXXXXXXXXXXXXXXXXXXXXXXX 6D",
"D6 XXXXXXXXXXXXXXXXXXXXXXXXXXXXXXXXXXXXXXXXXXX-DDDDDDDD1XXXXXXXXXXXXXXXXXXXXXXXXXXXXXXXXXXXXXXXXX 6D",
"D6 XXXXXXXXXXXXXXXXXXXXXXXXXXXXXXXXXXXXXXXXXXXXZDDDDDDDOXXXXXXXXXXXXXXXXXXXXXXXXXXXXXXXXXXXXXXXXX 6D",
"D6 XXXXXXXXXXXXXXXXXXXXXXXXXXXXXXXXXXXXXXXXXXXXZDDDDDDDOXXXXXXXXXXXXXXXXXXXXXXXXXXXXXXXXXXXXXXXXX 6D",
"D6 XXXXXXXXXXXXXXXXXXXXXXXXXXXXXXXXXXXXXXXXXXXXZDDDDDDDOXXXXXXXXXXXXXXXXXXXXXXXXXXXXXXXXXXXXXXXXX 6D",
"D6 XXXXXXXXXXXXXXXXXXXXXXXXXXXXXXXXXXXXXXXXXXXXZDDDDDDDOXXXXXXXXXXXXXXXXXXXXXXXXXXXXXXXXXXXXXXXXX 6D",
"D6 XXXXXXXXXXXXXXXXXXXXXXXXXXXXXXXXXXXXXXXXXXXXZDDDDDDDOXXXXXXXXXXXXXXXXXXXXXXXXXXXXXXXXXXXXXXXXX 6D",
"D6 XXXXXXXXXXXXXXXXXXXXXXXXXXXXXXXXXXXXXXXXXXXXZDDDDDDDOXXXXXXXXXXXXXXXXXXXXXXXXXXXXXXXXXXXXXXXXX 6D",
"D6 XXXXXXXXXXXXXXXXXXXXXXXXXXXXXXXXXXXXXXXXXXXXZDDDDDDDOXXXXXXXXXXXXXXXXXXXXXXXXXXXXXXXXXXXXXXXXX 6D",
"D6 XXXXXXXXXXXXXXXXXXXXXXXXXXXXXXXXXXXXXXXXXXXXZDDDDDDDOXXXXXXXXXXXXXXXXXXXXXXXXXXXXXXXXXXXXXXXXX 6D",
"D6 XXXXXXXXXXXXXXXXXXXXXXXXXXXXXXXXXXXXXXXXXXXXZDDDDDDDOXXXXXXXXXXXXXXXXXXXXXXXXXXXXXXXXXXXXXXXXX 6D",
"D6 XXXXXXXXXXXXXXXXXXXXXXXXXXXXXXXXXXXXXXXXXXXXZDDDDDDDOXXXXXXXXXXXXXXXXXXXXXXXXXXXXXXXXXXXXXXXXX 6D",
"D6 XXXXXXXXXXXXXXXXXXXXXXXXXXXXXXXXXXXXXXXXXXXXZDDDDDDDOXXXXXXXXXXXXXXXXXXXXXXXXXXXXXXXXXXXXXXXXX 6D",
"D6 XXXXXXXXXXXXXXXXXXXXXXXXXXXXXXXXXXXXXXXXXXXXZDDDDDDDOXXXXXXXXXXXXXXXXXXXXXXXXXXXXXXXXXXXXXXXXX 6D",
"D6 XXXXXXXXXXXXXXXXXXXXXXXXXXXXXXXXXXXXXXXXXXXXZDDDDDDDOXXXXXXXXXXXXXXXXXXXXXXXXXXXXXXXXXXXXXXXXX 6D",
"D6 XXXXXXXXXXXXXXXXXXXXXXXXXXXXXXXXXXXXXXXXXXXXZDDDDDDDOXXXXXXXXXXXXXXXXXXXXXXXXXXXXXXXXXXXXXXXXX 6D",
"D6 XXXXXXXXXXXXXXXXXXXXXXXXXXXXXXXXXXXXXXXXXXXXZDDDDDDDOXXXXXXXXXXXXXXXXXXXXXXXXXXXXXXXXXXXXXXXXX 6D",
"D6 XXXXXXXXXXXXXXXXXXXXXXXXXXXXXXXXXXXXXXXXXXXXZDDDDDDD+XXXXXXXXXXXXXXXXXXXXXXXXXXXXXXXXXXXXXXXXX 6D",
"D6 XXXXXXXXXXXXXXXXXXXXXXXXXXXXXXXXXXXXXXXXXXXXZDDDDDDDOXXXXXXXXXXXXXXXXXXXXXXXXXXXXXXXXXXXXXXXXX 6D",
"D6 XXXXXXXXXXXXXXXXXXXXXXXXXXXXXXXXXXXXXXXXXXXXZDDDDDDDOXXXXXXXXXXXXXXXXXXXXXXXXXXXXXXXXXXXXXXXXX 6D",
"D6 XXXXXXXXXXXXXXXXXXXXXXXXXXXXXXXXXXXXXXXXXXXXZDDDDDDDOXXXXXXXXXXXXXXXXXXXXXXXXXXXXXXXXXXXXXXXXX 6D",
"D6 XXXXXXXXXXXXXXXXXXXXXXXXXXXXXXXXXXXXXXXXXXXXZDDDDDDDOXXXXXXXXXXXXXXXXXXXXXXXXXXXXXXXXXXXXXXXXX 6D",
"D6 XXXXXXXXXXXXXXXXXXXXXXXXXXXXXXXXXXXXXXXXXXXXZDDDDDDDOXXXXXXXXXXXXXXXXXXXXXXXXXXXXXXXXXXXXXXXXX 6D",
"D6 XXXXXXXXXXXXXXXXXXXXXXXXXXXXXXXXXXXXXXXXXXXXZDDDDDDDOXXXXXXXXXXXXXXXXXXXXXXXXXXXXXXXXXXXXXXXXX 6D",
"D6 XXXXXXXXXXXXXXXXXXXXXXXXXXXXXXXXXXXXXXXXXXXXZDDDDDDDOXXXXXXXXXXXXXXXXXXXXXXXXXXXXXXXXXXXXXXXXX 6D",
"D6 XXXXXXXXXXXXXXXXXXXXXXXXXXXXXXXXXXXXXXXXXXXXZDDDDDDDOXXXXXXXXXXXXXXXXXXXXXXXXXXXXXXXXXXXXXXXXX 6D",
"D6 XXXXXXXXXXXXXXXXXXXXXXXXXXXXXXXXXXXXXXXXXXXXZDDDDDDDOXXXXXXXXXXXXXXXXXXXXXXXXXXXXXXXXXXXXXXXXX 6D",
"D6 XXXXXXXXXXXXXXXXXXXXXXXXXXXXXXXXXXXXXXXXXXXXZDDDDDDDOXXXXXXXXXXXXXXXXXXXXXXXXXXXXXXXXXXXXXXXXX 6D",
"D6 XXXXXXXXXXXXXXXXXXXXXXXXXXXXXXXXXXXXXXXXXXXXXXXXXXXXXXXXXXXXXXXXXXXXXXXXXXXXXXXXXXXXXXXXXXXXXX 6D",
"D6 XXXXXXXXXXXXXXXXXXXXXXXXXXXXXXXXXXXXXXXXXXXXXXXXXXXXXXXXXXXXXXXXXXXXXXXXXXXXXXXXXXXXXXXXXXXXXX 6D",
"D6 XXXXXXXXXXXXXXXXXXXXXXXXXXXXXXXXXXXXXXXXXXXXXXXXXXXXXXXXXXXXXXXXXXXXXXXXXXXXXXXXXXXXXXXXXXXXXX 6D",
"D6 XXXXXXXXXXXXXXXXXXXXXXXXXXXXXXXXXXXXXXXXXXXXXXXXXXXXXXXXXXXXXXXXXXXXXXXXXXXXXXXXXXXXXXXXXXXXXX 6D",
"D6 XXXXXXXXXXXXXXXXXXXXXXXXXXXXXXXXXXXXXXXXXXXXXXXXXXXXXXXXXXXXXXXXXXXXXXXXXXXXXXXXXXXXXXXXXXXXXX 6D",
"D6 XXXXXXXXXXXXXXXXXXXXXXXXXXXXXXXXXXXXXXXXXXXXXXXXXXXXXXXXXXXXXXXXXXXXXXXXXXXXXXXXXXXXXXXXXXXXXX 6D",
"D6 XXXXXXXXXXXXXXXXXXXXXXXXXXXXXXXXXXXXXXXXXXXXXXXXXXXXXXXXXXXXXXXXXXXXXXXXXXXXXXXXXXXXXXXXXXXXXX 6D",
"D6 XXXXXXXXXXXXXXXXXXXXXXXXXXXXXXXXXXXXXXXXXXXXXXXXXXXXXXXXXXXXXXXXXXXXXXXXXXXXXXXXXXXXXXXXXXXXXX 6D",
"D6 XXXXXXXXXXXXXXXXXXXXXXXXXXXXXXXXXXXXXXXXXXXXXXXXXXXXXXXXXXXXXXXXXXXXXXXXXXXXXXXXXXXXXXXXXXXXXX 6D",
"D6 XXXXXXXXXXXXXXXXXXXXXXXXXXXXXXXXXXXXXXXXXXXXXXXXXXXXXXXXXXXXXXXXXXXXXXXXXXXXXXXXXXXXXXXXXXXXXX 6D",
"D6 XXXXXXXXXXXXXXXXXXXXXXXXXXXXXXXXXXXXXXXXXXXXXXXXXXXXXXXXXXXXXXXXXXXXXXXXXXXXXXXXXXXXXXXXXXXXXX 6D",
"D6 XXXXXXXXXXXXXXXXXXXXXXXXXXXXXXXXXXXXXXXXXXXXXXXXXXXXXXXXXXXXXXXXXXXXXXXXXXXXXXXXXXXXXXXXXXXXXX 6D",
"D6 XXXXXXXXXXXXXXXXXXXXXXXXXXXXXXXXXXXXXXXXXXXXXXXXXXXXXXXXXXXXXXXXXXXXXXXXXXXXXXXXXXXXXXXXXXXXXX 6D",
"D6 XXXXXXXXXXXXXXXXXXXXXXXXXXXXXXXXXXXXXXXXXXXXXXXXXXXXXXXXXXXXXXXXXXXXXXXXXXXXXXXXXXXXXXXXXXXXXX 6D",
"D6 XXXXXXXXXXXXXXXXXXXXXXXXXXXXXXXXXXXXXXXXXXXXXXXXXXXXXXXXXXXXXXXXXXXXXXXXXXXXXXXXXXXXXXXXXXXXXX 6D",
"D6 XXXXXXXXXXXXXXXXXXXXXXXXXXXXXXXXXXXXXXXXXXXXXXXXXXXXXXXXXXXXXXXXXXXXXXXXXXXXXXXXXXXXXXXXXXXXXX 6D",
"D6 XXXXXXXXXXXXXXXXXXXXXXXXXXXXXXXXXXXXXXXXXXXXXXXXXXXXXXXXXXXXXXXXXXXXXXXXXXXXXXXXXXXXXXXXXXXXXX 6D",
"D6.XXXXXXXXXXXXXXXXXXXXXXXXXXXXXXXXXXXXXXXXXXXXXXXXXXXXXXXXXXXXXXXXXXXXXXXXXXXXXXXXXXXXXXXXXXXXXX 6D",
"D6                                                                                                6D",
"D56666666666666666666666666666666666666666666666666666666666666666666666666666666666666666666666665D",
"DDDDDDDDDDDDDDDDDDDDDDDDDDDDDDDDDDDDDDDDDDDDDDDDDDDDDDDDDDDDDDDDDDDDDDDDDDDDDDDDDDDDDDDDDDDDDDDDDDDD"
};
