/* XPM */
static char *y3[] = {
/* columns rows colors chars-per-pixel */
"100 100 37 1 ",
"  c #686868",
". c #727272",
"X c gray46",
"o c gray47",
"O c #7E7E7E",
"+ c #818181",
"@ c gray52",
"# c gray54",
"$ c gray56",
"% c #929292",
"& c #959595",
"* c #9A9A9A",
"= c gray61",
"- c gray63",
"; c #A7A7A7",
": c #AAAAAA",
"> c #AFAFAF",
", c gray70",
"< c #B6B6B6",
"1 c #B9B9B9",
"2 c gray",
"3 c #C1C1C1",
"4 c #C5C5C5",
"5 c gray79",
"6 c gray80",
"7 c #D0D0D0",
"8 c gray83",
"9 c #DADADA",
"0 c gainsboro",
"q c gray88",
"w c gray90",
"e c gray92",
"r c #EFEFEF",
"t c #F1F1F1",
"y c #F6F6F6",
"u c #F8F8F8",
"i c white",
/* pixels */
"iiiiiiiiiiiiiiiiiiiiiiiiiiiiiiiiiiiiiiiiiiiiiiiiiiiiiiiiiiiiiiiiiiiiiiiiiiiiiiiiiiiiiiiiiiiiiiiiiiii",
"i>,,,,,,,,,,,,,,,,,,,,,,,,,,,,,,,,,,,,,,,,,,,,,,,,,,,,,,,,,,,,,,,,,,,,,,,,,,,,,,,,,,,,,,,,,,,,,,,,>i",
"i,                                                                                                ,i",
"i, .............................................................................................. ,i",
"i, .............................................................................................. ,i",
"i, .............................................................................................. ,i",
"i, .............................................................................................. ,i",
"i, .............................................................................................. ,i",
"i, .............................................................................................. ,i",
"i, .............................................................................................. ,i",
"i, .............................................................................................. ,i",
"i, .............................................................................................. ,i",
"i, .............................................................................................. ,i",
"i, .............................................................................................. ,i",
"i, .............................................................................................. ,i",
"i, .............................................................................................. ,i",
"i, .............................................................................................. ,i",
"i, .............................................................................................. ,i",
"i, .............................................................................................. ,i",
"i, .............................................................................................. ,i",
"i, .........................;iiiiiiii%..........................@uiiiiiii3....................... ,i",
"i, ..........................qiiiiiii0..........................7iiiiiiitX....................... ,i",
"i, ..........................%iiiiiiii=........................$iiiiiiii:........................ ,i",
"i, ...........................7iiiiiiiw........................9iiiiiiiq......................... ,i",
"i, ...........................+uiiiiiii:......................*iiiiiiii&......................... ,i",
"i, ............................2iiiiiiir......................qiiiiiii7.......................... ,i",
"i, ............................Xriiiiiii<....................;iiiiiiiu+.......................... ,i",
"i, .............................:iiiiiiito...................eiiiiiii3........................... ,i",
"i, ..............................qiiiiiii3..................,iiiiiiitX........................... ,i",
"i, ..............................&iiiiiiiuO................Xtiiiiiii:............................ ,i",
"i, ...............................7iiiiiii6................2iiiiiiiq............................. ,i",
"i, ...............................+uiiiiiiu#..............Oyiiiiiii&............................. ,i",
"i, ................................3iiiiiii8..............5iiiiiii7.............................. ,i",
"i, ................................Xtiiiiiii&............@uiiiiiiu+.............................. ,i",
"i, .................................>iiiiiii0............7iiiiiii2............................... ,i",
"i, ..................................qiiiiiii-..........%iiiiiiirX............................... ,i",
"i, ..................................&iiiiiiie..........0iiiiiii:................................ ,i",
"i, ...................................8iiiiiii>........=iiiiiiiq................................. ,i",
"i, ...................................@uiiiiiirX.......wiiiiiii&................................. ,i",
"i, ....................................3iiiiiii1......:iiiiiii7.................................. ,i",
"i, ....................................Xtiiiiiiyo.....riiiiiiu+.................................. ,i",
"i, .....................................>iiiiiii4....<iiiiiii2................................... ,i",
"i, ......................................wiiiiiiu+..otiiiiiirX................................... ,i",
"i, ......................................*iiiiiii6..3iiiiiii:.................................... ,i",
"i, .......................................8iiiiiii$Oyiiiiiiq..................................... ,i",
"i, .......................................@uiiiiii95iiiiiii&..................................... ,i",
"i, ........................................4iiiiiiiiiiiiii7...................................... ,i",
"i, ........................................otiiiiiiiiiiiiu+...................................... ,i",
"i, .........................................,iiiiiiiiiiii2....................................... ,i",
"i, ..........................................wiiiiiiiiiirX....................................... ,i",
"i, ..........................................=iiiiiiiiii:........................................ ,i",
"i, ...........................................9iiiiiiiiq......................................... ,i",
"i, ...........................................#iiiiiiii&......................................... ,i",
"i, ............................................uiiiiiiiX......................................... ,i",
"i, ............................................uiiiiiiiX......................................... ,i",
"i, ............................................uiiiiiiiX......................................... ,i",
"i, ............................................uiiiiiiiX......................................... ,i",
"i, ............................................uiiiiiiiX......................................... ,i",
"i, ............................................uiiiiiiiX......................................... ,i",
"i, ............................................uiiiiiiiX......................................... ,i",
"i, ............................................uiiiiiiiX......................................... ,i",
"i, ............................................uiiiiiiiX......................................... ,i",
"i, ............................................uiiiiiiiX......................................... ,i",
"i, ............................................uiiiiiiiX......................................... ,i",
"i, ............................................uiiiiiiiX......................................... ,i",
"i, ............................................uiiiiiiiX......................................... ,i",
"i, ............................................uiiiiiiiX......................................... ,i",
"i, ............................................uiiiiiiiX......................................... ,i",
"i, ............................................uiiiiiiiX......................................... ,i",
"i, ............................................uiiiiiiiX......................................... ,i",
"i, ............................................uiiiiiiiX......................................... ,i",
"i, ............................................uiiiiiiiX......................................... ,i",
"i, ............................................uiiiiiiiX......................................... ,i",
"i, ............................................uiiiiiiiX......................................... ,i",
"i, ............................................uiiiiiiiX......................................... ,i",
"i, ............................................uiiiiiiiX......................................... ,i",
"i, ............................................uiiiiiiiX......................................... ,i",
"i, ............................................uiiiiiiiX......................................... ,i",
"i, ............................................uiiiiiiiX......................................... ,i",
"i, .............................................................................................. ,i",
"i, .............................................................................................. ,i",
"i, .............................................................................................. ,i",
"i, .............................................................................................. ,i",
"i, .............................................................................................. ,i",
"i, .............................................................................................. ,i",
"i, .............................................................................................. ,i",
"i, .............................................................................................. ,i",
"i, .............................................................................................. ,i",
"i, .............................................................................................. ,i",
"i, .............................................................................................. ,i",
"i, .............................................................................................. ,i",
"i, .............................................................................................. ,i",
"i, .............................................................................................. ,i",
"i, .............................................................................................. ,i",
"i, .............................................................................................. ,i",
"i, .............................................................................................. ,i",
"i,O.............................................................................................. ,i",
"i,                                                                                                ,i",
"i>,,,,,,,,,,,,,,,,,,,,,,,,,,,,,,,,,,,,,,,,,,,,,,,,,,,,,,,,,,,,,,,,,,,,,,,,,,,,,,,,,,,,,,,,,,,,,,,,>i",
"iiiiiiiiiiiiiiiiiiiiiiiiiiiiiiiiiiiiiiiiiiiiiiiiiiiiiiiiiiiiiiiiiiiiiiiiiiiiiiiiiiiiiiiiiiiiiiiiiiii"
};
