/* XPM */
static char *z[] = {
/* columns rows colors chars-per-pixel */
"100 100 63 1 ",
"  c #2E0000",
". c #310D0D",
"X c #371C1C",
"o c #3A2222",
"O c #443232",
"+ c #463535",
"@ c #483838",
"# c #4E4040",
"$ c #504242",
"% c #524545",
"& c #544747",
"* c #564949",
"= c #625858",
"- c #645A5A",
"; c #665D5D",
": c #685F5F",
"> c #6A6262",
", c #6C6363",
"< c #686868",
"1 c #726A6A",
"2 c #746D6D",
"3 c #7E7878",
"4 c #7C7C7C",
"5 c #817A7A",
"6 c #837E7E",
"7 c #857F7F",
"8 c #868080",
"9 c #8F8A8A",
"0 c #918C8C",
"q c #989494",
"w c #9E9B9B",
"e c #A29E9E",
"r c #AAA7A7",
"t c #ABA8A8",
"y c #ADAAAA",
"u c #AFAFAF",
"i c gray70",
"p c #B6B3B3",
"a c #B6B4B4",
"s c #B9B6B6",
"d c #BAB8B8",
"f c #C3C0C0",
"g c #C4C2C2",
"h c #C6C4C4",
"j c #C9C7C7",
"k c #CAC8C8",
"l c #CDCBCB",
"z c #CECDCD",
"x c #D0CECE",
"c c #D2D0D0",
"v c #D8D7D7",
"b c #DBDADA",
"n c #DCDBDB",
"m c #E2E1E1",
"M c #EAE9E9",
"N c #EFEEEE",
"B c #F0EFEF",
"V c #F3F2F2",
"C c #F4F3F3",
"Z c gray96",
"A c #FBFBFB",
"S c #FCFBFB",
"D c white",
/* pixels */
"DDDDDDDDDDDDDDDDDDDDDDDDDDDDDDDDDDDDDDDDDDDDDDDDDDDDDDDDDDDDDDDDDDDDDDDDDDDDDDDDDDDDDDDDDDDDDDDDDDDD",
"DuiiiiiiiiiiiiiiiiiiiiiiiiiiiiiiiiiiiiiiiiiiiiiiiiiiiiiiiiiiiiiiiiiiiiiiiiiiiiiiiiiiiiiiiiiiiiiiiiuD",
"Di<<<<<<<<<<<<<<<<<<<<<<<<<<<<<<<<<<<<<<<<<<<<<<<<<<<<<<<<<<<<<<<<<<<<<<<<<<<<<<<<<<<<<<<<<<<<<<<<iD",
"Di<DDDDDDDDDDDDDDDDDDDDDDDDDDDDDDDDDDDDDDDDDDDDDDDDDDDDDDDDDDDDDDDDDDDDDDDDDDDDDDDDDDDDDDDDDDDDDD<iD",
"Di<DDDDDDDDDDDDDDDDDDDDDDDDDDDDDDDDDDDDDDDDDDDDDDDDDDDDDDDDDDDDDDDDDDDDDDDDDDDDDDDDDDDDDDDDDDDDDD<iD",
"Di<DDDDDDDDDDDDDDDDDDDDDDDDDDDDDDDDDDDDDDDDDDDDDDDDDDDDDDDDDDDDDDDDDDDDDDDDDDDDDDDDDDDDDDDDDDDDDD<iD",
"Di<DDDDDDDDDDDDDDDDDDDDDDDDDDDDDDDDDDDDDDDDDDDDDDDDDDDDDDDDDDDDDDDDDDDDDDDDDDDDDDDDDDDDDDDDDDDDDD<iD",
"Di<DDDDDDDDDDDDDDDDDDDDDDDDDDDDDDDDDDDDDDDDDDDDDDDDDDDDDDDDDDDDDDDDDDDDDDDDDDDDDDDDDDDDDDDDDDDDDD<iD",
"Di<DDDDDDDDDDDDDDDDDDDDDDDDDDDDDDDDDDDDDDDDDDDDDDDDDDDDDDDDDDDDDDDDDDDDDDDDDDDDDDDDDDDDDDDDDDDDDD<iD",
"Di<DDDDDDDDDDDDDDDDDDDDDDDDDDDDDDDDDDDDDDDDDDDDDDDDDDDDDDDDDDDDDDDDDDDDDDDDDDDDDDDDDDDDDDDDDDDDDD<iD",
"Di<DDDDDDDDDDDDDDDDDDDDDDDDDDDDDDDDDDDDDDDDDDDDDDDDDDDDDDDDDDDDDDDDDDDDDDDDDDDDDDDDDDDDDDDDDDDDDD<iD",
"Di<DDDDDDDDDDDDDDDDDDDDDDDDDDDDDDDDDDDDDDDDDDDDDDDDDDDDDDDDDDDDDDDDDDDDDDDDDDDDDDDDDDDDDDDDDDDDDD<iD",
"Di<DDDDDDDDDDDDDDDDDDDDDDDDDDDDDDDDDDDDDDDDDDDDDDDDDDDDDDDDDDDDDDDDDDDDDDDDDDDDDDDDDDDDDDDDDDDDDD<iD",
"Di<DDDDDDDDDDDDDDDDDDDDDDDDDDDDDDDDDDDDDDDDDDDDDDDDDDDDDDDDDDDDDDDDDDDDDDDDDDDDDDDDDDDDDDDDDDDDDD<iD",
"Di<DDDDDDDDDDDDDDDDDDDDDDDDDDDDDDDDDDDDDDDDDDDDDDDDDDDDDDDDDDDDDDDDDDDDDDDDDDDDDDDDDDDDDDDDDDDDDD<iD",
"Di<DDDDDDDDDDDDDDDDDDDDDDDDDDDDDDDDDDDDDDDDDDDDDDDDDDDDDDDDDDDDDDDDDDDDDDDDDDDDDDDDDDDDDDDDDDDDDD<iD",
"Di<DDDDDDDDDDDDDDDDDDDDDDDDDDDDDDDDDDDDDDDDDDDDDDDDDDDDDDDDDDDDDDDDDDDDDDDDDDDDDDDDDDDDDDDDDDDDDD<iD",
"Di<DDDDDDDDDDDDDDDDDDDDDDDDDDDDDDDDDDDDDDDDDDDDDDDDDDDDDDDDDDDDDDDDDDDDDDDDDDDDDDDDDDDDDDDDDDDDDD<iD",
"Di<DDDDDDDDDDDDDDDDDDDDDDDDDDDDDDDDDDDDDDDDDDDDDDDDDDDDDDDDDDDDDDDDDDDDDDDDDDDDDDDDDDDDDDDDDDDDDD<iD",
"Di<DDDDDDDDDDDDDDDDDDDDDDDDDDDDDDDDDDDDDDDDDDDDDDDDDDDDDDDDDDDDDDDDDDDDDDDDDDDDDDDDDDDDDDDDDDDDDD<iD",
"Di<DDDDDDDDDDDDDDDDDDDDDDDDDDDDD2                                     DDDDDDDDDDDDDDDDDDDDDDDDDDD<iD",
"Di<DDDDDDDDDDDDDDDDDDDDDDDDDDDDD2                                     DDDDDDDDDDDDDDDDDDDDDDDDDDD<iD",
"Di<DDDDDDDDDDDDDDDDDDDDDDDDDDDDD2                                     DDDDDDDDDDDDDDDDDDDDDDDDDDD<iD",
"Di<DDDDDDDDDDDDDDDDDDDDDDDDDDDDD2                                     DDDDDDDDDDDDDDDDDDDDDDDDDDD<iD",
"Di<DDDDDDDDDDDDDDDDDDDDDDDDDDDDD2                                     DDDDDDDDDDDDDDDDDDDDDDDDDDD<iD",
"Di<DDDDDDDDDDDDDDDDDDDDDDDDDDDDD2                                    %DDDDDDDDDDDDDDDDDDDDDDDDDDD<iD",
"Di<DDDDDDDDDDDDDDDDDDDDDDDDDDDDDZVVVVVVVVVVVVVVVVVVVVVVVVVVVl        lDDDDDDDDDDDDDDDDDDDDDDDDDDD<iD",
"Di<DDDDDDDDDDDDDDDDDDDDDDDDDDDDDDDDDDDDDDDDDDDDDDDDDDDDDDDDA,       9DDDDDDDDDDDDDDDDDDDDDDDDDDDD<iD",
"Di<DDDDDDDDDDDDDDDDDDDDDDDDDDDDDDDDDDDDDDDDDDDDDDDDDDDDDDDDa       ONDDDDDDDDDDDDDDDDDDDDDDDDDDDD<iD",
"Di<DDDDDDDDDDDDDDDDDDDDDDDDDDDDDDDDDDDDDDDDDDDDDDDDDDDDDDDMo       fDDDDDDDDDDDDDDDDDDDDDDDDDDDDD<iD",
"Di<DDDDDDDDDDDDDDDDDDDDDDDDDDDDDDDDDDDDDDDDDDDDDDDDDDDDDDD8       3DDDDDDDDDDDDDDDDDDDDDDDDDDDDDD<iD",
"Di<DDDDDDDDDDDDDDDDDDDDDDDDDDDDDDDDDDDDDDDDDDDDDDDDDDDDDDk       XMDDDDDDDDDDDDDDDDDDDDDDDDDDDDDD<iD",
"Di<DDDDDDDDDDDDDDDDDDDDDDDDDDDDDDDDDDDDDDDDDDDDDDDDDDDDDC$       aDDDDDDDDDDDDDDDDDDDDDDDDDDDDDDD<iD",
"Di<DDDDDDDDDDDDDDDDDDDDDDDDDDDDDDDDDDDDDDDDDDDDDDDDDDDDDw       1ADDDDDDDDDDDDDDDDDDDDDDDDDDDDDDD<iD",
"Di<DDDDDDDDDDDDDDDDDDDDDDDDDDDDDDDDDDDDDDDDDDDDDDDDDDDDn        mDDDDDDDDDDDDDDDDDDDDDDDDDDDDDDDD<iD",
"Di<DDDDDDDDDDDDDDDDDDDDDDDDDDDDDDDDDDDDDDDDDDDDDDDDDDDA>       tDDDDDDDDDDDDDDDDDDDDDDDDDDDDDDDDD<iD",
"Di<DDDDDDDDDDDDDDDDDDDDDDDDDDDDDDDDDDDDDDDDDDDDDDDDDDDp       =ADDDDDDDDDDDDDDDDDDDDDDDDDDDDDDDDD<iD",
"Di<DDDDDDDDDDDDDDDDDDDDDDDDDDDDDDDDDDDDDDDDDDDDDDDDDDMo       vDDDDDDDDDDDDDDDDDDDDDDDDDDDDDDDDDD<iD",
"Di<DDDDDDDDDDDDDDDDDDDDDDDDDDDDDDDDDDDDDDDDDDDDDDDDDD7       wDDDDDDDDDDDDDDDDDDDDDDDDDDDDDDDDDDD<iD",
"Di<DDDDDDDDDDDDDDDDDDDDDDDDDDDDDDDDDDDDDDDDDDDDDDDDDk       &ZDDDDDDDDDDDDDDDDDDDDDDDDDDDDDDDDDDD<iD",
"Di<DDDDDDDDDDDDDDDDDDDDDDDDDDDDDDDDDDDDDDDDDDDDDDDDC$       zDDDDDDDDDDDDDDDDDDDDDDDDDDDDDDDDDDDD<iD",
"Di<DDDDDDDDDDDDDDDDDDDDDDDDDDDDDDDDDDDDDDDDDDDDDDDDw       9DDDDDDDDDDDDDDDDDDDDDDDDDDDDDDDDDDDDD<iD",
"Di<DDDDDDDDDDDDDDDDDDDDDDDDDDDDDDDDDDDDDDDDDDDDDDDb       +NDDDDDDDDDDDDDDDDDDDDDDDDDDDDDDDDDDDDD<iD",
"Di<DDDDDDDDDDDDDDDDDDDDDDDDDDDDDDDDDDDDDDDDDDDDDDA>       gDDDDDDDDDDDDDDDDDDDDDDDDDDDDDDDDDDDDDD<iD",
"Di<DDDDDDDDDDDDDDDDDDDDDDDDDDDDDDDDDDDDDDDDDDDDDDp       5DDDDDDDDDDDDDDDDDDDDDDDDDDDDDDDDDDDDDDD<iD",
"Di<DDDDDDDDDDDDDDDDDDDDDDDDDDDDDDDDDDDDDDDDDDDDDMX      oMDDDDDDDDDDDDDDDDDDDDDDDDDDDDDDDDDDDDDDD<iD",
"Di<DDDDDDDDDDDDDDDDDDDDDDDDDDDDDDDDDDDDDDDDDDDDD6       sDDDDDDDDDDDDDDDDDDDDDDDDDDDDDDDDDDDDDDDD<iD",
"Di<DDDDDDDDDDDDDDDDDDDDDDDDDDDDDDDDDDDDDDDDDDDDj       1SDDDDDDDDDDDDDDDDDDDDDDDDDDDDDDDDDDDDDDDD<iD",
"Di<DDDDDDDDDDDDDDDDDDDDDDDDDDDDDDDDDDDDDDDDDDDC$      .mDDDDDDDDDDDDDDDDDDDDDDDDDDDDDDDDDDDDDDDDD<iD",
"Di<DDDDDDDDDDDDDDDDDDDDDDDDDDDDDDDDDDDDDDDDDDDw       yDDDDDDDDDDDDDDDDDDDDDDDDDDDDDDDDDDDDDDDDDD<iD",
"Di<DDDDDDDDDDDDDDDDDDDDDDDDDDDDDDDDDDDDDDDDDDb       -ADDDDDDDDDDDDDDDDDDDDDDDDDDDDDDDDDDDDDDDDDD<iD",
"Di<DDDDDDDDDDDDDDDDDDDDDDDDDDDDDDDDDDDDDDDDDA>       bDDDDDDDDDDDDDDDDDDDDDDDDDDDDDDDDDDDDDDDDDDD<iD",
"Di<DDDDDDDDDDDDDDDDDDDDDDDDDDDDDDDDDDDDDDDDDp       wDDDDDDDDDDDDDDDDDDDDDDDDDDDDDDDDDDDDDDDDDDDD<iD",
"Di<DDDDDDDDDDDDDDDDDDDDDDDDDDDDDDDDDDDDDDDDMX      *ZDDDDDDDDDDDDDDDDDDDDDDDDDDDDDDDDDDDDDDDDDDDD<iD",
"Di<DDDDDDDDDDDDDDDDDDDDDDDDDDDDDDDDDDDDDDDD6       xDDDDDDDDDDDDDDDDDDDDDDDDDDDDDDDDDDDDDDDDDDDDD<iD",
"Di<DDDDDDDDDDDDDDDDDDDDDDDDDDDDDDDDDDDDDDDj       0DDDDDDDDDDDDDDDDDDDDDDDDDDDDDDDDDDDDDDDDDDDDDD<iD",
"Di<DDDDDDDDDDDDDDDDDDDDDDDDDDDDDDDDDDDDDDV#      @BDDDDDDDDDDDDDDDDDDDDDDDDDDDDDDDDDDDDDDDDDDDDDD<iD",
"Di<DDDDDDDDDDDDDDDDDDDDDDDDDDDDDDDDDDDDDDw       hDDDDDDDDDDDDDDDDDDDDDDDDDDDDDDDDDDDDDDDDDDDDDDD<iD",
"Di<DDDDDDDDDDDDDDDDDDDDDDDDDDDDDDDDDDDDDb       6DDDDDDDDDDDDDDDDDDDDDDDDDDDDDDDDDDDDDDDDDDDDDDDD<iD",
"Di<DDDDDDDDDDDDDDDDDDDDDDDDDDDDDDDDDDDDA>      oMDDDDDDDDDDDDDDDDDDDDDDDDDDDDDDDDDDDDDDDDDDDDDDDD<iD",
"Di<DDDDDDDDDDDDDDDDDDDDDDDDDDDDDDDDDDDDp       dDDDDDDDDDDDDDDDDDDDDDDDDDDDDDDDDDDDDDDDDDDDDDDDDD<iD",
"Di<DDDDDDDDDDDDDDDDDDDDDDDDDDDDDDDDDDDMX      2DDDDDDDDDDDDDDDDDDDDDDDDDDDDDDDDDDDDDDDDDDDDDDDDDD<iD",
"Di<DDDDDDDDDDDDDDDDDDDDDDDDDDDDDDDDDDD6      .mDDDDDDDDDDDDDDDDDDDDDDDDDDDDDDDDDDDDDDDDDDDDDDDDDD<iD",
"Di<DDDDDDDDDDDDDDDDDDDDDDDDDDDDDDDDDDj       uDDDDDDDDDDDDDDDDDDDDDDDDDDDDDDDDDDDDDDDDDDDDDDDDDDD<iD",
"Di<DDDDDDDDDDDDDDDDDDDDDDDDDDDDDDDDDV#      ;ADDDDDDDDDDDDDDDDDDDDDDDDDDDDDDDDDDDDDDDDDDDDDDDDDDD<iD",
"Di<DDDDDDDDDDDDDDDDDDDDDDDDDDDDDDDDDw       bDDDDDDDDDDDDDDDDDDDDDDDDDDDDDDDDDDDDDDDDDDDDDDDDDDDD<iD",
"Di<DDDDDDDDDDDDDDDDDDDDDDDDDDDDDDDDb       eDDDDDDDDDDDDDDDDDDDDDDDDDDDDDDDDDDDDDDDDDDDDDDDDDDDDD<iD",
"Di<DDDDDDDDDDDDDDDDDDDDDDDDDDDDDDDA:      *ZDDDDDDDDDDDDDDDDDDDDDDDDDDDDDDDDDDDDDDDDDDDDDDDDDDDDD<iD",
"Di<DDDDDDDDDDDDDDDDDDDDDDDDDDDDDDDp       cDDDDDDDDDDDDDDDDDDDDDDDDDDDDDDDDDDDDDDDDDDDDDDDDDDDDDD<iD",
"Di<DDDDDDDDDDDDDDDDDDDDDDDDDDDDDDMX      0DDDDDDDDDDDDDDDDDDDDDDDDDDDDDDDDDDDDDDDDDDDDDDDDDDDDDDD<iD",
"Di<DDDDDDDDDDDDDDDDDDDDDDDDDDDDDD6      @VDDDDDDDDDDDDDDDDDDDDDDDDDDDDDDDDDDDDDDDDDDDDDDDDDDDDDDD<iD",
"Di<DDDDDDDDDDDDDDDDDDDDDDDDDDDDDj       hDDDDDDDDDDDDDDDDDDDDDDDDDDDDDDDDDDDDDDDDDDDDDDDDDDDDDDDD<iD",
"Di<DDDDDDDDDDDDDDDDDDDDDDDDDDDDV#      2VVVVVVVVVVVVVVVVVVVVVVVVVVVVVVZDDDDDDDDDDDDDDDDDDDDDDDDDD<iD",
"Di<DDDDDDDDDDDDDDDDDDDDDDDDDDDDr                                      >DDDDDDDDDDDDDDDDDDDDDDDDDD<iD",
"Di<DDDDDDDDDDDDDDDDDDDDDDDDDDDDq                                      >DDDDDDDDDDDDDDDDDDDDDDDDDD<iD",
"Di<DDDDDDDDDDDDDDDDDDDDDDDDDDDDq                                      >DDDDDDDDDDDDDDDDDDDDDDDDDD<iD",
"Di<DDDDDDDDDDDDDDDDDDDDDDDDDDDDq                                      >DDDDDDDDDDDDDDDDDDDDDDDDDD<iD",
"Di<DDDDDDDDDDDDDDDDDDDDDDDDDDDDq                                      >DDDDDDDDDDDDDDDDDDDDDDDDDD<iD",
"Di<DDDDDDDDDDDDDDDDDDDDDDDDDDDDq                                      >DDDDDDDDDDDDDDDDDDDDDDDDDD<iD",
"Di<DDDDDDDDDDDDDDDDDDDDDDDDDDDDDDDDDDDDDDDDDDDDDDDDDDDDDDDDDDDDDDDDDDDDDDDDDDDDDDDDDDDDDDDDDDDDDD<iD",
"Di<DDDDDDDDDDDDDDDDDDDDDDDDDDDDDDDDDDDDDDDDDDDDDDDDDDDDDDDDDDDDDDDDDDDDDDDDDDDDDDDDDDDDDDDDDDDDDD<iD",
"Di<DDDDDDDDDDDDDDDDDDDDDDDDDDDDDDDDDDDDDDDDDDDDDDDDDDDDDDDDDDDDDDDDDDDDDDDDDDDDDDDDDDDDDDDDDDDDDD<iD",
"Di<DDDDDDDDDDDDDDDDDDDDDDDDDDDDDDDDDDDDDDDDDDDDDDDDDDDDDDDDDDDDDDDDDDDDDDDDDDDDDDDDDDDDDDDDDDDDDD<iD",
"Di<DDDDDDDDDDDDDDDDDDDDDDDDDDDDDDDDDDDDDDDDDDDDDDDDDDDDDDDDDDDDDDDDDDDDDDDDDDDDDDDDDDDDDDDDDDDDDD<iD",
"Di<DDDDDDDDDDDDDDDDDDDDDDDDDDDDDDDDDDDDDDDDDDDDDDDDDDDDDDDDDDDDDDDDDDDDDDDDDDDDDDDDDDDDDDDDDDDDDD<iD",
"Di<DDDDDDDDDDDDDDDDDDDDDDDDDDDDDDDDDDDDDDDDDDDDDDDDDDDDDDDDDDDDDDDDDDDDDDDDDDDDDDDDDDDDDDDDDDDDDD<iD",
"Di<DDDDDDDDDDDDDDDDDDDDDDDDDDDDDDDDDDDDDDDDDDDDDDDDDDDDDDDDDDDDDDDDDDDDDDDDDDDDDDDDDDDDDDDDDDDDDD<iD",
"Di<DDDDDDDDDDDDDDDDDDDDDDDDDDDDDDDDDDDDDDDDDDDDDDDDDDDDDDDDDDDDDDDDDDDDDDDDDDDDDDDDDDDDDDDDDDDDDD<iD",
"Di<DDDDDDDDDDDDDDDDDDDDDDDDDDDDDDDDDDDDDDDDDDDDDDDDDDDDDDDDDDDDDDDDDDDDDDDDDDDDDDDDDDDDDDDDDDDDDD<iD",
"Di<DDDDDDDDDDDDDDDDDDDDDDDDDDDDDDDDDDDDDDDDDDDDDDDDDDDDDDDDDDDDDDDDDDDDDDDDDDDDDDDDDDDDDDDDDDDDDD<iD",
"Di<DDDDDDDDDDDDDDDDDDDDDDDDDDDDDDDDDDDDDDDDDDDDDDDDDDDDDDDDDDDDDDDDDDDDDDDDDDDDDDDDDDDDDDDDDDDDDD<iD",
"Di<DDDDDDDDDDDDDDDDDDDDDDDDDDDDDDDDDDDDDDDDDDDDDDDDDDDDDDDDDDDDDDDDDDDDDDDDDDDDDDDDDDDDDDDDDDDDDD<iD",
"Di<DDDDDDDDDDDDDDDDDDDDDDDDDDDDDDDDDDDDDDDDDDDDDDDDDDDDDDDDDDDDDDDDDDDDDDDDDDDDDDDDDDDDDDDDDDDDDD<iD",
"Di<DDDDDDDDDDDDDDDDDDDDDDDDDDDDDDDDDDDDDDDDDDDDDDDDDDDDDDDDDDDDDDDDDDDDDDDDDDDDDDDDDDDDDDDDDDDDDD<iD",
"Di<DDDDDDDDDDDDDDDDDDDDDDDDDDDDDDDDDDDDDDDDDDDDDDDDDDDDDDDDDDDDDDDDDDDDDDDDDDDDDDDDDDDDDDDDDDDDDD<iD",
"Di<DDDDDDDDDDDDDDDDDDDDDDDDDDDDDDDDDDDDDDDDDDDDDDDDDDDDDDDDDDDDDDDDDDDDDDDDDDDDDDDDDDDDDDDDDDDDDD<iD",
"Di4DDDDDDDDDDDDDDDDDDDDDDDDDDDDDDDDDDDDDDDDDDDDDDDDDDDDDDDDDDDDDDDDDDDDDDDDDDDDDDDDDDDDDDDDDDDDDD<iD",
"Di<<<<<<<<<<<<<<<<<<<<<<<<<<<<<<<<<<<<<<<<<<<<<<<<<<<<<<<<<<<<<<<<<<<<<<<<<<<<<<<<<<<<<<<<<<<<<<<<iD",
"DuiiiiiiiiiiiiiiiiiiiiiiiiiiiiiiiiiiiiiiiiiiiiiiiiiiiiiiiiiiiiiiiiiiiiiiiiiiiiiiiiiiiiiiiiiiiiiiiiuD",
"DDDDDDDDDDDDDDDDDDDDDDDDDDDDDDDDDDDDDDDDDDDDDDDDDDDDDDDDDDDDDDDDDDDDDDDDDDDDDDDDDDDDDDDDDDDDDDDDDDDD"
};
