/* XPM */
static char *z1[] = {
/* columns rows colors chars-per-pixel */
"100 100 69 1 ",
"  c #686868",
". c #7C7C7C",
"X c #348032",
"o c #378135",
"O c #3A8238",
"+ c #3C823B",
"@ c #3F833D",
"# c #468644",
"$ c #488747",
"% c #4A8749",
"& c #4C884B",
"* c #4E894D",
"= c #508A4F",
"- c #538B52",
"; c #578D56",
": c #60915F",
"> c #629261",
", c #659364",
"< c #669465",
"1 c #699568",
"2 c #6E986D",
"3 c #739B72",
"4 c #749B73",
"5 c #7FA27E",
"6 c #81A381",
"7 c #82A482",
"8 c #8FAB8E",
"9 c #90AD90",
"0 c #99B299",
"q c #9BB49B",
"w c #9FB69E",
"e c #AFAFAF",
"r c #A8BCA7",
"t c #AABEAA",
"y c #ACBFAC",
"u c gray70",
"i c #AEC0AD",
"p c #B1C3B1",
"a c #B2C4B2",
"s c #B4C5B3",
"d c #B6C7B6",
"f c #B8C8B7",
"g c #BAC9B9",
"h c #C2CFC2",
"j c #C3D0C3",
"k c #C5D2C5",
"l c #C8D4C8",
"z c #CCD7CC",
"x c #CFD9CE",
"c c #D0DAD0",
"v c #D6DED6",
"b c #D7E0D7",
"n c #D8E0D8",
"m c #DCE3DC",
"M c #DFE6DF",
"N c #E1E7E1",
"B c #E2E8E2",
"V c #E6EBE6",
"C c #E7ECE7",
"Z c #E8ECE7",
"A c #E8EDE8",
"S c #EEF1EE",
"D c #F0F3EF",
"F c #F1F4F1",
"G c #F4F6F4",
"H c #F7F9F7",
"J c #F9FAF9",
"K c #FBFCFB",
"L c white",
/* pixels */
"LLLLLLLLLLLLLLLLLLLLLLLLLLLLLLLLLLLLLLLLLLLLLLLLLLLLLLLLLLLLLLLLLLLLLLLLLLLLLLLLLLLLLLLLLLLLLLLLLLLL",
"LeuuuuuuuuuuuuuuuuuuuuuuuuuuuuuuuuuuuuuuuuuuuuuuuuuuuuuuuuuuuuuuuuuuuuuuuuuuuuuuuuuuuuuuuuuuuuuuuueL",
"Lu                                                                                                uL",
"Lu XXXXXXXXXXXXXXXXXXXXXXXXXXXXXXXXXXXXXXXXXXXXXXXXXXXXXXXXXXXXXXXXXXXXXXXXXXXXXXXXXXXXXXXXXXXXXX uL",
"Lu XXXXXXXXXXXXXXXXXXXXXXXXXXXXXXXXXXXXXXXXXXXXXXXXXXXXXXXXXXXXXXXXXXXXXXXXXXXXXXXXXXXXXXXXXXXXXX uL",
"Lu XXXXXXXXXXXXXXXXXXXXXXXXXXXXXXXXXXXXXXXXXXXXXXXXXXXXXXXXXXXXXXXXXXXXXXXXXXXXXXXXXXXXXXXXXXXXXX uL",
"Lu XXXXXXXXXXXXXXXXXXXXXXXXXXXXXXXXXXXXXXXXXXXXXXXXXXXXXXXXXXXXXXXXXXXXXXXXXXXXXXXXXXXXXXXXXXXXXX uL",
"Lu XXXXXXXXXXXXXXXXXXXXXXXXXXXXXXXXXXXXXXXXXXXXXXXXXXXXXXXXXXXXXXXXXXXXXXXXXXXXXXXXXXXXXXXXXXXXXX uL",
"Lu XXXXXXXXXXXXXXXXXXXXXXXXXXXXXXXXXXXXXXXXXXXXXXXXXXXXXXXXXXXXXXXXXXXXXXXXXXXXXXXXXXXXXXXXXXXXXX uL",
"Lu XXXXXXXXXXXXXXXXXXXXXXXXXXXXXXXXXXXXXXXXXXXXXXXXXXXXXXXXXXXXXXXXXXXXXXXXXXXXXXXXXXXXXXXXXXXXXX uL",
"Lu XXXXXXXXXXXXXXXXXXXXXXXXXXXXXXXXXXXXXXXXXXXXXXXXXXXXXXXXXXXXXXXXXXXXXXXXXXXXXXXXXXXXXXXXXXXXXX uL",
"Lu XXXXXXXXXXXXXXXXXXXXXXXXXXXXXXXXXXXXXXXXXXXXXXXXXXXXXXXXXXXXXXXXXXXXXXXXXXXXXXXXXXXXXXXXXXXXXX uL",
"Lu XXXXXXXXXXXXXXXXXXXXXXXXXXXXXXXXXXXXXXXXXXXXXXXXXXXXXXXXXXXXXXXXXXXXXXXXXXXXXXXXXXXXXXXXXXXXXX uL",
"Lu XXXXXXXXXXXXXXXXXXXXXXXXXXXXXXXXXXXXXXXXXXXXXXXXXXXXXXXXXXXXXXXXXXXXXXXXXXXXXXXXXXXXXXXXXXXXXX uL",
"Lu XXXXXXXXXXXXXXXXXXXXXXXXXXXXXXXXXXXXXXXXXXXXXXXXXXXXXXXXXXXXXXXXXXXXXXXXXXXXXXXXXXXXXXXXXXXXXX uL",
"Lu XXXXXXXXXXXXXXXXXXXXXXXXXXXXXXXXXXXXXXXXXXXXXXXXXXXXXXXXXXXXXXXXXXXXXXXXXXXXXXXXXXXXXXXXXXXXXX uL",
"Lu XXXXXXXXXXXXXXXXXXXXXXXXXXXXXXXXXXXXXXXXXXXXXXXXXXXXXXXXXXXXXXXXXXXXXXXXXXXXXXXXXXXXXXXXXXXXXX uL",
"Lu XXXXXXXXXXXXXXXXXXXXXXXXXXXXXXXXXXXXXXXXXXXXXXXXXXXXXXXXXXXXXXXXXXXXXXXXXXXXXXXXXXXXXXXXXXXXXX uL",
"Lu XXXXXXXXXXXXXXXXXXXXXXXXXXXXXXXXXXXXXXXXXXXXXXXXXXXXXXXXXXXXXXXXXXXXXXXXXXXXXXXXXXXXXXXXXXXXXX uL",
"Lu XXXXXXXXXXXXXXXXXXXXXXXXXXXXXXXXXXXXXXXXXXXXXXXXXXXXXXXXXXXXXXXXXXXXXXXXXXXXXXXXXXXXXXXXXXXXXX uL",
"Lu XXXXXXXXXXXXXXXXXXXXXXXXXXXXXSLLLLLLLLLLLLLLLLLLLLLLLLLLLLLLLLLLLLL@XXXXXXXXXXXXXXXXXXXXXXXXXX uL",
"Lu XXXXXXXXXXXXXXXXXXXXXXXXXXXXXSLLLLLLLLLLLLLLLLLLLLLLLLLLLLLLLLLLLLL@XXXXXXXXXXXXXXXXXXXXXXXXXX uL",
"Lu XXXXXXXXXXXXXXXXXXXXXXXXXXXXXSLLLLLLLLLLLLLLLLLLLLLLLLLLLLLLLLLLLLL@XXXXXXXXXXXXXXXXXXXXXXXXXX uL",
"Lu XXXXXXXXXXXXXXXXXXXXXXXXXXXXXSLLLLLLLLLLLLLLLLLLLLLLLLLLLLLLLLLLLLL@XXXXXXXXXXXXXXXXXXXXXXXXXX uL",
"Lu XXXXXXXXXXXXXXXXXXXXXXXXXXXXXSLLLLLLLLLLLLLLLLLLLLLLLLLLLLLLLLLLLLL@XXXXXXXXXXXXXXXXXXXXXXXXXX uL",
"Lu XXXXXXXXXXXXXXXXXXXXXXXXXXXXXSLLLLLLLLLLLLLLLLLLLLLLLLLLLLLLLLLLLLJOXXXXXXXXXXXXXXXXXXXXXXXXXX uL",
"Lu XXXXXXXXXXXXXXXXXXXXXXXXXXXXX>111111111111111111111111111iLLLLLLLLiXXXXXXXXXXXXXXXXXXXXXXXXXXX uL",
"Lu XXXXXXXXXXXXXXXXXXXXXXXXXXXXXXXXXXXXXXXXXXXXXXXXXXXXXXXX&FLLLLLLLBoXXXXXXXXXXXXXXXXXXXXXXXXXXX uL",
"Lu XXXXXXXXXXXXXXXXXXXXXXXXXXXXXXXXXXXXXXXXXXXXXXXXXXXXXXXXkLLLLLLLL4XXXXXXXXXXXXXXXXXXXXXXXXXXXX uL",
"Lu XXXXXXXXXXXXXXXXXXXXXXXXXXXXXXXXXXXXXXXXXXXXXXXXXXXXXXX5LLLLLLLLgXXXXXXXXXXXXXXXXXXXXXXXXXXXXX uL",
"Lu XXXXXXXXXXXXXXXXXXXXXXXXXXXXXXXXXXXXXXXXXXXXXXXXXXXXXXOVLLLLLLLA@XXXXXXXXXXXXXXXXXXXXXXXXXXXXX uL",
"Lu XXXXXXXXXXXXXXXXXXXXXXXXXXXXXXXXXXXXXXXXXXXXXXXXXXXXXXpLLLLLLLL7XXXXXXXXXXXXXXXXXXXXXXXXXXXXXX uL",
"Lu XXXXXXXXXXXXXXXXXXXXXXXXXXXXXXXXXXXXXXXXXXXXXXXXXXXXX<JLLLLLLLkXXXXXXXXXXXXXXXXXXXXXXXXXXXXXXX uL",
"Lu XXXXXXXXXXXXXXXXXXXXXXXXXXXXXXXXXXXXXXXXXXXXXXXXXXXXXnLLLLLLLD%XXXXXXXXXXXXXXXXXXXXXXXXXXXXXXX uL",
"Lu XXXXXXXXXXXXXXXXXXXXXXXXXXXXXXXXXXXXXXXXXXXXXXXXXXXX0LLLLLLLL9XXXXXXXXXXXXXXXXXXXXXXXXXXXXXXXX uL",
"Lu XXXXXXXXXXXXXXXXXXXXXXXXXXXXXXXXXXXXXXXXXXXXXXXXXXX*FLLLLLLLxXXXXXXXXXXXXXXXXXXXXXXXXXXXXXXXXX uL",
"Lu XXXXXXXXXXXXXXXXXXXXXXXXXXXXXXXXXXXXXXXXXXXXXXXXXXXkLLLLLLLG;XXXXXXXXXXXXXXXXXXXXXXXXXXXXXXXXX uL",
"Lu XXXXXXXXXXXXXXXXXXXXXXXXXXXXXXXXXXXXXXXXXXXXXXXXXX5LLLLLLLLwXXXXXXXXXXXXXXXXXXXXXXXXXXXXXXXXXX uL",
"Lu XXXXXXXXXXXXXXXXXXXXXXXXXXXXXXXXXXXXXXXXXXXXXXXXXOVLLLLLLLnXXXXXXXXXXXXXXXXXXXXXXXXXXXXXXXXXXX uL",
"Lu XXXXXXXXXXXXXXXXXXXXXXXXXXXXXXXXXXXXXXXXXXXXXXXXXpLLLLLLLJ,XXXXXXXXXXXXXXXXXXXXXXXXXXXXXXXXXXX uL",
"Lu XXXXXXXXXXXXXXXXXXXXXXXXXXXXXXXXXXXXXXXXXXXXXXXX<JLLLLLLLyXXXXXXXXXXXXXXXXXXXXXXXXXXXXXXXXXXXX uL",
"Lu XXXXXXXXXXXXXXXXXXXXXXXXXXXXXXXXXXXXXXXXXXXXXXXXnLLLLLLLNoXXXXXXXXXXXXXXXXXXXXXXXXXXXXXXXXXXXX uL",
"Lu XXXXXXXXXXXXXXXXXXXXXXXXXXXXXXXXXXXXXXXXXXXXXXX0LLLLLLLK3XXXXXXXXXXXXXXXXXXXXXXXXXXXXXXXXXXXXX uL",
"Lu XXXXXXXXXXXXXXXXXXXXXXXXXXXXXXXXXXXXXXXXXXXXXX*FLLLLLLLfXXXXXXXXXXXXXXXXXXXXXXXXXXXXXXXXXXXXXX uL",
"Lu XXXXXXXXXXXXXXXXXXXXXXXXXXXXXXXXXXXXXXXXXXXXXXkLLLLLLLA+XXXXXXXXXXXXXXXXXXXXXXXXXXXXXXXXXXXXXX uL",
"Lu XXXXXXXXXXXXXXXXXXXXXXXXXXXXXXXXXXXXXXXXXXXXX6LLLLLLLL6XXXXXXXXXXXXXXXXXXXXXXXXXXXXXXXXXXXXXXX uL",
"Lu XXXXXXXXXXXXXXXXXXXXXXXXXXXXXXXXXXXXXXXXXXXXOCLLLLLLLjXXXXXXXXXXXXXXXXXXXXXXXXXXXXXXXXXXXXXXXX uL",
"Lu XXXXXXXXXXXXXXXXXXXXXXXXXXXXXXXXXXXXXXXXXXXXaLLLLLLLS$XXXXXXXXXXXXXXXXXXXXXXXXXXXXXXXXXXXXXXXX uL",
"Lu XXXXXXXXXXXXXXXXXXXXXXXXXXXXXXXXXXXXXXXXXXX<JLLLLLLL8XXXXXXXXXXXXXXXXXXXXXXXXXXXXXXXXXXXXXXXXX uL",
"Lu XXXXXXXXXXXXXXXXXXXXXXXXXXXXXXXXXXXXXXXXXXXnLLLLLLLxXXXXXXXXXXXXXXXXXXXXXXXXXXXXXXXXXXXXXXXXXX uL",
"Lu XXXXXXXXXXXXXXXXXXXXXXXXXXXXXXXXXXXXXXXXXX0LLLLLLLG;XXXXXXXXXXXXXXXXXXXXXXXXXXXXXXXXXXXXXXXXXX uL",
"Lu XXXXXXXXXXXXXXXXXXXXXXXXXXXXXXXXXXXXXXXXX*FLLLLLLLwXXXXXXXXXXXXXXXXXXXXXXXXXXXXXXXXXXXXXXXXXXX uL",
"Lu XXXXXXXXXXXXXXXXXXXXXXXXXXXXXXXXXXXXXXXXXkLLLLLLLbXXXXXXXXXXXXXXXXXXXXXXXXXXXXXXXXXXXXXXXXXXXX uL",
"Lu XXXXXXXXXXXXXXXXXXXXXXXXXXXXXXXXXXXXXXXX6LLLLLLLJ>XXXXXXXXXXXXXXXXXXXXXXXXXXXXXXXXXXXXXXXXXXXX uL",
"Lu XXXXXXXXXXXXXXXXXXXXXXXXXXXXXXXXXXXXXXXOCLLLLLLLtXXXXXXXXXXXXXXXXXXXXXXXXXXXXXXXXXXXXXXXXXXXXX uL",
"Lu XXXXXXXXXXXXXXXXXXXXXXXXXXXXXXXXXXXXXXXaLLLLLLLNXXXXXXXXXXXXXXXXXXXXXXXXXXXXXXXXXXXXXXXXXXXXXX uL",
"Lu XXXXXXXXXXXXXXXXXXXXXXXXXXXXXXXXXXXXXX<JLLLLLLK3XXXXXXXXXXXXXXXXXXXXXXXXXXXXXXXXXXXXXXXXXXXXXX uL",
"Lu XXXXXXXXXXXXXXXXXXXXXXXXXXXXXXXXXXXXXXnLLLLLLLdXXXXXXXXXXXXXXXXXXXXXXXXXXXXXXXXXXXXXXXXXXXXXXX uL",
"Lu XXXXXXXXXXXXXXXXXXXXXXXXXXXXXXXXXXXXX0LLLLLLLZ+XXXXXXXXXXXXXXXXXXXXXXXXXXXXXXXXXXXXXXXXXXXXXXX uL",
"Lu XXXXXXXXXXXXXXXXXXXXXXXXXXXXXXXXXXXX*FLLLLLLL5XXXXXXXXXXXXXXXXXXXXXXXXXXXXXXXXXXXXXXXXXXXXXXXX uL",
"Lu XXXXXXXXXXXXXXXXXXXXXXXXXXXXXXXXXXXXkLLLLLLLhXXXXXXXXXXXXXXXXXXXXXXXXXXXXXXXXXXXXXXXXXXXXXXXXX uL",
"Lu XXXXXXXXXXXXXXXXXXXXXXXXXXXXXXXXXXX6LLLLLLLS#XXXXXXXXXXXXXXXXXXXXXXXXXXXXXXXXXXXXXXXXXXXXXXXXX uL",
"Lu XXXXXXXXXXXXXXXXXXXXXXXXXXXXXXXXXXOCLLLLLLL8XXXXXXXXXXXXXXXXXXXXXXXXXXXXXXXXXXXXXXXXXXXXXXXXXX uL",
"Lu XXXXXXXXXXXXXXXXXXXXXXXXXXXXXXXXXXsLLLLLLLzXXXXXXXXXXXXXXXXXXXXXXXXXXXXXXXXXXXXXXXXXXXXXXXXXXX uL",
"Lu XXXXXXXXXXXXXXXXXXXXXXXXXXXXXXXXX<JLLLLLLF-XXXXXXXXXXXXXXXXXXXXXXXXXXXXXXXXXXXXXXXXXXXXXXXXXXX uL",
"Lu XXXXXXXXXXXXXXXXXXXXXXXXXXXXXXXXXnLLLLLLL0XXXXXXXXXXXXXXXXXXXXXXXXXXXXXXXXXXXXXXXXXXXXXXXXXXXX uL",
"Lu XXXXXXXXXXXXXXXXXXXXXXXXXXXXXXXXqLLLLLLLvXXXXXXXXXXXXXXXXXXXXXXXXXXXXXXXXXXXXXXXXXXXXXXXXXXXXX uL",
"Lu XXXXXXXXXXXXXXXXXXXXXXXXXXXXXXX=FLLLLLLH:XXXXXXXXXXXXXXXXXXXXXXXXXXXXXXXXXXXXXXXXXXXXXXXXXXXXX uL",
"Lu XXXXXXXXXXXXXXXXXXXXXXXXXXXXXXXlLLLLLLLrXXXXXXXXXXXXXXXXXXXXXXXXXXXXXXXXXXXXXXXXXXXXXXXXXXXXXX uL",
"Lu XXXXXXXXXXXXXXXXXXXXXXXXXXXXXX7LLLLLLLMXXXXXXXXXXXXXXXXXXXXXXXXXXXXXXXXXXXXXXXXXXXXXXXXXXXXXXX uL",
"Lu XXXXXXXXXXXXXXXXXXXXXXXXXXXXXOZLLLLLLJ2XXXXXXXXXXXXXXXXXXXXXXXXXXXXXXXXXXXXXXXXXXXXXXXXXXXXXXX uL",
"Lu XXXXXXXXXXXXXXXXXXXXXXXXXXXXXsLLLLLLLdXXXXXXXXXXXXXXXXXXXXXXXXXXXXXXXXXXXXXXXXXXXXXXXXXXXXXXXX uL",
"Lu XXXXXXXXXXXXXXXXXXXXXXXXXXXX1JLLLLLLS111111111111111111111111111111>XXXXXXXXXXXXXXXXXXXXXXXXXX uL",
"Lu XXXXXXXXXXXXXXXXXXXXXXXXXXXXcLLLLLLLLLLLLLLLLLLLLLLLLLLLLLLLLLLLLLLFXXXXXXXXXXXXXXXXXXXXXXXXXX uL",
"Lu XXXXXXXXXXXXXXXXXXXXXXXXXXXXmLLLLLLLLLLLLLLLLLLLLLLLLLLLLLLLLLLLLLLFXXXXXXXXXXXXXXXXXXXXXXXXXX uL",
"Lu XXXXXXXXXXXXXXXXXXXXXXXXXXXXmLLLLLLLLLLLLLLLLLLLLLLLLLLLLLLLLLLLLLLFXXXXXXXXXXXXXXXXXXXXXXXXXX uL",
"Lu XXXXXXXXXXXXXXXXXXXXXXXXXXXXmLLLLLLLLLLLLLLLLLLLLLLLLLLLLLLLLLLLLLLFXXXXXXXXXXXXXXXXXXXXXXXXXX uL",
"Lu XXXXXXXXXXXXXXXXXXXXXXXXXXXXmLLLLLLLLLLLLLLLLLLLLLLLLLLLLLLLLLLLLLLFXXXXXXXXXXXXXXXXXXXXXXXXXX uL",
"Lu XXXXXXXXXXXXXXXXXXXXXXXXXXXXmLLLLLLLLLLLLLLLLLLLLLLLLLLLLLLLLLLLLLLFXXXXXXXXXXXXXXXXXXXXXXXXXX uL",
"Lu XXXXXXXXXXXXXXXXXXXXXXXXXXXXXXXXXXXXXXXXXXXXXXXXXXXXXXXXXXXXXXXXXXXXXXXXXXXXXXXXXXXXXXXXXXXXXX uL",
"Lu XXXXXXXXXXXXXXXXXXXXXXXXXXXXXXXXXXXXXXXXXXXXXXXXXXXXXXXXXXXXXXXXXXXXXXXXXXXXXXXXXXXXXXXXXXXXXX uL",
"Lu XXXXXXXXXXXXXXXXXXXXXXXXXXXXXXXXXXXXXXXXXXXXXXXXXXXXXXXXXXXXXXXXXXXXXXXXXXXXXXXXXXXXXXXXXXXXXX uL",
"Lu XXXXXXXXXXXXXXXXXXXXXXXXXXXXXXXXXXXXXXXXXXXXXXXXXXXXXXXXXXXXXXXXXXXXXXXXXXXXXXXXXXXXXXXXXXXXXX uL",
"Lu XXXXXXXXXXXXXXXXXXXXXXXXXXXXXXXXXXXXXXXXXXXXXXXXXXXXXXXXXXXXXXXXXXXXXXXXXXXXXXXXXXXXXXXXXXXXXX uL",
"Lu XXXXXXXXXXXXXXXXXXXXXXXXXXXXXXXXXXXXXXXXXXXXXXXXXXXXXXXXXXXXXXXXXXXXXXXXXXXXXXXXXXXXXXXXXXXXXX uL",
"Lu XXXXXXXXXXXXXXXXXXXXXXXXXXXXXXXXXXXXXXXXXXXXXXXXXXXXXXXXXXXXXXXXXXXXXXXXXXXXXXXXXXXXXXXXXXXXXX uL",
"Lu XXXXXXXXXXXXXXXXXXXXXXXXXXXXXXXXXXXXXXXXXXXXXXXXXXXXXXXXXXXXXXXXXXXXXXXXXXXXXXXXXXXXXXXXXXXXXX uL",
"Lu XXXXXXXXXXXXXXXXXXXXXXXXXXXXXXXXXXXXXXXXXXXXXXXXXXXXXXXXXXXXXXXXXXXXXXXXXXXXXXXXXXXXXXXXXXXXXX uL",
"Lu XXXXXXXXXXXXXXXXXXXXXXXXXXXXXXXXXXXXXXXXXXXXXXXXXXXXXXXXXXXXXXXXXXXXXXXXXXXXXXXXXXXXXXXXXXXXXX uL",
"Lu XXXXXXXXXXXXXXXXXXXXXXXXXXXXXXXXXXXXXXXXXXXXXXXXXXXXXXXXXXXXXXXXXXXXXXXXXXXXXXXXXXXXXXXXXXXXXX uL",
"Lu XXXXXXXXXXXXXXXXXXXXXXXXXXXXXXXXXXXXXXXXXXXXXXXXXXXXXXXXXXXXXXXXXXXXXXXXXXXXXXXXXXXXXXXXXXXXXX uL",
"Lu XXXXXXXXXXXXXXXXXXXXXXXXXXXXXXXXXXXXXXXXXXXXXXXXXXXXXXXXXXXXXXXXXXXXXXXXXXXXXXXXXXXXXXXXXXXXXX uL",
"Lu XXXXXXXXXXXXXXXXXXXXXXXXXXXXXXXXXXXXXXXXXXXXXXXXXXXXXXXXXXXXXXXXXXXXXXXXXXXXXXXXXXXXXXXXXXXXXX uL",
"Lu XXXXXXXXXXXXXXXXXXXXXXXXXXXXXXXXXXXXXXXXXXXXXXXXXXXXXXXXXXXXXXXXXXXXXXXXXXXXXXXXXXXXXXXXXXXXXX uL",
"Lu XXXXXXXXXXXXXXXXXXXXXXXXXXXXXXXXXXXXXXXXXXXXXXXXXXXXXXXXXXXXXXXXXXXXXXXXXXXXXXXXXXXXXXXXXXXXXX uL",
"Lu XXXXXXXXXXXXXXXXXXXXXXXXXXXXXXXXXXXXXXXXXXXXXXXXXXXXXXXXXXXXXXXXXXXXXXXXXXXXXXXXXXXXXXXXXXXXXX uL",
"Lu.XXXXXXXXXXXXXXXXXXXXXXXXXXXXXXXXXXXXXXXXXXXXXXXXXXXXXXXXXXXXXXXXXXXXXXXXXXXXXXXXXXXXXXXXXXXXXX uL",
"Lu                                                                                                uL",
"LeuuuuuuuuuuuuuuuuuuuuuuuuuuuuuuuuuuuuuuuuuuuuuuuuuuuuuuuuuuuuuuuuuuuuuuuuuuuuuuuuuuuuuuuuuuuuuuuueL",
"LLLLLLLLLLLLLLLLLLLLLLLLLLLLLLLLLLLLLLLLLLLLLLLLLLLLLLLLLLLLLLLLLLLLLLLLLLLLLLLLLLLLLLLLLLLLLLLLLLLL"
};
