/* XPM */
static char *z2[] = {
/* columns rows colors chars-per-pixel */
"100 100 60 1 ",
"  c #686868",
". c #7C7C7C",
"X c #C3AF2A",
"o c #C3AF2E",
"O c #C4B031",
"+ c #C4B034",
"@ c #C5B23F",
"# c #C5B242",
"$ c #C6B346",
"% c #C6B348",
"& c #C6B44A",
"* c #C7B54E",
"= c #C7B552",
"- c #C9B85E",
"; c #CAB962",
": c #CBBA65",
"> c #CBBB68",
", c #CCBC6B",
"< c #CCBC6D",
"1 c #CDBD70",
"2 c #D0C17B",
"3 c #D0C17C",
"4 c #AFAFAF",
"5 c gray70",
"6 c #D1C280",
"7 c #D3C68B",
"8 c #D4C78D",
"9 c #D7CB97",
"0 c #D7CB98",
"q c #D7CC99",
"w c #D8CD9B",
"e c #D9CD9D",
"r c #DCD1A6",
"t c #DDD3AB",
"y c #DED4AC",
"u c #DFD5B0",
"i c #E0D6B2",
"p c #E1D9B7",
"a c #E2DAB9",
"s c #E5DEC2",
"d c #E6DFC5",
"f c #E6E0C5",
"g c #E9E3CB",
"h c #E9E3CD",
"j c #EAE4CE",
"k c #EEE9D7",
"l c #EEE9D8",
"z c #EFEBDC",
"x c #F1EDDF",
"c c #F2EEE1",
"v c #F4F1E6",
"b c #F5F2E8",
"n c #F7F5ED",
"m c #F8F6EF",
"M c #F9F7F1",
"N c #FAF8F3",
"B c #FAF9F4",
"V c #FCFBF9",
"C c #FDFDFB",
"Z c white",
/* pixels */
"ZZZZZZZZZZZZZZZZZZZZZZZZZZZZZZZZZZZZZZZZZZZZZZZZZZZZZZZZZZZZZZZZZZZZZZZZZZZZZZZZZZZZZZZZZZZZZZZZZZZZ",
"Z45555555555555555555555555555555555555555555555555555555555555555555555555555555555555555555555554Z",
"Z5                                                                                                5Z",
"Z5 XXXXXXXXXXXXXXXXXXXXXXXXXXXXXXXXXXXXXXXXXXXXXXXXXXXXXXXXXXXXXXXXXXXXXXXXXXXXXXXXXXXXXXXXXXXXXX 5Z",
"Z5 XXXXXXXXXXXXXXXXXXXXXXXXXXXXXXXXXXXXXXXXXXXXXXXXXXXXXXXXXXXXXXXXXXXXXXXXXXXXXXXXXXXXXXXXXXXXXX 5Z",
"Z5 XXXXXXXXXXXXXXXXXXXXXXXXXXXXXXXXXXXXXXXXXXXXXXXXXXXXXXXXXXXXXXXXXXXXXXXXXXXXXXXXXXXXXXXXXXXXXX 5Z",
"Z5 XXXXXXXXXXXXXXXXXXXXXXXXXXXXXXXXXXXXXXXXXXXXXXXXXXXXXXXXXXXXXXXXXXXXXXXXXXXXXXXXXXXXXXXXXXXXXX 5Z",
"Z5 XXXXXXXXXXXXXXXXXXXXXXXXXXXXXXXXXXXXXXXXXXXXXXXXXXXXXXXXXXXXXXXXXXXXXXXXXXXXXXXXXXXXXXXXXXXXXX 5Z",
"Z5 XXXXXXXXXXXXXXXXXXXXXXXXXXXXXXXXXXXXXXXXXXXXXXXXXXXXXXXXXXXXXXXXXXXXXXXXXXXXXXXXXXXXXXXXXXXXXX 5Z",
"Z5 XXXXXXXXXXXXXXXXXXXXXXXXXXXXXXXXXXXXXXXXXXXXXXXXXXXXXXXXXXXXXXXXXXXXXXXXXXXXXXXXXXXXXXXXXXXXXX 5Z",
"Z5 XXXXXXXXXXXXXXXXXXXXXXXXXXXXXXXXXXXXXXXXXXXXXXXXXXXXXXXXXXXXXXXXXXXXXXXXXXXXXXXXXXXXXXXXXXXXXX 5Z",
"Z5 XXXXXXXXXXXXXXXXXXXXXXXXXXXXXXXXXXXXXXXXXXXXXXXXXXXXXXXXXXXXXXXXXXXXXXXXXXXXXXXXXXXXXXXXXXXXXX 5Z",
"Z5 XXXXXXXXXXXXXXXXXXXXXXXXXXXXXXXXXXXXXXXXXXXXXXXXXXXXXXXXXXXXXXXXXXXXXXXXXXXXXXXXXXXXXXXXXXXXXX 5Z",
"Z5 XXXXXXXXXXXXXXXXXXXXXXXXXXXXXXXXXXXXXXXXXXXXXXXXXXXXXXXXXXXXXXXXXXXXXXXXXXXXXXXXXXXXXXXXXXXXXX 5Z",
"Z5 XXXXXXXXXXXXXXXXXXXXXXXXXXXXXXXXXXXXXXXXXXXXXXXXXXXXXXXXXXXXXXXXXXXXXXXXXXXXXXXXXXXXXXXXXXXXXX 5Z",
"Z5 XXXXXXXXXXXXXXXXXXXXXXXXXXXXXXXXXXXXXXXXXXXXXXXXXXXXXXXXXXXXXXXXXXXXXXXXXXXXXXXXXXXXXXXXXXXXXX 5Z",
"Z5 XXXXXXXXXXXXXXXXXXXXXXXXXXXXXXXXXXXXXXXXXXXXXXXXXXXXXXXXXXXXXXXXXXXXXXXXXXXXXXXXXXXXXXXXXXXXXX 5Z",
"Z5 XXXXXXXXXXXXXXXXXXXXXXXXXXXXXXXXXXXXXXXXXXXXXXXXXXXXXXXXXXXXXXXXXXXXXXXXXXXXXXXXXXXXXXXXXXXXXX 5Z",
"Z5 XXXXXXXXXXXXXXXXXXXXXXXXXXXXXXXXXXXXXXXXXXXXXXXXXXXXXXXXXXXXXXXXXXXXXXXXXXXXXXXXXXXXXXXXXXXXXX 5Z",
"Z5 XXXXXXXXXXXXXXXXXXXXXXXXXXXXXXXXXXXXXXXXXXXXXXXXXXXXXXXXXXXXXXXXXXXXXXXXXXXXXXXXXXXXXXXXXXXXXX 5Z",
"Z5 XXXXXXXXXXXXXXXXXXXXXXXXXXXXXnZZZZZZZZZZZZZZZZZZZZZZZZZZZZZZZZZZZZZ+XXXXXXXXXXXXXXXXXXXXXXXXXX 5Z",
"Z5 XXXXXXXXXXXXXXXXXXXXXXXXXXXXXnZZZZZZZZZZZZZZZZZZZZZZZZZZZZZZZZZZZZZ+XXXXXXXXXXXXXXXXXXXXXXXXXX 5Z",
"Z5 XXXXXXXXXXXXXXXXXXXXXXXXXXXXXnZZZZZZZZZZZZZZZZZZZZZZZZZZZZZZZZZZZZZ+XXXXXXXXXXXXXXXXXXXXXXXXXX 5Z",
"Z5 XXXXXXXXXXXXXXXXXXXXXXXXXXXXXnZZZZZZZZZZZZZZZZZZZZZZZZZZZZZZZZZZZZZ+XXXXXXXXXXXXXXXXXXXXXXXXXX 5Z",
"Z5 XXXXXXXXXXXXXXXXXXXXXXXXXXXXXnZZZZZZZZZZZZZZZZZZZZZZZZZZZZZZZZZZZZZ+XXXXXXXXXXXXXXXXXXXXXXXXXX 5Z",
"Z5 XXXXXXXXXXXXXXXXXXXXXXXXXXXXXnZZZZZZZZZZZZZZZZZZZZZZZZZZZZZZZZZZZZVOXXXXXXXXXXXXXXXXXXXXXXXXXX 5Z",
"Z5 XXXXXXXXXXXXXXXXXXXXXXXXXXXXX-:::::::::::::::::::::::::::yZZZZZZZZyXXXXXXXXXXXXXXXXXXXXXXXXXXX 5Z",
"Z5 XXXXXXXXXXXXXXXXXXXXXXXXXXXXXXXXXXXXXXXXXXXXXXXXXXXXXXXX$MZZZZZZZcoXXXXXXXXXXXXXXXXXXXXXXXXXXX 5Z",
"Z5 XXXXXXXXXXXXXXXXXXXXXXXXXXXXXXXXXXXXXXXXXXXXXXXXXXXXXXXXdZZZZZZZZ1XXXXXXXXXXXXXXXXXXXXXXXXXXXX 5Z",
"Z5 XXXXXXXXXXXXXXXXXXXXXXXXXXXXXXXXXXXXXXXXXXXXXXXXXXXXXXX3ZZZZZZZZaXXXXXXXXXXXXXXXXXXXXXXXXXXXXX 5Z",
"Z5 XXXXXXXXXXXXXXXXXXXXXXXXXXXXXXXXXXXXXXXXXXXXXXXXXXXXXXOvZZZZZZZb+XXXXXXXXXXXXXXXXXXXXXXXXXXXXX 5Z",
"Z5 XXXXXXXXXXXXXXXXXXXXXXXXXXXXXXXXXXXXXXXXXXXXXXXXXXXXXXuZZZZZZZZ6XXXXXXXXXXXXXXXXXXXXXXXXXXXXXX 5Z",
"Z5 XXXXXXXXXXXXXXXXXXXXXXXXXXXXXXXXXXXXXXXXXXXXXXXXXXXXX;VZZZZZZZdXXXXXXXXXXXXXXXXXXXXXXXXXXXXXXX 5Z",
"Z5 XXXXXXXXXXXXXXXXXXXXXXXXXXXXXXXXXXXXXXXXXXXXXXXXXXXXXkZZZZZZZm$XXXXXXXXXXXXXXXXXXXXXXXXXXXXXXX 5Z",
"Z5 XXXXXXXXXXXXXXXXXXXXXXXXXXXXXXXXXXXXXXXXXXXXXXXXXXXX9ZZZZZZZZ8XXXXXXXXXXXXXXXXXXXXXXXXXXXXXXXX 5Z",
"Z5 XXXXXXXXXXXXXXXXXXXXXXXXXXXXXXXXXXXXXXXXXXXXXXXXXXX%MZZZZZZZjXXXXXXXXXXXXXXXXXXXXXXXXXXXXXXXXX 5Z",
"Z5 XXXXXXXXXXXXXXXXXXXXXXXXXXXXXXXXXXXXXXXXXXXXXXXXXXXfZZZZZZZB=XXXXXXXXXXXXXXXXXXXXXXXXXXXXXXXXX 5Z",
"Z5 XXXXXXXXXXXXXXXXXXXXXXXXXXXXXXXXXXXXXXXXXXXXXXXXXX3ZZZZZZZZeXXXXXXXXXXXXXXXXXXXXXXXXXXXXXXXXXX 5Z",
"Z5 XXXXXXXXXXXXXXXXXXXXXXXXXXXXXXXXXXXXXXXXXXXXXXXXXOvZZZZZZZlXXXXXXXXXXXXXXXXXXXXXXXXXXXXXXXXXXX 5Z",
"Z5 XXXXXXXXXXXXXXXXXXXXXXXXXXXXXXXXXXXXXXXXXXXXXXXXXuZZZZZZZV;XXXXXXXXXXXXXXXXXXXXXXXXXXXXXXXXXXX 5Z",
"Z5 XXXXXXXXXXXXXXXXXXXXXXXXXXXXXXXXXXXXXXXXXXXXXXXX;VZZZZZZZtXXXXXXXXXXXXXXXXXXXXXXXXXXXXXXXXXXXX 5Z",
"Z5 XXXXXXXXXXXXXXXXXXXXXXXXXXXXXXXXXXXXXXXXXXXXXXXXkZZZZZZZcoXXXXXXXXXXXXXXXXXXXXXXXXXXXXXXXXXXXX 5Z",
"Z5 XXXXXXXXXXXXXXXXXXXXXXXXXXXXXXXXXXXXXXXXXXXXXXX0ZZZZZZZC1XXXXXXXXXXXXXXXXXXXXXXXXXXXXXXXXXXXXX 5Z",
"Z5 XXXXXXXXXXXXXXXXXXXXXXXXXXXXXXXXXXXXXXXXXXXXXX%MZZZZZZZpXXXXXXXXXXXXXXXXXXXXXXXXXXXXXXXXXXXXXX 5Z",
"Z5 XXXXXXXXXXXXXXXXXXXXXXXXXXXXXXXXXXXXXXXXXXXXXXfZZZZZZZb+XXXXXXXXXXXXXXXXXXXXXXXXXXXXXXXXXXXXXX 5Z",
"Z5 XXXXXXXXXXXXXXXXXXXXXXXXXXXXXXXXXXXXXXXXXXXXX3ZZZZZZZZ3XXXXXXXXXXXXXXXXXXXXXXXXXXXXXXXXXXXXXXX 5Z",
"Z5 XXXXXXXXXXXXXXXXXXXXXXXXXXXXXXXXXXXXXXXXXXXXOvZZZZZZZsXXXXXXXXXXXXXXXXXXXXXXXXXXXXXXXXXXXXXXXX 5Z",
"Z5 XXXXXXXXXXXXXXXXXXXXXXXXXXXXXXXXXXXXXXXXXXXXuZZZZZZZn#XXXXXXXXXXXXXXXXXXXXXXXXXXXXXXXXXXXXXXXX 5Z",
"Z5 XXXXXXXXXXXXXXXXXXXXXXXXXXXXXXXXXXXXXXXXXXX;VZZZZZZZ8XXXXXXXXXXXXXXXXXXXXXXXXXXXXXXXXXXXXXXXXX 5Z",
"Z5 XXXXXXXXXXXXXXXXXXXXXXXXXXXXXXXXXXXXXXXXXXXlZZZZZZZhXXXXXXXXXXXXXXXXXXXXXXXXXXXXXXXXXXXXXXXXXX 5Z",
"Z5 XXXXXXXXXXXXXXXXXXXXXXXXXXXXXXXXXXXXXXXXXX0ZZZZZZZN=XXXXXXXXXXXXXXXXXXXXXXXXXXXXXXXXXXXXXXXXXX 5Z",
"Z5 XXXXXXXXXXXXXXXXXXXXXXXXXXXXXXXXXXXXXXXXX%MZZZZZZZwXXXXXXXXXXXXXXXXXXXXXXXXXXXXXXXXXXXXXXXXXXX 5Z",
"Z5 XXXXXXXXXXXXXXXXXXXXXXXXXXXXXXXXXXXXXXXXXfZZZZZZZkXXXXXXXXXXXXXXXXXXXXXXXXXXXXXXXXXXXXXXXXXXXX 5Z",
"Z5 XXXXXXXXXXXXXXXXXXXXXXXXXXXXXXXXXXXXXXXX3ZZZZZZZV-XXXXXXXXXXXXXXXXXXXXXXXXXXXXXXXXXXXXXXXXXXXX 5Z",
"Z5 XXXXXXXXXXXXXXXXXXXXXXXXXXXXXXXXXXXXXXXOvZZZZZZZtXXXXXXXXXXXXXXXXXXXXXXXXXXXXXXXXXXXXXXXXXXXXX 5Z",
"Z5 XXXXXXXXXXXXXXXXXXXXXXXXXXXXXXXXXXXXXXXiZZZZZZZcXXXXXXXXXXXXXXXXXXXXXXXXXXXXXXXXXXXXXXXXXXXXXX 5Z",
"Z5 XXXXXXXXXXXXXXXXXXXXXXXXXXXXXXXXXXXXXX:CZZZZZZC<XXXXXXXXXXXXXXXXXXXXXXXXXXXXXXXXXXXXXXXXXXXXXX 5Z",
"Z5 XXXXXXXXXXXXXXXXXXXXXXXXXXXXXXXXXXXXXXlZZZZZZZpXXXXXXXXXXXXXXXXXXXXXXXXXXXXXXXXXXXXXXXXXXXXXXX 5Z",
"Z5 XXXXXXXXXXXXXXXXXXXXXXXXXXXXXXXXXXXXXqZZZZZZZv+XXXXXXXXXXXXXXXXXXXXXXXXXXXXXXXXXXXXXXXXXXXXXXX 5Z",
"Z5 XXXXXXXXXXXXXXXXXXXXXXXXXXXXXXXXXXXX%MZZZZZZZ2XXXXXXXXXXXXXXXXXXXXXXXXXXXXXXXXXXXXXXXXXXXXXXXX 5Z",
"Z5 XXXXXXXXXXXXXXXXXXXXXXXXXXXXXXXXXXXXfZZZZZZZsXXXXXXXXXXXXXXXXXXXXXXXXXXXXXXXXXXXXXXXXXXXXXXXXX 5Z",
"Z5 XXXXXXXXXXXXXXXXXXXXXXXXXXXXXXXXXXX3ZZZZZZZn@XXXXXXXXXXXXXXXXXXXXXXXXXXXXXXXXXXXXXXXXXXXXXXXXX 5Z",
"Z5 XXXXXXXXXXXXXXXXXXXXXXXXXXXXXXXXXXOvZZZZZZZ7XXXXXXXXXXXXXXXXXXXXXXXXXXXXXXXXXXXXXXXXXXXXXXXXXX 5Z",
"Z5 XXXXXXXXXXXXXXXXXXXXXXXXXXXXXXXXXXiZZZZZZZgXXXXXXXXXXXXXXXXXXXXXXXXXXXXXXXXXXXXXXXXXXXXXXXXXXX 5Z",
"Z5 XXXXXXXXXXXXXXXXXXXXXXXXXXXXXXXXX:CZZZZZZN*XXXXXXXXXXXXXXXXXXXXXXXXXXXXXXXXXXXXXXXXXXXXXXXXXXX 5Z",
"Z5 XXXXXXXXXXXXXXXXXXXXXXXXXXXXXXXXXlZZZZZZZqXXXXXXXXXXXXXXXXXXXXXXXXXXXXXXXXXXXXXXXXXXXXXXXXXXXX 5Z",
"Z5 XXXXXXXXXXXXXXXXXXXXXXXXXXXXXXXXwZZZZZZZkXXXXXXXXXXXXXXXXXXXXXXXXXXXXXXXXXXXXXXXXXXXXXXXXXXXXX 5Z",
"Z5 XXXXXXXXXXXXXXXXXXXXXXXXXXXXXXX&NZZZZZZB-XXXXXXXXXXXXXXXXXXXXXXXXXXXXXXXXXXXXXXXXXXXXXXXXXXXXX 5Z",
"Z5 XXXXXXXXXXXXXXXXXXXXXXXXXXXXXXXfZZZZZZZrXXXXXXXXXXXXXXXXXXXXXXXXXXXXXXXXXXXXXXXXXXXXXXXXXXXXXX 5Z",
"Z5 XXXXXXXXXXXXXXXXXXXXXXXXXXXXXX6ZZZZZZZxXXXXXXXXXXXXXXXXXXXXXXXXXXXXXXXXXXXXXXXXXXXXXXXXXXXXXXX 5Z",
"Z5 XXXXXXXXXXXXXXXXXXXXXXXXXXXXXOvZZZZZZC,XXXXXXXXXXXXXXXXXXXXXXXXXXXXXXXXXXXXXXXXXXXXXXXXXXXXXXX 5Z",
"Z5 XXXXXXXXXXXXXXXXXXXXXXXXXXXXXiZZZZZZZiXXXXXXXXXXXXXXXXXXXXXXXXXXXXXXXXXXXXXXXXXXXXXXXXXXXXXXXX 5Z",
"Z5 XXXXXXXXXXXXXXXXXXXXXXXXXXXX:CZZZZZZn>:::::::::::::::::::::::::::::-XXXXXXXXXXXXXXXXXXXXXXXXXX 5Z",
"Z5 XXXXXXXXXXXXXXXXXXXXXXXXXXXXjZZZZZZZZZZZZZZZZZZZZZZZZZZZZZZZZZZZZZZMXXXXXXXXXXXXXXXXXXXXXXXXXX 5Z",
"Z5 XXXXXXXXXXXXXXXXXXXXXXXXXXXXzZZZZZZZZZZZZZZZZZZZZZZZZZZZZZZZZZZZZZZMXXXXXXXXXXXXXXXXXXXXXXXXXX 5Z",
"Z5 XXXXXXXXXXXXXXXXXXXXXXXXXXXXzZZZZZZZZZZZZZZZZZZZZZZZZZZZZZZZZZZZZZZMXXXXXXXXXXXXXXXXXXXXXXXXXX 5Z",
"Z5 XXXXXXXXXXXXXXXXXXXXXXXXXXXXzZZZZZZZZZZZZZZZZZZZZZZZZZZZZZZZZZZZZZZMXXXXXXXXXXXXXXXXXXXXXXXXXX 5Z",
"Z5 XXXXXXXXXXXXXXXXXXXXXXXXXXXXzZZZZZZZZZZZZZZZZZZZZZZZZZZZZZZZZZZZZZZMXXXXXXXXXXXXXXXXXXXXXXXXXX 5Z",
"Z5 XXXXXXXXXXXXXXXXXXXXXXXXXXXXzZZZZZZZZZZZZZZZZZZZZZZZZZZZZZZZZZZZZZZMXXXXXXXXXXXXXXXXXXXXXXXXXX 5Z",
"Z5 XXXXXXXXXXXXXXXXXXXXXXXXXXXXXXXXXXXXXXXXXXXXXXXXXXXXXXXXXXXXXXXXXXXXXXXXXXXXXXXXXXXXXXXXXXXXXX 5Z",
"Z5 XXXXXXXXXXXXXXXXXXXXXXXXXXXXXXXXXXXXXXXXXXXXXXXXXXXXXXXXXXXXXXXXXXXXXXXXXXXXXXXXXXXXXXXXXXXXXX 5Z",
"Z5 XXXXXXXXXXXXXXXXXXXXXXXXXXXXXXXXXXXXXXXXXXXXXXXXXXXXXXXXXXXXXXXXXXXXXXXXXXXXXXXXXXXXXXXXXXXXXX 5Z",
"Z5 XXXXXXXXXXXXXXXXXXXXXXXXXXXXXXXXXXXXXXXXXXXXXXXXXXXXXXXXXXXXXXXXXXXXXXXXXXXXXXXXXXXXXXXXXXXXXX 5Z",
"Z5 XXXXXXXXXXXXXXXXXXXXXXXXXXXXXXXXXXXXXXXXXXXXXXXXXXXXXXXXXXXXXXXXXXXXXXXXXXXXXXXXXXXXXXXXXXXXXX 5Z",
"Z5 XXXXXXXXXXXXXXXXXXXXXXXXXXXXXXXXXXXXXXXXXXXXXXXXXXXXXXXXXXXXXXXXXXXXXXXXXXXXXXXXXXXXXXXXXXXXXX 5Z",
"Z5 XXXXXXXXXXXXXXXXXXXXXXXXXXXXXXXXXXXXXXXXXXXXXXXXXXXXXXXXXXXXXXXXXXXXXXXXXXXXXXXXXXXXXXXXXXXXXX 5Z",
"Z5 XXXXXXXXXXXXXXXXXXXXXXXXXXXXXXXXXXXXXXXXXXXXXXXXXXXXXXXXXXXXXXXXXXXXXXXXXXXXXXXXXXXXXXXXXXXXXX 5Z",
"Z5 XXXXXXXXXXXXXXXXXXXXXXXXXXXXXXXXXXXXXXXXXXXXXXXXXXXXXXXXXXXXXXXXXXXXXXXXXXXXXXXXXXXXXXXXXXXXXX 5Z",
"Z5 XXXXXXXXXXXXXXXXXXXXXXXXXXXXXXXXXXXXXXXXXXXXXXXXXXXXXXXXXXXXXXXXXXXXXXXXXXXXXXXXXXXXXXXXXXXXXX 5Z",
"Z5 XXXXXXXXXXXXXXXXXXXXXXXXXXXXXXXXXXXXXXXXXXXXXXXXXXXXXXXXXXXXXXXXXXXXXXXXXXXXXXXXXXXXXXXXXXXXXX 5Z",
"Z5 XXXXXXXXXXXXXXXXXXXXXXXXXXXXXXXXXXXXXXXXXXXXXXXXXXXXXXXXXXXXXXXXXXXXXXXXXXXXXXXXXXXXXXXXXXXXXX 5Z",
"Z5 XXXXXXXXXXXXXXXXXXXXXXXXXXXXXXXXXXXXXXXXXXXXXXXXXXXXXXXXXXXXXXXXXXXXXXXXXXXXXXXXXXXXXXXXXXXXXX 5Z",
"Z5 XXXXXXXXXXXXXXXXXXXXXXXXXXXXXXXXXXXXXXXXXXXXXXXXXXXXXXXXXXXXXXXXXXXXXXXXXXXXXXXXXXXXXXXXXXXXXX 5Z",
"Z5 XXXXXXXXXXXXXXXXXXXXXXXXXXXXXXXXXXXXXXXXXXXXXXXXXXXXXXXXXXXXXXXXXXXXXXXXXXXXXXXXXXXXXXXXXXXXXX 5Z",
"Z5 XXXXXXXXXXXXXXXXXXXXXXXXXXXXXXXXXXXXXXXXXXXXXXXXXXXXXXXXXXXXXXXXXXXXXXXXXXXXXXXXXXXXXXXXXXXXXX 5Z",
"Z5 XXXXXXXXXXXXXXXXXXXXXXXXXXXXXXXXXXXXXXXXXXXXXXXXXXXXXXXXXXXXXXXXXXXXXXXXXXXXXXXXXXXXXXXXXXXXXX 5Z",
"Z5.XXXXXXXXXXXXXXXXXXXXXXXXXXXXXXXXXXXXXXXXXXXXXXXXXXXXXXXXXXXXXXXXXXXXXXXXXXXXXXXXXXXXXXXXXXXXXX 5Z",
"Z5                                                                                                5Z",
"Z45555555555555555555555555555555555555555555555555555555555555555555555555555555555555555555555554Z",
"ZZZZZZZZZZZZZZZZZZZZZZZZZZZZZZZZZZZZZZZZZZZZZZZZZZZZZZZZZZZZZZZZZZZZZZZZZZZZZZZZZZZZZZZZZZZZZZZZZZZZ"
};
