/* XPM */
static char *z3[] = {
/* columns rows colors chars-per-pixel */
"100 100 33 1 ",
"  c #686868",
". c #727272",
"X c #747474",
"o c gray48",
"O c #7C7C7C",
"+ c #818181",
"@ c gray53",
"# c #8B8B8B",
"$ c #8D8D8D",
"% c #929292",
"& c #9A9A9A",
"* c gray61",
"= c gray64",
"- c #A5A5A5",
"; c #AFAFAF",
": c gray70",
"> c #B7B7B7",
", c #BBBBBB",
"< c #BCBCBC",
"1 c #C3C3C3",
"2 c gray77",
"3 c gray81",
"4 c #D0D0D0",
"5 c gray84",
"6 c gray87",
"7 c #E1E1E1",
"8 c #E6E6E6",
"9 c #EAEAEA",
"0 c #ECECEC",
"q c #F3F3F3",
"w c #F6F6F6",
"e c gray98",
"r c white",
/* pixels */
"rrrrrrrrrrrrrrrrrrrrrrrrrrrrrrrrrrrrrrrrrrrrrrrrrrrrrrrrrrrrrrrrrrrrrrrrrrrrrrrrrrrrrrrrrrrrrrrrrrrr",
"r;::::::::::::::::::::::::::::::::::::::::::::::::::::::::::::::::::::::::::::::::::::::::::::::::;r",
"r:                                                                                                :r",
"r: .............................................................................................. :r",
"r: .............................................................................................. :r",
"r: .............................................................................................. :r",
"r: .............................................................................................. :r",
"r: .............................................................................................. :r",
"r: .............................................................................................. :r",
"r: .............................................................................................. :r",
"r: .............................................................................................. :r",
"r: .............................................................................................. :r",
"r: .............................................................................................. :r",
"r: .............................................................................................. :r",
"r: .............................................................................................. :r",
"r: .............................................................................................. :r",
"r: .............................................................................................. :r",
"r: .............................................................................................. :r",
"r: .............................................................................................. :r",
"r: .............................................................................................. :r",
"r: .............................qrrrrrrrrrrrrrrrrrrrrrrrrrrrrrrrrrrrrrX.......................... :r",
"r: .............................qrrrrrrrrrrrrrrrrrrrrrrrrrrrrrrrrrrrrrX.......................... :r",
"r: .............................qrrrrrrrrrrrrrrrrrrrrrrrrrrrrrrrrrrrrrX.......................... :r",
"r: .............................qrrrrrrrrrrrrrrrrrrrrrrrrrrrrrrrrrrrrrX.......................... :r",
"r: .............................qrrrrrrrrrrrrrrrrrrrrrrrrrrrrrrrrrrrrrX.......................... :r",
"r: .............................qrrrrrrrrrrrrrrrrrrrrrrrrrrrrrrrrrrrreX.......................... :r",
"r: .............................@###########################<rrrrrrrr<........................... :r",
"r: ........................................................Oqrrrrrrr8............................ :r",
"r: ........................................................3rrrrrrrr%............................ :r",
"r: .......................................................&rrrrrrrr2............................. :r",
"r: ......................................................X9rrrrrrr0X............................. :r",
"r: ......................................................<rrrrrrrr*.............................. :r",
"r: .....................................................#errrrrrr3............................... :r",
"r: .....................................................6rrrrrrrqo............................... :r",
"r: ....................................................;rrrrrrrr-................................ :r",
"r: ...................................................Oqrrrrrrr5................................. :r",
"r: ...................................................3rrrrrrrw+................................. :r",
"r: ..................................................&rrrrrrrr:.................................. :r",
"r: .................................................X9rrrrrrr6................................... :r",
"r: .................................................<rrrrrrre#................................... :r",
"r: ................................................#errrrrrr,.................................... :r",
"r: ................................................6rrrrrrr8..................................... :r",
"r: ...............................................;rrrrrrrr%..................................... :r",
"r: ..............................................Owrrrrrrr2...................................... :r",
"r: ..............................................4rrrrrrr0X...................................... :r",
"r: .............................................&rrrrrrrr&....................................... :r",
"r: ............................................X9rrrrrrr3........................................ :r",
"r: ............................................<rrrrrrrqo........................................ :r",
"r: ...........................................#errrrrrr-......................................... :r",
"r: ...........................................6rrrrrrr5.......................................... :r",
"r: ..........................................;rrrrrrrw+.......................................... :r",
"r: .........................................Owrrrrrrr;........................................... :r",
"r: .........................................4rrrrrrr6............................................ :r",
"r: ........................................&rrrrrrre#............................................ :r",
"r: .......................................X9rrrrrrr,............................................. :r",
"r: .......................................1rrrrrrr8.............................................. :r",
"r: ......................................#errrrrre%.............................................. :r",
"r: ......................................6rrrrrrr1............................................... :r",
"r: .....................................;rrrrrrr9X............................................... :r",
"r: ....................................Owrrrrrrr&................................................ :r",
"r: ....................................4rrrrrrr3................................................. :r",
"r: ...................................&rrrrrrrqo................................................. :r",
"r: ..................................X9rrrrrrr=.................................................. :r",
"r: ..................................1rrrrrrr5................................................... :r",
"r: .................................#errrrrrwO................................................... :r",
"r: .................................6rrrrrrr;.................................................... :r",
"r: ................................;rrrrrrr6..................................................... :r",
"r: ...............................Owrrrrrre@..................................................... :r",
"r: ...............................4rrrrrrr>...................................................... :r",
"r: ..............................*rrrrrrr8....................................................... :r",
"r: .............................X9rrrrrre$....................................................... :r",
"r: .............................1rrrrrrr1........................................................ :r",
"r: ............................#errrrrrq$##############################.......................... :r",
"r: ............................5rrrrrrrrrrrrrrrrrrrrrrrrrrrrrrrrrrrrrrq.......................... :r",
"r: ............................7rrrrrrrrrrrrrrrrrrrrrrrrrrrrrrrrrrrrrrq.......................... :r",
"r: ............................7rrrrrrrrrrrrrrrrrrrrrrrrrrrrrrrrrrrrrrq.......................... :r",
"r: ............................7rrrrrrrrrrrrrrrrrrrrrrrrrrrrrrrrrrrrrrq.......................... :r",
"r: ............................7rrrrrrrrrrrrrrrrrrrrrrrrrrrrrrrrrrrrrrq.......................... :r",
"r: ............................7rrrrrrrrrrrrrrrrrrrrrrrrrrrrrrrrrrrrrrq.......................... :r",
"r: .............................................................................................. :r",
"r: .............................................................................................. :r",
"r: .............................................................................................. :r",
"r: .............................................................................................. :r",
"r: .............................................................................................. :r",
"r: .............................................................................................. :r",
"r: .............................................................................................. :r",
"r: .............................................................................................. :r",
"r: .............................................................................................. :r",
"r: .............................................................................................. :r",
"r: .............................................................................................. :r",
"r: .............................................................................................. :r",
"r: .............................................................................................. :r",
"r: .............................................................................................. :r",
"r: .............................................................................................. :r",
"r: .............................................................................................. :r",
"r: .............................................................................................. :r",
"r:O.............................................................................................. :r",
"r:                                                                                                :r",
"r;::::::::::::::::::::::::::::::::::::::::::::::::::::::::::::::::::::::::::::::::::::::::::::::::;r",
"rrrrrrrrrrrrrrrrrrrrrrrrrrrrrrrrrrrrrrrrrrrrrrrrrrrrrrrrrrrrrrrrrrrrrrrrrrrrrrrrrrrrrrrrrrrrrrrrrrrr"
};
